<?xml version="1.0" standalone="no"?>
<!DOCTYPE svg PUBLIC "-//W3C//DTD SVG 20010904//EN"
 "http://www.w3.org/TR/2001/REC-SVG-20010904/DTD/svg10.dtd">
<svg version="1.0" xmlns="http://www.w3.org/2000/svg"
 width="1231.000000pt" height="478.000000pt" viewBox="0 0 1231.000000 478.000000"
 preserveAspectRatio="xMidYMid meet">
<metadata>
Created by potrace 1.15, written by Peter Selinger 2001-2017
</metadata>
<g transform="translate(0.000000,478.000000) scale(0.100000,-0.100000)"
fill="#000000" stroke="none">
<path d="M2101 4770 c-556 -58 -1084 -241 -1517 -526 -199 -130 -454 -339
-524 -428 -85 -109 -75 -287 23 -387 60 -62 118 -84 217 -84 107 0 138 16 269
132 412 367 891 593 1441 678 141 22 502 31 655 16 461 -44 880 -192 1265
-446 97 -64 217 -158 354 -277 107 -93 132 -103 241 -103 109 0 149 18 219 96
57 63 81 135 73 221 -10 117 -65 185 -304 378 -482 389 -1032 626 -1668 716
-129 18 -615 27 -744 14z"/>
<path d="M7428 3952 c-91 -32 -176 -66 -187 -76 -12 -11 -26 -36 -32 -56 -14
-46 7 -97 50 -123 36 -21 66 -21 120 -3 l41 15 -215 -429 c-238 -475 -240
-481 -186 -539 25 -27 36 -31 78 -31 30 0 56 7 70 18 11 9 118 211 236 447
206 413 216 429 226 400 21 -57 39 -80 76 -99 32 -16 43 -17 75 -7 47 14 80
56 80 103 0 18 -27 115 -61 215 -69 208 -80 223 -158 222 -28 0 -110 -22 -213
-57z"/>
<path d="M2230 3794 c-535 -49 -1020 -258 -1406 -605 -136 -123 -168 -177
-167 -289 0 -92 24 -151 83 -210 63 -63 119 -85 215 -84 100 0 148 23 255 121
92 85 173 147 265 203 520 320 1141 356 1683 99 176 -83 313 -175 455 -306 99
-90 161 -118 262 -117 66 0 89 5 130 26 82 43 134 112 155 208 27 121 -21 220
-170 354 -345 308 -779 511 -1240 581 -102 15 -429 27 -520 19z"/>
<path d="M8201 3630 c-95 -33 -184 -66 -196 -74 -54 -35 -53 -133 2 -176 28
-22 85 -26 129 -10 15 6 29 9 31 6 2 -2 -91 -193 -206 -425 -238 -475 -238
-476 -176 -538 33 -33 39 -35 81 -30 26 3 54 13 67 25 12 12 116 210 232 442
115 231 213 420 216 420 3 0 11 -18 18 -39 16 -54 61 -91 113 -91 54 0 108 51
108 101 0 54 -117 392 -144 418 -43 40 -85 36 -275 -29z"/>
<path d="M6154 2786 l-34 -34 0 -616 0 -616 -1680 0 c-1592 0 -1681 1 -1686
18 -26 88 -108 181 -194 221 -78 36 -193 41 -272 11 -201 -75 -292 -298 -201
-492 38 -80 91 -133 173 -172 57 -27 76 -31 150 -31 74 0 93 4 150 31 73 35
139 97 165 155 l18 39 1689 0 1688 0 0 -611 c0 -552 2 -614 17 -639 9 -16 27
-33 40 -39 67 -31 42 -44 1103 593 l1005 604 5 -571 c3 -315 9 -580 14 -590
12 -26 59 -47 105 -47 31 0 46 7 70 31 l31 31 0 619 0 619 1866 0 1866 0 35
35 c33 33 35 39 30 82 -4 37 -12 54 -36 75 l-31 28 -1865 0 -1865 0 0 610 c0
416 -3 617 -11 633 -28 61 -118 75 -171 28 l-33 -29 -5 -576 -5 -576 -1008
605 c-1123 674 -1055 639 -1123 571z m1125 -836 c490 -294 890 -538 889 -542
-3 -7 -1815 -1098 -1824 -1098 -2 0 -4 495 -4 1100 l0 1101 24 -13 c13 -7 425
-254 915 -548z"/>
<path d="M2160 2790 c-275 -51 -515 -177 -711 -370 -80 -79 -100 -105 -119
-155 -43 -116 -9 -252 84 -331 46 -39 131 -74 182 -74 92 0 192 48 269 130 85
89 240 174 372 204 153 34 353 14 490 -49 91 -42 147 -81 240 -166 103 -93
147 -114 248 -113 66 0 89 5 130 26 60 31 105 77 137 138 19 37 23 60 23 130
0 113 -24 159 -141 269 -203 192 -441 313 -713 362 -136 25 -358 24 -491 -1z"/>
</g>
</svg>
