M48
; DRILL file {KiCad 5.99.0-unknown-308ab8caf~106~ubuntu18.04.1} date Thu Feb 25 19:43:36 2021
; FORMAT={-:-/ absolute / inch / decimal}
; #@! TF.CreationDate,2021-02-25T19:43:36-08:00
; #@! TF.GenerationSoftware,Kicad,Pcbnew,5.99.0-unknown-308ab8caf~106~ubuntu18.04.1
FMAT,2
INCH
T1C0.0100
T2C0.0118
T3C0.0197
T4C0.0394
T5C0.0409
%
G90
G05
T1
X4.1594Y-5.1004
X4.1663Y-4.5167
X4.202Y-4.629
X4.219Y-4.491
X4.324Y-4.751
X4.324Y-4.955
X4.472Y-4.494
X4.485Y-4.748
X4.487Y-4.959
X4.535Y-4.63
X4.569Y-4.498
X4.5871Y-4.4144
X4.62Y-4.888
X4.695Y-4.648
X4.695Y-4.94
X4.7Y-4.695
X4.745Y-5.104
X4.7789Y-4.7309
X4.7794Y-4.9422
X4.829Y-4.857
X4.935Y-5.015
X4.975Y-4.73
X4.975Y-4.845
X5.025Y-4.75
X5.025Y-4.805
X5.075Y-4.835
X5.125Y-4.87
X5.317Y-4.263
X5.326Y-4.722
X5.42Y-4.28
X5.439Y-4.849
X5.504Y-4.271
X5.5346Y-4.59
X5.5346Y-4.6294
X5.5346Y-4.6687
X5.5346Y-4.7081
X5.5346Y-4.7475
X5.5346Y-4.7869
X5.574Y-4.59
X5.574Y-4.6294
X5.574Y-4.6687
X5.574Y-4.7081
X5.574Y-4.7475
X5.574Y-4.7869
X5.574Y-4.8262
X5.6134Y-4.59
X5.6134Y-4.6294
X5.6134Y-4.6687
X5.6134Y-4.7081
X5.6134Y-4.7475
X5.6134Y-4.7869
X5.6134Y-4.8262
X5.693Y-3.914
X5.693Y-3.9534
X5.693Y-3.9927
X5.693Y-4.0321
X5.693Y-4.0715
X5.693Y-4.1109
X5.694Y-4.271
X5.7324Y-3.914
X5.7324Y-3.9534
X5.7324Y-3.9927
X5.7324Y-4.0321
X5.7324Y-4.0715
X5.7324Y-4.1109
X5.737Y-5.133
X5.77Y-4.532
X5.8412Y-4.5398
X5.883Y-4.523
X5.908Y-4.356
X5.908Y-4.783
X5.918Y-4.871
X5.932Y-4.492
X5.936Y-4.704
X5.958Y-4.827
X5.963Y-4.618
X5.995Y-4.986
X5.995Y-5.0254
X6.0Y-4.756
X6.015Y-4.035
X6.015Y-4.074
X6.018Y-4.646
X6.0344Y-4.986
X6.0344Y-5.0254
X6.037Y-5.129
X6.0726Y-4.4427
X6.0737Y-4.986
X6.0737Y-5.0254
X6.112Y-4.364
X6.112Y-4.4034
X6.112Y-4.4427
X6.1131Y-4.986
X6.1131Y-5.0254
X6.1339Y-4.4749
X6.1514Y-4.364
X6.1514Y-4.4034
X6.1514Y-4.4427
X6.162Y-4.243
X6.177Y-4.647
X6.178Y-4.688
X6.187Y-3.995
X6.219Y-4.162
X6.219Y-4.2014
X6.219Y-4.2407
X6.219Y-4.2801
X6.219Y-4.3195
X6.219Y-4.3589
X6.2369Y-4.3962
X6.249Y-5.1033
X6.253Y-5.2018
X6.2763Y-4.3962
X6.307Y-4.513
X6.307Y-4.5425
X6.307Y-4.5721
X6.307Y-4.6016
X6.307Y-4.6311
X6.307Y-4.6606
X6.307Y-4.6902
X6.307Y-4.7197
X6.3156Y-4.3962
X6.355Y-4.162
X6.355Y-4.1994
X6.355Y-4.2387
X6.355Y-4.2781
X6.355Y-4.3175
X6.355Y-4.3569
X6.355Y-4.3962
X6.36Y-5.31
X6.36Y-5.3619
X6.36Y-5.4013
X6.36Y-5.4406
X6.3994Y-5.3619
X6.3994Y-5.4013
X6.3994Y-5.4406
X6.3994Y-5.48
X6.4387Y-5.3619
X6.4387Y-5.4013
X6.4387Y-5.4406
X6.4387Y-5.48
X6.4781Y-5.3619
X6.4781Y-5.4013
X6.4781Y-5.4406
X6.4781Y-5.48
X6.495Y-4.48
X6.495Y-4.5194
X6.495Y-4.5587
X6.495Y-4.5981
X6.495Y-4.6375
X6.495Y-4.6769
X6.495Y-4.7162
X6.5175Y-5.3619
X6.5175Y-5.4013
X6.5175Y-5.4406
X6.5175Y-5.48
X6.5344Y-4.48
X6.5344Y-4.5194
X6.5344Y-4.5587
X6.5344Y-4.5981
X6.5344Y-4.6375
X6.5344Y-4.6769
X6.5344Y-4.7162
X6.5569Y-5.3619
X6.5737Y-4.48
X6.5737Y-4.5194
X6.5737Y-4.5587
X6.5737Y-4.5981
X6.5737Y-4.6375
X6.5737Y-4.6769
X6.5737Y-4.7162
X6.5962Y-5.3619
X6.6131Y-4.48
X6.6131Y-4.5194
X6.6131Y-4.5587
X6.6131Y-4.5981
X6.6131Y-4.6375
X6.6131Y-4.6769
X6.6131Y-4.7162
T2
X5.8038Y-4.4024
X5.8038Y-4.4418
X5.8235Y-4.4221
X5.8432Y-4.4024
X5.8432Y-4.4418
T3
X4.1673Y-5.3976
T4
X4.2Y-4.7
X4.2Y-4.8
X4.2Y-4.9
X4.2Y-5.0
X4.3Y-5.4
X4.4Y-5.4
X4.5Y-4.0
X4.5Y-5.4
X4.6Y-4.0
X4.6Y-5.4
X4.7Y-4.0
X4.7Y-5.4
X4.8Y-4.0
X4.8Y-5.4
X4.9Y-4.0
X4.9Y-5.4
X5.0Y-4.0
X5.0Y-5.4
X5.1Y-4.0
X5.1Y-5.4
X5.2Y-4.0
X5.2Y-5.4
X5.3Y-4.0
X5.3Y-5.4
X5.4Y-4.0
X5.4Y-5.4
X5.5Y-4.0
X5.5Y-5.4
X5.6Y-4.0
X5.6Y-5.4
X5.7Y-5.4
X5.8Y-5.4
X6.513Y-5.003
X6.513Y-5.103
X6.513Y-5.203
X6.513Y-5.303
T5
X4.1689Y-4.2008
X4.1689Y-5.2008
X4.2689Y-4.2008
X4.2689Y-5.2008
X4.3689Y-4.2008
X4.3689Y-5.2008
X4.4689Y-4.2008
X4.4689Y-5.2008
X4.5689Y-4.2008
X4.5689Y-5.2008
X4.6689Y-4.2008
X4.6689Y-5.2008
X4.7689Y-4.2008
X4.7689Y-5.2008
X4.8689Y-4.2008
X4.8689Y-5.2008
X4.9689Y-4.2008
X4.9689Y-5.2008
X5.0689Y-4.2008
X5.0689Y-5.2008
X5.1689Y-4.2008
X5.1689Y-5.2008
X5.2689Y-4.2008
X5.2689Y-5.2008
X5.3689Y-4.2008
X5.3689Y-5.2008
X5.4689Y-4.2008
X5.4689Y-5.2008
X5.5689Y-4.2008
X5.5689Y-5.2008
X5.6689Y-4.2008
X5.6689Y-5.2008
X5.7689Y-4.2008
X5.7689Y-5.2008
X5.8689Y-4.2008
X5.8689Y-5.2008
X5.9689Y-4.2008
X5.9689Y-5.2008
T4
G00X6.2864Y-4.2215
M15
G01X6.2864Y-4.3199
M16
G05
G00X6.3652Y-4.0856
M15
G01X6.4439Y-4.0856
M16
G05
G00X6.5226Y-4.2313
M15
G01X6.5226Y-4.31
M16
G05
T0
M30
