%TF.GenerationSoftware,KiCad,Pcbnew,5.99.0-unknown-308ab8caf~106~ubuntu18.04.1*%
%TF.CreationDate,2021-02-25T19:42:53-08:00*%
%TF.ProjectId,signal-board,7369676e-616c-42d6-926f-6172642e6b69,rev?*%
%TF.SameCoordinates,Original*%
%TF.FileFunction,Copper,L2,Inr*%
%TF.FilePolarity,Positive*%
%FSLAX46Y46*%
G04 Gerber Fmt 4.6, Leading zero omitted, Abs format (unit mm)*
G04 Created by KiCad (PCBNEW 5.99.0-unknown-308ab8caf~106~ubuntu18.04.1) date 2021-02-25 19:42:53*
%MOMM*%
%LPD*%
G01*
G04 APERTURE LIST*
%TA.AperFunction,Profile*%
%ADD10C,0.100000*%
%TD*%
%TA.AperFunction,Profile*%
%ADD11C,0.120000*%
%TD*%
%TA.AperFunction,ComponentPad*%
%ADD12R,1.700000X1.700000*%
%TD*%
%TA.AperFunction,ComponentPad*%
%ADD13O,1.700000X1.700000*%
%TD*%
%TA.AperFunction,ComponentPad*%
%ADD14O,2.500000X5.000000*%
%TD*%
%TA.AperFunction,ComponentPad*%
%ADD15O,2.250000X4.500000*%
%TD*%
%TA.AperFunction,ComponentPad*%
%ADD16O,4.500000X2.250000*%
%TD*%
%TA.AperFunction,ComponentPad*%
%ADD17C,1.750000*%
%TD*%
%TA.AperFunction,ComponentPad*%
%ADD18R,1.560000X1.560000*%
%TD*%
%TA.AperFunction,ComponentPad*%
%ADD19C,1.560000*%
%TD*%
%TA.AperFunction,ComponentPad*%
%ADD20C,0.600000*%
%TD*%
%TA.AperFunction,ViaPad*%
%ADD21C,0.508000*%
%TD*%
%TA.AperFunction,ViaPad*%
%ADD22C,0.750000*%
%TD*%
%TA.AperFunction,Conductor*%
%ADD23C,0.254000*%
%TD*%
G04 APERTURE END LIST*
D10*
X170300000Y-141000000D02*
X170300000Y-98000000D01*
X170300000Y-141000000D02*
X97300000Y-141000000D01*
X97300000Y-135500000D02*
X97300000Y-141000000D01*
X104400000Y-133500000D02*
G75*
G02*
X102400000Y-135500000I-2000000J0D01*
G01*
X104400000Y-133500000D02*
X104400000Y-105500000D01*
X97300000Y-98000000D02*
X97300000Y-103500000D01*
D11*
X101175000Y-138500000D02*
G75*
G03*
X101175000Y-138500000I-1125000J0D01*
G01*
D10*
X102400000Y-103500000D02*
G75*
G02*
X104400000Y-105500000I0J-2000000D01*
G01*
D11*
X101175000Y-100500000D02*
G75*
G03*
X101175000Y-100500000I-1125000J0D01*
G01*
X97300000Y-98000000D02*
X170300000Y-98000000D01*
X168675000Y-138500000D02*
G75*
G03*
X168675000Y-138500000I-1125000J0D01*
G01*
D10*
X102400000Y-135500000D02*
X97300000Y-135500000D01*
D11*
X168675000Y-100500000D02*
G75*
G03*
X168675000Y-100500000I-1125000J0D01*
G01*
D10*
X102400000Y-103500000D02*
X97300000Y-103500000D01*
D12*
%TO.N,+3V3*%
%TO.C,J4*%
X109220000Y-137160000D03*
D13*
%TO.N,/en*%
X111760000Y-137160000D03*
%TO.N,/sensor_vp*%
X114300000Y-137160000D03*
%TO.N,/sensor_vn*%
X116840000Y-137160000D03*
%TO.N,/io34*%
X119380000Y-137160000D03*
%TO.N,/io35*%
X121920000Y-137160000D03*
%TO.N,/io25*%
X124460000Y-137160000D03*
%TO.N,/uart_tx*%
X127000000Y-137160000D03*
%TO.N,/uart_rx*%
X129540000Y-137160000D03*
%TO.N,/vspi_mosi*%
X132080000Y-137160000D03*
%TO.N,/vspi_miso*%
X134620000Y-137160000D03*
%TO.N,/vspi_clk*%
X137160000Y-137160000D03*
%TO.N,/vspi_cs*%
X139700000Y-137160000D03*
%TO.N,GND*%
X142240000Y-137160000D03*
%TO.N,+5V*%
X144780000Y-137160000D03*
%TO.N,/3-12V_UNFUSED*%
X147320000Y-137160000D03*
%TD*%
D14*
%TO.N,/3-12V_UNFUSED*%
%TO.C,J1*%
X159675000Y-108475000D03*
D15*
%TO.N,GND*%
X165675000Y-108475000D03*
D16*
X162675000Y-103775000D03*
%TD*%
D12*
%TO.N,/i2c_scl*%
%TO.C,J2*%
X114300000Y-101600000D03*
D13*
%TO.N,/i2c_sda*%
X116840000Y-101600000D03*
%TO.N,GND*%
X119380000Y-101600000D03*
%TO.N,/pixels_8*%
X121920000Y-101600000D03*
%TO.N,/pixels_7*%
X124460000Y-101600000D03*
%TO.N,/pixels_6*%
X127000000Y-101600000D03*
%TO.N,/pixels_5*%
X129540000Y-101600000D03*
%TO.N,/pixels_4*%
X132080000Y-101600000D03*
%TO.N,/pixels_3*%
X134620000Y-101600000D03*
%TO.N,/pixels_2*%
X137160000Y-101600000D03*
%TO.N,/pixels_1*%
X139700000Y-101600000D03*
%TO.N,GND*%
X142240000Y-101600000D03*
%TD*%
D17*
%TO.N,/3-12V_UNFUSED*%
%TO.C,J3*%
X165430200Y-127076200D03*
%TO.N,/pixels_1*%
X165430200Y-129616200D03*
%TO.N,/pixels_2*%
X165430200Y-132156200D03*
%TO.N,GND*%
X165430200Y-134696200D03*
%TD*%
D18*
%TO.N,+3V3*%
%TO.C,U2*%
X105890000Y-132100000D03*
D19*
%TO.N,/en*%
X108430000Y-132100000D03*
%TO.N,/sensor_vp*%
X110970000Y-132100000D03*
%TO.N,/sensor_vn*%
X113510000Y-132100000D03*
%TO.N,/io34*%
X116050000Y-132100000D03*
%TO.N,/io35*%
X118590000Y-132100000D03*
%TO.N,N/C*%
X121130000Y-132100000D03*
X123670000Y-132100000D03*
%TO.N,/io25*%
X126210000Y-132100000D03*
%TO.N,/level_shift_4*%
X128750000Y-132100000D03*
%TO.N,/level_shift_3*%
X131290000Y-132100000D03*
%TO.N,/status_led*%
X133830000Y-132100000D03*
%TO.N,/level_shift_2*%
X136370000Y-132100000D03*
%TO.N,GND*%
X138910000Y-132100000D03*
%TO.N,/level_shift_1*%
X141450000Y-132100000D03*
%TO.N,N/C*%
X143990000Y-132100000D03*
X146530000Y-132100000D03*
X149070000Y-132100000D03*
%TO.N,+5V*%
X151610000Y-132100000D03*
%TO.N,GND*%
X105890000Y-106700000D03*
%TO.N,/vspi_mosi*%
X108430000Y-106700000D03*
%TO.N,/i2c_scl*%
X110970000Y-106700000D03*
%TO.N,/uart_tx*%
X113510000Y-106700000D03*
%TO.N,/uart_rx*%
X116050000Y-106700000D03*
%TO.N,/i2c_sda*%
X118590000Y-106700000D03*
%TO.N,GND*%
X121130000Y-106700000D03*
%TO.N,/vspi_miso*%
X123670000Y-106700000D03*
%TO.N,/vspi_clk*%
X126210000Y-106700000D03*
%TO.N,/vspi_cs*%
X128750000Y-106700000D03*
%TO.N,/level_shift_8*%
X131290000Y-106700000D03*
%TO.N,/level_shift_7*%
X133830000Y-106700000D03*
%TO.N,/level_shift_6*%
X136370000Y-106700000D03*
%TO.N,/button_2*%
X138910000Y-106700000D03*
%TO.N,/level_shift_5*%
X141450000Y-106700000D03*
%TO.N,/button_1*%
X143990000Y-106700000D03*
%TO.N,N/C*%
X146530000Y-106700000D03*
X149070000Y-106700000D03*
X151610000Y-106700000D03*
%TD*%
D12*
%TO.N,GND*%
%TO.C,J5*%
X106680000Y-124460000D03*
D13*
%TO.N,Net-(J5-Pad2)*%
X106680000Y-127000000D03*
%TD*%
D20*
%TO.N,GND*%
%TO.C,U1*%
X147917100Y-112320600D03*
X147417100Y-112820600D03*
X148417100Y-112820600D03*
X148417100Y-111820600D03*
X147417100Y-111820600D03*
%TD*%
D12*
%TO.N,GND*%
%TO.C,J6*%
X106680000Y-119380000D03*
D13*
%TO.N,Net-(J6-Pad2)*%
X106680000Y-121920000D03*
%TD*%
D21*
%TO.N,GND*%
X155273000Y-126644400D03*
X140579600Y-116586000D03*
X161544000Y-136192000D03*
X109829600Y-120675400D03*
X166973000Y-114792000D03*
X166973000Y-115792000D03*
X142579600Y-116586000D03*
X144602200Y-100415600D03*
X166973000Y-116792000D03*
X142579600Y-118586000D03*
X144602200Y-104415600D03*
X141579600Y-117586000D03*
X152400000Y-120802400D03*
X163544000Y-137192000D03*
X156921200Y-119075200D03*
X167973000Y-116792000D03*
X141579600Y-119586000D03*
X141579600Y-116586000D03*
X162544000Y-139192000D03*
X152273000Y-126644400D03*
X145602200Y-104415600D03*
X117348000Y-124155200D03*
X145602200Y-103415600D03*
X156244800Y-110845600D03*
X165973000Y-118792000D03*
X164973000Y-119792000D03*
X144602200Y-102415600D03*
X141579600Y-120586000D03*
X145602200Y-101415600D03*
X164544000Y-139192000D03*
X165973000Y-114792000D03*
X140579600Y-119586000D03*
X155244800Y-112845600D03*
X113588800Y-114147600D03*
X164544000Y-136192000D03*
X164973000Y-117792000D03*
X119380000Y-119253000D03*
X166973000Y-117792000D03*
X105650000Y-129550000D03*
X163544000Y-136192000D03*
X167973000Y-113792000D03*
X139801600Y-108483400D03*
X145602200Y-99415600D03*
X165544000Y-139192000D03*
X156895800Y-118033800D03*
X144627600Y-108483400D03*
X166973000Y-113792000D03*
X164973000Y-118792000D03*
X142579600Y-121586000D03*
X164544000Y-137192000D03*
X113969800Y-125958600D03*
X155273000Y-127644400D03*
X109829600Y-125857000D03*
X167973000Y-114792000D03*
X164544000Y-138192000D03*
X156244800Y-112845600D03*
X163544000Y-139192000D03*
X162544000Y-138192000D03*
X166973000Y-119792000D03*
X161544000Y-134874000D03*
X144602200Y-99415600D03*
X122656600Y-123367800D03*
X141579600Y-121586000D03*
X165973000Y-113792000D03*
X145719800Y-130378200D03*
X145602200Y-100415600D03*
X140579600Y-118586000D03*
X141579600Y-122586000D03*
X164973000Y-115792000D03*
X152273000Y-127644400D03*
X144602200Y-103415600D03*
X154273000Y-126644400D03*
X165973000Y-119792000D03*
X144602200Y-101415600D03*
X165973000Y-116792000D03*
X165973000Y-117792000D03*
X167973000Y-117792000D03*
X120523000Y-129641600D03*
X142579600Y-117586000D03*
X161544000Y-137192000D03*
X162544000Y-136192000D03*
X167544000Y-136192000D03*
X167973000Y-118792000D03*
X164973000Y-116792000D03*
X150774400Y-119481600D03*
X166544000Y-136192000D03*
X142579600Y-119586000D03*
X155244800Y-110845600D03*
X165544000Y-138192000D03*
X142579600Y-120586000D03*
X140579600Y-117586000D03*
X116052600Y-114249200D03*
X115189000Y-117602000D03*
X164973000Y-113792000D03*
X166973000Y-118792000D03*
X140579600Y-121586000D03*
X107162600Y-114071400D03*
X106730800Y-117576600D03*
X154273000Y-127644400D03*
X153273000Y-126644400D03*
X153273000Y-127644400D03*
X142579600Y-122586000D03*
X153339800Y-130276600D03*
X113919000Y-120599200D03*
X135280400Y-119938800D03*
X165973000Y-115792000D03*
X155244800Y-111845600D03*
X162544000Y-137192000D03*
X154244800Y-112845600D03*
X119253000Y-118059200D03*
X140579600Y-120586000D03*
X145602200Y-102415600D03*
X156244800Y-111845600D03*
X138150600Y-123164600D03*
X161544000Y-138192000D03*
X167973000Y-115792000D03*
X125349000Y-127381000D03*
X165544000Y-136192000D03*
X163544000Y-138192000D03*
X164973000Y-114792000D03*
X167973000Y-119792000D03*
X165544000Y-137192000D03*
X151333200Y-122605800D03*
X141579600Y-118586000D03*
D22*
X105850000Y-137100000D03*
D21*
X119253000Y-125476000D03*
%TO.N,+3V3*%
X105825000Y-114725000D03*
X121398000Y-125531000D03*
X121384200Y-120165000D03*
%TO.N,/button_2*%
X126365000Y-120142000D03*
%TO.N,/button_1*%
X127635000Y-120650000D03*
%TO.N,/pixels_2*%
X158825000Y-132125000D03*
X135051800Y-108280200D03*
%TO.N,/pixels_1*%
X158725000Y-129625000D03*
X137668000Y-108712000D03*
%TO.N,/level_shift_5*%
X130175000Y-123698000D03*
%TO.N,/level_shift_6*%
X128905000Y-122809000D03*
%TO.N,/level_shift_7*%
X127635000Y-122047000D03*
%TO.N,/level_shift_8*%
X126365000Y-123063000D03*
%TO.N,/status_led*%
X116513000Y-112125000D03*
%TO.N,Net-(C3-Pad1)*%
X151460200Y-117297200D03*
X150672800Y-114096800D03*
%TO.N,Net-(C16-Pad1)*%
X157149800Y-101473000D03*
X152781000Y-102489000D03*
%TO.N,/TPS_FEEDBACK*%
X148365666Y-115311734D03*
X150317200Y-123723400D03*
%TO.N,/5V_Out_PG*%
X150063200Y-121488200D03*
X155800200Y-113662600D03*
X152857200Y-118008400D03*
X150063200Y-110642400D03*
%TO.N,/3-12V_UNFUSED*%
X158417000Y-111664000D03*
X157962600Y-107714800D03*
X157962600Y-109714800D03*
X161417000Y-105714800D03*
X161417000Y-106664000D03*
X160197800Y-116130200D03*
X157962600Y-106714800D03*
X159417000Y-111664000D03*
X160197800Y-119880200D03*
X160197800Y-116880200D03*
X160197800Y-118380200D03*
X161417000Y-107664000D03*
X157962600Y-105714800D03*
X160417000Y-111664000D03*
X161417000Y-110664000D03*
X161417000Y-108664000D03*
X160197800Y-119130200D03*
X160197800Y-115380200D03*
X161417000Y-111664000D03*
X160197800Y-117630200D03*
X161417000Y-109664000D03*
X157962600Y-108714800D03*
X160197800Y-114630200D03*
X157962600Y-110714800D03*
%TO.N,Net-(C15-Pad1)*%
X156514800Y-107772200D03*
X152781000Y-103479600D03*
%TO.N,VCC*%
X149428200Y-114884200D03*
X146558000Y-115112800D03*
%TD*%
D23*
%TO.N,/level_shift_5*%
X141450000Y-106700000D02*
X141450000Y-112423000D01*
X141450000Y-112423000D02*
X130175000Y-123698000D01*
%TO.N,/level_shift_6*%
X129032000Y-122809000D02*
X128905000Y-122809000D01*
X135636000Y-113411000D02*
X132080000Y-116967000D01*
X135636000Y-108966000D02*
X135636000Y-113411000D01*
X132080000Y-116967000D02*
X132080000Y-119761000D01*
X132080000Y-119761000D02*
X129032000Y-122809000D01*
X136370000Y-108232000D02*
X135636000Y-108966000D01*
X136370000Y-106700000D02*
X136370000Y-108232000D01*
%TO.N,/level_shift_7*%
X129540000Y-120142000D02*
X127635000Y-122047000D01*
X133223000Y-108712000D02*
X133223000Y-113030000D01*
X133830000Y-106700000D02*
X133830000Y-108105000D01*
X133830000Y-108105000D02*
X133223000Y-108712000D01*
X133223000Y-113030000D02*
X129540000Y-116713000D01*
X129540000Y-116713000D02*
X129540000Y-120142000D01*
%TO.N,/level_shift_8*%
X131290000Y-106700000D02*
X128651000Y-109339000D01*
X125730000Y-116586000D02*
X125730000Y-122428000D01*
X128651000Y-109339000D02*
X128651000Y-113157000D01*
X125730000Y-122428000D02*
X126365000Y-123063000D01*
X128651000Y-113665000D02*
X125730000Y-116586000D01*
X128651000Y-113157000D02*
X128651000Y-113665000D01*
%TD*%
%TA.AperFunction,Conductor*%
%TO.N,GND*%
G36*
X139921521Y-117420002D02*
G01*
X139968014Y-117473658D01*
X139979400Y-117526000D01*
X139979400Y-120396000D01*
X147447000Y-127584200D01*
X158852600Y-127584200D01*
X158920721Y-127604202D01*
X158967214Y-127657858D01*
X158978600Y-127710200D01*
X158978600Y-129058795D01*
X158958598Y-129126916D01*
X158904942Y-129173409D01*
X158834668Y-129183513D01*
X158824149Y-129181541D01*
X158770230Y-129169043D01*
X158770227Y-129169043D01*
X158761052Y-129166916D01*
X158751657Y-129167581D01*
X158751654Y-129167581D01*
X158634164Y-129175900D01*
X158634162Y-129175901D01*
X158624763Y-129176566D01*
X158615976Y-129179966D01*
X158615974Y-129179966D01*
X158606806Y-129183513D01*
X158497337Y-129225864D01*
X158390039Y-129310451D01*
X158312356Y-129422848D01*
X158271157Y-129553118D01*
X158270084Y-129689744D01*
X158272783Y-129698768D01*
X158272783Y-129698770D01*
X158306533Y-129811623D01*
X158306535Y-129811626D01*
X158309232Y-129820646D01*
X158385140Y-129934249D01*
X158491095Y-130020511D01*
X158617732Y-130071804D01*
X158627117Y-130072617D01*
X158627118Y-130072617D01*
X158744472Y-130082781D01*
X158744475Y-130082781D01*
X158753852Y-130083593D01*
X158763053Y-130081612D01*
X158763055Y-130081612D01*
X158826081Y-130068043D01*
X158896886Y-130073260D01*
X158953630Y-130115929D01*
X158978298Y-130182502D01*
X158978600Y-130191221D01*
X158978600Y-131541266D01*
X158958598Y-131609387D01*
X158904942Y-131655880D01*
X158860823Y-131663687D01*
X158861052Y-131666916D01*
X158734164Y-131675900D01*
X158734162Y-131675901D01*
X158724763Y-131676566D01*
X158715976Y-131679966D01*
X158715974Y-131679966D01*
X158669960Y-131697768D01*
X158597337Y-131725864D01*
X158490039Y-131810451D01*
X158412356Y-131922848D01*
X158371157Y-132053118D01*
X158370084Y-132189744D01*
X158372783Y-132198768D01*
X158372783Y-132198770D01*
X158406533Y-132311623D01*
X158406535Y-132311626D01*
X158409232Y-132320646D01*
X158485140Y-132434249D01*
X158591095Y-132520511D01*
X158717732Y-132571804D01*
X158727117Y-132572617D01*
X158727118Y-132572617D01*
X158751955Y-132574768D01*
X158844930Y-132582820D01*
X158844933Y-132582821D01*
X158853852Y-132583593D01*
X158853746Y-132584817D01*
X158913933Y-132598453D01*
X158963702Y-132649085D01*
X158978600Y-132708518D01*
X158978600Y-133757400D01*
X158958598Y-133825521D01*
X158904942Y-133872014D01*
X158852600Y-133883400D01*
X156744501Y-133883400D01*
X156676380Y-133863398D01*
X156655756Y-133846844D01*
X155371496Y-132572617D01*
X153441400Y-130657600D01*
X145643223Y-130657600D01*
X145575102Y-130637598D01*
X145556298Y-130622814D01*
X137529373Y-122973331D01*
X137493858Y-122911856D01*
X137490298Y-122881888D01*
X137494809Y-120403137D01*
X137500000Y-117550000D01*
X137500000Y-117526000D01*
X137520002Y-117457879D01*
X137573658Y-117411386D01*
X137626000Y-117400000D01*
X139853400Y-117400000D01*
X139921521Y-117420002D01*
G37*
%TD.AperFunction*%
%TD*%
M02*
