%TF.GenerationSoftware,KiCad,Pcbnew,5.99.0-unknown-308ab8caf~106~ubuntu18.04.1*%
%TF.CreationDate,2021-02-25T19:42:54-08:00*%
%TF.ProjectId,signal-board,7369676e-616c-42d6-926f-6172642e6b69,rev?*%
%TF.SameCoordinates,Original*%
%TF.FileFunction,Legend,Bot*%
%TF.FilePolarity,Positive*%
%FSLAX46Y46*%
G04 Gerber Fmt 4.6, Leading zero omitted, Abs format (unit mm)*
G04 Created by KiCad (PCBNEW 5.99.0-unknown-308ab8caf~106~ubuntu18.04.1) date 2021-02-25 19:42:54*
%MOMM*%
%LPD*%
G01*
G04 APERTURE LIST*
%ADD10C,0.100000*%
%ADD11C,0.120000*%
%TA.AperFunction,Profile*%
%ADD12C,0.100000*%
%TD*%
%TA.AperFunction,Profile*%
%ADD13C,0.120000*%
%TD*%
%ADD14C,0.150000*%
%ADD15C,0.015000*%
G04 APERTURE END LIST*
D10*
X108245190Y-121733000D02*
X108753190Y-121733000D01*
X108753190Y-121394333D02*
X108753190Y-121297571D01*
X108729000Y-121249190D01*
X108680619Y-121200809D01*
X108583857Y-121176619D01*
X108414523Y-121176619D01*
X108317761Y-121200809D01*
X108269380Y-121249190D01*
X108245190Y-121297571D01*
X108245190Y-121394333D01*
X108269380Y-121442714D01*
X108317761Y-121491095D01*
X108414523Y-121515285D01*
X108583857Y-121515285D01*
X108680619Y-121491095D01*
X108729000Y-121442714D01*
X108753190Y-121394333D01*
X108753190Y-120862142D02*
X108753190Y-120813761D01*
X108729000Y-120765380D01*
X108704809Y-120741190D01*
X108656428Y-120717000D01*
X108559666Y-120692809D01*
X108438714Y-120692809D01*
X108341952Y-120717000D01*
X108293571Y-120741190D01*
X108269380Y-120765380D01*
X108245190Y-120813761D01*
X108245190Y-120862142D01*
X108269380Y-120910523D01*
X108293571Y-120934714D01*
X108341952Y-120958904D01*
X108438714Y-120983095D01*
X108559666Y-120983095D01*
X108656428Y-120958904D01*
X108704809Y-120934714D01*
X108729000Y-120910523D01*
X108753190Y-120862142D01*
X108220190Y-127274904D02*
X108728190Y-127274904D01*
X108728190Y-126936238D02*
X108728190Y-126839476D01*
X108704000Y-126791095D01*
X108655619Y-126742714D01*
X108558857Y-126718523D01*
X108389523Y-126718523D01*
X108292761Y-126742714D01*
X108244380Y-126791095D01*
X108220190Y-126839476D01*
X108220190Y-126936238D01*
X108244380Y-126984619D01*
X108292761Y-127033000D01*
X108389523Y-127057190D01*
X108558857Y-127057190D01*
X108655619Y-127033000D01*
X108704000Y-126984619D01*
X108728190Y-126936238D01*
X108220190Y-126234714D02*
X108220190Y-126525000D01*
X108220190Y-126379857D02*
X108728190Y-126379857D01*
X108655619Y-126428238D01*
X108607238Y-126476619D01*
X108583047Y-126525000D01*
X108728190Y-125775095D02*
X108728190Y-126017000D01*
X108486285Y-126041190D01*
X108510476Y-126017000D01*
X108534666Y-125968619D01*
X108534666Y-125847666D01*
X108510476Y-125799285D01*
X108486285Y-125775095D01*
X108437904Y-125750904D01*
X108316952Y-125750904D01*
X108268571Y-125775095D01*
X108244380Y-125799285D01*
X108220190Y-125847666D01*
X108220190Y-125968619D01*
X108244380Y-126017000D01*
X108268571Y-126041190D01*
X136791133Y-135809533D02*
X137491133Y-135809533D01*
X137491133Y-135342866D02*
X137491133Y-135209533D01*
X137457800Y-135142866D01*
X137391133Y-135076200D01*
X137257800Y-135042866D01*
X137024466Y-135042866D01*
X136891133Y-135076200D01*
X136824466Y-135142866D01*
X136791133Y-135209533D01*
X136791133Y-135342866D01*
X136824466Y-135409533D01*
X136891133Y-135476200D01*
X137024466Y-135509533D01*
X137257800Y-135509533D01*
X137391133Y-135476200D01*
X137457800Y-135409533D01*
X137491133Y-135342866D01*
X136791133Y-134376200D02*
X136791133Y-134776200D01*
X136791133Y-134576200D02*
X137491133Y-134576200D01*
X137391133Y-134642866D01*
X137324466Y-134709533D01*
X137291133Y-134776200D01*
X137191133Y-133976200D02*
X137224466Y-134042866D01*
X137257800Y-134076200D01*
X137324466Y-134109533D01*
X137357800Y-134109533D01*
X137424466Y-134076200D01*
X137457800Y-134042866D01*
X137491133Y-133976200D01*
X137491133Y-133842866D01*
X137457800Y-133776200D01*
X137424466Y-133742866D01*
X137357800Y-133709533D01*
X137324466Y-133709533D01*
X137257800Y-133742866D01*
X137224466Y-133776200D01*
X137191133Y-133842866D01*
X137191133Y-133976200D01*
X137157800Y-134042866D01*
X137124466Y-134076200D01*
X137057800Y-134109533D01*
X136924466Y-134109533D01*
X136857800Y-134076200D01*
X136824466Y-134042866D01*
X136791133Y-133976200D01*
X136791133Y-133842866D01*
X136824466Y-133776200D01*
X136857800Y-133742866D01*
X136924466Y-133709533D01*
X137057800Y-133709533D01*
X137124466Y-133742866D01*
X137157800Y-133776200D01*
X137191133Y-133842866D01*
X111750000Y-135591666D02*
X111750000Y-135358333D01*
X111383333Y-135258333D02*
X111383333Y-135591666D01*
X112083333Y-135591666D01*
X112083333Y-135258333D01*
X111383333Y-134958333D02*
X112083333Y-134958333D01*
X111383333Y-134558333D01*
X112083333Y-134558333D01*
X131816133Y-135859533D02*
X132516133Y-135859533D01*
X132516133Y-135392866D02*
X132516133Y-135259533D01*
X132482800Y-135192866D01*
X132416133Y-135126200D01*
X132282800Y-135092866D01*
X132049466Y-135092866D01*
X131916133Y-135126200D01*
X131849466Y-135192866D01*
X131816133Y-135259533D01*
X131816133Y-135392866D01*
X131849466Y-135459533D01*
X131916133Y-135526200D01*
X132049466Y-135559533D01*
X132282800Y-135559533D01*
X132416133Y-135526200D01*
X132482800Y-135459533D01*
X132516133Y-135392866D01*
X132449466Y-134826200D02*
X132482800Y-134792866D01*
X132516133Y-134726200D01*
X132516133Y-134559533D01*
X132482800Y-134492866D01*
X132449466Y-134459533D01*
X132382800Y-134426200D01*
X132316133Y-134426200D01*
X132216133Y-134459533D01*
X131816133Y-134859533D01*
X131816133Y-134426200D01*
X132516133Y-134192866D02*
X132516133Y-133759533D01*
X132249466Y-133992866D01*
X132249466Y-133892866D01*
X132216133Y-133826200D01*
X132182800Y-133792866D01*
X132116133Y-133759533D01*
X131949466Y-133759533D01*
X131882800Y-133792866D01*
X131849466Y-133826200D01*
X131816133Y-133892866D01*
X131816133Y-134092866D01*
X131849466Y-134159533D01*
X131882800Y-134192866D01*
X117163333Y-135598800D02*
X116463333Y-135365466D01*
X117163333Y-135132133D01*
X116463333Y-134898800D02*
X117163333Y-134898800D01*
X116463333Y-134498800D01*
X117163333Y-134498800D01*
X121666133Y-135734533D02*
X122366133Y-135734533D01*
X122366133Y-135267866D02*
X122366133Y-135134533D01*
X122332800Y-135067866D01*
X122266133Y-135001200D01*
X122132800Y-134967866D01*
X121899466Y-134967866D01*
X121766133Y-135001200D01*
X121699466Y-135067866D01*
X121666133Y-135134533D01*
X121666133Y-135267866D01*
X121699466Y-135334533D01*
X121766133Y-135401200D01*
X121899466Y-135434533D01*
X122132800Y-135434533D01*
X122266133Y-135401200D01*
X122332800Y-135334533D01*
X122366133Y-135267866D01*
X122366133Y-134734533D02*
X122366133Y-134301200D01*
X122099466Y-134534533D01*
X122099466Y-134434533D01*
X122066133Y-134367866D01*
X122032800Y-134334533D01*
X121966133Y-134301200D01*
X121799466Y-134301200D01*
X121732800Y-134334533D01*
X121699466Y-134367866D01*
X121666133Y-134434533D01*
X121666133Y-134634533D01*
X121699466Y-134701200D01*
X121732800Y-134734533D01*
X122366133Y-133667866D02*
X122366133Y-134001200D01*
X122032800Y-134034533D01*
X122066133Y-134001200D01*
X122099466Y-133934533D01*
X122099466Y-133767866D01*
X122066133Y-133701200D01*
X122032800Y-133667866D01*
X121966133Y-133634533D01*
X121799466Y-133634533D01*
X121732800Y-133667866D01*
X121699466Y-133701200D01*
X121666133Y-133767866D01*
X121666133Y-133934533D01*
X121699466Y-134001200D01*
X121732800Y-134034533D01*
X129341133Y-135267866D02*
X129674466Y-135501200D01*
X129341133Y-135667866D02*
X130041133Y-135667866D01*
X130041133Y-135401200D01*
X130007800Y-135334533D01*
X129974466Y-135301200D01*
X129907800Y-135267866D01*
X129807800Y-135267866D01*
X129741133Y-135301200D01*
X129707800Y-135334533D01*
X129674466Y-135401200D01*
X129674466Y-135667866D01*
X130041133Y-135034533D02*
X129341133Y-134567866D01*
X130041133Y-134567866D02*
X129341133Y-135034533D01*
X139348733Y-135800400D02*
X140048733Y-135800400D01*
X140048733Y-135333733D02*
X140048733Y-135200400D01*
X140015400Y-135133733D01*
X139948733Y-135067066D01*
X139815400Y-135033733D01*
X139582066Y-135033733D01*
X139448733Y-135067066D01*
X139382066Y-135133733D01*
X139348733Y-135200400D01*
X139348733Y-135333733D01*
X139382066Y-135400400D01*
X139448733Y-135467066D01*
X139582066Y-135500400D01*
X139815400Y-135500400D01*
X139948733Y-135467066D01*
X140015400Y-135400400D01*
X140048733Y-135333733D01*
X140048733Y-134400400D02*
X140048733Y-134733733D01*
X139715400Y-134767066D01*
X139748733Y-134733733D01*
X139782066Y-134667066D01*
X139782066Y-134500400D01*
X139748733Y-134433733D01*
X139715400Y-134400400D01*
X139648733Y-134367066D01*
X139482066Y-134367066D01*
X139415400Y-134400400D01*
X139382066Y-134433733D01*
X139348733Y-134500400D01*
X139348733Y-134667066D01*
X139382066Y-134733733D01*
X139415400Y-134767066D01*
X124191133Y-135759533D02*
X124891133Y-135759533D01*
X124891133Y-135292866D02*
X124891133Y-135159533D01*
X124857800Y-135092866D01*
X124791133Y-135026200D01*
X124657800Y-134992866D01*
X124424466Y-134992866D01*
X124291133Y-135026200D01*
X124224466Y-135092866D01*
X124191133Y-135159533D01*
X124191133Y-135292866D01*
X124224466Y-135359533D01*
X124291133Y-135426200D01*
X124424466Y-135459533D01*
X124657800Y-135459533D01*
X124791133Y-135426200D01*
X124857800Y-135359533D01*
X124891133Y-135292866D01*
X124824466Y-134726200D02*
X124857800Y-134692866D01*
X124891133Y-134626200D01*
X124891133Y-134459533D01*
X124857800Y-134392866D01*
X124824466Y-134359533D01*
X124757800Y-134326200D01*
X124691133Y-134326200D01*
X124591133Y-134359533D01*
X124191133Y-134759533D01*
X124191133Y-134326200D01*
X124891133Y-133692866D02*
X124891133Y-134026200D01*
X124557800Y-134059533D01*
X124591133Y-134026200D01*
X124624466Y-133959533D01*
X124624466Y-133792866D01*
X124591133Y-133726200D01*
X124557800Y-133692866D01*
X124491133Y-133659533D01*
X124324466Y-133659533D01*
X124257800Y-133692866D01*
X124224466Y-133726200D01*
X124191133Y-133792866D01*
X124191133Y-133959533D01*
X124224466Y-134026200D01*
X124257800Y-134059533D01*
X114597933Y-135632933D02*
X113897933Y-135399600D01*
X114597933Y-135166266D01*
X113897933Y-134932933D02*
X114597933Y-134932933D01*
X114597933Y-134666266D01*
X114564600Y-134599600D01*
X114531266Y-134566266D01*
X114464600Y-134532933D01*
X114364600Y-134532933D01*
X114297933Y-134566266D01*
X114264600Y-134599600D01*
X114231266Y-134666266D01*
X114231266Y-134932933D01*
X134366133Y-135759533D02*
X135066133Y-135759533D01*
X135066133Y-135292866D02*
X135066133Y-135159533D01*
X135032800Y-135092866D01*
X134966133Y-135026200D01*
X134832800Y-134992866D01*
X134599466Y-134992866D01*
X134466133Y-135026200D01*
X134399466Y-135092866D01*
X134366133Y-135159533D01*
X134366133Y-135292866D01*
X134399466Y-135359533D01*
X134466133Y-135426200D01*
X134599466Y-135459533D01*
X134832800Y-135459533D01*
X134966133Y-135426200D01*
X135032800Y-135359533D01*
X135066133Y-135292866D01*
X134366133Y-134326200D02*
X134366133Y-134726200D01*
X134366133Y-134526200D02*
X135066133Y-134526200D01*
X134966133Y-134592866D01*
X134899466Y-134659533D01*
X134866133Y-134726200D01*
X134366133Y-133992866D02*
X134366133Y-133859533D01*
X134399466Y-133792866D01*
X134432800Y-133759533D01*
X134532800Y-133692866D01*
X134666133Y-133659533D01*
X134932800Y-133659533D01*
X134999466Y-133692866D01*
X135032800Y-133726200D01*
X135066133Y-133792866D01*
X135066133Y-133926200D01*
X135032800Y-133992866D01*
X134999466Y-134026200D01*
X134932800Y-134059533D01*
X134766133Y-134059533D01*
X134699466Y-134026200D01*
X134666133Y-133992866D01*
X134632800Y-133926200D01*
X134632800Y-133792866D01*
X134666133Y-133726200D01*
X134699466Y-133692866D01*
X134766133Y-133659533D01*
X127466133Y-135684533D02*
X127466133Y-135284533D01*
X126766133Y-135484533D02*
X127466133Y-135484533D01*
X127466133Y-135117866D02*
X126766133Y-134651200D01*
X127466133Y-134651200D02*
X126766133Y-135117866D01*
X119166133Y-135759533D02*
X119866133Y-135759533D01*
X119866133Y-135292866D02*
X119866133Y-135159533D01*
X119832800Y-135092866D01*
X119766133Y-135026200D01*
X119632800Y-134992866D01*
X119399466Y-134992866D01*
X119266133Y-135026200D01*
X119199466Y-135092866D01*
X119166133Y-135159533D01*
X119166133Y-135292866D01*
X119199466Y-135359533D01*
X119266133Y-135426200D01*
X119399466Y-135459533D01*
X119632800Y-135459533D01*
X119766133Y-135426200D01*
X119832800Y-135359533D01*
X119866133Y-135292866D01*
X119866133Y-134759533D02*
X119866133Y-134326200D01*
X119599466Y-134559533D01*
X119599466Y-134459533D01*
X119566133Y-134392866D01*
X119532800Y-134359533D01*
X119466133Y-134326200D01*
X119299466Y-134326200D01*
X119232800Y-134359533D01*
X119199466Y-134392866D01*
X119166133Y-134459533D01*
X119166133Y-134659533D01*
X119199466Y-134726200D01*
X119232800Y-134759533D01*
X119632800Y-133726200D02*
X119166133Y-133726200D01*
X119899466Y-133892866D02*
X119399466Y-134059533D01*
X119399466Y-133626200D01*
X129173733Y-104725000D02*
X129873733Y-104725000D01*
X129873733Y-104258333D02*
X129873733Y-104125000D01*
X129840400Y-104058333D01*
X129773733Y-103991666D01*
X129640400Y-103958333D01*
X129407066Y-103958333D01*
X129273733Y-103991666D01*
X129207066Y-104058333D01*
X129173733Y-104125000D01*
X129173733Y-104258333D01*
X129207066Y-104325000D01*
X129273733Y-104391666D01*
X129407066Y-104425000D01*
X129640400Y-104425000D01*
X129773733Y-104391666D01*
X129840400Y-104325000D01*
X129873733Y-104258333D01*
X129807066Y-103691666D02*
X129840400Y-103658333D01*
X129873733Y-103591666D01*
X129873733Y-103425000D01*
X129840400Y-103358333D01*
X129807066Y-103325000D01*
X129740400Y-103291666D01*
X129673733Y-103291666D01*
X129573733Y-103325000D01*
X129173733Y-103725000D01*
X129173733Y-103291666D01*
X139359133Y-105032933D02*
X140059133Y-105032933D01*
X140059133Y-104566266D02*
X140059133Y-104432933D01*
X140025800Y-104366266D01*
X139959133Y-104299600D01*
X139825800Y-104266266D01*
X139592466Y-104266266D01*
X139459133Y-104299600D01*
X139392466Y-104366266D01*
X139359133Y-104432933D01*
X139359133Y-104566266D01*
X139392466Y-104632933D01*
X139459133Y-104699600D01*
X139592466Y-104732933D01*
X139825800Y-104732933D01*
X139959133Y-104699600D01*
X140025800Y-104632933D01*
X140059133Y-104566266D01*
X139359133Y-103599600D02*
X139359133Y-103999600D01*
X139359133Y-103799600D02*
X140059133Y-103799600D01*
X139959133Y-103866266D01*
X139892466Y-103932933D01*
X139859133Y-103999600D01*
X140059133Y-103366266D02*
X140059133Y-102932933D01*
X139792466Y-103166266D01*
X139792466Y-103066266D01*
X139759133Y-102999600D01*
X139725800Y-102966266D01*
X139659133Y-102932933D01*
X139492466Y-102932933D01*
X139425800Y-102966266D01*
X139392466Y-102999600D01*
X139359133Y-103066266D01*
X139359133Y-103266266D01*
X139392466Y-103332933D01*
X139425800Y-103366266D01*
X134279133Y-105007533D02*
X134979133Y-105007533D01*
X134979133Y-104540866D02*
X134979133Y-104407533D01*
X134945800Y-104340866D01*
X134879133Y-104274200D01*
X134745800Y-104240866D01*
X134512466Y-104240866D01*
X134379133Y-104274200D01*
X134312466Y-104340866D01*
X134279133Y-104407533D01*
X134279133Y-104540866D01*
X134312466Y-104607533D01*
X134379133Y-104674200D01*
X134512466Y-104707533D01*
X134745800Y-104707533D01*
X134879133Y-104674200D01*
X134945800Y-104607533D01*
X134979133Y-104540866D01*
X134912466Y-103974200D02*
X134945800Y-103940866D01*
X134979133Y-103874200D01*
X134979133Y-103707533D01*
X134945800Y-103640866D01*
X134912466Y-103607533D01*
X134845800Y-103574200D01*
X134779133Y-103574200D01*
X134679133Y-103607533D01*
X134279133Y-104007533D01*
X134279133Y-103574200D01*
X134979133Y-103340866D02*
X134979133Y-102874200D01*
X134279133Y-103174200D01*
X126608333Y-104725000D02*
X127308333Y-104725000D01*
X127308333Y-104258333D02*
X127308333Y-104125000D01*
X127275000Y-104058333D01*
X127208333Y-103991666D01*
X127075000Y-103958333D01*
X126841666Y-103958333D01*
X126708333Y-103991666D01*
X126641666Y-104058333D01*
X126608333Y-104125000D01*
X126608333Y-104258333D01*
X126641666Y-104325000D01*
X126708333Y-104391666D01*
X126841666Y-104425000D01*
X127075000Y-104425000D01*
X127208333Y-104391666D01*
X127275000Y-104325000D01*
X127308333Y-104258333D01*
X127075000Y-103358333D02*
X126608333Y-103358333D01*
X127341666Y-103525000D02*
X126841666Y-103691666D01*
X126841666Y-103258333D01*
X124144533Y-105032933D02*
X124844533Y-105032933D01*
X124844533Y-104566266D02*
X124844533Y-104432933D01*
X124811200Y-104366266D01*
X124744533Y-104299600D01*
X124611200Y-104266266D01*
X124377866Y-104266266D01*
X124244533Y-104299600D01*
X124177866Y-104366266D01*
X124144533Y-104432933D01*
X124144533Y-104566266D01*
X124177866Y-104632933D01*
X124244533Y-104699600D01*
X124377866Y-104732933D01*
X124611200Y-104732933D01*
X124744533Y-104699600D01*
X124811200Y-104632933D01*
X124844533Y-104566266D01*
X124144533Y-103599600D02*
X124144533Y-103999600D01*
X124144533Y-103799600D02*
X124844533Y-103799600D01*
X124744533Y-103866266D01*
X124677866Y-103932933D01*
X124644533Y-103999600D01*
X124844533Y-102999600D02*
X124844533Y-103132933D01*
X124811200Y-103199600D01*
X124777866Y-103232933D01*
X124677866Y-103299600D01*
X124544533Y-103332933D01*
X124277866Y-103332933D01*
X124211200Y-103299600D01*
X124177866Y-103266266D01*
X124144533Y-103199600D01*
X124144533Y-103066266D01*
X124177866Y-102999600D01*
X124211200Y-102966266D01*
X124277866Y-102932933D01*
X124444533Y-102932933D01*
X124511200Y-102966266D01*
X124544533Y-102999600D01*
X124577866Y-103066266D01*
X124577866Y-103199600D01*
X124544533Y-103266266D01*
X124511200Y-103299600D01*
X124444533Y-103332933D01*
X131789933Y-105032933D02*
X132489933Y-105032933D01*
X132489933Y-104566266D02*
X132489933Y-104432933D01*
X132456600Y-104366266D01*
X132389933Y-104299600D01*
X132256600Y-104266266D01*
X132023266Y-104266266D01*
X131889933Y-104299600D01*
X131823266Y-104366266D01*
X131789933Y-104432933D01*
X131789933Y-104566266D01*
X131823266Y-104632933D01*
X131889933Y-104699600D01*
X132023266Y-104732933D01*
X132256600Y-104732933D01*
X132389933Y-104699600D01*
X132456600Y-104632933D01*
X132489933Y-104566266D01*
X132423266Y-103999600D02*
X132456600Y-103966266D01*
X132489933Y-103899600D01*
X132489933Y-103732933D01*
X132456600Y-103666266D01*
X132423266Y-103632933D01*
X132356600Y-103599600D01*
X132289933Y-103599600D01*
X132189933Y-103632933D01*
X131789933Y-104032933D01*
X131789933Y-103599600D01*
X132489933Y-102999600D02*
X132489933Y-103132933D01*
X132456600Y-103199600D01*
X132423266Y-103232933D01*
X132323266Y-103299600D01*
X132189933Y-103332933D01*
X131923266Y-103332933D01*
X131856600Y-103299600D01*
X131823266Y-103266266D01*
X131789933Y-103199600D01*
X131789933Y-103066266D01*
X131823266Y-102999600D01*
X131856600Y-102966266D01*
X131923266Y-102932933D01*
X132089933Y-102932933D01*
X132156600Y-102966266D01*
X132189933Y-102999600D01*
X132223266Y-103066266D01*
X132223266Y-103199600D01*
X132189933Y-103266266D01*
X132156600Y-103299600D01*
X132089933Y-103332933D01*
X136819133Y-105007533D02*
X137519133Y-105007533D01*
X137519133Y-104540866D02*
X137519133Y-104407533D01*
X137485800Y-104340866D01*
X137419133Y-104274200D01*
X137285800Y-104240866D01*
X137052466Y-104240866D01*
X136919133Y-104274200D01*
X136852466Y-104340866D01*
X136819133Y-104407533D01*
X136819133Y-104540866D01*
X136852466Y-104607533D01*
X136919133Y-104674200D01*
X137052466Y-104707533D01*
X137285800Y-104707533D01*
X137419133Y-104674200D01*
X137485800Y-104607533D01*
X137519133Y-104540866D01*
X136819133Y-103574200D02*
X136819133Y-103974200D01*
X136819133Y-103774200D02*
X137519133Y-103774200D01*
X137419133Y-103840866D01*
X137352466Y-103907533D01*
X137319133Y-103974200D01*
X137452466Y-103307533D02*
X137485800Y-103274200D01*
X137519133Y-103207533D01*
X137519133Y-103040866D01*
X137485800Y-102974200D01*
X137452466Y-102940866D01*
X137385800Y-102907533D01*
X137319133Y-102907533D01*
X137219133Y-102940866D01*
X136819133Y-103340866D01*
X136819133Y-102907533D01*
X121579133Y-105032933D02*
X122279133Y-105032933D01*
X122279133Y-104566266D02*
X122279133Y-104432933D01*
X122245800Y-104366266D01*
X122179133Y-104299600D01*
X122045800Y-104266266D01*
X121812466Y-104266266D01*
X121679133Y-104299600D01*
X121612466Y-104366266D01*
X121579133Y-104432933D01*
X121579133Y-104566266D01*
X121612466Y-104632933D01*
X121679133Y-104699600D01*
X121812466Y-104732933D01*
X122045800Y-104732933D01*
X122179133Y-104699600D01*
X122245800Y-104632933D01*
X122279133Y-104566266D01*
X121579133Y-103599600D02*
X121579133Y-103999600D01*
X121579133Y-103799600D02*
X122279133Y-103799600D01*
X122179133Y-103866266D01*
X122112466Y-103932933D01*
X122079133Y-103999600D01*
X122279133Y-103366266D02*
X122279133Y-102899600D01*
X121579133Y-103199600D01*
X116407133Y-105023133D02*
X117107133Y-105023133D01*
X117107133Y-104556466D02*
X117107133Y-104423133D01*
X117073800Y-104356466D01*
X117007133Y-104289800D01*
X116873800Y-104256466D01*
X116640466Y-104256466D01*
X116507133Y-104289800D01*
X116440466Y-104356466D01*
X116407133Y-104423133D01*
X116407133Y-104556466D01*
X116440466Y-104623133D01*
X116507133Y-104689800D01*
X116640466Y-104723133D01*
X116873800Y-104723133D01*
X117007133Y-104689800D01*
X117073800Y-104623133D01*
X117107133Y-104556466D01*
X117040466Y-103989800D02*
X117073800Y-103956466D01*
X117107133Y-103889800D01*
X117107133Y-103723133D01*
X117073800Y-103656466D01*
X117040466Y-103623133D01*
X116973800Y-103589800D01*
X116907133Y-103589800D01*
X116807133Y-103623133D01*
X116407133Y-104023133D01*
X116407133Y-103589800D01*
X116407133Y-102923133D02*
X116407133Y-103323133D01*
X116407133Y-103123133D02*
X117107133Y-103123133D01*
X117007133Y-103189800D01*
X116940466Y-103256466D01*
X116907133Y-103323133D01*
X113932133Y-105098133D02*
X114632133Y-105098133D01*
X114632133Y-104631466D02*
X114632133Y-104498133D01*
X114598800Y-104431466D01*
X114532133Y-104364800D01*
X114398800Y-104331466D01*
X114165466Y-104331466D01*
X114032133Y-104364800D01*
X113965466Y-104431466D01*
X113932133Y-104498133D01*
X113932133Y-104631466D01*
X113965466Y-104698133D01*
X114032133Y-104764800D01*
X114165466Y-104798133D01*
X114398800Y-104798133D01*
X114532133Y-104764800D01*
X114598800Y-104698133D01*
X114632133Y-104631466D01*
X114565466Y-104064800D02*
X114598800Y-104031466D01*
X114632133Y-103964800D01*
X114632133Y-103798133D01*
X114598800Y-103731466D01*
X114565466Y-103698133D01*
X114498800Y-103664800D01*
X114432133Y-103664800D01*
X114332133Y-103698133D01*
X113932133Y-104098133D01*
X113932133Y-103664800D01*
X114565466Y-103398133D02*
X114598800Y-103364800D01*
X114632133Y-103298133D01*
X114632133Y-103131466D01*
X114598800Y-103064800D01*
X114565466Y-103031466D01*
X114498800Y-102998133D01*
X114432133Y-102998133D01*
X114332133Y-103031466D01*
X113932133Y-103431466D01*
X113932133Y-102998133D01*
D11*
X115533000Y-110998000D02*
G75*
G03*
X115533000Y-110998000I-2000000J0D01*
G01*
D12*
X170300000Y-141000000D02*
X170300000Y-98000000D01*
X170300000Y-141000000D02*
X97300000Y-141000000D01*
X97300000Y-135500000D02*
X97300000Y-141000000D01*
X104400000Y-133500000D02*
G75*
G02*
X102400000Y-135500000I-2000000J0D01*
G01*
X104400000Y-133500000D02*
X104400000Y-105500000D01*
X97300000Y-98000000D02*
X97300000Y-103500000D01*
D13*
X101175000Y-138500000D02*
G75*
G03*
X101175000Y-138500000I-1125000J0D01*
G01*
D12*
X102400000Y-103500000D02*
G75*
G02*
X104400000Y-105500000I0J-2000000D01*
G01*
D13*
X101175000Y-100500000D02*
G75*
G03*
X101175000Y-100500000I-1125000J0D01*
G01*
X97300000Y-98000000D02*
X170300000Y-98000000D01*
X168675000Y-138500000D02*
G75*
G03*
X168675000Y-138500000I-1125000J0D01*
G01*
D12*
X102400000Y-135500000D02*
X97300000Y-135500000D01*
D13*
X168675000Y-100500000D02*
G75*
G03*
X168675000Y-100500000I-1125000J0D01*
G01*
D12*
X102400000Y-103500000D02*
X97300000Y-103500000D01*
D10*
X109724933Y-140517433D02*
X109724933Y-140084100D01*
X109458266Y-140317433D01*
X109458266Y-140217433D01*
X109424933Y-140150766D01*
X109391600Y-140117433D01*
X109324933Y-140084100D01*
X109158266Y-140084100D01*
X109091600Y-140117433D01*
X109058266Y-140150766D01*
X109024933Y-140217433D01*
X109024933Y-140417433D01*
X109058266Y-140484100D01*
X109091600Y-140517433D01*
X109091600Y-139784100D02*
X109058266Y-139750766D01*
X109024933Y-139784100D01*
X109058266Y-139817433D01*
X109091600Y-139784100D01*
X109024933Y-139784100D01*
X109724933Y-139517433D02*
X109724933Y-139084100D01*
X109458266Y-139317433D01*
X109458266Y-139217433D01*
X109424933Y-139150766D01*
X109391600Y-139117433D01*
X109324933Y-139084100D01*
X109158266Y-139084100D01*
X109091600Y-139117433D01*
X109058266Y-139150766D01*
X109024933Y-139217433D01*
X109024933Y-139417433D01*
X109058266Y-139484100D01*
X109091600Y-139517433D01*
X109724933Y-138884100D02*
X109024933Y-138650766D01*
X109724933Y-138417433D01*
X129152933Y-100374600D02*
X129852933Y-100374600D01*
X129852933Y-100107933D01*
X129819600Y-100041266D01*
X129786266Y-100007933D01*
X129719600Y-99974600D01*
X129619600Y-99974600D01*
X129552933Y-100007933D01*
X129519600Y-100041266D01*
X129486266Y-100107933D01*
X129486266Y-100374600D01*
X129852933Y-99741266D02*
X129152933Y-99274600D01*
X129852933Y-99274600D02*
X129152933Y-99741266D01*
X129852933Y-98674600D02*
X129852933Y-99007933D01*
X129519600Y-99041266D01*
X129552933Y-99007933D01*
X129586266Y-98941266D01*
X129586266Y-98774600D01*
X129552933Y-98707933D01*
X129519600Y-98674600D01*
X129452933Y-98641266D01*
X129286266Y-98641266D01*
X129219600Y-98674600D01*
X129186266Y-98707933D01*
X129152933Y-98774600D01*
X129152933Y-98941266D01*
X129186266Y-99007933D01*
X129219600Y-99041266D01*
X111445866Y-139832533D02*
X111412533Y-139899200D01*
X111412533Y-140032533D01*
X111445866Y-140099200D01*
X111512533Y-140132533D01*
X111779200Y-140132533D01*
X111845866Y-140099200D01*
X111879200Y-140032533D01*
X111879200Y-139899200D01*
X111845866Y-139832533D01*
X111779200Y-139799200D01*
X111712533Y-139799200D01*
X111645866Y-140132533D01*
X111879200Y-139499200D02*
X111412533Y-139499200D01*
X111812533Y-139499200D02*
X111845866Y-139465866D01*
X111879200Y-139399200D01*
X111879200Y-139299200D01*
X111845866Y-139232533D01*
X111779200Y-139199200D01*
X111412533Y-139199200D01*
X145272233Y-139723800D02*
X145272233Y-140057133D01*
X144938900Y-140090466D01*
X144972233Y-140057133D01*
X145005566Y-139990466D01*
X145005566Y-139823800D01*
X144972233Y-139757133D01*
X144938900Y-139723800D01*
X144872233Y-139690466D01*
X144705566Y-139690466D01*
X144638900Y-139723800D01*
X144605566Y-139757133D01*
X144572233Y-139823800D01*
X144572233Y-139990466D01*
X144605566Y-140057133D01*
X144638900Y-140090466D01*
X145038900Y-139457133D02*
X144572233Y-139290466D01*
X145038900Y-139123800D01*
X127504933Y-140131733D02*
X127504933Y-139731733D01*
X126804933Y-139931733D02*
X127504933Y-139931733D01*
X127504933Y-139565066D02*
X126804933Y-139098400D01*
X127504933Y-139098400D02*
X126804933Y-139565066D01*
X124123733Y-100400000D02*
X124823733Y-100400000D01*
X124823733Y-100133333D01*
X124790400Y-100066666D01*
X124757066Y-100033333D01*
X124690400Y-100000000D01*
X124590400Y-100000000D01*
X124523733Y-100033333D01*
X124490400Y-100066666D01*
X124457066Y-100133333D01*
X124457066Y-100400000D01*
X124823733Y-99766666D02*
X124123733Y-99300000D01*
X124823733Y-99300000D02*
X124123733Y-99766666D01*
X124823733Y-99100000D02*
X124823733Y-98633333D01*
X124123733Y-98933333D01*
X139411266Y-139740466D02*
X139377933Y-139807133D01*
X139377933Y-139940466D01*
X139411266Y-140007133D01*
X139444600Y-140040466D01*
X139511266Y-140073800D01*
X139711266Y-140073800D01*
X139777933Y-140040466D01*
X139811266Y-140007133D01*
X139844600Y-139940466D01*
X139844600Y-139807133D01*
X139811266Y-139740466D01*
X139411266Y-139473800D02*
X139377933Y-139407133D01*
X139377933Y-139273800D01*
X139411266Y-139207133D01*
X139477933Y-139173800D01*
X139511266Y-139173800D01*
X139577933Y-139207133D01*
X139611266Y-139273800D01*
X139611266Y-139373800D01*
X139644600Y-139440466D01*
X139711266Y-139473800D01*
X139744600Y-139473800D01*
X139811266Y-139440466D01*
X139844600Y-139373800D01*
X139844600Y-139273800D01*
X139811266Y-139207133D01*
X126587533Y-100374600D02*
X127287533Y-100374600D01*
X127287533Y-100107933D01*
X127254200Y-100041266D01*
X127220866Y-100007933D01*
X127154200Y-99974600D01*
X127054200Y-99974600D01*
X126987533Y-100007933D01*
X126954200Y-100041266D01*
X126920866Y-100107933D01*
X126920866Y-100374600D01*
X127287533Y-99741266D02*
X126587533Y-99274600D01*
X127287533Y-99274600D02*
X126587533Y-99741266D01*
X127287533Y-98707933D02*
X127287533Y-98841266D01*
X127254200Y-98907933D01*
X127220866Y-98941266D01*
X127120866Y-99007933D01*
X126987533Y-99041266D01*
X126720866Y-99041266D01*
X126654200Y-99007933D01*
X126620866Y-98974600D01*
X126587533Y-98907933D01*
X126587533Y-98774600D01*
X126620866Y-98707933D01*
X126654200Y-98674600D01*
X126720866Y-98641266D01*
X126887533Y-98641266D01*
X126954200Y-98674600D01*
X126987533Y-98707933D01*
X127020866Y-98774600D01*
X127020866Y-98907933D01*
X126987533Y-98974600D01*
X126954200Y-99007933D01*
X126887533Y-99041266D01*
X116518566Y-100084633D02*
X116485233Y-100017966D01*
X116485233Y-99884633D01*
X116518566Y-99817966D01*
X116585233Y-99784633D01*
X116618566Y-99784633D01*
X116685233Y-99817966D01*
X116718566Y-99884633D01*
X116718566Y-99984633D01*
X116751900Y-100051300D01*
X116818566Y-100084633D01*
X116851900Y-100084633D01*
X116918566Y-100051300D01*
X116951900Y-99984633D01*
X116951900Y-99884633D01*
X116918566Y-99817966D01*
X116485233Y-99184633D02*
X117185233Y-99184633D01*
X116518566Y-99184633D02*
X116485233Y-99251300D01*
X116485233Y-99384633D01*
X116518566Y-99451300D01*
X116551900Y-99484633D01*
X116618566Y-99517966D01*
X116818566Y-99517966D01*
X116885233Y-99484633D01*
X116918566Y-99451300D01*
X116951900Y-99384633D01*
X116951900Y-99251300D01*
X116918566Y-99184633D01*
X116485233Y-98551300D02*
X116851900Y-98551300D01*
X116918566Y-98584633D01*
X116951900Y-98651300D01*
X116951900Y-98784633D01*
X116918566Y-98851300D01*
X116518566Y-98551300D02*
X116485233Y-98617966D01*
X116485233Y-98784633D01*
X116518566Y-98851300D01*
X116585233Y-98884633D01*
X116651900Y-98884633D01*
X116718566Y-98851300D01*
X116751900Y-98784633D01*
X116751900Y-98617966D01*
X116785233Y-98551300D01*
X113940466Y-99845733D02*
X113907133Y-99779066D01*
X113907133Y-99645733D01*
X113940466Y-99579066D01*
X114007133Y-99545733D01*
X114040466Y-99545733D01*
X114107133Y-99579066D01*
X114140466Y-99645733D01*
X114140466Y-99745733D01*
X114173800Y-99812400D01*
X114240466Y-99845733D01*
X114273800Y-99845733D01*
X114340466Y-99812400D01*
X114373800Y-99745733D01*
X114373800Y-99645733D01*
X114340466Y-99579066D01*
X113940466Y-98945733D02*
X113907133Y-99012400D01*
X113907133Y-99145733D01*
X113940466Y-99212400D01*
X113973800Y-99245733D01*
X114040466Y-99279066D01*
X114240466Y-99279066D01*
X114307133Y-99245733D01*
X114340466Y-99212400D01*
X114373800Y-99145733D01*
X114373800Y-99012400D01*
X114340466Y-98945733D01*
X113907133Y-98545733D02*
X113940466Y-98612400D01*
X114007133Y-98645733D01*
X114607133Y-98645733D01*
X142410000Y-140056333D02*
X141843333Y-140056333D01*
X141776666Y-140089666D01*
X141743333Y-140123000D01*
X141710000Y-140189666D01*
X141710000Y-140289666D01*
X141743333Y-140356333D01*
X141976666Y-140056333D02*
X141943333Y-140123000D01*
X141943333Y-140256333D01*
X141976666Y-140323000D01*
X142010000Y-140356333D01*
X142076666Y-140389666D01*
X142276666Y-140389666D01*
X142343333Y-140356333D01*
X142376666Y-140323000D01*
X142410000Y-140256333D01*
X142410000Y-140123000D01*
X142376666Y-140056333D01*
X142410000Y-139723000D02*
X141943333Y-139723000D01*
X142343333Y-139723000D02*
X142376666Y-139689666D01*
X142410000Y-139623000D01*
X142410000Y-139523000D01*
X142376666Y-139456333D01*
X142310000Y-139423000D01*
X141943333Y-139423000D01*
X141943333Y-138789666D02*
X142643333Y-138789666D01*
X141976666Y-138789666D02*
X141943333Y-138856333D01*
X141943333Y-138989666D01*
X141976666Y-139056333D01*
X142010000Y-139089666D01*
X142076666Y-139123000D01*
X142276666Y-139123000D01*
X142343333Y-139089666D01*
X142376666Y-139056333D01*
X142410000Y-138989666D01*
X142410000Y-138856333D01*
X142376666Y-138789666D01*
X142250300Y-99784633D02*
X141683633Y-99784633D01*
X141616966Y-99817966D01*
X141583633Y-99851300D01*
X141550300Y-99917966D01*
X141550300Y-100017966D01*
X141583633Y-100084633D01*
X141816966Y-99784633D02*
X141783633Y-99851300D01*
X141783633Y-99984633D01*
X141816966Y-100051300D01*
X141850300Y-100084633D01*
X141916966Y-100117966D01*
X142116966Y-100117966D01*
X142183633Y-100084633D01*
X142216966Y-100051300D01*
X142250300Y-99984633D01*
X142250300Y-99851300D01*
X142216966Y-99784633D01*
X142250300Y-99451300D02*
X141783633Y-99451300D01*
X142183633Y-99451300D02*
X142216966Y-99417966D01*
X142250300Y-99351300D01*
X142250300Y-99251300D01*
X142216966Y-99184633D01*
X142150300Y-99151300D01*
X141783633Y-99151300D01*
X141783633Y-98517966D02*
X142483633Y-98517966D01*
X141816966Y-98517966D02*
X141783633Y-98584633D01*
X141783633Y-98717966D01*
X141816966Y-98784633D01*
X141850300Y-98817966D01*
X141916966Y-98851300D01*
X142116966Y-98851300D01*
X142183633Y-98817966D01*
X142216966Y-98784633D01*
X142250300Y-98717966D01*
X142250300Y-98584633D01*
X142216966Y-98517966D01*
X136798333Y-100425400D02*
X137498333Y-100425400D01*
X137498333Y-100158733D01*
X137465000Y-100092066D01*
X137431666Y-100058733D01*
X137365000Y-100025400D01*
X137265000Y-100025400D01*
X137198333Y-100058733D01*
X137165000Y-100092066D01*
X137131666Y-100158733D01*
X137131666Y-100425400D01*
X137498333Y-99792066D02*
X136798333Y-99325400D01*
X137498333Y-99325400D02*
X136798333Y-99792066D01*
X137431666Y-99092066D02*
X137465000Y-99058733D01*
X137498333Y-98992066D01*
X137498333Y-98825400D01*
X137465000Y-98758733D01*
X137431666Y-98725400D01*
X137365000Y-98692066D01*
X137298333Y-98692066D01*
X137198333Y-98725400D01*
X136798333Y-99125400D01*
X136798333Y-98692066D01*
X124872866Y-140207933D02*
X124906200Y-140174600D01*
X124939533Y-140107933D01*
X124939533Y-139941266D01*
X124906200Y-139874600D01*
X124872866Y-139841266D01*
X124806200Y-139807933D01*
X124739533Y-139807933D01*
X124639533Y-139841266D01*
X124239533Y-140241266D01*
X124239533Y-139807933D01*
X124939533Y-139174600D02*
X124939533Y-139507933D01*
X124606200Y-139541266D01*
X124639533Y-139507933D01*
X124672866Y-139441266D01*
X124672866Y-139274600D01*
X124639533Y-139207933D01*
X124606200Y-139174600D01*
X124539533Y-139141266D01*
X124372866Y-139141266D01*
X124306200Y-139174600D01*
X124272866Y-139207933D01*
X124239533Y-139274600D01*
X124239533Y-139441266D01*
X124272866Y-139507933D01*
X124306200Y-139541266D01*
X116959200Y-140208733D02*
X116492533Y-140042066D01*
X116959200Y-139875400D01*
X116959200Y-139608733D02*
X116492533Y-139608733D01*
X116892533Y-139608733D02*
X116925866Y-139575400D01*
X116959200Y-139508733D01*
X116959200Y-139408733D01*
X116925866Y-139342066D01*
X116859200Y-139308733D01*
X116492533Y-139308733D01*
X129370333Y-139689666D02*
X129703666Y-139923000D01*
X129370333Y-140089666D02*
X130070333Y-140089666D01*
X130070333Y-139823000D01*
X130037000Y-139756333D01*
X130003666Y-139723000D01*
X129937000Y-139689666D01*
X129837000Y-139689666D01*
X129770333Y-139723000D01*
X129737000Y-139756333D01*
X129703666Y-139823000D01*
X129703666Y-140089666D01*
X130070333Y-139456333D02*
X129370333Y-138989666D01*
X130070333Y-138989666D02*
X129370333Y-139456333D01*
X121558333Y-100400000D02*
X122258333Y-100400000D01*
X122258333Y-100133333D01*
X122225000Y-100066666D01*
X122191666Y-100033333D01*
X122125000Y-100000000D01*
X122025000Y-100000000D01*
X121958333Y-100033333D01*
X121925000Y-100066666D01*
X121891666Y-100133333D01*
X121891666Y-100400000D01*
X122258333Y-99766666D02*
X121558333Y-99300000D01*
X122258333Y-99300000D02*
X121558333Y-99766666D01*
X121958333Y-98933333D02*
X121991666Y-99000000D01*
X122025000Y-99033333D01*
X122091666Y-99066666D01*
X122125000Y-99066666D01*
X122191666Y-99033333D01*
X122225000Y-99000000D01*
X122258333Y-98933333D01*
X122258333Y-98800000D01*
X122225000Y-98733333D01*
X122191666Y-98700000D01*
X122125000Y-98666666D01*
X122091666Y-98666666D01*
X122025000Y-98700000D01*
X121991666Y-98733333D01*
X121958333Y-98800000D01*
X121958333Y-98933333D01*
X121925000Y-99000000D01*
X121891666Y-99033333D01*
X121825000Y-99066666D01*
X121691666Y-99066666D01*
X121625000Y-99033333D01*
X121591666Y-99000000D01*
X121558333Y-98933333D01*
X121558333Y-98800000D01*
X121591666Y-98733333D01*
X121625000Y-98700000D01*
X121691666Y-98666666D01*
X121825000Y-98666666D01*
X121891666Y-98700000D01*
X121925000Y-98733333D01*
X121958333Y-98800000D01*
X119884933Y-140215866D02*
X119884933Y-139782533D01*
X119618266Y-140015866D01*
X119618266Y-139915866D01*
X119584933Y-139849200D01*
X119551600Y-139815866D01*
X119484933Y-139782533D01*
X119318266Y-139782533D01*
X119251600Y-139815866D01*
X119218266Y-139849200D01*
X119184933Y-139915866D01*
X119184933Y-140115866D01*
X119218266Y-140182533D01*
X119251600Y-140215866D01*
X119651600Y-139182533D02*
X119184933Y-139182533D01*
X119918266Y-139349200D02*
X119418266Y-139515866D01*
X119418266Y-139082533D01*
X119352200Y-99848133D02*
X118785533Y-99848133D01*
X118718866Y-99881466D01*
X118685533Y-99914800D01*
X118652200Y-99981466D01*
X118652200Y-100081466D01*
X118685533Y-100148133D01*
X118918866Y-99848133D02*
X118885533Y-99914800D01*
X118885533Y-100048133D01*
X118918866Y-100114800D01*
X118952200Y-100148133D01*
X119018866Y-100181466D01*
X119218866Y-100181466D01*
X119285533Y-100148133D01*
X119318866Y-100114800D01*
X119352200Y-100048133D01*
X119352200Y-99914800D01*
X119318866Y-99848133D01*
X119352200Y-99514800D02*
X118885533Y-99514800D01*
X119285533Y-99514800D02*
X119318866Y-99481466D01*
X119352200Y-99414800D01*
X119352200Y-99314800D01*
X119318866Y-99248133D01*
X119252200Y-99214800D01*
X118885533Y-99214800D01*
X118885533Y-98581466D02*
X119585533Y-98581466D01*
X118918866Y-98581466D02*
X118885533Y-98648133D01*
X118885533Y-98781466D01*
X118918866Y-98848133D01*
X118952200Y-98881466D01*
X119018866Y-98914800D01*
X119218866Y-98914800D01*
X119285533Y-98881466D01*
X119318866Y-98848133D01*
X119352200Y-98781466D01*
X119352200Y-98648133D01*
X119318866Y-98581466D01*
X122399533Y-140190466D02*
X122399533Y-139757133D01*
X122132866Y-139990466D01*
X122132866Y-139890466D01*
X122099533Y-139823800D01*
X122066200Y-139790466D01*
X121999533Y-139757133D01*
X121832866Y-139757133D01*
X121766200Y-139790466D01*
X121732866Y-139823800D01*
X121699533Y-139890466D01*
X121699533Y-140090466D01*
X121732866Y-140157133D01*
X121766200Y-140190466D01*
X122399533Y-139123800D02*
X122399533Y-139457133D01*
X122066200Y-139490466D01*
X122099533Y-139457133D01*
X122132866Y-139390466D01*
X122132866Y-139223800D01*
X122099533Y-139157133D01*
X122066200Y-139123800D01*
X121999533Y-139090466D01*
X121832866Y-139090466D01*
X121766200Y-139123800D01*
X121732866Y-139157133D01*
X121699533Y-139223800D01*
X121699533Y-139390466D01*
X121732866Y-139457133D01*
X121766200Y-139490466D01*
X114393800Y-140157933D02*
X113927133Y-139991266D01*
X114393800Y-139824600D01*
X114393800Y-139557933D02*
X113693800Y-139557933D01*
X114360466Y-139557933D02*
X114393800Y-139491266D01*
X114393800Y-139357933D01*
X114360466Y-139291266D01*
X114327133Y-139257933D01*
X114260466Y-139224600D01*
X114060466Y-139224600D01*
X113993800Y-139257933D01*
X113960466Y-139291266D01*
X113927133Y-139357933D01*
X113927133Y-139491266D01*
X113960466Y-139557933D01*
X131769133Y-100400000D02*
X132469133Y-100400000D01*
X132469133Y-100133333D01*
X132435800Y-100066666D01*
X132402466Y-100033333D01*
X132335800Y-100000000D01*
X132235800Y-100000000D01*
X132169133Y-100033333D01*
X132135800Y-100066666D01*
X132102466Y-100133333D01*
X132102466Y-100400000D01*
X132469133Y-99766666D02*
X131769133Y-99300000D01*
X132469133Y-99300000D02*
X131769133Y-99766666D01*
X132235800Y-98733333D02*
X131769133Y-98733333D01*
X132502466Y-98900000D02*
X132002466Y-99066666D01*
X132002466Y-98633333D01*
X139338333Y-100400000D02*
X140038333Y-100400000D01*
X140038333Y-100133333D01*
X140005000Y-100066666D01*
X139971666Y-100033333D01*
X139905000Y-100000000D01*
X139805000Y-100000000D01*
X139738333Y-100033333D01*
X139705000Y-100066666D01*
X139671666Y-100133333D01*
X139671666Y-100400000D01*
X140038333Y-99766666D02*
X139338333Y-99300000D01*
X140038333Y-99300000D02*
X139338333Y-99766666D01*
X139338333Y-98666666D02*
X139338333Y-99066666D01*
X139338333Y-98866666D02*
X140038333Y-98866666D01*
X139938333Y-98933333D01*
X139871666Y-99000000D01*
X139838333Y-99066666D01*
X136883966Y-139923800D02*
X136850633Y-139990466D01*
X136850633Y-140123800D01*
X136883966Y-140190466D01*
X136917300Y-140223800D01*
X136983966Y-140257133D01*
X137183966Y-140257133D01*
X137250633Y-140223800D01*
X137283966Y-140190466D01*
X137317300Y-140123800D01*
X137317300Y-139990466D01*
X137283966Y-139923800D01*
X136850633Y-139523800D02*
X136883966Y-139590466D01*
X136950633Y-139623800D01*
X137550633Y-139623800D01*
X136850633Y-139257133D02*
X137550633Y-139257133D01*
X137117300Y-139190466D02*
X136850633Y-138990466D01*
X137317300Y-138990466D02*
X137050633Y-139257133D01*
X131732533Y-140614266D02*
X132199200Y-140614266D01*
X132132533Y-140614266D02*
X132165866Y-140580933D01*
X132199200Y-140514266D01*
X132199200Y-140414266D01*
X132165866Y-140347600D01*
X132099200Y-140314266D01*
X131732533Y-140314266D01*
X132099200Y-140314266D02*
X132165866Y-140280933D01*
X132199200Y-140214266D01*
X132199200Y-140114266D01*
X132165866Y-140047600D01*
X132099200Y-140014266D01*
X131732533Y-140014266D01*
X131732533Y-139580933D02*
X131765866Y-139647600D01*
X131799200Y-139680933D01*
X131865866Y-139714266D01*
X132065866Y-139714266D01*
X132132533Y-139680933D01*
X132165866Y-139647600D01*
X132199200Y-139580933D01*
X132199200Y-139480933D01*
X132165866Y-139414266D01*
X132132533Y-139380933D01*
X132065866Y-139347600D01*
X131865866Y-139347600D01*
X131799200Y-139380933D01*
X131765866Y-139414266D01*
X131732533Y-139480933D01*
X131732533Y-139580933D01*
X131765866Y-139080933D02*
X131732533Y-139014266D01*
X131732533Y-138880933D01*
X131765866Y-138814266D01*
X131832533Y-138780933D01*
X131865866Y-138780933D01*
X131932533Y-138814266D01*
X131965866Y-138880933D01*
X131965866Y-138980933D01*
X131999200Y-139047600D01*
X132065866Y-139080933D01*
X132099200Y-139080933D01*
X132165866Y-139047600D01*
X132199200Y-138980933D01*
X132199200Y-138880933D01*
X132165866Y-138814266D01*
X131732533Y-138480933D02*
X132199200Y-138480933D01*
X132432533Y-138480933D02*
X132399200Y-138514266D01*
X132365866Y-138480933D01*
X132399200Y-138447600D01*
X132432533Y-138480933D01*
X132365866Y-138480933D01*
X146835800Y-140315533D02*
X147269133Y-140315533D01*
X147035800Y-140048866D01*
X147135800Y-140048866D01*
X147202466Y-140015533D01*
X147235800Y-139982200D01*
X147269133Y-139915533D01*
X147269133Y-139748866D01*
X147235800Y-139682200D01*
X147202466Y-139648866D01*
X147135800Y-139615533D01*
X146935800Y-139615533D01*
X146869133Y-139648866D01*
X146835800Y-139682200D01*
X147569133Y-139882200D02*
X148102466Y-139882200D01*
X148802466Y-139615533D02*
X148402466Y-139615533D01*
X148602466Y-139615533D02*
X148602466Y-140315533D01*
X148535800Y-140215533D01*
X148469133Y-140148866D01*
X148402466Y-140115533D01*
X149069133Y-140248866D02*
X149102466Y-140282200D01*
X149169133Y-140315533D01*
X149335800Y-140315533D01*
X149402466Y-140282200D01*
X149435800Y-140248866D01*
X149469133Y-140182200D01*
X149469133Y-140115533D01*
X149435800Y-140015533D01*
X149035800Y-139615533D01*
X149469133Y-139615533D01*
X149702466Y-140082200D02*
X149869133Y-139615533D01*
X150035800Y-140082200D01*
X134258333Y-100425400D02*
X134958333Y-100425400D01*
X134958333Y-100158733D01*
X134925000Y-100092066D01*
X134891666Y-100058733D01*
X134825000Y-100025400D01*
X134725000Y-100025400D01*
X134658333Y-100058733D01*
X134625000Y-100092066D01*
X134591666Y-100158733D01*
X134591666Y-100425400D01*
X134958333Y-99792066D02*
X134258333Y-99325400D01*
X134958333Y-99325400D02*
X134258333Y-99792066D01*
X134958333Y-99125400D02*
X134958333Y-98692066D01*
X134691666Y-98925400D01*
X134691666Y-98825400D01*
X134658333Y-98758733D01*
X134625000Y-98725400D01*
X134558333Y-98692066D01*
X134391666Y-98692066D01*
X134325000Y-98725400D01*
X134291666Y-98758733D01*
X134258333Y-98825400D01*
X134258333Y-99025400D01*
X134291666Y-99092066D01*
X134325000Y-99125400D01*
X134247133Y-140588866D02*
X134713800Y-140588866D01*
X134647133Y-140588866D02*
X134680466Y-140555533D01*
X134713800Y-140488866D01*
X134713800Y-140388866D01*
X134680466Y-140322200D01*
X134613800Y-140288866D01*
X134247133Y-140288866D01*
X134613800Y-140288866D02*
X134680466Y-140255533D01*
X134713800Y-140188866D01*
X134713800Y-140088866D01*
X134680466Y-140022200D01*
X134613800Y-139988866D01*
X134247133Y-139988866D01*
X134247133Y-139655533D02*
X134713800Y-139655533D01*
X134947133Y-139655533D02*
X134913800Y-139688866D01*
X134880466Y-139655533D01*
X134913800Y-139622200D01*
X134947133Y-139655533D01*
X134880466Y-139655533D01*
X134280466Y-139355533D02*
X134247133Y-139288866D01*
X134247133Y-139155533D01*
X134280466Y-139088866D01*
X134347133Y-139055533D01*
X134380466Y-139055533D01*
X134447133Y-139088866D01*
X134480466Y-139155533D01*
X134480466Y-139255533D01*
X134513800Y-139322200D01*
X134580466Y-139355533D01*
X134613800Y-139355533D01*
X134680466Y-139322200D01*
X134713800Y-139255533D01*
X134713800Y-139155533D01*
X134680466Y-139088866D01*
X134247133Y-138655533D02*
X134280466Y-138722200D01*
X134313800Y-138755533D01*
X134380466Y-138788866D01*
X134580466Y-138788866D01*
X134647133Y-138755533D01*
X134680466Y-138722200D01*
X134713800Y-138655533D01*
X134713800Y-138555533D01*
X134680466Y-138488866D01*
X134647133Y-138455533D01*
X134580466Y-138422200D01*
X134380466Y-138422200D01*
X134313800Y-138455533D01*
X134280466Y-138488866D01*
X134247133Y-138555533D01*
X134247133Y-138655533D01*
D14*
%TO.C,R4*%
X118333780Y-127696933D02*
X117857590Y-127363600D01*
X118333780Y-127125504D02*
X117333780Y-127125504D01*
X117333780Y-127506457D01*
X117381400Y-127601695D01*
X117429019Y-127649314D01*
X117524257Y-127696933D01*
X117667114Y-127696933D01*
X117762352Y-127649314D01*
X117809971Y-127601695D01*
X117857590Y-127506457D01*
X117857590Y-127125504D01*
X117667114Y-128554076D02*
X118333780Y-128554076D01*
X117286161Y-128315980D02*
X118000447Y-128077885D01*
X118000447Y-128696933D01*
D10*
%TO.C,R2*%
X150669895Y-117602609D02*
X150919895Y-117245466D01*
X151098466Y-117602609D02*
X151098466Y-116852609D01*
X150812752Y-116852609D01*
X150741323Y-116888324D01*
X150705609Y-116924038D01*
X150669895Y-116995466D01*
X150669895Y-117102609D01*
X150705609Y-117174038D01*
X150741323Y-117209752D01*
X150812752Y-117245466D01*
X151098466Y-117245466D01*
X150384180Y-116924038D02*
X150348466Y-116888324D01*
X150277037Y-116852609D01*
X150098466Y-116852609D01*
X150027037Y-116888324D01*
X149991323Y-116924038D01*
X149955609Y-116995466D01*
X149955609Y-117066895D01*
X149991323Y-117174038D01*
X150419895Y-117602609D01*
X149955609Y-117602609D01*
%TO.C,TP_GND7*%
X166954000Y-139717885D02*
X166525428Y-139717885D01*
X166739714Y-140467885D02*
X166739714Y-139717885D01*
X166275428Y-140467885D02*
X166275428Y-139717885D01*
X165989714Y-139717885D01*
X165918285Y-139753600D01*
X165882571Y-139789314D01*
X165846857Y-139860742D01*
X165846857Y-139967885D01*
X165882571Y-140039314D01*
X165918285Y-140075028D01*
X165989714Y-140110742D01*
X166275428Y-140110742D01*
X165704000Y-140539314D02*
X165132571Y-140539314D01*
X164561142Y-139753600D02*
X164632571Y-139717885D01*
X164739714Y-139717885D01*
X164846857Y-139753600D01*
X164918285Y-139825028D01*
X164954000Y-139896457D01*
X164989714Y-140039314D01*
X164989714Y-140146457D01*
X164954000Y-140289314D01*
X164918285Y-140360742D01*
X164846857Y-140432171D01*
X164739714Y-140467885D01*
X164668285Y-140467885D01*
X164561142Y-140432171D01*
X164525428Y-140396457D01*
X164525428Y-140146457D01*
X164668285Y-140146457D01*
X164204000Y-140467885D02*
X164204000Y-139717885D01*
X163775428Y-140467885D01*
X163775428Y-139717885D01*
X163418285Y-140467885D02*
X163418285Y-139717885D01*
X163239714Y-139717885D01*
X163132571Y-139753600D01*
X163061142Y-139825028D01*
X163025428Y-139896457D01*
X162989714Y-140039314D01*
X162989714Y-140146457D01*
X163025428Y-140289314D01*
X163061142Y-140360742D01*
X163132571Y-140432171D01*
X163239714Y-140467885D01*
X163418285Y-140467885D01*
X162739714Y-139717885D02*
X162239714Y-139717885D01*
X162561142Y-140467885D01*
%TO.C,TP_GND4*%
X106819800Y-98725285D02*
X106391228Y-98725285D01*
X106605514Y-99475285D02*
X106605514Y-98725285D01*
X106141228Y-99475285D02*
X106141228Y-98725285D01*
X105855514Y-98725285D01*
X105784085Y-98761000D01*
X105748371Y-98796714D01*
X105712657Y-98868142D01*
X105712657Y-98975285D01*
X105748371Y-99046714D01*
X105784085Y-99082428D01*
X105855514Y-99118142D01*
X106141228Y-99118142D01*
X105569800Y-99546714D02*
X104998371Y-99546714D01*
X104426942Y-98761000D02*
X104498371Y-98725285D01*
X104605514Y-98725285D01*
X104712657Y-98761000D01*
X104784085Y-98832428D01*
X104819800Y-98903857D01*
X104855514Y-99046714D01*
X104855514Y-99153857D01*
X104819800Y-99296714D01*
X104784085Y-99368142D01*
X104712657Y-99439571D01*
X104605514Y-99475285D01*
X104534085Y-99475285D01*
X104426942Y-99439571D01*
X104391228Y-99403857D01*
X104391228Y-99153857D01*
X104534085Y-99153857D01*
X104069800Y-99475285D02*
X104069800Y-98725285D01*
X103641228Y-99475285D01*
X103641228Y-98725285D01*
X103284085Y-99475285D02*
X103284085Y-98725285D01*
X103105514Y-98725285D01*
X102998371Y-98761000D01*
X102926942Y-98832428D01*
X102891228Y-98903857D01*
X102855514Y-99046714D01*
X102855514Y-99153857D01*
X102891228Y-99296714D01*
X102926942Y-99368142D01*
X102998371Y-99439571D01*
X103105514Y-99475285D01*
X103284085Y-99475285D01*
X102212657Y-98975285D02*
X102212657Y-99475285D01*
X102391228Y-98689571D02*
X102569800Y-99225285D01*
X102105514Y-99225285D01*
D14*
%TO.C,D2*%
X114337172Y-113146258D02*
X114337172Y-112146258D01*
X114099077Y-112146258D01*
X113956219Y-112193878D01*
X113860981Y-112289116D01*
X113813362Y-112384354D01*
X113765743Y-112574830D01*
X113765743Y-112717687D01*
X113813362Y-112908163D01*
X113860981Y-113003401D01*
X113956219Y-113098639D01*
X114099077Y-113146258D01*
X114337172Y-113146258D01*
X113384791Y-112241497D02*
X113337172Y-112193878D01*
X113241934Y-112146258D01*
X113003838Y-112146258D01*
X112908600Y-112193878D01*
X112860981Y-112241497D01*
X112813362Y-112336735D01*
X112813362Y-112431973D01*
X112860981Y-112574830D01*
X113432410Y-113146258D01*
X112813362Y-113146258D01*
D10*
%TO.C,TP5*%
X155621485Y-119398771D02*
X155621485Y-119827342D01*
X156371485Y-119613057D02*
X155621485Y-119613057D01*
X156371485Y-120077342D02*
X155621485Y-120077342D01*
X155621485Y-120363057D01*
X155657200Y-120434485D01*
X155692914Y-120470200D01*
X155764342Y-120505914D01*
X155871485Y-120505914D01*
X155942914Y-120470200D01*
X155978628Y-120434485D01*
X156014342Y-120363057D01*
X156014342Y-120077342D01*
X155621485Y-121184485D02*
X155621485Y-120827342D01*
X155978628Y-120791628D01*
X155942914Y-120827342D01*
X155907200Y-120898771D01*
X155907200Y-121077342D01*
X155942914Y-121148771D01*
X155978628Y-121184485D01*
X156050057Y-121220200D01*
X156228628Y-121220200D01*
X156300057Y-121184485D01*
X156335771Y-121148771D01*
X156371485Y-121077342D01*
X156371485Y-120898771D01*
X156335771Y-120827342D01*
X156300057Y-120791628D01*
%TO.C,C1*%
X153744200Y-108116257D02*
X153779914Y-108151971D01*
X153887057Y-108187685D01*
X153958485Y-108187685D01*
X154065628Y-108151971D01*
X154137057Y-108080542D01*
X154172771Y-108009114D01*
X154208485Y-107866257D01*
X154208485Y-107759114D01*
X154172771Y-107616257D01*
X154137057Y-107544828D01*
X154065628Y-107473400D01*
X153958485Y-107437685D01*
X153887057Y-107437685D01*
X153779914Y-107473400D01*
X153744200Y-107509114D01*
X153029914Y-108187685D02*
X153458485Y-108187685D01*
X153244200Y-108187685D02*
X153244200Y-107437685D01*
X153315628Y-107544828D01*
X153387057Y-107616257D01*
X153458485Y-107651971D01*
%TO.C,C6*%
X142972200Y-119470057D02*
X143007914Y-119505771D01*
X143115057Y-119541485D01*
X143186485Y-119541485D01*
X143293628Y-119505771D01*
X143365057Y-119434342D01*
X143400771Y-119362914D01*
X143436485Y-119220057D01*
X143436485Y-119112914D01*
X143400771Y-118970057D01*
X143365057Y-118898628D01*
X143293628Y-118827200D01*
X143186485Y-118791485D01*
X143115057Y-118791485D01*
X143007914Y-118827200D01*
X142972200Y-118862914D01*
X142329342Y-118791485D02*
X142472200Y-118791485D01*
X142543628Y-118827200D01*
X142579342Y-118862914D01*
X142650771Y-118970057D01*
X142686485Y-119112914D01*
X142686485Y-119398628D01*
X142650771Y-119470057D01*
X142615057Y-119505771D01*
X142543628Y-119541485D01*
X142400771Y-119541485D01*
X142329342Y-119505771D01*
X142293628Y-119470057D01*
X142257914Y-119398628D01*
X142257914Y-119220057D01*
X142293628Y-119148628D01*
X142329342Y-119112914D01*
X142400771Y-119077200D01*
X142543628Y-119077200D01*
X142615057Y-119112914D01*
X142650771Y-119148628D01*
X142686485Y-119220057D01*
D14*
%TO.C,R8*%
X107665780Y-113930133D02*
X107189590Y-113596800D01*
X107665780Y-113358704D02*
X106665780Y-113358704D01*
X106665780Y-113739657D01*
X106713400Y-113834895D01*
X106761019Y-113882514D01*
X106856257Y-113930133D01*
X106999114Y-113930133D01*
X107094352Y-113882514D01*
X107141971Y-113834895D01*
X107189590Y-113739657D01*
X107189590Y-113358704D01*
X107094352Y-114501561D02*
X107046733Y-114406323D01*
X106999114Y-114358704D01*
X106903876Y-114311085D01*
X106856257Y-114311085D01*
X106761019Y-114358704D01*
X106713400Y-114406323D01*
X106665780Y-114501561D01*
X106665780Y-114692038D01*
X106713400Y-114787276D01*
X106761019Y-114834895D01*
X106856257Y-114882514D01*
X106903876Y-114882514D01*
X106999114Y-114834895D01*
X107046733Y-114787276D01*
X107094352Y-114692038D01*
X107094352Y-114501561D01*
X107141971Y-114406323D01*
X107189590Y-114358704D01*
X107284828Y-114311085D01*
X107475304Y-114311085D01*
X107570542Y-114358704D01*
X107618161Y-114406323D01*
X107665780Y-114501561D01*
X107665780Y-114692038D01*
X107618161Y-114787276D01*
X107570542Y-114834895D01*
X107475304Y-114882514D01*
X107284828Y-114882514D01*
X107189590Y-114834895D01*
X107141971Y-114787276D01*
X107094352Y-114692038D01*
D10*
%TO.C,TP_GND3*%
X166103400Y-98445885D02*
X165674828Y-98445885D01*
X165889114Y-99195885D02*
X165889114Y-98445885D01*
X165424828Y-99195885D02*
X165424828Y-98445885D01*
X165139114Y-98445885D01*
X165067685Y-98481600D01*
X165031971Y-98517314D01*
X164996257Y-98588742D01*
X164996257Y-98695885D01*
X165031971Y-98767314D01*
X165067685Y-98803028D01*
X165139114Y-98838742D01*
X165424828Y-98838742D01*
X164853400Y-99267314D02*
X164281971Y-99267314D01*
X163710542Y-98481600D02*
X163781971Y-98445885D01*
X163889114Y-98445885D01*
X163996257Y-98481600D01*
X164067685Y-98553028D01*
X164103400Y-98624457D01*
X164139114Y-98767314D01*
X164139114Y-98874457D01*
X164103400Y-99017314D01*
X164067685Y-99088742D01*
X163996257Y-99160171D01*
X163889114Y-99195885D01*
X163817685Y-99195885D01*
X163710542Y-99160171D01*
X163674828Y-99124457D01*
X163674828Y-98874457D01*
X163817685Y-98874457D01*
X163353400Y-99195885D02*
X163353400Y-98445885D01*
X162924828Y-99195885D01*
X162924828Y-98445885D01*
X162567685Y-99195885D02*
X162567685Y-98445885D01*
X162389114Y-98445885D01*
X162281971Y-98481600D01*
X162210542Y-98553028D01*
X162174828Y-98624457D01*
X162139114Y-98767314D01*
X162139114Y-98874457D01*
X162174828Y-99017314D01*
X162210542Y-99088742D01*
X162281971Y-99160171D01*
X162389114Y-99195885D01*
X162567685Y-99195885D01*
X161889114Y-98445885D02*
X161424828Y-98445885D01*
X161674828Y-98731600D01*
X161567685Y-98731600D01*
X161496257Y-98767314D01*
X161460542Y-98803028D01*
X161424828Y-98874457D01*
X161424828Y-99053028D01*
X161460542Y-99124457D01*
X161496257Y-99160171D01*
X161567685Y-99195885D01*
X161781971Y-99195885D01*
X161853400Y-99160171D01*
X161889114Y-99124457D01*
%TO.C,TP1*%
X140773428Y-108682085D02*
X140344857Y-108682085D01*
X140559142Y-109432085D02*
X140559142Y-108682085D01*
X140094857Y-109432085D02*
X140094857Y-108682085D01*
X139809142Y-108682085D01*
X139737714Y-108717800D01*
X139702000Y-108753514D01*
X139666285Y-108824942D01*
X139666285Y-108932085D01*
X139702000Y-109003514D01*
X139737714Y-109039228D01*
X139809142Y-109074942D01*
X140094857Y-109074942D01*
X138952000Y-109432085D02*
X139380571Y-109432085D01*
X139166285Y-109432085D02*
X139166285Y-108682085D01*
X139237714Y-108789228D01*
X139309142Y-108860657D01*
X139380571Y-108896371D01*
%TO.C,C2*%
X150254857Y-108739400D02*
X150290571Y-108703685D01*
X150326285Y-108596542D01*
X150326285Y-108525114D01*
X150290571Y-108417971D01*
X150219142Y-108346542D01*
X150147714Y-108310828D01*
X150004857Y-108275114D01*
X149897714Y-108275114D01*
X149754857Y-108310828D01*
X149683428Y-108346542D01*
X149612000Y-108417971D01*
X149576285Y-108525114D01*
X149576285Y-108596542D01*
X149612000Y-108703685D01*
X149647714Y-108739400D01*
X149647714Y-109025114D02*
X149612000Y-109060828D01*
X149576285Y-109132257D01*
X149576285Y-109310828D01*
X149612000Y-109382257D01*
X149647714Y-109417971D01*
X149719142Y-109453685D01*
X149790571Y-109453685D01*
X149897714Y-109417971D01*
X150326285Y-108989400D01*
X150326285Y-109453685D01*
%TO.C,TP2*%
X152989285Y-125603571D02*
X152989285Y-126032142D01*
X153739285Y-125817857D02*
X152989285Y-125817857D01*
X153739285Y-126282142D02*
X152989285Y-126282142D01*
X152989285Y-126567857D01*
X153025000Y-126639285D01*
X153060714Y-126675000D01*
X153132142Y-126710714D01*
X153239285Y-126710714D01*
X153310714Y-126675000D01*
X153346428Y-126639285D01*
X153382142Y-126567857D01*
X153382142Y-126282142D01*
X153060714Y-126996428D02*
X153025000Y-127032142D01*
X152989285Y-127103571D01*
X152989285Y-127282142D01*
X153025000Y-127353571D01*
X153060714Y-127389285D01*
X153132142Y-127425000D01*
X153203571Y-127425000D01*
X153310714Y-127389285D01*
X153739285Y-126960714D01*
X153739285Y-127425000D01*
%TO.C,R19*%
X156946142Y-99932685D02*
X157196142Y-99575542D01*
X157374714Y-99932685D02*
X157374714Y-99182685D01*
X157089000Y-99182685D01*
X157017571Y-99218400D01*
X156981857Y-99254114D01*
X156946142Y-99325542D01*
X156946142Y-99432685D01*
X156981857Y-99504114D01*
X157017571Y-99539828D01*
X157089000Y-99575542D01*
X157374714Y-99575542D01*
X156231857Y-99932685D02*
X156660428Y-99932685D01*
X156446142Y-99932685D02*
X156446142Y-99182685D01*
X156517571Y-99289828D01*
X156589000Y-99361257D01*
X156660428Y-99396971D01*
X155874714Y-99932685D02*
X155731857Y-99932685D01*
X155660428Y-99896971D01*
X155624714Y-99861257D01*
X155553285Y-99754114D01*
X155517571Y-99611257D01*
X155517571Y-99325542D01*
X155553285Y-99254114D01*
X155589000Y-99218400D01*
X155660428Y-99182685D01*
X155803285Y-99182685D01*
X155874714Y-99218400D01*
X155910428Y-99254114D01*
X155946142Y-99325542D01*
X155946142Y-99504114D01*
X155910428Y-99575542D01*
X155874714Y-99611257D01*
X155803285Y-99646971D01*
X155660428Y-99646971D01*
X155589000Y-99611257D01*
X155553285Y-99575542D01*
X155517571Y-99504114D01*
D14*
%TO.C,C13*%
X166327057Y-119533942D02*
X166374676Y-119581561D01*
X166517533Y-119629180D01*
X166612771Y-119629180D01*
X166755628Y-119581561D01*
X166850866Y-119486323D01*
X166898485Y-119391085D01*
X166946104Y-119200609D01*
X166946104Y-119057752D01*
X166898485Y-118867276D01*
X166850866Y-118772038D01*
X166755628Y-118676800D01*
X166612771Y-118629180D01*
X166517533Y-118629180D01*
X166374676Y-118676800D01*
X166327057Y-118724419D01*
X165374676Y-119629180D02*
X165946104Y-119629180D01*
X165660390Y-119629180D02*
X165660390Y-118629180D01*
X165755628Y-118772038D01*
X165850866Y-118867276D01*
X165946104Y-118914895D01*
X165041342Y-118629180D02*
X164422295Y-118629180D01*
X164755628Y-119010133D01*
X164612771Y-119010133D01*
X164517533Y-119057752D01*
X164469914Y-119105371D01*
X164422295Y-119200609D01*
X164422295Y-119438704D01*
X164469914Y-119533942D01*
X164517533Y-119581561D01*
X164612771Y-119629180D01*
X164898485Y-119629180D01*
X164993723Y-119581561D01*
X165041342Y-119533942D01*
%TO.C,R7*%
X122931180Y-122286733D02*
X122454990Y-121953400D01*
X122931180Y-121715304D02*
X121931180Y-121715304D01*
X121931180Y-122096257D01*
X121978800Y-122191495D01*
X122026419Y-122239114D01*
X122121657Y-122286733D01*
X122264514Y-122286733D01*
X122359752Y-122239114D01*
X122407371Y-122191495D01*
X122454990Y-122096257D01*
X122454990Y-121715304D01*
X121931180Y-122620066D02*
X121931180Y-123286733D01*
X122931180Y-122858161D01*
%TO.C,R6*%
X118384580Y-122362933D02*
X117908390Y-122029600D01*
X118384580Y-121791504D02*
X117384580Y-121791504D01*
X117384580Y-122172457D01*
X117432200Y-122267695D01*
X117479819Y-122315314D01*
X117575057Y-122362933D01*
X117717914Y-122362933D01*
X117813152Y-122315314D01*
X117860771Y-122267695D01*
X117908390Y-122172457D01*
X117908390Y-121791504D01*
X117384580Y-123220076D02*
X117384580Y-123029600D01*
X117432200Y-122934361D01*
X117479819Y-122886742D01*
X117622676Y-122791504D01*
X117813152Y-122743885D01*
X118194104Y-122743885D01*
X118289342Y-122791504D01*
X118336961Y-122839123D01*
X118384580Y-122934361D01*
X118384580Y-123124838D01*
X118336961Y-123220076D01*
X118289342Y-123267695D01*
X118194104Y-123315314D01*
X117956009Y-123315314D01*
X117860771Y-123267695D01*
X117813152Y-123220076D01*
X117765533Y-123124838D01*
X117765533Y-122934361D01*
X117813152Y-122839123D01*
X117860771Y-122791504D01*
X117956009Y-122743885D01*
D15*
%TO.C,SW1*%
X114180333Y-126312761D02*
X114037476Y-126360380D01*
X113799380Y-126360380D01*
X113704142Y-126312761D01*
X113656523Y-126265142D01*
X113608904Y-126169904D01*
X113608904Y-126074666D01*
X113656523Y-125979428D01*
X113704142Y-125931809D01*
X113799380Y-125884190D01*
X113989857Y-125836571D01*
X114085095Y-125788952D01*
X114132714Y-125741333D01*
X114180333Y-125646095D01*
X114180333Y-125550857D01*
X114132714Y-125455619D01*
X114085095Y-125408000D01*
X113989857Y-125360380D01*
X113751761Y-125360380D01*
X113608904Y-125408000D01*
X113275571Y-125360380D02*
X113037476Y-126360380D01*
X112847000Y-125646095D01*
X112656523Y-126360380D01*
X112418428Y-125360380D01*
X111513666Y-126360380D02*
X112085095Y-126360380D01*
X111799380Y-126360380D02*
X111799380Y-125360380D01*
X111894619Y-125503238D01*
X111989857Y-125598476D01*
X112085095Y-125646095D01*
D10*
%TO.C,R24*%
X158430485Y-115799057D02*
X158073342Y-115549057D01*
X158430485Y-115370485D02*
X157680485Y-115370485D01*
X157680485Y-115656200D01*
X157716200Y-115727628D01*
X157751914Y-115763342D01*
X157823342Y-115799057D01*
X157930485Y-115799057D01*
X158001914Y-115763342D01*
X158037628Y-115727628D01*
X158073342Y-115656200D01*
X158073342Y-115370485D01*
X157751914Y-116084771D02*
X157716200Y-116120485D01*
X157680485Y-116191914D01*
X157680485Y-116370485D01*
X157716200Y-116441914D01*
X157751914Y-116477628D01*
X157823342Y-116513342D01*
X157894771Y-116513342D01*
X158001914Y-116477628D01*
X158430485Y-116049057D01*
X158430485Y-116513342D01*
X157930485Y-117156200D02*
X158430485Y-117156200D01*
X157644771Y-116977628D02*
X158180485Y-116799057D01*
X158180485Y-117263342D01*
%TO.C,C5*%
X142922200Y-121527457D02*
X142957914Y-121563171D01*
X143065057Y-121598885D01*
X143136485Y-121598885D01*
X143243628Y-121563171D01*
X143315057Y-121491742D01*
X143350771Y-121420314D01*
X143386485Y-121277457D01*
X143386485Y-121170314D01*
X143350771Y-121027457D01*
X143315057Y-120956028D01*
X143243628Y-120884600D01*
X143136485Y-120848885D01*
X143065057Y-120848885D01*
X142957914Y-120884600D01*
X142922200Y-120920314D01*
X142243628Y-120848885D02*
X142600771Y-120848885D01*
X142636485Y-121206028D01*
X142600771Y-121170314D01*
X142529342Y-121134600D01*
X142350771Y-121134600D01*
X142279342Y-121170314D01*
X142243628Y-121206028D01*
X142207914Y-121277457D01*
X142207914Y-121456028D01*
X142243628Y-121527457D01*
X142279342Y-121563171D01*
X142350771Y-121598885D01*
X142529342Y-121598885D01*
X142600771Y-121563171D01*
X142636485Y-121527457D01*
D14*
%TO.C,D1*%
X107949862Y-109812862D02*
X107949862Y-108812862D01*
X107711767Y-108812862D01*
X107568909Y-108860482D01*
X107473671Y-108955720D01*
X107426052Y-109050958D01*
X107378433Y-109241434D01*
X107378433Y-109384291D01*
X107426052Y-109574767D01*
X107473671Y-109670005D01*
X107568909Y-109765243D01*
X107711767Y-109812862D01*
X107949862Y-109812862D01*
X106426052Y-109812862D02*
X106997481Y-109812862D01*
X106711767Y-109812862D02*
X106711767Y-108812862D01*
X106807005Y-108955720D01*
X106902243Y-109050958D01*
X106997481Y-109098577D01*
D10*
%TO.C,TP8*%
X151189285Y-123603571D02*
X151189285Y-124032142D01*
X151939285Y-123817857D02*
X151189285Y-123817857D01*
X151939285Y-124282142D02*
X151189285Y-124282142D01*
X151189285Y-124567857D01*
X151225000Y-124639285D01*
X151260714Y-124675000D01*
X151332142Y-124710714D01*
X151439285Y-124710714D01*
X151510714Y-124675000D01*
X151546428Y-124639285D01*
X151582142Y-124567857D01*
X151582142Y-124282142D01*
X151510714Y-125139285D02*
X151475000Y-125067857D01*
X151439285Y-125032142D01*
X151367857Y-124996428D01*
X151332142Y-124996428D01*
X151260714Y-125032142D01*
X151225000Y-125067857D01*
X151189285Y-125139285D01*
X151189285Y-125282142D01*
X151225000Y-125353571D01*
X151260714Y-125389285D01*
X151332142Y-125425000D01*
X151367857Y-125425000D01*
X151439285Y-125389285D01*
X151475000Y-125353571D01*
X151510714Y-125282142D01*
X151510714Y-125139285D01*
X151546428Y-125067857D01*
X151582142Y-125032142D01*
X151653571Y-124996428D01*
X151796428Y-124996428D01*
X151867857Y-125032142D01*
X151903571Y-125067857D01*
X151939285Y-125139285D01*
X151939285Y-125282142D01*
X151903571Y-125353571D01*
X151867857Y-125389285D01*
X151796428Y-125425000D01*
X151653571Y-125425000D01*
X151582142Y-125389285D01*
X151546428Y-125353571D01*
X151510714Y-125282142D01*
%TO.C,C15*%
X147522742Y-103772857D02*
X147558457Y-103808571D01*
X147665600Y-103844285D01*
X147737028Y-103844285D01*
X147844171Y-103808571D01*
X147915600Y-103737142D01*
X147951314Y-103665714D01*
X147987028Y-103522857D01*
X147987028Y-103415714D01*
X147951314Y-103272857D01*
X147915600Y-103201428D01*
X147844171Y-103130000D01*
X147737028Y-103094285D01*
X147665600Y-103094285D01*
X147558457Y-103130000D01*
X147522742Y-103165714D01*
X146808457Y-103844285D02*
X147237028Y-103844285D01*
X147022742Y-103844285D02*
X147022742Y-103094285D01*
X147094171Y-103201428D01*
X147165600Y-103272857D01*
X147237028Y-103308571D01*
X146129885Y-103094285D02*
X146487028Y-103094285D01*
X146522742Y-103451428D01*
X146487028Y-103415714D01*
X146415600Y-103380000D01*
X146237028Y-103380000D01*
X146165600Y-103415714D01*
X146129885Y-103451428D01*
X146094171Y-103522857D01*
X146094171Y-103701428D01*
X146129885Y-103772857D01*
X146165600Y-103808571D01*
X146237028Y-103844285D01*
X146415600Y-103844285D01*
X146487028Y-103808571D01*
X146522742Y-103772857D01*
%TO.C,F1*%
X160516428Y-100435600D02*
X160516428Y-100185600D01*
X160909285Y-100185600D02*
X160159285Y-100185600D01*
X160159285Y-100542742D01*
X160909285Y-101221314D02*
X160909285Y-100792742D01*
X160909285Y-101007028D02*
X160159285Y-101007028D01*
X160266428Y-100935600D01*
X160337857Y-100864171D01*
X160373571Y-100792742D01*
D14*
%TO.C,C9*%
X120524542Y-122388333D02*
X120572161Y-122340714D01*
X120619780Y-122197857D01*
X120619780Y-122102619D01*
X120572161Y-121959761D01*
X120476923Y-121864523D01*
X120381685Y-121816904D01*
X120191209Y-121769285D01*
X120048352Y-121769285D01*
X119857876Y-121816904D01*
X119762638Y-121864523D01*
X119667400Y-121959761D01*
X119619780Y-122102619D01*
X119619780Y-122197857D01*
X119667400Y-122340714D01*
X119715019Y-122388333D01*
X120619780Y-122864523D02*
X120619780Y-123055000D01*
X120572161Y-123150238D01*
X120524542Y-123197857D01*
X120381685Y-123293095D01*
X120191209Y-123340714D01*
X119810257Y-123340714D01*
X119715019Y-123293095D01*
X119667400Y-123245476D01*
X119619780Y-123150238D01*
X119619780Y-122959761D01*
X119667400Y-122864523D01*
X119715019Y-122816904D01*
X119810257Y-122769285D01*
X120048352Y-122769285D01*
X120143590Y-122816904D01*
X120191209Y-122864523D01*
X120238828Y-122959761D01*
X120238828Y-123150238D01*
X120191209Y-123245476D01*
X120143590Y-123293095D01*
X120048352Y-123340714D01*
D10*
%TO.C,R20*%
X151384180Y-119993849D02*
X151634180Y-119636706D01*
X151812752Y-119993849D02*
X151812752Y-119243849D01*
X151527038Y-119243849D01*
X151455609Y-119279564D01*
X151419895Y-119315278D01*
X151384180Y-119386706D01*
X151384180Y-119493849D01*
X151419895Y-119565278D01*
X151455609Y-119600992D01*
X151527038Y-119636706D01*
X151812752Y-119636706D01*
X151098466Y-119315278D02*
X151062752Y-119279564D01*
X150991323Y-119243849D01*
X150812752Y-119243849D01*
X150741323Y-119279564D01*
X150705609Y-119315278D01*
X150669895Y-119386706D01*
X150669895Y-119458135D01*
X150705609Y-119565278D01*
X151134180Y-119993849D01*
X150669895Y-119993849D01*
X150205609Y-119243849D02*
X150134180Y-119243849D01*
X150062752Y-119279564D01*
X150027038Y-119315278D01*
X149991323Y-119386706D01*
X149955609Y-119529564D01*
X149955609Y-119708135D01*
X149991323Y-119850992D01*
X150027038Y-119922421D01*
X150062752Y-119958135D01*
X150134180Y-119993849D01*
X150205609Y-119993849D01*
X150277038Y-119958135D01*
X150312752Y-119922421D01*
X150348466Y-119850992D01*
X150384180Y-119708135D01*
X150384180Y-119529564D01*
X150348466Y-119386706D01*
X150312752Y-119315278D01*
X150277038Y-119279564D01*
X150205609Y-119243849D01*
%TO.C,U3*%
X148889285Y-125278571D02*
X149496428Y-125278571D01*
X149567857Y-125314285D01*
X149603571Y-125350000D01*
X149639285Y-125421428D01*
X149639285Y-125564285D01*
X149603571Y-125635714D01*
X149567857Y-125671428D01*
X149496428Y-125707142D01*
X148889285Y-125707142D01*
X148889285Y-125992857D02*
X148889285Y-126457142D01*
X149175000Y-126207142D01*
X149175000Y-126314285D01*
X149210714Y-126385714D01*
X149246428Y-126421428D01*
X149317857Y-126457142D01*
X149496428Y-126457142D01*
X149567857Y-126421428D01*
X149603571Y-126385714D01*
X149639285Y-126314285D01*
X149639285Y-126100000D01*
X149603571Y-126028571D01*
X149567857Y-125992857D01*
D14*
%TO.C,C8*%
X122835942Y-127671533D02*
X122883561Y-127623914D01*
X122931180Y-127481057D01*
X122931180Y-127385819D01*
X122883561Y-127242961D01*
X122788323Y-127147723D01*
X122693085Y-127100104D01*
X122502609Y-127052485D01*
X122359752Y-127052485D01*
X122169276Y-127100104D01*
X122074038Y-127147723D01*
X121978800Y-127242961D01*
X121931180Y-127385819D01*
X121931180Y-127481057D01*
X121978800Y-127623914D01*
X122026419Y-127671533D01*
X122359752Y-128242961D02*
X122312133Y-128147723D01*
X122264514Y-128100104D01*
X122169276Y-128052485D01*
X122121657Y-128052485D01*
X122026419Y-128100104D01*
X121978800Y-128147723D01*
X121931180Y-128242961D01*
X121931180Y-128433438D01*
X121978800Y-128528676D01*
X122026419Y-128576295D01*
X122121657Y-128623914D01*
X122169276Y-128623914D01*
X122264514Y-128576295D01*
X122312133Y-128528676D01*
X122359752Y-128433438D01*
X122359752Y-128242961D01*
X122407371Y-128147723D01*
X122454990Y-128100104D01*
X122550228Y-128052485D01*
X122740704Y-128052485D01*
X122835942Y-128100104D01*
X122883561Y-128147723D01*
X122931180Y-128242961D01*
X122931180Y-128433438D01*
X122883561Y-128528676D01*
X122835942Y-128576295D01*
X122740704Y-128623914D01*
X122550228Y-128623914D01*
X122454990Y-128576295D01*
X122407371Y-128528676D01*
X122359752Y-128433438D01*
D10*
%TO.C,C7*%
X142972200Y-117412657D02*
X143007914Y-117448371D01*
X143115057Y-117484085D01*
X143186485Y-117484085D01*
X143293628Y-117448371D01*
X143365057Y-117376942D01*
X143400771Y-117305514D01*
X143436485Y-117162657D01*
X143436485Y-117055514D01*
X143400771Y-116912657D01*
X143365057Y-116841228D01*
X143293628Y-116769800D01*
X143186485Y-116734085D01*
X143115057Y-116734085D01*
X143007914Y-116769800D01*
X142972200Y-116805514D01*
X142722200Y-116734085D02*
X142222200Y-116734085D01*
X142543628Y-117484085D01*
%TO.C,TP2-3*%
X146268457Y-108250485D02*
X145839885Y-108250485D01*
X146054171Y-109000485D02*
X146054171Y-108250485D01*
X145589885Y-109000485D02*
X145589885Y-108250485D01*
X145304171Y-108250485D01*
X145232742Y-108286200D01*
X145197028Y-108321914D01*
X145161314Y-108393342D01*
X145161314Y-108500485D01*
X145197028Y-108571914D01*
X145232742Y-108607628D01*
X145304171Y-108643342D01*
X145589885Y-108643342D01*
X144875600Y-108321914D02*
X144839885Y-108286200D01*
X144768457Y-108250485D01*
X144589885Y-108250485D01*
X144518457Y-108286200D01*
X144482742Y-108321914D01*
X144447028Y-108393342D01*
X144447028Y-108464771D01*
X144482742Y-108571914D01*
X144911314Y-109000485D01*
X144447028Y-109000485D01*
X144125600Y-108714771D02*
X143554171Y-108714771D01*
X143268457Y-108250485D02*
X142804171Y-108250485D01*
X143054171Y-108536200D01*
X142947028Y-108536200D01*
X142875600Y-108571914D01*
X142839885Y-108607628D01*
X142804171Y-108679057D01*
X142804171Y-108857628D01*
X142839885Y-108929057D01*
X142875600Y-108964771D01*
X142947028Y-109000485D01*
X143161314Y-109000485D01*
X143232742Y-108964771D01*
X143268457Y-108929057D01*
%TO.C,D4*%
X163428571Y-129989285D02*
X163428571Y-129239285D01*
X163250000Y-129239285D01*
X163142857Y-129275000D01*
X163071428Y-129346428D01*
X163035714Y-129417857D01*
X163000000Y-129560714D01*
X163000000Y-129667857D01*
X163035714Y-129810714D01*
X163071428Y-129882142D01*
X163142857Y-129953571D01*
X163250000Y-129989285D01*
X163428571Y-129989285D01*
X162357142Y-129489285D02*
X162357142Y-129989285D01*
X162535714Y-129203571D02*
X162714285Y-129739285D01*
X162250000Y-129739285D01*
D14*
%TO.C,R5*%
X120670580Y-127696933D02*
X120194390Y-127363600D01*
X120670580Y-127125504D02*
X119670580Y-127125504D01*
X119670580Y-127506457D01*
X119718200Y-127601695D01*
X119765819Y-127649314D01*
X119861057Y-127696933D01*
X120003914Y-127696933D01*
X120099152Y-127649314D01*
X120146771Y-127601695D01*
X120194390Y-127506457D01*
X120194390Y-127125504D01*
X119670580Y-128601695D02*
X119670580Y-128125504D01*
X120146771Y-128077885D01*
X120099152Y-128125504D01*
X120051533Y-128220742D01*
X120051533Y-128458838D01*
X120099152Y-128554076D01*
X120146771Y-128601695D01*
X120242009Y-128649314D01*
X120480104Y-128649314D01*
X120575342Y-128601695D01*
X120622961Y-128554076D01*
X120670580Y-128458838D01*
X120670580Y-128220742D01*
X120622961Y-128125504D01*
X120575342Y-128077885D01*
D15*
%TO.C,SW2*%
X114180333Y-121054761D02*
X114037476Y-121102380D01*
X113799380Y-121102380D01*
X113704142Y-121054761D01*
X113656523Y-121007142D01*
X113608904Y-120911904D01*
X113608904Y-120816666D01*
X113656523Y-120721428D01*
X113704142Y-120673809D01*
X113799380Y-120626190D01*
X113989857Y-120578571D01*
X114085095Y-120530952D01*
X114132714Y-120483333D01*
X114180333Y-120388095D01*
X114180333Y-120292857D01*
X114132714Y-120197619D01*
X114085095Y-120150000D01*
X113989857Y-120102380D01*
X113751761Y-120102380D01*
X113608904Y-120150000D01*
X113275571Y-120102380D02*
X113037476Y-121102380D01*
X112847000Y-120388095D01*
X112656523Y-121102380D01*
X112418428Y-120102380D01*
X112085095Y-120197619D02*
X112037476Y-120150000D01*
X111942238Y-120102380D01*
X111704142Y-120102380D01*
X111608904Y-120150000D01*
X111561285Y-120197619D01*
X111513666Y-120292857D01*
X111513666Y-120388095D01*
X111561285Y-120530952D01*
X112132714Y-121102380D01*
X111513666Y-121102380D01*
D10*
%TO.C,TP10*%
X140571771Y-115514885D02*
X140143200Y-115514885D01*
X140357485Y-116264885D02*
X140357485Y-115514885D01*
X139893200Y-116264885D02*
X139893200Y-115514885D01*
X139607485Y-115514885D01*
X139536057Y-115550600D01*
X139500342Y-115586314D01*
X139464628Y-115657742D01*
X139464628Y-115764885D01*
X139500342Y-115836314D01*
X139536057Y-115872028D01*
X139607485Y-115907742D01*
X139893200Y-115907742D01*
X138750342Y-116264885D02*
X139178914Y-116264885D01*
X138964628Y-116264885D02*
X138964628Y-115514885D01*
X139036057Y-115622028D01*
X139107485Y-115693457D01*
X139178914Y-115729171D01*
X138286057Y-115514885D02*
X138214628Y-115514885D01*
X138143200Y-115550600D01*
X138107485Y-115586314D01*
X138071771Y-115657742D01*
X138036057Y-115800600D01*
X138036057Y-115979171D01*
X138071771Y-116122028D01*
X138107485Y-116193457D01*
X138143200Y-116229171D01*
X138214628Y-116264885D01*
X138286057Y-116264885D01*
X138357485Y-116229171D01*
X138393200Y-116193457D01*
X138428914Y-116122028D01*
X138464628Y-115979171D01*
X138464628Y-115800600D01*
X138428914Y-115657742D01*
X138393200Y-115586314D01*
X138357485Y-115550600D01*
X138286057Y-115514885D01*
%TO.C,TP11*%
X151289285Y-126196428D02*
X151289285Y-126625000D01*
X152039285Y-126410714D02*
X151289285Y-126410714D01*
X152039285Y-126875000D02*
X151289285Y-126875000D01*
X151289285Y-127160714D01*
X151325000Y-127232142D01*
X151360714Y-127267857D01*
X151432142Y-127303571D01*
X151539285Y-127303571D01*
X151610714Y-127267857D01*
X151646428Y-127232142D01*
X151682142Y-127160714D01*
X151682142Y-126875000D01*
X152039285Y-128017857D02*
X152039285Y-127589285D01*
X152039285Y-127803571D02*
X151289285Y-127803571D01*
X151396428Y-127732142D01*
X151467857Y-127660714D01*
X151503571Y-127589285D01*
X152039285Y-128732142D02*
X152039285Y-128303571D01*
X152039285Y-128517857D02*
X151289285Y-128517857D01*
X151396428Y-128446428D01*
X151467857Y-128375000D01*
X151503571Y-128303571D01*
%TO.C,C10*%
X141017857Y-126267857D02*
X141053571Y-126232142D01*
X141089285Y-126125000D01*
X141089285Y-126053571D01*
X141053571Y-125946428D01*
X140982142Y-125875000D01*
X140910714Y-125839285D01*
X140767857Y-125803571D01*
X140660714Y-125803571D01*
X140517857Y-125839285D01*
X140446428Y-125875000D01*
X140375000Y-125946428D01*
X140339285Y-126053571D01*
X140339285Y-126125000D01*
X140375000Y-126232142D01*
X140410714Y-126267857D01*
X141089285Y-126982142D02*
X141089285Y-126553571D01*
X141089285Y-126767857D02*
X140339285Y-126767857D01*
X140446428Y-126696428D01*
X140517857Y-126625000D01*
X140553571Y-126553571D01*
X140339285Y-127446428D02*
X140339285Y-127517857D01*
X140375000Y-127589285D01*
X140410714Y-127625000D01*
X140482142Y-127660714D01*
X140625000Y-127696428D01*
X140803571Y-127696428D01*
X140946428Y-127660714D01*
X141017857Y-127625000D01*
X141053571Y-127589285D01*
X141089285Y-127517857D01*
X141089285Y-127446428D01*
X141053571Y-127375000D01*
X141017857Y-127339285D01*
X140946428Y-127303571D01*
X140803571Y-127267857D01*
X140625000Y-127267857D01*
X140482142Y-127303571D01*
X140410714Y-127339285D01*
X140375000Y-127375000D01*
X140339285Y-127446428D01*
%TO.C,5V_SW1*%
X147271428Y-130239285D02*
X147628571Y-130239285D01*
X147664285Y-130596428D01*
X147628571Y-130560714D01*
X147557142Y-130525000D01*
X147378571Y-130525000D01*
X147307142Y-130560714D01*
X147271428Y-130596428D01*
X147235714Y-130667857D01*
X147235714Y-130846428D01*
X147271428Y-130917857D01*
X147307142Y-130953571D01*
X147378571Y-130989285D01*
X147557142Y-130989285D01*
X147628571Y-130953571D01*
X147664285Y-130917857D01*
X147021428Y-130239285D02*
X146771428Y-130989285D01*
X146521428Y-130239285D01*
X146450000Y-131060714D02*
X145878571Y-131060714D01*
X145735714Y-130953571D02*
X145628571Y-130989285D01*
X145450000Y-130989285D01*
X145378571Y-130953571D01*
X145342857Y-130917857D01*
X145307142Y-130846428D01*
X145307142Y-130775000D01*
X145342857Y-130703571D01*
X145378571Y-130667857D01*
X145450000Y-130632142D01*
X145592857Y-130596428D01*
X145664285Y-130560714D01*
X145700000Y-130525000D01*
X145735714Y-130453571D01*
X145735714Y-130382142D01*
X145700000Y-130310714D01*
X145664285Y-130275000D01*
X145592857Y-130239285D01*
X145414285Y-130239285D01*
X145307142Y-130275000D01*
X145057142Y-130239285D02*
X144878571Y-130989285D01*
X144735714Y-130453571D01*
X144592857Y-130989285D01*
X144414285Y-130239285D01*
X143735714Y-130989285D02*
X144164285Y-130989285D01*
X143950000Y-130989285D02*
X143950000Y-130239285D01*
X144021428Y-130346428D01*
X144092857Y-130417857D01*
X144164285Y-130453571D01*
%TO.C,R22*%
X143139285Y-126367857D02*
X142782142Y-126117857D01*
X143139285Y-125939285D02*
X142389285Y-125939285D01*
X142389285Y-126225000D01*
X142425000Y-126296428D01*
X142460714Y-126332142D01*
X142532142Y-126367857D01*
X142639285Y-126367857D01*
X142710714Y-126332142D01*
X142746428Y-126296428D01*
X142782142Y-126225000D01*
X142782142Y-125939285D01*
X142460714Y-126653571D02*
X142425000Y-126689285D01*
X142389285Y-126760714D01*
X142389285Y-126939285D01*
X142425000Y-127010714D01*
X142460714Y-127046428D01*
X142532142Y-127082142D01*
X142603571Y-127082142D01*
X142710714Y-127046428D01*
X143139285Y-126617857D01*
X143139285Y-127082142D01*
X142460714Y-127367857D02*
X142425000Y-127403571D01*
X142389285Y-127475000D01*
X142389285Y-127653571D01*
X142425000Y-127725000D01*
X142460714Y-127760714D01*
X142532142Y-127796428D01*
X142603571Y-127796428D01*
X142710714Y-127760714D01*
X143139285Y-127332142D01*
X143139285Y-127796428D01*
%TO.C,C3*%
X151204200Y-114237657D02*
X151239914Y-114273371D01*
X151347057Y-114309085D01*
X151418485Y-114309085D01*
X151525628Y-114273371D01*
X151597057Y-114201942D01*
X151632771Y-114130514D01*
X151668485Y-113987657D01*
X151668485Y-113880514D01*
X151632771Y-113737657D01*
X151597057Y-113666228D01*
X151525628Y-113594800D01*
X151418485Y-113559085D01*
X151347057Y-113559085D01*
X151239914Y-113594800D01*
X151204200Y-113630514D01*
X150954200Y-113559085D02*
X150489914Y-113559085D01*
X150739914Y-113844800D01*
X150632771Y-113844800D01*
X150561342Y-113880514D01*
X150525628Y-113916228D01*
X150489914Y-113987657D01*
X150489914Y-114166228D01*
X150525628Y-114237657D01*
X150561342Y-114273371D01*
X150632771Y-114309085D01*
X150847057Y-114309085D01*
X150918485Y-114273371D01*
X150954200Y-114237657D01*
%TO.C,L1*%
X140606385Y-112445600D02*
X140606385Y-112088457D01*
X139856385Y-112088457D01*
X140606385Y-113088457D02*
X140606385Y-112659885D01*
X140606385Y-112874171D02*
X139856385Y-112874171D01*
X139963528Y-112802742D01*
X140034957Y-112731314D01*
X140070671Y-112659885D01*
D14*
%TO.C,C11*%
X166327057Y-115469942D02*
X166374676Y-115517561D01*
X166517533Y-115565180D01*
X166612771Y-115565180D01*
X166755628Y-115517561D01*
X166850866Y-115422323D01*
X166898485Y-115327085D01*
X166946104Y-115136609D01*
X166946104Y-114993752D01*
X166898485Y-114803276D01*
X166850866Y-114708038D01*
X166755628Y-114612800D01*
X166612771Y-114565180D01*
X166517533Y-114565180D01*
X166374676Y-114612800D01*
X166327057Y-114660419D01*
X165374676Y-115565180D02*
X165946104Y-115565180D01*
X165660390Y-115565180D02*
X165660390Y-114565180D01*
X165755628Y-114708038D01*
X165850866Y-114803276D01*
X165946104Y-114850895D01*
X164422295Y-115565180D02*
X164993723Y-115565180D01*
X164708009Y-115565180D02*
X164708009Y-114565180D01*
X164803247Y-114708038D01*
X164898485Y-114803276D01*
X164993723Y-114850895D01*
D10*
%TO.C,TP_GND5*%
X107075000Y-139839285D02*
X106646428Y-139839285D01*
X106860714Y-140589285D02*
X106860714Y-139839285D01*
X106396428Y-140589285D02*
X106396428Y-139839285D01*
X106110714Y-139839285D01*
X106039285Y-139875000D01*
X106003571Y-139910714D01*
X105967857Y-139982142D01*
X105967857Y-140089285D01*
X106003571Y-140160714D01*
X106039285Y-140196428D01*
X106110714Y-140232142D01*
X106396428Y-140232142D01*
X105825000Y-140660714D02*
X105253571Y-140660714D01*
X104682142Y-139875000D02*
X104753571Y-139839285D01*
X104860714Y-139839285D01*
X104967857Y-139875000D01*
X105039285Y-139946428D01*
X105075000Y-140017857D01*
X105110714Y-140160714D01*
X105110714Y-140267857D01*
X105075000Y-140410714D01*
X105039285Y-140482142D01*
X104967857Y-140553571D01*
X104860714Y-140589285D01*
X104789285Y-140589285D01*
X104682142Y-140553571D01*
X104646428Y-140517857D01*
X104646428Y-140267857D01*
X104789285Y-140267857D01*
X104325000Y-140589285D02*
X104325000Y-139839285D01*
X103896428Y-140589285D01*
X103896428Y-139839285D01*
X103539285Y-140589285D02*
X103539285Y-139839285D01*
X103360714Y-139839285D01*
X103253571Y-139875000D01*
X103182142Y-139946428D01*
X103146428Y-140017857D01*
X103110714Y-140160714D01*
X103110714Y-140267857D01*
X103146428Y-140410714D01*
X103182142Y-140482142D01*
X103253571Y-140553571D01*
X103360714Y-140589285D01*
X103539285Y-140589285D01*
X102432142Y-139839285D02*
X102789285Y-139839285D01*
X102825000Y-140196428D01*
X102789285Y-140160714D01*
X102717857Y-140125000D01*
X102539285Y-140125000D01*
X102467857Y-140160714D01*
X102432142Y-140196428D01*
X102396428Y-140267857D01*
X102396428Y-140446428D01*
X102432142Y-140517857D01*
X102467857Y-140553571D01*
X102539285Y-140589285D01*
X102717857Y-140589285D01*
X102789285Y-140553571D01*
X102825000Y-140517857D01*
%TO.C,TP4*%
X155367685Y-116985771D02*
X155367685Y-117414342D01*
X156117685Y-117200057D02*
X155367685Y-117200057D01*
X156117685Y-117664342D02*
X155367685Y-117664342D01*
X155367685Y-117950057D01*
X155403400Y-118021485D01*
X155439114Y-118057200D01*
X155510542Y-118092914D01*
X155617685Y-118092914D01*
X155689114Y-118057200D01*
X155724828Y-118021485D01*
X155760542Y-117950057D01*
X155760542Y-117664342D01*
X155617685Y-118735771D02*
X156117685Y-118735771D01*
X155331971Y-118557200D02*
X155867685Y-118378628D01*
X155867685Y-118842914D01*
%TO.C,U5*%
X154139828Y-112803685D02*
X154139828Y-113410828D01*
X154104114Y-113482257D01*
X154068400Y-113517971D01*
X153996971Y-113553685D01*
X153854114Y-113553685D01*
X153782685Y-113517971D01*
X153746971Y-113482257D01*
X153711257Y-113410828D01*
X153711257Y-112803685D01*
X152996971Y-112803685D02*
X153354114Y-112803685D01*
X153389828Y-113160828D01*
X153354114Y-113125114D01*
X153282685Y-113089400D01*
X153104114Y-113089400D01*
X153032685Y-113125114D01*
X152996971Y-113160828D01*
X152961257Y-113232257D01*
X152961257Y-113410828D01*
X152996971Y-113482257D01*
X153032685Y-113517971D01*
X153104114Y-113553685D01*
X153282685Y-113553685D01*
X153354114Y-113517971D01*
X153389828Y-113482257D01*
%TO.C,R18*%
X156855685Y-108763257D02*
X156498542Y-108513257D01*
X156855685Y-108334685D02*
X156105685Y-108334685D01*
X156105685Y-108620400D01*
X156141400Y-108691828D01*
X156177114Y-108727542D01*
X156248542Y-108763257D01*
X156355685Y-108763257D01*
X156427114Y-108727542D01*
X156462828Y-108691828D01*
X156498542Y-108620400D01*
X156498542Y-108334685D01*
X156855685Y-109477542D02*
X156855685Y-109048971D01*
X156855685Y-109263257D02*
X156105685Y-109263257D01*
X156212828Y-109191828D01*
X156284257Y-109120400D01*
X156319971Y-109048971D01*
X156427114Y-109906114D02*
X156391400Y-109834685D01*
X156355685Y-109798971D01*
X156284257Y-109763257D01*
X156248542Y-109763257D01*
X156177114Y-109798971D01*
X156141400Y-109834685D01*
X156105685Y-109906114D01*
X156105685Y-110048971D01*
X156141400Y-110120400D01*
X156177114Y-110156114D01*
X156248542Y-110191828D01*
X156284257Y-110191828D01*
X156355685Y-110156114D01*
X156391400Y-110120400D01*
X156427114Y-110048971D01*
X156427114Y-109906114D01*
X156462828Y-109834685D01*
X156498542Y-109798971D01*
X156569971Y-109763257D01*
X156712828Y-109763257D01*
X156784257Y-109798971D01*
X156819971Y-109834685D01*
X156855685Y-109906114D01*
X156855685Y-110048971D01*
X156819971Y-110120400D01*
X156784257Y-110156114D01*
X156712828Y-110191828D01*
X156569971Y-110191828D01*
X156498542Y-110156114D01*
X156462828Y-110120400D01*
X156427114Y-110048971D01*
%TO.C,R3*%
X150669895Y-122258089D02*
X150919895Y-121900946D01*
X151098466Y-122258089D02*
X151098466Y-121508089D01*
X150812752Y-121508089D01*
X150741323Y-121543804D01*
X150705609Y-121579518D01*
X150669895Y-121650946D01*
X150669895Y-121758089D01*
X150705609Y-121829518D01*
X150741323Y-121865232D01*
X150812752Y-121900946D01*
X151098466Y-121900946D01*
X150419895Y-121508089D02*
X149955609Y-121508089D01*
X150205609Y-121793804D01*
X150098466Y-121793804D01*
X150027037Y-121829518D01*
X149991323Y-121865232D01*
X149955609Y-121936661D01*
X149955609Y-122115232D01*
X149991323Y-122186661D01*
X150027037Y-122222375D01*
X150098466Y-122258089D01*
X150312752Y-122258089D01*
X150384180Y-122222375D01*
X150419895Y-122186661D01*
%TO.C,TP9*%
X141989285Y-123453571D02*
X141989285Y-123882142D01*
X142739285Y-123667857D02*
X141989285Y-123667857D01*
X142739285Y-124132142D02*
X141989285Y-124132142D01*
X141989285Y-124417857D01*
X142025000Y-124489285D01*
X142060714Y-124525000D01*
X142132142Y-124560714D01*
X142239285Y-124560714D01*
X142310714Y-124525000D01*
X142346428Y-124489285D01*
X142382142Y-124417857D01*
X142382142Y-124132142D01*
X142739285Y-124917857D02*
X142739285Y-125060714D01*
X142703571Y-125132142D01*
X142667857Y-125167857D01*
X142560714Y-125239285D01*
X142417857Y-125275000D01*
X142132142Y-125275000D01*
X142060714Y-125239285D01*
X142025000Y-125203571D01*
X141989285Y-125132142D01*
X141989285Y-124989285D01*
X142025000Y-124917857D01*
X142060714Y-124882142D01*
X142132142Y-124846428D01*
X142310714Y-124846428D01*
X142382142Y-124882142D01*
X142417857Y-124917857D01*
X142453571Y-124989285D01*
X142453571Y-125132142D01*
X142417857Y-125203571D01*
X142382142Y-125239285D01*
X142310714Y-125275000D01*
%TO.C,R1*%
X150669895Y-118802160D02*
X150919895Y-118445017D01*
X151098466Y-118802160D02*
X151098466Y-118052160D01*
X150812752Y-118052160D01*
X150741323Y-118087875D01*
X150705609Y-118123589D01*
X150669895Y-118195017D01*
X150669895Y-118302160D01*
X150705609Y-118373589D01*
X150741323Y-118409303D01*
X150812752Y-118445017D01*
X151098466Y-118445017D01*
X149955609Y-118802160D02*
X150384180Y-118802160D01*
X150169895Y-118802160D02*
X150169895Y-118052160D01*
X150241323Y-118159303D01*
X150312752Y-118230732D01*
X150384180Y-118266446D01*
D14*
%TO.C,C12*%
X166327057Y-117501942D02*
X166374676Y-117549561D01*
X166517533Y-117597180D01*
X166612771Y-117597180D01*
X166755628Y-117549561D01*
X166850866Y-117454323D01*
X166898485Y-117359085D01*
X166946104Y-117168609D01*
X166946104Y-117025752D01*
X166898485Y-116835276D01*
X166850866Y-116740038D01*
X166755628Y-116644800D01*
X166612771Y-116597180D01*
X166517533Y-116597180D01*
X166374676Y-116644800D01*
X166327057Y-116692419D01*
X165374676Y-117597180D02*
X165946104Y-117597180D01*
X165660390Y-117597180D02*
X165660390Y-116597180D01*
X165755628Y-116740038D01*
X165850866Y-116835276D01*
X165946104Y-116882895D01*
X164993723Y-116692419D02*
X164946104Y-116644800D01*
X164850866Y-116597180D01*
X164612771Y-116597180D01*
X164517533Y-116644800D01*
X164469914Y-116692419D01*
X164422295Y-116787657D01*
X164422295Y-116882895D01*
X164469914Y-117025752D01*
X165041342Y-117597180D01*
X164422295Y-117597180D01*
D10*
%TO.C,R21*%
X151384180Y-121189469D02*
X151634180Y-120832326D01*
X151812752Y-121189469D02*
X151812752Y-120439469D01*
X151527038Y-120439469D01*
X151455609Y-120475184D01*
X151419895Y-120510898D01*
X151384180Y-120582326D01*
X151384180Y-120689469D01*
X151419895Y-120760898D01*
X151455609Y-120796612D01*
X151527038Y-120832326D01*
X151812752Y-120832326D01*
X151098466Y-120510898D02*
X151062752Y-120475184D01*
X150991323Y-120439469D01*
X150812752Y-120439469D01*
X150741323Y-120475184D01*
X150705609Y-120510898D01*
X150669895Y-120582326D01*
X150669895Y-120653755D01*
X150705609Y-120760898D01*
X151134180Y-121189469D01*
X150669895Y-121189469D01*
X149955609Y-121189469D02*
X150384180Y-121189469D01*
X150169895Y-121189469D02*
X150169895Y-120439469D01*
X150241323Y-120546612D01*
X150312752Y-120618041D01*
X150384180Y-120653755D01*
%TO.C,TP3*%
X147910828Y-99360285D02*
X147482257Y-99360285D01*
X147696542Y-100110285D02*
X147696542Y-99360285D01*
X147232257Y-100110285D02*
X147232257Y-99360285D01*
X146946542Y-99360285D01*
X146875114Y-99396000D01*
X146839400Y-99431714D01*
X146803685Y-99503142D01*
X146803685Y-99610285D01*
X146839400Y-99681714D01*
X146875114Y-99717428D01*
X146946542Y-99753142D01*
X147232257Y-99753142D01*
X146553685Y-99360285D02*
X146089400Y-99360285D01*
X146339400Y-99646000D01*
X146232257Y-99646000D01*
X146160828Y-99681714D01*
X146125114Y-99717428D01*
X146089400Y-99788857D01*
X146089400Y-99967428D01*
X146125114Y-100038857D01*
X146160828Y-100074571D01*
X146232257Y-100110285D01*
X146446542Y-100110285D01*
X146517971Y-100074571D01*
X146553685Y-100038857D01*
%TO.C,U4*%
X152889285Y-104478571D02*
X153496428Y-104478571D01*
X153567857Y-104514285D01*
X153603571Y-104550000D01*
X153639285Y-104621428D01*
X153639285Y-104764285D01*
X153603571Y-104835714D01*
X153567857Y-104871428D01*
X153496428Y-104907142D01*
X152889285Y-104907142D01*
X153139285Y-105585714D02*
X153639285Y-105585714D01*
X152853571Y-105407142D02*
X153389285Y-105228571D01*
X153389285Y-105692857D01*
%TO.C,TP6*%
X152439285Y-121453571D02*
X152439285Y-121882142D01*
X153189285Y-121667857D02*
X152439285Y-121667857D01*
X153189285Y-122132142D02*
X152439285Y-122132142D01*
X152439285Y-122417857D01*
X152475000Y-122489285D01*
X152510714Y-122525000D01*
X152582142Y-122560714D01*
X152689285Y-122560714D01*
X152760714Y-122525000D01*
X152796428Y-122489285D01*
X152832142Y-122417857D01*
X152832142Y-122132142D01*
X152439285Y-123203571D02*
X152439285Y-123060714D01*
X152475000Y-122989285D01*
X152510714Y-122953571D01*
X152617857Y-122882142D01*
X152760714Y-122846428D01*
X153046428Y-122846428D01*
X153117857Y-122882142D01*
X153153571Y-122917857D01*
X153189285Y-122989285D01*
X153189285Y-123132142D01*
X153153571Y-123203571D01*
X153117857Y-123239285D01*
X153046428Y-123275000D01*
X152867857Y-123275000D01*
X152796428Y-123239285D01*
X152760714Y-123203571D01*
X152725000Y-123132142D01*
X152725000Y-122989285D01*
X152760714Y-122917857D01*
X152796428Y-122882142D01*
X152867857Y-122846428D01*
%TO.C,D3*%
X163477837Y-132536581D02*
X163477837Y-131786581D01*
X163299266Y-131786581D01*
X163192123Y-131822296D01*
X163120694Y-131893724D01*
X163084980Y-131965153D01*
X163049266Y-132108010D01*
X163049266Y-132215153D01*
X163084980Y-132358010D01*
X163120694Y-132429438D01*
X163192123Y-132500867D01*
X163299266Y-132536581D01*
X163477837Y-132536581D01*
X162799266Y-131786581D02*
X162334980Y-131786581D01*
X162584980Y-132072296D01*
X162477837Y-132072296D01*
X162406408Y-132108010D01*
X162370694Y-132143724D01*
X162334980Y-132215153D01*
X162334980Y-132393724D01*
X162370694Y-132465153D01*
X162406408Y-132500867D01*
X162477837Y-132536581D01*
X162692123Y-132536581D01*
X162763551Y-132500867D01*
X162799266Y-132465153D01*
%TO.C,U1*%
X147231028Y-114625885D02*
X147231028Y-115233028D01*
X147195314Y-115304457D01*
X147159600Y-115340171D01*
X147088171Y-115375885D01*
X146945314Y-115375885D01*
X146873885Y-115340171D01*
X146838171Y-115304457D01*
X146802457Y-115233028D01*
X146802457Y-114625885D01*
X146052457Y-115375885D02*
X146481028Y-115375885D01*
X146266742Y-115375885D02*
X146266742Y-114625885D01*
X146338171Y-114733028D01*
X146409600Y-114804457D01*
X146481028Y-114840171D01*
%TO.C,C4*%
X150669895Y-116335561D02*
X150705609Y-116371275D01*
X150812752Y-116406989D01*
X150884180Y-116406989D01*
X150991323Y-116371275D01*
X151062752Y-116299846D01*
X151098466Y-116228418D01*
X151134180Y-116085561D01*
X151134180Y-115978418D01*
X151098466Y-115835561D01*
X151062752Y-115764132D01*
X150991323Y-115692704D01*
X150884180Y-115656989D01*
X150812752Y-115656989D01*
X150705609Y-115692704D01*
X150669895Y-115728418D01*
X150027037Y-115906989D02*
X150027037Y-116406989D01*
X150205609Y-115621275D02*
X150384180Y-116156989D01*
X149919895Y-116156989D01*
%TO.C,R23*%
X158505085Y-113182857D02*
X158147942Y-112932857D01*
X158505085Y-112754285D02*
X157755085Y-112754285D01*
X157755085Y-113040000D01*
X157790800Y-113111428D01*
X157826514Y-113147142D01*
X157897942Y-113182857D01*
X158005085Y-113182857D01*
X158076514Y-113147142D01*
X158112228Y-113111428D01*
X158147942Y-113040000D01*
X158147942Y-112754285D01*
X157826514Y-113468571D02*
X157790800Y-113504285D01*
X157755085Y-113575714D01*
X157755085Y-113754285D01*
X157790800Y-113825714D01*
X157826514Y-113861428D01*
X157897942Y-113897142D01*
X157969371Y-113897142D01*
X158076514Y-113861428D01*
X158505085Y-113432857D01*
X158505085Y-113897142D01*
X157755085Y-114147142D02*
X157755085Y-114611428D01*
X158040800Y-114361428D01*
X158040800Y-114468571D01*
X158076514Y-114540000D01*
X158112228Y-114575714D01*
X158183657Y-114611428D01*
X158362228Y-114611428D01*
X158433657Y-114575714D01*
X158469371Y-114540000D01*
X158505085Y-114468571D01*
X158505085Y-114254285D01*
X158469371Y-114182857D01*
X158433657Y-114147142D01*
%TO.C,IC1*%
X138499285Y-121187857D02*
X137749285Y-121187857D01*
X138427857Y-121973571D02*
X138463571Y-121937857D01*
X138499285Y-121830714D01*
X138499285Y-121759285D01*
X138463571Y-121652142D01*
X138392142Y-121580714D01*
X138320714Y-121545000D01*
X138177857Y-121509285D01*
X138070714Y-121509285D01*
X137927857Y-121545000D01*
X137856428Y-121580714D01*
X137785000Y-121652142D01*
X137749285Y-121759285D01*
X137749285Y-121830714D01*
X137785000Y-121937857D01*
X137820714Y-121973571D01*
X138499285Y-122687857D02*
X138499285Y-122259285D01*
X138499285Y-122473571D02*
X137749285Y-122473571D01*
X137856428Y-122402142D01*
X137927857Y-122330714D01*
X137963571Y-122259285D01*
D14*
%TO.C,R9*%
X111729780Y-113955533D02*
X111253590Y-113622200D01*
X111729780Y-113384104D02*
X110729780Y-113384104D01*
X110729780Y-113765057D01*
X110777400Y-113860295D01*
X110825019Y-113907914D01*
X110920257Y-113955533D01*
X111063114Y-113955533D01*
X111158352Y-113907914D01*
X111205971Y-113860295D01*
X111253590Y-113765057D01*
X111253590Y-113384104D01*
X111729780Y-114431723D02*
X111729780Y-114622200D01*
X111682161Y-114717438D01*
X111634542Y-114765057D01*
X111491685Y-114860295D01*
X111301209Y-114907914D01*
X110920257Y-114907914D01*
X110825019Y-114860295D01*
X110777400Y-114812676D01*
X110729780Y-114717438D01*
X110729780Y-114526961D01*
X110777400Y-114431723D01*
X110825019Y-114384104D01*
X110920257Y-114336485D01*
X111158352Y-114336485D01*
X111253590Y-114384104D01*
X111301209Y-114431723D01*
X111348828Y-114526961D01*
X111348828Y-114717438D01*
X111301209Y-114812676D01*
X111253590Y-114860295D01*
X111158352Y-114907914D01*
%TO.C,G\u002A\u002A\u002A*%
G36*
X158791157Y-133640457D02*
G01*
X158829256Y-133643290D01*
X158906457Y-133655410D01*
X158964129Y-133674002D01*
X158982896Y-133684330D01*
X159038808Y-133725968D01*
X159106644Y-133788388D01*
X159183884Y-133868677D01*
X159268011Y-133963922D01*
X159356505Y-134071208D01*
X159446849Y-134187624D01*
X159536523Y-134310255D01*
X159623010Y-134436188D01*
X159672179Y-134511590D01*
X159863287Y-134835054D01*
X160026685Y-135165793D01*
X160163024Y-135505576D01*
X160272953Y-135856173D01*
X160357122Y-136219353D01*
X160416180Y-136596886D01*
X160417787Y-136610526D01*
X160430054Y-136748470D01*
X160438159Y-136906369D01*
X160442104Y-137076076D01*
X160441886Y-137249446D01*
X160437505Y-137418331D01*
X160428962Y-137574586D01*
X160416255Y-137710063D01*
X160366070Y-138039554D01*
X160282684Y-138412931D01*
X160172619Y-138774267D01*
X160035948Y-139123398D01*
X159872744Y-139460160D01*
X159683080Y-139784389D01*
X159467029Y-140095921D01*
X159224662Y-140394593D01*
X159184704Y-140439555D01*
X159105303Y-140522699D01*
X159035479Y-140584756D01*
X158971062Y-140628271D01*
X158907878Y-140655792D01*
X158841757Y-140669866D01*
X158768526Y-140673039D01*
X158729123Y-140670714D01*
X158621560Y-140646307D01*
X158527703Y-140597496D01*
X158450364Y-140526636D01*
X158392354Y-140436079D01*
X158356485Y-140328179D01*
X158348581Y-140272718D01*
X158353005Y-140179896D01*
X158381438Y-140088053D01*
X158435134Y-139993754D01*
X158515349Y-139893566D01*
X158592172Y-139806420D01*
X158761521Y-139598057D01*
X158910599Y-139388233D01*
X159044684Y-139169195D01*
X159169054Y-138933189D01*
X159209180Y-138849348D01*
X159323851Y-138579332D01*
X159416410Y-138306949D01*
X159489217Y-138024607D01*
X159544632Y-137724712D01*
X159554563Y-137651135D01*
X159569868Y-137483267D01*
X159578364Y-137299788D01*
X159580056Y-137109358D01*
X159574943Y-136920636D01*
X159563031Y-136742283D01*
X159544319Y-136582958D01*
X159482608Y-136257089D01*
X159391194Y-135922792D01*
X159273268Y-135600812D01*
X159129007Y-135291521D01*
X158958585Y-134995293D01*
X158762177Y-134712499D01*
X158539958Y-134443512D01*
X158527646Y-134429693D01*
X158456395Y-134343847D01*
X158405676Y-134269018D01*
X158372789Y-134199702D01*
X158355036Y-134130398D01*
X158349718Y-134055602D01*
X158350961Y-134021244D01*
X158372538Y-133914371D01*
X158419855Y-133820317D01*
X158491505Y-133741321D01*
X158586082Y-133679619D01*
X158598297Y-133673616D01*
X158645133Y-133652831D01*
X158684823Y-133641917D01*
X158729465Y-133638562D01*
X158791157Y-133640457D01*
G37*
G36*
X155417022Y-137653721D02*
G01*
X155313478Y-137615494D01*
X155219479Y-137555513D01*
X155139098Y-137474495D01*
X155076410Y-137373155D01*
X155070957Y-137361373D01*
X155054166Y-137318829D01*
X155044278Y-137276547D01*
X155039592Y-137224693D01*
X155038408Y-137153431D01*
X155038464Y-137134145D01*
X155040341Y-137068305D01*
X155046140Y-137019516D01*
X155057558Y-136977932D01*
X155076294Y-136933708D01*
X155078393Y-136929330D01*
X155121910Y-136858673D01*
X155179751Y-136790179D01*
X155243822Y-136732312D01*
X155306027Y-136693534D01*
X155360669Y-136668895D01*
X155360638Y-136648068D01*
X155411937Y-136648068D01*
X155419262Y-136655392D01*
X155426586Y-136648068D01*
X155419262Y-136640744D01*
X155411937Y-136648068D01*
X155360638Y-136648068D01*
X155360614Y-136631894D01*
X155489146Y-136631894D01*
X155489373Y-136636894D01*
X155508372Y-136639587D01*
X155522770Y-136637242D01*
X155518209Y-136631894D01*
X155562387Y-136631894D01*
X155562614Y-136636894D01*
X155581613Y-136639587D01*
X155596011Y-136637242D01*
X155590463Y-136630738D01*
X155581992Y-136628397D01*
X155562387Y-136631894D01*
X155518209Y-136631894D01*
X155517222Y-136630738D01*
X155508751Y-136628397D01*
X155489146Y-136631894D01*
X155360614Y-136631894D01*
X155356922Y-134193920D01*
X155353176Y-131718945D01*
X154476553Y-131718945D01*
X154408374Y-131718923D01*
X154210247Y-131718566D01*
X154040123Y-131717756D01*
X153897019Y-131716474D01*
X153885154Y-131716294D01*
X153779953Y-131714704D01*
X153687942Y-131712427D01*
X153620005Y-131709626D01*
X153575159Y-131706284D01*
X153552421Y-131702383D01*
X153550634Y-131701735D01*
X153509757Y-131676494D01*
X153477049Y-131640128D01*
X153456333Y-131596222D01*
X153451809Y-131540954D01*
X153472919Y-131480184D01*
X153475273Y-131475893D01*
X153491407Y-131448070D01*
X153521263Y-131397405D01*
X153521690Y-131396684D01*
X153885154Y-131396684D01*
X157139076Y-131396684D01*
X156531024Y-130382295D01*
X156464006Y-130270494D01*
X156326565Y-130041239D01*
X156203081Y-129835316D01*
X156092802Y-129651484D01*
X155994976Y-129488505D01*
X155908850Y-129345135D01*
X155833672Y-129220136D01*
X155768690Y-129112266D01*
X155713150Y-129020285D01*
X155666300Y-128942952D01*
X155627389Y-128879027D01*
X155595663Y-128827268D01*
X155570370Y-128786436D01*
X155550758Y-128755289D01*
X155536074Y-128732587D01*
X155525566Y-128717089D01*
X155518481Y-128707555D01*
X155514067Y-128702745D01*
X155511572Y-128701416D01*
X155504645Y-128710936D01*
X155483521Y-128743979D01*
X155449260Y-128799085D01*
X155402861Y-128874608D01*
X155345322Y-128968899D01*
X155277643Y-129080311D01*
X155200821Y-129207198D01*
X155115856Y-129347912D01*
X155023746Y-129500805D01*
X154925490Y-129664230D01*
X154822087Y-129836541D01*
X154714535Y-130016090D01*
X154622674Y-130169563D01*
X154518064Y-130344290D01*
X154418294Y-130510887D01*
X154324383Y-130667653D01*
X154237352Y-130812886D01*
X154158220Y-130944887D01*
X154088007Y-131061953D01*
X154027734Y-131162383D01*
X153978421Y-131244476D01*
X153941087Y-131306532D01*
X153916754Y-131346849D01*
X153906440Y-131363725D01*
X153885154Y-131396684D01*
X153521690Y-131396684D01*
X153563862Y-131325541D01*
X153618224Y-131234115D01*
X153683372Y-131124770D01*
X153758325Y-130999145D01*
X153842104Y-130858881D01*
X153933731Y-130705618D01*
X154032227Y-130540996D01*
X154136612Y-130366656D01*
X154245908Y-130184237D01*
X154359135Y-129995381D01*
X154407472Y-129914772D01*
X154518451Y-129729590D01*
X154624734Y-129552104D01*
X154725375Y-129383896D01*
X154819431Y-129226550D01*
X154905958Y-129081650D01*
X154984011Y-128950780D01*
X155052646Y-128835523D01*
X155110920Y-128737464D01*
X155157887Y-128658185D01*
X155192604Y-128599271D01*
X155214127Y-128562305D01*
X155221511Y-128548870D01*
X155215285Y-128547809D01*
X155183223Y-128546272D01*
X155126228Y-128544850D01*
X155046934Y-128543570D01*
X154947970Y-128542461D01*
X154831970Y-128541549D01*
X154701565Y-128540864D01*
X154559386Y-128540433D01*
X154408064Y-128540283D01*
X154308543Y-128540278D01*
X154139286Y-128540162D01*
X153995860Y-128539729D01*
X153875988Y-128538771D01*
X153777394Y-128537079D01*
X153697802Y-128534442D01*
X153634937Y-128530653D01*
X153586522Y-128525501D01*
X153550280Y-128518778D01*
X153523937Y-128510275D01*
X153505216Y-128499782D01*
X153491840Y-128487090D01*
X153481535Y-128471991D01*
X153472022Y-128454275D01*
X153456446Y-128417395D01*
X153451363Y-128362908D01*
X153471297Y-128305432D01*
X153474058Y-128300054D01*
X153482915Y-128283323D01*
X153492535Y-128269036D01*
X153505112Y-128257000D01*
X153522842Y-128247022D01*
X153547919Y-128238909D01*
X153582538Y-128232469D01*
X153628894Y-128227508D01*
X153689183Y-128223835D01*
X153765598Y-128221255D01*
X153860335Y-128219577D01*
X153975589Y-128218607D01*
X154113555Y-128218154D01*
X154276427Y-128218023D01*
X154466400Y-128218022D01*
X155353345Y-128218022D01*
X155353345Y-125509056D01*
X155353376Y-125291699D01*
X155353546Y-124972717D01*
X155353858Y-124671475D01*
X155354308Y-124388863D01*
X155354892Y-124125770D01*
X155355605Y-123883084D01*
X155356442Y-123661696D01*
X155357400Y-123462492D01*
X155358473Y-123286363D01*
X155359658Y-123134197D01*
X155360949Y-123006883D01*
X155362344Y-122905309D01*
X155363835Y-122830366D01*
X155365421Y-122782941D01*
X155367095Y-122763923D01*
X155396427Y-122714773D01*
X155444598Y-122678579D01*
X155502323Y-122664630D01*
X155563105Y-122674332D01*
X155620443Y-122709092D01*
X155668281Y-122751834D01*
X155675909Y-128218022D01*
X156565636Y-128218077D01*
X156743298Y-128218116D01*
X156901060Y-128218260D01*
X157034015Y-128218577D01*
X157144449Y-128219138D01*
X157234649Y-128220013D01*
X157306902Y-128221271D01*
X157363492Y-128222982D01*
X157406708Y-128225216D01*
X157438834Y-128228043D01*
X157462157Y-128231532D01*
X157478964Y-128235753D01*
X157491540Y-128240777D01*
X157502172Y-128246673D01*
X157528321Y-128266824D01*
X157562952Y-128318241D01*
X157573724Y-128379098D01*
X157558456Y-128441830D01*
X157550219Y-128459189D01*
X157540601Y-128476872D01*
X157528924Y-128491779D01*
X157512918Y-128504146D01*
X157490314Y-128514211D01*
X157458841Y-128522211D01*
X157416231Y-128528381D01*
X157360212Y-128532961D01*
X157288516Y-128536185D01*
X157198873Y-128538292D01*
X157089012Y-128539518D01*
X156956665Y-128540101D01*
X156799560Y-128540277D01*
X156615429Y-128540283D01*
X155794571Y-128540283D01*
X156675015Y-130008589D01*
X156735290Y-130109162D01*
X156847549Y-130296752D01*
X156955222Y-130477043D01*
X157057355Y-130648416D01*
X157152991Y-130809253D01*
X157241173Y-130957935D01*
X157320946Y-131092843D01*
X157391353Y-131212359D01*
X157451437Y-131314865D01*
X157500243Y-131398742D01*
X157536815Y-131462371D01*
X157560195Y-131504135D01*
X157569428Y-131522414D01*
X157570624Y-131526460D01*
X157575028Y-131570678D01*
X157559667Y-131617939D01*
X157554463Y-131629234D01*
X157546429Y-131646407D01*
X157537619Y-131661019D01*
X157525838Y-131673287D01*
X157508894Y-131683428D01*
X157484591Y-131691661D01*
X157450738Y-131698202D01*
X157405139Y-131703269D01*
X157345602Y-131707079D01*
X157269931Y-131709849D01*
X157175935Y-131711797D01*
X157061418Y-131713141D01*
X156924187Y-131714096D01*
X156762048Y-131714882D01*
X156572808Y-131715714D01*
X155675605Y-131719808D01*
X155675605Y-136652216D01*
X155714102Y-136661878D01*
X155738769Y-136671133D01*
X155782842Y-136693237D01*
X155830871Y-136721610D01*
X155839355Y-136727156D01*
X155928450Y-136802935D01*
X155995486Y-136893887D01*
X156040036Y-136995753D01*
X156061675Y-137104271D01*
X156059977Y-137215180D01*
X156034516Y-137324217D01*
X155984867Y-137427124D01*
X155910603Y-137519637D01*
X155845145Y-137574790D01*
X155744172Y-137630730D01*
X155636444Y-137662055D01*
X155581613Y-137665743D01*
X155526036Y-137669480D01*
X155508372Y-137666926D01*
X155419262Y-137654044D01*
X155417022Y-137653721D01*
G37*
G36*
X158692968Y-129179167D02*
G01*
X158746231Y-129191353D01*
X158814827Y-129210368D01*
X158893395Y-129234411D01*
X158976574Y-129261682D01*
X159059001Y-129290381D01*
X159135316Y-129318707D01*
X159200157Y-129344862D01*
X159248162Y-129367043D01*
X159273970Y-129383452D01*
X159287205Y-129397416D01*
X159304648Y-129421486D01*
X159314519Y-129448624D01*
X159316426Y-129482915D01*
X159309978Y-129528440D01*
X159294782Y-129589282D01*
X159270447Y-129669524D01*
X159236581Y-129773248D01*
X159226130Y-129804559D01*
X159190321Y-129907504D01*
X159159635Y-129986083D01*
X159132087Y-130043406D01*
X159105690Y-130082580D01*
X159078459Y-130106713D01*
X159048406Y-130118913D01*
X159013546Y-130122289D01*
X159003007Y-130121870D01*
X158949210Y-130109144D01*
X158900652Y-130083129D01*
X158869350Y-130049860D01*
X158867329Y-130045783D01*
X158855938Y-129996915D01*
X158857062Y-129935667D01*
X158870609Y-129874708D01*
X158872069Y-129870403D01*
X158880264Y-129837835D01*
X158879647Y-129820526D01*
X158879493Y-129820456D01*
X158863710Y-129826163D01*
X158824485Y-129843722D01*
X158764377Y-129871901D01*
X158685944Y-129909465D01*
X158591747Y-129955179D01*
X158484345Y-130007810D01*
X158366296Y-130066124D01*
X158240161Y-130128886D01*
X158235440Y-130131243D01*
X158108629Y-130194244D01*
X157989236Y-130252989D01*
X157879938Y-130306200D01*
X157783410Y-130352600D01*
X157702330Y-130390912D01*
X157639376Y-130419860D01*
X157597223Y-130438165D01*
X157578549Y-130444550D01*
X157576488Y-130444524D01*
X157525902Y-130431658D01*
X157476564Y-130400816D01*
X157441673Y-130360139D01*
X157427190Y-130326425D01*
X157422083Y-130264488D01*
X157446117Y-130202855D01*
X157450091Y-130197405D01*
X157464590Y-130183515D01*
X157488805Y-130165927D01*
X157524818Y-130143509D01*
X157574710Y-130115128D01*
X157640564Y-130079650D01*
X157724462Y-130035942D01*
X157828484Y-129982872D01*
X157954714Y-129919305D01*
X158105232Y-129844110D01*
X158113105Y-129840187D01*
X158238662Y-129777434D01*
X158355696Y-129718598D01*
X158461676Y-129664977D01*
X158554067Y-129617869D01*
X158630336Y-129578570D01*
X158687950Y-129548378D01*
X158724377Y-129528591D01*
X158737082Y-129520506D01*
X158735322Y-129517836D01*
X158714819Y-129506932D01*
X158678693Y-129494208D01*
X158671626Y-129491937D01*
X158621739Y-129469572D01*
X158579818Y-129441889D01*
X158574902Y-129437573D01*
X158552270Y-129411615D01*
X158541848Y-129380107D01*
X158539331Y-129331286D01*
X158539386Y-129321199D01*
X158542926Y-129276255D01*
X158555112Y-129246549D01*
X158580309Y-129220261D01*
X158582973Y-129218012D01*
X158621217Y-129191846D01*
X158656577Y-129176156D01*
X158660401Y-129175609D01*
X158692968Y-129179167D01*
G37*
G36*
X157768422Y-134601485D02*
G01*
X157836552Y-134615328D01*
X157899171Y-134642218D01*
X157961551Y-134685097D01*
X158028959Y-134746909D01*
X158106665Y-134830596D01*
X158137763Y-134865969D01*
X158235422Y-134981215D01*
X158319370Y-135088243D01*
X158396129Y-135195645D01*
X158472226Y-135312011D01*
X158569135Y-135476425D01*
X158704047Y-135748706D01*
X158816531Y-136034120D01*
X158904473Y-136327053D01*
X158965757Y-136621889D01*
X158973673Y-136680485D01*
X158983486Y-136786274D01*
X158990959Y-136908717D01*
X158995913Y-137040334D01*
X158998170Y-137173639D01*
X158997551Y-137301151D01*
X158993876Y-137415387D01*
X158986967Y-137508864D01*
X158966503Y-137665391D01*
X158906961Y-137962494D01*
X158821772Y-138254434D01*
X158712361Y-138538106D01*
X158580151Y-138810409D01*
X158426564Y-139068238D01*
X158253025Y-139308490D01*
X158060956Y-139528063D01*
X158005007Y-139583334D01*
X157935371Y-139641117D01*
X157869581Y-139679736D01*
X157801213Y-139702727D01*
X157723846Y-139713625D01*
X157677790Y-139715086D01*
X157575896Y-139701659D01*
X157485208Y-139662686D01*
X157400844Y-139596397D01*
X157394272Y-139589925D01*
X157332959Y-139516529D01*
X157294424Y-139437882D01*
X157273304Y-139343339D01*
X157272182Y-139333738D01*
X157273095Y-139247567D01*
X157289898Y-139157698D01*
X157319850Y-139079671D01*
X157331379Y-139061606D01*
X157361513Y-139021645D01*
X157402531Y-138971698D01*
X157449005Y-138918541D01*
X157556917Y-138793109D01*
X157698170Y-138604504D01*
X157817387Y-138410272D01*
X157918598Y-138203606D01*
X158005829Y-137977701D01*
X158037894Y-137880351D01*
X158070065Y-137768532D01*
X158094068Y-137662219D01*
X158110939Y-137554483D01*
X158121714Y-137438393D01*
X158127430Y-137307019D01*
X158129124Y-137153431D01*
X158128967Y-137070456D01*
X158127958Y-136973404D01*
X158125666Y-136895587D01*
X158121693Y-136831103D01*
X158115639Y-136774049D01*
X158107107Y-136718521D01*
X158095697Y-136658618D01*
X158086229Y-136613857D01*
X158012395Y-136346105D01*
X157911489Y-136089165D01*
X157784014Y-135844025D01*
X157630471Y-135611669D01*
X157451362Y-135393086D01*
X157419269Y-135356861D01*
X157356923Y-135278292D01*
X157313929Y-135208153D01*
X157287007Y-135140497D01*
X157272880Y-135069378D01*
X157270169Y-134985061D01*
X157289977Y-134877784D01*
X157335692Y-134782196D01*
X157405930Y-134700941D01*
X157499308Y-134636662D01*
X157530814Y-134621349D01*
X157573689Y-134606870D01*
X157622848Y-134599782D01*
X157689734Y-134597745D01*
X157768422Y-134601485D01*
G37*
G36*
X156714732Y-135563864D02*
G01*
X156734675Y-135569439D01*
X156786910Y-135588397D01*
X156835380Y-135614637D01*
X156885587Y-135652069D01*
X156943031Y-135704606D01*
X157013211Y-135776159D01*
X157129027Y-135908674D01*
X157263383Y-136099018D01*
X157373456Y-136304202D01*
X157460042Y-136525766D01*
X157523938Y-136765254D01*
X157536969Y-136839220D01*
X157551259Y-136976496D01*
X157556946Y-137125900D01*
X157554047Y-137277596D01*
X157542578Y-137421750D01*
X157522558Y-137548525D01*
X157508541Y-137612334D01*
X157481077Y-137720665D01*
X157450036Y-137817837D01*
X157411393Y-137915765D01*
X157361124Y-138026364D01*
X157315430Y-138117409D01*
X157228556Y-138263984D01*
X157128082Y-138400480D01*
X157007041Y-138536944D01*
X156965534Y-138579338D01*
X156889638Y-138649286D01*
X156821795Y-138698811D01*
X156756814Y-138730779D01*
X156689504Y-138748054D01*
X156614674Y-138753501D01*
X156545119Y-138748716D01*
X156442082Y-138720330D01*
X156352878Y-138669122D01*
X156280366Y-138598173D01*
X156227408Y-138510564D01*
X156196864Y-138409377D01*
X156191594Y-138297695D01*
X156199341Y-138235937D01*
X156218417Y-138169306D01*
X156251329Y-138104613D01*
X156301413Y-138035537D01*
X156372003Y-137955758D01*
X156477838Y-137827287D01*
X156572532Y-137672214D01*
X156641057Y-137508650D01*
X156683202Y-137339193D01*
X156698757Y-137166440D01*
X156687510Y-136992989D01*
X156649249Y-136821437D01*
X156583764Y-136654382D01*
X156490844Y-136494420D01*
X156479180Y-136478258D01*
X156441925Y-136431149D01*
X156395065Y-136375811D01*
X156346005Y-136321106D01*
X156316023Y-136288009D01*
X156262532Y-136221788D01*
X156226422Y-136162282D01*
X156203550Y-136101848D01*
X156189774Y-136032843D01*
X156189352Y-136029695D01*
X156188636Y-135942289D01*
X156205123Y-135849849D01*
X156236068Y-135768074D01*
X156265114Y-135726324D01*
X156313340Y-135675441D01*
X156369390Y-135627984D01*
X156423749Y-135592836D01*
X156464425Y-135576053D01*
X156547015Y-135557661D01*
X156634958Y-135553149D01*
X156714732Y-135563864D01*
G37*
G36*
X158480407Y-128143749D02*
G01*
X158525765Y-128158754D01*
X158627447Y-128193970D01*
X158705065Y-128224231D01*
X158761689Y-128251457D01*
X158800387Y-128277566D01*
X158824229Y-128304477D01*
X158836283Y-128334112D01*
X158839619Y-128368387D01*
X158839619Y-128368448D01*
X158835032Y-128397123D01*
X158822340Y-128448183D01*
X158803035Y-128516356D01*
X158778611Y-128596369D01*
X158750560Y-128682949D01*
X158731201Y-128740506D01*
X158699090Y-128831581D01*
X158671865Y-128899575D01*
X158647299Y-128947793D01*
X158623170Y-128979541D01*
X158597253Y-128998125D01*
X158567323Y-129006851D01*
X158531155Y-129009025D01*
X158527844Y-129008997D01*
X158464311Y-128995417D01*
X158416221Y-128960086D01*
X158386157Y-128907427D01*
X158376696Y-128841861D01*
X158390419Y-128767809D01*
X158397716Y-128745316D01*
X158406229Y-128713789D01*
X158406866Y-128701413D01*
X158406760Y-128701432D01*
X158391492Y-128708442D01*
X158352722Y-128727228D01*
X158293011Y-128756525D01*
X158214920Y-128795066D01*
X158121009Y-128841585D01*
X158013838Y-128894816D01*
X157895969Y-128953493D01*
X157769961Y-129016349D01*
X157767568Y-129017544D01*
X157640505Y-129080601D01*
X157520545Y-129139412D01*
X157410407Y-129192695D01*
X157312811Y-129239167D01*
X157230477Y-129277545D01*
X157166125Y-129306546D01*
X157122475Y-129324887D01*
X157102247Y-129331286D01*
X157088969Y-129330651D01*
X157027664Y-129311099D01*
X156975960Y-129267317D01*
X156975306Y-129266494D01*
X156957360Y-129226470D01*
X156950325Y-129172691D01*
X156951222Y-129147010D01*
X156962359Y-129105091D01*
X156991082Y-129068227D01*
X157006512Y-129057046D01*
X157047201Y-129032673D01*
X157109211Y-128998008D01*
X157189792Y-128954512D01*
X157286199Y-128903649D01*
X157395685Y-128846878D01*
X157515502Y-128785660D01*
X157642904Y-128721459D01*
X157758148Y-128663642D01*
X157874172Y-128605141D01*
X157979406Y-128551778D01*
X158071275Y-128504874D01*
X158147209Y-128465747D01*
X158204634Y-128435717D01*
X158240978Y-128416103D01*
X158253667Y-128408225D01*
X158248403Y-128403516D01*
X158222461Y-128390909D01*
X158182131Y-128375261D01*
X158177199Y-128373466D01*
X158112384Y-128337802D01*
X158073163Y-128288357D01*
X158058882Y-128224331D01*
X158064694Y-128172352D01*
X158094582Y-128117049D01*
X158149281Y-128077259D01*
X158201760Y-128052355D01*
X158480407Y-128143749D01*
G37*
D11*
%TO.C,TP_GND7*%
X161850000Y-139900000D02*
G75*
G03*
X161850000Y-139900000I-700000J0D01*
G01*
%TO.C,TP_GND4*%
X105144800Y-100584000D02*
G75*
G03*
X105144800Y-100584000I-700000J0D01*
G01*
%TO.C,D2*%
X111914077Y-112003878D02*
X111914077Y-110083878D01*
X114599077Y-112003878D02*
X111914077Y-112003878D01*
X111914077Y-110083878D02*
X114599077Y-110083878D01*
%TO.C,TP5*%
X155030400Y-120319800D02*
G75*
G03*
X155030400Y-120319800I-700000J0D01*
G01*
%TO.C,R12*%
X132790000Y-111023252D02*
X132790000Y-110500748D01*
X131370000Y-111023252D02*
X131370000Y-110500748D01*
%TO.C,C1*%
X152934600Y-109873148D02*
X152934600Y-110395652D01*
X154354600Y-109873148D02*
X154354600Y-110395652D01*
%TO.C,C6*%
X146133452Y-119912200D02*
X145610948Y-119912200D01*
X146133452Y-118492200D02*
X145610948Y-118492200D01*
%TO.C,R10*%
X135942000Y-111023252D02*
X135942000Y-110500748D01*
X137362000Y-111023252D02*
X137362000Y-110500748D01*
%TO.C,TP_GND3*%
X164428400Y-100304600D02*
G75*
G03*
X164428400Y-100304600I-700000J0D01*
G01*
%TO.C,TP1*%
X140527000Y-110540800D02*
G75*
G03*
X140527000Y-110540800I-700000J0D01*
G01*
%TO.C,C2*%
X152221000Y-109901548D02*
X152221000Y-110424052D01*
X150801000Y-109901548D02*
X150801000Y-110424052D01*
%TO.C,TP2*%
X153900000Y-124536200D02*
G75*
G03*
X153900000Y-124536200I-700000J0D01*
G01*
%TO.C,C13*%
X162120948Y-119886800D02*
X162643452Y-119886800D01*
X162120948Y-118466800D02*
X162643452Y-118466800D01*
%TO.C,C17*%
X152583800Y-100515052D02*
X152583800Y-99992548D01*
X151163800Y-100515052D02*
X151163800Y-99992548D01*
D10*
%TO.C,SW1*%
X116522000Y-124108000D02*
X116522000Y-124108000D01*
X110272000Y-125008000D02*
X110272000Y-126808000D01*
X114322000Y-128158000D02*
X110722000Y-128158000D01*
X114772000Y-125008000D02*
X114772000Y-126808000D01*
X114322000Y-123658000D02*
X110722000Y-123658000D01*
X116522000Y-124208000D02*
X116522000Y-124208000D01*
X116522000Y-124108000D02*
G75*
G02*
X116522000Y-124208000I0J-50000D01*
G01*
X116522000Y-124208000D02*
G75*
G02*
X116522000Y-124108000I0J50000D01*
G01*
D11*
%TO.C,C5*%
X146133452Y-120549600D02*
X145610948Y-120549600D01*
X146133452Y-121969600D02*
X145610948Y-121969600D01*
%TO.C,R16*%
X122226000Y-111014252D02*
X122226000Y-110491748D01*
X123646000Y-111014252D02*
X123646000Y-110491748D01*
%TO.C,D1*%
X106211767Y-110050482D02*
X108896767Y-110050482D01*
X108896767Y-110050482D02*
X108896767Y-111970482D01*
X108896767Y-111970482D02*
X106211767Y-111970482D01*
%TO.C,TP8*%
X151017200Y-124612400D02*
G75*
G03*
X151017200Y-124612400I-700000J0D01*
G01*
%TO.C,C15*%
X150629252Y-104189600D02*
X150106748Y-104189600D01*
X150629252Y-102769600D02*
X150106748Y-102769600D01*
%TO.C,F1*%
X157840000Y-101287664D02*
X157840000Y-100083536D01*
X159660000Y-101287664D02*
X159660000Y-100083536D01*
%TO.C,U3*%
X148625200Y-124855400D02*
X148625200Y-126655400D01*
X145405200Y-126655400D02*
X145405200Y-123705400D01*
%TO.C,C7*%
X146133452Y-117854800D02*
X145610948Y-117854800D01*
X146133452Y-116434800D02*
X145610948Y-116434800D01*
%TO.C,C14*%
X154989600Y-100515052D02*
X154989600Y-99992548D01*
X153569600Y-100515052D02*
X153569600Y-99992548D01*
%TO.C,TP2-3*%
X148045400Y-108737400D02*
G75*
G03*
X148045400Y-108737400I-700000J0D01*
G01*
%TO.C,R15*%
X125932000Y-111023252D02*
X125932000Y-110500748D01*
X124512000Y-111023252D02*
X124512000Y-110500748D01*
%TO.C,D4*%
X159165000Y-130360000D02*
X159165000Y-128890000D01*
X161450000Y-130360000D02*
X159165000Y-130360000D01*
X159165000Y-128890000D02*
X161450000Y-128890000D01*
D10*
%TO.C,SW2*%
X110272000Y-119750000D02*
X110272000Y-121550000D01*
X114772000Y-119750000D02*
X114772000Y-121550000D01*
X114322000Y-118400000D02*
X110722000Y-118400000D01*
X114322000Y-122900000D02*
X110722000Y-122900000D01*
X116522000Y-118850000D02*
X116522000Y-118850000D01*
X116522000Y-118950000D02*
X116522000Y-118950000D01*
X116522000Y-118950000D02*
G75*
G02*
X116522000Y-118850000I0J50000D01*
G01*
X116522000Y-118850000D02*
G75*
G02*
X116522000Y-118950000I0J-50000D01*
G01*
D11*
%TO.C,TP10*%
X140654000Y-114427000D02*
G75*
G03*
X140654000Y-114427000I-700000J0D01*
G01*
%TO.C,TP11*%
X151068000Y-127101600D02*
G75*
G03*
X151068000Y-127101600I-700000J0D01*
G01*
%TO.C,C10*%
X138355000Y-127007252D02*
X138355000Y-126484748D01*
X139775000Y-127007252D02*
X139775000Y-126484748D01*
%TO.C,5V_SW1*%
X146572200Y-129336800D02*
G75*
G03*
X146572200Y-129336800I-700000J0D01*
G01*
%TO.C,R13*%
X129084000Y-111023252D02*
X129084000Y-110500748D01*
X130504000Y-111023252D02*
X130504000Y-110500748D01*
%TO.C,L1*%
X145367100Y-109570600D02*
X145367100Y-115570600D01*
X141167100Y-109570600D02*
X141167100Y-115570600D01*
%TO.C,C11*%
X162120948Y-114402800D02*
X162643452Y-114402800D01*
X162120948Y-115822800D02*
X162643452Y-115822800D01*
%TO.C,TP_GND5*%
X105373400Y-138607800D02*
G75*
G03*
X105373400Y-138607800I-700000J0D01*
G01*
%TO.C,R17*%
X119940000Y-111005252D02*
X119940000Y-110482748D01*
X121360000Y-111005252D02*
X121360000Y-110482748D01*
%TO.C,TP4*%
X155030400Y-117932200D02*
G75*
G03*
X155030400Y-117932200I-700000J0D01*
G01*
%TO.C,U5*%
X154268400Y-116374400D02*
X152868400Y-116374400D01*
X152868400Y-114054400D02*
X154768400Y-114054400D01*
%TO.C,TP9*%
X144362400Y-124358400D02*
G75*
G03*
X144362400Y-124358400I-700000J0D01*
G01*
%TO.C,C12*%
X162120948Y-116434800D02*
X162643452Y-116434800D01*
X162120948Y-117854800D02*
X162643452Y-117854800D01*
%TO.C,TP3*%
X147664400Y-101219000D02*
G75*
G03*
X147664400Y-101219000I-700000J0D01*
G01*
%TO.C,U4*%
X157159600Y-104002000D02*
X157159600Y-105802000D01*
X153939600Y-105802000D02*
X153939600Y-102852000D01*
%TO.C,TP6*%
X155005000Y-122783600D02*
G75*
G03*
X155005000Y-122783600I-700000J0D01*
G01*
%TO.C,D3*%
X161450000Y-132835212D02*
X159165000Y-132835212D01*
X159165000Y-131365212D02*
X161450000Y-131365212D01*
X159165000Y-132835212D02*
X159165000Y-131365212D01*
%TO.C,J5*%
X108010000Y-128330000D02*
X105350000Y-128330000D01*
X108010000Y-124460000D02*
X108010000Y-123130000D01*
X108010000Y-123130000D02*
X106680000Y-123130000D01*
X105350000Y-125730000D02*
X105350000Y-128330000D01*
X108010000Y-125730000D02*
X105350000Y-125730000D01*
X108010000Y-125730000D02*
X108010000Y-128330000D01*
%TO.C,U1*%
X146267100Y-113305600D02*
X146267100Y-113970600D01*
X146267100Y-110670600D02*
X146267100Y-111335600D01*
X149567100Y-110670600D02*
X149567100Y-111335600D01*
X149567100Y-110670600D02*
X149317100Y-110670600D01*
X146517100Y-113970600D02*
X146267100Y-113970600D01*
X149317100Y-113970600D02*
X149567100Y-113970600D01*
X149567100Y-113305600D02*
X149567100Y-113970600D01*
%TO.C,C16*%
X150178000Y-100515052D02*
X150178000Y-99992548D01*
X148758000Y-100515052D02*
X148758000Y-99992548D01*
%TO.C,IC1*%
X137320000Y-121920000D02*
X137320000Y-118900000D01*
X124300000Y-121920000D02*
X124300000Y-125780000D01*
X124300000Y-121920000D02*
X124300000Y-118872000D01*
X137085000Y-124968000D02*
X137085000Y-126873000D01*
X124288500Y-118872000D02*
X124523500Y-118872000D01*
X124300000Y-125780000D02*
X124535000Y-125780000D01*
X137320000Y-121920000D02*
X137320000Y-125780000D01*
X137320000Y-118900000D02*
X137085000Y-118900000D01*
X137320000Y-125780000D02*
X137085000Y-125780000D01*
%TO.C,R11*%
X135076000Y-111005252D02*
X135076000Y-110482748D01*
X133656000Y-111005252D02*
X133656000Y-110482748D01*
%TO.C,J6*%
X108010000Y-118050000D02*
X106680000Y-118050000D01*
X108010000Y-120650000D02*
X105350000Y-120650000D01*
X108010000Y-123250000D02*
X105350000Y-123250000D01*
X105350000Y-120650000D02*
X105350000Y-123250000D01*
X108010000Y-120650000D02*
X108010000Y-123250000D01*
X108010000Y-119380000D02*
X108010000Y-118050000D01*
%TO.C,R14*%
X126798000Y-111023252D02*
X126798000Y-110500748D01*
X128218000Y-111023252D02*
X128218000Y-110500748D01*
%TD*%
M02*
