%TF.GenerationSoftware,KiCad,Pcbnew,5.99.0-unknown-308ab8caf~106~ubuntu18.04.1*%
%TF.CreationDate,2021-02-25T19:42:54-08:00*%
%TF.ProjectId,signal-board,7369676e-616c-42d6-926f-6172642e6b69,rev?*%
%TF.SameCoordinates,Original*%
%TF.FileFunction,Paste,Bot*%
%TF.FilePolarity,Positive*%
%FSLAX46Y46*%
G04 Gerber Fmt 4.6, Leading zero omitted, Abs format (unit mm)*
G04 Created by KiCad (PCBNEW 5.99.0-unknown-308ab8caf~106~ubuntu18.04.1) date 2021-02-25 19:42:54*
%MOMM*%
%LPD*%
G01*
G04 APERTURE LIST*
G04 Aperture macros list*
%AMRoundRect*
0 Rectangle with rounded corners*
0 $1 Rounding radius*
0 $2 $3 $4 $5 $6 $7 $8 $9 X,Y pos of 4 corners*
0 Add a 4 corners polygon primitive as box body*
4,1,4,$2,$3,$4,$5,$6,$7,$8,$9,$2,$3,0*
0 Add four circle primitives for the rounded corners*
1,1,$1+$1,$2,$3,0*
1,1,$1+$1,$4,$5,0*
1,1,$1+$1,$6,$7,0*
1,1,$1+$1,$8,$9,0*
0 Add four rect primitives between the rounded corners*
20,1,$1+$1,$2,$3,$4,$5,0*
20,1,$1+$1,$4,$5,$6,$7,0*
20,1,$1+$1,$6,$7,$8,$9,0*
20,1,$1+$1,$8,$9,$2,$3,0*%
G04 Aperture macros list end*
%TA.AperFunction,Profile*%
%ADD10C,0.100000*%
%TD*%
%TA.AperFunction,Profile*%
%ADD11C,0.120000*%
%TD*%
%ADD12RoundRect,0.147500X-0.172500X0.147500X-0.172500X-0.147500X0.172500X-0.147500X0.172500X0.147500X0*%
%ADD13RoundRect,0.147500X-0.147500X-0.172500X0.147500X-0.172500X0.147500X0.172500X-0.147500X0.172500X0*%
%ADD14RoundRect,0.243750X-0.243750X-0.456250X0.243750X-0.456250X0.243750X0.456250X-0.243750X0.456250X0*%
%ADD15RoundRect,0.250000X0.450000X-0.325000X0.450000X0.325000X-0.450000X0.325000X-0.450000X-0.325000X0*%
%ADD16RoundRect,0.250000X-0.450000X0.325000X-0.450000X-0.325000X0.450000X-0.325000X0.450000X0.325000X0*%
%ADD17RoundRect,0.250000X0.325000X0.450000X-0.325000X0.450000X-0.325000X-0.450000X0.325000X-0.450000X0*%
%ADD18RoundRect,0.250000X-0.325000X-0.450000X0.325000X-0.450000X0.325000X0.450000X-0.325000X0.450000X0*%
%ADD19R,1.650000X1.150000*%
%ADD20RoundRect,0.147500X0.172500X-0.147500X0.172500X0.147500X-0.172500X0.147500X-0.172500X-0.147500X0*%
%ADD21RoundRect,0.243750X0.243750X0.456250X-0.243750X0.456250X-0.243750X-0.456250X0.243750X-0.456250X0*%
%ADD22RoundRect,0.250000X0.625000X-0.375000X0.625000X0.375000X-0.625000X0.375000X-0.625000X-0.375000X0*%
%ADD23RoundRect,0.147500X0.147500X0.172500X-0.147500X0.172500X-0.147500X-0.172500X0.147500X-0.172500X0*%
%ADD24R,0.650000X1.560000*%
%ADD25RoundRect,0.218750X-0.218750X-0.256250X0.218750X-0.256250X0.218750X0.256250X-0.218750X0.256250X0*%
%ADD26R,3.900000X2.200000*%
%ADD27R,1.500000X0.400000*%
%ADD28R,0.230000X0.230000*%
%ADD29O,0.230000X0.800000*%
%ADD30R,0.600000X0.150000*%
%ADD31R,0.600000X0.230000*%
%ADD32R,0.900000X0.650000*%
%ADD33RoundRect,0.150000X0.150000X-0.875000X0.150000X0.875000X-0.150000X0.875000X-0.150000X-0.875000X0*%
G04 APERTURE END LIST*
D10*
X170300000Y-141000000D02*
X170300000Y-98000000D01*
X170300000Y-141000000D02*
X97300000Y-141000000D01*
X97300000Y-135500000D02*
X97300000Y-141000000D01*
X104400000Y-133500000D02*
G75*
G02*
X102400000Y-135500000I-2000000J0D01*
G01*
X104400000Y-133500000D02*
X104400000Y-105500000D01*
X97300000Y-98000000D02*
X97300000Y-103500000D01*
D11*
X101175000Y-138500000D02*
G75*
G03*
X101175000Y-138500000I-1125000J0D01*
G01*
D10*
X102400000Y-103500000D02*
G75*
G02*
X104400000Y-105500000I0J-2000000D01*
G01*
D11*
X101175000Y-100500000D02*
G75*
G03*
X101175000Y-100500000I-1125000J0D01*
G01*
X97300000Y-98000000D02*
X170300000Y-98000000D01*
X168675000Y-138500000D02*
G75*
G03*
X168675000Y-138500000I-1125000J0D01*
G01*
D10*
X102400000Y-135500000D02*
X97300000Y-135500000D01*
D11*
X168675000Y-100500000D02*
G75*
G03*
X168675000Y-100500000I-1125000J0D01*
G01*
D10*
X102400000Y-103500000D02*
X97300000Y-103500000D01*
D12*
%TO.C,R4*%
X117856000Y-125490000D03*
X117856000Y-126460000D03*
%TD*%
D13*
%TO.C,R2*%
X148365666Y-117248220D03*
X149335666Y-117248220D03*
%TD*%
D14*
%TO.C,D2*%
X112661577Y-111043878D03*
X114536577Y-111043878D03*
%TD*%
D15*
%TO.C,R12*%
X132080000Y-111787000D03*
X132080000Y-109737000D03*
%TD*%
D16*
%TO.C,C1*%
X153644600Y-109109400D03*
X153644600Y-111159400D03*
%TD*%
D17*
%TO.C,C6*%
X146897200Y-119202200D03*
X144847200Y-119202200D03*
%TD*%
D12*
%TO.C,R8*%
X108407200Y-113611800D03*
X108407200Y-114581800D03*
%TD*%
D15*
%TO.C,R10*%
X136652000Y-111787000D03*
X136652000Y-109737000D03*
%TD*%
D16*
%TO.C,C2*%
X151511000Y-109137800D03*
X151511000Y-111187800D03*
%TD*%
D12*
%TO.C,R19*%
X156387800Y-100530800D03*
X156387800Y-101500800D03*
%TD*%
D18*
%TO.C,C13*%
X161357200Y-119176800D03*
X163407200Y-119176800D03*
%TD*%
D15*
%TO.C,C17*%
X151873800Y-101278800D03*
X151873800Y-99228800D03*
%TD*%
D12*
%TO.C,R7*%
X122428000Y-120165000D03*
X122428000Y-121135000D03*
%TD*%
%TO.C,R6*%
X117856000Y-120156000D03*
X117856000Y-121126000D03*
%TD*%
D19*
%TO.C,SW1*%
X115147000Y-124308000D03*
X109847000Y-124233000D03*
X115197000Y-127583000D03*
X109847000Y-127583000D03*
%TD*%
D20*
%TO.C,R24*%
X156921200Y-116766200D03*
X156921200Y-115796200D03*
%TD*%
D17*
%TO.C,C5*%
X146897200Y-121259600D03*
X144847200Y-121259600D03*
%TD*%
D15*
%TO.C,R16*%
X122936000Y-111778000D03*
X122936000Y-109728000D03*
%TD*%
D21*
%TO.C,D1*%
X108149267Y-111010482D03*
X106274267Y-111010482D03*
%TD*%
D17*
%TO.C,C15*%
X151393000Y-103479600D03*
X149343000Y-103479600D03*
%TD*%
D22*
%TO.C,F1*%
X158750000Y-102085600D03*
X158750000Y-99285600D03*
%TD*%
D20*
%TO.C,C9*%
X120142000Y-121126000D03*
X120142000Y-120156000D03*
%TD*%
D23*
%TO.C,R20*%
X149335666Y-119639460D03*
X148365666Y-119639460D03*
%TD*%
D24*
%TO.C,U3*%
X146065200Y-124405400D03*
X147015200Y-124405400D03*
X147965200Y-124405400D03*
X147965200Y-127105400D03*
X147015200Y-127105400D03*
X146065200Y-127105400D03*
%TD*%
D20*
%TO.C,C8*%
X120142000Y-126469000D03*
X120142000Y-125499000D03*
%TD*%
D17*
%TO.C,C7*%
X146897200Y-117144800D03*
X144847200Y-117144800D03*
%TD*%
D15*
%TO.C,C14*%
X154279600Y-101278800D03*
X154279600Y-99228800D03*
%TD*%
%TO.C,R15*%
X125222000Y-111787000D03*
X125222000Y-109737000D03*
%TD*%
D25*
%TO.C,D4*%
X159862500Y-129625000D03*
X161437500Y-129625000D03*
%TD*%
D12*
%TO.C,R5*%
X122428000Y-125490000D03*
X122428000Y-126460000D03*
%TD*%
D19*
%TO.C,SW2*%
X115147000Y-119050000D03*
X109847000Y-118975000D03*
X115197000Y-122325000D03*
X109847000Y-122325000D03*
%TD*%
D15*
%TO.C,C10*%
X139065000Y-127771000D03*
X139065000Y-125721000D03*
%TD*%
D12*
%TO.C,R22*%
X143840200Y-126362600D03*
X143840200Y-127332600D03*
%TD*%
D13*
%TO.C,C3*%
X150975200Y-112826800D03*
X151945200Y-112826800D03*
%TD*%
D15*
%TO.C,R13*%
X129794000Y-111787000D03*
X129794000Y-109737000D03*
%TD*%
D26*
%TO.C,L1*%
X143267100Y-110670600D03*
X143267100Y-114470600D03*
%TD*%
D18*
%TO.C,C11*%
X161357200Y-115112800D03*
X163407200Y-115112800D03*
%TD*%
D15*
%TO.C,R17*%
X120650000Y-111769000D03*
X120650000Y-109719000D03*
%TD*%
D27*
%TO.C,U5*%
X154898400Y-114564400D03*
X154898400Y-115214400D03*
X154898400Y-115864400D03*
X152238400Y-115864400D03*
X152238400Y-114564400D03*
%TD*%
D20*
%TO.C,R18*%
X155346400Y-109730400D03*
X155346400Y-108760400D03*
%TD*%
D13*
%TO.C,R3*%
X148365666Y-122030700D03*
X149335666Y-122030700D03*
%TD*%
%TO.C,R1*%
X148365666Y-118443840D03*
X149335666Y-118443840D03*
%TD*%
D18*
%TO.C,C12*%
X161357200Y-117144800D03*
X163407200Y-117144800D03*
%TD*%
D13*
%TO.C,R21*%
X148365666Y-120835080D03*
X149335666Y-120835080D03*
%TD*%
D24*
%TO.C,U4*%
X154599600Y-103552000D03*
X155549600Y-103552000D03*
X156499600Y-103552000D03*
X156499600Y-106252000D03*
X155549600Y-106252000D03*
X154599600Y-106252000D03*
%TD*%
D25*
%TO.C,D3*%
X159862500Y-132100212D03*
X161437500Y-132100212D03*
%TD*%
D28*
%TO.C,U1*%
X146917100Y-110560600D03*
D29*
X146917100Y-110845600D03*
X147417100Y-110845600D03*
D28*
X147417100Y-110560600D03*
D29*
X147917100Y-110845600D03*
D28*
X147917100Y-110560600D03*
X148417100Y-110560600D03*
D29*
X148417100Y-110845600D03*
X148917100Y-110845600D03*
D28*
X148917100Y-110560600D03*
X148917100Y-114080600D03*
D29*
X148917100Y-113795600D03*
X148417100Y-113795600D03*
D28*
X148417100Y-114080600D03*
X147917100Y-114080600D03*
D29*
X147917100Y-113795600D03*
D28*
X147417100Y-114080600D03*
D29*
X147417100Y-113795600D03*
D28*
X146917100Y-114080600D03*
D29*
X146917100Y-113795600D03*
D30*
X149342100Y-112520600D03*
D31*
X149342100Y-111720600D03*
D32*
X148477100Y-112755600D03*
X148477100Y-111885600D03*
X147357100Y-111885600D03*
D31*
X146492100Y-112920600D03*
X146492100Y-111720600D03*
X149342100Y-112120600D03*
D30*
X146492100Y-112120600D03*
X149342100Y-112920600D03*
X146492100Y-112520600D03*
X146492100Y-112920600D03*
X149342100Y-112120600D03*
D31*
X146492100Y-112120600D03*
D30*
X149342100Y-111720600D03*
X146492100Y-111720600D03*
D32*
X147357100Y-112755600D03*
D31*
X149342100Y-112520600D03*
X149342100Y-112920600D03*
X146492100Y-112520600D03*
%TD*%
D13*
%TO.C,C4*%
X148365666Y-116052600D03*
X149335666Y-116052600D03*
%TD*%
D12*
%TO.C,R23*%
X156921200Y-113662600D03*
X156921200Y-114632600D03*
%TD*%
D15*
%TO.C,C16*%
X149468000Y-101278800D03*
X149468000Y-99228800D03*
%TD*%
D33*
%TO.C,IC1*%
X136525000Y-125730000D03*
X135255000Y-125730000D03*
X133985000Y-125730000D03*
X132715000Y-125730000D03*
X131445000Y-125730000D03*
X130175000Y-125730000D03*
X128905000Y-125730000D03*
X127635000Y-125730000D03*
X126365000Y-125730000D03*
X125095000Y-125730000D03*
X125095000Y-118110000D03*
X126365000Y-118110000D03*
X127635000Y-118110000D03*
X128905000Y-118110000D03*
X130175000Y-118110000D03*
X131445000Y-118110000D03*
X132715000Y-118110000D03*
X133985000Y-118110000D03*
X135255000Y-118110000D03*
X136525000Y-118110000D03*
%TD*%
D15*
%TO.C,R11*%
X134366000Y-111769000D03*
X134366000Y-109719000D03*
%TD*%
D12*
%TO.C,R9*%
X112268000Y-113637200D03*
X112268000Y-114607200D03*
%TD*%
D15*
%TO.C,R14*%
X127508000Y-111787000D03*
X127508000Y-109737000D03*
%TD*%
M02*
