M48
; DRILL file {KiCad 5.99.0-unknown-89dcc4689~104~ubuntu20.04.1} date Mon Oct 12 19:30:36 2020
; FORMAT={-:-/ absolute / inch / decimal}
; #@! TF.CreationDate,2020-10-12T19:30:36-07:00
; #@! TF.GenerationSoftware,Kicad,Pcbnew,5.99.0-unknown-89dcc4689~104~ubuntu20.04.1
; #@! TF.FileFunction,Plated,1,4,PTH
FMAT,2
INCH
T1C0.0100
T2C0.0118
T3C0.0354
T4C0.0394
T5C0.0409
%
G90
G05
T1
X4.199Y-5.068
X4.202Y-4.629
X4.219Y-4.491
X4.324Y-4.751
X4.324Y-4.955
X4.472Y-4.494
X4.485Y-4.748
X4.487Y-4.959
X4.535Y-4.63
X4.569Y-4.498
X4.62Y-4.888
X4.695Y-4.648
X4.695Y-4.94
X4.7Y-4.695
X4.745Y-5.104
X4.7789Y-4.7309
X4.7794Y-4.9422
X4.829Y-4.857
X4.935Y-5.015
X4.975Y-4.73
X4.975Y-4.845
X5.025Y-4.75
X5.025Y-4.805
X5.075Y-4.835
X5.125Y-4.87
X5.317Y-4.263
X5.326Y-4.722
X5.42Y-4.28
X5.44Y-4.775
X5.44Y-4.82
X5.457Y-4.497
X5.464Y-5.06
X5.466Y-4.586
X5.473Y-4.775
X5.473Y-4.82
X5.61Y-4.36
X5.615Y-4.84
X5.645Y-4.36
X5.678Y-5.112
X5.685Y-4.36
X5.685Y-4.681
X5.708Y-4.912
X5.725Y-4.36
X5.77Y-4.36
X5.783Y-4.985
X5.81Y-4.36
X5.826Y-4.849
X5.91Y-5.003
X5.919Y-4.292
X5.928Y-4.853
X5.93Y-4.729
X5.965Y-4.729
X6.002Y-4.729
X6.028Y-4.75
X6.043Y-4.694
X6.053Y-5.022
X6.056Y-4.921
X6.058Y-4.818
X6.065Y-4.289
X6.22Y-4.695
X6.22Y-4.72
X6.22Y-4.745
X6.22Y-4.77
X6.22Y-4.795
X6.22Y-4.82
X6.22Y-4.845
X6.22Y-4.87
X6.22Y-4.895
X6.2237Y-4.1621
X6.2237Y-4.2015
X6.2237Y-4.2409
X6.2237Y-4.2803
X6.2237Y-4.3196
X6.2237Y-4.359
X6.2657Y-4.162
X6.282Y-5.098
X6.286Y-5.202
X6.3067Y-4.162
X6.3487Y-4.1631
X6.3487Y-4.2025
X6.3487Y-4.2419
X6.3487Y-4.2813
X6.3487Y-4.3206
X6.3487Y-4.36
X6.351Y-3.92
X6.351Y-3.9594
X6.351Y-3.9987
X6.36Y-5.31
X6.36Y-5.3619
X6.36Y-5.4013
X6.36Y-5.4406
X6.36Y-5.48
X6.3904Y-3.92
X6.3904Y-3.9594
X6.3904Y-3.9987
X6.3994Y-5.3619
X6.3994Y-5.4013
X6.3994Y-5.4406
X6.3994Y-5.48
X6.4297Y-3.92
X6.4297Y-3.9594
X6.4297Y-3.9987
X6.43Y-4.18
X6.4387Y-5.3619
X6.4387Y-5.4013
X6.4387Y-5.4406
X6.4387Y-5.48
X6.4428Y-4.53
X6.4428Y-4.5595
X6.4428Y-4.5891
X6.4691Y-3.92
X6.4691Y-3.9594
X6.4691Y-3.9987
X6.4724Y-4.53
X6.4724Y-4.5595
X6.4724Y-4.5891
X6.4781Y-5.3619
X6.4781Y-5.4013
X6.4781Y-5.4406
X6.4781Y-5.48
X6.48Y-4.18
X6.5019Y-4.53
X6.5019Y-4.5595
X6.5019Y-4.5891
X6.5085Y-3.92
X6.5085Y-3.9594
X6.5085Y-3.9987
X6.5175Y-5.3619
X6.5175Y-5.4013
X6.5175Y-5.4406
X6.5175Y-5.48
X6.53Y-4.18
X6.5314Y-4.53
X6.5314Y-4.5595
X6.5314Y-4.5891
X6.5569Y-5.3619
X6.5609Y-4.53
X6.5609Y-4.5595
X6.5609Y-4.5891
X6.5609Y-4.6186
X6.58Y-4.18
X6.5905Y-4.53
X6.5905Y-4.5595
X6.5905Y-4.5891
X6.5905Y-4.6186
X6.5962Y-5.3619
X6.62Y-4.53
X6.62Y-4.5595
X6.62Y-4.5891
X6.62Y-4.6186
T2
X5.9572Y-4.5898
X5.9572Y-4.6292
X5.9769Y-4.6095
X5.9966Y-4.5898
X5.9966Y-4.6292
T3
X4.42Y-4.37
X4.52Y-4.37
X4.17Y-4.37
X4.27Y-4.37
T4
X4.2Y-4.9
X4.2Y-5.0
X4.2Y-4.7
X4.2Y-4.8
X4.3Y-5.4
X4.4Y-5.4
X4.5Y-5.4
X4.6Y-5.4
X4.7Y-5.4
X4.8Y-5.4
X4.9Y-5.4
X5.0Y-5.4
X5.1Y-5.4
X5.2Y-5.4
X5.3Y-5.4
X5.4Y-5.4
X5.5Y-5.4
X5.6Y-5.4
X5.7Y-5.4
X5.8Y-5.4
X4.5Y-4.0
X4.6Y-4.0
X4.7Y-4.0
X4.8Y-4.0
X4.9Y-4.0
X5.0Y-4.0
X5.1Y-4.0
X5.2Y-4.0
X5.3Y-4.0
X5.4Y-4.0
X5.5Y-4.0
X5.6Y-4.0
T5
X4.1689Y-4.2008
X4.1689Y-5.2008
X4.2689Y-4.2008
X4.2689Y-5.2008
X4.3689Y-4.2008
X4.3689Y-5.2008
X4.4689Y-4.2008
X4.4689Y-5.2008
X4.5689Y-4.2008
X4.5689Y-5.2008
X4.6689Y-4.2008
X4.6689Y-5.2008
X4.7689Y-4.2008
X4.7689Y-5.2008
X4.8689Y-4.2008
X4.8689Y-5.2008
X4.9689Y-4.2008
X4.9689Y-5.2008
X5.0689Y-4.2008
X5.0689Y-5.2008
X5.1689Y-4.2008
X5.1689Y-5.2008
X5.2689Y-4.2008
X5.2689Y-5.2008
X5.3689Y-4.2008
X5.3689Y-5.2008
X5.4689Y-4.2008
X5.4689Y-5.2008
X5.5689Y-4.2008
X5.5689Y-5.2008
X5.6689Y-4.2008
X5.6689Y-5.2008
X5.7689Y-4.2008
X5.7689Y-5.2008
X5.8689Y-4.2008
X5.8689Y-5.2008
X5.9689Y-4.2008
X5.9689Y-5.2008
T4
G00X6.2855Y-4.3104
M15
G01X6.2855Y-4.2316
M16
G05
G00X6.5217Y-4.2966
M15
G01X6.5217Y-4.2454
M16
G05
G00X6.5316Y-4.0938
M15
G01X6.5906Y-4.0938
M16
G05
G00X6.5316Y-4.4482
M15
G01X6.5906Y-4.4482
M16
G05
T0
M30
