G04 #@! TF.GenerationSoftware,KiCad,Pcbnew,5.99.0-unknown-89dcc4689~104~ubuntu20.04.1*
G04 #@! TF.CreationDate,2020-10-12T19:49:41-07:00*
G04 #@! TF.ProjectId,signal-board,7369676e-616c-42d6-926f-6172642e6b69,rev?*
G04 #@! TF.SameCoordinates,Original*
G04 #@! TF.FileFunction,Copper,L1,Top*
G04 #@! TF.FilePolarity,Positive*
%FSLAX46Y46*%
G04 Gerber Fmt 4.6, Leading zero omitted, Abs format (unit mm)*
G04 Created by KiCad (PCBNEW 5.99.0-unknown-89dcc4689~104~ubuntu20.04.1) date 2020-10-12 19:49:41*
%MOMM*%
%LPD*%
G01*
G04 APERTURE LIST*
G04 #@! TA.AperFunction,ComponentPad*
%ADD10R,1.700000X1.700000*%
G04 #@! TD*
G04 #@! TA.AperFunction,ComponentPad*
%ADD11O,1.700000X1.700000*%
G04 #@! TD*
G04 #@! TA.AperFunction,ComponentPad*
%ADD12R,2.000000X4.000000*%
G04 #@! TD*
G04 #@! TA.AperFunction,ComponentPad*
%ADD13O,2.000000X3.300000*%
G04 #@! TD*
G04 #@! TA.AperFunction,ComponentPad*
%ADD14O,3.500000X2.000000*%
G04 #@! TD*
G04 #@! TA.AperFunction,SMDPad,CuDef*
%ADD15R,5.000000X1.000000*%
G04 #@! TD*
G04 #@! TA.AperFunction,ComponentPad*
%ADD16R,1.560000X1.560000*%
G04 #@! TD*
G04 #@! TA.AperFunction,ComponentPad*
%ADD17C,1.560000*%
G04 #@! TD*
G04 #@! TA.AperFunction,ComponentPad*
%ADD18R,1.800000X1.800000*%
G04 #@! TD*
G04 #@! TA.AperFunction,ComponentPad*
%ADD19C,1.800000*%
G04 #@! TD*
G04 #@! TA.AperFunction,ComponentPad*
%ADD20C,0.600000*%
G04 #@! TD*
G04 #@! TA.AperFunction,SMDPad,CuDef*
%ADD21R,2.300000X2.300000*%
G04 #@! TD*
G04 #@! TA.AperFunction,ViaPad*
%ADD22C,0.508000*%
G04 #@! TD*
G04 #@! TA.AperFunction,Conductor*
%ADD23C,0.500000*%
G04 #@! TD*
G04 #@! TA.AperFunction,Conductor*
%ADD24C,0.254000*%
G04 #@! TD*
G04 #@! TA.AperFunction,Conductor*
%ADD25C,1.000000*%
G04 #@! TD*
G04 #@! TA.AperFunction,Conductor*
%ADD26C,1.500000*%
G04 #@! TD*
G04 APERTURE END LIST*
D10*
G04 #@! TO.P,J4,1,Pin_1*
G04 #@! TO.N,+3V3*
X109220000Y-137160000D03*
D11*
G04 #@! TO.P,J4,2,Pin_2*
G04 #@! TO.N,/en*
X111760000Y-137160000D03*
G04 #@! TO.P,J4,3,Pin_3*
G04 #@! TO.N,/sensor_vp*
X114300000Y-137160000D03*
G04 #@! TO.P,J4,4,Pin_4*
G04 #@! TO.N,/sensor_vn*
X116840000Y-137160000D03*
G04 #@! TO.P,J4,5,Pin_5*
G04 #@! TO.N,/io34*
X119380000Y-137160000D03*
G04 #@! TO.P,J4,6,Pin_6*
G04 #@! TO.N,/io35*
X121920000Y-137160000D03*
G04 #@! TO.P,J4,7,Pin_7*
G04 #@! TO.N,/io25*
X124460000Y-137160000D03*
G04 #@! TO.P,J4,8,Pin_8*
G04 #@! TO.N,/uart_tx*
X127000000Y-137160000D03*
G04 #@! TO.P,J4,9,Pin_9*
G04 #@! TO.N,/uart_rx*
X129540000Y-137160000D03*
G04 #@! TO.P,J4,10,Pin_10*
G04 #@! TO.N,/vspi_mosi*
X132080000Y-137160000D03*
G04 #@! TO.P,J4,11,Pin_11*
G04 #@! TO.N,/vspi_miso*
X134620000Y-137160000D03*
G04 #@! TO.P,J4,12,Pin_12*
G04 #@! TO.N,/vspi_clk*
X137160000Y-137160000D03*
G04 #@! TO.P,J4,13,Pin_13*
G04 #@! TO.N,/vspi_cs*
X139700000Y-137160000D03*
G04 #@! TO.P,J4,14,Pin_14*
G04 #@! TO.N,GND*
X142240000Y-137160000D03*
G04 #@! TO.P,J4,15,Pin_15*
G04 #@! TO.N,+5V*
X144780000Y-137160000D03*
G04 #@! TO.P,J4,16,Pin_16*
G04 #@! TO.N,/3-12v*
X147320000Y-137160000D03*
G04 #@! TD*
D10*
G04 #@! TO.P,J2,1,Pin_1*
G04 #@! TO.N,/i2c_scl*
X114300000Y-101600000D03*
D11*
G04 #@! TO.P,J2,2,Pin_2*
G04 #@! TO.N,/i2c_sda*
X116840000Y-101600000D03*
G04 #@! TO.P,J2,3,Pin_3*
G04 #@! TO.N,GND*
X119380000Y-101600000D03*
G04 #@! TO.P,J2,4,Pin_4*
G04 #@! TO.N,/pixels_8*
X121920000Y-101600000D03*
G04 #@! TO.P,J2,5,Pin_5*
G04 #@! TO.N,/pixels_7*
X124460000Y-101600000D03*
G04 #@! TO.P,J2,6,Pin_6*
G04 #@! TO.N,/pixels_6*
X127000000Y-101600000D03*
G04 #@! TO.P,J2,7,Pin_7*
G04 #@! TO.N,/pixels_5*
X129540000Y-101600000D03*
G04 #@! TO.P,J2,8,Pin_8*
G04 #@! TO.N,/pixels_4*
X132080000Y-101600000D03*
G04 #@! TO.P,J2,9,Pin_9*
G04 #@! TO.N,/pixels_3*
X134620000Y-101600000D03*
G04 #@! TO.P,J2,10,Pin_10*
G04 #@! TO.N,/pixels_2*
X137160000Y-101600000D03*
G04 #@! TO.P,J2,11,Pin_11*
G04 #@! TO.N,/pixels_1*
X139700000Y-101600000D03*
G04 #@! TO.P,J2,12,Pin_12*
G04 #@! TO.N,GND*
X142240000Y-101600000D03*
G04 #@! TD*
D12*
G04 #@! TO.P,J1,1*
G04 #@! TO.N,/3-12v*
X159652200Y-108483400D03*
D13*
G04 #@! TO.P,J1,2*
G04 #@! TO.N,GND*
X165652200Y-108483400D03*
D14*
G04 #@! TO.P,J1,MP*
G04 #@! TO.N,N/C*
X166652200Y-103983400D03*
X166652200Y-112983400D03*
G04 #@! TD*
D15*
G04 #@! TO.P,J3,1,Pin_1*
G04 #@! TO.N,/3-12v*
X165430200Y-127076200D03*
G04 #@! TO.P,J3,2,Pin_2*
G04 #@! TO.N,/pixels_1*
X165430200Y-129616200D03*
G04 #@! TO.P,J3,3,Pin_3*
G04 #@! TO.N,/pixels_2*
X165430200Y-132156200D03*
G04 #@! TO.P,J3,4,Pin_4*
G04 #@! TO.N,GND*
X165430200Y-134696200D03*
G04 #@! TD*
D16*
G04 #@! TO.P,U2,1,3V3*
G04 #@! TO.N,+3V3*
X105890000Y-132100000D03*
D17*
G04 #@! TO.P,U2,2,EN*
G04 #@! TO.N,/en*
X108430000Y-132100000D03*
G04 #@! TO.P,U2,3,SENSOR_VP*
G04 #@! TO.N,/sensor_vp*
X110970000Y-132100000D03*
G04 #@! TO.P,U2,4,SENSOR_VN*
G04 #@! TO.N,/sensor_vn*
X113510000Y-132100000D03*
G04 #@! TO.P,U2,5,IO34*
G04 #@! TO.N,/io34*
X116050000Y-132100000D03*
G04 #@! TO.P,U2,6,IO35*
G04 #@! TO.N,/io35*
X118590000Y-132100000D03*
G04 #@! TO.P,U2,7,IO32*
G04 #@! TO.N,Net-(U2-Pad7)*
X121130000Y-132100000D03*
G04 #@! TO.P,U2,8,IO33*
G04 #@! TO.N,Net-(U2-Pad8)*
X123670000Y-132100000D03*
G04 #@! TO.P,U2,9,IO25*
G04 #@! TO.N,/io25*
X126210000Y-132100000D03*
G04 #@! TO.P,U2,10,IO26*
G04 #@! TO.N,/level_shift_4*
X128750000Y-132100000D03*
G04 #@! TO.P,U2,11,IO27*
G04 #@! TO.N,/level_shift_3*
X131290000Y-132100000D03*
G04 #@! TO.P,U2,12,IO14*
G04 #@! TO.N,/status_led*
X133830000Y-132100000D03*
G04 #@! TO.P,U2,13,IO12*
G04 #@! TO.N,/level_shift_2*
X136370000Y-132100000D03*
G04 #@! TO.P,U2,14,GND1*
G04 #@! TO.N,GND*
X138910000Y-132100000D03*
G04 #@! TO.P,U2,15,IO13*
G04 #@! TO.N,/level_shift_1*
X141450000Y-132100000D03*
G04 #@! TO.P,U2,16,SD2*
G04 #@! TO.N,Net-(U2-Pad16)*
X143990000Y-132100000D03*
G04 #@! TO.P,U2,17,SD3*
G04 #@! TO.N,Net-(U2-Pad17)*
X146530000Y-132100000D03*
G04 #@! TO.P,U2,18,CMD*
G04 #@! TO.N,Net-(U2-Pad18)*
X149070000Y-132100000D03*
G04 #@! TO.P,U2,19,EXT_5V*
G04 #@! TO.N,+5V*
X151610000Y-132100000D03*
G04 #@! TO.P,U2,20,GND3*
G04 #@! TO.N,GND*
X105890000Y-106700000D03*
G04 #@! TO.P,U2,21,IO23*
G04 #@! TO.N,/vspi_mosi*
X108430000Y-106700000D03*
G04 #@! TO.P,U2,22,IO22*
G04 #@! TO.N,/i2c_scl*
X110970000Y-106700000D03*
G04 #@! TO.P,U2,23,TXD0*
G04 #@! TO.N,/uart_tx*
X113510000Y-106700000D03*
G04 #@! TO.P,U2,24,RXD0*
G04 #@! TO.N,/uart_rx*
X116050000Y-106700000D03*
G04 #@! TO.P,U2,25,IO21*
G04 #@! TO.N,/i2c_sda*
X118590000Y-106700000D03*
G04 #@! TO.P,U2,26,GND2*
G04 #@! TO.N,GND*
X121130000Y-106700000D03*
G04 #@! TO.P,U2,27,IO19*
G04 #@! TO.N,/vspi_miso*
X123670000Y-106700000D03*
G04 #@! TO.P,U2,28,IO18*
G04 #@! TO.N,/vspi_clk*
X126210000Y-106700000D03*
G04 #@! TO.P,U2,29,IO5*
G04 #@! TO.N,/vspi_cs*
X128750000Y-106700000D03*
G04 #@! TO.P,U2,30,IO17*
G04 #@! TO.N,/level_shift_8*
X131290000Y-106700000D03*
G04 #@! TO.P,U2,31,IO16*
G04 #@! TO.N,/level_shift_7*
X133830000Y-106700000D03*
G04 #@! TO.P,U2,32,IO4*
G04 #@! TO.N,/level_shift_6*
X136370000Y-106700000D03*
G04 #@! TO.P,U2,33,IO0*
G04 #@! TO.N,/button_2*
X138910000Y-106700000D03*
G04 #@! TO.P,U2,34,IO2*
G04 #@! TO.N,/level_shift_5*
X141450000Y-106700000D03*
G04 #@! TO.P,U2,35,IO15*
G04 #@! TO.N,/button_1*
X143990000Y-106700000D03*
G04 #@! TO.P,U2,36,SD1*
G04 #@! TO.N,Net-(U2-Pad36)*
X146530000Y-106700000D03*
G04 #@! TO.P,U2,37,SD0*
G04 #@! TO.N,Net-(U2-Pad37)*
X149070000Y-106700000D03*
G04 #@! TO.P,U2,38,CLK*
G04 #@! TO.N,Net-(U2-Pad38)*
X151610000Y-106700000D03*
G04 #@! TD*
D18*
G04 #@! TO.P,D2,1,K*
G04 #@! TO.N,Net-(D2-Pad1)*
X112268000Y-110998000D03*
D19*
G04 #@! TO.P,D2,2,A*
G04 #@! TO.N,/status_led*
X114808000Y-110998000D03*
G04 #@! TD*
D18*
G04 #@! TO.P,D1,1,K*
G04 #@! TO.N,Net-(D1-Pad1)*
X108458000Y-110998000D03*
D19*
G04 #@! TO.P,D1,2,A*
G04 #@! TO.N,+3V3*
X105918000Y-110998000D03*
G04 #@! TD*
D10*
G04 #@! TO.P,J5,1,Pin_1*
G04 #@! TO.N,GND*
X106680000Y-124460000D03*
D11*
G04 #@! TO.P,J5,2,Pin_2*
G04 #@! TO.N,Net-(J5-Pad2)*
X106680000Y-127000000D03*
G04 #@! TD*
D20*
G04 #@! TO.P,U1,11,PGND*
G04 #@! TO.N,GND*
X151814000Y-117081500D03*
X151314000Y-116581500D03*
X151314000Y-117581500D03*
X152314000Y-117581500D03*
D21*
X151815000Y-117081500D03*
D20*
X152314000Y-116581500D03*
G04 #@! TD*
D10*
G04 #@! TO.P,J6,1,Pin_1*
G04 #@! TO.N,GND*
X106680000Y-119380000D03*
D11*
G04 #@! TO.P,J6,2,Pin_2*
G04 #@! TO.N,Net-(J6-Pad2)*
X106680000Y-121920000D03*
G04 #@! TD*
D22*
G04 #@! TO.N,GND*
X168148000Y-117312000D03*
X153822400Y-124993400D03*
X154051000Y-108940600D03*
X161544000Y-136192000D03*
X163315400Y-99568000D03*
X109829600Y-120675400D03*
X164592000Y-106172000D03*
X162315400Y-101568000D03*
X163315400Y-101568000D03*
X163648000Y-115062000D03*
X163315400Y-100568000D03*
X165315400Y-101568000D03*
X162315400Y-99568000D03*
X163544000Y-137192000D03*
X162315400Y-100568000D03*
X162544000Y-139192000D03*
X147980400Y-123164600D03*
X117348000Y-124155200D03*
X146558000Y-110744000D03*
X164315400Y-99568000D03*
X165898000Y-116562000D03*
X164544000Y-139192000D03*
X165862000Y-106172000D03*
X150571200Y-123266200D03*
X113588800Y-114147600D03*
X164544000Y-136192000D03*
X164398000Y-115812000D03*
X161544000Y-139192000D03*
X119380000Y-119253000D03*
X163322000Y-106172000D03*
X164398000Y-115062000D03*
X106654600Y-128727200D03*
X163544000Y-136192000D03*
X165544000Y-139192000D03*
X164544000Y-137192000D03*
X113969800Y-125958600D03*
X109829600Y-125857000D03*
X164398000Y-116562000D03*
X138836400Y-116484400D03*
X168148000Y-116562000D03*
X164315400Y-100568000D03*
X164544000Y-138192000D03*
X146888200Y-126619000D03*
X163544000Y-139192000D03*
X162544000Y-138192000D03*
X153746200Y-127558800D03*
X165898000Y-115812000D03*
X161544000Y-134874000D03*
X142494000Y-110744000D03*
X122656600Y-123367800D03*
X166648000Y-116562000D03*
X138785600Y-128524000D03*
X138176000Y-121285000D03*
X165315400Y-99568000D03*
X150622000Y-120116600D03*
X147574000Y-110744000D03*
X163648000Y-116562000D03*
X120523000Y-129641600D03*
X153111200Y-120650000D03*
X152450800Y-120116600D03*
X161544000Y-137192000D03*
X151511000Y-120116600D03*
X166648000Y-115812000D03*
X143383000Y-110744000D03*
X167132000Y-106172000D03*
X162544000Y-136192000D03*
X161315400Y-100568000D03*
X144399000Y-110744000D03*
X166648000Y-117312000D03*
X161315400Y-101568000D03*
X167544000Y-136192000D03*
X167398000Y-116562000D03*
X142621000Y-122936000D03*
X166544000Y-136192000D03*
X165544000Y-138192000D03*
X167398000Y-115812000D03*
X139014200Y-122428000D03*
X165148000Y-116562000D03*
X138176000Y-122428000D03*
X116052600Y-114249200D03*
X115189000Y-117602000D03*
X167398000Y-117312000D03*
X165898000Y-115062000D03*
X165148000Y-115062000D03*
X150114000Y-127076200D03*
X167398000Y-115062000D03*
X107162600Y-114071400D03*
X106730800Y-117576600D03*
X165315400Y-100568000D03*
X144983200Y-124764800D03*
X166648000Y-115062000D03*
X139014200Y-121285000D03*
X168148000Y-115062000D03*
X113919000Y-120599200D03*
X135280400Y-119938800D03*
X153873200Y-122377200D03*
X145415000Y-110744000D03*
X164315400Y-101568000D03*
X162544000Y-137192000D03*
X119253000Y-118059200D03*
X163648000Y-115812000D03*
X161315400Y-99568000D03*
X161544000Y-138192000D03*
X125349000Y-127381000D03*
X168148000Y-115812000D03*
X165544000Y-136192000D03*
X163544000Y-138192000D03*
X165544000Y-137192000D03*
X144221200Y-129844800D03*
X150342600Y-109016800D03*
X165148000Y-115812000D03*
X138607800Y-114223800D03*
X119253000Y-125476000D03*
G04 #@! TO.N,+3V3*
X121398000Y-125531000D03*
X121384200Y-120165000D03*
G04 #@! TO.N,/3-12v*
X157988000Y-119888000D03*
X161258000Y-106744000D03*
X158083000Y-110718600D03*
X161258000Y-110744000D03*
X157988000Y-123698000D03*
X161258000Y-107744000D03*
X157988000Y-124333000D03*
X157988000Y-119253000D03*
X158083000Y-109718600D03*
X161258000Y-109744000D03*
X157988000Y-120523000D03*
X159149800Y-105714800D03*
X157988000Y-121793000D03*
X157988000Y-121158000D03*
X160191200Y-105714800D03*
X161258000Y-108744000D03*
X157988000Y-122428000D03*
X161258000Y-105744000D03*
X158083000Y-107718600D03*
X158083000Y-106718600D03*
X158083000Y-105718600D03*
X158083000Y-108718600D03*
X157988000Y-123063000D03*
G04 #@! TO.N,/button_2*
X126365000Y-120142000D03*
G04 #@! TO.N,/button_1*
X127635000Y-120650000D03*
G04 #@! TO.N,/pixels_2*
X135051800Y-108280200D03*
X159664400Y-132130800D03*
G04 #@! TO.N,/pixels_1*
X137668000Y-108712000D03*
X159562800Y-129489200D03*
G04 #@! TO.N,/level_shift_5*
X130175000Y-123698000D03*
G04 #@! TO.N,/level_shift_6*
X128905000Y-122809000D03*
G04 #@! TO.N,/level_shift_7*
X127635000Y-122047000D03*
G04 #@! TO.N,/level_shift_8*
X126365000Y-123063000D03*
G04 #@! TO.N,Net-(R3-Pad2)*
X144399000Y-118897400D03*
X153492200Y-119227600D03*
G04 #@! TD*
D23*
G04 #@! TO.N,GND*
X165430200Y-134696200D02*
X163906200Y-134696200D01*
X165430200Y-134696200D02*
X165227000Y-134696200D01*
X165227000Y-134696200D02*
X165455600Y-134924800D01*
G04 #@! TO.N,+3V3*
X105918000Y-110998000D02*
X105918000Y-112776000D01*
D24*
X121398000Y-128157000D02*
X120878600Y-128676400D01*
D25*
X112471200Y-118389400D02*
X111036100Y-116954300D01*
X112471200Y-123317000D02*
X112471200Y-118389400D01*
D24*
X120878600Y-128676400D02*
X112471200Y-128676400D01*
D25*
X105890000Y-132100000D02*
X105890000Y-131574600D01*
D24*
X121381800Y-123317000D02*
X121384200Y-123314600D01*
D25*
X105918000Y-115087400D02*
X105918000Y-110998000D01*
X107645200Y-129819400D02*
X111328200Y-129819400D01*
X111328200Y-129819400D02*
X112471200Y-128676400D01*
D24*
X121384200Y-123314600D02*
X121384200Y-125499000D01*
D25*
X106832400Y-116001800D02*
X105918000Y-115087400D01*
X111036100Y-116954300D02*
X110083600Y-116001800D01*
X105890000Y-131574600D02*
X107645200Y-129819400D01*
X110083600Y-116001800D02*
X106832400Y-116001800D01*
X112471200Y-128676400D02*
X112471200Y-123317000D01*
D24*
X121398000Y-125531000D02*
X121398000Y-128157000D01*
X121384200Y-120165000D02*
X121384200Y-123314600D01*
D26*
G04 #@! TO.N,/3-12v*
X158572200Y-127076200D02*
X165430200Y-127076200D01*
X156362400Y-129286000D02*
X158572200Y-127076200D01*
X147320000Y-137160000D02*
X151968200Y-137160000D01*
X151968200Y-137160000D02*
X156362400Y-132765800D01*
X156362400Y-132765800D02*
X156362400Y-129286000D01*
D24*
G04 #@! TO.N,/button_2*
X138910000Y-106700000D02*
X138740198Y-106700000D01*
X126365000Y-119075198D02*
X126365000Y-120142000D01*
X138740198Y-106700000D02*
X126365000Y-119075198D01*
G04 #@! TO.N,/button_1*
X143990000Y-106700000D02*
X130040000Y-120650000D01*
X130040000Y-120650000D02*
X127635000Y-120650000D01*
G04 #@! TO.N,/pixels_2*
X159689800Y-132156200D02*
X159664400Y-132130800D01*
X165430200Y-132156200D02*
X159689800Y-132156200D01*
G04 #@! TO.N,/pixels_1*
X165430200Y-129616200D02*
X159689800Y-129616200D01*
X159689800Y-129616200D02*
X159562800Y-129489200D01*
D23*
G04 #@! TO.N,/status_led*
X115464158Y-110998000D02*
X114808000Y-110998000D01*
X133830000Y-132100000D02*
X133830000Y-130528000D01*
X133830000Y-129363842D02*
X115464158Y-110998000D01*
X133830000Y-130528000D02*
X133830000Y-129363842D01*
D24*
G04 #@! TO.N,/io35*
X118590000Y-132100000D02*
X118590000Y-132240000D01*
G04 #@! TO.N,Net-(R3-Pad2)*
X153492200Y-119227600D02*
X144703800Y-119227600D01*
X153466800Y-119253000D02*
X153492200Y-119227600D01*
X144703800Y-119227600D02*
X144399000Y-118922800D01*
X144399000Y-118922800D02*
X144399000Y-118897400D01*
G04 #@! TD*
G04 #@! TA.AperFunction,Conductor*
G04 #@! TO.N,GND*
G36*
X168879008Y-103080660D02*
G01*
X168859236Y-103147674D01*
X168806373Y-103193360D01*
X168737201Y-103203214D01*
X168655847Y-103154951D01*
X168527636Y-102984191D01*
X168349327Y-102813795D01*
X168145581Y-102674809D01*
X167921874Y-102570968D01*
X167684210Y-102505058D01*
X167481554Y-102483400D01*
X165841383Y-102483400D01*
X165656393Y-102498609D01*
X165417189Y-102558693D01*
X165191011Y-102657038D01*
X164983932Y-102791004D01*
X164801509Y-102956995D01*
X164648654Y-103150546D01*
X164529457Y-103366471D01*
X164447130Y-103598954D01*
X164403879Y-103841767D01*
X164400866Y-104088386D01*
X164407922Y-104134494D01*
X164438172Y-104332181D01*
X164514796Y-104566613D01*
X164628679Y-104785379D01*
X164776765Y-104982610D01*
X164955073Y-105153005D01*
X165158819Y-105291991D01*
X165382526Y-105395832D01*
X165620190Y-105461742D01*
X165822846Y-105483400D01*
X167463017Y-105483400D01*
X167648007Y-105468191D01*
X167887211Y-105408107D01*
X168113389Y-105309762D01*
X168320468Y-105175796D01*
X168502887Y-105009808D01*
X168655339Y-104816770D01*
X168712335Y-104776360D01*
X168782132Y-104773179D01*
X168842569Y-104808238D01*
X168876650Y-104893784D01*
X168873654Y-107197775D01*
X168652199Y-107178400D01*
X168425591Y-107198225D01*
X168205864Y-107257101D01*
X167999700Y-107353237D01*
X167813362Y-107483712D01*
X167652512Y-107644562D01*
X167522037Y-107830900D01*
X167425901Y-108037064D01*
X167367025Y-108256791D01*
X167347199Y-108483400D01*
X167367025Y-108710009D01*
X167425901Y-108929736D01*
X167522037Y-109135900D01*
X167652512Y-109322238D01*
X167813362Y-109483088D01*
X167999700Y-109613563D01*
X168205864Y-109709699D01*
X168425591Y-109768575D01*
X168652200Y-109788401D01*
X168870310Y-109769319D01*
X168867325Y-112065099D01*
X168847553Y-112132113D01*
X168794690Y-112177799D01*
X168725518Y-112187653D01*
X168644164Y-112139390D01*
X168527635Y-111984190D01*
X168349327Y-111813795D01*
X168145581Y-111674809D01*
X167921874Y-111570968D01*
X167684210Y-111505058D01*
X167481554Y-111483400D01*
X165841383Y-111483400D01*
X165656393Y-111498609D01*
X165417189Y-111558693D01*
X165191011Y-111657038D01*
X164983932Y-111791004D01*
X164801509Y-111956995D01*
X164648654Y-112150546D01*
X164529457Y-112366471D01*
X164447130Y-112598954D01*
X164403879Y-112841767D01*
X164400866Y-113088383D01*
X164438172Y-113332181D01*
X164514796Y-113566613D01*
X164628678Y-113785378D01*
X164651861Y-113816254D01*
X164776764Y-113982609D01*
X164955073Y-114153005D01*
X165158819Y-114291991D01*
X165382526Y-114395832D01*
X165620190Y-114461742D01*
X165822846Y-114483400D01*
X167463017Y-114483400D01*
X167648007Y-114468191D01*
X167887211Y-114408107D01*
X168113389Y-114309762D01*
X168320468Y-114175796D01*
X168502887Y-114009808D01*
X168643616Y-113831614D01*
X168700612Y-113791204D01*
X168770409Y-113788023D01*
X168830846Y-113823082D01*
X168864927Y-113908628D01*
X168859200Y-118313200D01*
X167898330Y-118313200D01*
X167805219Y-118289246D01*
X163017897Y-117057653D01*
X162500690Y-105260424D01*
X162500624Y-105258988D01*
X162500520Y-105256922D01*
X162500404Y-105254797D01*
X162500399Y-105254696D01*
X162500346Y-105253778D01*
X162500209Y-105251531D01*
X162500149Y-105250585D01*
X162500010Y-105248527D01*
X162499877Y-105246646D01*
X162499791Y-105245490D01*
X162499674Y-105243967D01*
X162499538Y-105242261D01*
X162499380Y-105240383D01*
X162499310Y-105239561D01*
X162499254Y-105238922D01*
X162499045Y-105236628D01*
X162498867Y-105234751D01*
X162498744Y-105233501D01*
X162498559Y-105231676D01*
X162498420Y-105230348D01*
X162498234Y-105228619D01*
X162498012Y-105226628D01*
X162497869Y-105225380D01*
X162497670Y-105223689D01*
X162497425Y-105221676D01*
X162497264Y-105220390D01*
X162497106Y-105219143D01*
X162496861Y-105217274D01*
X162496548Y-105214948D01*
X162496343Y-105213473D01*
X162496086Y-105211673D01*
X162495828Y-105209900D01*
X162495429Y-105207249D01*
X162495151Y-105205460D01*
X162494954Y-105204218D01*
X162494733Y-105202840D01*
X162494553Y-105201738D01*
X162494235Y-105199830D01*
X162494030Y-105198626D01*
X162493969Y-105198277D01*
X162493818Y-105197401D01*
X162493492Y-105195544D01*
X162493235Y-105194110D01*
X162493159Y-105193689D01*
X162492819Y-105191835D01*
X162492588Y-105190600D01*
X162492459Y-105189911D01*
X162492043Y-105187743D01*
X162491632Y-105185656D01*
X162491510Y-105185036D01*
X162491139Y-105183201D01*
X162490869Y-105181884D01*
X162490512Y-105180170D01*
X162490502Y-105180124D01*
X162490079Y-105178128D01*
X162489756Y-105176632D01*
X162489178Y-105174013D01*
X162488593Y-105171425D01*
X162488193Y-105169696D01*
X162487907Y-105168472D01*
X162487325Y-105166027D01*
X162486732Y-105163586D01*
X162486277Y-105161755D01*
X162485817Y-105159928D01*
X162485506Y-105158710D01*
X162484999Y-105156750D01*
X162484394Y-105154455D01*
X162483906Y-105152634D01*
X162483215Y-105150102D01*
X162482887Y-105148918D01*
X162482572Y-105147790D01*
X162482058Y-105145974D01*
X162481538Y-105144162D01*
X162480982Y-105142252D01*
X162480873Y-105141882D01*
X162480633Y-105141070D01*
X162479893Y-105138590D01*
X162479575Y-105137541D01*
X162478801Y-105135023D01*
X162478446Y-105133881D01*
X162477897Y-105132135D01*
X162477516Y-105130938D01*
X162477325Y-105130339D01*
X162476736Y-105128515D01*
X162476160Y-105126754D01*
X162475568Y-105124964D01*
X162475169Y-105123773D01*
X162474969Y-105123177D01*
X162474363Y-105121392D01*
X162473750Y-105119610D01*
X162473121Y-105117801D01*
X162472714Y-105116644D01*
X162472295Y-105115459D01*
X162471707Y-105113813D01*
X162471706Y-105113813D01*
X162471660Y-105113684D01*
X162471026Y-105111935D01*
X162470608Y-105110792D01*
X162470256Y-105109834D01*
X162469715Y-105108375D01*
X162469495Y-105107786D01*
X162468794Y-105105923D01*
X162468472Y-105105073D01*
X162467710Y-105103087D01*
X162467028Y-105101330D01*
X162466800Y-105100744D01*
X162465777Y-105098151D01*
X162464741Y-105095569D01*
X162464290Y-105094457D01*
X162463760Y-105093163D01*
X162463282Y-105092001D01*
X162462616Y-105090398D01*
X162461828Y-105088522D01*
X162461338Y-105087365D01*
X162460798Y-105086099D01*
X162460110Y-105084500D01*
X162459135Y-105082262D01*
X162459134Y-105082262D01*
X162459096Y-105082174D01*
X162458336Y-105080449D01*
X162457513Y-105078601D01*
X162456572Y-105076515D01*
X162456262Y-105075830D01*
X162455661Y-105074519D01*
X162455230Y-105073579D01*
X162454437Y-105071869D01*
X162453638Y-105070162D01*
X162453101Y-105069025D01*
X162452271Y-105067280D01*
X162451202Y-105065059D01*
X162450377Y-105063364D01*
X162449501Y-105061581D01*
X162448708Y-105059983D01*
X162447823Y-105058216D01*
X162447096Y-105056776D01*
X162446210Y-105055040D01*
X162445483Y-105053625D01*
X162444680Y-105052076D01*
X162444071Y-105050910D01*
X162443196Y-105049249D01*
X162442750Y-105048407D01*
X162441780Y-105046590D01*
X162440605Y-105044411D01*
X162439150Y-105041753D01*
X162438075Y-105039811D01*
X162437533Y-105038842D01*
X162436939Y-105037782D01*
X162435893Y-105035932D01*
X162434823Y-105034059D01*
X162433822Y-105032324D01*
X162432716Y-105030425D01*
X162431600Y-105028528D01*
X162430638Y-105026907D01*
X162429312Y-105024696D01*
X162427714Y-105022067D01*
X162426973Y-105020859D01*
X162426066Y-105019392D01*
X162424979Y-105017648D01*
X162423845Y-105015845D01*
X162422720Y-105014074D01*
X162421761Y-105012576D01*
X162420916Y-105011267D01*
X162419995Y-105009850D01*
X162419307Y-105008799D01*
X162418233Y-105007166D01*
X162417613Y-105006233D01*
X162416530Y-105004609D01*
X162415477Y-105003046D01*
X162414763Y-105001992D01*
X162414063Y-105000964D01*
X162413312Y-104999868D01*
X162412642Y-104998895D01*
X162411506Y-104997256D01*
X162410816Y-104996268D01*
X162409765Y-104994773D01*
X162408585Y-104993108D01*
X162408002Y-104992290D01*
X162407142Y-104991091D01*
X162407143Y-104991090D01*
X162406111Y-104989662D01*
X162405280Y-104988518D01*
X162404260Y-104987124D01*
X162403515Y-104986112D01*
X162403141Y-104985606D01*
X162402507Y-104984750D01*
X162401619Y-104983559D01*
X162400510Y-104982082D01*
X162399373Y-104980579D01*
X162398230Y-104979080D01*
X162397055Y-104977551D01*
X162396281Y-104976551D01*
X162395541Y-104975599D01*
X162394767Y-104974609D01*
X162393602Y-104973128D01*
X162392847Y-104972173D01*
X162391593Y-104970601D01*
X162390861Y-104969688D01*
X162389677Y-104968221D01*
X162388885Y-104967246D01*
X162387691Y-104965787D01*
X162386537Y-104964384D01*
X162386536Y-104964385D01*
X162386493Y-104964332D01*
X162385691Y-104963364D01*
X162384350Y-104961758D01*
X162383366Y-104960588D01*
X162382458Y-104959515D01*
X162381644Y-104958558D01*
X162381236Y-104958080D01*
X162380207Y-104956881D01*
X162379677Y-104956265D01*
X162378727Y-104955168D01*
X162377513Y-104953776D01*
X162376636Y-104952775D01*
X162375397Y-104951373D01*
X162374662Y-104950544D01*
X162373370Y-104949100D01*
X162371774Y-104947328D01*
X162370378Y-104945794D01*
X162369486Y-104944820D01*
X162367547Y-104942720D01*
X162366929Y-104942056D01*
X162366031Y-104941095D01*
X162364954Y-104939950D01*
X162363566Y-104938484D01*
X162362699Y-104937575D01*
X162361394Y-104936214D01*
X162360521Y-104935310D01*
X162359646Y-104934408D01*
X162358769Y-104933508D01*
X162357880Y-104932601D01*
X162356615Y-104931318D01*
X162356124Y-104930822D01*
X162354720Y-104929413D01*
X162353408Y-104928106D01*
X162352588Y-104927295D01*
X162351670Y-104926390D01*
X162350601Y-104925341D01*
X162349365Y-104924139D01*
X162348520Y-104923321D01*
X162347615Y-104922449D01*
X162346349Y-104921237D01*
X162345331Y-104920268D01*
X162343973Y-104918985D01*
X162342598Y-104917695D01*
X162341559Y-104916727D01*
X162340182Y-104915452D01*
X162339274Y-104914617D01*
X162337981Y-104913434D01*
X162337205Y-104912728D01*
X162335664Y-104911336D01*
X162334717Y-104910486D01*
X162333310Y-104909231D01*
X162331972Y-104908046D01*
X162330009Y-104906324D01*
X162328563Y-104905067D01*
X162328104Y-104904669D01*
X162327160Y-104903856D01*
X162326206Y-104903038D01*
X162324671Y-104901730D01*
X162323723Y-104900927D01*
X162322521Y-104899916D01*
X162321406Y-104898984D01*
X162320440Y-104898180D01*
X162318987Y-104896980D01*
X162317529Y-104895784D01*
X162316555Y-104894991D01*
X162315090Y-104893804D01*
X162314524Y-104893349D01*
X162313310Y-104892375D01*
X162311244Y-104890734D01*
X162310700Y-104890304D01*
X162309577Y-104889422D01*
X162308195Y-104888343D01*
X162306705Y-104887188D01*
X162305210Y-104886039D01*
X162303712Y-104884896D01*
X162302209Y-104883758D01*
X162300133Y-104882201D01*
X162299278Y-104881565D01*
X162297324Y-104880121D01*
X162295601Y-104878861D01*
X162294121Y-104877787D01*
X162292632Y-104876715D01*
X162291246Y-104875724D01*
X162291058Y-104875590D01*
X162289570Y-104874536D01*
X162287495Y-104873078D01*
X162285915Y-104871980D01*
X162284364Y-104870910D01*
X162283327Y-104870199D01*
X162282289Y-104869492D01*
X162281073Y-104868667D01*
X162280314Y-104868156D01*
X162278640Y-104867035D01*
X162277020Y-104865959D01*
X162275496Y-104864955D01*
X162274445Y-104864267D01*
X162272807Y-104863203D01*
X162271310Y-104862238D01*
X162270273Y-104861574D01*
X162269161Y-104860866D01*
X162268100Y-104860194D01*
X162266375Y-104859110D01*
X162265438Y-104858526D01*
X162264370Y-104857863D01*
X162263321Y-104857215D01*
X162261694Y-104856218D01*
X162260136Y-104855271D01*
X162259138Y-104854668D01*
X162257390Y-104853621D01*
X162256324Y-104852986D01*
X162255229Y-104852338D01*
X162254100Y-104851674D01*
X162252518Y-104850751D01*
X162251431Y-104850120D01*
X162249797Y-104849180D01*
X162247994Y-104848152D01*
X162245886Y-104846962D01*
X162244326Y-104846091D01*
X162243642Y-104845710D01*
X162242127Y-104844874D01*
X162240478Y-104843971D01*
X162238334Y-104842810D01*
X162237828Y-104842537D01*
X162236559Y-104841858D01*
X162235353Y-104841217D01*
X162233916Y-104840458D01*
X162232156Y-104839537D01*
X162230482Y-104838669D01*
X162228805Y-104837808D01*
X162227160Y-104836970D01*
X162225444Y-104836106D01*
X162224881Y-104835823D01*
X162223261Y-104835016D01*
X162221573Y-104834184D01*
X162219809Y-104833322D01*
X162218111Y-104832500D01*
X162215845Y-104831417D01*
X162215762Y-104831377D01*
X162214203Y-104830640D01*
X162213434Y-104830278D01*
X162211920Y-104829572D01*
X162210260Y-104828804D01*
X162208696Y-104828088D01*
X162207258Y-104827434D01*
X162205697Y-104826731D01*
X162203845Y-104825905D01*
X162202130Y-104825149D01*
X162200477Y-104824427D01*
X162198498Y-104823572D01*
X162196319Y-104822643D01*
X162195565Y-104822325D01*
X162194624Y-104821928D01*
X162192201Y-104820919D01*
X162191191Y-104820503D01*
X162189521Y-104819820D01*
X162187649Y-104819064D01*
X162186483Y-104818597D01*
X162185802Y-104818325D01*
X162184146Y-104817671D01*
X162182391Y-104816985D01*
X162180632Y-104816305D01*
X162180046Y-104816080D01*
X162178284Y-104815409D01*
X162177094Y-104814960D01*
X162174714Y-104814072D01*
X162172985Y-104813436D01*
X162171213Y-104812792D01*
X162168835Y-104811938D01*
X162167071Y-104811315D01*
X162165341Y-104810710D01*
X162164073Y-104810271D01*
X162162321Y-104809671D01*
X162160852Y-104809174D01*
X162159939Y-104808867D01*
X162158151Y-104808272D01*
X162156957Y-104807879D01*
X162155165Y-104807295D01*
X162153969Y-104806910D01*
X162152772Y-104806528D01*
X162152651Y-104806490D01*
X162152247Y-104806360D01*
X162150484Y-104805806D01*
X162149192Y-104805403D01*
X162147298Y-104804821D01*
X162145570Y-104804296D01*
X162143764Y-104803755D01*
X162141956Y-104803221D01*
X162140147Y-104802694D01*
X162138271Y-104802156D01*
X162137126Y-104801830D01*
X162135369Y-104801337D01*
X162134769Y-104801170D01*
X162132888Y-104800653D01*
X162131676Y-104800324D01*
X162131069Y-104800160D01*
X162128873Y-104799575D01*
X162126294Y-104798901D01*
X162124590Y-104798464D01*
X162124382Y-104798411D01*
X162122555Y-104797950D01*
X162120725Y-104797496D01*
X162118894Y-104797049D01*
X162117061Y-104796609D01*
X162115449Y-104796228D01*
X162113798Y-104795843D01*
X162112778Y-104795609D01*
X162111553Y-104795330D01*
X162109699Y-104794913D01*
X162108487Y-104794646D01*
X162106511Y-104794216D01*
X162105416Y-104793982D01*
X162104187Y-104793721D01*
X162102313Y-104793329D01*
X162099954Y-104792848D01*
X162097414Y-104792344D01*
X162095564Y-104791985D01*
X162093712Y-104791633D01*
X162092305Y-104791370D01*
X162090623Y-104791061D01*
X162089386Y-104790838D01*
X162087530Y-104790509D01*
X162085641Y-104790181D01*
X162082642Y-104789677D01*
X162081334Y-104789463D01*
X162080094Y-104789263D01*
X162077769Y-104788897D01*
X162074957Y-104788470D01*
X162073193Y-104788210D01*
X162072717Y-104788141D01*
X162070749Y-104787860D01*
X162070151Y-104787777D01*
X162068907Y-104787605D01*
X162066416Y-104787271D01*
X162064438Y-104787015D01*
X162063300Y-104786871D01*
X162060805Y-104786565D01*
X162058933Y-104786344D01*
X162057685Y-104786201D01*
X162055855Y-104785995D01*
X162053937Y-104785789D01*
X162052687Y-104785658D01*
X162050614Y-104785447D01*
X162048311Y-104785224D01*
X162046434Y-104785050D01*
X162044598Y-104784886D01*
X162042883Y-104784740D01*
X162042678Y-104784723D01*
X162040799Y-104784571D01*
X162039574Y-104784475D01*
X162038293Y-104784378D01*
X162036875Y-104784274D01*
X162034600Y-104784116D01*
X162032652Y-104783990D01*
X162031398Y-104783913D01*
X162030143Y-104783838D01*
X162028889Y-104783767D01*
X162026441Y-104783637D01*
X162024496Y-104783543D01*
X162023241Y-104783486D01*
X162021358Y-104783406D01*
X162019142Y-104783322D01*
X162018763Y-104783308D01*
X162017590Y-104783269D01*
X162015641Y-104783208D01*
X162013822Y-104783159D01*
X162011937Y-104783115D01*
X162010053Y-104783078D01*
X162008796Y-104783058D01*
X162006912Y-104783033D01*
X162005655Y-104783020D01*
X162004398Y-104783010D01*
X162003142Y-104783004D01*
X155462158Y-104757602D01*
X155460110Y-104757600D01*
X155458608Y-104757604D01*
X155458389Y-104757605D01*
X155455923Y-104757622D01*
X155453814Y-104757647D01*
X155452843Y-104757661D01*
X155450682Y-104757700D01*
X155449593Y-104757723D01*
X155447709Y-104757769D01*
X155445824Y-104757821D01*
X155444568Y-104757860D01*
X155442911Y-104757917D01*
X155442057Y-104757948D01*
X155440677Y-104758001D01*
X155439668Y-104758042D01*
X155438918Y-104758075D01*
X155437662Y-104758131D01*
X155435051Y-104758258D01*
X155434543Y-104758285D01*
X155433270Y-104758353D01*
X155432642Y-104758388D01*
X155430760Y-104758497D01*
X155429379Y-104758582D01*
X155426998Y-104758737D01*
X155426870Y-104758745D01*
X155425170Y-104758864D01*
X155422701Y-104759046D01*
X155420763Y-104759197D01*
X155418339Y-104759397D01*
X155416975Y-104759516D01*
X155415724Y-104759627D01*
X155414277Y-104759760D01*
X155413221Y-104759859D01*
X155412050Y-104759972D01*
X155410681Y-104760107D01*
X155408845Y-104760296D01*
X155406866Y-104760506D01*
X155405097Y-104760701D01*
X155403224Y-104760914D01*
X155401485Y-104761119D01*
X155401352Y-104761135D01*
X155400039Y-104761293D01*
X155398234Y-104761517D01*
X155396415Y-104761749D01*
X155393384Y-104762152D01*
X155393250Y-104762170D01*
X155391174Y-104762457D01*
X155389454Y-104762702D01*
X155388273Y-104762874D01*
X155387029Y-104763057D01*
X155385166Y-104763338D01*
X155383924Y-104763530D01*
X155382111Y-104763815D01*
X155380821Y-104764022D01*
X155379158Y-104764294D01*
X155377712Y-104764535D01*
X155377145Y-104764630D01*
X155375244Y-104764957D01*
X155373387Y-104765283D01*
X155371497Y-104765621D01*
X155369102Y-104766062D01*
X155368442Y-104766185D01*
X155365973Y-104766655D01*
X155363515Y-104767135D01*
X155361043Y-104767632D01*
X155359196Y-104768011D01*
X155357966Y-104768268D01*
X155355970Y-104768691D01*
X155354886Y-104768924D01*
X155352439Y-104769461D01*
X155350599Y-104769873D01*
X155348655Y-104770315D01*
X155347537Y-104770574D01*
X155345090Y-104771149D01*
X155343257Y-104771588D01*
X155342036Y-104771885D01*
X155340313Y-104772309D01*
X155338617Y-104772733D01*
X155336551Y-104773258D01*
X155334725Y-104773730D01*
X155333638Y-104774014D01*
X155332433Y-104774332D01*
X155329735Y-104775057D01*
X155329261Y-104775185D01*
X155327593Y-104775642D01*
X155325628Y-104776190D01*
X155324418Y-104776531D01*
X155322606Y-104777048D01*
X155320686Y-104777603D01*
X155317782Y-104778461D01*
X155315976Y-104779003D01*
X155314668Y-104779400D01*
X155312972Y-104779922D01*
X155311172Y-104780482D01*
X155309974Y-104780859D01*
X155308297Y-104781392D01*
X155306383Y-104782009D01*
X155303995Y-104782791D01*
X155302802Y-104783186D01*
X155301170Y-104783733D01*
X155300419Y-104783986D01*
X155299711Y-104784226D01*
X155299230Y-104784390D01*
X155298041Y-104784798D01*
X155296310Y-104785396D01*
X155295073Y-104785829D01*
X155293296Y-104786457D01*
X155291521Y-104787091D01*
X155289701Y-104787749D01*
X155288057Y-104788350D01*
X155286191Y-104789042D01*
X155285700Y-104789224D01*
X155283857Y-104789918D01*
X155283270Y-104790140D01*
X155280922Y-104791038D01*
X155279092Y-104791747D01*
X155277294Y-104792452D01*
X155275710Y-104793080D01*
X155275074Y-104793334D01*
X155273325Y-104794037D01*
X155272160Y-104794509D01*
X155269684Y-104795525D01*
X155268674Y-104795944D01*
X155266935Y-104796671D01*
X155265054Y-104797466D01*
X155262995Y-104798348D01*
X155261635Y-104798935D01*
X155260522Y-104799420D01*
X155258973Y-104800099D01*
X155257707Y-104800660D01*
X155255990Y-104801427D01*
X155255413Y-104801686D01*
X155253696Y-104802463D01*
X155251982Y-104803247D01*
X155250805Y-104803789D01*
X155249263Y-104804505D01*
X155247424Y-104805368D01*
X155245555Y-104806254D01*
X155244021Y-104806989D01*
X155242242Y-104807848D01*
X155241363Y-104808276D01*
X155239502Y-104809190D01*
X155238376Y-104809748D01*
X155237707Y-104810080D01*
X155236125Y-104810872D01*
X155235005Y-104811437D01*
X155234017Y-104811938D01*
X155233201Y-104812354D01*
X155232206Y-104812863D01*
X155230610Y-104813687D01*
X155228816Y-104814622D01*
X155227355Y-104815389D01*
X155225048Y-104816614D01*
X155223286Y-104817560D01*
X155222209Y-104818143D01*
X155220417Y-104819120D01*
X155219449Y-104819652D01*
X155217800Y-104820565D01*
X155217251Y-104820870D01*
X155215606Y-104821791D01*
X155213857Y-104822779D01*
X155211782Y-104823964D01*
X155210207Y-104824872D01*
X155207436Y-104826488D01*
X155205831Y-104827434D01*
X155204192Y-104828410D01*
X155202442Y-104829461D01*
X155201501Y-104830030D01*
X155200427Y-104830683D01*
X155198819Y-104831667D01*
X155197750Y-104832327D01*
X155196005Y-104833410D01*
X155195083Y-104833987D01*
X155192957Y-104835328D01*
X155191198Y-104836448D01*
X155190159Y-104837115D01*
X155188788Y-104838000D01*
X155188101Y-104838446D01*
X155186566Y-104839448D01*
X155185107Y-104840409D01*
X155184550Y-104840777D01*
X155182947Y-104841843D01*
X155181387Y-104842890D01*
X155179825Y-104843946D01*
X155179659Y-104844060D01*
X155178786Y-104844654D01*
X155177155Y-104845771D01*
X155176299Y-104846362D01*
X155174649Y-104847508D01*
X155173620Y-104848229D01*
X155172592Y-104848951D01*
X155171202Y-104849935D01*
X155170660Y-104850320D01*
X155169008Y-104851502D01*
X155168498Y-104851868D01*
X155166349Y-104853424D01*
X155165084Y-104854348D01*
X155163423Y-104855572D01*
X155162413Y-104856321D01*
X155161909Y-104856696D01*
X155160251Y-104857937D01*
X155158844Y-104858998D01*
X155156396Y-104860864D01*
X155154759Y-104862125D01*
X155152918Y-104863556D01*
X155152423Y-104863943D01*
X155150754Y-104865255D01*
X155148414Y-104867115D01*
X155146895Y-104868335D01*
X155145933Y-104869113D01*
X155144507Y-104870273D01*
X155144085Y-104870618D01*
X155142628Y-104871815D01*
X155141241Y-104872963D01*
X155140190Y-104873838D01*
X155139681Y-104874263D01*
X155137718Y-104875916D01*
X155137377Y-104876204D01*
X155136386Y-104877046D01*
X155134460Y-104878697D01*
X155132945Y-104880007D01*
X155132086Y-104880755D01*
X155131139Y-104881582D01*
X155130195Y-104882411D01*
X155128783Y-104883660D01*
X155127845Y-104884495D01*
X155126908Y-104885333D01*
X155126116Y-104886043D01*
X155124490Y-104887515D01*
X155123260Y-104888635D01*
X155121794Y-104889982D01*
X155120947Y-104890764D01*
X155119430Y-104892175D01*
X155119152Y-104892435D01*
X155117201Y-104894270D01*
X155115834Y-104895567D01*
X155114818Y-104896537D01*
X155113502Y-104897803D01*
X155112621Y-104898656D01*
X155111298Y-104899943D01*
X155110414Y-104900809D01*
X155109519Y-104901690D01*
X155108179Y-104903017D01*
X155106843Y-104904349D01*
X155105074Y-104906131D01*
X155103312Y-104907923D01*
X155101996Y-104909273D01*
X155100685Y-104910628D01*
X155099380Y-104911988D01*
X155098946Y-104912442D01*
X155097647Y-104913808D01*
X155096262Y-104915277D01*
X155094637Y-104917015D01*
X155093782Y-104917936D01*
X155092930Y-104918859D01*
X155091301Y-104920636D01*
X155090118Y-104921938D01*
X155089122Y-104923040D01*
X155087864Y-104924444D01*
X155087445Y-104924912D01*
X155085732Y-104926845D01*
X155084948Y-104927736D01*
X155084034Y-104928779D01*
X155082812Y-104930184D01*
X155081201Y-104932054D01*
X155080530Y-104932837D01*
X155079116Y-104934499D01*
X155078721Y-104934966D01*
X155077583Y-104936319D01*
X155076077Y-104938123D01*
X155074772Y-104939701D01*
X155073576Y-104941159D01*
X155072386Y-104942620D01*
X155071201Y-104944086D01*
X155070022Y-104945557D01*
X155069198Y-104946592D01*
X155068069Y-104948018D01*
X155066996Y-104949383D01*
X155065361Y-104951484D01*
X155064545Y-104952541D01*
X155064088Y-104953135D01*
X155063091Y-104954437D01*
X155061924Y-104955974D01*
X155060413Y-104957983D01*
X155060037Y-104958486D01*
X155058912Y-104959998D01*
X155057473Y-104961952D01*
X155056772Y-104962909D01*
X155055941Y-104964053D01*
X155055204Y-104965071D01*
X155055151Y-104965143D01*
X155054471Y-104966091D01*
X155053374Y-104967624D01*
X155052950Y-104968221D01*
X155051922Y-104969675D01*
X155050839Y-104971219D01*
X155050174Y-104972173D01*
X155048974Y-104973906D01*
X155047981Y-104975353D01*
X155046865Y-104976991D01*
X155046196Y-104977981D01*
X155045403Y-104979160D01*
X155044119Y-104981085D01*
X155043426Y-104982133D01*
X155042286Y-104983866D01*
X155041651Y-104984840D01*
X155040751Y-104986227D01*
X155040061Y-104987298D01*
X155038981Y-104988986D01*
X155038552Y-104989662D01*
X155037637Y-104991109D01*
X155036968Y-104992173D01*
X155035943Y-104993817D01*
X155034930Y-104995455D01*
X155033993Y-104996983D01*
X155033641Y-104997561D01*
X155032938Y-104998719D01*
X155032044Y-105000200D01*
X155032030Y-105000191D01*
X155031999Y-105000277D01*
X155031395Y-105001285D01*
X155030752Y-105002365D01*
X155029793Y-105003988D01*
X155028840Y-105005614D01*
X155027893Y-105007244D01*
X155026952Y-105008877D01*
X155025923Y-105010680D01*
X155024781Y-105012702D01*
X155024456Y-105013283D01*
X155023829Y-105014404D01*
X155023251Y-105015446D01*
X155022544Y-105016728D01*
X155021832Y-105018026D01*
X155020547Y-105020395D01*
X155019649Y-105022070D01*
X155018762Y-105023739D01*
X155018178Y-105024846D01*
X155017886Y-105025402D01*
X155017014Y-105027073D01*
X155016148Y-105028747D01*
X155015288Y-105030425D01*
X155014689Y-105031605D01*
X155014212Y-105032547D01*
X155013307Y-105034352D01*
X155013027Y-105034914D01*
X155012191Y-105036603D01*
X155011611Y-105037782D01*
X155010767Y-105039515D01*
X155010224Y-105040639D01*
X155009720Y-105041690D01*
X155008985Y-105043231D01*
X155007794Y-105045758D01*
X155006860Y-105047767D01*
X155005731Y-105050229D01*
X155005470Y-105050800D01*
X155004694Y-105052518D01*
X155003924Y-105054239D01*
X155003414Y-105055387D01*
X155002737Y-105056924D01*
X155002147Y-105058276D01*
X155001723Y-105059256D01*
X155000567Y-105061950D01*
X154999985Y-105063328D01*
X154999441Y-105064622D01*
X154998717Y-105066362D01*
X154998434Y-105067045D01*
X154997708Y-105068818D01*
X154997058Y-105070420D01*
X154996362Y-105072155D01*
X154995923Y-105073255D01*
X154995424Y-105074519D01*
X154994575Y-105076691D01*
X154994057Y-105078032D01*
X154993607Y-105079206D01*
X154992938Y-105080968D01*
X154992276Y-105082732D01*
X154991838Y-105083910D01*
X154991197Y-105085650D01*
X154990469Y-105087648D01*
X154989861Y-105089341D01*
X154989078Y-105091549D01*
X154989079Y-105091549D01*
X154989063Y-105091593D01*
X154988388Y-105093520D01*
X154987790Y-105095253D01*
X154987040Y-105097456D01*
X154986596Y-105098774D01*
X154986216Y-105099915D01*
X154985624Y-105101705D01*
X154985040Y-105103497D01*
X154984654Y-105104693D01*
X154984071Y-105106520D01*
X154983452Y-105108487D01*
X154982955Y-105110087D01*
X154982586Y-105111287D01*
X154982038Y-105113091D01*
X154981676Y-105114295D01*
X154981275Y-105115645D01*
X154980609Y-105117911D01*
X154980289Y-105119016D01*
X154979913Y-105120326D01*
X154979570Y-105121534D01*
X154979229Y-105122744D01*
X154978714Y-105124594D01*
X154978286Y-105126155D01*
X154977735Y-105128198D01*
X154977411Y-105129412D01*
X154976820Y-105131662D01*
X154976303Y-105133668D01*
X154976147Y-105134277D01*
X154975686Y-105136105D01*
X154975533Y-105136714D01*
X154975081Y-105138544D01*
X154974783Y-105139765D01*
X154974197Y-105142209D01*
X154973909Y-105143432D01*
X154973587Y-105144811D01*
X154973201Y-105146493D01*
X154972786Y-105148331D01*
X154972377Y-105150172D01*
X154971882Y-105152444D01*
X154971427Y-105154583D01*
X154971089Y-105156200D01*
X154971090Y-105156200D01*
X154970813Y-105157547D01*
X154970577Y-105158710D01*
X154970295Y-105160115D01*
X154969952Y-105161860D01*
X154969594Y-105163711D01*
X154969244Y-105165563D01*
X154969128Y-105166181D01*
X154968787Y-105168035D01*
X154968564Y-105169271D01*
X154968343Y-105170508D01*
X154968122Y-105171769D01*
X154967828Y-105173477D01*
X154967596Y-105174843D01*
X154967306Y-105176593D01*
X154966983Y-105178580D01*
X154966793Y-105179781D01*
X154966594Y-105181049D01*
X154966205Y-105183606D01*
X154966054Y-105184621D01*
X154965746Y-105186741D01*
X154965577Y-105187934D01*
X154965411Y-105189127D01*
X154965235Y-105190407D01*
X154965156Y-105190995D01*
X154964990Y-105192241D01*
X154964668Y-105194733D01*
X154964512Y-105195980D01*
X154964358Y-105197227D01*
X154964157Y-105198899D01*
X154963932Y-105200840D01*
X154963727Y-105202662D01*
X154963492Y-105204831D01*
X154963453Y-105205195D01*
X154963242Y-105207249D01*
X154963169Y-105207972D01*
X154962998Y-105209719D01*
X154962879Y-105210970D01*
X154962704Y-105212880D01*
X154962591Y-105214161D01*
X154962447Y-105215833D01*
X154962282Y-105217856D01*
X154962136Y-105219735D01*
X154961997Y-105221615D01*
X154961864Y-105223496D01*
X154961710Y-105225821D01*
X154961699Y-105226003D01*
X154961577Y-105227994D01*
X154961472Y-105229822D01*
X154961372Y-105231689D01*
X154961310Y-105232904D01*
X154961192Y-105235414D01*
X154961112Y-105237298D01*
X154961087Y-105237925D01*
X154961039Y-105239181D01*
X154960971Y-105241139D01*
X154960912Y-105243051D01*
X154960879Y-105244211D01*
X154960836Y-105245933D01*
X154960833Y-105246089D01*
X154960805Y-105247346D01*
X154960767Y-105249408D01*
X154960740Y-105251230D01*
X154960711Y-105254257D01*
X154960703Y-105255620D01*
X154960700Y-105257398D01*
X154960701Y-105258655D01*
X154998804Y-123318959D01*
X154998815Y-123320844D01*
X154998826Y-123322100D01*
X154998840Y-123323357D01*
X154998870Y-123325354D01*
X154998888Y-123326438D01*
X154998944Y-123329011D01*
X154998993Y-123330895D01*
X154999049Y-123332779D01*
X154999090Y-123334035D01*
X154999120Y-123334897D01*
X154999182Y-123336547D01*
X154999259Y-123338430D01*
X154999367Y-123340828D01*
X154999465Y-123342783D01*
X154999562Y-123344609D01*
X154999563Y-123344609D01*
X154999568Y-123344705D01*
X154999639Y-123345960D01*
X154999714Y-123347215D01*
X154999826Y-123349021D01*
X154999899Y-123350142D01*
X155000087Y-123352857D01*
X155000134Y-123353493D01*
X155000218Y-123354636D01*
X155000274Y-123355363D01*
X155000422Y-123357242D01*
X155000473Y-123357869D01*
X155000577Y-123359121D01*
X155000795Y-123361625D01*
X155000967Y-123363502D01*
X155001161Y-123365536D01*
X155001256Y-123366502D01*
X155001378Y-123367713D01*
X155001635Y-123370181D01*
X155001725Y-123371003D01*
X155001862Y-123372253D01*
X155002074Y-123374126D01*
X155002219Y-123375374D01*
X155002367Y-123376622D01*
X155002654Y-123378967D01*
X155002911Y-123380986D01*
X155003156Y-123382855D01*
X155003470Y-123385181D01*
X155003659Y-123386542D01*
X155003738Y-123387105D01*
X155003932Y-123388456D01*
X155004205Y-123390322D01*
X155004485Y-123392186D01*
X155004772Y-123394049D01*
X155004967Y-123395290D01*
X155005283Y-123397258D01*
X155005463Y-123398354D01*
X155005753Y-123400099D01*
X155006076Y-123401989D01*
X155006284Y-123403189D01*
X155006634Y-123405167D01*
X155006635Y-123405167D01*
X155006864Y-123406439D01*
X155007205Y-123408293D01*
X155007436Y-123409528D01*
X155007788Y-123411380D01*
X155008039Y-123412678D01*
X155008639Y-123415702D01*
X155008860Y-123416797D01*
X155009267Y-123418773D01*
X155009785Y-123421233D01*
X155010282Y-123423538D01*
X155010685Y-123425371D01*
X155011134Y-123427369D01*
X155011412Y-123428595D01*
X155011694Y-123429819D01*
X155012123Y-123431655D01*
X155012559Y-123433489D01*
X155012853Y-123434710D01*
X155013300Y-123436542D01*
X155013602Y-123437761D01*
X155014061Y-123439590D01*
X155014527Y-123441416D01*
X155014808Y-123442506D01*
X155015275Y-123444296D01*
X155015318Y-123444457D01*
X155015802Y-123446278D01*
X155016128Y-123447492D01*
X155016624Y-123449311D01*
X155016965Y-123450547D01*
X155017329Y-123451855D01*
X155017781Y-123453461D01*
X155017782Y-123453461D01*
X155017806Y-123453547D01*
X155018324Y-123455359D01*
X155018849Y-123457170D01*
X155019381Y-123458978D01*
X155019920Y-123460784D01*
X155020283Y-123461987D01*
X155020465Y-123462589D01*
X155021013Y-123464376D01*
X155021226Y-123465067D01*
X155021765Y-123466791D01*
X155021980Y-123467474D01*
X155022317Y-123468540D01*
X155022524Y-123469186D01*
X155022715Y-123469785D01*
X155023295Y-123471579D01*
X155023489Y-123472176D01*
X155024078Y-123473967D01*
X155024275Y-123474563D01*
X155025046Y-123476866D01*
X155025439Y-123478024D01*
X155025669Y-123478703D01*
X155026066Y-123479860D01*
X155026924Y-123482330D01*
X155027540Y-123484074D01*
X155027539Y-123484074D01*
X155027960Y-123485255D01*
X155028172Y-123485847D01*
X155028812Y-123487620D01*
X155029458Y-123489391D01*
X155029952Y-123490728D01*
X155030331Y-123491748D01*
X155030993Y-123493512D01*
X155031438Y-123494688D01*
X155032102Y-123496424D01*
X155032571Y-123497640D01*
X155033019Y-123498792D01*
X155033478Y-123499962D01*
X155033880Y-123500982D01*
X155034636Y-123502882D01*
X155035105Y-123504048D01*
X155035577Y-123505213D01*
X155035813Y-123505795D01*
X155036528Y-123507539D01*
X155037250Y-123509280D01*
X155037721Y-123510405D01*
X155038400Y-123512021D01*
X155038401Y-123512021D01*
X155039206Y-123513910D01*
X155039454Y-123514488D01*
X155040202Y-123516218D01*
X155040956Y-123517945D01*
X155041463Y-123519095D01*
X155041725Y-123519689D01*
X155042681Y-123521829D01*
X155043427Y-123523486D01*
X155044038Y-123524826D01*
X155044562Y-123525969D01*
X155045353Y-123527680D01*
X155045884Y-123528819D01*
X155046686Y-123530525D01*
X155046954Y-123531093D01*
X155048036Y-123533361D01*
X155048866Y-123535082D01*
X155049680Y-123536754D01*
X155050512Y-123538445D01*
X155051350Y-123540134D01*
X155052194Y-123541819D01*
X155052761Y-123542941D01*
X155053330Y-123544061D01*
X155054189Y-123545739D01*
X155055055Y-123547413D01*
X155055635Y-123548528D01*
X155056805Y-123550752D01*
X155057375Y-123551826D01*
X155057944Y-123552895D01*
X155058345Y-123553643D01*
X155059129Y-123555095D01*
X155060078Y-123556840D01*
X155060940Y-123558411D01*
X155061876Y-123560100D01*
X155063186Y-123562441D01*
X155064002Y-123563884D01*
X155064677Y-123565066D01*
X155065615Y-123566701D01*
X155066210Y-123567731D01*
X155066827Y-123568793D01*
X155067113Y-123569283D01*
X155068392Y-123571460D01*
X155068787Y-123572125D01*
X155069429Y-123573205D01*
X155070398Y-123574821D01*
X155071373Y-123576435D01*
X155072354Y-123578044D01*
X155073341Y-123579650D01*
X155074335Y-123581252D01*
X155075000Y-123582318D01*
X155076003Y-123583914D01*
X155076676Y-123584976D01*
X155077350Y-123586036D01*
X155078630Y-123588030D01*
X155079704Y-123589688D01*
X155080420Y-123590785D01*
X155081109Y-123591835D01*
X155082120Y-123593366D01*
X155082496Y-123593932D01*
X155083193Y-123594977D01*
X155084316Y-123596649D01*
X155084948Y-123597583D01*
X155085301Y-123598103D01*
X155086347Y-123599634D01*
X155086961Y-123600530D01*
X155088224Y-123602355D01*
X155088840Y-123603239D01*
X155089587Y-123604306D01*
X155090310Y-123605333D01*
X155091400Y-123606871D01*
X155092464Y-123608361D01*
X155092768Y-123608785D01*
X155094296Y-123610898D01*
X155094994Y-123611857D01*
X155095849Y-123613026D01*
X155097665Y-123615482D01*
X155097666Y-123615482D01*
X155098689Y-123616853D01*
X155100300Y-123618990D01*
X155100608Y-123619396D01*
X155101906Y-123621098D01*
X155102999Y-123622518D01*
X155103768Y-123623512D01*
X155104539Y-123624504D01*
X155104870Y-123624928D01*
X155105684Y-123625967D01*
X155107189Y-123627872D01*
X155107650Y-123628452D01*
X155108827Y-123629924D01*
X155109615Y-123630903D01*
X155110405Y-123631880D01*
X155110801Y-123632368D01*
X155111595Y-123633342D01*
X155112790Y-123634800D01*
X155114726Y-123637137D01*
X155115568Y-123638144D01*
X155116738Y-123639536D01*
X155117626Y-123640584D01*
X155118033Y-123641063D01*
X155118849Y-123642019D01*
X155120077Y-123643449D01*
X155121310Y-123644874D01*
X155122068Y-123645744D01*
X155123305Y-123647158D01*
X155124626Y-123648653D01*
X155125460Y-123649592D01*
X155126680Y-123650956D01*
X155127556Y-123651931D01*
X155129246Y-123653793D01*
X155130093Y-123654721D01*
X155130943Y-123655646D01*
X155132313Y-123657129D01*
X155133010Y-123657878D01*
X155134366Y-123659327D01*
X155135659Y-123660699D01*
X155136514Y-123661599D01*
X155137391Y-123662520D01*
X155138261Y-123663427D01*
X155139476Y-123664687D01*
X155140856Y-123666108D01*
X155141153Y-123666413D01*
X155142568Y-123667854D01*
X155143918Y-123669220D01*
X155144805Y-123670112D01*
X155145599Y-123670906D01*
X155147081Y-123672378D01*
X155147527Y-123672820D01*
X155148871Y-123674141D01*
X155149433Y-123674692D01*
X155151180Y-123676389D01*
X155151574Y-123676770D01*
X155152448Y-123677611D01*
X155153774Y-123678881D01*
X155155208Y-123680242D01*
X155156493Y-123681453D01*
X155157594Y-123682486D01*
X155159338Y-123684105D01*
X155160725Y-123685382D01*
X155162116Y-123686654D01*
X155163046Y-123687499D01*
X155164445Y-123688762D01*
X155165831Y-123690005D01*
X155167198Y-123691219D01*
X155168106Y-123692022D01*
X155169589Y-123693324D01*
X155170981Y-123694538D01*
X155171987Y-123695409D01*
X155172939Y-123696229D01*
X155174371Y-123697455D01*
X155175254Y-123698206D01*
X155176768Y-123699486D01*
X155177730Y-123700294D01*
X155179212Y-123701531D01*
X155180629Y-123702704D01*
X155181600Y-123703502D01*
X155182500Y-123704239D01*
X155183935Y-123705408D01*
X155184462Y-123705834D01*
X155185991Y-123707065D01*
X155186997Y-123707870D01*
X155188455Y-123709029D01*
X155189928Y-123710190D01*
X155190917Y-123710965D01*
X155192901Y-123712507D01*
X155194395Y-123713658D01*
X155195393Y-123714422D01*
X155196504Y-123715268D01*
X155197229Y-123715818D01*
X155199403Y-123717452D01*
X155200410Y-123718203D01*
X155202400Y-123719675D01*
X155203051Y-123720154D01*
X155204000Y-123720848D01*
X155205476Y-123721921D01*
X155207004Y-123723024D01*
X155208515Y-123724106D01*
X155209561Y-123724849D01*
X155211101Y-123725937D01*
X155212139Y-123726665D01*
X155212694Y-123727053D01*
X155214286Y-123728159D01*
X155215748Y-123729167D01*
X155216706Y-123729823D01*
X155218332Y-123730930D01*
X155219380Y-123731638D01*
X155220489Y-123732383D01*
X155223038Y-123734080D01*
X155224320Y-123734924D01*
X155225665Y-123735804D01*
X155227130Y-123736757D01*
X155227773Y-123737172D01*
X155642644Y-124004780D01*
X155598039Y-128281888D01*
X155536287Y-128343640D01*
X155512583Y-128361830D01*
X155456881Y-128423046D01*
X155438550Y-128441376D01*
X155419831Y-128463763D01*
X155362357Y-128526926D01*
X155348361Y-128549239D01*
X155331447Y-128569469D01*
X155289116Y-128643683D01*
X155243741Y-128716018D01*
X155233916Y-128740459D01*
X155220854Y-128763359D01*
X155192337Y-128843890D01*
X155160486Y-128923121D01*
X155155142Y-128948924D01*
X155146343Y-128973773D01*
X155132540Y-129058065D01*
X155115221Y-129141700D01*
X155113251Y-129175855D01*
X155110272Y-129194050D01*
X155111901Y-129297747D01*
X155111900Y-132247826D01*
X151450227Y-135909500D01*
X147832298Y-135909500D01*
X147783437Y-135886716D01*
X147555291Y-135825584D01*
X147320000Y-135804999D01*
X147084709Y-135825584D01*
X146856561Y-135886717D01*
X146642500Y-135986536D01*
X146449023Y-136122010D01*
X146282010Y-136289023D01*
X146050000Y-136620369D01*
X145817990Y-136289023D01*
X145650977Y-136122010D01*
X145457500Y-135986536D01*
X145441968Y-135979293D01*
X145243437Y-135886716D01*
X145015291Y-135825584D01*
X144780000Y-135804999D01*
X144544709Y-135825584D01*
X144316561Y-135886717D01*
X144102500Y-135986536D01*
X143909023Y-136122010D01*
X143742010Y-136289023D01*
X143510000Y-136620369D01*
X143277989Y-136289022D01*
X143110980Y-136122013D01*
X142917498Y-135986535D01*
X142703438Y-135886716D01*
X142490000Y-135829526D01*
X142489999Y-138490475D01*
X142703439Y-138433283D01*
X142917498Y-138333465D01*
X143110980Y-138197987D01*
X143277989Y-138030978D01*
X143510000Y-137699631D01*
X143742010Y-138030977D01*
X143909023Y-138197990D01*
X144102502Y-138333465D01*
X144316563Y-138433284D01*
X144544709Y-138494416D01*
X144780000Y-138515001D01*
X145015291Y-138494416D01*
X145243437Y-138433284D01*
X145457500Y-138333464D01*
X145650977Y-138197990D01*
X145817990Y-138030977D01*
X146050000Y-137699631D01*
X146282010Y-138030977D01*
X146449023Y-138197990D01*
X146642502Y-138333465D01*
X146856563Y-138433284D01*
X147084709Y-138494416D01*
X147320000Y-138515001D01*
X147555291Y-138494416D01*
X147783437Y-138433284D01*
X147832298Y-138410500D01*
X151886017Y-138410500D01*
X151915627Y-138414398D01*
X151998281Y-138410500D01*
X152024225Y-138410500D01*
X152053298Y-138407905D01*
X152138590Y-138403883D01*
X152142623Y-138402959D01*
X152164271Y-138398003D01*
X152190530Y-138395658D01*
X152272927Y-138373117D01*
X152356169Y-138354052D01*
X152380407Y-138343714D01*
X152405832Y-138336758D01*
X152482936Y-138299981D01*
X152561487Y-138266477D01*
X152583518Y-138252006D01*
X152607302Y-138240662D01*
X152676666Y-138190818D01*
X152748051Y-138143927D01*
X152773603Y-138121162D01*
X152788570Y-138110407D01*
X152860724Y-138035950D01*
X155309250Y-135587424D01*
X155370573Y-135553939D01*
X155440265Y-135558923D01*
X155496198Y-135600795D01*
X155520924Y-135676397D01*
X155473400Y-140233400D01*
X104775000Y-140233400D01*
X104775000Y-136310000D01*
X107865000Y-136310000D01*
X107865000Y-138010001D01*
X107910635Y-138219784D01*
X107988347Y-138340707D01*
X108096976Y-138434833D01*
X108227724Y-138494544D01*
X108370000Y-138515000D01*
X110070001Y-138515000D01*
X110279784Y-138469365D01*
X110400707Y-138391653D01*
X110494833Y-138283024D01*
X110554544Y-138152275D01*
X110555589Y-138145009D01*
X110584614Y-138081453D01*
X110643392Y-138043679D01*
X110713262Y-138043679D01*
X110766008Y-138074975D01*
X110889023Y-138197990D01*
X111082502Y-138333465D01*
X111296563Y-138433284D01*
X111524709Y-138494416D01*
X111760000Y-138515001D01*
X111995291Y-138494416D01*
X112223437Y-138433284D01*
X112437500Y-138333464D01*
X112630977Y-138197990D01*
X112797990Y-138030977D01*
X113030000Y-137699631D01*
X113262010Y-138030977D01*
X113429023Y-138197990D01*
X113622502Y-138333465D01*
X113836563Y-138433284D01*
X114064709Y-138494416D01*
X114300000Y-138515001D01*
X114535291Y-138494416D01*
X114763437Y-138433284D01*
X114977500Y-138333464D01*
X115170977Y-138197990D01*
X115337990Y-138030977D01*
X115570000Y-137699631D01*
X115802010Y-138030977D01*
X115969023Y-138197990D01*
X116162502Y-138333465D01*
X116376563Y-138433284D01*
X116604709Y-138494416D01*
X116840000Y-138515001D01*
X117075291Y-138494416D01*
X117303437Y-138433284D01*
X117517500Y-138333464D01*
X117710977Y-138197990D01*
X117877990Y-138030977D01*
X118110000Y-137699631D01*
X118342010Y-138030977D01*
X118509023Y-138197990D01*
X118702502Y-138333465D01*
X118916563Y-138433284D01*
X119144709Y-138494416D01*
X119380000Y-138515001D01*
X119615291Y-138494416D01*
X119843437Y-138433284D01*
X120057500Y-138333464D01*
X120250977Y-138197990D01*
X120417990Y-138030977D01*
X120650000Y-137699631D01*
X120882010Y-138030977D01*
X121049023Y-138197990D01*
X121242502Y-138333465D01*
X121456563Y-138433284D01*
X121684709Y-138494416D01*
X121920000Y-138515001D01*
X122155291Y-138494416D01*
X122383437Y-138433284D01*
X122597500Y-138333464D01*
X122790977Y-138197990D01*
X122957990Y-138030977D01*
X123190000Y-137699631D01*
X123422010Y-138030977D01*
X123589023Y-138197990D01*
X123782502Y-138333465D01*
X123996563Y-138433284D01*
X124224709Y-138494416D01*
X124460000Y-138515001D01*
X124695291Y-138494416D01*
X124923437Y-138433284D01*
X125137500Y-138333464D01*
X125330977Y-138197990D01*
X125497990Y-138030977D01*
X125730000Y-137699631D01*
X125962010Y-138030977D01*
X126129023Y-138197990D01*
X126322502Y-138333465D01*
X126536563Y-138433284D01*
X126764709Y-138494416D01*
X127000000Y-138515001D01*
X127235291Y-138494416D01*
X127463437Y-138433284D01*
X127677500Y-138333464D01*
X127870977Y-138197990D01*
X128037990Y-138030977D01*
X128270000Y-137699631D01*
X128502010Y-138030977D01*
X128669023Y-138197990D01*
X128862502Y-138333465D01*
X129076563Y-138433284D01*
X129304709Y-138494416D01*
X129540000Y-138515001D01*
X129775291Y-138494416D01*
X130003437Y-138433284D01*
X130217500Y-138333464D01*
X130410977Y-138197990D01*
X130577990Y-138030977D01*
X130810000Y-137699631D01*
X131042010Y-138030977D01*
X131209023Y-138197990D01*
X131402502Y-138333465D01*
X131616563Y-138433284D01*
X131844709Y-138494416D01*
X132080000Y-138515001D01*
X132315291Y-138494416D01*
X132543437Y-138433284D01*
X132757500Y-138333464D01*
X132950977Y-138197990D01*
X133117990Y-138030977D01*
X133350000Y-137699631D01*
X133582010Y-138030977D01*
X133749023Y-138197990D01*
X133942502Y-138333465D01*
X134156563Y-138433284D01*
X134384709Y-138494416D01*
X134620000Y-138515001D01*
X134855291Y-138494416D01*
X135083437Y-138433284D01*
X135297500Y-138333464D01*
X135490977Y-138197990D01*
X135657990Y-138030977D01*
X135890000Y-137699631D01*
X136122010Y-138030977D01*
X136289023Y-138197990D01*
X136482502Y-138333465D01*
X136696563Y-138433284D01*
X136924709Y-138494416D01*
X137160000Y-138515001D01*
X137395291Y-138494416D01*
X137623437Y-138433284D01*
X137837500Y-138333464D01*
X138030977Y-138197990D01*
X138197990Y-138030977D01*
X138430000Y-137699631D01*
X138662010Y-138030977D01*
X138829023Y-138197990D01*
X139022502Y-138333465D01*
X139236563Y-138433284D01*
X139464709Y-138494416D01*
X139700000Y-138515001D01*
X139935291Y-138494416D01*
X140163437Y-138433284D01*
X140377500Y-138333464D01*
X140570977Y-138197990D01*
X140737990Y-138030977D01*
X140970000Y-137699631D01*
X141202011Y-138030978D01*
X141369020Y-138197987D01*
X141562502Y-138333465D01*
X141776562Y-138433284D01*
X141990000Y-138490474D01*
X141990001Y-135829525D01*
X141776561Y-135886717D01*
X141562502Y-135986535D01*
X141369020Y-136122013D01*
X141202011Y-136289022D01*
X140970000Y-136620369D01*
X140737990Y-136289023D01*
X140570977Y-136122010D01*
X140377500Y-135986536D01*
X140361968Y-135979293D01*
X140163437Y-135886716D01*
X139935291Y-135825584D01*
X139700000Y-135804999D01*
X139464709Y-135825584D01*
X139236561Y-135886717D01*
X139022500Y-135986536D01*
X138829023Y-136122010D01*
X138662010Y-136289023D01*
X138430000Y-136620369D01*
X138197990Y-136289023D01*
X138030977Y-136122010D01*
X137837500Y-135986536D01*
X137821968Y-135979293D01*
X137623437Y-135886716D01*
X137395291Y-135825584D01*
X137160000Y-135804999D01*
X136924709Y-135825584D01*
X136696561Y-135886717D01*
X136482500Y-135986536D01*
X136289023Y-136122010D01*
X136122010Y-136289023D01*
X135890000Y-136620369D01*
X135657990Y-136289023D01*
X135490977Y-136122010D01*
X135297500Y-135986536D01*
X135281968Y-135979293D01*
X135083437Y-135886716D01*
X134855291Y-135825584D01*
X134620000Y-135804999D01*
X134384709Y-135825584D01*
X134156561Y-135886717D01*
X133942500Y-135986536D01*
X133749023Y-136122010D01*
X133582010Y-136289023D01*
X133350000Y-136620369D01*
X133117990Y-136289023D01*
X132950977Y-136122010D01*
X132757500Y-135986536D01*
X132741968Y-135979293D01*
X132543437Y-135886716D01*
X132315291Y-135825584D01*
X132080000Y-135804999D01*
X131844709Y-135825584D01*
X131616561Y-135886717D01*
X131402500Y-135986536D01*
X131209023Y-136122010D01*
X131042010Y-136289023D01*
X130810000Y-136620369D01*
X130577990Y-136289023D01*
X130410977Y-136122010D01*
X130217500Y-135986536D01*
X130201968Y-135979293D01*
X130003437Y-135886716D01*
X129775291Y-135825584D01*
X129540000Y-135804999D01*
X129304709Y-135825584D01*
X129076561Y-135886717D01*
X128862500Y-135986536D01*
X128669023Y-136122010D01*
X128502010Y-136289023D01*
X128270000Y-136620369D01*
X128037990Y-136289023D01*
X127870977Y-136122010D01*
X127677500Y-135986536D01*
X127661968Y-135979293D01*
X127463437Y-135886716D01*
X127235291Y-135825584D01*
X127000000Y-135804999D01*
X126764709Y-135825584D01*
X126536561Y-135886717D01*
X126322500Y-135986536D01*
X126129023Y-136122010D01*
X125962010Y-136289023D01*
X125730000Y-136620369D01*
X125497990Y-136289023D01*
X125330977Y-136122010D01*
X125137500Y-135986536D01*
X125121968Y-135979293D01*
X124923437Y-135886716D01*
X124695291Y-135825584D01*
X124460000Y-135804999D01*
X124224709Y-135825584D01*
X123996561Y-135886717D01*
X123782500Y-135986536D01*
X123589023Y-136122010D01*
X123422010Y-136289023D01*
X123190000Y-136620369D01*
X122957990Y-136289023D01*
X122790977Y-136122010D01*
X122597500Y-135986536D01*
X122581968Y-135979293D01*
X122383437Y-135886716D01*
X122155291Y-135825584D01*
X121920000Y-135804999D01*
X121684709Y-135825584D01*
X121456561Y-135886717D01*
X121242500Y-135986536D01*
X121049023Y-136122010D01*
X120882010Y-136289023D01*
X120650000Y-136620369D01*
X120417990Y-136289023D01*
X120250977Y-136122010D01*
X120057500Y-135986536D01*
X120041968Y-135979293D01*
X119843437Y-135886716D01*
X119615291Y-135825584D01*
X119380000Y-135804999D01*
X119144709Y-135825584D01*
X118916561Y-135886717D01*
X118702500Y-135986536D01*
X118509023Y-136122010D01*
X118342010Y-136289023D01*
X118110000Y-136620369D01*
X117877990Y-136289023D01*
X117710977Y-136122010D01*
X117517500Y-135986536D01*
X117501968Y-135979293D01*
X117303437Y-135886716D01*
X117075291Y-135825584D01*
X116840000Y-135804999D01*
X116604709Y-135825584D01*
X116376561Y-135886717D01*
X116162500Y-135986536D01*
X115969023Y-136122010D01*
X115802010Y-136289023D01*
X115570000Y-136620369D01*
X115337990Y-136289023D01*
X115170977Y-136122010D01*
X114977500Y-135986536D01*
X114961968Y-135979293D01*
X114763437Y-135886716D01*
X114535291Y-135825584D01*
X114300000Y-135804999D01*
X114064709Y-135825584D01*
X113836561Y-135886717D01*
X113622500Y-135986536D01*
X113429023Y-136122010D01*
X113262010Y-136289023D01*
X113030000Y-136620369D01*
X112797990Y-136289023D01*
X112630977Y-136122010D01*
X112437500Y-135986536D01*
X112421968Y-135979293D01*
X112223437Y-135886716D01*
X111995291Y-135825584D01*
X111760000Y-135804999D01*
X111524709Y-135825584D01*
X111296561Y-135886717D01*
X111082500Y-135986536D01*
X110889023Y-136122010D01*
X110758094Y-136252939D01*
X110696771Y-136286424D01*
X110627079Y-136281440D01*
X110571146Y-136239568D01*
X110549247Y-136191615D01*
X110529365Y-136100216D01*
X110451653Y-135979293D01*
X110343024Y-135885167D01*
X110212276Y-135825456D01*
X110070000Y-135805000D01*
X108369999Y-135805000D01*
X108160216Y-135850635D01*
X108039293Y-135928347D01*
X107945167Y-136036976D01*
X107885456Y-136167724D01*
X107865000Y-136310000D01*
X104775000Y-136310000D01*
X104775000Y-134272283D01*
X104791816Y-134226701D01*
X104801870Y-134200511D01*
X104870345Y-133882453D01*
X104876611Y-133855099D01*
X104897858Y-133555017D01*
X104900500Y-133538045D01*
X104900500Y-133517692D01*
X104901716Y-133500519D01*
X104900500Y-133483540D01*
X104900500Y-133354880D01*
X105109999Y-133385000D01*
X106670001Y-133385000D01*
X106879784Y-133339365D01*
X107000707Y-133261653D01*
X107094833Y-133153024D01*
X107154544Y-133022276D01*
X107171027Y-132907632D01*
X107200052Y-132844077D01*
X107258830Y-132806302D01*
X107328699Y-132806302D01*
X107395338Y-132854154D01*
X107445633Y-132925982D01*
X107604018Y-133084367D01*
X107787500Y-133212843D01*
X107990504Y-133307505D01*
X108206864Y-133365479D01*
X108430000Y-133385001D01*
X108653136Y-133365479D01*
X108869496Y-133307505D01*
X109072500Y-133212843D01*
X109255982Y-133084367D01*
X109414367Y-132925982D01*
X109542843Y-132742500D01*
X109587618Y-132646479D01*
X109633790Y-132594040D01*
X109700984Y-132574888D01*
X109767865Y-132595104D01*
X109812382Y-132646479D01*
X109857157Y-132742500D01*
X109985633Y-132925982D01*
X110144018Y-133084367D01*
X110327500Y-133212843D01*
X110530504Y-133307505D01*
X110746864Y-133365479D01*
X110970000Y-133385001D01*
X111193136Y-133365479D01*
X111409496Y-133307505D01*
X111612500Y-133212843D01*
X111795982Y-133084367D01*
X111954367Y-132925982D01*
X112082843Y-132742500D01*
X112127618Y-132646479D01*
X112173790Y-132594040D01*
X112240984Y-132574888D01*
X112307865Y-132595104D01*
X112352382Y-132646479D01*
X112397157Y-132742500D01*
X112525633Y-132925982D01*
X112684018Y-133084367D01*
X112867500Y-133212843D01*
X113070504Y-133307505D01*
X113286864Y-133365479D01*
X113510000Y-133385001D01*
X113733136Y-133365479D01*
X113949496Y-133307505D01*
X114152500Y-133212843D01*
X114335982Y-133084367D01*
X114494367Y-132925982D01*
X114622843Y-132742500D01*
X114667618Y-132646479D01*
X114713790Y-132594040D01*
X114780984Y-132574888D01*
X114847865Y-132595104D01*
X114892382Y-132646479D01*
X114937157Y-132742500D01*
X115065633Y-132925982D01*
X115224018Y-133084367D01*
X115407500Y-133212843D01*
X115610504Y-133307505D01*
X115826864Y-133365479D01*
X116050000Y-133385001D01*
X116273136Y-133365479D01*
X116489496Y-133307505D01*
X116692500Y-133212843D01*
X116875982Y-133084367D01*
X117034367Y-132925982D01*
X117162843Y-132742500D01*
X117207618Y-132646479D01*
X117253790Y-132594040D01*
X117320984Y-132574888D01*
X117387865Y-132595104D01*
X117432382Y-132646479D01*
X117477157Y-132742500D01*
X117605633Y-132925982D01*
X117764018Y-133084367D01*
X117947500Y-133212843D01*
X118150504Y-133307505D01*
X118366864Y-133365479D01*
X118590000Y-133385001D01*
X118813136Y-133365479D01*
X119029496Y-133307505D01*
X119232500Y-133212843D01*
X119415982Y-133084367D01*
X119574367Y-132925982D01*
X119702843Y-132742500D01*
X119747618Y-132646479D01*
X119793790Y-132594040D01*
X119860984Y-132574888D01*
X119927865Y-132595104D01*
X119972382Y-132646479D01*
X120017157Y-132742500D01*
X120145633Y-132925982D01*
X120304018Y-133084367D01*
X120487500Y-133212843D01*
X120690504Y-133307505D01*
X120906864Y-133365479D01*
X121130000Y-133385001D01*
X121353136Y-133365479D01*
X121569496Y-133307505D01*
X121772500Y-133212843D01*
X121955982Y-133084367D01*
X122114367Y-132925982D01*
X122242843Y-132742500D01*
X122287618Y-132646479D01*
X122333790Y-132594040D01*
X122400984Y-132574888D01*
X122467865Y-132595104D01*
X122512382Y-132646479D01*
X122557157Y-132742500D01*
X122685633Y-132925982D01*
X122844018Y-133084367D01*
X123027500Y-133212843D01*
X123230504Y-133307505D01*
X123446864Y-133365479D01*
X123670000Y-133385001D01*
X123893136Y-133365479D01*
X124109496Y-133307505D01*
X124312500Y-133212843D01*
X124495982Y-133084367D01*
X124654367Y-132925982D01*
X124782843Y-132742500D01*
X124827618Y-132646479D01*
X124873790Y-132594040D01*
X124940984Y-132574888D01*
X125007865Y-132595104D01*
X125052382Y-132646479D01*
X125097157Y-132742500D01*
X125225633Y-132925982D01*
X125384018Y-133084367D01*
X125567500Y-133212843D01*
X125770504Y-133307505D01*
X125986864Y-133365479D01*
X126210000Y-133385001D01*
X126433136Y-133365479D01*
X126649496Y-133307505D01*
X126852500Y-133212843D01*
X127035982Y-133084367D01*
X127194367Y-132925982D01*
X127322843Y-132742500D01*
X127367618Y-132646479D01*
X127413790Y-132594040D01*
X127480984Y-132574888D01*
X127547865Y-132595104D01*
X127592382Y-132646479D01*
X127637157Y-132742500D01*
X127765633Y-132925982D01*
X127924018Y-133084367D01*
X128107500Y-133212843D01*
X128310504Y-133307505D01*
X128526864Y-133365479D01*
X128750000Y-133385001D01*
X128973136Y-133365479D01*
X129189496Y-133307505D01*
X129392500Y-133212843D01*
X129575982Y-133084367D01*
X129734367Y-132925982D01*
X129862843Y-132742500D01*
X129907618Y-132646479D01*
X129953790Y-132594040D01*
X130020984Y-132574888D01*
X130087865Y-132595104D01*
X130132382Y-132646479D01*
X130177157Y-132742500D01*
X130305633Y-132925982D01*
X130464018Y-133084367D01*
X130647500Y-133212843D01*
X130850504Y-133307505D01*
X131066864Y-133365479D01*
X131290000Y-133385001D01*
X131513136Y-133365479D01*
X131729496Y-133307505D01*
X131932500Y-133212843D01*
X132115982Y-133084367D01*
X132274367Y-132925982D01*
X132402843Y-132742500D01*
X132447618Y-132646479D01*
X132493790Y-132594040D01*
X132560984Y-132574888D01*
X132627865Y-132595104D01*
X132672382Y-132646479D01*
X132717157Y-132742500D01*
X132845633Y-132925982D01*
X133004018Y-133084367D01*
X133187500Y-133212843D01*
X133390504Y-133307505D01*
X133606864Y-133365479D01*
X133830000Y-133385001D01*
X134053136Y-133365479D01*
X134269496Y-133307505D01*
X134472500Y-133212843D01*
X134655982Y-133084367D01*
X134814367Y-132925982D01*
X134942843Y-132742500D01*
X134987618Y-132646479D01*
X135033790Y-132594040D01*
X135100984Y-132574888D01*
X135167865Y-132595104D01*
X135212382Y-132646479D01*
X135257157Y-132742500D01*
X135385633Y-132925982D01*
X135544018Y-133084367D01*
X135727500Y-133212843D01*
X135930504Y-133307505D01*
X136146864Y-133365479D01*
X136370000Y-133385001D01*
X136593136Y-133365479D01*
X136809496Y-133307505D01*
X137012500Y-133212843D01*
X137081192Y-133164744D01*
X138198808Y-133164744D01*
X138267498Y-133212842D01*
X138470503Y-133307504D01*
X138686864Y-133365479D01*
X138910000Y-133385001D01*
X139133136Y-133365479D01*
X139349497Y-133307504D01*
X139552502Y-133212842D01*
X139621192Y-133164744D01*
X138910000Y-132453553D01*
X138198808Y-133164744D01*
X137081192Y-133164744D01*
X137195982Y-133084367D01*
X137354367Y-132925982D01*
X137482843Y-132742500D01*
X137527618Y-132646479D01*
X137573790Y-132594040D01*
X137640984Y-132574888D01*
X137707865Y-132595104D01*
X137752382Y-132646479D01*
X137797158Y-132742502D01*
X137845256Y-132811192D01*
X138556447Y-132100000D01*
X139263553Y-132100000D01*
X139974744Y-132811192D01*
X140022842Y-132742502D01*
X140067618Y-132646479D01*
X140113790Y-132594040D01*
X140180984Y-132574888D01*
X140247865Y-132595104D01*
X140292382Y-132646479D01*
X140337157Y-132742500D01*
X140465633Y-132925982D01*
X140624018Y-133084367D01*
X140807500Y-133212843D01*
X141010504Y-133307505D01*
X141226864Y-133365479D01*
X141450000Y-133385001D01*
X141673136Y-133365479D01*
X141889496Y-133307505D01*
X142092500Y-133212843D01*
X142275982Y-133084367D01*
X142434367Y-132925982D01*
X142562843Y-132742500D01*
X142607618Y-132646479D01*
X142653790Y-132594040D01*
X142720984Y-132574888D01*
X142787865Y-132595104D01*
X142832382Y-132646479D01*
X142877157Y-132742500D01*
X143005633Y-132925982D01*
X143164018Y-133084367D01*
X143347500Y-133212843D01*
X143550504Y-133307505D01*
X143766864Y-133365479D01*
X143990000Y-133385001D01*
X144213136Y-133365479D01*
X144429496Y-133307505D01*
X144632500Y-133212843D01*
X144815982Y-133084367D01*
X144974367Y-132925982D01*
X145102843Y-132742500D01*
X145147618Y-132646479D01*
X145193790Y-132594040D01*
X145260984Y-132574888D01*
X145327865Y-132595104D01*
X145372382Y-132646479D01*
X145417157Y-132742500D01*
X145545633Y-132925982D01*
X145704018Y-133084367D01*
X145887500Y-133212843D01*
X146090504Y-133307505D01*
X146306864Y-133365479D01*
X146530000Y-133385001D01*
X146753136Y-133365479D01*
X146969496Y-133307505D01*
X147172500Y-133212843D01*
X147355982Y-133084367D01*
X147514367Y-132925982D01*
X147642843Y-132742500D01*
X147687618Y-132646479D01*
X147733790Y-132594040D01*
X147800984Y-132574888D01*
X147867865Y-132595104D01*
X147912382Y-132646479D01*
X147957157Y-132742500D01*
X148085633Y-132925982D01*
X148244018Y-133084367D01*
X148427500Y-133212843D01*
X148630504Y-133307505D01*
X148846864Y-133365479D01*
X149070000Y-133385001D01*
X149293136Y-133365479D01*
X149509496Y-133307505D01*
X149712500Y-133212843D01*
X149895982Y-133084367D01*
X150054367Y-132925982D01*
X150182843Y-132742500D01*
X150227618Y-132646479D01*
X150273790Y-132594040D01*
X150340984Y-132574888D01*
X150407865Y-132595104D01*
X150452382Y-132646479D01*
X150497157Y-132742500D01*
X150625633Y-132925982D01*
X150784018Y-133084367D01*
X150967500Y-133212843D01*
X151170504Y-133307505D01*
X151386864Y-133365479D01*
X151610000Y-133385001D01*
X151833136Y-133365479D01*
X152049496Y-133307505D01*
X152252500Y-133212843D01*
X152435982Y-133084367D01*
X152594367Y-132925982D01*
X152722843Y-132742500D01*
X152817505Y-132539496D01*
X152875479Y-132323136D01*
X152895001Y-132100000D01*
X152875479Y-131876864D01*
X152817505Y-131660504D01*
X152722843Y-131457500D01*
X152594367Y-131274018D01*
X152435982Y-131115633D01*
X152252500Y-130987157D01*
X152049496Y-130892495D01*
X151833136Y-130834521D01*
X151610000Y-130814999D01*
X151386864Y-130834521D01*
X151170504Y-130892495D01*
X150967500Y-130987157D01*
X150784018Y-131115633D01*
X150625633Y-131274018D01*
X150497157Y-131457500D01*
X150452382Y-131553521D01*
X150406210Y-131605960D01*
X150339016Y-131625112D01*
X150272135Y-131604896D01*
X150227618Y-131553521D01*
X150182843Y-131457500D01*
X150054367Y-131274018D01*
X149895982Y-131115633D01*
X149712500Y-130987157D01*
X149509496Y-130892495D01*
X149293136Y-130834521D01*
X149070000Y-130814999D01*
X148846864Y-130834521D01*
X148630504Y-130892495D01*
X148427500Y-130987157D01*
X148244018Y-131115633D01*
X148085633Y-131274018D01*
X147957157Y-131457500D01*
X147912382Y-131553521D01*
X147866210Y-131605960D01*
X147799016Y-131625112D01*
X147732135Y-131604896D01*
X147687618Y-131553521D01*
X147642843Y-131457500D01*
X147514367Y-131274018D01*
X147355982Y-131115633D01*
X147172500Y-130987157D01*
X146969496Y-130892495D01*
X146753136Y-130834521D01*
X146530000Y-130814999D01*
X146306864Y-130834521D01*
X146090504Y-130892495D01*
X145887500Y-130987157D01*
X145704018Y-131115633D01*
X145545633Y-131274018D01*
X145417157Y-131457500D01*
X145372382Y-131553521D01*
X145326210Y-131605960D01*
X145259016Y-131625112D01*
X145192135Y-131604896D01*
X145147618Y-131553521D01*
X145102843Y-131457500D01*
X144974367Y-131274018D01*
X144815982Y-131115633D01*
X144632500Y-130987157D01*
X144429496Y-130892495D01*
X144213136Y-130834521D01*
X143990000Y-130814999D01*
X143766864Y-130834521D01*
X143550504Y-130892495D01*
X143347500Y-130987157D01*
X143164018Y-131115633D01*
X143005633Y-131274018D01*
X142877157Y-131457500D01*
X142832382Y-131553521D01*
X142786210Y-131605960D01*
X142719016Y-131625112D01*
X142652135Y-131604896D01*
X142607618Y-131553521D01*
X142562843Y-131457500D01*
X142434367Y-131274018D01*
X142275982Y-131115633D01*
X142092500Y-130987157D01*
X141889496Y-130892495D01*
X141673136Y-130834521D01*
X141450000Y-130814999D01*
X141226864Y-130834521D01*
X141010504Y-130892495D01*
X140807500Y-130987157D01*
X140624018Y-131115633D01*
X140465633Y-131274018D01*
X140337157Y-131457500D01*
X140292382Y-131553521D01*
X140246210Y-131605960D01*
X140179016Y-131625112D01*
X140112135Y-131604896D01*
X140067618Y-131553521D01*
X140022842Y-131457498D01*
X139974744Y-131388808D01*
X139263553Y-132100000D01*
X138556447Y-132100000D01*
X137845256Y-131388808D01*
X137797158Y-131457498D01*
X137752382Y-131553521D01*
X137706210Y-131605960D01*
X137639016Y-131625112D01*
X137572135Y-131604896D01*
X137527618Y-131553521D01*
X137482843Y-131457500D01*
X137354367Y-131274018D01*
X137195982Y-131115633D01*
X137081193Y-131035256D01*
X138198808Y-131035256D01*
X138910000Y-131746447D01*
X139621192Y-131035256D01*
X139552502Y-130987158D01*
X139349497Y-130892496D01*
X139133136Y-130834521D01*
X138910000Y-130814999D01*
X138686864Y-130834521D01*
X138470503Y-130892496D01*
X138267498Y-130987158D01*
X138198808Y-131035256D01*
X137081193Y-131035256D01*
X137012500Y-130987157D01*
X136809496Y-130892495D01*
X136593136Y-130834521D01*
X136370000Y-130814999D01*
X136146864Y-130834521D01*
X135930504Y-130892495D01*
X135727500Y-130987157D01*
X135544018Y-131115633D01*
X135385633Y-131274018D01*
X135257157Y-131457500D01*
X135212382Y-131553521D01*
X135166210Y-131605960D01*
X135099016Y-131625112D01*
X135032135Y-131604896D01*
X134987618Y-131553521D01*
X134942843Y-131457500D01*
X134814367Y-131274018D01*
X134655982Y-131115633D01*
X134580500Y-131062780D01*
X134580500Y-129420051D01*
X134585040Y-129390208D01*
X134580500Y-129334393D01*
X134580500Y-129320954D01*
X134576884Y-129289932D01*
X134570854Y-129215806D01*
X134566772Y-129203205D01*
X134565237Y-129190039D01*
X134539850Y-129120100D01*
X134516927Y-129049339D01*
X134510056Y-129038015D01*
X134505535Y-129025561D01*
X134464755Y-128963360D01*
X134426156Y-128899752D01*
X134414100Y-128886102D01*
X134409593Y-128879227D01*
X134355670Y-128828144D01*
X130187882Y-124660357D01*
X130154397Y-124599034D01*
X130159381Y-124529342D01*
X130201253Y-124473409D01*
X130269830Y-124448809D01*
X130297738Y-124447517D01*
X130466871Y-124399179D01*
X130620351Y-124313227D01*
X130749938Y-124194273D01*
X130848685Y-124048698D01*
X130911295Y-123884309D01*
X130934407Y-123709930D01*
X130934500Y-123698004D01*
X130934484Y-123697862D01*
X130914129Y-123523277D01*
X130854110Y-123357927D01*
X130757661Y-123210817D01*
X130629958Y-123089845D01*
X130477849Y-123001492D01*
X130309496Y-122950503D01*
X130133927Y-122939611D01*
X129960561Y-122969401D01*
X129825891Y-123026703D01*
X129756496Y-123034838D01*
X129693720Y-123004164D01*
X129657493Y-122944420D01*
X129654416Y-122896311D01*
X129664407Y-122820930D01*
X129664500Y-122809004D01*
X129663248Y-122798260D01*
X129644129Y-122634277D01*
X129584110Y-122468927D01*
X129487661Y-122321817D01*
X129359958Y-122200845D01*
X129207849Y-122112492D01*
X129039496Y-122061503D01*
X128863927Y-122050611D01*
X128690561Y-122080401D01*
X128412203Y-122198844D01*
X128374129Y-121872277D01*
X128314110Y-121706927D01*
X128217661Y-121559817D01*
X128145565Y-121491521D01*
X128110433Y-121431127D01*
X128113530Y-121361326D01*
X128153873Y-121304280D01*
X128230842Y-121277500D01*
X129970664Y-121277500D01*
X129980477Y-121279693D01*
X130050253Y-121277500D01*
X130079579Y-121277500D01*
X130089295Y-121276273D01*
X130138944Y-121274712D01*
X130167636Y-121266376D01*
X130197296Y-121262629D01*
X130243493Y-121244339D01*
X130291195Y-121230481D01*
X130316921Y-121215267D01*
X130344709Y-121204264D01*
X130384902Y-121175062D01*
X130427618Y-121149800D01*
X130448724Y-121128694D01*
X130472976Y-121111073D01*
X130504733Y-121072685D01*
X132597991Y-118979427D01*
X143643942Y-118979427D01*
X143683064Y-119150926D01*
X143760590Y-119308827D01*
X143872361Y-119444659D01*
X144012383Y-119551134D01*
X144173144Y-119622541D01*
X144216336Y-119630663D01*
X144216450Y-119630771D01*
X144267373Y-119678591D01*
X144288077Y-119699295D01*
X144295804Y-119705289D01*
X144332026Y-119739303D01*
X144358220Y-119753703D01*
X144381833Y-119772019D01*
X144427418Y-119791746D01*
X144470963Y-119815685D01*
X144499911Y-119823118D01*
X144527337Y-119834985D01*
X144576396Y-119842755D01*
X144624476Y-119855100D01*
X144654339Y-119855100D01*
X144683932Y-119859787D01*
X144733517Y-119855100D01*
X153071083Y-119855100D01*
X153105583Y-119881334D01*
X153266344Y-119952741D01*
X153439223Y-119985250D01*
X153614938Y-119977117D01*
X153784071Y-119928779D01*
X153937551Y-119842827D01*
X154067138Y-119723873D01*
X154165885Y-119578298D01*
X154228495Y-119413909D01*
X154251607Y-119239530D01*
X154251700Y-119227604D01*
X154231329Y-119052877D01*
X154171310Y-118887527D01*
X154160288Y-118870715D01*
X154074861Y-118740417D01*
X153947158Y-118619445D01*
X153795049Y-118531092D01*
X153626696Y-118480103D01*
X153451127Y-118469211D01*
X153277761Y-118499001D01*
X153115900Y-118567873D01*
X153108711Y-118573164D01*
X153072109Y-118600100D01*
X145106153Y-118600100D01*
X145076377Y-118554683D01*
X144981661Y-118410217D01*
X144853958Y-118289245D01*
X144701849Y-118200892D01*
X144533496Y-118149903D01*
X144357927Y-118139011D01*
X144184561Y-118168801D01*
X144022699Y-118237674D01*
X143881021Y-118341938D01*
X143767132Y-118475994D01*
X143687133Y-118632662D01*
X143645323Y-118803524D01*
X143643942Y-118979427D01*
X132597991Y-118979427D01*
X143644680Y-107932739D01*
X143698553Y-107947174D01*
X143766861Y-107965479D01*
X143990000Y-107985001D01*
X144213136Y-107965479D01*
X144429496Y-107907505D01*
X144632500Y-107812843D01*
X144815982Y-107684367D01*
X144974367Y-107525982D01*
X145102843Y-107342500D01*
X145147618Y-107246479D01*
X145193790Y-107194040D01*
X145260984Y-107174888D01*
X145327865Y-107195104D01*
X145372382Y-107246479D01*
X145417157Y-107342500D01*
X145545633Y-107525982D01*
X145704018Y-107684367D01*
X145887500Y-107812843D01*
X146090504Y-107907505D01*
X146306864Y-107965479D01*
X146530000Y-107985001D01*
X146753136Y-107965479D01*
X146969496Y-107907505D01*
X147172500Y-107812843D01*
X147355982Y-107684367D01*
X147514367Y-107525982D01*
X147642843Y-107342500D01*
X147687618Y-107246479D01*
X147733790Y-107194040D01*
X147800984Y-107174888D01*
X147867865Y-107195104D01*
X147912382Y-107246479D01*
X147957157Y-107342500D01*
X148085633Y-107525982D01*
X148244018Y-107684367D01*
X148427500Y-107812843D01*
X148630504Y-107907505D01*
X148846864Y-107965479D01*
X149070000Y-107985001D01*
X149293136Y-107965479D01*
X149509496Y-107907505D01*
X149712500Y-107812843D01*
X149895982Y-107684367D01*
X150054367Y-107525982D01*
X150182843Y-107342500D01*
X150227618Y-107246479D01*
X150273790Y-107194040D01*
X150340984Y-107174888D01*
X150407865Y-107195104D01*
X150452382Y-107246479D01*
X150497157Y-107342500D01*
X150625633Y-107525982D01*
X150784018Y-107684367D01*
X150967500Y-107812843D01*
X151170504Y-107907505D01*
X151386864Y-107965479D01*
X151610000Y-107985001D01*
X151833136Y-107965479D01*
X152049496Y-107907505D01*
X152252500Y-107812843D01*
X152435982Y-107684367D01*
X152594367Y-107525982D01*
X152722843Y-107342500D01*
X152817505Y-107139496D01*
X152875479Y-106923136D01*
X152895001Y-106700000D01*
X152875479Y-106476864D01*
X152817505Y-106260504D01*
X152722843Y-106057500D01*
X152594367Y-105874018D01*
X152435982Y-105715633D01*
X152252500Y-105587157D01*
X152049496Y-105492495D01*
X151833136Y-105434521D01*
X151610000Y-105414999D01*
X151386864Y-105434521D01*
X151170504Y-105492495D01*
X150967500Y-105587157D01*
X150784018Y-105715633D01*
X150625633Y-105874018D01*
X150497156Y-106057502D01*
X150452382Y-106153521D01*
X150406210Y-106205960D01*
X150339016Y-106225112D01*
X150272135Y-106204896D01*
X150227618Y-106153521D01*
X150182843Y-106057500D01*
X150054367Y-105874018D01*
X149895982Y-105715633D01*
X149712500Y-105587157D01*
X149509496Y-105492495D01*
X149293136Y-105434521D01*
X149070000Y-105414999D01*
X148846864Y-105434521D01*
X148630504Y-105492495D01*
X148427500Y-105587157D01*
X148244018Y-105715633D01*
X148085633Y-105874018D01*
X147957156Y-106057502D01*
X147912382Y-106153521D01*
X147866210Y-106205960D01*
X147799016Y-106225112D01*
X147732135Y-106204896D01*
X147687618Y-106153521D01*
X147642843Y-106057500D01*
X147514367Y-105874018D01*
X147355982Y-105715633D01*
X147172500Y-105587157D01*
X146969496Y-105492495D01*
X146753136Y-105434521D01*
X146530000Y-105414999D01*
X146306864Y-105434521D01*
X146090504Y-105492495D01*
X145887500Y-105587157D01*
X145704018Y-105715633D01*
X145545633Y-105874018D01*
X145417156Y-106057502D01*
X145372382Y-106153521D01*
X145326210Y-106205960D01*
X145259016Y-106225112D01*
X145192135Y-106204896D01*
X145147618Y-106153521D01*
X145102843Y-106057500D01*
X144974367Y-105874018D01*
X144815982Y-105715633D01*
X144632500Y-105587157D01*
X144429496Y-105492495D01*
X144213136Y-105434521D01*
X143990000Y-105414999D01*
X143766864Y-105434521D01*
X143550504Y-105492495D01*
X143347500Y-105587157D01*
X143164018Y-105715633D01*
X143005633Y-105874018D01*
X142877156Y-106057502D01*
X142832382Y-106153521D01*
X142786210Y-106205960D01*
X142719016Y-106225112D01*
X142652135Y-106204896D01*
X142607618Y-106153521D01*
X142562843Y-106057500D01*
X142434367Y-105874018D01*
X142275982Y-105715633D01*
X142092500Y-105587157D01*
X141889496Y-105492495D01*
X141673136Y-105434521D01*
X141450000Y-105414999D01*
X141226864Y-105434521D01*
X141010504Y-105492495D01*
X140807500Y-105587157D01*
X140624018Y-105715633D01*
X140465633Y-105874018D01*
X140337156Y-106057502D01*
X140292382Y-106153521D01*
X140246210Y-106205960D01*
X140179016Y-106225112D01*
X140112135Y-106204896D01*
X140067618Y-106153521D01*
X140022843Y-106057500D01*
X139894367Y-105874018D01*
X139735982Y-105715633D01*
X139552500Y-105587157D01*
X139349496Y-105492495D01*
X139133136Y-105434521D01*
X138910000Y-105414999D01*
X138686864Y-105434521D01*
X138470504Y-105492495D01*
X138267500Y-105587157D01*
X138084018Y-105715633D01*
X137925633Y-105874018D01*
X137797156Y-106057502D01*
X137752382Y-106153521D01*
X137706210Y-106205960D01*
X137639016Y-106225112D01*
X137572135Y-106204896D01*
X137527618Y-106153521D01*
X137482843Y-106057500D01*
X137354367Y-105874018D01*
X137195982Y-105715633D01*
X137012500Y-105587157D01*
X136809496Y-105492495D01*
X136593136Y-105434521D01*
X136370000Y-105414999D01*
X136146864Y-105434521D01*
X135930504Y-105492495D01*
X135727500Y-105587157D01*
X135544018Y-105715633D01*
X135385633Y-105874018D01*
X135257156Y-106057502D01*
X135212382Y-106153521D01*
X135166210Y-106205960D01*
X135099016Y-106225112D01*
X135032135Y-106204896D01*
X134987618Y-106153521D01*
X134942843Y-106057500D01*
X134814367Y-105874018D01*
X134655982Y-105715633D01*
X134472500Y-105587157D01*
X134269496Y-105492495D01*
X134053136Y-105434521D01*
X133830000Y-105414999D01*
X133606864Y-105434521D01*
X133390504Y-105492495D01*
X133187500Y-105587157D01*
X133004018Y-105715633D01*
X132845633Y-105874018D01*
X132717156Y-106057502D01*
X132672382Y-106153521D01*
X132626210Y-106205960D01*
X132559016Y-106225112D01*
X132492135Y-106204896D01*
X132447618Y-106153521D01*
X132402843Y-106057500D01*
X132274367Y-105874018D01*
X132115982Y-105715633D01*
X131932500Y-105587157D01*
X131729496Y-105492495D01*
X131513136Y-105434521D01*
X131290000Y-105414999D01*
X131066864Y-105434521D01*
X130850504Y-105492495D01*
X130647500Y-105587157D01*
X130464018Y-105715633D01*
X130305633Y-105874018D01*
X130177156Y-106057502D01*
X130132382Y-106153521D01*
X130086210Y-106205960D01*
X130019016Y-106225112D01*
X129952135Y-106204896D01*
X129907618Y-106153521D01*
X129862843Y-106057500D01*
X129734367Y-105874018D01*
X129575982Y-105715633D01*
X129392500Y-105587157D01*
X129189496Y-105492495D01*
X128973136Y-105434521D01*
X128750000Y-105414999D01*
X128526864Y-105434521D01*
X128310504Y-105492495D01*
X128107500Y-105587157D01*
X127924018Y-105715633D01*
X127765633Y-105874018D01*
X127637156Y-106057502D01*
X127592382Y-106153521D01*
X127546210Y-106205960D01*
X127479016Y-106225112D01*
X127412135Y-106204896D01*
X127367618Y-106153521D01*
X127322843Y-106057500D01*
X127194367Y-105874018D01*
X127035982Y-105715633D01*
X126852500Y-105587157D01*
X126649496Y-105492495D01*
X126433136Y-105434521D01*
X126210000Y-105414999D01*
X125986864Y-105434521D01*
X125770504Y-105492495D01*
X125567500Y-105587157D01*
X125384018Y-105715633D01*
X125225633Y-105874018D01*
X125097156Y-106057502D01*
X125052382Y-106153521D01*
X125006210Y-106205960D01*
X124939016Y-106225112D01*
X124872135Y-106204896D01*
X124827618Y-106153521D01*
X124782843Y-106057500D01*
X124654367Y-105874018D01*
X124495982Y-105715633D01*
X124312500Y-105587157D01*
X124109496Y-105492495D01*
X123893136Y-105434521D01*
X123670000Y-105414999D01*
X123446864Y-105434521D01*
X123230504Y-105492495D01*
X123027500Y-105587157D01*
X122844018Y-105715633D01*
X122685633Y-105874018D01*
X122557156Y-106057502D01*
X122512382Y-106153521D01*
X122466210Y-106205960D01*
X122399016Y-106225112D01*
X122332135Y-106204896D01*
X122287618Y-106153521D01*
X122242842Y-106057498D01*
X122194744Y-105988808D01*
X121483553Y-106700000D01*
X122194744Y-107411192D01*
X122242842Y-107342502D01*
X122287618Y-107246479D01*
X122333790Y-107194040D01*
X122400984Y-107174888D01*
X122467865Y-107195104D01*
X122512382Y-107246479D01*
X122557157Y-107342500D01*
X122685633Y-107525982D01*
X122844018Y-107684367D01*
X123027500Y-107812843D01*
X123230504Y-107907505D01*
X123446864Y-107965479D01*
X123670000Y-107985001D01*
X123893136Y-107965479D01*
X124109496Y-107907505D01*
X124312500Y-107812843D01*
X124495982Y-107684367D01*
X124654367Y-107525982D01*
X124782843Y-107342500D01*
X124827618Y-107246479D01*
X124873790Y-107194040D01*
X124940984Y-107174888D01*
X125007865Y-107195104D01*
X125052382Y-107246479D01*
X125097157Y-107342500D01*
X125225633Y-107525982D01*
X125384018Y-107684367D01*
X125567500Y-107812843D01*
X125770504Y-107907505D01*
X125986864Y-107965479D01*
X126210000Y-107985001D01*
X126433136Y-107965479D01*
X126649496Y-107907505D01*
X126852500Y-107812843D01*
X127035982Y-107684367D01*
X127194367Y-107525982D01*
X127322843Y-107342500D01*
X127367618Y-107246479D01*
X127413790Y-107194040D01*
X127480984Y-107174888D01*
X127547865Y-107195104D01*
X127592382Y-107246479D01*
X127637157Y-107342500D01*
X127765633Y-107525982D01*
X127924018Y-107684367D01*
X128107500Y-107812843D01*
X128310504Y-107907505D01*
X128526864Y-107965479D01*
X128750000Y-107985001D01*
X128973136Y-107965479D01*
X129189496Y-107907505D01*
X129392500Y-107812843D01*
X129575982Y-107684367D01*
X129734367Y-107525982D01*
X129862843Y-107342500D01*
X129907618Y-107246479D01*
X129953790Y-107194040D01*
X130020984Y-107174888D01*
X130087865Y-107195104D01*
X130132382Y-107246479D01*
X130177157Y-107342500D01*
X130305633Y-107525982D01*
X130464018Y-107684367D01*
X130647500Y-107812843D01*
X130850504Y-107907505D01*
X131066864Y-107965479D01*
X131290000Y-107985001D01*
X131513136Y-107965479D01*
X131729496Y-107907505D01*
X131932500Y-107812843D01*
X132115982Y-107684367D01*
X132274367Y-107525982D01*
X132402843Y-107342500D01*
X132447618Y-107246479D01*
X132493790Y-107194040D01*
X132560984Y-107174888D01*
X132627865Y-107195104D01*
X132672382Y-107246479D01*
X132717157Y-107342500D01*
X132845633Y-107525982D01*
X133004018Y-107684367D01*
X133187500Y-107812843D01*
X133390504Y-107907505D01*
X133606864Y-107965479D01*
X133830000Y-107985001D01*
X134053136Y-107965479D01*
X134373148Y-107879731D01*
X134298123Y-108186325D01*
X134296742Y-108362226D01*
X134335864Y-108533726D01*
X134413390Y-108691627D01*
X134525161Y-108827459D01*
X134665183Y-108933934D01*
X134825944Y-109005341D01*
X134998823Y-109037850D01*
X135174536Y-109029718D01*
X135202347Y-109021769D01*
X135272215Y-109022273D01*
X135330719Y-109060470D01*
X135359285Y-109124234D01*
X135348843Y-109193319D01*
X135324104Y-109228676D01*
X125970323Y-118582457D01*
X125961829Y-118587848D01*
X125914017Y-118638763D01*
X125893304Y-118659476D01*
X125887306Y-118667208D01*
X125853296Y-118703426D01*
X125838901Y-118729609D01*
X125820581Y-118753229D01*
X125800851Y-118798824D01*
X125776915Y-118842363D01*
X125769481Y-118871313D01*
X125757614Y-118898738D01*
X125749843Y-118947801D01*
X125737500Y-118995875D01*
X125737500Y-119025733D01*
X125732812Y-119055330D01*
X125737500Y-119104925D01*
X125737501Y-119712038D01*
X125569185Y-120041660D01*
X116159304Y-110631780D01*
X116133228Y-110531312D01*
X116035651Y-110314701D01*
X115902970Y-110117622D01*
X115738981Y-109945717D01*
X115548373Y-109803901D01*
X115336592Y-109696226D01*
X115109704Y-109625775D01*
X114874185Y-109594560D01*
X114636769Y-109603473D01*
X114404260Y-109652258D01*
X114183285Y-109739526D01*
X113980179Y-109862774D01*
X113678732Y-110124358D01*
X113627365Y-109888216D01*
X113549653Y-109767293D01*
X113441024Y-109673167D01*
X113310276Y-109613456D01*
X113168000Y-109593000D01*
X111367999Y-109593000D01*
X111158216Y-109638635D01*
X111037293Y-109716347D01*
X110943167Y-109824976D01*
X110883456Y-109955724D01*
X110863000Y-110098000D01*
X110863000Y-111898001D01*
X110908635Y-112107784D01*
X110986347Y-112228707D01*
X111094976Y-112322833D01*
X111225724Y-112382544D01*
X111368000Y-112403000D01*
X113168001Y-112403000D01*
X113377784Y-112357365D01*
X113498707Y-112279653D01*
X113592833Y-112171025D01*
X113716959Y-111899224D01*
X113958536Y-112117124D01*
X114159242Y-112244250D01*
X114378498Y-112335742D01*
X114610034Y-112388983D01*
X114847234Y-112402452D01*
X115083306Y-112375764D01*
X115311506Y-112309681D01*
X115582955Y-112178164D01*
X125877019Y-122472228D01*
X125733132Y-122641594D01*
X125653133Y-122798262D01*
X125611323Y-122969124D01*
X125609942Y-123145027D01*
X125649064Y-123316526D01*
X125726592Y-123474430D01*
X125838361Y-123610259D01*
X125978383Y-123716734D01*
X126139144Y-123788141D01*
X126312023Y-123820650D01*
X126487738Y-123812517D01*
X126656871Y-123764179D01*
X126810351Y-123678227D01*
X126952516Y-123547725D01*
X133079501Y-129674710D01*
X133079501Y-131062779D01*
X133004018Y-131115633D01*
X132845633Y-131274018D01*
X132717157Y-131457500D01*
X132672382Y-131553521D01*
X132626210Y-131605960D01*
X132559016Y-131625112D01*
X132492135Y-131604896D01*
X132447618Y-131553521D01*
X132402843Y-131457500D01*
X132274367Y-131274018D01*
X132115982Y-131115633D01*
X131932500Y-130987157D01*
X131729496Y-130892495D01*
X131513136Y-130834521D01*
X131290000Y-130814999D01*
X131066864Y-130834521D01*
X130850504Y-130892495D01*
X130647500Y-130987157D01*
X130464018Y-131115633D01*
X130305633Y-131274018D01*
X130177157Y-131457500D01*
X130132382Y-131553521D01*
X130086210Y-131605960D01*
X130019016Y-131625112D01*
X129952135Y-131604896D01*
X129907618Y-131553521D01*
X129862843Y-131457500D01*
X129734367Y-131274018D01*
X129575982Y-131115633D01*
X129392500Y-130987157D01*
X129189496Y-130892495D01*
X128973136Y-130834521D01*
X128750000Y-130814999D01*
X128526864Y-130834521D01*
X128310504Y-130892495D01*
X128107500Y-130987157D01*
X127924018Y-131115633D01*
X127765633Y-131274018D01*
X127637157Y-131457500D01*
X127592382Y-131553521D01*
X127546210Y-131605960D01*
X127479016Y-131625112D01*
X127412135Y-131604896D01*
X127367618Y-131553521D01*
X127322843Y-131457500D01*
X127194367Y-131274018D01*
X127035982Y-131115633D01*
X126852500Y-130987157D01*
X126649496Y-130892495D01*
X126433136Y-130834521D01*
X126210000Y-130814999D01*
X125986864Y-130834521D01*
X125770504Y-130892495D01*
X125567500Y-130987157D01*
X125384018Y-131115633D01*
X125225633Y-131274018D01*
X125097157Y-131457500D01*
X125052382Y-131553521D01*
X125006210Y-131605960D01*
X124939016Y-131625112D01*
X124872135Y-131604896D01*
X124827618Y-131553521D01*
X124782843Y-131457500D01*
X124654367Y-131274018D01*
X124495982Y-131115633D01*
X124312500Y-130987157D01*
X124109496Y-130892495D01*
X123893136Y-130834521D01*
X123670000Y-130814999D01*
X123446864Y-130834521D01*
X123230504Y-130892495D01*
X123027500Y-130987157D01*
X122844018Y-131115633D01*
X122685633Y-131274018D01*
X122557157Y-131457500D01*
X122512382Y-131553521D01*
X122466210Y-131605960D01*
X122399016Y-131625112D01*
X122332135Y-131604896D01*
X122287618Y-131553521D01*
X122242843Y-131457500D01*
X122114367Y-131274018D01*
X121955982Y-131115633D01*
X121772500Y-130987157D01*
X121569496Y-130892495D01*
X121353136Y-130834521D01*
X121130000Y-130814999D01*
X120906864Y-130834521D01*
X120690504Y-130892495D01*
X120487500Y-130987157D01*
X120304018Y-131115633D01*
X120145633Y-131274018D01*
X120017157Y-131457500D01*
X119972382Y-131553521D01*
X119926210Y-131605960D01*
X119859016Y-131625112D01*
X119792135Y-131604896D01*
X119747618Y-131553521D01*
X119702843Y-131457500D01*
X119574367Y-131274018D01*
X119415982Y-131115633D01*
X119232500Y-130987157D01*
X119029496Y-130892495D01*
X118813136Y-130834521D01*
X118590000Y-130814999D01*
X118366864Y-130834521D01*
X118150504Y-130892495D01*
X117947500Y-130987157D01*
X117764018Y-131115633D01*
X117605633Y-131274018D01*
X117477157Y-131457500D01*
X117432382Y-131553521D01*
X117386210Y-131605960D01*
X117319016Y-131625112D01*
X117252135Y-131604896D01*
X117207618Y-131553521D01*
X117162843Y-131457500D01*
X117034367Y-131274018D01*
X116875982Y-131115633D01*
X116692500Y-130987157D01*
X116489496Y-130892495D01*
X116273136Y-130834521D01*
X116050000Y-130814999D01*
X115826864Y-130834521D01*
X115610504Y-130892495D01*
X115407500Y-130987157D01*
X115224018Y-131115633D01*
X115065633Y-131274018D01*
X114937157Y-131457500D01*
X114892382Y-131553521D01*
X114846210Y-131605960D01*
X114779016Y-131625112D01*
X114712135Y-131604896D01*
X114667618Y-131553521D01*
X114622843Y-131457500D01*
X114494367Y-131274018D01*
X114335982Y-131115633D01*
X114152500Y-130987157D01*
X113949496Y-130892495D01*
X113733136Y-130834521D01*
X113510000Y-130814999D01*
X113286864Y-130834521D01*
X113070504Y-130892495D01*
X112867500Y-130987157D01*
X112684018Y-131115633D01*
X112525633Y-131274018D01*
X112397157Y-131457500D01*
X112352382Y-131553521D01*
X112306210Y-131605960D01*
X112239016Y-131625112D01*
X112172135Y-131604896D01*
X112127618Y-131553521D01*
X112082843Y-131457500D01*
X111954367Y-131274018D01*
X111795982Y-131115633D01*
X111614656Y-130988667D01*
X111571034Y-130934092D01*
X111563841Y-130864593D01*
X111595363Y-130802239D01*
X111640134Y-130771803D01*
X111662330Y-130763015D01*
X111724307Y-130743592D01*
X111756609Y-130725687D01*
X111790930Y-130712098D01*
X111845253Y-130676550D01*
X111902052Y-130645066D01*
X111930087Y-130621037D01*
X111960982Y-130600820D01*
X111961066Y-130600744D01*
X111968199Y-130594321D01*
X112009831Y-130552688D01*
X112056355Y-130512812D01*
X112079343Y-130483176D01*
X113172504Y-129390016D01*
X113263568Y-129303900D01*
X120809264Y-129303900D01*
X120819077Y-129306093D01*
X120888853Y-129303900D01*
X120918179Y-129303900D01*
X120927895Y-129302673D01*
X120977544Y-129301112D01*
X121006236Y-129292776D01*
X121035896Y-129289029D01*
X121082093Y-129270739D01*
X121129795Y-129256881D01*
X121155521Y-129241667D01*
X121183309Y-129230664D01*
X121223502Y-129201462D01*
X121266218Y-129176200D01*
X121287324Y-129155094D01*
X121311576Y-129137473D01*
X121343332Y-129099086D01*
X121792681Y-128649738D01*
X121801171Y-128644350D01*
X121848966Y-128593453D01*
X121869696Y-128572723D01*
X121875695Y-128564990D01*
X121909703Y-128528774D01*
X121924100Y-128502586D01*
X121942418Y-128478971D01*
X121962147Y-128433379D01*
X121986084Y-128389840D01*
X121993518Y-128360885D01*
X122005386Y-128333461D01*
X122013156Y-128284402D01*
X122025500Y-128236324D01*
X122025500Y-128206466D01*
X122030188Y-128176868D01*
X122025500Y-128127276D01*
X122025500Y-125949785D01*
X122071685Y-125881698D01*
X122134295Y-125717309D01*
X122157407Y-125542930D01*
X122157500Y-125531004D01*
X122137129Y-125356277D01*
X122077110Y-125190927D01*
X122011700Y-125091160D01*
X122011700Y-123364065D01*
X122016388Y-123334468D01*
X122011700Y-123284873D01*
X122011700Y-120583785D01*
X122057885Y-120515698D01*
X122120495Y-120351309D01*
X122143607Y-120176930D01*
X122143700Y-120165004D01*
X122123329Y-119990277D01*
X122063310Y-119824927D01*
X121966861Y-119677817D01*
X121839158Y-119556845D01*
X121687049Y-119468492D01*
X121518696Y-119417503D01*
X121343127Y-119406611D01*
X121169761Y-119436401D01*
X121007899Y-119505274D01*
X120866221Y-119609538D01*
X120752332Y-119743594D01*
X120672333Y-119900262D01*
X120630523Y-120071124D01*
X120629142Y-120247027D01*
X120668264Y-120418526D01*
X120756700Y-120598648D01*
X120756700Y-123252384D01*
X120749612Y-123297132D01*
X120756700Y-123372109D01*
X120756701Y-125128064D01*
X120686134Y-125266261D01*
X120644323Y-125437124D01*
X120642942Y-125613027D01*
X120682064Y-125784526D01*
X120770500Y-125964648D01*
X120770501Y-127897081D01*
X120618682Y-128048900D01*
X113471700Y-128048900D01*
X113471700Y-118398069D01*
X113473999Y-118315758D01*
X113462725Y-118251821D01*
X113456164Y-118187218D01*
X113445121Y-118151980D01*
X113438710Y-118115622D01*
X113414811Y-118055261D01*
X113395391Y-117993291D01*
X113377488Y-117960993D01*
X113363898Y-117926669D01*
X113328348Y-117872343D01*
X113296866Y-117815548D01*
X113272840Y-117787517D01*
X113252620Y-117756618D01*
X113246121Y-117749400D01*
X113204482Y-117707762D01*
X113164612Y-117661245D01*
X113134974Y-117638254D01*
X111810978Y-116314257D01*
X111810970Y-116314248D01*
X110797231Y-115300512D01*
X110740614Y-115240641D01*
X110687418Y-115203393D01*
X110637108Y-115162361D01*
X110604391Y-115145257D01*
X110574143Y-115124077D01*
X110514551Y-115098288D01*
X110457012Y-115068207D01*
X110421516Y-115058029D01*
X110387629Y-115043366D01*
X110324079Y-115030090D01*
X110261659Y-115012192D01*
X110224847Y-115009359D01*
X110188703Y-115001808D01*
X110179013Y-115001300D01*
X110120109Y-115001300D01*
X110059032Y-114996601D01*
X110021837Y-115001300D01*
X107246820Y-115001300D01*
X106918500Y-114672981D01*
X106918500Y-112249794D01*
X106938185Y-112182755D01*
X106990989Y-112137000D01*
X107060147Y-112127056D01*
X107123703Y-112156081D01*
X107146816Y-112182755D01*
X107176347Y-112228707D01*
X107284976Y-112322833D01*
X107415724Y-112382544D01*
X107558000Y-112403000D01*
X109358001Y-112403000D01*
X109567784Y-112357365D01*
X109688707Y-112279653D01*
X109782833Y-112171024D01*
X109842544Y-112040276D01*
X109863000Y-111898000D01*
X109863000Y-110097999D01*
X109817365Y-109888216D01*
X109739653Y-109767293D01*
X109631024Y-109673167D01*
X109500276Y-109613456D01*
X109358000Y-109593000D01*
X107557999Y-109593000D01*
X107348216Y-109638635D01*
X107227293Y-109716347D01*
X107133167Y-109824976D01*
X107115531Y-109863594D01*
X107003874Y-110108087D01*
X106848981Y-109945717D01*
X106658373Y-109803901D01*
X106446592Y-109696226D01*
X106219704Y-109625775D01*
X105984185Y-109594560D01*
X105746769Y-109603473D01*
X105514260Y-109652258D01*
X105293288Y-109739525D01*
X105088828Y-109863594D01*
X105021303Y-109881544D01*
X104954793Y-109860137D01*
X104910415Y-109806171D01*
X104900500Y-109757585D01*
X104900500Y-107808072D01*
X104920185Y-107741033D01*
X104972989Y-107695278D01*
X105042147Y-107685334D01*
X105095624Y-107706497D01*
X105247502Y-107812844D01*
X105450503Y-107907504D01*
X105666864Y-107965479D01*
X105890000Y-107985001D01*
X106113136Y-107965479D01*
X106329497Y-107907504D01*
X106532502Y-107812842D01*
X106601192Y-107764744D01*
X105536446Y-106700000D01*
X106243553Y-106700000D01*
X106954744Y-107411192D01*
X107002842Y-107342502D01*
X107047618Y-107246479D01*
X107093790Y-107194040D01*
X107160984Y-107174888D01*
X107227865Y-107195104D01*
X107272382Y-107246479D01*
X107317157Y-107342500D01*
X107445633Y-107525982D01*
X107604018Y-107684367D01*
X107787500Y-107812843D01*
X107990504Y-107907505D01*
X108206864Y-107965479D01*
X108430000Y-107985001D01*
X108653136Y-107965479D01*
X108869496Y-107907505D01*
X109072500Y-107812843D01*
X109255982Y-107684367D01*
X109414367Y-107525982D01*
X109542843Y-107342500D01*
X109587618Y-107246479D01*
X109633790Y-107194040D01*
X109700984Y-107174888D01*
X109767865Y-107195104D01*
X109812382Y-107246479D01*
X109857157Y-107342500D01*
X109985633Y-107525982D01*
X110144018Y-107684367D01*
X110327500Y-107812843D01*
X110530504Y-107907505D01*
X110746864Y-107965479D01*
X110970000Y-107985001D01*
X111193136Y-107965479D01*
X111409496Y-107907505D01*
X111612500Y-107812843D01*
X111795982Y-107684367D01*
X111954367Y-107525982D01*
X112082843Y-107342500D01*
X112127618Y-107246479D01*
X112173790Y-107194040D01*
X112240984Y-107174888D01*
X112307865Y-107195104D01*
X112352382Y-107246479D01*
X112397157Y-107342500D01*
X112525633Y-107525982D01*
X112684018Y-107684367D01*
X112867500Y-107812843D01*
X113070504Y-107907505D01*
X113286864Y-107965479D01*
X113510000Y-107985001D01*
X113733136Y-107965479D01*
X113949496Y-107907505D01*
X114152500Y-107812843D01*
X114335982Y-107684367D01*
X114494367Y-107525982D01*
X114622843Y-107342500D01*
X114667618Y-107246479D01*
X114713790Y-107194040D01*
X114780984Y-107174888D01*
X114847865Y-107195104D01*
X114892382Y-107246479D01*
X114937157Y-107342500D01*
X115065633Y-107525982D01*
X115224018Y-107684367D01*
X115407500Y-107812843D01*
X115610504Y-107907505D01*
X115826864Y-107965479D01*
X116050000Y-107985001D01*
X116273136Y-107965479D01*
X116489496Y-107907505D01*
X116692500Y-107812843D01*
X116875982Y-107684367D01*
X117034367Y-107525982D01*
X117162843Y-107342500D01*
X117207618Y-107246479D01*
X117253790Y-107194040D01*
X117320984Y-107174888D01*
X117387865Y-107195104D01*
X117432382Y-107246479D01*
X117477157Y-107342500D01*
X117605633Y-107525982D01*
X117764018Y-107684367D01*
X117947500Y-107812843D01*
X118150504Y-107907505D01*
X118366864Y-107965479D01*
X118590000Y-107985001D01*
X118813136Y-107965479D01*
X119029496Y-107907505D01*
X119232500Y-107812843D01*
X119301192Y-107764744D01*
X120418808Y-107764744D01*
X120487498Y-107812842D01*
X120690503Y-107907504D01*
X120906864Y-107965479D01*
X121130000Y-107985001D01*
X121353136Y-107965479D01*
X121569497Y-107907504D01*
X121772502Y-107812842D01*
X121841192Y-107764744D01*
X121130000Y-107053553D01*
X120418808Y-107764744D01*
X119301192Y-107764744D01*
X119415982Y-107684367D01*
X119574367Y-107525982D01*
X119702843Y-107342500D01*
X119747618Y-107246479D01*
X119793790Y-107194040D01*
X119860984Y-107174888D01*
X119927865Y-107195104D01*
X119972382Y-107246479D01*
X120017158Y-107342502D01*
X120065256Y-107411192D01*
X120776447Y-106700000D01*
X120065256Y-105988808D01*
X120017158Y-106057498D01*
X119972382Y-106153521D01*
X119926210Y-106205960D01*
X119859016Y-106225112D01*
X119792135Y-106204896D01*
X119747618Y-106153521D01*
X119702843Y-106057500D01*
X119574367Y-105874018D01*
X119415982Y-105715633D01*
X119301193Y-105635256D01*
X120418808Y-105635256D01*
X121130000Y-106346447D01*
X121841192Y-105635256D01*
X121772502Y-105587158D01*
X121569497Y-105492496D01*
X121353136Y-105434521D01*
X121130000Y-105414999D01*
X120906864Y-105434521D01*
X120690503Y-105492496D01*
X120487498Y-105587158D01*
X120418808Y-105635256D01*
X119301193Y-105635256D01*
X119232500Y-105587157D01*
X119029496Y-105492495D01*
X118813136Y-105434521D01*
X118590000Y-105414999D01*
X118366864Y-105434521D01*
X118150504Y-105492495D01*
X117947500Y-105587157D01*
X117764018Y-105715633D01*
X117605633Y-105874018D01*
X117477156Y-106057502D01*
X117432382Y-106153521D01*
X117386210Y-106205960D01*
X117319016Y-106225112D01*
X117252135Y-106204896D01*
X117207618Y-106153521D01*
X117162843Y-106057500D01*
X117034367Y-105874018D01*
X116875982Y-105715633D01*
X116692500Y-105587157D01*
X116489496Y-105492495D01*
X116273136Y-105434521D01*
X116050000Y-105414999D01*
X115826864Y-105434521D01*
X115610504Y-105492495D01*
X115407500Y-105587157D01*
X115224018Y-105715633D01*
X115065633Y-105874018D01*
X114937156Y-106057502D01*
X114892382Y-106153521D01*
X114846210Y-106205960D01*
X114779016Y-106225112D01*
X114712135Y-106204896D01*
X114667618Y-106153521D01*
X114622843Y-106057500D01*
X114494367Y-105874018D01*
X114335982Y-105715633D01*
X114152500Y-105587157D01*
X113949496Y-105492495D01*
X113733136Y-105434521D01*
X113510000Y-105414999D01*
X113286864Y-105434521D01*
X113070504Y-105492495D01*
X112867500Y-105587157D01*
X112684018Y-105715633D01*
X112525633Y-105874018D01*
X112397156Y-106057502D01*
X112352382Y-106153521D01*
X112306210Y-106205960D01*
X112239016Y-106225112D01*
X112172135Y-106204896D01*
X112127618Y-106153521D01*
X112082843Y-106057500D01*
X111954367Y-105874018D01*
X111795982Y-105715633D01*
X111612500Y-105587157D01*
X111409496Y-105492495D01*
X111193136Y-105434521D01*
X110970000Y-105414999D01*
X110746864Y-105434521D01*
X110530504Y-105492495D01*
X110327500Y-105587157D01*
X110144018Y-105715633D01*
X109985633Y-105874018D01*
X109857156Y-106057502D01*
X109812382Y-106153521D01*
X109766210Y-106205960D01*
X109699016Y-106225112D01*
X109632135Y-106204896D01*
X109587618Y-106153521D01*
X109542843Y-106057500D01*
X109414367Y-105874018D01*
X109255982Y-105715633D01*
X109072500Y-105587157D01*
X108869496Y-105492495D01*
X108653136Y-105434521D01*
X108430000Y-105414999D01*
X108206864Y-105434521D01*
X107990504Y-105492495D01*
X107787500Y-105587157D01*
X107604018Y-105715633D01*
X107445633Y-105874018D01*
X107317156Y-106057502D01*
X107272382Y-106153521D01*
X107226210Y-106205960D01*
X107159016Y-106225112D01*
X107092135Y-106204896D01*
X107047618Y-106153521D01*
X107002842Y-106057498D01*
X106954744Y-105988808D01*
X106243553Y-106700000D01*
X105536446Y-106700000D01*
X106601192Y-105635256D01*
X106532502Y-105587158D01*
X106329497Y-105492496D01*
X106113136Y-105434521D01*
X105890000Y-105414999D01*
X105666864Y-105434521D01*
X105450503Y-105492496D01*
X105247502Y-105587156D01*
X105095624Y-105693503D01*
X105029418Y-105715830D01*
X104961650Y-105698820D01*
X104913837Y-105647872D01*
X104900500Y-105591928D01*
X104900500Y-105536025D01*
X104900783Y-105534108D01*
X104900500Y-105498088D01*
X104900500Y-105480449D01*
X104901669Y-105463303D01*
X104900083Y-105444983D01*
X104899963Y-105429739D01*
X104897154Y-105411163D01*
X104873593Y-105139130D01*
X104871541Y-105111179D01*
X104798069Y-104794198D01*
X104792098Y-104766815D01*
X104775000Y-104722619D01*
X104775000Y-100750000D01*
X112945000Y-100750000D01*
X112945000Y-102450001D01*
X112990635Y-102659784D01*
X113068347Y-102780707D01*
X113176976Y-102874833D01*
X113307724Y-102934544D01*
X113450000Y-102955000D01*
X115150001Y-102955000D01*
X115359784Y-102909365D01*
X115480707Y-102831653D01*
X115574833Y-102723024D01*
X115634544Y-102592275D01*
X115635589Y-102585009D01*
X115664614Y-102521453D01*
X115723392Y-102483679D01*
X115793262Y-102483679D01*
X115846008Y-102514975D01*
X115969023Y-102637990D01*
X116162502Y-102773465D01*
X116376563Y-102873284D01*
X116604709Y-102934416D01*
X116840000Y-102955001D01*
X117075291Y-102934416D01*
X117303437Y-102873284D01*
X117517500Y-102773464D01*
X117710977Y-102637990D01*
X117877990Y-102470977D01*
X118110000Y-102139631D01*
X118342011Y-102470978D01*
X118509020Y-102637987D01*
X118702502Y-102773465D01*
X118916562Y-102873284D01*
X119130000Y-102930474D01*
X119130000Y-101350001D01*
X119629999Y-101350001D01*
X119630000Y-101350001D01*
X119629999Y-102930475D01*
X119843439Y-102873283D01*
X120057498Y-102773465D01*
X120250980Y-102637987D01*
X120417989Y-102470978D01*
X120650000Y-102139631D01*
X120882010Y-102470977D01*
X121049023Y-102637990D01*
X121242502Y-102773465D01*
X121456563Y-102873284D01*
X121684709Y-102934416D01*
X121920000Y-102955001D01*
X122155291Y-102934416D01*
X122383437Y-102873284D01*
X122597500Y-102773464D01*
X122790977Y-102637990D01*
X122957990Y-102470977D01*
X123190000Y-102139631D01*
X123422010Y-102470977D01*
X123589023Y-102637990D01*
X123782502Y-102773465D01*
X123996563Y-102873284D01*
X124224709Y-102934416D01*
X124460000Y-102955001D01*
X124695291Y-102934416D01*
X124923437Y-102873284D01*
X125137500Y-102773464D01*
X125330977Y-102637990D01*
X125497990Y-102470977D01*
X125730000Y-102139631D01*
X125962010Y-102470977D01*
X126129023Y-102637990D01*
X126322502Y-102773465D01*
X126536563Y-102873284D01*
X126764709Y-102934416D01*
X127000000Y-102955001D01*
X127235291Y-102934416D01*
X127463437Y-102873284D01*
X127677500Y-102773464D01*
X127870977Y-102637990D01*
X128037990Y-102470977D01*
X128270000Y-102139631D01*
X128502010Y-102470977D01*
X128669023Y-102637990D01*
X128862502Y-102773465D01*
X129076563Y-102873284D01*
X129304709Y-102934416D01*
X129540000Y-102955001D01*
X129775291Y-102934416D01*
X130003437Y-102873284D01*
X130217500Y-102773464D01*
X130410977Y-102637990D01*
X130577990Y-102470977D01*
X130810000Y-102139631D01*
X131042010Y-102470977D01*
X131209023Y-102637990D01*
X131402502Y-102773465D01*
X131616563Y-102873284D01*
X131844709Y-102934416D01*
X132080000Y-102955001D01*
X132315291Y-102934416D01*
X132543437Y-102873284D01*
X132757500Y-102773464D01*
X132950977Y-102637990D01*
X133117990Y-102470977D01*
X133350000Y-102139631D01*
X133582010Y-102470977D01*
X133749023Y-102637990D01*
X133942502Y-102773465D01*
X134156563Y-102873284D01*
X134384709Y-102934416D01*
X134620000Y-102955001D01*
X134855291Y-102934416D01*
X135083437Y-102873284D01*
X135297500Y-102773464D01*
X135490977Y-102637990D01*
X135657990Y-102470977D01*
X135890000Y-102139631D01*
X136122010Y-102470977D01*
X136289023Y-102637990D01*
X136482502Y-102773465D01*
X136696563Y-102873284D01*
X136924709Y-102934416D01*
X137160000Y-102955001D01*
X137395291Y-102934416D01*
X137623437Y-102873284D01*
X137837500Y-102773464D01*
X138030977Y-102637990D01*
X138197990Y-102470977D01*
X138430000Y-102139631D01*
X138662010Y-102470977D01*
X138829023Y-102637990D01*
X139022502Y-102773465D01*
X139236563Y-102873284D01*
X139464709Y-102934416D01*
X139700000Y-102955001D01*
X139935291Y-102934416D01*
X139949998Y-102930475D01*
X142489999Y-102930475D01*
X142703439Y-102873283D01*
X142917498Y-102773465D01*
X143110980Y-102637987D01*
X143277987Y-102470980D01*
X143413465Y-102277498D01*
X143513284Y-102063438D01*
X143570474Y-101850000D01*
X142490000Y-101849999D01*
X142489999Y-102930475D01*
X139949998Y-102930475D01*
X140163437Y-102873284D01*
X140377500Y-102773464D01*
X140570977Y-102637990D01*
X140737990Y-102470977D01*
X140970000Y-102139631D01*
X141202011Y-102470978D01*
X141369020Y-102637987D01*
X141562502Y-102773465D01*
X141776562Y-102873284D01*
X141990000Y-102930474D01*
X141990000Y-101350000D01*
X143570475Y-101350001D01*
X143513283Y-101136561D01*
X143413465Y-100922502D01*
X143277987Y-100729020D01*
X143110980Y-100562013D01*
X142917498Y-100426535D01*
X142703438Y-100326716D01*
X142490000Y-100269526D01*
X142489999Y-101350000D01*
X141990000Y-101350000D01*
X141990001Y-100269525D01*
X141776561Y-100326717D01*
X141562502Y-100426535D01*
X141369020Y-100562013D01*
X141202011Y-100729022D01*
X140970000Y-101060369D01*
X140737990Y-100729023D01*
X140570977Y-100562010D01*
X140377500Y-100426536D01*
X140361968Y-100419293D01*
X140163437Y-100326716D01*
X139935291Y-100265584D01*
X139700000Y-100244999D01*
X139464709Y-100265584D01*
X139236561Y-100326717D01*
X139022500Y-100426536D01*
X138829023Y-100562010D01*
X138662010Y-100729023D01*
X138430000Y-101060369D01*
X138197990Y-100729023D01*
X138030977Y-100562010D01*
X137837500Y-100426536D01*
X137821968Y-100419293D01*
X137623437Y-100326716D01*
X137395291Y-100265584D01*
X137160000Y-100244999D01*
X136924709Y-100265584D01*
X136696561Y-100326717D01*
X136482500Y-100426536D01*
X136289023Y-100562010D01*
X136122010Y-100729023D01*
X135890000Y-101060369D01*
X135657990Y-100729023D01*
X135490977Y-100562010D01*
X135297500Y-100426536D01*
X135281968Y-100419293D01*
X135083437Y-100326716D01*
X134855291Y-100265584D01*
X134620000Y-100244999D01*
X134384709Y-100265584D01*
X134156561Y-100326717D01*
X133942500Y-100426536D01*
X133749023Y-100562010D01*
X133582010Y-100729023D01*
X133350000Y-101060369D01*
X133117990Y-100729023D01*
X132950977Y-100562010D01*
X132757500Y-100426536D01*
X132741968Y-100419293D01*
X132543437Y-100326716D01*
X132315291Y-100265584D01*
X132080000Y-100244999D01*
X131844709Y-100265584D01*
X131616561Y-100326717D01*
X131402500Y-100426536D01*
X131209023Y-100562010D01*
X131042010Y-100729023D01*
X130810000Y-101060369D01*
X130577990Y-100729023D01*
X130410977Y-100562010D01*
X130217500Y-100426536D01*
X130201968Y-100419293D01*
X130003437Y-100326716D01*
X129775291Y-100265584D01*
X129540000Y-100244999D01*
X129304709Y-100265584D01*
X129076561Y-100326717D01*
X128862500Y-100426536D01*
X128669023Y-100562010D01*
X128502010Y-100729023D01*
X128270000Y-101060369D01*
X128037990Y-100729023D01*
X127870977Y-100562010D01*
X127677500Y-100426536D01*
X127661968Y-100419293D01*
X127463437Y-100326716D01*
X127235291Y-100265584D01*
X127000000Y-100244999D01*
X126764709Y-100265584D01*
X126536561Y-100326717D01*
X126322500Y-100426536D01*
X126129023Y-100562010D01*
X125962010Y-100729023D01*
X125730000Y-101060369D01*
X125497990Y-100729023D01*
X125330977Y-100562010D01*
X125137500Y-100426536D01*
X125121968Y-100419293D01*
X124923437Y-100326716D01*
X124695291Y-100265584D01*
X124460000Y-100244999D01*
X124224709Y-100265584D01*
X123996561Y-100326717D01*
X123782500Y-100426536D01*
X123589023Y-100562010D01*
X123422010Y-100729023D01*
X123190000Y-101060369D01*
X122957990Y-100729023D01*
X122790977Y-100562010D01*
X122597500Y-100426536D01*
X122581968Y-100419293D01*
X122383437Y-100326716D01*
X122155291Y-100265584D01*
X121920000Y-100244999D01*
X121684709Y-100265584D01*
X121456561Y-100326717D01*
X121242500Y-100426536D01*
X121049023Y-100562010D01*
X120882010Y-100729023D01*
X120650000Y-101060369D01*
X120417989Y-100729022D01*
X120250980Y-100562013D01*
X120057498Y-100426535D01*
X119843438Y-100326716D01*
X119630000Y-100269526D01*
X119629999Y-101350001D01*
X119130000Y-101350001D01*
X119130001Y-100269525D01*
X118916561Y-100326717D01*
X118702502Y-100426535D01*
X118509020Y-100562013D01*
X118342011Y-100729022D01*
X118110000Y-101060369D01*
X117877990Y-100729023D01*
X117710977Y-100562010D01*
X117517500Y-100426536D01*
X117501968Y-100419293D01*
X117303437Y-100326716D01*
X117075291Y-100265584D01*
X116840000Y-100244999D01*
X116604709Y-100265584D01*
X116376561Y-100326717D01*
X116162500Y-100426536D01*
X115969023Y-100562010D01*
X115838094Y-100692939D01*
X115776771Y-100726424D01*
X115707079Y-100721440D01*
X115651146Y-100679568D01*
X115629247Y-100631615D01*
X115609365Y-100540216D01*
X115531653Y-100419293D01*
X115423024Y-100325167D01*
X115292276Y-100265456D01*
X115150000Y-100245000D01*
X113449999Y-100245000D01*
X113240216Y-100290635D01*
X113119293Y-100368347D01*
X113025167Y-100476976D01*
X112965456Y-100607724D01*
X112945000Y-100750000D01*
X104775000Y-100750000D01*
X104775000Y-98780600D01*
X168884600Y-98780600D01*
X168879008Y-103080660D01*
G37*
G04 #@! TD.AperFunction*
G04 #@! TA.AperFunction,Conductor*
G36*
X169037000Y-137402083D02*
G01*
X169017315Y-137469122D01*
X168964511Y-137514877D01*
X168895353Y-137524821D01*
X168818710Y-137482614D01*
X168702938Y-137347062D01*
X168508387Y-137180899D01*
X168290232Y-137047214D01*
X168053853Y-136949302D01*
X167805068Y-136889574D01*
X167550000Y-136869500D01*
X167294932Y-136889574D01*
X167046147Y-136949302D01*
X166809768Y-137047214D01*
X166591613Y-137180899D01*
X166397062Y-137347062D01*
X166230899Y-137541613D01*
X166097214Y-137759768D01*
X165999302Y-137996147D01*
X165939574Y-138244933D01*
X165919500Y-138500000D01*
X165939574Y-138755068D01*
X165999302Y-139003852D01*
X166097215Y-139240233D01*
X166230899Y-139458387D01*
X166397062Y-139652938D01*
X166591613Y-139819101D01*
X166644114Y-139851273D01*
X166690989Y-139903085D01*
X166702412Y-139972014D01*
X166674755Y-140036177D01*
X166616799Y-140075202D01*
X166579324Y-140081000D01*
X160909000Y-140081000D01*
X160909000Y-133477000D01*
X169037000Y-133477000D01*
X169037000Y-137402083D01*
G37*
G04 #@! TD.AperFunction*
G04 #@! TA.AperFunction,Conductor*
G36*
X105128259Y-115707466D02*
G01*
X105136581Y-115720184D01*
X105143080Y-115727400D01*
X105184707Y-115769026D01*
X105224587Y-115815555D01*
X105254223Y-115838542D01*
X106118801Y-116703122D01*
X106175386Y-116762959D01*
X106228571Y-116800199D01*
X106278891Y-116841239D01*
X106311611Y-116858344D01*
X106341857Y-116879523D01*
X106401441Y-116905307D01*
X106458989Y-116935393D01*
X106494487Y-116945572D01*
X106528367Y-116960233D01*
X106591925Y-116973511D01*
X106654340Y-116991408D01*
X106691153Y-116994241D01*
X106727297Y-117001792D01*
X106736987Y-117002300D01*
X106795891Y-117002300D01*
X106856968Y-117006999D01*
X106894164Y-117002300D01*
X109669180Y-117002300D01*
X111470701Y-118803821D01*
X111470700Y-128261979D01*
X110913780Y-128818900D01*
X107653881Y-128818900D01*
X107571557Y-128816601D01*
X107507621Y-128827875D01*
X107443018Y-128834436D01*
X107407780Y-128845479D01*
X107371422Y-128851890D01*
X107311058Y-128875790D01*
X107249091Y-128895209D01*
X107216793Y-128913112D01*
X107182469Y-128926702D01*
X107128143Y-128962252D01*
X107071348Y-128993734D01*
X107043318Y-129017759D01*
X107012418Y-129037980D01*
X107005200Y-129044479D01*
X106963562Y-129086118D01*
X106917045Y-129125988D01*
X106894057Y-129155623D01*
X105234681Y-130815000D01*
X105109998Y-130815000D01*
X104900500Y-130860573D01*
X104900500Y-127000000D01*
X105324999Y-127000000D01*
X105345584Y-127235291D01*
X105406717Y-127463439D01*
X105506536Y-127677500D01*
X105642010Y-127870977D01*
X105809023Y-128037990D01*
X106002500Y-128173464D01*
X106216563Y-128273284D01*
X106444709Y-128334416D01*
X106680000Y-128355001D01*
X106915291Y-128334416D01*
X107143437Y-128273284D01*
X107357500Y-128173464D01*
X107550977Y-128037990D01*
X107717990Y-127870977D01*
X107853464Y-127677500D01*
X107853956Y-127676446D01*
X107953283Y-127463439D01*
X108014416Y-127235291D01*
X108035001Y-127000000D01*
X108014416Y-126764709D01*
X107953283Y-126536561D01*
X107853465Y-126322502D01*
X107717990Y-126129023D01*
X107587061Y-125998094D01*
X107553576Y-125936771D01*
X107558560Y-125867079D01*
X107600432Y-125811146D01*
X107648385Y-125789247D01*
X107739784Y-125769365D01*
X107860707Y-125691653D01*
X107954832Y-125583025D01*
X108014544Y-125452276D01*
X108035000Y-125310000D01*
X108035000Y-124710000D01*
X105325000Y-124709999D01*
X105325000Y-125310001D01*
X105370635Y-125519784D01*
X105448347Y-125640707D01*
X105556975Y-125734832D01*
X105687724Y-125794544D01*
X105694991Y-125795589D01*
X105758547Y-125824614D01*
X105796321Y-125883392D01*
X105796321Y-125953262D01*
X105765025Y-126006008D01*
X105642010Y-126129023D01*
X105506535Y-126322502D01*
X105406717Y-126536561D01*
X105345584Y-126764709D01*
X105324999Y-127000000D01*
X104900500Y-127000000D01*
X104900500Y-121920000D01*
X105324999Y-121920000D01*
X105345584Y-122155291D01*
X105357791Y-122200846D01*
X105406716Y-122383437D01*
X105506536Y-122597500D01*
X105642010Y-122790977D01*
X105772939Y-122921906D01*
X105806424Y-122983229D01*
X105801440Y-123052921D01*
X105759568Y-123108854D01*
X105711615Y-123130753D01*
X105620216Y-123150635D01*
X105499293Y-123228347D01*
X105405168Y-123336975D01*
X105345456Y-123467724D01*
X105325000Y-123610000D01*
X105325000Y-124210000D01*
X108035000Y-124210001D01*
X108035000Y-123609999D01*
X107989365Y-123400216D01*
X107911653Y-123279293D01*
X107803025Y-123185168D01*
X107672276Y-123125456D01*
X107665009Y-123124411D01*
X107601453Y-123095386D01*
X107563679Y-123036608D01*
X107563679Y-122966738D01*
X107594975Y-122913992D01*
X107717990Y-122790977D01*
X107853464Y-122597500D01*
X107953284Y-122383437D01*
X108014416Y-122155291D01*
X108035001Y-121920000D01*
X108014416Y-121684709D01*
X107953284Y-121456563D01*
X107853464Y-121242500D01*
X107717990Y-121049023D01*
X107587061Y-120918094D01*
X107553576Y-120856771D01*
X107558560Y-120787079D01*
X107600432Y-120731146D01*
X107648385Y-120709247D01*
X107739784Y-120689365D01*
X107860707Y-120611653D01*
X107954832Y-120503025D01*
X108014544Y-120372276D01*
X108035000Y-120230000D01*
X108035000Y-119630000D01*
X105325000Y-119629999D01*
X105325000Y-120230001D01*
X105370635Y-120439784D01*
X105448347Y-120560707D01*
X105556975Y-120654832D01*
X105687724Y-120714544D01*
X105694991Y-120715589D01*
X105758547Y-120744614D01*
X105796321Y-120803392D01*
X105796321Y-120873262D01*
X105765025Y-120926008D01*
X105642010Y-121049023D01*
X105506536Y-121242500D01*
X105406716Y-121456563D01*
X105345584Y-121684709D01*
X105324999Y-121920000D01*
X104900500Y-121920000D01*
X104900500Y-118530000D01*
X105325000Y-118530000D01*
X105325000Y-119130000D01*
X108035000Y-119130001D01*
X108035000Y-118529999D01*
X107989365Y-118320216D01*
X107911653Y-118199293D01*
X107803025Y-118105168D01*
X107672276Y-118045456D01*
X107530000Y-118025000D01*
X106930000Y-118025000D01*
X106929999Y-119130000D01*
X106430000Y-119130000D01*
X106430001Y-118025000D01*
X105829999Y-118025000D01*
X105620216Y-118070635D01*
X105499293Y-118148347D01*
X105405168Y-118256975D01*
X105345456Y-118387724D01*
X105325000Y-118530000D01*
X104900500Y-118530000D01*
X104900500Y-115775364D01*
X104920185Y-115708325D01*
X104972989Y-115662570D01*
X105042147Y-115652626D01*
X105128259Y-115707466D01*
G37*
G04 #@! TD.AperFunction*
G04 #@! TD*
G04 #@! TA.AperFunction,Conductor*
G04 #@! TO.N,/3-12v*
G36*
X162001200Y-105283000D02*
G01*
X162534600Y-117449600D01*
X168655999Y-119024400D01*
X168605199Y-127609600D01*
X162153600Y-127609600D01*
X155498800Y-123317000D01*
X155460700Y-105257600D01*
X162001200Y-105283000D01*
G37*
G04 #@! TD.AperFunction*
G04 #@! TD*
M02*
