G04 #@! TF.GenerationSoftware,KiCad,Pcbnew,5.99.0-unknown-89dcc4689~104~ubuntu20.04.1*
G04 #@! TF.CreationDate,2020-10-12T19:49:41-07:00*
G04 #@! TF.ProjectId,signal-board,7369676e-616c-42d6-926f-6172642e6b69,rev?*
G04 #@! TF.SameCoordinates,Original*
G04 #@! TF.FileFunction,Copper,L2,Inr*
G04 #@! TF.FilePolarity,Positive*
%FSLAX46Y46*%
G04 Gerber Fmt 4.6, Leading zero omitted, Abs format (unit mm)*
G04 Created by KiCad (PCBNEW 5.99.0-unknown-89dcc4689~104~ubuntu20.04.1) date 2020-10-12 19:49:41*
%MOMM*%
%LPD*%
G01*
G04 APERTURE LIST*
G04 #@! TA.AperFunction,ComponentPad*
%ADD10R,1.700000X1.700000*%
G04 #@! TD*
G04 #@! TA.AperFunction,ComponentPad*
%ADD11O,1.700000X1.700000*%
G04 #@! TD*
G04 #@! TA.AperFunction,ComponentPad*
%ADD12R,2.000000X4.000000*%
G04 #@! TD*
G04 #@! TA.AperFunction,ComponentPad*
%ADD13O,2.000000X3.300000*%
G04 #@! TD*
G04 #@! TA.AperFunction,ComponentPad*
%ADD14O,3.500000X2.000000*%
G04 #@! TD*
G04 #@! TA.AperFunction,ComponentPad*
%ADD15R,1.560000X1.560000*%
G04 #@! TD*
G04 #@! TA.AperFunction,ComponentPad*
%ADD16C,1.560000*%
G04 #@! TD*
G04 #@! TA.AperFunction,ComponentPad*
%ADD17R,1.800000X1.800000*%
G04 #@! TD*
G04 #@! TA.AperFunction,ComponentPad*
%ADD18C,1.800000*%
G04 #@! TD*
G04 #@! TA.AperFunction,ComponentPad*
%ADD19C,0.600000*%
G04 #@! TD*
G04 #@! TA.AperFunction,ViaPad*
%ADD20C,0.508000*%
G04 #@! TD*
G04 #@! TA.AperFunction,Conductor*
%ADD21C,0.254000*%
G04 #@! TD*
G04 APERTURE END LIST*
D10*
G04 #@! TO.N,+3V3*
G04 #@! TO.C,J4*
X109220000Y-137160000D03*
D11*
G04 #@! TO.N,/en*
X111760000Y-137160000D03*
G04 #@! TO.N,/sensor_vp*
X114300000Y-137160000D03*
G04 #@! TO.N,/sensor_vn*
X116840000Y-137160000D03*
G04 #@! TO.N,/io34*
X119380000Y-137160000D03*
G04 #@! TO.N,/io35*
X121920000Y-137160000D03*
G04 #@! TO.N,/io25*
X124460000Y-137160000D03*
G04 #@! TO.N,/uart_tx*
X127000000Y-137160000D03*
G04 #@! TO.N,/uart_rx*
X129540000Y-137160000D03*
G04 #@! TO.N,/vspi_mosi*
X132080000Y-137160000D03*
G04 #@! TO.N,/vspi_miso*
X134620000Y-137160000D03*
G04 #@! TO.N,/vspi_clk*
X137160000Y-137160000D03*
G04 #@! TO.N,/vspi_cs*
X139700000Y-137160000D03*
G04 #@! TO.N,GND*
X142240000Y-137160000D03*
G04 #@! TO.N,+5V*
X144780000Y-137160000D03*
G04 #@! TO.N,/3-12v*
X147320000Y-137160000D03*
G04 #@! TD*
D10*
G04 #@! TO.N,/i2c_scl*
G04 #@! TO.C,J2*
X114300000Y-101600000D03*
D11*
G04 #@! TO.N,/i2c_sda*
X116840000Y-101600000D03*
G04 #@! TO.N,GND*
X119380000Y-101600000D03*
G04 #@! TO.N,/pixels_8*
X121920000Y-101600000D03*
G04 #@! TO.N,/pixels_7*
X124460000Y-101600000D03*
G04 #@! TO.N,/pixels_6*
X127000000Y-101600000D03*
G04 #@! TO.N,/pixels_5*
X129540000Y-101600000D03*
G04 #@! TO.N,/pixels_4*
X132080000Y-101600000D03*
G04 #@! TO.N,/pixels_3*
X134620000Y-101600000D03*
G04 #@! TO.N,/pixels_2*
X137160000Y-101600000D03*
G04 #@! TO.N,/pixels_1*
X139700000Y-101600000D03*
G04 #@! TO.N,GND*
X142240000Y-101600000D03*
G04 #@! TD*
D12*
G04 #@! TO.N,/3-12v*
G04 #@! TO.C,J1*
X159652200Y-108483400D03*
D13*
G04 #@! TO.N,GND*
X165652200Y-108483400D03*
D14*
G04 #@! TO.N,N/C*
X166652200Y-103983400D03*
X166652200Y-112983400D03*
G04 #@! TD*
D15*
G04 #@! TO.N,+3V3*
G04 #@! TO.C,U2*
X105890000Y-132100000D03*
D16*
G04 #@! TO.N,/en*
X108430000Y-132100000D03*
G04 #@! TO.N,/sensor_vp*
X110970000Y-132100000D03*
G04 #@! TO.N,/sensor_vn*
X113510000Y-132100000D03*
G04 #@! TO.N,/io34*
X116050000Y-132100000D03*
G04 #@! TO.N,/io35*
X118590000Y-132100000D03*
G04 #@! TO.N,Net-(U2-Pad7)*
X121130000Y-132100000D03*
G04 #@! TO.N,Net-(U2-Pad8)*
X123670000Y-132100000D03*
G04 #@! TO.N,/io25*
X126210000Y-132100000D03*
G04 #@! TO.N,/level_shift_4*
X128750000Y-132100000D03*
G04 #@! TO.N,/level_shift_3*
X131290000Y-132100000D03*
G04 #@! TO.N,/status_led*
X133830000Y-132100000D03*
G04 #@! TO.N,/level_shift_2*
X136370000Y-132100000D03*
G04 #@! TO.N,GND*
X138910000Y-132100000D03*
G04 #@! TO.N,/level_shift_1*
X141450000Y-132100000D03*
G04 #@! TO.N,Net-(U2-Pad16)*
X143990000Y-132100000D03*
G04 #@! TO.N,Net-(U2-Pad17)*
X146530000Y-132100000D03*
G04 #@! TO.N,Net-(U2-Pad18)*
X149070000Y-132100000D03*
G04 #@! TO.N,+5V*
X151610000Y-132100000D03*
G04 #@! TO.N,GND*
X105890000Y-106700000D03*
G04 #@! TO.N,/vspi_mosi*
X108430000Y-106700000D03*
G04 #@! TO.N,/i2c_scl*
X110970000Y-106700000D03*
G04 #@! TO.N,/uart_tx*
X113510000Y-106700000D03*
G04 #@! TO.N,/uart_rx*
X116050000Y-106700000D03*
G04 #@! TO.N,/i2c_sda*
X118590000Y-106700000D03*
G04 #@! TO.N,GND*
X121130000Y-106700000D03*
G04 #@! TO.N,/vspi_miso*
X123670000Y-106700000D03*
G04 #@! TO.N,/vspi_clk*
X126210000Y-106700000D03*
G04 #@! TO.N,/vspi_cs*
X128750000Y-106700000D03*
G04 #@! TO.N,/level_shift_8*
X131290000Y-106700000D03*
G04 #@! TO.N,/level_shift_7*
X133830000Y-106700000D03*
G04 #@! TO.N,/level_shift_6*
X136370000Y-106700000D03*
G04 #@! TO.N,/button_2*
X138910000Y-106700000D03*
G04 #@! TO.N,/level_shift_5*
X141450000Y-106700000D03*
G04 #@! TO.N,/button_1*
X143990000Y-106700000D03*
G04 #@! TO.N,Net-(U2-Pad36)*
X146530000Y-106700000D03*
G04 #@! TO.N,Net-(U2-Pad37)*
X149070000Y-106700000D03*
G04 #@! TO.N,Net-(U2-Pad38)*
X151610000Y-106700000D03*
G04 #@! TD*
D17*
G04 #@! TO.N,Net-(D2-Pad1)*
G04 #@! TO.C,D2*
X112268000Y-110998000D03*
D18*
G04 #@! TO.N,/status_led*
X114808000Y-110998000D03*
G04 #@! TD*
D17*
G04 #@! TO.N,Net-(D1-Pad1)*
G04 #@! TO.C,D1*
X108458000Y-110998000D03*
D18*
G04 #@! TO.N,+3V3*
X105918000Y-110998000D03*
G04 #@! TD*
D10*
G04 #@! TO.N,GND*
G04 #@! TO.C,J5*
X106680000Y-124460000D03*
D11*
G04 #@! TO.N,Net-(J5-Pad2)*
X106680000Y-127000000D03*
G04 #@! TD*
D19*
G04 #@! TO.N,GND*
G04 #@! TO.C,U1*
X151814000Y-117081500D03*
X151314000Y-116581500D03*
X151314000Y-117581500D03*
X152314000Y-117581500D03*
X152314000Y-116581500D03*
G04 #@! TD*
D10*
G04 #@! TO.N,GND*
G04 #@! TO.C,J6*
X106680000Y-119380000D03*
D11*
G04 #@! TO.N,Net-(J6-Pad2)*
X106680000Y-121920000D03*
G04 #@! TD*
D20*
G04 #@! TO.N,GND*
X168148000Y-117312000D03*
X153822400Y-124993400D03*
X154051000Y-108940600D03*
X161544000Y-136192000D03*
X163315400Y-99568000D03*
X109829600Y-120675400D03*
X164592000Y-106172000D03*
X162315400Y-101568000D03*
X163315400Y-101568000D03*
X163648000Y-115062000D03*
X163315400Y-100568000D03*
X165315400Y-101568000D03*
X162315400Y-99568000D03*
X163544000Y-137192000D03*
X162315400Y-100568000D03*
X162544000Y-139192000D03*
X147980400Y-123164600D03*
X117348000Y-124155200D03*
X146558000Y-110744000D03*
X164315400Y-99568000D03*
X165898000Y-116562000D03*
X164544000Y-139192000D03*
X165862000Y-106172000D03*
X150571200Y-123266200D03*
X113588800Y-114147600D03*
X164544000Y-136192000D03*
X164398000Y-115812000D03*
X161544000Y-139192000D03*
X119380000Y-119253000D03*
X163322000Y-106172000D03*
X164398000Y-115062000D03*
X106654600Y-128727200D03*
X163544000Y-136192000D03*
X165544000Y-139192000D03*
X164544000Y-137192000D03*
X113969800Y-125958600D03*
X109829600Y-125857000D03*
X164398000Y-116562000D03*
X138836400Y-116484400D03*
X168148000Y-116562000D03*
X164315400Y-100568000D03*
X164544000Y-138192000D03*
X146888200Y-126619000D03*
X163544000Y-139192000D03*
X162544000Y-138192000D03*
X153746200Y-127558800D03*
X165898000Y-115812000D03*
X161544000Y-134874000D03*
X142494000Y-110744000D03*
X122656600Y-123367800D03*
X166648000Y-116562000D03*
X138785600Y-128524000D03*
X138176000Y-121285000D03*
X165315400Y-99568000D03*
X150622000Y-120116600D03*
X147574000Y-110744000D03*
X163648000Y-116562000D03*
X120523000Y-129641600D03*
X153111200Y-120650000D03*
X152450800Y-120116600D03*
X161544000Y-137192000D03*
X151511000Y-120116600D03*
X166648000Y-115812000D03*
X143383000Y-110744000D03*
X167132000Y-106172000D03*
X162544000Y-136192000D03*
X161315400Y-100568000D03*
X144399000Y-110744000D03*
X166648000Y-117312000D03*
X161315400Y-101568000D03*
X167544000Y-136192000D03*
X167398000Y-116562000D03*
X142621000Y-122936000D03*
X166544000Y-136192000D03*
X165544000Y-138192000D03*
X167398000Y-115812000D03*
X139014200Y-122428000D03*
X165148000Y-116562000D03*
X138176000Y-122428000D03*
X116052600Y-114249200D03*
X115189000Y-117602000D03*
X167398000Y-117312000D03*
X165898000Y-115062000D03*
X165148000Y-115062000D03*
X150114000Y-127076200D03*
X167398000Y-115062000D03*
X107162600Y-114071400D03*
X106730800Y-117576600D03*
X165315400Y-100568000D03*
X144983200Y-124764800D03*
X166648000Y-115062000D03*
X139014200Y-121285000D03*
X168148000Y-115062000D03*
X113919000Y-120599200D03*
X135280400Y-119938800D03*
X153873200Y-122377200D03*
X145415000Y-110744000D03*
X164315400Y-101568000D03*
X162544000Y-137192000D03*
X119253000Y-118059200D03*
X163648000Y-115812000D03*
X161315400Y-99568000D03*
X161544000Y-138192000D03*
X125349000Y-127381000D03*
X168148000Y-115812000D03*
X165544000Y-136192000D03*
X163544000Y-138192000D03*
X165544000Y-137192000D03*
X144221200Y-129844800D03*
X150342600Y-109016800D03*
X165148000Y-115812000D03*
X138607800Y-114223800D03*
X119253000Y-125476000D03*
G04 #@! TO.N,+3V3*
X121398000Y-125531000D03*
X121384200Y-120165000D03*
G04 #@! TO.N,/3-12v*
X157988000Y-119888000D03*
X161258000Y-106744000D03*
X158083000Y-110718600D03*
X161258000Y-110744000D03*
X157988000Y-123698000D03*
X161258000Y-107744000D03*
X157988000Y-124333000D03*
X157988000Y-119253000D03*
X158083000Y-109718600D03*
X161258000Y-109744000D03*
X157988000Y-120523000D03*
X159149800Y-105714800D03*
X157988000Y-121793000D03*
X157988000Y-121158000D03*
X160191200Y-105714800D03*
X161258000Y-108744000D03*
X157988000Y-122428000D03*
X161258000Y-105744000D03*
X158083000Y-107718600D03*
X158083000Y-106718600D03*
X158083000Y-105718600D03*
X158083000Y-108718600D03*
X157988000Y-123063000D03*
G04 #@! TO.N,/button_2*
X126365000Y-120142000D03*
G04 #@! TO.N,/button_1*
X127635000Y-120650000D03*
G04 #@! TO.N,/pixels_2*
X135051800Y-108280200D03*
X159664400Y-132130800D03*
G04 #@! TO.N,/pixels_1*
X137668000Y-108712000D03*
X159562800Y-129489200D03*
G04 #@! TO.N,/level_shift_5*
X130175000Y-123698000D03*
G04 #@! TO.N,/level_shift_6*
X128905000Y-122809000D03*
G04 #@! TO.N,/level_shift_7*
X127635000Y-122047000D03*
G04 #@! TO.N,/level_shift_8*
X126365000Y-123063000D03*
G04 #@! TO.N,Net-(R3-Pad2)*
X144399000Y-118897400D03*
X153492200Y-119227600D03*
G04 #@! TD*
D21*
G04 #@! TO.N,/level_shift_5*
X141450000Y-106700000D02*
X141450000Y-112423000D01*
X141450000Y-112423000D02*
X130175000Y-123698000D01*
G04 #@! TO.N,/level_shift_6*
X129032000Y-122809000D02*
X128905000Y-122809000D01*
X135636000Y-113411000D02*
X132080000Y-116967000D01*
X135636000Y-108966000D02*
X135636000Y-113411000D01*
X132080000Y-116967000D02*
X132080000Y-119761000D01*
X132080000Y-119761000D02*
X129032000Y-122809000D01*
X136370000Y-108232000D02*
X135636000Y-108966000D01*
X136370000Y-106700000D02*
X136370000Y-108232000D01*
G04 #@! TO.N,/level_shift_7*
X129540000Y-120142000D02*
X127635000Y-122047000D01*
X133223000Y-108712000D02*
X133223000Y-113030000D01*
X133830000Y-106700000D02*
X133830000Y-108105000D01*
X133830000Y-108105000D02*
X133223000Y-108712000D01*
X133223000Y-113030000D02*
X129540000Y-116713000D01*
X129540000Y-116713000D02*
X129540000Y-120142000D01*
G04 #@! TO.N,/level_shift_8*
X131290000Y-106700000D02*
X128651000Y-109339000D01*
X125730000Y-116586000D02*
X125730000Y-122428000D01*
X128651000Y-109339000D02*
X128651000Y-113157000D01*
X125730000Y-122428000D02*
X126365000Y-123063000D01*
X128651000Y-113665000D02*
X125730000Y-116586000D01*
X128651000Y-113157000D02*
X128651000Y-113665000D01*
G04 #@! TD*
M02*
