G04 #@! TF.GenerationSoftware,KiCad,Pcbnew,5.99.0-unknown-89dcc4689~104~ubuntu20.04.1*
G04 #@! TF.CreationDate,2020-10-12T19:49:43-07:00*
G04 #@! TF.ProjectId,signal-board,7369676e-616c-42d6-926f-6172642e6b69,rev?*
G04 #@! TF.SameCoordinates,Original*
G04 #@! TF.FileFunction,Soldermask,Bot*
G04 #@! TF.FilePolarity,Negative*
%FSLAX46Y46*%
G04 Gerber Fmt 4.6, Leading zero omitted, Abs format (unit mm)*
G04 Created by KiCad (PCBNEW 5.99.0-unknown-89dcc4689~104~ubuntu20.04.1) date 2020-10-12 19:49:43*
%MOMM*%
%LPD*%
G01*
G04 APERTURE LIST*
%ADD10O,1.801600X1.801600*%
%ADD11C,1.701600*%
%ADD12O,2.101600X3.401600*%
%ADD13O,3.601600X2.101600*%
%ADD14C,1.661600*%
%ADD15C,1.901600*%
%ADD16C,1.101600*%
%ADD17O,0.990000X0.420000*%
%ADD18C,0.701600*%
G04 APERTURE END LIST*
G04 #@! TO.C,J4*
G36*
G01*
X110070000Y-138060800D02*
X108370000Y-138060800D01*
G75*
G02*
X108319200Y-138010000I0J50800D01*
G01*
X108319200Y-136310000D01*
G75*
G02*
X108370000Y-136259200I50800J0D01*
G01*
X110070000Y-136259200D01*
G75*
G02*
X110120800Y-136310000I0J-50800D01*
G01*
X110120800Y-138010000D01*
G75*
G02*
X110070000Y-138060800I-50800J0D01*
G01*
G37*
D10*
X111760000Y-137160000D03*
X114300000Y-137160000D03*
X116840000Y-137160000D03*
X119380000Y-137160000D03*
X121920000Y-137160000D03*
X124460000Y-137160000D03*
X127000000Y-137160000D03*
X129540000Y-137160000D03*
X132080000Y-137160000D03*
X134620000Y-137160000D03*
X137160000Y-137160000D03*
X139700000Y-137160000D03*
X142240000Y-137160000D03*
X144780000Y-137160000D03*
X147320000Y-137160000D03*
G04 #@! TD*
G04 #@! TO.C,J2*
G36*
G01*
X115150000Y-102500800D02*
X113450000Y-102500800D01*
G75*
G02*
X113399200Y-102450000I0J50800D01*
G01*
X113399200Y-100750000D01*
G75*
G02*
X113450000Y-100699200I50800J0D01*
G01*
X115150000Y-100699200D01*
G75*
G02*
X115200800Y-100750000I0J-50800D01*
G01*
X115200800Y-102450000D01*
G75*
G02*
X115150000Y-102500800I-50800J0D01*
G01*
G37*
X116840000Y-101600000D03*
X119380000Y-101600000D03*
X121920000Y-101600000D03*
X124460000Y-101600000D03*
X127000000Y-101600000D03*
X129540000Y-101600000D03*
X132080000Y-101600000D03*
X134620000Y-101600000D03*
X137160000Y-101600000D03*
X139700000Y-101600000D03*
X142240000Y-101600000D03*
G04 #@! TD*
D11*
G04 #@! TO.C,J1*
X168652200Y-108483400D03*
G36*
G01*
X160652200Y-110534200D02*
X158652200Y-110534200D01*
G75*
G02*
X158601400Y-110483400I0J50800D01*
G01*
X158601400Y-106483400D01*
G75*
G02*
X158652200Y-106432600I50800J0D01*
G01*
X160652200Y-106432600D01*
G75*
G02*
X160703000Y-106483400I0J-50800D01*
G01*
X160703000Y-110483400D01*
G75*
G02*
X160652200Y-110534200I-50800J0D01*
G01*
G37*
D12*
X165652200Y-108483400D03*
D13*
X166652200Y-103983400D03*
X166652200Y-112983400D03*
G04 #@! TD*
G04 #@! TO.C,U2*
G36*
G01*
X106670000Y-132930800D02*
X105110000Y-132930800D01*
G75*
G02*
X105059200Y-132880000I0J50800D01*
G01*
X105059200Y-131320000D01*
G75*
G02*
X105110000Y-131269200I50800J0D01*
G01*
X106670000Y-131269200D01*
G75*
G02*
X106720800Y-131320000I0J-50800D01*
G01*
X106720800Y-132880000D01*
G75*
G02*
X106670000Y-132930800I-50800J0D01*
G01*
G37*
D14*
X108430000Y-132100000D03*
X110970000Y-132100000D03*
X113510000Y-132100000D03*
X116050000Y-132100000D03*
X118590000Y-132100000D03*
X121130000Y-132100000D03*
X123670000Y-132100000D03*
X126210000Y-132100000D03*
X128750000Y-132100000D03*
X131290000Y-132100000D03*
X133830000Y-132100000D03*
X136370000Y-132100000D03*
X138910000Y-132100000D03*
X141450000Y-132100000D03*
X143990000Y-132100000D03*
X146530000Y-132100000D03*
X149070000Y-132100000D03*
X151610000Y-132100000D03*
X105890000Y-106700000D03*
X108430000Y-106700000D03*
X110970000Y-106700000D03*
X113510000Y-106700000D03*
X116050000Y-106700000D03*
X118590000Y-106700000D03*
X121130000Y-106700000D03*
X123670000Y-106700000D03*
X126210000Y-106700000D03*
X128750000Y-106700000D03*
X131290000Y-106700000D03*
X133830000Y-106700000D03*
X136370000Y-106700000D03*
X138910000Y-106700000D03*
X141450000Y-106700000D03*
X143990000Y-106700000D03*
X146530000Y-106700000D03*
X149070000Y-106700000D03*
X151610000Y-106700000D03*
G04 #@! TD*
G04 #@! TO.C,R4*
G36*
G01*
X117658100Y-125144200D02*
X118053900Y-125144200D01*
G75*
G02*
X118226800Y-125317100I0J-172900D01*
G01*
X118226800Y-125662900D01*
G75*
G02*
X118053900Y-125835800I-172900J0D01*
G01*
X117658100Y-125835800D01*
G75*
G02*
X117485200Y-125662900I0J172900D01*
G01*
X117485200Y-125317100D01*
G75*
G02*
X117658100Y-125144200I172900J0D01*
G01*
G37*
G36*
G01*
X117658100Y-126114200D02*
X118053900Y-126114200D01*
G75*
G02*
X118226800Y-126287100I0J-172900D01*
G01*
X118226800Y-126632900D01*
G75*
G02*
X118053900Y-126805800I-172900J0D01*
G01*
X117658100Y-126805800D01*
G75*
G02*
X117485200Y-126632900I0J172900D01*
G01*
X117485200Y-126287100D01*
G75*
G02*
X117658100Y-126114200I172900J0D01*
G01*
G37*
G04 #@! TD*
G04 #@! TO.C,R2*
G36*
G01*
X147249100Y-117203000D02*
X147644900Y-117203000D01*
G75*
G02*
X147817800Y-117375900I0J-172900D01*
G01*
X147817800Y-117721700D01*
G75*
G02*
X147644900Y-117894600I-172900J0D01*
G01*
X147249100Y-117894600D01*
G75*
G02*
X147076200Y-117721700I0J172900D01*
G01*
X147076200Y-117375900D01*
G75*
G02*
X147249100Y-117203000I172900J0D01*
G01*
G37*
G36*
G01*
X147249100Y-118173000D02*
X147644900Y-118173000D01*
G75*
G02*
X147817800Y-118345900I0J-172900D01*
G01*
X147817800Y-118691700D01*
G75*
G02*
X147644900Y-118864600I-172900J0D01*
G01*
X147249100Y-118864600D01*
G75*
G02*
X147076200Y-118691700I0J172900D01*
G01*
X147076200Y-118345900D01*
G75*
G02*
X147249100Y-118173000I172900J0D01*
G01*
G37*
G04 #@! TD*
G04 #@! TO.C,D2*
G36*
G01*
X111317200Y-111898000D02*
X111317200Y-110098000D01*
G75*
G02*
X111368000Y-110047200I50800J0D01*
G01*
X113168000Y-110047200D01*
G75*
G02*
X113218800Y-110098000I0J-50800D01*
G01*
X113218800Y-111898000D01*
G75*
G02*
X113168000Y-111948800I-50800J0D01*
G01*
X111368000Y-111948800D01*
G75*
G02*
X111317200Y-111898000I0J50800D01*
G01*
G37*
D15*
X114808000Y-110998000D03*
G04 #@! TD*
D16*
G04 #@! TO.C,TP1*
X154228800Y-119634000D03*
G04 #@! TD*
G04 #@! TO.C,R12*
G36*
G01*
X132558713Y-112412800D02*
X131601287Y-112412800D01*
G75*
G02*
X131329200Y-112140713I0J272087D01*
G01*
X131329200Y-111433287D01*
G75*
G02*
X131601287Y-111161200I272087J0D01*
G01*
X132558713Y-111161200D01*
G75*
G02*
X132830800Y-111433287I0J-272087D01*
G01*
X132830800Y-112140713D01*
G75*
G02*
X132558713Y-112412800I-272087J0D01*
G01*
G37*
G36*
G01*
X132558713Y-110362800D02*
X131601287Y-110362800D01*
G75*
G02*
X131329200Y-110090713I0J272087D01*
G01*
X131329200Y-109383287D01*
G75*
G02*
X131601287Y-109111200I272087J0D01*
G01*
X132558713Y-109111200D01*
G75*
G02*
X132830800Y-109383287I0J-272087D01*
G01*
X132830800Y-110090713D01*
G75*
G02*
X132558713Y-110362800I-272087J0D01*
G01*
G37*
G04 #@! TD*
G04 #@! TO.C,C1*
G36*
G01*
X156184800Y-114956513D02*
X156184800Y-113999087D01*
G75*
G02*
X156456887Y-113727000I272087J0D01*
G01*
X157164313Y-113727000D01*
G75*
G02*
X157436400Y-113999087I0J-272087D01*
G01*
X157436400Y-114956513D01*
G75*
G02*
X157164313Y-115228600I-272087J0D01*
G01*
X156456887Y-115228600D01*
G75*
G02*
X156184800Y-114956513I0J272087D01*
G01*
G37*
G36*
G01*
X158234800Y-114956513D02*
X158234800Y-113999087D01*
G75*
G02*
X158506887Y-113727000I272087J0D01*
G01*
X159214313Y-113727000D01*
G75*
G02*
X159486400Y-113999087I0J-272087D01*
G01*
X159486400Y-114956513D01*
G75*
G02*
X159214313Y-115228600I-272087J0D01*
G01*
X158506887Y-115228600D01*
G75*
G02*
X158234800Y-114956513I0J272087D01*
G01*
G37*
G04 #@! TD*
G04 #@! TO.C,C6*
G36*
G01*
X145411113Y-116687400D02*
X144453687Y-116687400D01*
G75*
G02*
X144181600Y-116415313I0J272087D01*
G01*
X144181600Y-115707887D01*
G75*
G02*
X144453687Y-115435800I272087J0D01*
G01*
X145411113Y-115435800D01*
G75*
G02*
X145683200Y-115707887I0J-272087D01*
G01*
X145683200Y-116415313D01*
G75*
G02*
X145411113Y-116687400I-272087J0D01*
G01*
G37*
G36*
G01*
X145411113Y-114637400D02*
X144453687Y-114637400D01*
G75*
G02*
X144181600Y-114365313I0J272087D01*
G01*
X144181600Y-113657887D01*
G75*
G02*
X144453687Y-113385800I272087J0D01*
G01*
X145411113Y-113385800D01*
G75*
G02*
X145683200Y-113657887I0J-272087D01*
G01*
X145683200Y-114365313D01*
G75*
G02*
X145411113Y-114637400I-272087J0D01*
G01*
G37*
G04 #@! TD*
G04 #@! TO.C,R8*
G36*
G01*
X108209300Y-113266000D02*
X108605100Y-113266000D01*
G75*
G02*
X108778000Y-113438900I0J-172900D01*
G01*
X108778000Y-113784700D01*
G75*
G02*
X108605100Y-113957600I-172900J0D01*
G01*
X108209300Y-113957600D01*
G75*
G02*
X108036400Y-113784700I0J172900D01*
G01*
X108036400Y-113438900D01*
G75*
G02*
X108209300Y-113266000I172900J0D01*
G01*
G37*
G36*
G01*
X108209300Y-114236000D02*
X108605100Y-114236000D01*
G75*
G02*
X108778000Y-114408900I0J-172900D01*
G01*
X108778000Y-114754700D01*
G75*
G02*
X108605100Y-114927600I-172900J0D01*
G01*
X108209300Y-114927600D01*
G75*
G02*
X108036400Y-114754700I0J172900D01*
G01*
X108036400Y-114408900D01*
G75*
G02*
X108209300Y-114236000I172900J0D01*
G01*
G37*
G04 #@! TD*
G04 #@! TO.C,R10*
G36*
G01*
X137130713Y-112412800D02*
X136173287Y-112412800D01*
G75*
G02*
X135901200Y-112140713I0J272087D01*
G01*
X135901200Y-111433287D01*
G75*
G02*
X136173287Y-111161200I272087J0D01*
G01*
X137130713Y-111161200D01*
G75*
G02*
X137402800Y-111433287I0J-272087D01*
G01*
X137402800Y-112140713D01*
G75*
G02*
X137130713Y-112412800I-272087J0D01*
G01*
G37*
G36*
G01*
X137130713Y-110362800D02*
X136173287Y-110362800D01*
G75*
G02*
X135901200Y-110090713I0J272087D01*
G01*
X135901200Y-109383287D01*
G75*
G02*
X136173287Y-109111200I272087J0D01*
G01*
X137130713Y-109111200D01*
G75*
G02*
X137402800Y-109383287I0J-272087D01*
G01*
X137402800Y-110090713D01*
G75*
G02*
X137130713Y-110362800I-272087J0D01*
G01*
G37*
G04 #@! TD*
G04 #@! TO.C,C2*
G36*
G01*
X156213200Y-117090113D02*
X156213200Y-116132687D01*
G75*
G02*
X156485287Y-115860600I272087J0D01*
G01*
X157192713Y-115860600D01*
G75*
G02*
X157464800Y-116132687I0J-272087D01*
G01*
X157464800Y-117090113D01*
G75*
G02*
X157192713Y-117362200I-272087J0D01*
G01*
X156485287Y-117362200D01*
G75*
G02*
X156213200Y-117090113I0J272087D01*
G01*
G37*
G36*
G01*
X158263200Y-117090113D02*
X158263200Y-116132687D01*
G75*
G02*
X158535287Y-115860600I272087J0D01*
G01*
X159242713Y-115860600D01*
G75*
G02*
X159514800Y-116132687I0J-272087D01*
G01*
X159514800Y-117090113D01*
G75*
G02*
X159242713Y-117362200I-272087J0D01*
G01*
X158535287Y-117362200D01*
G75*
G02*
X158263200Y-117090113I0J272087D01*
G01*
G37*
G04 #@! TD*
G04 #@! TO.C,C13*
G36*
G01*
X158496200Y-124303713D02*
X158496200Y-123346287D01*
G75*
G02*
X158768287Y-123074200I272087J0D01*
G01*
X159475713Y-123074200D01*
G75*
G02*
X159747800Y-123346287I0J-272087D01*
G01*
X159747800Y-124303713D01*
G75*
G02*
X159475713Y-124575800I-272087J0D01*
G01*
X158768287Y-124575800D01*
G75*
G02*
X158496200Y-124303713I0J272087D01*
G01*
G37*
G36*
G01*
X160546200Y-124303713D02*
X160546200Y-123346287D01*
G75*
G02*
X160818287Y-123074200I272087J0D01*
G01*
X161525713Y-123074200D01*
G75*
G02*
X161797800Y-123346287I0J-272087D01*
G01*
X161797800Y-124303713D01*
G75*
G02*
X161525713Y-124575800I-272087J0D01*
G01*
X160818287Y-124575800D01*
G75*
G02*
X160546200Y-124303713I0J272087D01*
G01*
G37*
G04 #@! TD*
G04 #@! TO.C,R7*
G36*
G01*
X122230100Y-119819200D02*
X122625900Y-119819200D01*
G75*
G02*
X122798800Y-119992100I0J-172900D01*
G01*
X122798800Y-120337900D01*
G75*
G02*
X122625900Y-120510800I-172900J0D01*
G01*
X122230100Y-120510800D01*
G75*
G02*
X122057200Y-120337900I0J172900D01*
G01*
X122057200Y-119992100D01*
G75*
G02*
X122230100Y-119819200I172900J0D01*
G01*
G37*
G36*
G01*
X122230100Y-120789200D02*
X122625900Y-120789200D01*
G75*
G02*
X122798800Y-120962100I0J-172900D01*
G01*
X122798800Y-121307900D01*
G75*
G02*
X122625900Y-121480800I-172900J0D01*
G01*
X122230100Y-121480800D01*
G75*
G02*
X122057200Y-121307900I0J172900D01*
G01*
X122057200Y-120962100D01*
G75*
G02*
X122230100Y-120789200I172900J0D01*
G01*
G37*
G04 #@! TD*
G04 #@! TO.C,R6*
G36*
G01*
X117658100Y-119810200D02*
X118053900Y-119810200D01*
G75*
G02*
X118226800Y-119983100I0J-172900D01*
G01*
X118226800Y-120328900D01*
G75*
G02*
X118053900Y-120501800I-172900J0D01*
G01*
X117658100Y-120501800D01*
G75*
G02*
X117485200Y-120328900I0J172900D01*
G01*
X117485200Y-119983100D01*
G75*
G02*
X117658100Y-119810200I172900J0D01*
G01*
G37*
G36*
G01*
X117658100Y-120780200D02*
X118053900Y-120780200D01*
G75*
G02*
X118226800Y-120953100I0J-172900D01*
G01*
X118226800Y-121298900D01*
G75*
G02*
X118053900Y-121471800I-172900J0D01*
G01*
X117658100Y-121471800D01*
G75*
G02*
X117485200Y-121298900I0J172900D01*
G01*
X117485200Y-120953100D01*
G75*
G02*
X117658100Y-120780200I172900J0D01*
G01*
G37*
G04 #@! TD*
G04 #@! TO.C,SW1*
G36*
G01*
X115972800Y-123808000D02*
X115972800Y-124808000D01*
G75*
G02*
X115922000Y-124858800I-50800J0D01*
G01*
X114372000Y-124858800D01*
G75*
G02*
X114321200Y-124808000I0J50800D01*
G01*
X114321200Y-123808000D01*
G75*
G02*
X114372000Y-123757200I50800J0D01*
G01*
X115922000Y-123757200D01*
G75*
G02*
X115972800Y-123808000I0J-50800D01*
G01*
G37*
G36*
G01*
X110722800Y-123808000D02*
X110722800Y-124808000D01*
G75*
G02*
X110672000Y-124858800I-50800J0D01*
G01*
X109122000Y-124858800D01*
G75*
G02*
X109071200Y-124808000I0J50800D01*
G01*
X109071200Y-123808000D01*
G75*
G02*
X109122000Y-123757200I50800J0D01*
G01*
X110672000Y-123757200D01*
G75*
G02*
X110722800Y-123808000I0J-50800D01*
G01*
G37*
G36*
G01*
X115972800Y-127008000D02*
X115972800Y-128008000D01*
G75*
G02*
X115922000Y-128058800I-50800J0D01*
G01*
X114372000Y-128058800D01*
G75*
G02*
X114321200Y-128008000I0J50800D01*
G01*
X114321200Y-127008000D01*
G75*
G02*
X114372000Y-126957200I50800J0D01*
G01*
X115922000Y-126957200D01*
G75*
G02*
X115972800Y-127008000I0J-50800D01*
G01*
G37*
G36*
G01*
X110722800Y-127008000D02*
X110722800Y-128008000D01*
G75*
G02*
X110672000Y-128058800I-50800J0D01*
G01*
X109122000Y-128058800D01*
G75*
G02*
X109071200Y-128008000I0J50800D01*
G01*
X109071200Y-127008000D01*
G75*
G02*
X109122000Y-126957200I50800J0D01*
G01*
X110672000Y-126957200D01*
G75*
G02*
X110722800Y-127008000I0J-50800D01*
G01*
G37*
G04 #@! TD*
G04 #@! TO.C,C5*
G36*
G01*
X143353713Y-116687400D02*
X142396287Y-116687400D01*
G75*
G02*
X142124200Y-116415313I0J272087D01*
G01*
X142124200Y-115707887D01*
G75*
G02*
X142396287Y-115435800I272087J0D01*
G01*
X143353713Y-115435800D01*
G75*
G02*
X143625800Y-115707887I0J-272087D01*
G01*
X143625800Y-116415313D01*
G75*
G02*
X143353713Y-116687400I-272087J0D01*
G01*
G37*
G36*
G01*
X143353713Y-114637400D02*
X142396287Y-114637400D01*
G75*
G02*
X142124200Y-114365313I0J272087D01*
G01*
X142124200Y-113657887D01*
G75*
G02*
X142396287Y-113385800I272087J0D01*
G01*
X143353713Y-113385800D01*
G75*
G02*
X143625800Y-113657887I0J-272087D01*
G01*
X143625800Y-114365313D01*
G75*
G02*
X143353713Y-114637400I-272087J0D01*
G01*
G37*
G04 #@! TD*
G04 #@! TO.C,R16*
G36*
G01*
X123414713Y-112403800D02*
X122457287Y-112403800D01*
G75*
G02*
X122185200Y-112131713I0J272087D01*
G01*
X122185200Y-111424287D01*
G75*
G02*
X122457287Y-111152200I272087J0D01*
G01*
X123414713Y-111152200D01*
G75*
G02*
X123686800Y-111424287I0J-272087D01*
G01*
X123686800Y-112131713D01*
G75*
G02*
X123414713Y-112403800I-272087J0D01*
G01*
G37*
G36*
G01*
X123414713Y-110353800D02*
X122457287Y-110353800D01*
G75*
G02*
X122185200Y-110081713I0J272087D01*
G01*
X122185200Y-109374287D01*
G75*
G02*
X122457287Y-109102200I272087J0D01*
G01*
X123414713Y-109102200D01*
G75*
G02*
X123686800Y-109374287I0J-272087D01*
G01*
X123686800Y-110081713D01*
G75*
G02*
X123414713Y-110353800I-272087J0D01*
G01*
G37*
G04 #@! TD*
G04 #@! TO.C,D1*
G36*
G01*
X109408800Y-110098000D02*
X109408800Y-111898000D01*
G75*
G02*
X109358000Y-111948800I-50800J0D01*
G01*
X107558000Y-111948800D01*
G75*
G02*
X107507200Y-111898000I0J50800D01*
G01*
X107507200Y-110098000D01*
G75*
G02*
X107558000Y-110047200I50800J0D01*
G01*
X109358000Y-110047200D01*
G75*
G02*
X109408800Y-110098000I0J-50800D01*
G01*
G37*
D15*
X105918000Y-110998000D03*
G04 #@! TD*
G04 #@! TO.C,C9*
G36*
G01*
X120339900Y-121471800D02*
X119944100Y-121471800D01*
G75*
G02*
X119771200Y-121298900I0J172900D01*
G01*
X119771200Y-120953100D01*
G75*
G02*
X119944100Y-120780200I172900J0D01*
G01*
X120339900Y-120780200D01*
G75*
G02*
X120512800Y-120953100I0J-172900D01*
G01*
X120512800Y-121298900D01*
G75*
G02*
X120339900Y-121471800I-172900J0D01*
G01*
G37*
G36*
G01*
X120339900Y-120501800D02*
X119944100Y-120501800D01*
G75*
G02*
X119771200Y-120328900I0J172900D01*
G01*
X119771200Y-119983100D01*
G75*
G02*
X119944100Y-119810200I172900J0D01*
G01*
X120339900Y-119810200D01*
G75*
G02*
X120512800Y-119983100I0J-172900D01*
G01*
X120512800Y-120328900D01*
G75*
G02*
X120339900Y-120501800I-172900J0D01*
G01*
G37*
G04 #@! TD*
G04 #@! TO.C,C8*
G36*
G01*
X120339900Y-126814800D02*
X119944100Y-126814800D01*
G75*
G02*
X119771200Y-126641900I0J172900D01*
G01*
X119771200Y-126296100D01*
G75*
G02*
X119944100Y-126123200I172900J0D01*
G01*
X120339900Y-126123200D01*
G75*
G02*
X120512800Y-126296100I0J-172900D01*
G01*
X120512800Y-126641900D01*
G75*
G02*
X120339900Y-126814800I-172900J0D01*
G01*
G37*
G36*
G01*
X120339900Y-125844800D02*
X119944100Y-125844800D01*
G75*
G02*
X119771200Y-125671900I0J172900D01*
G01*
X119771200Y-125326100D01*
G75*
G02*
X119944100Y-125153200I172900J0D01*
G01*
X120339900Y-125153200D01*
G75*
G02*
X120512800Y-125326100I0J-172900D01*
G01*
X120512800Y-125671900D01*
G75*
G02*
X120339900Y-125844800I-172900J0D01*
G01*
G37*
G04 #@! TD*
G04 #@! TO.C,C7*
G36*
G01*
X147468513Y-116687400D02*
X146511087Y-116687400D01*
G75*
G02*
X146239000Y-116415313I0J272087D01*
G01*
X146239000Y-115707887D01*
G75*
G02*
X146511087Y-115435800I272087J0D01*
G01*
X147468513Y-115435800D01*
G75*
G02*
X147740600Y-115707887I0J-272087D01*
G01*
X147740600Y-116415313D01*
G75*
G02*
X147468513Y-116687400I-272087J0D01*
G01*
G37*
G36*
G01*
X147468513Y-114637400D02*
X146511087Y-114637400D01*
G75*
G02*
X146239000Y-114365313I0J272087D01*
G01*
X146239000Y-113657887D01*
G75*
G02*
X146511087Y-113385800I272087J0D01*
G01*
X147468513Y-113385800D01*
G75*
G02*
X147740600Y-113657887I0J-272087D01*
G01*
X147740600Y-114365313D01*
G75*
G02*
X147468513Y-114637400I-272087J0D01*
G01*
G37*
G04 #@! TD*
G04 #@! TO.C,R15*
G36*
G01*
X125700713Y-112412800D02*
X124743287Y-112412800D01*
G75*
G02*
X124471200Y-112140713I0J272087D01*
G01*
X124471200Y-111433287D01*
G75*
G02*
X124743287Y-111161200I272087J0D01*
G01*
X125700713Y-111161200D01*
G75*
G02*
X125972800Y-111433287I0J-272087D01*
G01*
X125972800Y-112140713D01*
G75*
G02*
X125700713Y-112412800I-272087J0D01*
G01*
G37*
G36*
G01*
X125700713Y-110362800D02*
X124743287Y-110362800D01*
G75*
G02*
X124471200Y-110090713I0J272087D01*
G01*
X124471200Y-109383287D01*
G75*
G02*
X124743287Y-109111200I272087J0D01*
G01*
X125700713Y-109111200D01*
G75*
G02*
X125972800Y-109383287I0J-272087D01*
G01*
X125972800Y-110090713D01*
G75*
G02*
X125700713Y-110362800I-272087J0D01*
G01*
G37*
G04 #@! TD*
G04 #@! TO.C,R5*
G36*
G01*
X122230100Y-125144200D02*
X122625900Y-125144200D01*
G75*
G02*
X122798800Y-125317100I0J-172900D01*
G01*
X122798800Y-125662900D01*
G75*
G02*
X122625900Y-125835800I-172900J0D01*
G01*
X122230100Y-125835800D01*
G75*
G02*
X122057200Y-125662900I0J172900D01*
G01*
X122057200Y-125317100D01*
G75*
G02*
X122230100Y-125144200I172900J0D01*
G01*
G37*
G36*
G01*
X122230100Y-126114200D02*
X122625900Y-126114200D01*
G75*
G02*
X122798800Y-126287100I0J-172900D01*
G01*
X122798800Y-126632900D01*
G75*
G02*
X122625900Y-126805800I-172900J0D01*
G01*
X122230100Y-126805800D01*
G75*
G02*
X122057200Y-126632900I0J172900D01*
G01*
X122057200Y-126287100D01*
G75*
G02*
X122230100Y-126114200I172900J0D01*
G01*
G37*
G04 #@! TD*
G04 #@! TO.C,SW2*
G36*
G01*
X115972800Y-118550000D02*
X115972800Y-119550000D01*
G75*
G02*
X115922000Y-119600800I-50800J0D01*
G01*
X114372000Y-119600800D01*
G75*
G02*
X114321200Y-119550000I0J50800D01*
G01*
X114321200Y-118550000D01*
G75*
G02*
X114372000Y-118499200I50800J0D01*
G01*
X115922000Y-118499200D01*
G75*
G02*
X115972800Y-118550000I0J-50800D01*
G01*
G37*
G36*
G01*
X110722800Y-118550000D02*
X110722800Y-119550000D01*
G75*
G02*
X110672000Y-119600800I-50800J0D01*
G01*
X109122000Y-119600800D01*
G75*
G02*
X109071200Y-119550000I0J50800D01*
G01*
X109071200Y-118550000D01*
G75*
G02*
X109122000Y-118499200I50800J0D01*
G01*
X110672000Y-118499200D01*
G75*
G02*
X110722800Y-118550000I0J-50800D01*
G01*
G37*
G36*
G01*
X115972800Y-121750000D02*
X115972800Y-122750000D01*
G75*
G02*
X115922000Y-122800800I-50800J0D01*
G01*
X114372000Y-122800800D01*
G75*
G02*
X114321200Y-122750000I0J50800D01*
G01*
X114321200Y-121750000D01*
G75*
G02*
X114372000Y-121699200I50800J0D01*
G01*
X115922000Y-121699200D01*
G75*
G02*
X115972800Y-121750000I0J-50800D01*
G01*
G37*
G36*
G01*
X110722800Y-121750000D02*
X110722800Y-122750000D01*
G75*
G02*
X110672000Y-122800800I-50800J0D01*
G01*
X109122000Y-122800800D01*
G75*
G02*
X109071200Y-122750000I0J50800D01*
G01*
X109071200Y-121750000D01*
G75*
G02*
X109122000Y-121699200I50800J0D01*
G01*
X110672000Y-121699200D01*
G75*
G02*
X110722800Y-121750000I0J-50800D01*
G01*
G37*
G04 #@! TD*
G04 #@! TO.C,C10*
G36*
G01*
X138103687Y-117322800D02*
X139061113Y-117322800D01*
G75*
G02*
X139333200Y-117594887I0J-272087D01*
G01*
X139333200Y-118302313D01*
G75*
G02*
X139061113Y-118574400I-272087J0D01*
G01*
X138103687Y-118574400D01*
G75*
G02*
X137831600Y-118302313I0J272087D01*
G01*
X137831600Y-117594887D01*
G75*
G02*
X138103687Y-117322800I272087J0D01*
G01*
G37*
G36*
G01*
X138103687Y-119372800D02*
X139061113Y-119372800D01*
G75*
G02*
X139333200Y-119644887I0J-272087D01*
G01*
X139333200Y-120352313D01*
G75*
G02*
X139061113Y-120624400I-272087J0D01*
G01*
X138103687Y-120624400D01*
G75*
G02*
X137831600Y-120352313I0J272087D01*
G01*
X137831600Y-119644887D01*
G75*
G02*
X138103687Y-119372800I272087J0D01*
G01*
G37*
G04 #@! TD*
G04 #@! TO.C,C3*
G36*
G01*
X149852600Y-119740900D02*
X149852600Y-120136700D01*
G75*
G02*
X149679700Y-120309600I-172900J0D01*
G01*
X149333900Y-120309600D01*
G75*
G02*
X149161000Y-120136700I0J172900D01*
G01*
X149161000Y-119740900D01*
G75*
G02*
X149333900Y-119568000I172900J0D01*
G01*
X149679700Y-119568000D01*
G75*
G02*
X149852600Y-119740900I0J-172900D01*
G01*
G37*
G36*
G01*
X148882600Y-119740900D02*
X148882600Y-120136700D01*
G75*
G02*
X148709700Y-120309600I-172900J0D01*
G01*
X148363900Y-120309600D01*
G75*
G02*
X148191000Y-120136700I0J172900D01*
G01*
X148191000Y-119740900D01*
G75*
G02*
X148363900Y-119568000I172900J0D01*
G01*
X148709700Y-119568000D01*
G75*
G02*
X148882600Y-119740900I0J-172900D01*
G01*
G37*
G04 #@! TD*
G04 #@! TO.C,R13*
G36*
G01*
X130272713Y-112412800D02*
X129315287Y-112412800D01*
G75*
G02*
X129043200Y-112140713I0J272087D01*
G01*
X129043200Y-111433287D01*
G75*
G02*
X129315287Y-111161200I272087J0D01*
G01*
X130272713Y-111161200D01*
G75*
G02*
X130544800Y-111433287I0J-272087D01*
G01*
X130544800Y-112140713D01*
G75*
G02*
X130272713Y-112412800I-272087J0D01*
G01*
G37*
G36*
G01*
X130272713Y-110362800D02*
X129315287Y-110362800D01*
G75*
G02*
X129043200Y-110090713I0J272087D01*
G01*
X129043200Y-109383287D01*
G75*
G02*
X129315287Y-109111200I272087J0D01*
G01*
X130272713Y-109111200D01*
G75*
G02*
X130544800Y-109383287I0J-272087D01*
G01*
X130544800Y-110090713D01*
G75*
G02*
X130272713Y-110362800I-272087J0D01*
G01*
G37*
G04 #@! TD*
G04 #@! TO.C,L1*
G36*
G01*
X154614800Y-110481500D02*
X154614800Y-114381500D01*
G75*
G02*
X154564000Y-114432300I-50800J0D01*
G01*
X152364000Y-114432300D01*
G75*
G02*
X152313200Y-114381500I0J50800D01*
G01*
X152313200Y-110481500D01*
G75*
G02*
X152364000Y-110430700I50800J0D01*
G01*
X154564000Y-110430700D01*
G75*
G02*
X154614800Y-110481500I0J-50800D01*
G01*
G37*
G36*
G01*
X150814800Y-110481500D02*
X150814800Y-114381500D01*
G75*
G02*
X150764000Y-114432300I-50800J0D01*
G01*
X148564000Y-114432300D01*
G75*
G02*
X148513200Y-114381500I0J50800D01*
G01*
X148513200Y-110481500D01*
G75*
G02*
X148564000Y-110430700I50800J0D01*
G01*
X150764000Y-110430700D01*
G75*
G02*
X150814800Y-110481500I0J-50800D01*
G01*
G37*
G04 #@! TD*
G04 #@! TO.C,C11*
G36*
G01*
X158496200Y-120239713D02*
X158496200Y-119282287D01*
G75*
G02*
X158768287Y-119010200I272087J0D01*
G01*
X159475713Y-119010200D01*
G75*
G02*
X159747800Y-119282287I0J-272087D01*
G01*
X159747800Y-120239713D01*
G75*
G02*
X159475713Y-120511800I-272087J0D01*
G01*
X158768287Y-120511800D01*
G75*
G02*
X158496200Y-120239713I0J272087D01*
G01*
G37*
G36*
G01*
X160546200Y-120239713D02*
X160546200Y-119282287D01*
G75*
G02*
X160818287Y-119010200I272087J0D01*
G01*
X161525713Y-119010200D01*
G75*
G02*
X161797800Y-119282287I0J-272087D01*
G01*
X161797800Y-120239713D01*
G75*
G02*
X161525713Y-120511800I-272087J0D01*
G01*
X160818287Y-120511800D01*
G75*
G02*
X160546200Y-120239713I0J272087D01*
G01*
G37*
G04 #@! TD*
G04 #@! TO.C,R17*
G36*
G01*
X121128713Y-112394800D02*
X120171287Y-112394800D01*
G75*
G02*
X119899200Y-112122713I0J272087D01*
G01*
X119899200Y-111415287D01*
G75*
G02*
X120171287Y-111143200I272087J0D01*
G01*
X121128713Y-111143200D01*
G75*
G02*
X121400800Y-111415287I0J-272087D01*
G01*
X121400800Y-112122713D01*
G75*
G02*
X121128713Y-112394800I-272087J0D01*
G01*
G37*
G36*
G01*
X121128713Y-110344800D02*
X120171287Y-110344800D01*
G75*
G02*
X119899200Y-110072713I0J272087D01*
G01*
X119899200Y-109365287D01*
G75*
G02*
X120171287Y-109093200I272087J0D01*
G01*
X121128713Y-109093200D01*
G75*
G02*
X121400800Y-109365287I0J-272087D01*
G01*
X121400800Y-110072713D01*
G75*
G02*
X121128713Y-110344800I-272087J0D01*
G01*
G37*
G04 #@! TD*
G04 #@! TO.C,R3*
G36*
G01*
X143439100Y-117177600D02*
X143834900Y-117177600D01*
G75*
G02*
X144007800Y-117350500I0J-172900D01*
G01*
X144007800Y-117696300D01*
G75*
G02*
X143834900Y-117869200I-172900J0D01*
G01*
X143439100Y-117869200D01*
G75*
G02*
X143266200Y-117696300I0J172900D01*
G01*
X143266200Y-117350500D01*
G75*
G02*
X143439100Y-117177600I172900J0D01*
G01*
G37*
G36*
G01*
X143439100Y-118147600D02*
X143834900Y-118147600D01*
G75*
G02*
X144007800Y-118320500I0J-172900D01*
G01*
X144007800Y-118666300D01*
G75*
G02*
X143834900Y-118839200I-172900J0D01*
G01*
X143439100Y-118839200D01*
G75*
G02*
X143266200Y-118666300I0J172900D01*
G01*
X143266200Y-118320500D01*
G75*
G02*
X143439100Y-118147600I172900J0D01*
G01*
G37*
G04 #@! TD*
G04 #@! TO.C,R1*
G36*
G01*
X145852100Y-117279200D02*
X146247900Y-117279200D01*
G75*
G02*
X146420800Y-117452100I0J-172900D01*
G01*
X146420800Y-117797900D01*
G75*
G02*
X146247900Y-117970800I-172900J0D01*
G01*
X145852100Y-117970800D01*
G75*
G02*
X145679200Y-117797900I0J172900D01*
G01*
X145679200Y-117452100D01*
G75*
G02*
X145852100Y-117279200I172900J0D01*
G01*
G37*
G36*
G01*
X145852100Y-118249200D02*
X146247900Y-118249200D01*
G75*
G02*
X146420800Y-118422100I0J-172900D01*
G01*
X146420800Y-118767900D01*
G75*
G02*
X146247900Y-118940800I-172900J0D01*
G01*
X145852100Y-118940800D01*
G75*
G02*
X145679200Y-118767900I0J172900D01*
G01*
X145679200Y-118422100D01*
G75*
G02*
X145852100Y-118249200I172900J0D01*
G01*
G37*
G04 #@! TD*
G04 #@! TO.C,C12*
G36*
G01*
X158496200Y-122271713D02*
X158496200Y-121314287D01*
G75*
G02*
X158768287Y-121042200I272087J0D01*
G01*
X159475713Y-121042200D01*
G75*
G02*
X159747800Y-121314287I0J-272087D01*
G01*
X159747800Y-122271713D01*
G75*
G02*
X159475713Y-122543800I-272087J0D01*
G01*
X158768287Y-122543800D01*
G75*
G02*
X158496200Y-122271713I0J272087D01*
G01*
G37*
G36*
G01*
X160546200Y-122271713D02*
X160546200Y-121314287D01*
G75*
G02*
X160818287Y-121042200I272087J0D01*
G01*
X161525713Y-121042200D01*
G75*
G02*
X161797800Y-121314287I0J-272087D01*
G01*
X161797800Y-122271713D01*
G75*
G02*
X161525713Y-122543800I-272087J0D01*
G01*
X160818287Y-122543800D01*
G75*
G02*
X160546200Y-122271713I0J272087D01*
G01*
G37*
G04 #@! TD*
G04 #@! TO.C,J5*
G36*
G01*
X107580800Y-123610000D02*
X107580800Y-125310000D01*
G75*
G02*
X107530000Y-125360800I-50800J0D01*
G01*
X105830000Y-125360800D01*
G75*
G02*
X105779200Y-125310000I0J50800D01*
G01*
X105779200Y-123610000D01*
G75*
G02*
X105830000Y-123559200I50800J0D01*
G01*
X107530000Y-123559200D01*
G75*
G02*
X107580800Y-123610000I0J-50800D01*
G01*
G37*
D10*
X106680000Y-127000000D03*
G04 #@! TD*
G04 #@! TO.C,U1*
G36*
G01*
X153784000Y-115941500D02*
X153784000Y-116221500D01*
G75*
G02*
X153714000Y-116291500I-70000J0D01*
G01*
X153434000Y-116291500D01*
G75*
G02*
X153364000Y-116221500I0J70000D01*
G01*
X153364000Y-115941500D01*
G75*
G02*
X153434000Y-115871500I70000J0D01*
G01*
X153714000Y-115871500D01*
G75*
G02*
X153784000Y-115941500I0J-70000D01*
G01*
G37*
D17*
X153289000Y-116081500D03*
X153289000Y-116581500D03*
G36*
G01*
X153784000Y-116441500D02*
X153784000Y-116721500D01*
G75*
G02*
X153714000Y-116791500I-70000J0D01*
G01*
X153434000Y-116791500D01*
G75*
G02*
X153364000Y-116721500I0J70000D01*
G01*
X153364000Y-116441500D01*
G75*
G02*
X153434000Y-116371500I70000J0D01*
G01*
X153714000Y-116371500D01*
G75*
G02*
X153784000Y-116441500I0J-70000D01*
G01*
G37*
X153289000Y-117081500D03*
G36*
G01*
X153784000Y-116941500D02*
X153784000Y-117221500D01*
G75*
G02*
X153714000Y-117291500I-70000J0D01*
G01*
X153434000Y-117291500D01*
G75*
G02*
X153364000Y-117221500I0J70000D01*
G01*
X153364000Y-116941500D01*
G75*
G02*
X153434000Y-116871500I70000J0D01*
G01*
X153714000Y-116871500D01*
G75*
G02*
X153784000Y-116941500I0J-70000D01*
G01*
G37*
G36*
G01*
X153784000Y-117441500D02*
X153784000Y-117721500D01*
G75*
G02*
X153714000Y-117791500I-70000J0D01*
G01*
X153434000Y-117791500D01*
G75*
G02*
X153364000Y-117721500I0J70000D01*
G01*
X153364000Y-117441500D01*
G75*
G02*
X153434000Y-117371500I70000J0D01*
G01*
X153714000Y-117371500D01*
G75*
G02*
X153784000Y-117441500I0J-70000D01*
G01*
G37*
X153289000Y-117581500D03*
X153289000Y-118081500D03*
G36*
G01*
X153784000Y-117941500D02*
X153784000Y-118221500D01*
G75*
G02*
X153714000Y-118291500I-70000J0D01*
G01*
X153434000Y-118291500D01*
G75*
G02*
X153364000Y-118221500I0J70000D01*
G01*
X153364000Y-117941500D01*
G75*
G02*
X153434000Y-117871500I70000J0D01*
G01*
X153714000Y-117871500D01*
G75*
G02*
X153784000Y-117941500I0J-70000D01*
G01*
G37*
G36*
G01*
X150264000Y-117941500D02*
X150264000Y-118221500D01*
G75*
G02*
X150194000Y-118291500I-70000J0D01*
G01*
X149914000Y-118291500D01*
G75*
G02*
X149844000Y-118221500I0J70000D01*
G01*
X149844000Y-117941500D01*
G75*
G02*
X149914000Y-117871500I70000J0D01*
G01*
X150194000Y-117871500D01*
G75*
G02*
X150264000Y-117941500I0J-70000D01*
G01*
G37*
X150339000Y-118081500D03*
X150339000Y-117581500D03*
G36*
G01*
X150264000Y-117441500D02*
X150264000Y-117721500D01*
G75*
G02*
X150194000Y-117791500I-70000J0D01*
G01*
X149914000Y-117791500D01*
G75*
G02*
X149844000Y-117721500I0J70000D01*
G01*
X149844000Y-117441500D01*
G75*
G02*
X149914000Y-117371500I70000J0D01*
G01*
X150194000Y-117371500D01*
G75*
G02*
X150264000Y-117441500I0J-70000D01*
G01*
G37*
G36*
G01*
X150264000Y-116941500D02*
X150264000Y-117221500D01*
G75*
G02*
X150194000Y-117291500I-70000J0D01*
G01*
X149914000Y-117291500D01*
G75*
G02*
X149844000Y-117221500I0J70000D01*
G01*
X149844000Y-116941500D01*
G75*
G02*
X149914000Y-116871500I70000J0D01*
G01*
X150194000Y-116871500D01*
G75*
G02*
X150264000Y-116941500I0J-70000D01*
G01*
G37*
X150339000Y-117081500D03*
G36*
G01*
X150264000Y-116441500D02*
X150264000Y-116721500D01*
G75*
G02*
X150194000Y-116791500I-70000J0D01*
G01*
X149914000Y-116791500D01*
G75*
G02*
X149844000Y-116721500I0J70000D01*
G01*
X149844000Y-116441500D01*
G75*
G02*
X149914000Y-116371500I70000J0D01*
G01*
X150194000Y-116371500D01*
G75*
G02*
X150264000Y-116441500I0J-70000D01*
G01*
G37*
X150339000Y-116581500D03*
G36*
G01*
X150264000Y-115941500D02*
X150264000Y-116221500D01*
G75*
G02*
X150194000Y-116291500I-70000J0D01*
G01*
X149914000Y-116291500D01*
G75*
G02*
X149844000Y-116221500I0J70000D01*
G01*
X149844000Y-115941500D01*
G75*
G02*
X149914000Y-115871500I70000J0D01*
G01*
X150194000Y-115871500D01*
G75*
G02*
X150264000Y-115941500I0J-70000D01*
G01*
G37*
X150339000Y-116081500D03*
G36*
G01*
X151789800Y-118156500D02*
X151789800Y-118856500D01*
G75*
G02*
X151739000Y-118907300I-50800J0D01*
G01*
X151489000Y-118907300D01*
G75*
G02*
X151438200Y-118856500I0J50800D01*
G01*
X151438200Y-118156500D01*
G75*
G02*
X151489000Y-118105700I50800J0D01*
G01*
X151739000Y-118105700D01*
G75*
G02*
X151789800Y-118156500I0J-50800D01*
G01*
G37*
G36*
G01*
X152579800Y-118206500D02*
X152579800Y-118806500D01*
G75*
G02*
X152529000Y-118857300I-50800J0D01*
G01*
X152299000Y-118857300D01*
G75*
G02*
X152248200Y-118806500I0J50800D01*
G01*
X152248200Y-118206500D01*
G75*
G02*
X152299000Y-118155700I50800J0D01*
G01*
X152529000Y-118155700D01*
G75*
G02*
X152579800Y-118206500I0J-50800D01*
G01*
G37*
G36*
G01*
X151754800Y-117191500D02*
X151754800Y-118091500D01*
G75*
G02*
X151704000Y-118142300I-50800J0D01*
G01*
X151054000Y-118142300D01*
G75*
G02*
X151003200Y-118091500I0J50800D01*
G01*
X151003200Y-117191500D01*
G75*
G02*
X151054000Y-117140700I50800J0D01*
G01*
X151704000Y-117140700D01*
G75*
G02*
X151754800Y-117191500I0J-50800D01*
G01*
G37*
G36*
G01*
X152624800Y-117191500D02*
X152624800Y-118091500D01*
G75*
G02*
X152574000Y-118142300I-50800J0D01*
G01*
X151924000Y-118142300D01*
G75*
G02*
X151873200Y-118091500I0J50800D01*
G01*
X151873200Y-117191500D01*
G75*
G02*
X151924000Y-117140700I50800J0D01*
G01*
X152574000Y-117140700D01*
G75*
G02*
X152624800Y-117191500I0J-50800D01*
G01*
G37*
G36*
G01*
X152624800Y-116071500D02*
X152624800Y-116971500D01*
G75*
G02*
X152574000Y-117022300I-50800J0D01*
G01*
X151924000Y-117022300D01*
G75*
G02*
X151873200Y-116971500I0J50800D01*
G01*
X151873200Y-116071500D01*
G75*
G02*
X151924000Y-116020700I50800J0D01*
G01*
X152574000Y-116020700D01*
G75*
G02*
X152624800Y-116071500I0J-50800D01*
G01*
G37*
D18*
X151814000Y-117081500D03*
G36*
G01*
X151379800Y-115356500D02*
X151379800Y-115956500D01*
G75*
G02*
X151329000Y-116007300I-50800J0D01*
G01*
X151099000Y-116007300D01*
G75*
G02*
X151048200Y-115956500I0J50800D01*
G01*
X151048200Y-115356500D01*
G75*
G02*
X151099000Y-115305700I50800J0D01*
G01*
X151329000Y-115305700D01*
G75*
G02*
X151379800Y-115356500I0J-50800D01*
G01*
G37*
G36*
G01*
X152579800Y-115356500D02*
X152579800Y-115956500D01*
G75*
G02*
X152529000Y-116007300I-50800J0D01*
G01*
X152299000Y-116007300D01*
G75*
G02*
X152248200Y-115956500I0J50800D01*
G01*
X152248200Y-115356500D01*
G75*
G02*
X152299000Y-115305700I50800J0D01*
G01*
X152529000Y-115305700D01*
G75*
G02*
X152579800Y-115356500I0J-50800D01*
G01*
G37*
G36*
G01*
X152179800Y-118206500D02*
X152179800Y-118806500D01*
G75*
G02*
X152129000Y-118857300I-50800J0D01*
G01*
X151899000Y-118857300D01*
G75*
G02*
X151848200Y-118806500I0J50800D01*
G01*
X151848200Y-118206500D01*
G75*
G02*
X151899000Y-118155700I50800J0D01*
G01*
X152129000Y-118155700D01*
G75*
G02*
X152179800Y-118206500I0J-50800D01*
G01*
G37*
G36*
G01*
X152189800Y-115306500D02*
X152189800Y-116006500D01*
G75*
G02*
X152139000Y-116057300I-50800J0D01*
G01*
X151889000Y-116057300D01*
G75*
G02*
X151838200Y-116006500I0J50800D01*
G01*
X151838200Y-115306500D01*
G75*
G02*
X151889000Y-115255700I50800J0D01*
G01*
X152139000Y-115255700D01*
G75*
G02*
X152189800Y-115306500I0J-50800D01*
G01*
G37*
G36*
G01*
X151389800Y-118156500D02*
X151389800Y-118856500D01*
G75*
G02*
X151339000Y-118907300I-50800J0D01*
G01*
X151089000Y-118907300D01*
G75*
G02*
X151038200Y-118856500I0J50800D01*
G01*
X151038200Y-118156500D01*
G75*
G02*
X151089000Y-118105700I50800J0D01*
G01*
X151339000Y-118105700D01*
G75*
G02*
X151389800Y-118156500I0J-50800D01*
G01*
G37*
G36*
G01*
X151789800Y-115306500D02*
X151789800Y-116006500D01*
G75*
G02*
X151739000Y-116057300I-50800J0D01*
G01*
X151489000Y-116057300D01*
G75*
G02*
X151438200Y-116006500I0J50800D01*
G01*
X151438200Y-115306500D01*
G75*
G02*
X151489000Y-115255700I50800J0D01*
G01*
X151739000Y-115255700D01*
G75*
G02*
X151789800Y-115306500I0J-50800D01*
G01*
G37*
X151314000Y-116581500D03*
G36*
G01*
X151389800Y-115306500D02*
X151389800Y-116006500D01*
G75*
G02*
X151339000Y-116057300I-50800J0D01*
G01*
X151089000Y-116057300D01*
G75*
G02*
X151038200Y-116006500I0J50800D01*
G01*
X151038200Y-115306500D01*
G75*
G02*
X151089000Y-115255700I50800J0D01*
G01*
X151339000Y-115255700D01*
G75*
G02*
X151389800Y-115306500I0J-50800D01*
G01*
G37*
G36*
G01*
X152189800Y-118156500D02*
X152189800Y-118856500D01*
G75*
G02*
X152139000Y-118907300I-50800J0D01*
G01*
X151889000Y-118907300D01*
G75*
G02*
X151838200Y-118856500I0J50800D01*
G01*
X151838200Y-118156500D01*
G75*
G02*
X151889000Y-118105700I50800J0D01*
G01*
X152139000Y-118105700D01*
G75*
G02*
X152189800Y-118156500I0J-50800D01*
G01*
G37*
G36*
G01*
X152179800Y-115356500D02*
X152179800Y-115956500D01*
G75*
G02*
X152129000Y-116007300I-50800J0D01*
G01*
X151899000Y-116007300D01*
G75*
G02*
X151848200Y-115956500I0J50800D01*
G01*
X151848200Y-115356500D01*
G75*
G02*
X151899000Y-115305700I50800J0D01*
G01*
X152129000Y-115305700D01*
G75*
G02*
X152179800Y-115356500I0J-50800D01*
G01*
G37*
G36*
G01*
X152589800Y-118156500D02*
X152589800Y-118856500D01*
G75*
G02*
X152539000Y-118907300I-50800J0D01*
G01*
X152289000Y-118907300D01*
G75*
G02*
X152238200Y-118856500I0J50800D01*
G01*
X152238200Y-118156500D01*
G75*
G02*
X152289000Y-118105700I50800J0D01*
G01*
X152539000Y-118105700D01*
G75*
G02*
X152589800Y-118156500I0J-50800D01*
G01*
G37*
X151314000Y-117581500D03*
G36*
G01*
X152589800Y-115306500D02*
X152589800Y-116006500D01*
G75*
G02*
X152539000Y-116057300I-50800J0D01*
G01*
X152289000Y-116057300D01*
G75*
G02*
X152238200Y-116006500I0J50800D01*
G01*
X152238200Y-115306500D01*
G75*
G02*
X152289000Y-115255700I50800J0D01*
G01*
X152539000Y-115255700D01*
G75*
G02*
X152589800Y-115306500I0J-50800D01*
G01*
G37*
G36*
G01*
X151754800Y-116071500D02*
X151754800Y-116971500D01*
G75*
G02*
X151704000Y-117022300I-50800J0D01*
G01*
X151054000Y-117022300D01*
G75*
G02*
X151003200Y-116971500I0J50800D01*
G01*
X151003200Y-116071500D01*
G75*
G02*
X151054000Y-116020700I50800J0D01*
G01*
X151704000Y-116020700D01*
G75*
G02*
X151754800Y-116071500I0J-50800D01*
G01*
G37*
X152314000Y-117581500D03*
G36*
G01*
X151779800Y-118206500D02*
X151779800Y-118806500D01*
G75*
G02*
X151729000Y-118857300I-50800J0D01*
G01*
X151499000Y-118857300D01*
G75*
G02*
X151448200Y-118806500I0J50800D01*
G01*
X151448200Y-118206500D01*
G75*
G02*
X151499000Y-118155700I50800J0D01*
G01*
X151729000Y-118155700D01*
G75*
G02*
X151779800Y-118206500I0J-50800D01*
G01*
G37*
G36*
G01*
X152714800Y-116006500D02*
X152714800Y-118156500D01*
G75*
G02*
X152664000Y-118207300I-50800J0D01*
G01*
X150964000Y-118207300D01*
G75*
G02*
X150913200Y-118156500I0J50800D01*
G01*
X150913200Y-116006500D01*
G75*
G02*
X150964000Y-115955700I50800J0D01*
G01*
X152664000Y-115955700D01*
G75*
G02*
X152714800Y-116006500I0J-50800D01*
G01*
G37*
G36*
G01*
X151379800Y-118206500D02*
X151379800Y-118806500D01*
G75*
G02*
X151329000Y-118857300I-50800J0D01*
G01*
X151099000Y-118857300D01*
G75*
G02*
X151048200Y-118806500I0J50800D01*
G01*
X151048200Y-118206500D01*
G75*
G02*
X151099000Y-118155700I50800J0D01*
G01*
X151329000Y-118155700D01*
G75*
G02*
X151379800Y-118206500I0J-50800D01*
G01*
G37*
G36*
G01*
X151779800Y-115356500D02*
X151779800Y-115956500D01*
G75*
G02*
X151729000Y-116007300I-50800J0D01*
G01*
X151499000Y-116007300D01*
G75*
G02*
X151448200Y-115956500I0J50800D01*
G01*
X151448200Y-115356500D01*
G75*
G02*
X151499000Y-115305700I50800J0D01*
G01*
X151729000Y-115305700D01*
G75*
G02*
X151779800Y-115356500I0J-50800D01*
G01*
G37*
X152314000Y-116581500D03*
G04 #@! TD*
G04 #@! TO.C,C4*
G36*
G01*
X146372800Y-119817100D02*
X146372800Y-120212900D01*
G75*
G02*
X146199900Y-120385800I-172900J0D01*
G01*
X145854100Y-120385800D01*
G75*
G02*
X145681200Y-120212900I0J172900D01*
G01*
X145681200Y-119817100D01*
G75*
G02*
X145854100Y-119644200I172900J0D01*
G01*
X146199900Y-119644200D01*
G75*
G02*
X146372800Y-119817100I0J-172900D01*
G01*
G37*
G36*
G01*
X145402800Y-119817100D02*
X145402800Y-120212900D01*
G75*
G02*
X145229900Y-120385800I-172900J0D01*
G01*
X144884100Y-120385800D01*
G75*
G02*
X144711200Y-120212900I0J172900D01*
G01*
X144711200Y-119817100D01*
G75*
G02*
X144884100Y-119644200I172900J0D01*
G01*
X145229900Y-119644200D01*
G75*
G02*
X145402800Y-119817100I0J-172900D01*
G01*
G37*
G04 #@! TD*
G04 #@! TO.C,IC1*
G36*
G01*
X136700400Y-126805800D02*
X136349600Y-126805800D01*
G75*
G02*
X136174200Y-126630400I0J175400D01*
G01*
X136174200Y-124829600D01*
G75*
G02*
X136349600Y-124654200I175400J0D01*
G01*
X136700400Y-124654200D01*
G75*
G02*
X136875800Y-124829600I0J-175400D01*
G01*
X136875800Y-126630400D01*
G75*
G02*
X136700400Y-126805800I-175400J0D01*
G01*
G37*
G36*
G01*
X135430400Y-126805800D02*
X135079600Y-126805800D01*
G75*
G02*
X134904200Y-126630400I0J175400D01*
G01*
X134904200Y-124829600D01*
G75*
G02*
X135079600Y-124654200I175400J0D01*
G01*
X135430400Y-124654200D01*
G75*
G02*
X135605800Y-124829600I0J-175400D01*
G01*
X135605800Y-126630400D01*
G75*
G02*
X135430400Y-126805800I-175400J0D01*
G01*
G37*
G36*
G01*
X134160400Y-126805800D02*
X133809600Y-126805800D01*
G75*
G02*
X133634200Y-126630400I0J175400D01*
G01*
X133634200Y-124829600D01*
G75*
G02*
X133809600Y-124654200I175400J0D01*
G01*
X134160400Y-124654200D01*
G75*
G02*
X134335800Y-124829600I0J-175400D01*
G01*
X134335800Y-126630400D01*
G75*
G02*
X134160400Y-126805800I-175400J0D01*
G01*
G37*
G36*
G01*
X132890400Y-126805800D02*
X132539600Y-126805800D01*
G75*
G02*
X132364200Y-126630400I0J175400D01*
G01*
X132364200Y-124829600D01*
G75*
G02*
X132539600Y-124654200I175400J0D01*
G01*
X132890400Y-124654200D01*
G75*
G02*
X133065800Y-124829600I0J-175400D01*
G01*
X133065800Y-126630400D01*
G75*
G02*
X132890400Y-126805800I-175400J0D01*
G01*
G37*
G36*
G01*
X131620400Y-126805800D02*
X131269600Y-126805800D01*
G75*
G02*
X131094200Y-126630400I0J175400D01*
G01*
X131094200Y-124829600D01*
G75*
G02*
X131269600Y-124654200I175400J0D01*
G01*
X131620400Y-124654200D01*
G75*
G02*
X131795800Y-124829600I0J-175400D01*
G01*
X131795800Y-126630400D01*
G75*
G02*
X131620400Y-126805800I-175400J0D01*
G01*
G37*
G36*
G01*
X130350400Y-126805800D02*
X129999600Y-126805800D01*
G75*
G02*
X129824200Y-126630400I0J175400D01*
G01*
X129824200Y-124829600D01*
G75*
G02*
X129999600Y-124654200I175400J0D01*
G01*
X130350400Y-124654200D01*
G75*
G02*
X130525800Y-124829600I0J-175400D01*
G01*
X130525800Y-126630400D01*
G75*
G02*
X130350400Y-126805800I-175400J0D01*
G01*
G37*
G36*
G01*
X129080400Y-126805800D02*
X128729600Y-126805800D01*
G75*
G02*
X128554200Y-126630400I0J175400D01*
G01*
X128554200Y-124829600D01*
G75*
G02*
X128729600Y-124654200I175400J0D01*
G01*
X129080400Y-124654200D01*
G75*
G02*
X129255800Y-124829600I0J-175400D01*
G01*
X129255800Y-126630400D01*
G75*
G02*
X129080400Y-126805800I-175400J0D01*
G01*
G37*
G36*
G01*
X127810400Y-126805800D02*
X127459600Y-126805800D01*
G75*
G02*
X127284200Y-126630400I0J175400D01*
G01*
X127284200Y-124829600D01*
G75*
G02*
X127459600Y-124654200I175400J0D01*
G01*
X127810400Y-124654200D01*
G75*
G02*
X127985800Y-124829600I0J-175400D01*
G01*
X127985800Y-126630400D01*
G75*
G02*
X127810400Y-126805800I-175400J0D01*
G01*
G37*
G36*
G01*
X126540400Y-126805800D02*
X126189600Y-126805800D01*
G75*
G02*
X126014200Y-126630400I0J175400D01*
G01*
X126014200Y-124829600D01*
G75*
G02*
X126189600Y-124654200I175400J0D01*
G01*
X126540400Y-124654200D01*
G75*
G02*
X126715800Y-124829600I0J-175400D01*
G01*
X126715800Y-126630400D01*
G75*
G02*
X126540400Y-126805800I-175400J0D01*
G01*
G37*
G36*
G01*
X125270400Y-126805800D02*
X124919600Y-126805800D01*
G75*
G02*
X124744200Y-126630400I0J175400D01*
G01*
X124744200Y-124829600D01*
G75*
G02*
X124919600Y-124654200I175400J0D01*
G01*
X125270400Y-124654200D01*
G75*
G02*
X125445800Y-124829600I0J-175400D01*
G01*
X125445800Y-126630400D01*
G75*
G02*
X125270400Y-126805800I-175400J0D01*
G01*
G37*
G36*
G01*
X125270400Y-119185800D02*
X124919600Y-119185800D01*
G75*
G02*
X124744200Y-119010400I0J175400D01*
G01*
X124744200Y-117209600D01*
G75*
G02*
X124919600Y-117034200I175400J0D01*
G01*
X125270400Y-117034200D01*
G75*
G02*
X125445800Y-117209600I0J-175400D01*
G01*
X125445800Y-119010400D01*
G75*
G02*
X125270400Y-119185800I-175400J0D01*
G01*
G37*
G36*
G01*
X126540400Y-119185800D02*
X126189600Y-119185800D01*
G75*
G02*
X126014200Y-119010400I0J175400D01*
G01*
X126014200Y-117209600D01*
G75*
G02*
X126189600Y-117034200I175400J0D01*
G01*
X126540400Y-117034200D01*
G75*
G02*
X126715800Y-117209600I0J-175400D01*
G01*
X126715800Y-119010400D01*
G75*
G02*
X126540400Y-119185800I-175400J0D01*
G01*
G37*
G36*
G01*
X127810400Y-119185800D02*
X127459600Y-119185800D01*
G75*
G02*
X127284200Y-119010400I0J175400D01*
G01*
X127284200Y-117209600D01*
G75*
G02*
X127459600Y-117034200I175400J0D01*
G01*
X127810400Y-117034200D01*
G75*
G02*
X127985800Y-117209600I0J-175400D01*
G01*
X127985800Y-119010400D01*
G75*
G02*
X127810400Y-119185800I-175400J0D01*
G01*
G37*
G36*
G01*
X129080400Y-119185800D02*
X128729600Y-119185800D01*
G75*
G02*
X128554200Y-119010400I0J175400D01*
G01*
X128554200Y-117209600D01*
G75*
G02*
X128729600Y-117034200I175400J0D01*
G01*
X129080400Y-117034200D01*
G75*
G02*
X129255800Y-117209600I0J-175400D01*
G01*
X129255800Y-119010400D01*
G75*
G02*
X129080400Y-119185800I-175400J0D01*
G01*
G37*
G36*
G01*
X130350400Y-119185800D02*
X129999600Y-119185800D01*
G75*
G02*
X129824200Y-119010400I0J175400D01*
G01*
X129824200Y-117209600D01*
G75*
G02*
X129999600Y-117034200I175400J0D01*
G01*
X130350400Y-117034200D01*
G75*
G02*
X130525800Y-117209600I0J-175400D01*
G01*
X130525800Y-119010400D01*
G75*
G02*
X130350400Y-119185800I-175400J0D01*
G01*
G37*
G36*
G01*
X131620400Y-119185800D02*
X131269600Y-119185800D01*
G75*
G02*
X131094200Y-119010400I0J175400D01*
G01*
X131094200Y-117209600D01*
G75*
G02*
X131269600Y-117034200I175400J0D01*
G01*
X131620400Y-117034200D01*
G75*
G02*
X131795800Y-117209600I0J-175400D01*
G01*
X131795800Y-119010400D01*
G75*
G02*
X131620400Y-119185800I-175400J0D01*
G01*
G37*
G36*
G01*
X132890400Y-119185800D02*
X132539600Y-119185800D01*
G75*
G02*
X132364200Y-119010400I0J175400D01*
G01*
X132364200Y-117209600D01*
G75*
G02*
X132539600Y-117034200I175400J0D01*
G01*
X132890400Y-117034200D01*
G75*
G02*
X133065800Y-117209600I0J-175400D01*
G01*
X133065800Y-119010400D01*
G75*
G02*
X132890400Y-119185800I-175400J0D01*
G01*
G37*
G36*
G01*
X134160400Y-119185800D02*
X133809600Y-119185800D01*
G75*
G02*
X133634200Y-119010400I0J175400D01*
G01*
X133634200Y-117209600D01*
G75*
G02*
X133809600Y-117034200I175400J0D01*
G01*
X134160400Y-117034200D01*
G75*
G02*
X134335800Y-117209600I0J-175400D01*
G01*
X134335800Y-119010400D01*
G75*
G02*
X134160400Y-119185800I-175400J0D01*
G01*
G37*
G36*
G01*
X135430400Y-119185800D02*
X135079600Y-119185800D01*
G75*
G02*
X134904200Y-119010400I0J175400D01*
G01*
X134904200Y-117209600D01*
G75*
G02*
X135079600Y-117034200I175400J0D01*
G01*
X135430400Y-117034200D01*
G75*
G02*
X135605800Y-117209600I0J-175400D01*
G01*
X135605800Y-119010400D01*
G75*
G02*
X135430400Y-119185800I-175400J0D01*
G01*
G37*
G36*
G01*
X136700400Y-119185800D02*
X136349600Y-119185800D01*
G75*
G02*
X136174200Y-119010400I0J175400D01*
G01*
X136174200Y-117209600D01*
G75*
G02*
X136349600Y-117034200I175400J0D01*
G01*
X136700400Y-117034200D01*
G75*
G02*
X136875800Y-117209600I0J-175400D01*
G01*
X136875800Y-119010400D01*
G75*
G02*
X136700400Y-119185800I-175400J0D01*
G01*
G37*
G04 #@! TD*
G04 #@! TO.C,R11*
G36*
G01*
X134844713Y-112394800D02*
X133887287Y-112394800D01*
G75*
G02*
X133615200Y-112122713I0J272087D01*
G01*
X133615200Y-111415287D01*
G75*
G02*
X133887287Y-111143200I272087J0D01*
G01*
X134844713Y-111143200D01*
G75*
G02*
X135116800Y-111415287I0J-272087D01*
G01*
X135116800Y-112122713D01*
G75*
G02*
X134844713Y-112394800I-272087J0D01*
G01*
G37*
G36*
G01*
X134844713Y-110344800D02*
X133887287Y-110344800D01*
G75*
G02*
X133615200Y-110072713I0J272087D01*
G01*
X133615200Y-109365287D01*
G75*
G02*
X133887287Y-109093200I272087J0D01*
G01*
X134844713Y-109093200D01*
G75*
G02*
X135116800Y-109365287I0J-272087D01*
G01*
X135116800Y-110072713D01*
G75*
G02*
X134844713Y-110344800I-272087J0D01*
G01*
G37*
G04 #@! TD*
G04 #@! TO.C,J6*
G36*
G01*
X107580800Y-118530000D02*
X107580800Y-120230000D01*
G75*
G02*
X107530000Y-120280800I-50800J0D01*
G01*
X105830000Y-120280800D01*
G75*
G02*
X105779200Y-120230000I0J50800D01*
G01*
X105779200Y-118530000D01*
G75*
G02*
X105830000Y-118479200I50800J0D01*
G01*
X107530000Y-118479200D01*
G75*
G02*
X107580800Y-118530000I0J-50800D01*
G01*
G37*
D10*
X106680000Y-121920000D03*
G04 #@! TD*
G04 #@! TO.C,R9*
G36*
G01*
X112070100Y-113291400D02*
X112465900Y-113291400D01*
G75*
G02*
X112638800Y-113464300I0J-172900D01*
G01*
X112638800Y-113810100D01*
G75*
G02*
X112465900Y-113983000I-172900J0D01*
G01*
X112070100Y-113983000D01*
G75*
G02*
X111897200Y-113810100I0J172900D01*
G01*
X111897200Y-113464300D01*
G75*
G02*
X112070100Y-113291400I172900J0D01*
G01*
G37*
G36*
G01*
X112070100Y-114261400D02*
X112465900Y-114261400D01*
G75*
G02*
X112638800Y-114434300I0J-172900D01*
G01*
X112638800Y-114780100D01*
G75*
G02*
X112465900Y-114953000I-172900J0D01*
G01*
X112070100Y-114953000D01*
G75*
G02*
X111897200Y-114780100I0J172900D01*
G01*
X111897200Y-114434300D01*
G75*
G02*
X112070100Y-114261400I172900J0D01*
G01*
G37*
G04 #@! TD*
G04 #@! TO.C,R14*
G36*
G01*
X127986713Y-112412800D02*
X127029287Y-112412800D01*
G75*
G02*
X126757200Y-112140713I0J272087D01*
G01*
X126757200Y-111433287D01*
G75*
G02*
X127029287Y-111161200I272087J0D01*
G01*
X127986713Y-111161200D01*
G75*
G02*
X128258800Y-111433287I0J-272087D01*
G01*
X128258800Y-112140713D01*
G75*
G02*
X127986713Y-112412800I-272087J0D01*
G01*
G37*
G36*
G01*
X127986713Y-110362800D02*
X127029287Y-110362800D01*
G75*
G02*
X126757200Y-110090713I0J272087D01*
G01*
X126757200Y-109383287D01*
G75*
G02*
X127029287Y-109111200I272087J0D01*
G01*
X127986713Y-109111200D01*
G75*
G02*
X128258800Y-109383287I0J-272087D01*
G01*
X128258800Y-110090713D01*
G75*
G02*
X127986713Y-110362800I-272087J0D01*
G01*
G37*
G04 #@! TD*
G36*
X151839932Y-118206300D02*
G01*
X151840200Y-118207300D01*
X151840200Y-118856301D01*
X151843952Y-118875161D01*
X151853333Y-118889201D01*
X151853464Y-118891197D01*
X151851801Y-118892308D01*
X151850559Y-118891975D01*
X151845749Y-118888762D01*
X151844451Y-118889402D01*
X151843471Y-118889069D01*
X151823630Y-118875812D01*
X151785700Y-118891523D01*
X151783272Y-118890786D01*
X151782021Y-118888915D01*
X151777441Y-118891975D01*
X151775445Y-118892106D01*
X151774334Y-118890443D01*
X151774667Y-118889201D01*
X151784048Y-118875161D01*
X151787800Y-118856301D01*
X151787800Y-118207300D01*
X151788800Y-118205568D01*
X151789800Y-118205300D01*
X151838200Y-118205300D01*
X151839932Y-118206300D01*
G37*
G36*
X152239932Y-118206300D02*
G01*
X152240200Y-118207300D01*
X152240200Y-118856301D01*
X152243952Y-118875161D01*
X152253333Y-118889201D01*
X152253464Y-118891197D01*
X152251801Y-118892308D01*
X152250559Y-118891975D01*
X152245749Y-118888762D01*
X152244451Y-118889402D01*
X152243471Y-118889069D01*
X152223630Y-118875812D01*
X152185700Y-118891523D01*
X152183272Y-118890786D01*
X152182021Y-118888915D01*
X152177441Y-118891975D01*
X152175445Y-118892106D01*
X152174334Y-118890443D01*
X152174667Y-118889201D01*
X152184048Y-118875161D01*
X152187800Y-118856301D01*
X152187800Y-118207300D01*
X152188800Y-118205568D01*
X152189800Y-118205300D01*
X152238200Y-118205300D01*
X152239932Y-118206300D01*
G37*
G36*
X151439932Y-118206300D02*
G01*
X151440200Y-118207300D01*
X151440200Y-118856301D01*
X151443952Y-118875161D01*
X151453333Y-118889201D01*
X151453464Y-118891197D01*
X151451801Y-118892308D01*
X151450559Y-118891975D01*
X151445749Y-118888762D01*
X151444451Y-118889402D01*
X151443471Y-118889069D01*
X151423630Y-118875812D01*
X151385700Y-118891523D01*
X151383272Y-118890786D01*
X151382021Y-118888915D01*
X151377441Y-118891975D01*
X151375445Y-118892106D01*
X151374334Y-118890443D01*
X151374667Y-118889201D01*
X151384048Y-118875161D01*
X151387800Y-118856301D01*
X151387800Y-118207300D01*
X151388800Y-118205568D01*
X151389800Y-118205300D01*
X151438200Y-118205300D01*
X151439932Y-118206300D01*
G37*
G36*
X150803171Y-117977067D02*
G01*
X150822155Y-118005478D01*
X150853271Y-118026270D01*
X150889439Y-118019075D01*
X150911436Y-117977921D01*
X150913135Y-117976865D01*
X150914898Y-117977808D01*
X150915200Y-117978864D01*
X150915200Y-118156301D01*
X150916223Y-118161443D01*
X150915580Y-118163337D01*
X150913618Y-118163727D01*
X150912598Y-118162944D01*
X150892994Y-118133605D01*
X150856947Y-118126435D01*
X150826937Y-118156445D01*
X150824412Y-118156694D01*
X150823234Y-118155907D01*
X150803059Y-118186101D01*
X150801265Y-118186986D01*
X150799602Y-118185875D01*
X150799595Y-118184121D01*
X150826700Y-118127926D01*
X150826781Y-118035430D01*
X150799705Y-117979044D01*
X150799857Y-117977049D01*
X150801660Y-117976184D01*
X150803171Y-117977067D01*
G37*
G36*
X152828398Y-117977125D02*
G01*
X152828405Y-117978879D01*
X152801300Y-118035074D01*
X152801219Y-118127570D01*
X152828295Y-118183956D01*
X152828143Y-118185951D01*
X152826340Y-118186816D01*
X152824829Y-118185933D01*
X152804187Y-118155041D01*
X152802858Y-118154776D01*
X152788713Y-118133605D01*
X152752665Y-118126435D01*
X152714979Y-118164121D01*
X152713047Y-118164639D01*
X152711603Y-118162317D01*
X152712800Y-118156301D01*
X152712800Y-117978864D01*
X152713800Y-117977132D01*
X152715800Y-117977132D01*
X152716648Y-117978099D01*
X152731122Y-118013041D01*
X152765190Y-118027153D01*
X152805903Y-118005392D01*
X152824941Y-117976899D01*
X152826735Y-117976014D01*
X152828398Y-117977125D01*
G37*
G36*
X150708512Y-117771196D02*
G01*
X150708957Y-117773146D01*
X150708157Y-117774219D01*
X150705098Y-117776263D01*
X150704377Y-117776562D01*
X150667710Y-117783856D01*
X150636595Y-117804646D01*
X150629377Y-117840930D01*
X150650053Y-117871872D01*
X150667513Y-117879105D01*
X150704377Y-117886438D01*
X150705098Y-117886737D01*
X150708313Y-117888885D01*
X150709198Y-117890679D01*
X150708087Y-117892342D01*
X150706754Y-117892497D01*
X150624141Y-117873500D01*
X149914199Y-117873500D01*
X149890089Y-117878295D01*
X149888195Y-117877652D01*
X149887805Y-117875690D01*
X149888588Y-117874670D01*
X149892515Y-117872046D01*
X149913307Y-117840930D01*
X149906045Y-117804428D01*
X149892683Y-117791066D01*
X149888588Y-117788330D01*
X149887703Y-117786536D01*
X149888814Y-117784873D01*
X149890089Y-117784705D01*
X149914199Y-117789500D01*
X150623774Y-117789500D01*
X150706601Y-117770606D01*
X150708512Y-117771196D01*
G37*
G36*
X153003859Y-117789500D02*
G01*
X153713801Y-117789500D01*
X153737911Y-117784705D01*
X153739805Y-117785348D01*
X153740195Y-117787310D01*
X153739412Y-117788330D01*
X153735485Y-117790954D01*
X153714693Y-117822070D01*
X153721955Y-117858572D01*
X153735317Y-117871934D01*
X153739412Y-117874670D01*
X153740297Y-117876464D01*
X153739186Y-117878127D01*
X153737911Y-117878295D01*
X153713801Y-117873500D01*
X153004226Y-117873500D01*
X152921399Y-117892394D01*
X152919488Y-117891804D01*
X152919043Y-117889854D01*
X152919843Y-117888781D01*
X152922902Y-117886737D01*
X152923623Y-117886438D01*
X152960290Y-117879144D01*
X152991405Y-117858354D01*
X152998623Y-117822070D01*
X152977947Y-117791128D01*
X152960487Y-117783895D01*
X152923623Y-117776562D01*
X152922902Y-117776263D01*
X152919687Y-117774115D01*
X152918802Y-117772321D01*
X152919913Y-117770658D01*
X152921246Y-117770503D01*
X153003859Y-117789500D01*
G37*
G36*
X150803171Y-117477067D02*
G01*
X150822155Y-117505478D01*
X150853271Y-117526270D01*
X150889439Y-117519075D01*
X150911436Y-117477921D01*
X150913135Y-117476865D01*
X150914898Y-117477808D01*
X150915200Y-117478864D01*
X150915200Y-117684136D01*
X150914200Y-117685868D01*
X150912200Y-117685868D01*
X150911352Y-117684901D01*
X150896878Y-117649959D01*
X150862810Y-117635847D01*
X150822097Y-117657608D01*
X150803059Y-117686101D01*
X150801265Y-117686986D01*
X150799602Y-117685875D01*
X150799595Y-117684121D01*
X150826700Y-117627926D01*
X150826781Y-117535430D01*
X150799705Y-117479044D01*
X150799857Y-117477049D01*
X150801660Y-117476184D01*
X150803171Y-117477067D01*
G37*
G36*
X152828398Y-117477125D02*
G01*
X152828405Y-117478879D01*
X152801300Y-117535074D01*
X152801219Y-117627570D01*
X152828295Y-117683956D01*
X152828143Y-117685951D01*
X152826340Y-117686816D01*
X152824829Y-117685933D01*
X152805845Y-117657522D01*
X152774729Y-117636730D01*
X152738561Y-117643925D01*
X152716564Y-117685079D01*
X152714865Y-117686135D01*
X152713102Y-117685192D01*
X152712800Y-117684136D01*
X152712800Y-117478864D01*
X152713800Y-117477132D01*
X152715800Y-117477132D01*
X152716648Y-117478099D01*
X152731122Y-117513041D01*
X152765190Y-117527153D01*
X152805903Y-117505392D01*
X152824941Y-117476899D01*
X152826735Y-117476014D01*
X152828398Y-117477125D01*
G37*
G36*
X150708512Y-117271196D02*
G01*
X150708957Y-117273146D01*
X150708157Y-117274219D01*
X150705098Y-117276263D01*
X150704377Y-117276562D01*
X150667710Y-117283856D01*
X150636595Y-117304646D01*
X150629377Y-117340930D01*
X150650053Y-117371872D01*
X150667513Y-117379105D01*
X150704377Y-117386438D01*
X150705098Y-117386737D01*
X150708313Y-117388885D01*
X150709198Y-117390679D01*
X150708087Y-117392342D01*
X150706754Y-117392497D01*
X150624141Y-117373500D01*
X149914199Y-117373500D01*
X149890089Y-117378295D01*
X149888195Y-117377652D01*
X149887805Y-117375690D01*
X149888588Y-117374670D01*
X149892515Y-117372046D01*
X149913307Y-117340930D01*
X149906045Y-117304428D01*
X149892683Y-117291066D01*
X149888588Y-117288330D01*
X149887703Y-117286536D01*
X149888814Y-117284873D01*
X149890089Y-117284705D01*
X149914199Y-117289500D01*
X150623774Y-117289500D01*
X150706601Y-117270606D01*
X150708512Y-117271196D01*
G37*
G36*
X153003859Y-117289500D02*
G01*
X153713801Y-117289500D01*
X153737911Y-117284705D01*
X153739805Y-117285348D01*
X153740195Y-117287310D01*
X153739412Y-117288330D01*
X153735485Y-117290954D01*
X153714693Y-117322070D01*
X153721955Y-117358572D01*
X153735317Y-117371934D01*
X153739412Y-117374670D01*
X153740297Y-117376464D01*
X153739186Y-117378127D01*
X153737911Y-117378295D01*
X153713801Y-117373500D01*
X153004226Y-117373500D01*
X152921399Y-117392394D01*
X152919488Y-117391804D01*
X152919043Y-117389854D01*
X152919843Y-117388781D01*
X152922902Y-117386737D01*
X152923623Y-117386438D01*
X152960290Y-117379144D01*
X152991405Y-117358354D01*
X152998623Y-117322070D01*
X152977947Y-117291128D01*
X152960487Y-117283895D01*
X152923623Y-117276562D01*
X152922902Y-117276263D01*
X152919687Y-117274115D01*
X152918802Y-117272321D01*
X152919913Y-117270658D01*
X152921246Y-117270503D01*
X153003859Y-117289500D01*
G37*
G36*
X150803171Y-116977067D02*
G01*
X150822155Y-117005478D01*
X150853271Y-117026270D01*
X150889439Y-117019075D01*
X150911436Y-116977921D01*
X150913135Y-116976865D01*
X150914898Y-116977808D01*
X150915200Y-116978864D01*
X150915200Y-117184136D01*
X150914200Y-117185868D01*
X150912200Y-117185868D01*
X150911352Y-117184901D01*
X150896878Y-117149959D01*
X150862810Y-117135847D01*
X150822097Y-117157608D01*
X150803059Y-117186101D01*
X150801265Y-117186986D01*
X150799602Y-117185875D01*
X150799595Y-117184121D01*
X150826700Y-117127926D01*
X150826781Y-117035430D01*
X150799705Y-116979044D01*
X150799857Y-116977049D01*
X150801660Y-116976184D01*
X150803171Y-116977067D01*
G37*
G36*
X152828398Y-116977125D02*
G01*
X152828405Y-116978879D01*
X152801300Y-117035074D01*
X152801219Y-117127570D01*
X152828295Y-117183956D01*
X152828143Y-117185951D01*
X152826340Y-117186816D01*
X152824829Y-117185933D01*
X152805845Y-117157522D01*
X152774729Y-117136730D01*
X152738561Y-117143925D01*
X152716564Y-117185079D01*
X152714865Y-117186135D01*
X152713102Y-117185192D01*
X152712800Y-117184136D01*
X152712800Y-116978864D01*
X152713800Y-116977132D01*
X152715800Y-116977132D01*
X152716648Y-116978099D01*
X152731122Y-117013041D01*
X152765190Y-117027153D01*
X152805903Y-117005392D01*
X152824941Y-116976899D01*
X152826735Y-116976014D01*
X152828398Y-116977125D01*
G37*
G36*
X150708512Y-116771196D02*
G01*
X150708957Y-116773146D01*
X150708157Y-116774219D01*
X150705098Y-116776263D01*
X150704377Y-116776562D01*
X150667710Y-116783856D01*
X150636595Y-116804646D01*
X150629377Y-116840930D01*
X150650053Y-116871872D01*
X150667513Y-116879105D01*
X150704377Y-116886438D01*
X150705098Y-116886737D01*
X150708313Y-116888885D01*
X150709198Y-116890679D01*
X150708087Y-116892342D01*
X150706754Y-116892497D01*
X150624141Y-116873500D01*
X149914199Y-116873500D01*
X149890089Y-116878295D01*
X149888195Y-116877652D01*
X149887805Y-116875690D01*
X149888588Y-116874670D01*
X149892515Y-116872046D01*
X149913307Y-116840930D01*
X149906045Y-116804428D01*
X149892683Y-116791066D01*
X149888588Y-116788330D01*
X149887703Y-116786536D01*
X149888814Y-116784873D01*
X149890089Y-116784705D01*
X149914199Y-116789500D01*
X150623774Y-116789500D01*
X150706601Y-116770606D01*
X150708512Y-116771196D01*
G37*
G36*
X153003859Y-116789500D02*
G01*
X153713801Y-116789500D01*
X153737911Y-116784705D01*
X153739805Y-116785348D01*
X153740195Y-116787310D01*
X153739412Y-116788330D01*
X153735485Y-116790954D01*
X153714693Y-116822070D01*
X153721955Y-116858572D01*
X153735317Y-116871934D01*
X153739412Y-116874670D01*
X153740297Y-116876464D01*
X153739186Y-116878127D01*
X153737911Y-116878295D01*
X153713801Y-116873500D01*
X153004226Y-116873500D01*
X152921399Y-116892394D01*
X152919488Y-116891804D01*
X152919043Y-116889854D01*
X152919843Y-116888781D01*
X152922902Y-116886737D01*
X152923623Y-116886438D01*
X152960290Y-116879144D01*
X152991405Y-116858354D01*
X152998623Y-116822070D01*
X152977947Y-116791128D01*
X152960487Y-116783895D01*
X152923623Y-116776562D01*
X152922902Y-116776263D01*
X152919687Y-116774115D01*
X152918802Y-116772321D01*
X152919913Y-116770658D01*
X152921246Y-116770503D01*
X153003859Y-116789500D01*
G37*
G36*
X150803171Y-116477067D02*
G01*
X150822155Y-116505478D01*
X150853271Y-116526270D01*
X150889439Y-116519075D01*
X150911436Y-116477921D01*
X150913135Y-116476865D01*
X150914898Y-116477808D01*
X150915200Y-116478864D01*
X150915200Y-116684136D01*
X150914200Y-116685868D01*
X150912200Y-116685868D01*
X150911352Y-116684901D01*
X150896878Y-116649959D01*
X150862810Y-116635847D01*
X150822097Y-116657608D01*
X150803059Y-116686101D01*
X150801265Y-116686986D01*
X150799602Y-116685875D01*
X150799595Y-116684121D01*
X150826700Y-116627926D01*
X150826781Y-116535430D01*
X150799705Y-116479044D01*
X150799857Y-116477049D01*
X150801660Y-116476184D01*
X150803171Y-116477067D01*
G37*
G36*
X152828398Y-116477125D02*
G01*
X152828405Y-116478879D01*
X152801300Y-116535074D01*
X152801219Y-116627570D01*
X152828295Y-116683956D01*
X152828143Y-116685951D01*
X152826340Y-116686816D01*
X152824829Y-116685933D01*
X152805845Y-116657522D01*
X152774729Y-116636730D01*
X152738561Y-116643925D01*
X152716564Y-116685079D01*
X152714865Y-116686135D01*
X152713102Y-116685192D01*
X152712800Y-116684136D01*
X152712800Y-116478864D01*
X152713800Y-116477132D01*
X152715800Y-116477132D01*
X152716648Y-116478099D01*
X152731122Y-116513041D01*
X152765190Y-116527153D01*
X152805903Y-116505392D01*
X152824941Y-116476899D01*
X152826735Y-116476014D01*
X152828398Y-116477125D01*
G37*
G36*
X150708512Y-116271196D02*
G01*
X150708957Y-116273146D01*
X150708157Y-116274219D01*
X150705098Y-116276263D01*
X150704377Y-116276562D01*
X150667710Y-116283856D01*
X150636595Y-116304646D01*
X150629377Y-116340930D01*
X150650053Y-116371872D01*
X150667513Y-116379105D01*
X150704377Y-116386438D01*
X150705098Y-116386737D01*
X150708313Y-116388885D01*
X150709198Y-116390679D01*
X150708087Y-116392342D01*
X150706754Y-116392497D01*
X150624141Y-116373500D01*
X149914199Y-116373500D01*
X149890089Y-116378295D01*
X149888195Y-116377652D01*
X149887805Y-116375690D01*
X149888588Y-116374670D01*
X149892515Y-116372046D01*
X149913307Y-116340930D01*
X149906045Y-116304428D01*
X149892683Y-116291066D01*
X149888588Y-116288330D01*
X149887703Y-116286536D01*
X149888814Y-116284873D01*
X149890089Y-116284705D01*
X149914199Y-116289500D01*
X150623774Y-116289500D01*
X150706601Y-116270606D01*
X150708512Y-116271196D01*
G37*
G36*
X153003859Y-116289500D02*
G01*
X153713801Y-116289500D01*
X153737911Y-116284705D01*
X153739805Y-116285348D01*
X153740195Y-116287310D01*
X153739412Y-116288330D01*
X153735485Y-116290954D01*
X153714693Y-116322070D01*
X153721955Y-116358572D01*
X153735317Y-116371934D01*
X153739412Y-116374670D01*
X153740297Y-116376464D01*
X153739186Y-116378127D01*
X153737911Y-116378295D01*
X153713801Y-116373500D01*
X153004226Y-116373500D01*
X152921399Y-116392394D01*
X152919488Y-116391804D01*
X152919043Y-116389854D01*
X152919843Y-116388781D01*
X152922902Y-116386737D01*
X152923623Y-116386438D01*
X152960290Y-116379144D01*
X152991405Y-116358354D01*
X152998623Y-116322070D01*
X152977947Y-116291128D01*
X152960487Y-116283895D01*
X152923623Y-116276562D01*
X152922902Y-116276263D01*
X152919687Y-116274115D01*
X152918802Y-116272321D01*
X152919913Y-116270658D01*
X152921246Y-116270503D01*
X153003859Y-116289500D01*
G37*
G36*
X150803171Y-115977067D02*
G01*
X150823813Y-116007959D01*
X150825142Y-116008224D01*
X150839287Y-116029395D01*
X150875335Y-116036565D01*
X150913021Y-115998879D01*
X150914953Y-115998361D01*
X150916397Y-116000683D01*
X150915200Y-116006699D01*
X150915200Y-116184136D01*
X150914200Y-116185868D01*
X150912200Y-116185868D01*
X150911352Y-116184901D01*
X150896878Y-116149959D01*
X150862810Y-116135847D01*
X150822097Y-116157608D01*
X150803059Y-116186101D01*
X150801265Y-116186986D01*
X150799602Y-116185875D01*
X150799595Y-116184121D01*
X150826700Y-116127926D01*
X150826781Y-116035430D01*
X150799705Y-115979044D01*
X150799857Y-115977049D01*
X150801660Y-115976184D01*
X150803171Y-115977067D01*
G37*
G36*
X152828398Y-115977125D02*
G01*
X152828405Y-115978879D01*
X152801300Y-116035074D01*
X152801219Y-116127570D01*
X152828295Y-116183956D01*
X152828143Y-116185951D01*
X152826340Y-116186816D01*
X152824829Y-116185933D01*
X152805845Y-116157522D01*
X152774729Y-116136730D01*
X152738561Y-116143925D01*
X152716564Y-116185079D01*
X152714865Y-116186135D01*
X152713102Y-116185192D01*
X152712800Y-116184136D01*
X152712800Y-116006699D01*
X152711777Y-116001557D01*
X152712420Y-115999663D01*
X152714382Y-115999273D01*
X152715402Y-116000056D01*
X152735006Y-116029395D01*
X152771053Y-116036565D01*
X152801063Y-116006555D01*
X152803588Y-116006306D01*
X152804766Y-116007093D01*
X152824941Y-115976899D01*
X152826735Y-115976014D01*
X152828398Y-115977125D01*
G37*
G36*
X151377441Y-115271025D02*
G01*
X151382251Y-115274238D01*
X151383549Y-115273598D01*
X151384529Y-115273931D01*
X151404370Y-115287188D01*
X151442300Y-115271477D01*
X151444728Y-115272214D01*
X151445979Y-115274085D01*
X151450559Y-115271025D01*
X151452555Y-115270894D01*
X151453666Y-115272557D01*
X151453333Y-115273799D01*
X151443952Y-115287839D01*
X151440200Y-115306699D01*
X151440200Y-115955700D01*
X151439200Y-115957432D01*
X151438200Y-115957700D01*
X151389800Y-115957700D01*
X151388068Y-115956700D01*
X151387800Y-115955700D01*
X151387800Y-115306699D01*
X151384048Y-115287839D01*
X151374667Y-115273799D01*
X151374536Y-115271803D01*
X151376199Y-115270692D01*
X151377441Y-115271025D01*
G37*
G36*
X151777441Y-115271025D02*
G01*
X151782251Y-115274238D01*
X151783549Y-115273598D01*
X151784529Y-115273931D01*
X151804370Y-115287188D01*
X151842300Y-115271477D01*
X151844728Y-115272214D01*
X151845979Y-115274085D01*
X151850559Y-115271025D01*
X151852555Y-115270894D01*
X151853666Y-115272557D01*
X151853333Y-115273799D01*
X151843952Y-115287839D01*
X151840200Y-115306699D01*
X151840200Y-115955700D01*
X151839200Y-115957432D01*
X151838200Y-115957700D01*
X151789800Y-115957700D01*
X151788068Y-115956700D01*
X151787800Y-115955700D01*
X151787800Y-115306699D01*
X151784048Y-115287839D01*
X151774667Y-115273799D01*
X151774536Y-115271803D01*
X151776199Y-115270692D01*
X151777441Y-115271025D01*
G37*
G36*
X152177441Y-115271025D02*
G01*
X152182251Y-115274238D01*
X152183549Y-115273598D01*
X152184529Y-115273931D01*
X152204370Y-115287188D01*
X152242300Y-115271477D01*
X152244728Y-115272214D01*
X152245979Y-115274085D01*
X152250559Y-115271025D01*
X152252555Y-115270894D01*
X152253666Y-115272557D01*
X152253333Y-115273799D01*
X152243952Y-115287839D01*
X152240200Y-115306699D01*
X152240200Y-115955700D01*
X152239200Y-115957432D01*
X152238200Y-115957700D01*
X152189800Y-115957700D01*
X152188068Y-115956700D01*
X152187800Y-115955700D01*
X152187800Y-115306699D01*
X152184048Y-115287839D01*
X152174667Y-115273799D01*
X152174536Y-115271803D01*
X152176199Y-115270692D01*
X152177441Y-115271025D01*
G37*
M02*
