M48
; DRILL file {KiCad (5.99.0-1157-ga17a78e42)} date Sunday, April 19, 2020 at 01:42:56 PM
; FORMAT={-:-/ absolute / inch / decimal}
; #@! TF.CreationDate,2020-04-19T13:42:56-07:00
; #@! TF.GenerationSoftware,Kicad,Pcbnew,(5.99.0-1157-ga17a78e42)
FMAT,2
INCH
T1C0.0157
T2C0.0394
T3C0.0409
T4C0.0433
%
G90
G05
T1
X3.765Y-4.052
X3.775Y-2.852
X3.782Y-3.367
X4.124Y-2.862
X4.186Y-2.491
X4.336Y-3.488
X4.479Y-2.783
X4.67Y-2.53
X4.689Y-2.375
X4.941Y-2.193
X5.007Y-2.38
X5.011Y-2.663
X5.041Y-3.638
X5.063Y-4.062
X5.076Y-3.123
X5.083Y-3.41
X5.235Y-2.971
X5.347Y-4.056
X5.364Y-3.645
X5.42Y-2.46
X5.426Y-2.865
X5.553Y-3.123
X5.553Y-3.4
X5.561Y-2.973
X5.638Y-4.052
X5.765Y-2.16
X5.912Y-3.726
X5.9528Y-3.0827
X5.961Y-3.519
X6.0Y-2.451
X6.0984Y-3.2283
X6.139Y-3.05
X6.253Y-3.4813
X6.3031Y-2.0906
X6.3031Y-2.4567
X6.3031Y-2.6496
X6.3189Y-3.4252
X6.354Y-3.485
X6.3976Y-3.4252
X6.4803Y-2.7165
X6.503Y-3.3888
X6.553Y-3.497
X6.603Y-3.4246
X6.647Y-3.063
X6.6772Y-3.4567
X6.7283Y-3.3622
X6.7943Y-3.8504
T2
X3.8122Y-2.1457
X3.8122Y-2.2457
X3.9122Y-2.1457
X3.9122Y-2.2457
X4.0122Y-2.1457
X4.0122Y-2.2457
X4.1122Y-2.1457
X4.1122Y-2.2457
X4.2122Y-2.1457
X4.2122Y-2.2457
X4.3122Y-2.1457
X4.3122Y-2.2457
X4.4122Y-2.1457
X4.4122Y-2.2457
X4.5122Y-2.1457
X4.5122Y-2.2457
X4.6122Y-2.1457
X4.6122Y-2.2457
X4.359Y-2.973
X4.459Y-2.973
X6.0126Y-4.0748
X6.0126Y-4.1748
X6.1126Y-4.0748
X6.1126Y-4.1748
X6.2126Y-4.0748
X6.2126Y-4.1748
X6.3126Y-4.0748
X6.3126Y-4.1748
X6.4126Y-4.0748
X6.4126Y-4.1748
X6.5126Y-4.0748
X6.5126Y-4.1748
X6.6126Y-4.0748
X6.6126Y-4.1748
X6.7126Y-4.0748
X6.7126Y-4.1748
T3
X4.8172Y-2.3732
X4.8172Y-2.4732
X4.8172Y-2.5732
X4.8172Y-2.6732
X4.8172Y-2.7732
X4.8172Y-2.8732
X4.8172Y-2.9732
X4.8172Y-3.0732
X4.8172Y-3.1732
X4.8172Y-3.2732
X4.8172Y-3.3732
X4.8172Y-3.4732
X4.8172Y-3.5732
X4.8172Y-3.6732
X4.8172Y-3.7732
X4.8172Y-3.8732
X4.8172Y-3.9732
X4.8172Y-4.0732
X4.8172Y-4.1732
X5.8172Y-2.3732
X5.8172Y-2.4732
X5.8172Y-2.5732
X5.8172Y-2.6732
X5.8172Y-2.7732
X5.8172Y-2.8732
X5.8172Y-2.9732
X5.8172Y-3.0732
X5.8172Y-3.1732
X5.8172Y-3.2732
X5.8172Y-3.3732
X5.8172Y-3.4732
X5.8172Y-3.5732
X5.8172Y-3.6732
X5.8172Y-3.7732
X5.8172Y-3.8732
X5.8172Y-3.9732
X5.8172Y-4.0732
X5.8172Y-4.1732
T4
X4.3685Y-4.0836
X4.4685Y-4.0836
T0
M30
