G04 #@! TF.GenerationSoftware,KiCad,Pcbnew,(5.99.0-1157-ga17a78e42)*
G04 #@! TF.CreationDate,2020-04-19T13:41:11-07:00*
G04 #@! TF.ProjectId,signal-board,7369676e-616c-42d6-926f-6172642e6b69,rev?*
G04 #@! TF.SameCoordinates,Original*
G04 #@! TF.FileFunction,Legend,Bot*
G04 #@! TF.FilePolarity,Positive*
%FSLAX46Y46*%
G04 Gerber Fmt 4.6, Leading zero omitted, Abs format (unit mm)*
G04 Created by KiCad (PCBNEW (5.99.0-1157-ga17a78e42)) date 2020-04-19 13:41:11*
%MOMM*%
%LPD*%
G01*
G04 APERTURE LIST*
%ADD10C,0.005291*%
G04 APERTURE END LIST*
D10*
G36*
X144091916Y-72145222D02*
G01*
X144122444Y-72148287D01*
X144151415Y-72152897D01*
X144178973Y-72159037D01*
X144205263Y-72166688D01*
X144230429Y-72175836D01*
X144254616Y-72186464D01*
X144277967Y-72198554D01*
X144300628Y-72212091D01*
X144322742Y-72227059D01*
X144344454Y-72243440D01*
X144365908Y-72261218D01*
X144387249Y-72280377D01*
X144419351Y-72324751D01*
X144461011Y-72403201D01*
X144510624Y-72511106D01*
X144566585Y-72643847D01*
X144691135Y-72965357D01*
X144821825Y-73330772D01*
X144945817Y-73703131D01*
X145050276Y-74045477D01*
X145122365Y-74320851D01*
X145142259Y-74421873D01*
X145149247Y-74492292D01*
X145148418Y-74517104D01*
X145145968Y-74541897D01*
X145141948Y-74566619D01*
X145136410Y-74591222D01*
X145129408Y-74615654D01*
X145120993Y-74639865D01*
X145111217Y-74663805D01*
X145100133Y-74687423D01*
X145087794Y-74710669D01*
X145074251Y-74733492D01*
X145059557Y-74755843D01*
X145043765Y-74777670D01*
X145026926Y-74798924D01*
X145009093Y-74819554D01*
X144970653Y-74858741D01*
X144928865Y-74894826D01*
X144906846Y-74911581D01*
X144884147Y-74927408D01*
X144860820Y-74942260D01*
X144836917Y-74956084D01*
X144812491Y-74968830D01*
X144787595Y-74980449D01*
X144762279Y-74990890D01*
X144736598Y-75000102D01*
X144710602Y-75008035D01*
X144684345Y-75014638D01*
X144657879Y-75019862D01*
X144631255Y-75023656D01*
X144604527Y-75025969D01*
X144577747Y-75026751D01*
X144552062Y-75026181D01*
X144526616Y-75024483D01*
X144501429Y-75021676D01*
X144476523Y-75017780D01*
X144451920Y-75012815D01*
X144427640Y-75006799D01*
X144403705Y-74999752D01*
X144380137Y-74991694D01*
X144356956Y-74982643D01*
X144334184Y-74972620D01*
X144311842Y-74961643D01*
X144289951Y-74949733D01*
X144268534Y-74936907D01*
X144247610Y-74923186D01*
X144227202Y-74908590D01*
X144207331Y-74893136D01*
X144188018Y-74876846D01*
X144169284Y-74859738D01*
X144151151Y-74841831D01*
X144133640Y-74823146D01*
X144116773Y-74803701D01*
X144100570Y-74783515D01*
X144085053Y-74762609D01*
X144070244Y-74741001D01*
X144056163Y-74718711D01*
X144042832Y-74695758D01*
X144030272Y-74672162D01*
X144018505Y-74647942D01*
X144007552Y-74623117D01*
X143997434Y-74597707D01*
X143988172Y-74571731D01*
X143979789Y-74545209D01*
X143972789Y-74524579D01*
X143965712Y-74504436D01*
X143958604Y-74484899D01*
X143951511Y-74466082D01*
X143944480Y-74448103D01*
X143937558Y-74431076D01*
X143930791Y-74415120D01*
X143924226Y-74400350D01*
X143917909Y-74386882D01*
X143911886Y-74374832D01*
X143906204Y-74364317D01*
X143900911Y-74355453D01*
X143896051Y-74348357D01*
X143893798Y-74345508D01*
X143891672Y-74343144D01*
X143889677Y-74341281D01*
X143887820Y-74339931D01*
X143886106Y-74339111D01*
X143884542Y-74338834D01*
X143855829Y-74384196D01*
X143784824Y-74514204D01*
X143535288Y-74991694D01*
X143174628Y-75698379D01*
X142741538Y-76561334D01*
X142299684Y-77435782D01*
X142100089Y-77824141D01*
X141921330Y-78167355D01*
X141768367Y-78455998D01*
X141646163Y-78680646D01*
X141559677Y-78831872D01*
X141531379Y-78877006D01*
X141513871Y-78900250D01*
X141500064Y-78912026D01*
X141484529Y-78923515D01*
X141467397Y-78934678D01*
X141448800Y-78945478D01*
X141428869Y-78955874D01*
X141407738Y-78965828D01*
X141385536Y-78975302D01*
X141362397Y-78984256D01*
X141338452Y-78992652D01*
X141313832Y-79000451D01*
X141288670Y-79007615D01*
X141263097Y-79014104D01*
X141237245Y-79019881D01*
X141211246Y-79024905D01*
X141185231Y-79029139D01*
X141159333Y-79032543D01*
X141119811Y-79037039D01*
X141084266Y-79040480D01*
X141052210Y-79042681D01*
X141023153Y-79043456D01*
X141009597Y-79043251D01*
X140996608Y-79042619D01*
X140984124Y-79041538D01*
X140972086Y-79039984D01*
X140960431Y-79037933D01*
X140949099Y-79035364D01*
X140938028Y-79032252D01*
X140927158Y-79028573D01*
X140916427Y-79024306D01*
X140905775Y-79019427D01*
X140895141Y-79013912D01*
X140884463Y-79007738D01*
X140873680Y-79000881D01*
X140862732Y-78993320D01*
X140851556Y-78985030D01*
X140840093Y-78975988D01*
X140816060Y-78955555D01*
X140790143Y-78931835D01*
X140761855Y-78904643D01*
X140730706Y-78873793D01*
X140624872Y-78760363D01*
X140586900Y-78704628D01*
X140560711Y-78644018D01*
X140547668Y-78574386D01*
X140549135Y-78491583D01*
X140566478Y-78391464D01*
X140601060Y-78269881D01*
X140654245Y-78122687D01*
X140727398Y-77945735D01*
X140939065Y-77485970D01*
X141246974Y-76857409D01*
X141662040Y-76026876D01*
X142090582Y-75159042D01*
X142439253Y-74445991D01*
X142671837Y-73961142D01*
X142733280Y-73827238D01*
X142748309Y-73791431D01*
X142752121Y-73777918D01*
X142750945Y-73776522D01*
X142749407Y-73775309D01*
X142745290Y-73773422D01*
X142739855Y-73772232D01*
X142733188Y-73771717D01*
X142725373Y-73771852D01*
X142716497Y-73772616D01*
X142706643Y-73773984D01*
X142695899Y-73775933D01*
X142684348Y-73778441D01*
X142672077Y-73781483D01*
X142659169Y-73785038D01*
X142645712Y-73789080D01*
X142617486Y-73798537D01*
X142588082Y-73809668D01*
X142543674Y-73824305D01*
X142497979Y-73836478D01*
X142451323Y-73846201D01*
X142404031Y-73853489D01*
X142356429Y-73858360D01*
X142308842Y-73860827D01*
X142261597Y-73860908D01*
X142215018Y-73858616D01*
X142169432Y-73853967D01*
X142125163Y-73846978D01*
X142082537Y-73837663D01*
X142041881Y-73826039D01*
X142003519Y-73812120D01*
X141967777Y-73795922D01*
X141934980Y-73777460D01*
X141919789Y-73767386D01*
X141905456Y-73756751D01*
X141879008Y-73734586D01*
X141854235Y-73710829D01*
X141831139Y-73685595D01*
X141809720Y-73659000D01*
X141789979Y-73631156D01*
X141771917Y-73602179D01*
X141755536Y-73572182D01*
X141740835Y-73541281D01*
X141727817Y-73509588D01*
X141716481Y-73477220D01*
X141706830Y-73444289D01*
X141698864Y-73410911D01*
X141692583Y-73377200D01*
X141687989Y-73343269D01*
X141685084Y-73309234D01*
X141683867Y-73275209D01*
X141684340Y-73241308D01*
X141686504Y-73207645D01*
X141690359Y-73174334D01*
X141695908Y-73141491D01*
X141703150Y-73109229D01*
X141712086Y-73077663D01*
X141722718Y-73046907D01*
X141735047Y-73017075D01*
X141749074Y-72988282D01*
X141764799Y-72960642D01*
X141782223Y-72934269D01*
X141801348Y-72909278D01*
X141822174Y-72885783D01*
X141844703Y-72863898D01*
X141868935Y-72843738D01*
X141894872Y-72825417D01*
X141937051Y-72803600D01*
X142013026Y-72770930D01*
X142248754Y-72679236D01*
X142566834Y-72562736D01*
X142932041Y-72433835D01*
X143111571Y-72373103D01*
X143273900Y-72319806D01*
X143420184Y-72273810D01*
X143551578Y-72234984D01*
X143669235Y-72203196D01*
X143723274Y-72189901D01*
X143774313Y-72178316D01*
X143822495Y-72168424D01*
X143867964Y-72160209D01*
X143910867Y-72153656D01*
X143951346Y-72148746D01*
X143989546Y-72145465D01*
X144025611Y-72143794D01*
X144059686Y-72143719D01*
X144091916Y-72145222D01*
G37*
X144091916Y-72145222D02*
X144122444Y-72148287D01*
X144151415Y-72152897D01*
X144178973Y-72159037D01*
X144205263Y-72166688D01*
X144230429Y-72175836D01*
X144254616Y-72186464D01*
X144277967Y-72198554D01*
X144300628Y-72212091D01*
X144322742Y-72227059D01*
X144344454Y-72243440D01*
X144365908Y-72261218D01*
X144387249Y-72280377D01*
X144419351Y-72324751D01*
X144461011Y-72403201D01*
X144510624Y-72511106D01*
X144566585Y-72643847D01*
X144691135Y-72965357D01*
X144821825Y-73330772D01*
X144945817Y-73703131D01*
X145050276Y-74045477D01*
X145122365Y-74320851D01*
X145142259Y-74421873D01*
X145149247Y-74492292D01*
X145148418Y-74517104D01*
X145145968Y-74541897D01*
X145141948Y-74566619D01*
X145136410Y-74591222D01*
X145129408Y-74615654D01*
X145120993Y-74639865D01*
X145111217Y-74663805D01*
X145100133Y-74687423D01*
X145087794Y-74710669D01*
X145074251Y-74733492D01*
X145059557Y-74755843D01*
X145043765Y-74777670D01*
X145026926Y-74798924D01*
X145009093Y-74819554D01*
X144970653Y-74858741D01*
X144928865Y-74894826D01*
X144906846Y-74911581D01*
X144884147Y-74927408D01*
X144860820Y-74942260D01*
X144836917Y-74956084D01*
X144812491Y-74968830D01*
X144787595Y-74980449D01*
X144762279Y-74990890D01*
X144736598Y-75000102D01*
X144710602Y-75008035D01*
X144684345Y-75014638D01*
X144657879Y-75019862D01*
X144631255Y-75023656D01*
X144604527Y-75025969D01*
X144577747Y-75026751D01*
X144552062Y-75026181D01*
X144526616Y-75024483D01*
X144501429Y-75021676D01*
X144476523Y-75017780D01*
X144451920Y-75012815D01*
X144427640Y-75006799D01*
X144403705Y-74999752D01*
X144380137Y-74991694D01*
X144356956Y-74982643D01*
X144334184Y-74972620D01*
X144311842Y-74961643D01*
X144289951Y-74949733D01*
X144268534Y-74936907D01*
X144247610Y-74923186D01*
X144227202Y-74908590D01*
X144207331Y-74893136D01*
X144188018Y-74876846D01*
X144169284Y-74859738D01*
X144151151Y-74841831D01*
X144133640Y-74823146D01*
X144116773Y-74803701D01*
X144100570Y-74783515D01*
X144085053Y-74762609D01*
X144070244Y-74741001D01*
X144056163Y-74718711D01*
X144042832Y-74695758D01*
X144030272Y-74672162D01*
X144018505Y-74647942D01*
X144007552Y-74623117D01*
X143997434Y-74597707D01*
X143988172Y-74571731D01*
X143979789Y-74545209D01*
X143972789Y-74524579D01*
X143965712Y-74504436D01*
X143958604Y-74484899D01*
X143951511Y-74466082D01*
X143944480Y-74448103D01*
X143937558Y-74431076D01*
X143930791Y-74415120D01*
X143924226Y-74400350D01*
X143917909Y-74386882D01*
X143911886Y-74374832D01*
X143906204Y-74364317D01*
X143900911Y-74355453D01*
X143896051Y-74348357D01*
X143893798Y-74345508D01*
X143891672Y-74343144D01*
X143889677Y-74341281D01*
X143887820Y-74339931D01*
X143886106Y-74339111D01*
X143884542Y-74338834D01*
X143855829Y-74384196D01*
X143784824Y-74514204D01*
X143535288Y-74991694D01*
X143174628Y-75698379D01*
X142741538Y-76561334D01*
X142299684Y-77435782D01*
X142100089Y-77824141D01*
X141921330Y-78167355D01*
X141768367Y-78455998D01*
X141646163Y-78680646D01*
X141559677Y-78831872D01*
X141531379Y-78877006D01*
X141513871Y-78900250D01*
X141500064Y-78912026D01*
X141484529Y-78923515D01*
X141467397Y-78934678D01*
X141448800Y-78945478D01*
X141428869Y-78955874D01*
X141407738Y-78965828D01*
X141385536Y-78975302D01*
X141362397Y-78984256D01*
X141338452Y-78992652D01*
X141313832Y-79000451D01*
X141288670Y-79007615D01*
X141263097Y-79014104D01*
X141237245Y-79019881D01*
X141211246Y-79024905D01*
X141185231Y-79029139D01*
X141159333Y-79032543D01*
X141119811Y-79037039D01*
X141084266Y-79040480D01*
X141052210Y-79042681D01*
X141023153Y-79043456D01*
X141009597Y-79043251D01*
X140996608Y-79042619D01*
X140984124Y-79041538D01*
X140972086Y-79039984D01*
X140960431Y-79037933D01*
X140949099Y-79035364D01*
X140938028Y-79032252D01*
X140927158Y-79028573D01*
X140916427Y-79024306D01*
X140905775Y-79019427D01*
X140895141Y-79013912D01*
X140884463Y-79007738D01*
X140873680Y-79000881D01*
X140862732Y-78993320D01*
X140851556Y-78985030D01*
X140840093Y-78975988D01*
X140816060Y-78955555D01*
X140790143Y-78931835D01*
X140761855Y-78904643D01*
X140730706Y-78873793D01*
X140624872Y-78760363D01*
X140586900Y-78704628D01*
X140560711Y-78644018D01*
X140547668Y-78574386D01*
X140549135Y-78491583D01*
X140566478Y-78391464D01*
X140601060Y-78269881D01*
X140654245Y-78122687D01*
X140727398Y-77945735D01*
X140939065Y-77485970D01*
X141246974Y-76857409D01*
X141662040Y-76026876D01*
X142090582Y-75159042D01*
X142439253Y-74445991D01*
X142671837Y-73961142D01*
X142733280Y-73827238D01*
X142748309Y-73791431D01*
X142752121Y-73777918D01*
X142750945Y-73776522D01*
X142749407Y-73775309D01*
X142745290Y-73773422D01*
X142739855Y-73772232D01*
X142733188Y-73771717D01*
X142725373Y-73771852D01*
X142716497Y-73772616D01*
X142706643Y-73773984D01*
X142695899Y-73775933D01*
X142684348Y-73778441D01*
X142672077Y-73781483D01*
X142659169Y-73785038D01*
X142645712Y-73789080D01*
X142617486Y-73798537D01*
X142588082Y-73809668D01*
X142543674Y-73824305D01*
X142497979Y-73836478D01*
X142451323Y-73846201D01*
X142404031Y-73853489D01*
X142356429Y-73858360D01*
X142308842Y-73860827D01*
X142261597Y-73860908D01*
X142215018Y-73858616D01*
X142169432Y-73853967D01*
X142125163Y-73846978D01*
X142082537Y-73837663D01*
X142041881Y-73826039D01*
X142003519Y-73812120D01*
X141967777Y-73795922D01*
X141934980Y-73777460D01*
X141919789Y-73767386D01*
X141905456Y-73756751D01*
X141879008Y-73734586D01*
X141854235Y-73710829D01*
X141831139Y-73685595D01*
X141809720Y-73659000D01*
X141789979Y-73631156D01*
X141771917Y-73602179D01*
X141755536Y-73572182D01*
X141740835Y-73541281D01*
X141727817Y-73509588D01*
X141716481Y-73477220D01*
X141706830Y-73444289D01*
X141698864Y-73410911D01*
X141692583Y-73377200D01*
X141687989Y-73343269D01*
X141685084Y-73309234D01*
X141683867Y-73275209D01*
X141684340Y-73241308D01*
X141686504Y-73207645D01*
X141690359Y-73174334D01*
X141695908Y-73141491D01*
X141703150Y-73109229D01*
X141712086Y-73077663D01*
X141722718Y-73046907D01*
X141735047Y-73017075D01*
X141749074Y-72988282D01*
X141764799Y-72960642D01*
X141782223Y-72934269D01*
X141801348Y-72909278D01*
X141822174Y-72885783D01*
X141844703Y-72863898D01*
X141868935Y-72843738D01*
X141894872Y-72825417D01*
X141937051Y-72803600D01*
X142013026Y-72770930D01*
X142248754Y-72679236D01*
X142566834Y-72562736D01*
X142932041Y-72433835D01*
X143111571Y-72373103D01*
X143273900Y-72319806D01*
X143420184Y-72273810D01*
X143551578Y-72234984D01*
X143669235Y-72203196D01*
X143723274Y-72189901D01*
X143774313Y-72178316D01*
X143822495Y-72168424D01*
X143867964Y-72160209D01*
X143910867Y-72153656D01*
X143951346Y-72148746D01*
X143989546Y-72145465D01*
X144025611Y-72143794D01*
X144059686Y-72143719D01*
X144091916Y-72145222D01*
G36*
X112275442Y-71558281D02*
G01*
X112689505Y-71570631D01*
X113106296Y-71588687D01*
X113497228Y-71611394D01*
X113833714Y-71637697D01*
X114087165Y-71666543D01*
X114542809Y-71744207D01*
X114994624Y-71838150D01*
X115442129Y-71948154D01*
X115884844Y-72074001D01*
X116322288Y-72215476D01*
X116753980Y-72372360D01*
X117179439Y-72544437D01*
X117598187Y-72731491D01*
X118009740Y-72933303D01*
X118413620Y-73149656D01*
X118809345Y-73380335D01*
X119196435Y-73625121D01*
X119574409Y-73883798D01*
X119942787Y-74156148D01*
X120301088Y-74441955D01*
X120648831Y-74741002D01*
X120790437Y-74871858D01*
X120919719Y-74998815D01*
X121036877Y-75122315D01*
X121142114Y-75242800D01*
X121235630Y-75360711D01*
X121317628Y-75476491D01*
X121388309Y-75590581D01*
X121447874Y-75703423D01*
X121473551Y-75759514D01*
X121496525Y-75815459D01*
X121516820Y-75871312D01*
X121534463Y-75927130D01*
X121549478Y-75982967D01*
X121561890Y-76038879D01*
X121571725Y-76094921D01*
X121579008Y-76151147D01*
X121583764Y-76207614D01*
X121586018Y-76264377D01*
X121585795Y-76321490D01*
X121583121Y-76379009D01*
X121578021Y-76436990D01*
X121570519Y-76495487D01*
X121548414Y-76614251D01*
X121525657Y-76707828D01*
X121499064Y-76798064D01*
X121468640Y-76884967D01*
X121434396Y-76968545D01*
X121396338Y-77048805D01*
X121354473Y-77125755D01*
X121308811Y-77199403D01*
X121259358Y-77269756D01*
X121206122Y-77336823D01*
X121149111Y-77400611D01*
X121088333Y-77461128D01*
X121023796Y-77518382D01*
X120955507Y-77572380D01*
X120883474Y-77623130D01*
X120807705Y-77670640D01*
X120728207Y-77714917D01*
X120650682Y-77752734D01*
X120614086Y-77768879D01*
X120578304Y-77783296D01*
X120542863Y-77796069D01*
X120507290Y-77807284D01*
X120471112Y-77817026D01*
X120433857Y-77825381D01*
X120395052Y-77832433D01*
X120354224Y-77838269D01*
X120310900Y-77842973D01*
X120264607Y-77846630D01*
X120214872Y-77849326D01*
X120161222Y-77851146D01*
X120040289Y-77852500D01*
X119942399Y-77851652D01*
X119848756Y-77846951D01*
X119758772Y-77838141D01*
X119671858Y-77824968D01*
X119587424Y-77807174D01*
X119504881Y-77784505D01*
X119423641Y-77756704D01*
X119343114Y-77723516D01*
X119262711Y-77684685D01*
X119181842Y-77639955D01*
X119099920Y-77589071D01*
X119016354Y-77531776D01*
X118930556Y-77467814D01*
X118841936Y-77396931D01*
X118749905Y-77318870D01*
X118653875Y-77233375D01*
X118372879Y-76982786D01*
X118232458Y-76864166D01*
X118091635Y-76749684D01*
X117950067Y-76639110D01*
X117807414Y-76532210D01*
X117663335Y-76428751D01*
X117517488Y-76328501D01*
X117369534Y-76231228D01*
X117219129Y-76136699D01*
X117065935Y-76044681D01*
X116909608Y-75954943D01*
X116749809Y-75867250D01*
X116586197Y-75781372D01*
X116246166Y-75614126D01*
X115703734Y-75377292D01*
X115152900Y-75176727D01*
X114595058Y-75012361D01*
X114031603Y-74884124D01*
X113463933Y-74791948D01*
X112893440Y-74735761D01*
X112321522Y-74715495D01*
X111749572Y-74731079D01*
X111178987Y-74782444D01*
X110611161Y-74869520D01*
X110047490Y-74992238D01*
X109489369Y-75150527D01*
X108938193Y-75344317D01*
X108395358Y-75573540D01*
X107862259Y-75838124D01*
X107340291Y-76138001D01*
X107160230Y-76250790D01*
X106984261Y-76367610D01*
X106811021Y-76489515D01*
X106639146Y-76617558D01*
X106467270Y-76752795D01*
X106294030Y-76896280D01*
X106118061Y-77049067D01*
X105938000Y-77212209D01*
X105835351Y-77304860D01*
X105739159Y-77388612D01*
X105648564Y-77463868D01*
X105562705Y-77531032D01*
X105480722Y-77590507D01*
X105401753Y-77642695D01*
X105324940Y-77687999D01*
X105249422Y-77726824D01*
X105174337Y-77759571D01*
X105098826Y-77786644D01*
X105022028Y-77808446D01*
X104943084Y-77825381D01*
X104861131Y-77837850D01*
X104775311Y-77846258D01*
X104684762Y-77851007D01*
X104588624Y-77852500D01*
X104495794Y-77852043D01*
X104407561Y-77848594D01*
X104323560Y-77842013D01*
X104243426Y-77832161D01*
X104166797Y-77818898D01*
X104093306Y-77802085D01*
X104022591Y-77781583D01*
X103954286Y-77757251D01*
X103888028Y-77728950D01*
X103823452Y-77696542D01*
X103760194Y-77659885D01*
X103697889Y-77618841D01*
X103636173Y-77573270D01*
X103574682Y-77523033D01*
X103513051Y-77467990D01*
X103450916Y-77408001D01*
X103394534Y-77349420D01*
X103342406Y-77290582D01*
X103294449Y-77231233D01*
X103250577Y-77171116D01*
X103210705Y-77109977D01*
X103174747Y-77047558D01*
X103142619Y-76983604D01*
X103114234Y-76917860D01*
X103089508Y-76850070D01*
X103068356Y-76779977D01*
X103050692Y-76707326D01*
X103036430Y-76631862D01*
X103025487Y-76553328D01*
X103017775Y-76471469D01*
X103013211Y-76386029D01*
X103011708Y-76296751D01*
X103012854Y-76189059D01*
X103018643Y-76087575D01*
X103029626Y-75991316D01*
X103046352Y-75899297D01*
X103069373Y-75810534D01*
X103099238Y-75724042D01*
X103136498Y-75638836D01*
X103181703Y-75553933D01*
X103235404Y-75468348D01*
X103298151Y-75381096D01*
X103370494Y-75291193D01*
X103452984Y-75197655D01*
X103546171Y-75099497D01*
X103650605Y-74995735D01*
X103766837Y-74885384D01*
X103895417Y-74767460D01*
X104284477Y-74431757D01*
X104685436Y-74113339D01*
X105097913Y-73812378D01*
X105521529Y-73529044D01*
X105955904Y-73263508D01*
X106400659Y-73015939D01*
X106855413Y-72786508D01*
X107319786Y-72575387D01*
X107793399Y-72382745D01*
X108275872Y-72208753D01*
X108766826Y-72053582D01*
X109265879Y-71917401D01*
X109772653Y-71800383D01*
X110286768Y-71702696D01*
X110807843Y-71624513D01*
X111335500Y-71566002D01*
X111569852Y-71554912D01*
X111892695Y-71552689D01*
X112275442Y-71558281D01*
G37*
X112275442Y-71558281D02*
X112689505Y-71570631D01*
X113106296Y-71588687D01*
X113497228Y-71611394D01*
X113833714Y-71637697D01*
X114087165Y-71666543D01*
X114542809Y-71744207D01*
X114994624Y-71838150D01*
X115442129Y-71948154D01*
X115884844Y-72074001D01*
X116322288Y-72215476D01*
X116753980Y-72372360D01*
X117179439Y-72544437D01*
X117598187Y-72731491D01*
X118009740Y-72933303D01*
X118413620Y-73149656D01*
X118809345Y-73380335D01*
X119196435Y-73625121D01*
X119574409Y-73883798D01*
X119942787Y-74156148D01*
X120301088Y-74441955D01*
X120648831Y-74741002D01*
X120790437Y-74871858D01*
X120919719Y-74998815D01*
X121036877Y-75122315D01*
X121142114Y-75242800D01*
X121235630Y-75360711D01*
X121317628Y-75476491D01*
X121388309Y-75590581D01*
X121447874Y-75703423D01*
X121473551Y-75759514D01*
X121496525Y-75815459D01*
X121516820Y-75871312D01*
X121534463Y-75927130D01*
X121549478Y-75982967D01*
X121561890Y-76038879D01*
X121571725Y-76094921D01*
X121579008Y-76151147D01*
X121583764Y-76207614D01*
X121586018Y-76264377D01*
X121585795Y-76321490D01*
X121583121Y-76379009D01*
X121578021Y-76436990D01*
X121570519Y-76495487D01*
X121548414Y-76614251D01*
X121525657Y-76707828D01*
X121499064Y-76798064D01*
X121468640Y-76884967D01*
X121434396Y-76968545D01*
X121396338Y-77048805D01*
X121354473Y-77125755D01*
X121308811Y-77199403D01*
X121259358Y-77269756D01*
X121206122Y-77336823D01*
X121149111Y-77400611D01*
X121088333Y-77461128D01*
X121023796Y-77518382D01*
X120955507Y-77572380D01*
X120883474Y-77623130D01*
X120807705Y-77670640D01*
X120728207Y-77714917D01*
X120650682Y-77752734D01*
X120614086Y-77768879D01*
X120578304Y-77783296D01*
X120542863Y-77796069D01*
X120507290Y-77807284D01*
X120471112Y-77817026D01*
X120433857Y-77825381D01*
X120395052Y-77832433D01*
X120354224Y-77838269D01*
X120310900Y-77842973D01*
X120264607Y-77846630D01*
X120214872Y-77849326D01*
X120161222Y-77851146D01*
X120040289Y-77852500D01*
X119942399Y-77851652D01*
X119848756Y-77846951D01*
X119758772Y-77838141D01*
X119671858Y-77824968D01*
X119587424Y-77807174D01*
X119504881Y-77784505D01*
X119423641Y-77756704D01*
X119343114Y-77723516D01*
X119262711Y-77684685D01*
X119181842Y-77639955D01*
X119099920Y-77589071D01*
X119016354Y-77531776D01*
X118930556Y-77467814D01*
X118841936Y-77396931D01*
X118749905Y-77318870D01*
X118653875Y-77233375D01*
X118372879Y-76982786D01*
X118232458Y-76864166D01*
X118091635Y-76749684D01*
X117950067Y-76639110D01*
X117807414Y-76532210D01*
X117663335Y-76428751D01*
X117517488Y-76328501D01*
X117369534Y-76231228D01*
X117219129Y-76136699D01*
X117065935Y-76044681D01*
X116909608Y-75954943D01*
X116749809Y-75867250D01*
X116586197Y-75781372D01*
X116246166Y-75614126D01*
X115703734Y-75377292D01*
X115152900Y-75176727D01*
X114595058Y-75012361D01*
X114031603Y-74884124D01*
X113463933Y-74791948D01*
X112893440Y-74735761D01*
X112321522Y-74715495D01*
X111749572Y-74731079D01*
X111178987Y-74782444D01*
X110611161Y-74869520D01*
X110047490Y-74992238D01*
X109489369Y-75150527D01*
X108938193Y-75344317D01*
X108395358Y-75573540D01*
X107862259Y-75838124D01*
X107340291Y-76138001D01*
X107160230Y-76250790D01*
X106984261Y-76367610D01*
X106811021Y-76489515D01*
X106639146Y-76617558D01*
X106467270Y-76752795D01*
X106294030Y-76896280D01*
X106118061Y-77049067D01*
X105938000Y-77212209D01*
X105835351Y-77304860D01*
X105739159Y-77388612D01*
X105648564Y-77463868D01*
X105562705Y-77531032D01*
X105480722Y-77590507D01*
X105401753Y-77642695D01*
X105324940Y-77687999D01*
X105249422Y-77726824D01*
X105174337Y-77759571D01*
X105098826Y-77786644D01*
X105022028Y-77808446D01*
X104943084Y-77825381D01*
X104861131Y-77837850D01*
X104775311Y-77846258D01*
X104684762Y-77851007D01*
X104588624Y-77852500D01*
X104495794Y-77852043D01*
X104407561Y-77848594D01*
X104323560Y-77842013D01*
X104243426Y-77832161D01*
X104166797Y-77818898D01*
X104093306Y-77802085D01*
X104022591Y-77781583D01*
X103954286Y-77757251D01*
X103888028Y-77728950D01*
X103823452Y-77696542D01*
X103760194Y-77659885D01*
X103697889Y-77618841D01*
X103636173Y-77573270D01*
X103574682Y-77523033D01*
X103513051Y-77467990D01*
X103450916Y-77408001D01*
X103394534Y-77349420D01*
X103342406Y-77290582D01*
X103294449Y-77231233D01*
X103250577Y-77171116D01*
X103210705Y-77109977D01*
X103174747Y-77047558D01*
X103142619Y-76983604D01*
X103114234Y-76917860D01*
X103089508Y-76850070D01*
X103068356Y-76779977D01*
X103050692Y-76707326D01*
X103036430Y-76631862D01*
X103025487Y-76553328D01*
X103017775Y-76471469D01*
X103013211Y-76386029D01*
X103011708Y-76296751D01*
X103012854Y-76189059D01*
X103018643Y-76087575D01*
X103029626Y-75991316D01*
X103046352Y-75899297D01*
X103069373Y-75810534D01*
X103099238Y-75724042D01*
X103136498Y-75638836D01*
X103181703Y-75553933D01*
X103235404Y-75468348D01*
X103298151Y-75381096D01*
X103370494Y-75291193D01*
X103452984Y-75197655D01*
X103546171Y-75099497D01*
X103650605Y-74995735D01*
X103766837Y-74885384D01*
X103895417Y-74767460D01*
X104284477Y-74431757D01*
X104685436Y-74113339D01*
X105097913Y-73812378D01*
X105521529Y-73529044D01*
X105955904Y-73263508D01*
X106400659Y-73015939D01*
X106855413Y-72786508D01*
X107319786Y-72575387D01*
X107793399Y-72382745D01*
X108275872Y-72208753D01*
X108766826Y-72053582D01*
X109265879Y-71917401D01*
X109772653Y-71800383D01*
X110286768Y-71702696D01*
X110807843Y-71624513D01*
X111335500Y-71566002D01*
X111569852Y-71554912D01*
X111892695Y-71552689D01*
X112275442Y-71558281D01*
G36*
X140042105Y-70428522D02*
G01*
X140108161Y-70432107D01*
X140167846Y-70440421D01*
X140222128Y-70454834D01*
X140271976Y-70476721D01*
X140295540Y-70490895D01*
X140318359Y-70507451D01*
X140362246Y-70548398D01*
X140404607Y-70600934D01*
X140446409Y-70666430D01*
X140488623Y-70746258D01*
X140532216Y-70841791D01*
X140578157Y-70954400D01*
X140627417Y-71085458D01*
X140680963Y-71236336D01*
X140804790Y-71603042D01*
X140870315Y-71799950D01*
X140931128Y-71990657D01*
X140985988Y-72170450D01*
X141033654Y-72334616D01*
X141072887Y-72478441D01*
X141102447Y-72597215D01*
X141121092Y-72686222D01*
X141125934Y-72718091D01*
X141127582Y-72740751D01*
X141127074Y-72763986D01*
X141125560Y-72787044D01*
X141123061Y-72809902D01*
X141119593Y-72832539D01*
X141115176Y-72854931D01*
X141109827Y-72877057D01*
X141103566Y-72898894D01*
X141096411Y-72920420D01*
X141088379Y-72941612D01*
X141079490Y-72962449D01*
X141069762Y-72982909D01*
X141059214Y-73002968D01*
X141047863Y-73022604D01*
X141035728Y-73041796D01*
X141022827Y-73060521D01*
X141009180Y-73078756D01*
X140994804Y-73096480D01*
X140979718Y-73113670D01*
X140963940Y-73130304D01*
X140947488Y-73146359D01*
X140930382Y-73161814D01*
X140912639Y-73176646D01*
X140894278Y-73190832D01*
X140875317Y-73204351D01*
X140855774Y-73217180D01*
X140835669Y-73229296D01*
X140815019Y-73240678D01*
X140793843Y-73251304D01*
X140772160Y-73261151D01*
X140749987Y-73270196D01*
X140727343Y-73278417D01*
X140704247Y-73285793D01*
X140673745Y-73295028D01*
X140645521Y-73302867D01*
X140619251Y-73309280D01*
X140594609Y-73314236D01*
X140571270Y-73317703D01*
X140548907Y-73319652D01*
X140527195Y-73320049D01*
X140505809Y-73318866D01*
X140484423Y-73316070D01*
X140462711Y-73311631D01*
X140440348Y-73305518D01*
X140417008Y-73297699D01*
X140392366Y-73288144D01*
X140366096Y-73276822D01*
X140337873Y-73263701D01*
X140307370Y-73248751D01*
X140271810Y-73229613D01*
X140238435Y-73209746D01*
X140207075Y-73188917D01*
X140177560Y-73166895D01*
X140149719Y-73143447D01*
X140123383Y-73118340D01*
X140098379Y-73091342D01*
X140074538Y-73062220D01*
X140051689Y-73030741D01*
X140029663Y-72996673D01*
X140008287Y-72959784D01*
X139987392Y-72919841D01*
X139966806Y-72876611D01*
X139946361Y-72829862D01*
X139925885Y-72779361D01*
X139905207Y-72724876D01*
X139895032Y-72699348D01*
X139883337Y-72682130D01*
X139868604Y-72675949D01*
X139849313Y-72683535D01*
X139823945Y-72707616D01*
X139790980Y-72750921D01*
X139696185Y-72906116D01*
X139552773Y-73170947D01*
X139348589Y-73567243D01*
X138709290Y-74841543D01*
X138478741Y-75299779D01*
X138258919Y-75731287D01*
X138055097Y-76126208D01*
X137872544Y-76474683D01*
X137716533Y-76766851D01*
X137592334Y-76992852D01*
X137505218Y-77142827D01*
X137477213Y-77186224D01*
X137460456Y-77206916D01*
X137445831Y-77217578D01*
X137429780Y-77227721D01*
X137412365Y-77237322D01*
X137393648Y-77246356D01*
X137373691Y-77254802D01*
X137352555Y-77262635D01*
X137330304Y-77269832D01*
X137306998Y-77276370D01*
X137282700Y-77282227D01*
X137257471Y-77287378D01*
X137231375Y-77291800D01*
X137204472Y-77295470D01*
X137176826Y-77298365D01*
X137148497Y-77300462D01*
X137119548Y-77301737D01*
X137090040Y-77302168D01*
X137050232Y-77301895D01*
X137013921Y-77300979D01*
X136980756Y-77299272D01*
X136950389Y-77296628D01*
X136922473Y-77292898D01*
X136909324Y-77290580D01*
X136896656Y-77287936D01*
X136884427Y-77284947D01*
X136872592Y-77281594D01*
X136861108Y-77277860D01*
X136849931Y-77273725D01*
X136839017Y-77269172D01*
X136828324Y-77264182D01*
X136817806Y-77258736D01*
X136807422Y-77252817D01*
X136797127Y-77246405D01*
X136786877Y-77239483D01*
X136776629Y-77232032D01*
X136766339Y-77224033D01*
X136745461Y-77206320D01*
X136723893Y-77186195D01*
X136701285Y-77163513D01*
X136677291Y-77138126D01*
X136585885Y-77030546D01*
X136554088Y-76976334D01*
X136533422Y-76916455D01*
X136525283Y-76846871D01*
X136531066Y-76763545D01*
X136552165Y-76662436D01*
X136589976Y-76539507D01*
X136645895Y-76390718D01*
X136721317Y-76212033D01*
X136936249Y-75748816D01*
X137245936Y-75117547D01*
X137661538Y-74285918D01*
X138799245Y-72015793D01*
X138582288Y-72095168D01*
X138530160Y-72111907D01*
X138480775Y-72126391D01*
X138433902Y-72138596D01*
X138389308Y-72148498D01*
X138346760Y-72156075D01*
X138306027Y-72161303D01*
X138266874Y-72164160D01*
X138229071Y-72164621D01*
X138192383Y-72162664D01*
X138156580Y-72158265D01*
X138121427Y-72151401D01*
X138086693Y-72142049D01*
X138052145Y-72130185D01*
X138017551Y-72115786D01*
X137982677Y-72098830D01*
X137947292Y-72079292D01*
X137906009Y-72051984D01*
X137867555Y-72021807D01*
X137832031Y-71988996D01*
X137799538Y-71953781D01*
X137770176Y-71916395D01*
X137744047Y-71877072D01*
X137721251Y-71836044D01*
X137701889Y-71793543D01*
X137686062Y-71749801D01*
X137673870Y-71705052D01*
X137665414Y-71659528D01*
X137660796Y-71613461D01*
X137660115Y-71567084D01*
X137663473Y-71520630D01*
X137666697Y-71497446D01*
X137670970Y-71474330D01*
X137676302Y-71451311D01*
X137682707Y-71428418D01*
X137689143Y-71408289D01*
X137696494Y-71387687D01*
X137704682Y-71366759D01*
X137713629Y-71345653D01*
X137723259Y-71324516D01*
X137733494Y-71303496D01*
X137744255Y-71282738D01*
X137755466Y-71262392D01*
X137767050Y-71242604D01*
X137778928Y-71223521D01*
X137791023Y-71205291D01*
X137803257Y-71188060D01*
X137815554Y-71171977D01*
X137827835Y-71157189D01*
X137840023Y-71143842D01*
X137852041Y-71132084D01*
X137867455Y-71120708D01*
X137891521Y-71106556D01*
X137963495Y-71070734D01*
X138063747Y-71026230D01*
X138188060Y-70974657D01*
X138332216Y-70917627D01*
X138491999Y-70856752D01*
X138663193Y-70793645D01*
X138841579Y-70729918D01*
X139040421Y-70663782D01*
X139226798Y-70604654D01*
X139398664Y-70553091D01*
X139553972Y-70509652D01*
X139690677Y-70474895D01*
X139806732Y-70449377D01*
X139856377Y-70440258D01*
X139900091Y-70433658D01*
X139937620Y-70429646D01*
X139968708Y-70428294D01*
X140042105Y-70428522D01*
G37*
X140042105Y-70428522D02*
X140108161Y-70432107D01*
X140167846Y-70440421D01*
X140222128Y-70454834D01*
X140271976Y-70476721D01*
X140295540Y-70490895D01*
X140318359Y-70507451D01*
X140362246Y-70548398D01*
X140404607Y-70600934D01*
X140446409Y-70666430D01*
X140488623Y-70746258D01*
X140532216Y-70841791D01*
X140578157Y-70954400D01*
X140627417Y-71085458D01*
X140680963Y-71236336D01*
X140804790Y-71603042D01*
X140870315Y-71799950D01*
X140931128Y-71990657D01*
X140985988Y-72170450D01*
X141033654Y-72334616D01*
X141072887Y-72478441D01*
X141102447Y-72597215D01*
X141121092Y-72686222D01*
X141125934Y-72718091D01*
X141127582Y-72740751D01*
X141127074Y-72763986D01*
X141125560Y-72787044D01*
X141123061Y-72809902D01*
X141119593Y-72832539D01*
X141115176Y-72854931D01*
X141109827Y-72877057D01*
X141103566Y-72898894D01*
X141096411Y-72920420D01*
X141088379Y-72941612D01*
X141079490Y-72962449D01*
X141069762Y-72982909D01*
X141059214Y-73002968D01*
X141047863Y-73022604D01*
X141035728Y-73041796D01*
X141022827Y-73060521D01*
X141009180Y-73078756D01*
X140994804Y-73096480D01*
X140979718Y-73113670D01*
X140963940Y-73130304D01*
X140947488Y-73146359D01*
X140930382Y-73161814D01*
X140912639Y-73176646D01*
X140894278Y-73190832D01*
X140875317Y-73204351D01*
X140855774Y-73217180D01*
X140835669Y-73229296D01*
X140815019Y-73240678D01*
X140793843Y-73251304D01*
X140772160Y-73261151D01*
X140749987Y-73270196D01*
X140727343Y-73278417D01*
X140704247Y-73285793D01*
X140673745Y-73295028D01*
X140645521Y-73302867D01*
X140619251Y-73309280D01*
X140594609Y-73314236D01*
X140571270Y-73317703D01*
X140548907Y-73319652D01*
X140527195Y-73320049D01*
X140505809Y-73318866D01*
X140484423Y-73316070D01*
X140462711Y-73311631D01*
X140440348Y-73305518D01*
X140417008Y-73297699D01*
X140392366Y-73288144D01*
X140366096Y-73276822D01*
X140337873Y-73263701D01*
X140307370Y-73248751D01*
X140271810Y-73229613D01*
X140238435Y-73209746D01*
X140207075Y-73188917D01*
X140177560Y-73166895D01*
X140149719Y-73143447D01*
X140123383Y-73118340D01*
X140098379Y-73091342D01*
X140074538Y-73062220D01*
X140051689Y-73030741D01*
X140029663Y-72996673D01*
X140008287Y-72959784D01*
X139987392Y-72919841D01*
X139966806Y-72876611D01*
X139946361Y-72829862D01*
X139925885Y-72779361D01*
X139905207Y-72724876D01*
X139895032Y-72699348D01*
X139883337Y-72682130D01*
X139868604Y-72675949D01*
X139849313Y-72683535D01*
X139823945Y-72707616D01*
X139790980Y-72750921D01*
X139696185Y-72906116D01*
X139552773Y-73170947D01*
X139348589Y-73567243D01*
X138709290Y-74841543D01*
X138478741Y-75299779D01*
X138258919Y-75731287D01*
X138055097Y-76126208D01*
X137872544Y-76474683D01*
X137716533Y-76766851D01*
X137592334Y-76992852D01*
X137505218Y-77142827D01*
X137477213Y-77186224D01*
X137460456Y-77206916D01*
X137445831Y-77217578D01*
X137429780Y-77227721D01*
X137412365Y-77237322D01*
X137393648Y-77246356D01*
X137373691Y-77254802D01*
X137352555Y-77262635D01*
X137330304Y-77269832D01*
X137306998Y-77276370D01*
X137282700Y-77282227D01*
X137257471Y-77287378D01*
X137231375Y-77291800D01*
X137204472Y-77295470D01*
X137176826Y-77298365D01*
X137148497Y-77300462D01*
X137119548Y-77301737D01*
X137090040Y-77302168D01*
X137050232Y-77301895D01*
X137013921Y-77300979D01*
X136980756Y-77299272D01*
X136950389Y-77296628D01*
X136922473Y-77292898D01*
X136909324Y-77290580D01*
X136896656Y-77287936D01*
X136884427Y-77284947D01*
X136872592Y-77281594D01*
X136861108Y-77277860D01*
X136849931Y-77273725D01*
X136839017Y-77269172D01*
X136828324Y-77264182D01*
X136817806Y-77258736D01*
X136807422Y-77252817D01*
X136797127Y-77246405D01*
X136786877Y-77239483D01*
X136776629Y-77232032D01*
X136766339Y-77224033D01*
X136745461Y-77206320D01*
X136723893Y-77186195D01*
X136701285Y-77163513D01*
X136677291Y-77138126D01*
X136585885Y-77030546D01*
X136554088Y-76976334D01*
X136533422Y-76916455D01*
X136525283Y-76846871D01*
X136531066Y-76763545D01*
X136552165Y-76662436D01*
X136589976Y-76539507D01*
X136645895Y-76390718D01*
X136721317Y-76212033D01*
X136936249Y-75748816D01*
X137245936Y-75117547D01*
X137661538Y-74285918D01*
X138799245Y-72015793D01*
X138582288Y-72095168D01*
X138530160Y-72111907D01*
X138480775Y-72126391D01*
X138433902Y-72138596D01*
X138389308Y-72148498D01*
X138346760Y-72156075D01*
X138306027Y-72161303D01*
X138266874Y-72164160D01*
X138229071Y-72164621D01*
X138192383Y-72162664D01*
X138156580Y-72158265D01*
X138121427Y-72151401D01*
X138086693Y-72142049D01*
X138052145Y-72130185D01*
X138017551Y-72115786D01*
X137982677Y-72098830D01*
X137947292Y-72079292D01*
X137906009Y-72051984D01*
X137867555Y-72021807D01*
X137832031Y-71988996D01*
X137799538Y-71953781D01*
X137770176Y-71916395D01*
X137744047Y-71877072D01*
X137721251Y-71836044D01*
X137701889Y-71793543D01*
X137686062Y-71749801D01*
X137673870Y-71705052D01*
X137665414Y-71659528D01*
X137660796Y-71613461D01*
X137660115Y-71567084D01*
X137663473Y-71520630D01*
X137666697Y-71497446D01*
X137670970Y-71474330D01*
X137676302Y-71451311D01*
X137682707Y-71428418D01*
X137689143Y-71408289D01*
X137696494Y-71387687D01*
X137704682Y-71366759D01*
X137713629Y-71345653D01*
X137723259Y-71324516D01*
X137733494Y-71303496D01*
X137744255Y-71282738D01*
X137755466Y-71262392D01*
X137767050Y-71242604D01*
X137778928Y-71223521D01*
X137791023Y-71205291D01*
X137803257Y-71188060D01*
X137815554Y-71171977D01*
X137827835Y-71157189D01*
X137840023Y-71143842D01*
X137852041Y-71132084D01*
X137867455Y-71120708D01*
X137891521Y-71106556D01*
X137963495Y-71070734D01*
X138063747Y-71026230D01*
X138188060Y-70974657D01*
X138332216Y-70917627D01*
X138491999Y-70856752D01*
X138663193Y-70793645D01*
X138841579Y-70729918D01*
X139040421Y-70663782D01*
X139226798Y-70604654D01*
X139398664Y-70553091D01*
X139553972Y-70509652D01*
X139690677Y-70474895D01*
X139806732Y-70449377D01*
X139856377Y-70440258D01*
X139900091Y-70433658D01*
X139937620Y-70429646D01*
X139968708Y-70428294D01*
X140042105Y-70428522D01*
G36*
X112621374Y-66376861D02*
G01*
X113224190Y-66391982D01*
X113782730Y-66413985D01*
X114252717Y-66442066D01*
X114589874Y-66475418D01*
X115215596Y-66573837D01*
X115830791Y-66690526D01*
X116435599Y-66825525D01*
X117030159Y-66978871D01*
X117614612Y-67150603D01*
X118189096Y-67340761D01*
X118753751Y-67549382D01*
X119308717Y-67776507D01*
X119854134Y-68022173D01*
X120390140Y-68286419D01*
X120916875Y-68569284D01*
X121434479Y-68870807D01*
X121943092Y-69191026D01*
X122442852Y-69529981D01*
X122933899Y-69887710D01*
X123416374Y-70264251D01*
X123642276Y-70448217D01*
X123846435Y-70618028D01*
X124029929Y-70775034D01*
X124193835Y-70920583D01*
X124339230Y-71056024D01*
X124467193Y-71182707D01*
X124578799Y-71301978D01*
X124675128Y-71415189D01*
X124717900Y-71469942D01*
X124757256Y-71523686D01*
X124793332Y-71576589D01*
X124826261Y-71628819D01*
X124856179Y-71680545D01*
X124883220Y-71731937D01*
X124907519Y-71783161D01*
X124929211Y-71834388D01*
X124948430Y-71885785D01*
X124965311Y-71937521D01*
X124979988Y-71989765D01*
X124992597Y-72042685D01*
X125012148Y-72151229D01*
X125025040Y-72264501D01*
X125030992Y-72348967D01*
X125032968Y-72431736D01*
X125030959Y-72512846D01*
X125024958Y-72592336D01*
X125014957Y-72670245D01*
X125000949Y-72746611D01*
X124982926Y-72821474D01*
X124960879Y-72894871D01*
X124934802Y-72966842D01*
X124904686Y-73037426D01*
X124870524Y-73106660D01*
X124832308Y-73174585D01*
X124790030Y-73241239D01*
X124743682Y-73306660D01*
X124693257Y-73370887D01*
X124638747Y-73433959D01*
X124571027Y-73507683D01*
X124506259Y-73574292D01*
X124443678Y-73634110D01*
X124382515Y-73687463D01*
X124322003Y-73734677D01*
X124261375Y-73776078D01*
X124199864Y-73811990D01*
X124136701Y-73842741D01*
X124071120Y-73868654D01*
X124002352Y-73890056D01*
X123929632Y-73907272D01*
X123852191Y-73920627D01*
X123769262Y-73930449D01*
X123680077Y-73937061D01*
X123583870Y-73940789D01*
X123479873Y-73941960D01*
X123376719Y-73941245D01*
X123282696Y-73938725D01*
X123196518Y-73933832D01*
X123116898Y-73926002D01*
X123042548Y-73914668D01*
X122972183Y-73899264D01*
X122904515Y-73879226D01*
X122838258Y-73853985D01*
X122772126Y-73822978D01*
X122704830Y-73785638D01*
X122635085Y-73741399D01*
X122561604Y-73689695D01*
X122483100Y-73629961D01*
X122398286Y-73561631D01*
X122305875Y-73484138D01*
X122204582Y-73396917D01*
X121937001Y-73167029D01*
X121678227Y-72949854D01*
X121428629Y-72745701D01*
X121188582Y-72554881D01*
X120958457Y-72377703D01*
X120738625Y-72214478D01*
X120529460Y-72065516D01*
X120331333Y-71931126D01*
X119947222Y-71685681D01*
X119558832Y-71453367D01*
X119166102Y-71234169D01*
X118768968Y-71028070D01*
X118367370Y-70835056D01*
X117961245Y-70655111D01*
X117550531Y-70488220D01*
X117135166Y-70334366D01*
X116715088Y-70193535D01*
X116290235Y-70065710D01*
X115860546Y-69950878D01*
X115425957Y-69849021D01*
X114986408Y-69760124D01*
X114541835Y-69684173D01*
X114092178Y-69621151D01*
X113637373Y-69571043D01*
X113286594Y-69547117D01*
X112859168Y-69534415D01*
X112381637Y-69532255D01*
X111880541Y-69539954D01*
X111382422Y-69556832D01*
X110913820Y-69582205D01*
X110501276Y-69615392D01*
X110171332Y-69655710D01*
X109630027Y-69748789D01*
X109097496Y-69859356D01*
X108573709Y-69987411D01*
X108058635Y-70132952D01*
X107552242Y-70295981D01*
X107054500Y-70476497D01*
X106565377Y-70674500D01*
X106084843Y-70889991D01*
X105612867Y-71122969D01*
X105149417Y-71373434D01*
X104694463Y-71641387D01*
X104247974Y-71926827D01*
X103809918Y-72229754D01*
X103380265Y-72550169D01*
X102958983Y-72888070D01*
X102546042Y-73243459D01*
X102422039Y-73352460D01*
X102309074Y-73449710D01*
X102205783Y-73535860D01*
X102110802Y-73611561D01*
X102022766Y-73677464D01*
X101940311Y-73734220D01*
X101862073Y-73782481D01*
X101786688Y-73822897D01*
X101749638Y-73840367D01*
X101712790Y-73856120D01*
X101675973Y-73870237D01*
X101639017Y-73882800D01*
X101601750Y-73893891D01*
X101564003Y-73903590D01*
X101486385Y-73919139D01*
X101404799Y-73930100D01*
X101317879Y-73937123D01*
X101224262Y-73940859D01*
X101122583Y-73941960D01*
X101026844Y-73940572D01*
X100935856Y-73936317D01*
X100849286Y-73929053D01*
X100766801Y-73918643D01*
X100688069Y-73904946D01*
X100612754Y-73887823D01*
X100540525Y-73867135D01*
X100471047Y-73842741D01*
X100403988Y-73814502D01*
X100339014Y-73782279D01*
X100275791Y-73745933D01*
X100213988Y-73705323D01*
X100153269Y-73660310D01*
X100093303Y-73610755D01*
X100033755Y-73556518D01*
X99974292Y-73497460D01*
X99927040Y-73446665D01*
X99882524Y-73393594D01*
X99840749Y-73338390D01*
X99801724Y-73281194D01*
X99765454Y-73222150D01*
X99731946Y-73161399D01*
X99701208Y-73099084D01*
X99673246Y-73035348D01*
X99625676Y-72904182D01*
X99589292Y-72769039D01*
X99564148Y-72631059D01*
X99550297Y-72491381D01*
X99547795Y-72351146D01*
X99556695Y-72211491D01*
X99577051Y-72073558D01*
X99608919Y-71938485D01*
X99629186Y-71872377D01*
X99652352Y-71807411D01*
X99678422Y-71743731D01*
X99707404Y-71681477D01*
X99739304Y-71620793D01*
X99774130Y-71561822D01*
X99811887Y-71504705D01*
X99852583Y-71449585D01*
X99933197Y-71354096D01*
X100034888Y-71245266D01*
X100294024Y-70993757D01*
X100615048Y-70707398D01*
X100983016Y-70398528D01*
X101382981Y-70079488D01*
X101799999Y-69762618D01*
X102219126Y-69460260D01*
X102625417Y-69184752D01*
X103060838Y-68908333D01*
X103507523Y-68644744D01*
X103964951Y-68394161D01*
X104432603Y-68156763D01*
X104909961Y-67932729D01*
X105396503Y-67722236D01*
X105891712Y-67525464D01*
X106395067Y-67342590D01*
X106906050Y-67173793D01*
X107424141Y-67019251D01*
X107948821Y-66879142D01*
X108479571Y-66753644D01*
X109015870Y-66642936D01*
X109557200Y-66547197D01*
X110103041Y-66466604D01*
X110652874Y-66401335D01*
X110990032Y-66380861D01*
X111460019Y-66370494D01*
X112018559Y-66369430D01*
X112621374Y-66376861D01*
G37*
X112621374Y-66376861D02*
X113224190Y-66391982D01*
X113782730Y-66413985D01*
X114252717Y-66442066D01*
X114589874Y-66475418D01*
X115215596Y-66573837D01*
X115830791Y-66690526D01*
X116435599Y-66825525D01*
X117030159Y-66978871D01*
X117614612Y-67150603D01*
X118189096Y-67340761D01*
X118753751Y-67549382D01*
X119308717Y-67776507D01*
X119854134Y-68022173D01*
X120390140Y-68286419D01*
X120916875Y-68569284D01*
X121434479Y-68870807D01*
X121943092Y-69191026D01*
X122442852Y-69529981D01*
X122933899Y-69887710D01*
X123416374Y-70264251D01*
X123642276Y-70448217D01*
X123846435Y-70618028D01*
X124029929Y-70775034D01*
X124193835Y-70920583D01*
X124339230Y-71056024D01*
X124467193Y-71182707D01*
X124578799Y-71301978D01*
X124675128Y-71415189D01*
X124717900Y-71469942D01*
X124757256Y-71523686D01*
X124793332Y-71576589D01*
X124826261Y-71628819D01*
X124856179Y-71680545D01*
X124883220Y-71731937D01*
X124907519Y-71783161D01*
X124929211Y-71834388D01*
X124948430Y-71885785D01*
X124965311Y-71937521D01*
X124979988Y-71989765D01*
X124992597Y-72042685D01*
X125012148Y-72151229D01*
X125025040Y-72264501D01*
X125030992Y-72348967D01*
X125032968Y-72431736D01*
X125030959Y-72512846D01*
X125024958Y-72592336D01*
X125014957Y-72670245D01*
X125000949Y-72746611D01*
X124982926Y-72821474D01*
X124960879Y-72894871D01*
X124934802Y-72966842D01*
X124904686Y-73037426D01*
X124870524Y-73106660D01*
X124832308Y-73174585D01*
X124790030Y-73241239D01*
X124743682Y-73306660D01*
X124693257Y-73370887D01*
X124638747Y-73433959D01*
X124571027Y-73507683D01*
X124506259Y-73574292D01*
X124443678Y-73634110D01*
X124382515Y-73687463D01*
X124322003Y-73734677D01*
X124261375Y-73776078D01*
X124199864Y-73811990D01*
X124136701Y-73842741D01*
X124071120Y-73868654D01*
X124002352Y-73890056D01*
X123929632Y-73907272D01*
X123852191Y-73920627D01*
X123769262Y-73930449D01*
X123680077Y-73937061D01*
X123583870Y-73940789D01*
X123479873Y-73941960D01*
X123376719Y-73941245D01*
X123282696Y-73938725D01*
X123196518Y-73933832D01*
X123116898Y-73926002D01*
X123042548Y-73914668D01*
X122972183Y-73899264D01*
X122904515Y-73879226D01*
X122838258Y-73853985D01*
X122772126Y-73822978D01*
X122704830Y-73785638D01*
X122635085Y-73741399D01*
X122561604Y-73689695D01*
X122483100Y-73629961D01*
X122398286Y-73561631D01*
X122305875Y-73484138D01*
X122204582Y-73396917D01*
X121937001Y-73167029D01*
X121678227Y-72949854D01*
X121428629Y-72745701D01*
X121188582Y-72554881D01*
X120958457Y-72377703D01*
X120738625Y-72214478D01*
X120529460Y-72065516D01*
X120331333Y-71931126D01*
X119947222Y-71685681D01*
X119558832Y-71453367D01*
X119166102Y-71234169D01*
X118768968Y-71028070D01*
X118367370Y-70835056D01*
X117961245Y-70655111D01*
X117550531Y-70488220D01*
X117135166Y-70334366D01*
X116715088Y-70193535D01*
X116290235Y-70065710D01*
X115860546Y-69950878D01*
X115425957Y-69849021D01*
X114986408Y-69760124D01*
X114541835Y-69684173D01*
X114092178Y-69621151D01*
X113637373Y-69571043D01*
X113286594Y-69547117D01*
X112859168Y-69534415D01*
X112381637Y-69532255D01*
X111880541Y-69539954D01*
X111382422Y-69556832D01*
X110913820Y-69582205D01*
X110501276Y-69615392D01*
X110171332Y-69655710D01*
X109630027Y-69748789D01*
X109097496Y-69859356D01*
X108573709Y-69987411D01*
X108058635Y-70132952D01*
X107552242Y-70295981D01*
X107054500Y-70476497D01*
X106565377Y-70674500D01*
X106084843Y-70889991D01*
X105612867Y-71122969D01*
X105149417Y-71373434D01*
X104694463Y-71641387D01*
X104247974Y-71926827D01*
X103809918Y-72229754D01*
X103380265Y-72550169D01*
X102958983Y-72888070D01*
X102546042Y-73243459D01*
X102422039Y-73352460D01*
X102309074Y-73449710D01*
X102205783Y-73535860D01*
X102110802Y-73611561D01*
X102022766Y-73677464D01*
X101940311Y-73734220D01*
X101862073Y-73782481D01*
X101786688Y-73822897D01*
X101749638Y-73840367D01*
X101712790Y-73856120D01*
X101675973Y-73870237D01*
X101639017Y-73882800D01*
X101601750Y-73893891D01*
X101564003Y-73903590D01*
X101486385Y-73919139D01*
X101404799Y-73930100D01*
X101317879Y-73937123D01*
X101224262Y-73940859D01*
X101122583Y-73941960D01*
X101026844Y-73940572D01*
X100935856Y-73936317D01*
X100849286Y-73929053D01*
X100766801Y-73918643D01*
X100688069Y-73904946D01*
X100612754Y-73887823D01*
X100540525Y-73867135D01*
X100471047Y-73842741D01*
X100403988Y-73814502D01*
X100339014Y-73782279D01*
X100275791Y-73745933D01*
X100213988Y-73705323D01*
X100153269Y-73660310D01*
X100093303Y-73610755D01*
X100033755Y-73556518D01*
X99974292Y-73497460D01*
X99927040Y-73446665D01*
X99882524Y-73393594D01*
X99840749Y-73338390D01*
X99801724Y-73281194D01*
X99765454Y-73222150D01*
X99731946Y-73161399D01*
X99701208Y-73099084D01*
X99673246Y-73035348D01*
X99625676Y-72904182D01*
X99589292Y-72769039D01*
X99564148Y-72631059D01*
X99550297Y-72491381D01*
X99547795Y-72351146D01*
X99556695Y-72211491D01*
X99577051Y-72073558D01*
X99608919Y-71938485D01*
X99629186Y-71872377D01*
X99652352Y-71807411D01*
X99678422Y-71743731D01*
X99707404Y-71681477D01*
X99739304Y-71620793D01*
X99774130Y-71561822D01*
X99811887Y-71504705D01*
X99852583Y-71449585D01*
X99933197Y-71354096D01*
X100034888Y-71245266D01*
X100294024Y-70993757D01*
X100615048Y-70707398D01*
X100983016Y-70398528D01*
X101382981Y-70079488D01*
X101799999Y-69762618D01*
X102219126Y-69460260D01*
X102625417Y-69184752D01*
X103060838Y-68908333D01*
X103507523Y-68644744D01*
X103964951Y-68394161D01*
X104432603Y-68156763D01*
X104909961Y-67932729D01*
X105396503Y-67722236D01*
X105891712Y-67525464D01*
X106395067Y-67342590D01*
X106906050Y-67173793D01*
X107424141Y-67019251D01*
X107948821Y-66879142D01*
X108479571Y-66753644D01*
X109015870Y-66642936D01*
X109557200Y-66547197D01*
X110103041Y-66466604D01*
X110652874Y-66401335D01*
X110990032Y-66380861D01*
X111460019Y-66370494D01*
X112018559Y-66369430D01*
X112621374Y-66376861D01*
G36*
X112610512Y-76782199D02*
G01*
X112952682Y-76799955D01*
X113273893Y-76830362D01*
X113423247Y-76850348D01*
X113563291Y-76873543D01*
X113831057Y-76926623D01*
X114094597Y-76988626D01*
X114353906Y-77059543D01*
X114608974Y-77139366D01*
X114859795Y-77228088D01*
X115106360Y-77325701D01*
X115348661Y-77432197D01*
X115586692Y-77547568D01*
X115820444Y-77671807D01*
X116049909Y-77804907D01*
X116275080Y-77946858D01*
X116495949Y-78097654D01*
X116712508Y-78257286D01*
X116924749Y-78425747D01*
X117132665Y-78603030D01*
X117336248Y-78789126D01*
X117446656Y-78894467D01*
X117546065Y-78992886D01*
X117635009Y-79085398D01*
X117714024Y-79173020D01*
X117783643Y-79256765D01*
X117844403Y-79337651D01*
X117896838Y-79416691D01*
X117941483Y-79494902D01*
X117978872Y-79573299D01*
X118009540Y-79652897D01*
X118034023Y-79734713D01*
X118052856Y-79819761D01*
X118066572Y-79909056D01*
X118075707Y-80003615D01*
X118080796Y-80104453D01*
X118082373Y-80212584D01*
X118081267Y-80340463D01*
X118079757Y-80396840D01*
X118077495Y-80448807D01*
X118074396Y-80496837D01*
X118070374Y-80541401D01*
X118065345Y-80582973D01*
X118059223Y-80622026D01*
X118051922Y-80659033D01*
X118043358Y-80694466D01*
X118033445Y-80728799D01*
X118022099Y-80762503D01*
X118009233Y-80796053D01*
X117994762Y-80829920D01*
X117978602Y-80864578D01*
X117960666Y-80900500D01*
X117928107Y-80960093D01*
X117893921Y-81017826D01*
X117858091Y-81073699D01*
X117820602Y-81127711D01*
X117781439Y-81179863D01*
X117740586Y-81230154D01*
X117698028Y-81278586D01*
X117653749Y-81325156D01*
X117607734Y-81369867D01*
X117559966Y-81412717D01*
X117510432Y-81453707D01*
X117459115Y-81492836D01*
X117405999Y-81530105D01*
X117351070Y-81565514D01*
X117294311Y-81599062D01*
X117235707Y-81630750D01*
X117158182Y-81668567D01*
X117121586Y-81684712D01*
X117085804Y-81699128D01*
X117050363Y-81711902D01*
X117014791Y-81723117D01*
X116978613Y-81732859D01*
X116941358Y-81741214D01*
X116902553Y-81748266D01*
X116861725Y-81754102D01*
X116818401Y-81758805D01*
X116772108Y-81762463D01*
X116722373Y-81765159D01*
X116668724Y-81766979D01*
X116547790Y-81768333D01*
X116450964Y-81767897D01*
X116360308Y-81764344D01*
X116274923Y-81757288D01*
X116193910Y-81746340D01*
X116116370Y-81731114D01*
X116041403Y-81711221D01*
X115968110Y-81686274D01*
X115895593Y-81655886D01*
X115822951Y-81619668D01*
X115749286Y-81577234D01*
X115673699Y-81528196D01*
X115595291Y-81472166D01*
X115513161Y-81408756D01*
X115426412Y-81337579D01*
X115334144Y-81258248D01*
X115235457Y-81170375D01*
X115059344Y-81012607D01*
X114976775Y-80941331D01*
X114897121Y-80874620D01*
X114819824Y-80812096D01*
X114744324Y-80753377D01*
X114670065Y-80698085D01*
X114596489Y-80645839D01*
X114523036Y-80596259D01*
X114449149Y-80548967D01*
X114374270Y-80503581D01*
X114297841Y-80459722D01*
X114219303Y-80417010D01*
X114138099Y-80375065D01*
X114053670Y-80333509D01*
X113965458Y-80291959D01*
X113825764Y-80232132D01*
X113679109Y-80177724D01*
X113526345Y-80128818D01*
X113368326Y-80085502D01*
X113205905Y-80047859D01*
X113039933Y-80015976D01*
X112871263Y-79989938D01*
X112700749Y-79969829D01*
X112529243Y-79955735D01*
X112357597Y-79947742D01*
X112186664Y-79945934D01*
X112017297Y-79950398D01*
X111850349Y-79961217D01*
X111686671Y-79978478D01*
X111527118Y-80002266D01*
X111372541Y-80032666D01*
X111240266Y-80065776D01*
X111105860Y-80105313D01*
X110970042Y-80150880D01*
X110833535Y-80202082D01*
X110697059Y-80258525D01*
X110561335Y-80319812D01*
X110427084Y-80385548D01*
X110295026Y-80455338D01*
X110165882Y-80528787D01*
X110040375Y-80605500D01*
X109919223Y-80685080D01*
X109803149Y-80767134D01*
X109692873Y-80851264D01*
X109589115Y-80937077D01*
X109492598Y-81024177D01*
X109404041Y-81112168D01*
X109326257Y-81191401D01*
X109245860Y-81266308D01*
X109163091Y-81336782D01*
X109078190Y-81402713D01*
X108991399Y-81463994D01*
X108902956Y-81520515D01*
X108813102Y-81572168D01*
X108722078Y-81618844D01*
X108630123Y-81660436D01*
X108537479Y-81696834D01*
X108444385Y-81727931D01*
X108351082Y-81753616D01*
X108257810Y-81773783D01*
X108164809Y-81788322D01*
X108072320Y-81797125D01*
X107980583Y-81800084D01*
X107927967Y-81797953D01*
X107871701Y-81791722D01*
X107812349Y-81781631D01*
X107750478Y-81767920D01*
X107686654Y-81750830D01*
X107621442Y-81730600D01*
X107555409Y-81707470D01*
X107489119Y-81681683D01*
X107423140Y-81653476D01*
X107358037Y-81623092D01*
X107294376Y-81590769D01*
X107232722Y-81556749D01*
X107173641Y-81521272D01*
X107117701Y-81484578D01*
X107065465Y-81446906D01*
X107017500Y-81408499D01*
X106928909Y-81326681D01*
X106847774Y-81238391D01*
X106774236Y-81144225D01*
X106708434Y-81044781D01*
X106650507Y-80940654D01*
X106600595Y-80832442D01*
X106558838Y-80720743D01*
X106525375Y-80606151D01*
X106500345Y-80489266D01*
X106483889Y-80370683D01*
X106476145Y-80250999D01*
X106477254Y-80130811D01*
X106487354Y-80010716D01*
X106506585Y-79891311D01*
X106535087Y-79773193D01*
X106573000Y-79656959D01*
X106591990Y-79608738D01*
X106611561Y-79562898D01*
X106632171Y-79518840D01*
X106654277Y-79475967D01*
X106678336Y-79433684D01*
X106704806Y-79391394D01*
X106734144Y-79348498D01*
X106766807Y-79304402D01*
X106803253Y-79258506D01*
X106843940Y-79210216D01*
X106889323Y-79158934D01*
X106939861Y-79104062D01*
X107058232Y-78981165D01*
X107202709Y-78836750D01*
X107399894Y-78649423D01*
X107602467Y-78470468D01*
X107810357Y-78299946D01*
X108023495Y-78137919D01*
X108241811Y-77984451D01*
X108465236Y-77839602D01*
X108693698Y-77703434D01*
X108927130Y-77576011D01*
X109165460Y-77457393D01*
X109408620Y-77347643D01*
X109656539Y-77246822D01*
X109909147Y-77154993D01*
X110166376Y-77072218D01*
X110428154Y-76998558D01*
X110694413Y-76934077D01*
X110965083Y-76878835D01*
X111102337Y-76855521D01*
X111249272Y-76835199D01*
X111566762Y-76803594D01*
X111906699Y-76784143D01*
X112258234Y-76776970D01*
X112610512Y-76782199D01*
G37*
X112610512Y-76782199D02*
X112952682Y-76799955D01*
X113273893Y-76830362D01*
X113423247Y-76850348D01*
X113563291Y-76873543D01*
X113831057Y-76926623D01*
X114094597Y-76988626D01*
X114353906Y-77059543D01*
X114608974Y-77139366D01*
X114859795Y-77228088D01*
X115106360Y-77325701D01*
X115348661Y-77432197D01*
X115586692Y-77547568D01*
X115820444Y-77671807D01*
X116049909Y-77804907D01*
X116275080Y-77946858D01*
X116495949Y-78097654D01*
X116712508Y-78257286D01*
X116924749Y-78425747D01*
X117132665Y-78603030D01*
X117336248Y-78789126D01*
X117446656Y-78894467D01*
X117546065Y-78992886D01*
X117635009Y-79085398D01*
X117714024Y-79173020D01*
X117783643Y-79256765D01*
X117844403Y-79337651D01*
X117896838Y-79416691D01*
X117941483Y-79494902D01*
X117978872Y-79573299D01*
X118009540Y-79652897D01*
X118034023Y-79734713D01*
X118052856Y-79819761D01*
X118066572Y-79909056D01*
X118075707Y-80003615D01*
X118080796Y-80104453D01*
X118082373Y-80212584D01*
X118081267Y-80340463D01*
X118079757Y-80396840D01*
X118077495Y-80448807D01*
X118074396Y-80496837D01*
X118070374Y-80541401D01*
X118065345Y-80582973D01*
X118059223Y-80622026D01*
X118051922Y-80659033D01*
X118043358Y-80694466D01*
X118033445Y-80728799D01*
X118022099Y-80762503D01*
X118009233Y-80796053D01*
X117994762Y-80829920D01*
X117978602Y-80864578D01*
X117960666Y-80900500D01*
X117928107Y-80960093D01*
X117893921Y-81017826D01*
X117858091Y-81073699D01*
X117820602Y-81127711D01*
X117781439Y-81179863D01*
X117740586Y-81230154D01*
X117698028Y-81278586D01*
X117653749Y-81325156D01*
X117607734Y-81369867D01*
X117559966Y-81412717D01*
X117510432Y-81453707D01*
X117459115Y-81492836D01*
X117405999Y-81530105D01*
X117351070Y-81565514D01*
X117294311Y-81599062D01*
X117235707Y-81630750D01*
X117158182Y-81668567D01*
X117121586Y-81684712D01*
X117085804Y-81699128D01*
X117050363Y-81711902D01*
X117014791Y-81723117D01*
X116978613Y-81732859D01*
X116941358Y-81741214D01*
X116902553Y-81748266D01*
X116861725Y-81754102D01*
X116818401Y-81758805D01*
X116772108Y-81762463D01*
X116722373Y-81765159D01*
X116668724Y-81766979D01*
X116547790Y-81768333D01*
X116450964Y-81767897D01*
X116360308Y-81764344D01*
X116274923Y-81757288D01*
X116193910Y-81746340D01*
X116116370Y-81731114D01*
X116041403Y-81711221D01*
X115968110Y-81686274D01*
X115895593Y-81655886D01*
X115822951Y-81619668D01*
X115749286Y-81577234D01*
X115673699Y-81528196D01*
X115595291Y-81472166D01*
X115513161Y-81408756D01*
X115426412Y-81337579D01*
X115334144Y-81258248D01*
X115235457Y-81170375D01*
X115059344Y-81012607D01*
X114976775Y-80941331D01*
X114897121Y-80874620D01*
X114819824Y-80812096D01*
X114744324Y-80753377D01*
X114670065Y-80698085D01*
X114596489Y-80645839D01*
X114523036Y-80596259D01*
X114449149Y-80548967D01*
X114374270Y-80503581D01*
X114297841Y-80459722D01*
X114219303Y-80417010D01*
X114138099Y-80375065D01*
X114053670Y-80333509D01*
X113965458Y-80291959D01*
X113825764Y-80232132D01*
X113679109Y-80177724D01*
X113526345Y-80128818D01*
X113368326Y-80085502D01*
X113205905Y-80047859D01*
X113039933Y-80015976D01*
X112871263Y-79989938D01*
X112700749Y-79969829D01*
X112529243Y-79955735D01*
X112357597Y-79947742D01*
X112186664Y-79945934D01*
X112017297Y-79950398D01*
X111850349Y-79961217D01*
X111686671Y-79978478D01*
X111527118Y-80002266D01*
X111372541Y-80032666D01*
X111240266Y-80065776D01*
X111105860Y-80105313D01*
X110970042Y-80150880D01*
X110833535Y-80202082D01*
X110697059Y-80258525D01*
X110561335Y-80319812D01*
X110427084Y-80385548D01*
X110295026Y-80455338D01*
X110165882Y-80528787D01*
X110040375Y-80605500D01*
X109919223Y-80685080D01*
X109803149Y-80767134D01*
X109692873Y-80851264D01*
X109589115Y-80937077D01*
X109492598Y-81024177D01*
X109404041Y-81112168D01*
X109326257Y-81191401D01*
X109245860Y-81266308D01*
X109163091Y-81336782D01*
X109078190Y-81402713D01*
X108991399Y-81463994D01*
X108902956Y-81520515D01*
X108813102Y-81572168D01*
X108722078Y-81618844D01*
X108630123Y-81660436D01*
X108537479Y-81696834D01*
X108444385Y-81727931D01*
X108351082Y-81753616D01*
X108257810Y-81773783D01*
X108164809Y-81788322D01*
X108072320Y-81797125D01*
X107980583Y-81800084D01*
X107927967Y-81797953D01*
X107871701Y-81791722D01*
X107812349Y-81781631D01*
X107750478Y-81767920D01*
X107686654Y-81750830D01*
X107621442Y-81730600D01*
X107555409Y-81707470D01*
X107489119Y-81681683D01*
X107423140Y-81653476D01*
X107358037Y-81623092D01*
X107294376Y-81590769D01*
X107232722Y-81556749D01*
X107173641Y-81521272D01*
X107117701Y-81484578D01*
X107065465Y-81446906D01*
X107017500Y-81408499D01*
X106928909Y-81326681D01*
X106847774Y-81238391D01*
X106774236Y-81144225D01*
X106708434Y-81044781D01*
X106650507Y-80940654D01*
X106600595Y-80832442D01*
X106558838Y-80720743D01*
X106525375Y-80606151D01*
X106500345Y-80489266D01*
X106483889Y-80370683D01*
X106476145Y-80250999D01*
X106477254Y-80130811D01*
X106487354Y-80010716D01*
X106506585Y-79891311D01*
X106535087Y-79773193D01*
X106573000Y-79656959D01*
X106591990Y-79608738D01*
X106611561Y-79562898D01*
X106632171Y-79518840D01*
X106654277Y-79475967D01*
X106678336Y-79433684D01*
X106704806Y-79391394D01*
X106734144Y-79348498D01*
X106766807Y-79304402D01*
X106803253Y-79258506D01*
X106843940Y-79210216D01*
X106889323Y-79158934D01*
X106939861Y-79104062D01*
X107058232Y-78981165D01*
X107202709Y-78836750D01*
X107399894Y-78649423D01*
X107602467Y-78470468D01*
X107810357Y-78299946D01*
X108023495Y-78137919D01*
X108241811Y-77984451D01*
X108465236Y-77839602D01*
X108693698Y-77703434D01*
X108927130Y-77576011D01*
X109165460Y-77457393D01*
X109408620Y-77347643D01*
X109656539Y-77246822D01*
X109909147Y-77154993D01*
X110166376Y-77072218D01*
X110428154Y-76998558D01*
X110694413Y-76934077D01*
X110965083Y-76878835D01*
X111102337Y-76855521D01*
X111249272Y-76835199D01*
X111566762Y-76803594D01*
X111906699Y-76784143D01*
X112258234Y-76776970D01*
X112610512Y-76782199D01*
G36*
X133211249Y-78424001D02*
G01*
X134685639Y-79304401D01*
X138053122Y-81323834D01*
X141379595Y-83333344D01*
X142389229Y-83953627D01*
X142757413Y-84191918D01*
X137943320Y-87110932D01*
X133105416Y-90002166D01*
X133097643Y-89542866D01*
X133090862Y-88292297D01*
X133084247Y-84181334D01*
X133084247Y-78355209D01*
X133211249Y-78424001D01*
G37*
X133211249Y-78424001D02*
X134685639Y-79304401D01*
X138053122Y-81323834D01*
X141379595Y-83333344D01*
X142389229Y-83953627D01*
X142757413Y-84191918D01*
X137943320Y-87110932D01*
X133105416Y-90002166D01*
X133097643Y-89542866D01*
X133090862Y-88292297D01*
X133084247Y-84181334D01*
X133084247Y-78355209D01*
X133211249Y-78424001D01*
G36*
X132440799Y-76722984D02*
G01*
X132571505Y-76757498D01*
X132747062Y-76827546D01*
X132977754Y-76938366D01*
X133645693Y-77303284D01*
X134657610Y-77894173D01*
X138042539Y-79921543D01*
X143376539Y-83123000D01*
X143402997Y-80075000D01*
X143429456Y-77027000D01*
X143604079Y-76873543D01*
X143630930Y-76851170D01*
X143658832Y-76830674D01*
X143687690Y-76812043D01*
X143717407Y-76795263D01*
X143747887Y-76780320D01*
X143779035Y-76767200D01*
X143810755Y-76755890D01*
X143842950Y-76746377D01*
X143875526Y-76738646D01*
X143908385Y-76732685D01*
X143941432Y-76728480D01*
X143974571Y-76726016D01*
X144007706Y-76725281D01*
X144040741Y-76726262D01*
X144073581Y-76728943D01*
X144106129Y-76733313D01*
X144138289Y-76739357D01*
X144169966Y-76747061D01*
X144201063Y-76756413D01*
X144231485Y-76767399D01*
X144261136Y-76780004D01*
X144289919Y-76794216D01*
X144317740Y-76810021D01*
X144344501Y-76827405D01*
X144370107Y-76846355D01*
X144394463Y-76866858D01*
X144417471Y-76888899D01*
X144439037Y-76912465D01*
X144459064Y-76937542D01*
X144477457Y-76964118D01*
X144494119Y-76992178D01*
X144508954Y-77021708D01*
X144523610Y-77099657D01*
X144535909Y-77271244D01*
X144553934Y-77902771D01*
X144564022Y-78931174D01*
X144567164Y-80371335D01*
X144567164Y-83599250D01*
X164305077Y-83599250D01*
X164469117Y-83747416D01*
X164491953Y-83768035D01*
X164512898Y-83788344D01*
X164532044Y-83808529D01*
X164549486Y-83828776D01*
X164565315Y-83849270D01*
X164579625Y-83870199D01*
X164592508Y-83891748D01*
X164604059Y-83914104D01*
X164614369Y-83937451D01*
X164623531Y-83961977D01*
X164631640Y-83987867D01*
X164638787Y-84015307D01*
X164645066Y-84044483D01*
X164650570Y-84075582D01*
X164655392Y-84108790D01*
X164659624Y-84144291D01*
X164664120Y-84184744D01*
X164667562Y-84221103D01*
X164669763Y-84253866D01*
X164670538Y-84283528D01*
X164670332Y-84297352D01*
X164669700Y-84310586D01*
X164668619Y-84323293D01*
X164667065Y-84335536D01*
X164665014Y-84347375D01*
X164662444Y-84358873D01*
X164659332Y-84370092D01*
X164655654Y-84381094D01*
X164651386Y-84391941D01*
X164646507Y-84402695D01*
X164640991Y-84413418D01*
X164634817Y-84424172D01*
X164627961Y-84435019D01*
X164620399Y-84446021D01*
X164612109Y-84457240D01*
X164603067Y-84468738D01*
X164582634Y-84492819D01*
X164558914Y-84518761D01*
X164531722Y-84547059D01*
X164500872Y-84578209D01*
X164315665Y-84763417D01*
X144567164Y-84763417D01*
X144567164Y-91314499D01*
X144403124Y-91478541D01*
X144379837Y-91501312D01*
X144357472Y-91522052D01*
X144335836Y-91540839D01*
X144314735Y-91557750D01*
X144293975Y-91572863D01*
X144273363Y-91586255D01*
X144252704Y-91598004D01*
X144231804Y-91608187D01*
X144210471Y-91616881D01*
X144188510Y-91624165D01*
X144165727Y-91630116D01*
X144141929Y-91634811D01*
X144116921Y-91638327D01*
X144090511Y-91640743D01*
X144062504Y-91642136D01*
X144032706Y-91642583D01*
X144009876Y-91642260D01*
X143987049Y-91641301D01*
X143941548Y-91637539D01*
X143896481Y-91631421D01*
X143852127Y-91623070D01*
X143808765Y-91612611D01*
X143766675Y-91600167D01*
X143726135Y-91585863D01*
X143687424Y-91569823D01*
X143650822Y-91552170D01*
X143616607Y-91533029D01*
X143600483Y-91522939D01*
X143585059Y-91512524D01*
X143570372Y-91501799D01*
X143556457Y-91490779D01*
X143543347Y-91479480D01*
X143531078Y-91467917D01*
X143519686Y-91456106D01*
X143509204Y-91444063D01*
X143499668Y-91431803D01*
X143491112Y-91419341D01*
X143483572Y-91406694D01*
X143477082Y-91393875D01*
X143466953Y-91312898D01*
X143456576Y-91118129D01*
X143436071Y-90438067D01*
X143417550Y-89455388D01*
X143402997Y-88271792D01*
X143376539Y-85250251D01*
X138058414Y-88446417D01*
X136210196Y-89555765D01*
X135465294Y-90001764D01*
X134827687Y-90381844D01*
X134288244Y-90700904D01*
X134052481Y-90839083D01*
X133837835Y-90963844D01*
X133643164Y-91075800D01*
X133467328Y-91175562D01*
X133309184Y-91263744D01*
X133167592Y-91340958D01*
X133041409Y-91407815D01*
X132929495Y-91464929D01*
X132830708Y-91512912D01*
X132743907Y-91552376D01*
X132704645Y-91569105D01*
X132667950Y-91583933D01*
X132633682Y-91596939D01*
X132601696Y-91608197D01*
X132571851Y-91617785D01*
X132544004Y-91625778D01*
X132518012Y-91632255D01*
X132493732Y-91637291D01*
X132471021Y-91640962D01*
X132449738Y-91643346D01*
X132429739Y-91644518D01*
X132410882Y-91644556D01*
X132393023Y-91643536D01*
X132376021Y-91641534D01*
X132359733Y-91638628D01*
X132344015Y-91634893D01*
X132328726Y-91630406D01*
X132313722Y-91625243D01*
X132284001Y-91613199D01*
X132221708Y-91584374D01*
X132208517Y-91577754D01*
X132194815Y-91569863D01*
X132180710Y-91560794D01*
X132166310Y-91550639D01*
X132151724Y-91539493D01*
X132137061Y-91527447D01*
X132122429Y-91514596D01*
X132107936Y-91501031D01*
X132093692Y-91486846D01*
X132079804Y-91472134D01*
X132066381Y-91456988D01*
X132053531Y-91441500D01*
X132041364Y-91425765D01*
X132029987Y-91409874D01*
X132019510Y-91393922D01*
X132010040Y-91378000D01*
X131983385Y-91314531D01*
X131962497Y-91204615D01*
X131946694Y-91020161D01*
X131935294Y-90733078D01*
X131922974Y-89738658D01*
X131920080Y-87996626D01*
X131920080Y-84763417D01*
X114050125Y-84763417D01*
X113954874Y-84969791D01*
X113926639Y-85027547D01*
X113893699Y-85085557D01*
X113856310Y-85143584D01*
X113814728Y-85201385D01*
X113769207Y-85258722D01*
X113720005Y-85315353D01*
X113667376Y-85371038D01*
X113611578Y-85425537D01*
X113552864Y-85478610D01*
X113491492Y-85530017D01*
X113427717Y-85579516D01*
X113361795Y-85626869D01*
X113293981Y-85671834D01*
X113224531Y-85714171D01*
X113153702Y-85753640D01*
X113081749Y-85790001D01*
X112977104Y-85838070D01*
X112930049Y-85858194D01*
X112885544Y-85875908D01*
X112842868Y-85891358D01*
X112801301Y-85904692D01*
X112760122Y-85916057D01*
X112718609Y-85925600D01*
X112676042Y-85933469D01*
X112631699Y-85939811D01*
X112584861Y-85944773D01*
X112534806Y-85948503D01*
X112480813Y-85951148D01*
X112422162Y-85952854D01*
X112287999Y-85954043D01*
X112153837Y-85952854D01*
X112095185Y-85951148D01*
X112041193Y-85948503D01*
X111991137Y-85944773D01*
X111944299Y-85939811D01*
X111899957Y-85933469D01*
X111857390Y-85925600D01*
X111815877Y-85916057D01*
X111774697Y-85904692D01*
X111733130Y-85891358D01*
X111690454Y-85875908D01*
X111645949Y-85858194D01*
X111598894Y-85838070D01*
X111494249Y-85790001D01*
X111414670Y-85750421D01*
X111338579Y-85709003D01*
X111265867Y-85665648D01*
X111196427Y-85620254D01*
X111130150Y-85572721D01*
X111066926Y-85522947D01*
X111006648Y-85470833D01*
X110949207Y-85416277D01*
X110894495Y-85359178D01*
X110842403Y-85299437D01*
X110792822Y-85236951D01*
X110745644Y-85171620D01*
X110700760Y-85103344D01*
X110658063Y-85032021D01*
X110617442Y-84957552D01*
X110578791Y-84879834D01*
X110536457Y-84783171D01*
X110499695Y-84685780D01*
X110468438Y-84587833D01*
X110442614Y-84489501D01*
X110422154Y-84390956D01*
X110406988Y-84292370D01*
X110397047Y-84193913D01*
X110392260Y-84095757D01*
X110392559Y-83998075D01*
X110397872Y-83901037D01*
X110408131Y-83804814D01*
X110423266Y-83709579D01*
X110443207Y-83615503D01*
X110467883Y-83522757D01*
X110497227Y-83431513D01*
X110531166Y-83341943D01*
X110569633Y-83254217D01*
X110612557Y-83168508D01*
X110659868Y-83084986D01*
X110711496Y-83003824D01*
X110767373Y-82925193D01*
X110827427Y-82849264D01*
X110891590Y-82776209D01*
X110959791Y-82706199D01*
X111031961Y-82639406D01*
X111108030Y-82576001D01*
X111187929Y-82516157D01*
X111271586Y-82460044D01*
X111358934Y-82407833D01*
X111449901Y-82359697D01*
X111544419Y-82315807D01*
X111642416Y-82276334D01*
X111722937Y-82248734D01*
X111807357Y-82225443D01*
X111895110Y-82206431D01*
X111985630Y-82191667D01*
X112078352Y-82181120D01*
X112172709Y-82174759D01*
X112268136Y-82172552D01*
X112364067Y-82174469D01*
X112459936Y-82180479D01*
X112555176Y-82190551D01*
X112649224Y-82204653D01*
X112741511Y-82222755D01*
X112831473Y-82244826D01*
X112918544Y-82270835D01*
X113002158Y-82300750D01*
X113081749Y-82334541D01*
X113166762Y-82377440D01*
X113250876Y-82426463D01*
X113333687Y-82481160D01*
X113414794Y-82541081D01*
X113493791Y-82605778D01*
X113570278Y-82674799D01*
X113643850Y-82747697D01*
X113714104Y-82824021D01*
X113780637Y-82903321D01*
X113843047Y-82985148D01*
X113900929Y-83069053D01*
X113953882Y-83154585D01*
X114001502Y-83241296D01*
X114043386Y-83328735D01*
X114079130Y-83416453D01*
X114108332Y-83504001D01*
X114153756Y-83533922D01*
X114328846Y-83556835D01*
X115420004Y-83585360D01*
X123030081Y-83599250D01*
X131920080Y-83599250D01*
X131920080Y-77079916D01*
X132100000Y-76900000D01*
X132214917Y-76780236D01*
X132272791Y-76739592D01*
X132344656Y-76718762D01*
X132440799Y-76722984D01*
G37*
X132440799Y-76722984D02*
X132571505Y-76757498D01*
X132747062Y-76827546D01*
X132977754Y-76938366D01*
X133645693Y-77303284D01*
X134657610Y-77894173D01*
X138042539Y-79921543D01*
X143376539Y-83123000D01*
X143402997Y-80075000D01*
X143429456Y-77027000D01*
X143604079Y-76873543D01*
X143630930Y-76851170D01*
X143658832Y-76830674D01*
X143687690Y-76812043D01*
X143717407Y-76795263D01*
X143747887Y-76780320D01*
X143779035Y-76767200D01*
X143810755Y-76755890D01*
X143842950Y-76746377D01*
X143875526Y-76738646D01*
X143908385Y-76732685D01*
X143941432Y-76728480D01*
X143974571Y-76726016D01*
X144007706Y-76725281D01*
X144040741Y-76726262D01*
X144073581Y-76728943D01*
X144106129Y-76733313D01*
X144138289Y-76739357D01*
X144169966Y-76747061D01*
X144201063Y-76756413D01*
X144231485Y-76767399D01*
X144261136Y-76780004D01*
X144289919Y-76794216D01*
X144317740Y-76810021D01*
X144344501Y-76827405D01*
X144370107Y-76846355D01*
X144394463Y-76866858D01*
X144417471Y-76888899D01*
X144439037Y-76912465D01*
X144459064Y-76937542D01*
X144477457Y-76964118D01*
X144494119Y-76992178D01*
X144508954Y-77021708D01*
X144523610Y-77099657D01*
X144535909Y-77271244D01*
X144553934Y-77902771D01*
X144564022Y-78931174D01*
X144567164Y-80371335D01*
X144567164Y-83599250D01*
X164305077Y-83599250D01*
X164469117Y-83747416D01*
X164491953Y-83768035D01*
X164512898Y-83788344D01*
X164532044Y-83808529D01*
X164549486Y-83828776D01*
X164565315Y-83849270D01*
X164579625Y-83870199D01*
X164592508Y-83891748D01*
X164604059Y-83914104D01*
X164614369Y-83937451D01*
X164623531Y-83961977D01*
X164631640Y-83987867D01*
X164638787Y-84015307D01*
X164645066Y-84044483D01*
X164650570Y-84075582D01*
X164655392Y-84108790D01*
X164659624Y-84144291D01*
X164664120Y-84184744D01*
X164667562Y-84221103D01*
X164669763Y-84253866D01*
X164670538Y-84283528D01*
X164670332Y-84297352D01*
X164669700Y-84310586D01*
X164668619Y-84323293D01*
X164667065Y-84335536D01*
X164665014Y-84347375D01*
X164662444Y-84358873D01*
X164659332Y-84370092D01*
X164655654Y-84381094D01*
X164651386Y-84391941D01*
X164646507Y-84402695D01*
X164640991Y-84413418D01*
X164634817Y-84424172D01*
X164627961Y-84435019D01*
X164620399Y-84446021D01*
X164612109Y-84457240D01*
X164603067Y-84468738D01*
X164582634Y-84492819D01*
X164558914Y-84518761D01*
X164531722Y-84547059D01*
X164500872Y-84578209D01*
X164315665Y-84763417D01*
X144567164Y-84763417D01*
X144567164Y-91314499D01*
X144403124Y-91478541D01*
X144379837Y-91501312D01*
X144357472Y-91522052D01*
X144335836Y-91540839D01*
X144314735Y-91557750D01*
X144293975Y-91572863D01*
X144273363Y-91586255D01*
X144252704Y-91598004D01*
X144231804Y-91608187D01*
X144210471Y-91616881D01*
X144188510Y-91624165D01*
X144165727Y-91630116D01*
X144141929Y-91634811D01*
X144116921Y-91638327D01*
X144090511Y-91640743D01*
X144062504Y-91642136D01*
X144032706Y-91642583D01*
X144009876Y-91642260D01*
X143987049Y-91641301D01*
X143941548Y-91637539D01*
X143896481Y-91631421D01*
X143852127Y-91623070D01*
X143808765Y-91612611D01*
X143766675Y-91600167D01*
X143726135Y-91585863D01*
X143687424Y-91569823D01*
X143650822Y-91552170D01*
X143616607Y-91533029D01*
X143600483Y-91522939D01*
X143585059Y-91512524D01*
X143570372Y-91501799D01*
X143556457Y-91490779D01*
X143543347Y-91479480D01*
X143531078Y-91467917D01*
X143519686Y-91456106D01*
X143509204Y-91444063D01*
X143499668Y-91431803D01*
X143491112Y-91419341D01*
X143483572Y-91406694D01*
X143477082Y-91393875D01*
X143466953Y-91312898D01*
X143456576Y-91118129D01*
X143436071Y-90438067D01*
X143417550Y-89455388D01*
X143402997Y-88271792D01*
X143376539Y-85250251D01*
X138058414Y-88446417D01*
X136210196Y-89555765D01*
X135465294Y-90001764D01*
X134827687Y-90381844D01*
X134288244Y-90700904D01*
X134052481Y-90839083D01*
X133837835Y-90963844D01*
X133643164Y-91075800D01*
X133467328Y-91175562D01*
X133309184Y-91263744D01*
X133167592Y-91340958D01*
X133041409Y-91407815D01*
X132929495Y-91464929D01*
X132830708Y-91512912D01*
X132743907Y-91552376D01*
X132704645Y-91569105D01*
X132667950Y-91583933D01*
X132633682Y-91596939D01*
X132601696Y-91608197D01*
X132571851Y-91617785D01*
X132544004Y-91625778D01*
X132518012Y-91632255D01*
X132493732Y-91637291D01*
X132471021Y-91640962D01*
X132449738Y-91643346D01*
X132429739Y-91644518D01*
X132410882Y-91644556D01*
X132393023Y-91643536D01*
X132376021Y-91641534D01*
X132359733Y-91638628D01*
X132344015Y-91634893D01*
X132328726Y-91630406D01*
X132313722Y-91625243D01*
X132284001Y-91613199D01*
X132221708Y-91584374D01*
X132208517Y-91577754D01*
X132194815Y-91569863D01*
X132180710Y-91560794D01*
X132166310Y-91550639D01*
X132151724Y-91539493D01*
X132137061Y-91527447D01*
X132122429Y-91514596D01*
X132107936Y-91501031D01*
X132093692Y-91486846D01*
X132079804Y-91472134D01*
X132066381Y-91456988D01*
X132053531Y-91441500D01*
X132041364Y-91425765D01*
X132029987Y-91409874D01*
X132019510Y-91393922D01*
X132010040Y-91378000D01*
X131983385Y-91314531D01*
X131962497Y-91204615D01*
X131946694Y-91020161D01*
X131935294Y-90733078D01*
X131922974Y-89738658D01*
X131920080Y-87996626D01*
X131920080Y-84763417D01*
X114050125Y-84763417D01*
X113954874Y-84969791D01*
X113926639Y-85027547D01*
X113893699Y-85085557D01*
X113856310Y-85143584D01*
X113814728Y-85201385D01*
X113769207Y-85258722D01*
X113720005Y-85315353D01*
X113667376Y-85371038D01*
X113611578Y-85425537D01*
X113552864Y-85478610D01*
X113491492Y-85530017D01*
X113427717Y-85579516D01*
X113361795Y-85626869D01*
X113293981Y-85671834D01*
X113224531Y-85714171D01*
X113153702Y-85753640D01*
X113081749Y-85790001D01*
X112977104Y-85838070D01*
X112930049Y-85858194D01*
X112885544Y-85875908D01*
X112842868Y-85891358D01*
X112801301Y-85904692D01*
X112760122Y-85916057D01*
X112718609Y-85925600D01*
X112676042Y-85933469D01*
X112631699Y-85939811D01*
X112584861Y-85944773D01*
X112534806Y-85948503D01*
X112480813Y-85951148D01*
X112422162Y-85952854D01*
X112287999Y-85954043D01*
X112153837Y-85952854D01*
X112095185Y-85951148D01*
X112041193Y-85948503D01*
X111991137Y-85944773D01*
X111944299Y-85939811D01*
X111899957Y-85933469D01*
X111857390Y-85925600D01*
X111815877Y-85916057D01*
X111774697Y-85904692D01*
X111733130Y-85891358D01*
X111690454Y-85875908D01*
X111645949Y-85858194D01*
X111598894Y-85838070D01*
X111494249Y-85790001D01*
X111414670Y-85750421D01*
X111338579Y-85709003D01*
X111265867Y-85665648D01*
X111196427Y-85620254D01*
X111130150Y-85572721D01*
X111066926Y-85522947D01*
X111006648Y-85470833D01*
X110949207Y-85416277D01*
X110894495Y-85359178D01*
X110842403Y-85299437D01*
X110792822Y-85236951D01*
X110745644Y-85171620D01*
X110700760Y-85103344D01*
X110658063Y-85032021D01*
X110617442Y-84957552D01*
X110578791Y-84879834D01*
X110536457Y-84783171D01*
X110499695Y-84685780D01*
X110468438Y-84587833D01*
X110442614Y-84489501D01*
X110422154Y-84390956D01*
X110406988Y-84292370D01*
X110397047Y-84193913D01*
X110392260Y-84095757D01*
X110392559Y-83998075D01*
X110397872Y-83901037D01*
X110408131Y-83804814D01*
X110423266Y-83709579D01*
X110443207Y-83615503D01*
X110467883Y-83522757D01*
X110497227Y-83431513D01*
X110531166Y-83341943D01*
X110569633Y-83254217D01*
X110612557Y-83168508D01*
X110659868Y-83084986D01*
X110711496Y-83003824D01*
X110767373Y-82925193D01*
X110827427Y-82849264D01*
X110891590Y-82776209D01*
X110959791Y-82706199D01*
X111031961Y-82639406D01*
X111108030Y-82576001D01*
X111187929Y-82516157D01*
X111271586Y-82460044D01*
X111358934Y-82407833D01*
X111449901Y-82359697D01*
X111544419Y-82315807D01*
X111642416Y-82276334D01*
X111722937Y-82248734D01*
X111807357Y-82225443D01*
X111895110Y-82206431D01*
X111985630Y-82191667D01*
X112078352Y-82181120D01*
X112172709Y-82174759D01*
X112268136Y-82172552D01*
X112364067Y-82174469D01*
X112459936Y-82180479D01*
X112555176Y-82190551D01*
X112649224Y-82204653D01*
X112741511Y-82222755D01*
X112831473Y-82244826D01*
X112918544Y-82270835D01*
X113002158Y-82300750D01*
X113081749Y-82334541D01*
X113166762Y-82377440D01*
X113250876Y-82426463D01*
X113333687Y-82481160D01*
X113414794Y-82541081D01*
X113493791Y-82605778D01*
X113570278Y-82674799D01*
X113643850Y-82747697D01*
X113714104Y-82824021D01*
X113780637Y-82903321D01*
X113843047Y-82985148D01*
X113900929Y-83069053D01*
X113953882Y-83154585D01*
X114001502Y-83241296D01*
X114043386Y-83328735D01*
X114079130Y-83416453D01*
X114108332Y-83504001D01*
X114153756Y-83533922D01*
X114328846Y-83556835D01*
X115420004Y-83585360D01*
X123030081Y-83599250D01*
X131920080Y-83599250D01*
X131920080Y-77079916D01*
X132100000Y-76900000D01*
X132214917Y-76780236D01*
X132272791Y-76739592D01*
X132344656Y-76718762D01*
X132440799Y-76722984D01*
M02*
