G04 #@! TF.GenerationSoftware,KiCad,Pcbnew,(5.99.0-1157-ga17a78e42)*
G04 #@! TF.CreationDate,2020-04-19T13:41:11-07:00*
G04 #@! TF.ProjectId,signal-board,7369676e-616c-42d6-926f-6172642e6b69,rev?*
G04 #@! TF.SameCoordinates,Original*
G04 #@! TF.FileFunction,Soldermask,Bot*
G04 #@! TF.FilePolarity,Negative*
%FSLAX46Y46*%
G04 Gerber Fmt 4.6, Leading zero omitted, Abs format (unit mm)*
G04 Created by KiCad (PCBNEW (5.99.0-1157-ga17a78e42)) date 2020-04-19 13:41:11*
%MOMM*%
%LPD*%
G01*
G04 APERTURE LIST*
G04 APERTURE END LIST*
G36*
X170525158Y-105136883D02*
G01*
X170547386Y-105135796D01*
X170616258Y-105146458D01*
X170688318Y-105154032D01*
X170709375Y-105160874D01*
X170728238Y-105163794D01*
X170796542Y-105189196D01*
X170868406Y-105212546D01*
X170884838Y-105222033D01*
X170899756Y-105227581D01*
X170964253Y-105267883D01*
X171032393Y-105307224D01*
X171044145Y-105317805D01*
X171054956Y-105324561D01*
X171112379Y-105379244D01*
X171173112Y-105433928D01*
X171180541Y-105444153D01*
X171187478Y-105450759D01*
X171234609Y-105518572D01*
X171284412Y-105587120D01*
X171288263Y-105595771D01*
X171291921Y-105601033D01*
X171325794Y-105680064D01*
X171361430Y-105760104D01*
X171362740Y-105766266D01*
X171364011Y-105769232D01*
X171382074Y-105857229D01*
X171400799Y-105945322D01*
X171400799Y-106134678D01*
X171400130Y-106137825D01*
X171400130Y-106137878D01*
X171362102Y-106316790D01*
X171362079Y-106316843D01*
X171361430Y-106319896D01*
X171324851Y-106402054D01*
X171288837Y-106484485D01*
X171286974Y-106487126D01*
X171284412Y-106492880D01*
X171232904Y-106563776D01*
X171183348Y-106634025D01*
X171178679Y-106638409D01*
X171173112Y-106646072D01*
X171110134Y-106702778D01*
X171049945Y-106759299D01*
X171041786Y-106764318D01*
X171032393Y-106772776D01*
X170961627Y-106813633D01*
X170894077Y-106855190D01*
X170882093Y-106859552D01*
X170868406Y-106867454D01*
X170793623Y-106891753D01*
X170722113Y-106917780D01*
X170706358Y-106920107D01*
X170688318Y-106925968D01*
X170613199Y-106933863D01*
X170541074Y-106944514D01*
X170522007Y-106943448D01*
X170500000Y-106945761D01*
X170427976Y-106938191D01*
X170358361Y-106934299D01*
X170336837Y-106928612D01*
X170311682Y-106925968D01*
X170245744Y-106904543D01*
X170181428Y-106887550D01*
X170158662Y-106876249D01*
X170131594Y-106867454D01*
X170074250Y-106834347D01*
X170017507Y-106806179D01*
X169994984Y-106788582D01*
X169967607Y-106772776D01*
X169920738Y-106730575D01*
X169873302Y-106693514D01*
X169852724Y-106669335D01*
X169826888Y-106646072D01*
X169791660Y-106597584D01*
X169754697Y-106554153D01*
X169737878Y-106523560D01*
X169715588Y-106492880D01*
X169692486Y-106440991D01*
X169666534Y-106393786D01*
X169655277Y-106357419D01*
X169638570Y-106319896D01*
X169627414Y-106267409D01*
X169612418Y-106218966D01*
X169608394Y-106177929D01*
X169599201Y-106134678D01*
X169599201Y-106084169D01*
X169594560Y-106036837D01*
X169599201Y-105992682D01*
X169599201Y-105945322D01*
X169609048Y-105898995D01*
X169613689Y-105854840D01*
X169628068Y-105809511D01*
X169638570Y-105760104D01*
X169656556Y-105719708D01*
X169669022Y-105680409D01*
X169693762Y-105636142D01*
X169715588Y-105587120D01*
X169739730Y-105553891D01*
X169758304Y-105520657D01*
X169793505Y-105479876D01*
X169826888Y-105433928D01*
X169855066Y-105408556D01*
X169877880Y-105382126D01*
X169923071Y-105347325D01*
X169967607Y-105307224D01*
X169997715Y-105289841D01*
X170022873Y-105270467D01*
X170076985Y-105244075D01*
X170131594Y-105212546D01*
X170161651Y-105202780D01*
X170187351Y-105190245D01*
X170248736Y-105174485D01*
X170311682Y-105154032D01*
X170339978Y-105151058D01*
X170364601Y-105144736D01*
X170431049Y-105141486D01*
X170500000Y-105134239D01*
X170525158Y-105136883D01*
G37*
G36*
X167985158Y-105136883D02*
G01*
X168007386Y-105135796D01*
X168076258Y-105146458D01*
X168148318Y-105154032D01*
X168169375Y-105160874D01*
X168188238Y-105163794D01*
X168256542Y-105189196D01*
X168328406Y-105212546D01*
X168344838Y-105222033D01*
X168359756Y-105227581D01*
X168424253Y-105267883D01*
X168492393Y-105307224D01*
X168504145Y-105317805D01*
X168514956Y-105324561D01*
X168572379Y-105379244D01*
X168633112Y-105433928D01*
X168640541Y-105444153D01*
X168647478Y-105450759D01*
X168694609Y-105518572D01*
X168744412Y-105587120D01*
X168748263Y-105595771D01*
X168751921Y-105601033D01*
X168785794Y-105680064D01*
X168821430Y-105760104D01*
X168822740Y-105766266D01*
X168824011Y-105769232D01*
X168842074Y-105857229D01*
X168860799Y-105945322D01*
X168860799Y-106134678D01*
X168860130Y-106137825D01*
X168860130Y-106137878D01*
X168822102Y-106316790D01*
X168822079Y-106316843D01*
X168821430Y-106319896D01*
X168784851Y-106402054D01*
X168748837Y-106484485D01*
X168746974Y-106487126D01*
X168744412Y-106492880D01*
X168692904Y-106563776D01*
X168643348Y-106634025D01*
X168638679Y-106638409D01*
X168633112Y-106646072D01*
X168570134Y-106702778D01*
X168509945Y-106759299D01*
X168501786Y-106764318D01*
X168492393Y-106772776D01*
X168421627Y-106813633D01*
X168354077Y-106855190D01*
X168342093Y-106859552D01*
X168328406Y-106867454D01*
X168253623Y-106891753D01*
X168182113Y-106917780D01*
X168166358Y-106920107D01*
X168148318Y-106925968D01*
X168073199Y-106933863D01*
X168001074Y-106944514D01*
X167982007Y-106943448D01*
X167960000Y-106945761D01*
X167887976Y-106938191D01*
X167818361Y-106934299D01*
X167796837Y-106928612D01*
X167771682Y-106925968D01*
X167705744Y-106904543D01*
X167641428Y-106887550D01*
X167618662Y-106876249D01*
X167591594Y-106867454D01*
X167534250Y-106834347D01*
X167477507Y-106806179D01*
X167454984Y-106788582D01*
X167427607Y-106772776D01*
X167380738Y-106730575D01*
X167333302Y-106693514D01*
X167312724Y-106669335D01*
X167286888Y-106646072D01*
X167251660Y-106597584D01*
X167214697Y-106554153D01*
X167197878Y-106523560D01*
X167175588Y-106492880D01*
X167152486Y-106440991D01*
X167126534Y-106393786D01*
X167115277Y-106357419D01*
X167098570Y-106319896D01*
X167087414Y-106267409D01*
X167072418Y-106218966D01*
X167068394Y-106177929D01*
X167059201Y-106134678D01*
X167059201Y-106084169D01*
X167054560Y-106036837D01*
X167059201Y-105992682D01*
X167059201Y-105945322D01*
X167069048Y-105898995D01*
X167073689Y-105854840D01*
X167088068Y-105809511D01*
X167098570Y-105760104D01*
X167116556Y-105719708D01*
X167129022Y-105680409D01*
X167153762Y-105636142D01*
X167175588Y-105587120D01*
X167199730Y-105553891D01*
X167218304Y-105520657D01*
X167253505Y-105479876D01*
X167286888Y-105433928D01*
X167315066Y-105408556D01*
X167337880Y-105382126D01*
X167383071Y-105347325D01*
X167427607Y-105307224D01*
X167457715Y-105289841D01*
X167482873Y-105270467D01*
X167536985Y-105244075D01*
X167591594Y-105212546D01*
X167621651Y-105202780D01*
X167647351Y-105190245D01*
X167708736Y-105174485D01*
X167771682Y-105154032D01*
X167799978Y-105151058D01*
X167824601Y-105144736D01*
X167891049Y-105141486D01*
X167960000Y-105134239D01*
X167985158Y-105136883D01*
G37*
G36*
X165445158Y-105136883D02*
G01*
X165467386Y-105135796D01*
X165536258Y-105146458D01*
X165608318Y-105154032D01*
X165629375Y-105160874D01*
X165648238Y-105163794D01*
X165716542Y-105189196D01*
X165788406Y-105212546D01*
X165804838Y-105222033D01*
X165819756Y-105227581D01*
X165884253Y-105267883D01*
X165952393Y-105307224D01*
X165964145Y-105317805D01*
X165974956Y-105324561D01*
X166032379Y-105379244D01*
X166093112Y-105433928D01*
X166100541Y-105444153D01*
X166107478Y-105450759D01*
X166154609Y-105518572D01*
X166204412Y-105587120D01*
X166208263Y-105595771D01*
X166211921Y-105601033D01*
X166245794Y-105680064D01*
X166281430Y-105760104D01*
X166282740Y-105766266D01*
X166284011Y-105769232D01*
X166302074Y-105857229D01*
X166320799Y-105945322D01*
X166320799Y-106134678D01*
X166320130Y-106137825D01*
X166320130Y-106137878D01*
X166282102Y-106316790D01*
X166282079Y-106316843D01*
X166281430Y-106319896D01*
X166244851Y-106402054D01*
X166208837Y-106484485D01*
X166206974Y-106487126D01*
X166204412Y-106492880D01*
X166152904Y-106563776D01*
X166103348Y-106634025D01*
X166098679Y-106638409D01*
X166093112Y-106646072D01*
X166030134Y-106702778D01*
X165969945Y-106759299D01*
X165961786Y-106764318D01*
X165952393Y-106772776D01*
X165881627Y-106813633D01*
X165814077Y-106855190D01*
X165802093Y-106859552D01*
X165788406Y-106867454D01*
X165713623Y-106891753D01*
X165642113Y-106917780D01*
X165626358Y-106920107D01*
X165608318Y-106925968D01*
X165533199Y-106933863D01*
X165461074Y-106944514D01*
X165442007Y-106943448D01*
X165420000Y-106945761D01*
X165347976Y-106938191D01*
X165278361Y-106934299D01*
X165256837Y-106928612D01*
X165231682Y-106925968D01*
X165165744Y-106904543D01*
X165101428Y-106887550D01*
X165078662Y-106876249D01*
X165051594Y-106867454D01*
X164994250Y-106834347D01*
X164937507Y-106806179D01*
X164914984Y-106788582D01*
X164887607Y-106772776D01*
X164840738Y-106730575D01*
X164793302Y-106693514D01*
X164772724Y-106669335D01*
X164746888Y-106646072D01*
X164711660Y-106597584D01*
X164674697Y-106554153D01*
X164657878Y-106523560D01*
X164635588Y-106492880D01*
X164612486Y-106440991D01*
X164586534Y-106393786D01*
X164575277Y-106357419D01*
X164558570Y-106319896D01*
X164547414Y-106267409D01*
X164532418Y-106218966D01*
X164528394Y-106177929D01*
X164519201Y-106134678D01*
X164519201Y-106084169D01*
X164514560Y-106036837D01*
X164519201Y-105992682D01*
X164519201Y-105945322D01*
X164529048Y-105898995D01*
X164533689Y-105854840D01*
X164548068Y-105809511D01*
X164558570Y-105760104D01*
X164576556Y-105719708D01*
X164589022Y-105680409D01*
X164613762Y-105636142D01*
X164635588Y-105587120D01*
X164659730Y-105553891D01*
X164678304Y-105520657D01*
X164713505Y-105479876D01*
X164746888Y-105433928D01*
X164775066Y-105408556D01*
X164797880Y-105382126D01*
X164843071Y-105347325D01*
X164887607Y-105307224D01*
X164917715Y-105289841D01*
X164942873Y-105270467D01*
X164996985Y-105244075D01*
X165051594Y-105212546D01*
X165081651Y-105202780D01*
X165107351Y-105190245D01*
X165168736Y-105174485D01*
X165231682Y-105154032D01*
X165259978Y-105151058D01*
X165284601Y-105144736D01*
X165351049Y-105141486D01*
X165420000Y-105134239D01*
X165445158Y-105136883D01*
G37*
G36*
X162905158Y-105136883D02*
G01*
X162927386Y-105135796D01*
X162996258Y-105146458D01*
X163068318Y-105154032D01*
X163089375Y-105160874D01*
X163108238Y-105163794D01*
X163176542Y-105189196D01*
X163248406Y-105212546D01*
X163264838Y-105222033D01*
X163279756Y-105227581D01*
X163344253Y-105267883D01*
X163412393Y-105307224D01*
X163424145Y-105317805D01*
X163434956Y-105324561D01*
X163492379Y-105379244D01*
X163553112Y-105433928D01*
X163560541Y-105444153D01*
X163567478Y-105450759D01*
X163614609Y-105518572D01*
X163664412Y-105587120D01*
X163668263Y-105595771D01*
X163671921Y-105601033D01*
X163705794Y-105680064D01*
X163741430Y-105760104D01*
X163742740Y-105766266D01*
X163744011Y-105769232D01*
X163762074Y-105857229D01*
X163780799Y-105945322D01*
X163780799Y-106134678D01*
X163780130Y-106137825D01*
X163780130Y-106137878D01*
X163742102Y-106316790D01*
X163742079Y-106316843D01*
X163741430Y-106319896D01*
X163704851Y-106402054D01*
X163668837Y-106484485D01*
X163666974Y-106487126D01*
X163664412Y-106492880D01*
X163612904Y-106563776D01*
X163563348Y-106634025D01*
X163558679Y-106638409D01*
X163553112Y-106646072D01*
X163490134Y-106702778D01*
X163429945Y-106759299D01*
X163421786Y-106764318D01*
X163412393Y-106772776D01*
X163341627Y-106813633D01*
X163274077Y-106855190D01*
X163262093Y-106859552D01*
X163248406Y-106867454D01*
X163173623Y-106891753D01*
X163102113Y-106917780D01*
X163086358Y-106920107D01*
X163068318Y-106925968D01*
X162993199Y-106933863D01*
X162921074Y-106944514D01*
X162902007Y-106943448D01*
X162880000Y-106945761D01*
X162807976Y-106938191D01*
X162738361Y-106934299D01*
X162716837Y-106928612D01*
X162691682Y-106925968D01*
X162625744Y-106904543D01*
X162561428Y-106887550D01*
X162538662Y-106876249D01*
X162511594Y-106867454D01*
X162454250Y-106834347D01*
X162397507Y-106806179D01*
X162374984Y-106788582D01*
X162347607Y-106772776D01*
X162300738Y-106730575D01*
X162253302Y-106693514D01*
X162232724Y-106669335D01*
X162206888Y-106646072D01*
X162171660Y-106597584D01*
X162134697Y-106554153D01*
X162117878Y-106523560D01*
X162095588Y-106492880D01*
X162072486Y-106440991D01*
X162046534Y-106393786D01*
X162035277Y-106357419D01*
X162018570Y-106319896D01*
X162007414Y-106267409D01*
X161992418Y-106218966D01*
X161988394Y-106177929D01*
X161979201Y-106134678D01*
X161979201Y-106084169D01*
X161974560Y-106036837D01*
X161979201Y-105992682D01*
X161979201Y-105945322D01*
X161989048Y-105898995D01*
X161993689Y-105854840D01*
X162008068Y-105809511D01*
X162018570Y-105760104D01*
X162036556Y-105719708D01*
X162049022Y-105680409D01*
X162073762Y-105636142D01*
X162095588Y-105587120D01*
X162119730Y-105553891D01*
X162138304Y-105520657D01*
X162173505Y-105479876D01*
X162206888Y-105433928D01*
X162235066Y-105408556D01*
X162257880Y-105382126D01*
X162303071Y-105347325D01*
X162347607Y-105307224D01*
X162377715Y-105289841D01*
X162402873Y-105270467D01*
X162456985Y-105244075D01*
X162511594Y-105212546D01*
X162541651Y-105202780D01*
X162567351Y-105190245D01*
X162628736Y-105174485D01*
X162691682Y-105154032D01*
X162719978Y-105151058D01*
X162744601Y-105144736D01*
X162811049Y-105141486D01*
X162880000Y-105134239D01*
X162905158Y-105136883D01*
G37*
G36*
X160365158Y-105136883D02*
G01*
X160387386Y-105135796D01*
X160456258Y-105146458D01*
X160528318Y-105154032D01*
X160549375Y-105160874D01*
X160568238Y-105163794D01*
X160636542Y-105189196D01*
X160708406Y-105212546D01*
X160724838Y-105222033D01*
X160739756Y-105227581D01*
X160804253Y-105267883D01*
X160872393Y-105307224D01*
X160884145Y-105317805D01*
X160894956Y-105324561D01*
X160952379Y-105379244D01*
X161013112Y-105433928D01*
X161020541Y-105444153D01*
X161027478Y-105450759D01*
X161074609Y-105518572D01*
X161124412Y-105587120D01*
X161128263Y-105595771D01*
X161131921Y-105601033D01*
X161165794Y-105680064D01*
X161201430Y-105760104D01*
X161202740Y-105766266D01*
X161204011Y-105769232D01*
X161222074Y-105857229D01*
X161240799Y-105945322D01*
X161240799Y-106134678D01*
X161240130Y-106137825D01*
X161240130Y-106137878D01*
X161202102Y-106316790D01*
X161202079Y-106316843D01*
X161201430Y-106319896D01*
X161164851Y-106402054D01*
X161128837Y-106484485D01*
X161126974Y-106487126D01*
X161124412Y-106492880D01*
X161072904Y-106563776D01*
X161023348Y-106634025D01*
X161018679Y-106638409D01*
X161013112Y-106646072D01*
X160950134Y-106702778D01*
X160889945Y-106759299D01*
X160881786Y-106764318D01*
X160872393Y-106772776D01*
X160801627Y-106813633D01*
X160734077Y-106855190D01*
X160722093Y-106859552D01*
X160708406Y-106867454D01*
X160633623Y-106891753D01*
X160562113Y-106917780D01*
X160546358Y-106920107D01*
X160528318Y-106925968D01*
X160453199Y-106933863D01*
X160381074Y-106944514D01*
X160362007Y-106943448D01*
X160340000Y-106945761D01*
X160267976Y-106938191D01*
X160198361Y-106934299D01*
X160176837Y-106928612D01*
X160151682Y-106925968D01*
X160085744Y-106904543D01*
X160021428Y-106887550D01*
X159998662Y-106876249D01*
X159971594Y-106867454D01*
X159914250Y-106834347D01*
X159857507Y-106806179D01*
X159834984Y-106788582D01*
X159807607Y-106772776D01*
X159760738Y-106730575D01*
X159713302Y-106693514D01*
X159692724Y-106669335D01*
X159666888Y-106646072D01*
X159631660Y-106597584D01*
X159594697Y-106554153D01*
X159577878Y-106523560D01*
X159555588Y-106492880D01*
X159532486Y-106440991D01*
X159506534Y-106393786D01*
X159495277Y-106357419D01*
X159478570Y-106319896D01*
X159467414Y-106267409D01*
X159452418Y-106218966D01*
X159448394Y-106177929D01*
X159439201Y-106134678D01*
X159439201Y-106084169D01*
X159434560Y-106036837D01*
X159439201Y-105992682D01*
X159439201Y-105945322D01*
X159449048Y-105898995D01*
X159453689Y-105854840D01*
X159468068Y-105809511D01*
X159478570Y-105760104D01*
X159496556Y-105719708D01*
X159509022Y-105680409D01*
X159533762Y-105636142D01*
X159555588Y-105587120D01*
X159579730Y-105553891D01*
X159598304Y-105520657D01*
X159633505Y-105479876D01*
X159666888Y-105433928D01*
X159695066Y-105408556D01*
X159717880Y-105382126D01*
X159763071Y-105347325D01*
X159807607Y-105307224D01*
X159837715Y-105289841D01*
X159862873Y-105270467D01*
X159916985Y-105244075D01*
X159971594Y-105212546D01*
X160001651Y-105202780D01*
X160027351Y-105190245D01*
X160088736Y-105174485D01*
X160151682Y-105154032D01*
X160179978Y-105151058D01*
X160204601Y-105144736D01*
X160271049Y-105141486D01*
X160340000Y-105134239D01*
X160365158Y-105136883D01*
G37*
G36*
X152745158Y-105136883D02*
G01*
X152767386Y-105135796D01*
X152836258Y-105146458D01*
X152908318Y-105154032D01*
X152929375Y-105160874D01*
X152948238Y-105163794D01*
X153016542Y-105189196D01*
X153088406Y-105212546D01*
X153104838Y-105222033D01*
X153119756Y-105227581D01*
X153184253Y-105267883D01*
X153252393Y-105307224D01*
X153264145Y-105317805D01*
X153274956Y-105324561D01*
X153332379Y-105379244D01*
X153393112Y-105433928D01*
X153400541Y-105444153D01*
X153407478Y-105450759D01*
X153454609Y-105518572D01*
X153504412Y-105587120D01*
X153508263Y-105595771D01*
X153511921Y-105601033D01*
X153545794Y-105680064D01*
X153581430Y-105760104D01*
X153582740Y-105766266D01*
X153584011Y-105769232D01*
X153602074Y-105857229D01*
X153620799Y-105945322D01*
X153620799Y-106134678D01*
X153620130Y-106137825D01*
X153620130Y-106137878D01*
X153582102Y-106316790D01*
X153582079Y-106316843D01*
X153581430Y-106319896D01*
X153544851Y-106402054D01*
X153508837Y-106484485D01*
X153506974Y-106487126D01*
X153504412Y-106492880D01*
X153452904Y-106563776D01*
X153403348Y-106634025D01*
X153398679Y-106638409D01*
X153393112Y-106646072D01*
X153330134Y-106702778D01*
X153269945Y-106759299D01*
X153261786Y-106764318D01*
X153252393Y-106772776D01*
X153181627Y-106813633D01*
X153114077Y-106855190D01*
X153102093Y-106859552D01*
X153088406Y-106867454D01*
X153013623Y-106891753D01*
X152942113Y-106917780D01*
X152926358Y-106920107D01*
X152908318Y-106925968D01*
X152833199Y-106933863D01*
X152761074Y-106944514D01*
X152742007Y-106943448D01*
X152720000Y-106945761D01*
X152647976Y-106938191D01*
X152578361Y-106934299D01*
X152556837Y-106928612D01*
X152531682Y-106925968D01*
X152465744Y-106904543D01*
X152401428Y-106887550D01*
X152378662Y-106876249D01*
X152351594Y-106867454D01*
X152294250Y-106834347D01*
X152237507Y-106806179D01*
X152214984Y-106788582D01*
X152187607Y-106772776D01*
X152140738Y-106730575D01*
X152093302Y-106693514D01*
X152072724Y-106669335D01*
X152046888Y-106646072D01*
X152011660Y-106597584D01*
X151974697Y-106554153D01*
X151957878Y-106523560D01*
X151935588Y-106492880D01*
X151912486Y-106440991D01*
X151886534Y-106393786D01*
X151875277Y-106357419D01*
X151858570Y-106319896D01*
X151847414Y-106267409D01*
X151832418Y-106218966D01*
X151828394Y-106177929D01*
X151819201Y-106134678D01*
X151819201Y-106084169D01*
X151814560Y-106036837D01*
X151819201Y-105992682D01*
X151819201Y-105945322D01*
X151829048Y-105898995D01*
X151833689Y-105854840D01*
X151848068Y-105809511D01*
X151858570Y-105760104D01*
X151876556Y-105719708D01*
X151889022Y-105680409D01*
X151913762Y-105636142D01*
X151935588Y-105587120D01*
X151959730Y-105553891D01*
X151978304Y-105520657D01*
X152013505Y-105479876D01*
X152046888Y-105433928D01*
X152075066Y-105408556D01*
X152097880Y-105382126D01*
X152143071Y-105347325D01*
X152187607Y-105307224D01*
X152217715Y-105289841D01*
X152242873Y-105270467D01*
X152296985Y-105244075D01*
X152351594Y-105212546D01*
X152381651Y-105202780D01*
X152407351Y-105190245D01*
X152468736Y-105174485D01*
X152531682Y-105154032D01*
X152559978Y-105151058D01*
X152584601Y-105144736D01*
X152651049Y-105141486D01*
X152720000Y-105134239D01*
X152745158Y-105136883D01*
G37*
G36*
X155285158Y-105136883D02*
G01*
X155307386Y-105135796D01*
X155376258Y-105146458D01*
X155448318Y-105154032D01*
X155469375Y-105160874D01*
X155488238Y-105163794D01*
X155556542Y-105189196D01*
X155628406Y-105212546D01*
X155644838Y-105222033D01*
X155659756Y-105227581D01*
X155724253Y-105267883D01*
X155792393Y-105307224D01*
X155804145Y-105317805D01*
X155814956Y-105324561D01*
X155872379Y-105379244D01*
X155933112Y-105433928D01*
X155940541Y-105444153D01*
X155947478Y-105450759D01*
X155994609Y-105518572D01*
X156044412Y-105587120D01*
X156048263Y-105595771D01*
X156051921Y-105601033D01*
X156085794Y-105680064D01*
X156121430Y-105760104D01*
X156122740Y-105766266D01*
X156124011Y-105769232D01*
X156142074Y-105857229D01*
X156160799Y-105945322D01*
X156160799Y-106134678D01*
X156160130Y-106137825D01*
X156160130Y-106137878D01*
X156122102Y-106316790D01*
X156122079Y-106316843D01*
X156121430Y-106319896D01*
X156084851Y-106402054D01*
X156048837Y-106484485D01*
X156046974Y-106487126D01*
X156044412Y-106492880D01*
X155992904Y-106563776D01*
X155943348Y-106634025D01*
X155938679Y-106638409D01*
X155933112Y-106646072D01*
X155870134Y-106702778D01*
X155809945Y-106759299D01*
X155801786Y-106764318D01*
X155792393Y-106772776D01*
X155721627Y-106813633D01*
X155654077Y-106855190D01*
X155642093Y-106859552D01*
X155628406Y-106867454D01*
X155553623Y-106891753D01*
X155482113Y-106917780D01*
X155466358Y-106920107D01*
X155448318Y-106925968D01*
X155373199Y-106933863D01*
X155301074Y-106944514D01*
X155282007Y-106943448D01*
X155260000Y-106945761D01*
X155187976Y-106938191D01*
X155118361Y-106934299D01*
X155096837Y-106928612D01*
X155071682Y-106925968D01*
X155005744Y-106904543D01*
X154941428Y-106887550D01*
X154918662Y-106876249D01*
X154891594Y-106867454D01*
X154834250Y-106834347D01*
X154777507Y-106806179D01*
X154754984Y-106788582D01*
X154727607Y-106772776D01*
X154680738Y-106730575D01*
X154633302Y-106693514D01*
X154612724Y-106669335D01*
X154586888Y-106646072D01*
X154551660Y-106597584D01*
X154514697Y-106554153D01*
X154497878Y-106523560D01*
X154475588Y-106492880D01*
X154452486Y-106440991D01*
X154426534Y-106393786D01*
X154415277Y-106357419D01*
X154398570Y-106319896D01*
X154387414Y-106267409D01*
X154372418Y-106218966D01*
X154368394Y-106177929D01*
X154359201Y-106134678D01*
X154359201Y-106084169D01*
X154354560Y-106036837D01*
X154359201Y-105992682D01*
X154359201Y-105945322D01*
X154369048Y-105898995D01*
X154373689Y-105854840D01*
X154388068Y-105809511D01*
X154398570Y-105760104D01*
X154416556Y-105719708D01*
X154429022Y-105680409D01*
X154453762Y-105636142D01*
X154475588Y-105587120D01*
X154499730Y-105553891D01*
X154518304Y-105520657D01*
X154553505Y-105479876D01*
X154586888Y-105433928D01*
X154615066Y-105408556D01*
X154637880Y-105382126D01*
X154683071Y-105347325D01*
X154727607Y-105307224D01*
X154757715Y-105289841D01*
X154782873Y-105270467D01*
X154836985Y-105244075D01*
X154891594Y-105212546D01*
X154921651Y-105202780D01*
X154947351Y-105190245D01*
X155008736Y-105174485D01*
X155071682Y-105154032D01*
X155099978Y-105151058D01*
X155124601Y-105144736D01*
X155191049Y-105141486D01*
X155260000Y-105134239D01*
X155285158Y-105136883D01*
G37*
G36*
X157825158Y-105136883D02*
G01*
X157847386Y-105135796D01*
X157916258Y-105146458D01*
X157988318Y-105154032D01*
X158009375Y-105160874D01*
X158028238Y-105163794D01*
X158096542Y-105189196D01*
X158168406Y-105212546D01*
X158184838Y-105222033D01*
X158199756Y-105227581D01*
X158264253Y-105267883D01*
X158332393Y-105307224D01*
X158344145Y-105317805D01*
X158354956Y-105324561D01*
X158412379Y-105379244D01*
X158473112Y-105433928D01*
X158480541Y-105444153D01*
X158487478Y-105450759D01*
X158534609Y-105518572D01*
X158584412Y-105587120D01*
X158588263Y-105595771D01*
X158591921Y-105601033D01*
X158625794Y-105680064D01*
X158661430Y-105760104D01*
X158662740Y-105766266D01*
X158664011Y-105769232D01*
X158682074Y-105857229D01*
X158700799Y-105945322D01*
X158700799Y-106134678D01*
X158700130Y-106137825D01*
X158700130Y-106137878D01*
X158662102Y-106316790D01*
X158662079Y-106316843D01*
X158661430Y-106319896D01*
X158624851Y-106402054D01*
X158588837Y-106484485D01*
X158586974Y-106487126D01*
X158584412Y-106492880D01*
X158532904Y-106563776D01*
X158483348Y-106634025D01*
X158478679Y-106638409D01*
X158473112Y-106646072D01*
X158410134Y-106702778D01*
X158349945Y-106759299D01*
X158341786Y-106764318D01*
X158332393Y-106772776D01*
X158261627Y-106813633D01*
X158194077Y-106855190D01*
X158182093Y-106859552D01*
X158168406Y-106867454D01*
X158093623Y-106891753D01*
X158022113Y-106917780D01*
X158006358Y-106920107D01*
X157988318Y-106925968D01*
X157913199Y-106933863D01*
X157841074Y-106944514D01*
X157822007Y-106943448D01*
X157800000Y-106945761D01*
X157727976Y-106938191D01*
X157658361Y-106934299D01*
X157636837Y-106928612D01*
X157611682Y-106925968D01*
X157545744Y-106904543D01*
X157481428Y-106887550D01*
X157458662Y-106876249D01*
X157431594Y-106867454D01*
X157374250Y-106834347D01*
X157317507Y-106806179D01*
X157294984Y-106788582D01*
X157267607Y-106772776D01*
X157220738Y-106730575D01*
X157173302Y-106693514D01*
X157152724Y-106669335D01*
X157126888Y-106646072D01*
X157091660Y-106597584D01*
X157054697Y-106554153D01*
X157037878Y-106523560D01*
X157015588Y-106492880D01*
X156992486Y-106440991D01*
X156966534Y-106393786D01*
X156955277Y-106357419D01*
X156938570Y-106319896D01*
X156927414Y-106267409D01*
X156912418Y-106218966D01*
X156908394Y-106177929D01*
X156899201Y-106134678D01*
X156899201Y-106084169D01*
X156894560Y-106036837D01*
X156899201Y-105992682D01*
X156899201Y-105945322D01*
X156909048Y-105898995D01*
X156913689Y-105854840D01*
X156928068Y-105809511D01*
X156938570Y-105760104D01*
X156956556Y-105719708D01*
X156969022Y-105680409D01*
X156993762Y-105636142D01*
X157015588Y-105587120D01*
X157039730Y-105553891D01*
X157058304Y-105520657D01*
X157093505Y-105479876D01*
X157126888Y-105433928D01*
X157155066Y-105408556D01*
X157177880Y-105382126D01*
X157223071Y-105347325D01*
X157267607Y-105307224D01*
X157297715Y-105289841D01*
X157322873Y-105270467D01*
X157376985Y-105244075D01*
X157431594Y-105212546D01*
X157461651Y-105202780D01*
X157487351Y-105190245D01*
X157548736Y-105174485D01*
X157611682Y-105154032D01*
X157639978Y-105151058D01*
X157664601Y-105144736D01*
X157731049Y-105141486D01*
X157800000Y-105134239D01*
X157825158Y-105136883D01*
G37*
G36*
X122493715Y-105175523D02*
G01*
X122667577Y-105224066D01*
X122826959Y-105308810D01*
X122964421Y-105425800D01*
X123073559Y-105569583D01*
X123149274Y-105733446D01*
X123188017Y-105909657D01*
X123188017Y-105909663D01*
X123188035Y-105909745D01*
X123187385Y-106096053D01*
X123187365Y-106096141D01*
X123147393Y-106272077D01*
X123070538Y-106435405D01*
X122960397Y-106578425D01*
X122822121Y-106694453D01*
X122662151Y-106778083D01*
X122487960Y-106825410D01*
X122307662Y-106834228D01*
X122129680Y-106804124D01*
X121962312Y-106736503D01*
X121813375Y-106634523D01*
X121689808Y-106502938D01*
X121597376Y-106347882D01*
X121540400Y-106176603D01*
X121521531Y-105997083D01*
X121541652Y-105817700D01*
X121599825Y-105646818D01*
X121693333Y-105492416D01*
X121817815Y-105361699D01*
X121817817Y-105361697D01*
X121967467Y-105260757D01*
X121967466Y-105260757D01*
X121967468Y-105260756D01*
X122135303Y-105194306D01*
X122313487Y-105165446D01*
X122493715Y-105175523D01*
G37*
G36*
X147893715Y-105175523D02*
G01*
X148067577Y-105224066D01*
X148226959Y-105308810D01*
X148364421Y-105425800D01*
X148473559Y-105569583D01*
X148549274Y-105733446D01*
X148588017Y-105909657D01*
X148588017Y-105909663D01*
X148588035Y-105909745D01*
X148587385Y-106096053D01*
X148587365Y-106096141D01*
X148547393Y-106272077D01*
X148470538Y-106435405D01*
X148360397Y-106578425D01*
X148222121Y-106694453D01*
X148062151Y-106778083D01*
X147887960Y-106825410D01*
X147707662Y-106834228D01*
X147529680Y-106804124D01*
X147362312Y-106736503D01*
X147213375Y-106634523D01*
X147089808Y-106502938D01*
X146997376Y-106347882D01*
X146940400Y-106176603D01*
X146921531Y-105997083D01*
X146941652Y-105817700D01*
X146999825Y-105646818D01*
X147093333Y-105492416D01*
X147217815Y-105361699D01*
X147217817Y-105361697D01*
X147367467Y-105260757D01*
X147367466Y-105260757D01*
X147367468Y-105260756D01*
X147535303Y-105194306D01*
X147713487Y-105165446D01*
X147893715Y-105175523D01*
G37*
G36*
X111045813Y-102624873D02*
G01*
X111118675Y-102628437D01*
X111148205Y-102635636D01*
X111175677Y-102638523D01*
X111248318Y-102660040D01*
X111322752Y-102678185D01*
X111346903Y-102689242D01*
X111369656Y-102695982D01*
X111440807Y-102732235D01*
X111513739Y-102765626D01*
X111532238Y-102778821D01*
X111549923Y-102787832D01*
X111616610Y-102839003D01*
X111684746Y-102887604D01*
X111697768Y-102901278D01*
X111710427Y-102910992D01*
X111769589Y-102976698D01*
X111829602Y-103039718D01*
X111837725Y-103052370D01*
X111845801Y-103061340D01*
X111894477Y-103140771D01*
X111943081Y-103216480D01*
X111947233Y-103226860D01*
X111951510Y-103233840D01*
X111986911Y-103326063D01*
X112021088Y-103411511D01*
X112022474Y-103418706D01*
X112024014Y-103422719D01*
X112043688Y-103528871D01*
X112060808Y-103617774D01*
X112060243Y-103833589D01*
X112054423Y-103862982D01*
X112053923Y-103882083D01*
X112035197Y-103960082D01*
X112019444Y-104039641D01*
X112011254Y-104059810D01*
X112006849Y-104078159D01*
X111972234Y-104155906D01*
X111940417Y-104234261D01*
X111930655Y-104249294D01*
X111924562Y-104262978D01*
X111873857Y-104336755D01*
X111826014Y-104410426D01*
X111816252Y-104420570D01*
X111809967Y-104429715D01*
X111743201Y-104496481D01*
X111680363Y-104561779D01*
X111672012Y-104567670D01*
X111666915Y-104572767D01*
X111584160Y-104629643D01*
X111508720Y-104682860D01*
X111502914Y-104685481D01*
X111500178Y-104687362D01*
X111397581Y-104733041D01*
X111317277Y-104769300D01*
X111256943Y-104783674D01*
X111118633Y-104816879D01*
X111117258Y-104816951D01*
X111112943Y-104817979D01*
X111021230Y-104821984D01*
X110916597Y-104827467D01*
X110911379Y-104826780D01*
X110903090Y-104827142D01*
X110812355Y-104813743D01*
X110716012Y-104801059D01*
X110707306Y-104798230D01*
X110695291Y-104796456D01*
X110611035Y-104766950D01*
X110523603Y-104738542D01*
X110512139Y-104732317D01*
X110497043Y-104727031D01*
X110422551Y-104683676D01*
X110345807Y-104642007D01*
X110332645Y-104631349D01*
X110315500Y-104621370D01*
X110253084Y-104566921D01*
X110188579Y-104514686D01*
X110175058Y-104498855D01*
X110157212Y-104483287D01*
X110108381Y-104420786D01*
X110057185Y-104360843D01*
X110044832Y-104339446D01*
X110027891Y-104317763D01*
X109993402Y-104250367D01*
X109956031Y-104185637D01*
X109946488Y-104158689D01*
X109932202Y-104130772D01*
X109912102Y-104061589D01*
X109888496Y-103994928D01*
X109883415Y-103962846D01*
X109873599Y-103929060D01*
X109867287Y-103861019D01*
X109856848Y-103795107D01*
X109857800Y-103758747D01*
X109854197Y-103719905D01*
X109860501Y-103655613D01*
X109862144Y-103592856D01*
X109870516Y-103553471D01*
X109874694Y-103510855D01*
X109891973Y-103452522D01*
X109904206Y-103394970D01*
X109921106Y-103354170D01*
X109934352Y-103309452D01*
X109960617Y-103258781D01*
X109981629Y-103208055D01*
X110007807Y-103167744D01*
X110031019Y-103122964D01*
X110064040Y-103081152D01*
X110091817Y-103038379D01*
X110127597Y-103000675D01*
X110161205Y-102958120D01*
X110198668Y-102925783D01*
X110231079Y-102891629D01*
X110276290Y-102858781D01*
X110320214Y-102820867D01*
X110359822Y-102798092D01*
X110394758Y-102772709D01*
X110448751Y-102746955D01*
X110502308Y-102716159D01*
X110541892Y-102702529D01*
X110577363Y-102685610D01*
X110638959Y-102669106D01*
X110700916Y-102647772D01*
X110738590Y-102642410D01*
X110772781Y-102633249D01*
X110840304Y-102627935D01*
X110908873Y-102618176D01*
X110943054Y-102619848D01*
X110974471Y-102617375D01*
X111045813Y-102624873D01*
G37*
G36*
X114569822Y-102624948D02*
G01*
X114586625Y-102636175D01*
X114597852Y-102652978D01*
X114602785Y-102677775D01*
X114602785Y-104767825D01*
X114597852Y-104792622D01*
X114586625Y-104809425D01*
X114569822Y-104820652D01*
X114545025Y-104825585D01*
X112454975Y-104825585D01*
X112430178Y-104820652D01*
X112413375Y-104809425D01*
X112402148Y-104792622D01*
X112397215Y-104767825D01*
X112397215Y-102677775D01*
X112402148Y-102652978D01*
X112413375Y-102636175D01*
X112430178Y-102624948D01*
X112454975Y-102620015D01*
X114545025Y-102620015D01*
X114569822Y-102624948D01*
G37*
G36*
X167985158Y-102596883D02*
G01*
X168007386Y-102595796D01*
X168076258Y-102606458D01*
X168148318Y-102614032D01*
X168169375Y-102620874D01*
X168188238Y-102623794D01*
X168256542Y-102649196D01*
X168328406Y-102672546D01*
X168344838Y-102682033D01*
X168359756Y-102687581D01*
X168424253Y-102727883D01*
X168492393Y-102767224D01*
X168504145Y-102777805D01*
X168514956Y-102784561D01*
X168572379Y-102839244D01*
X168633112Y-102893928D01*
X168640541Y-102904153D01*
X168647478Y-102910759D01*
X168694609Y-102978572D01*
X168744412Y-103047120D01*
X168748263Y-103055771D01*
X168751921Y-103061033D01*
X168785794Y-103140064D01*
X168821430Y-103220104D01*
X168822740Y-103226266D01*
X168824011Y-103229232D01*
X168842074Y-103317229D01*
X168860799Y-103405322D01*
X168860799Y-103594678D01*
X168860130Y-103597825D01*
X168860130Y-103597878D01*
X168822102Y-103776790D01*
X168822079Y-103776843D01*
X168821430Y-103779896D01*
X168784851Y-103862054D01*
X168748837Y-103944485D01*
X168746974Y-103947126D01*
X168744412Y-103952880D01*
X168692904Y-104023776D01*
X168643348Y-104094025D01*
X168638679Y-104098409D01*
X168633112Y-104106072D01*
X168570134Y-104162778D01*
X168509945Y-104219299D01*
X168501786Y-104224318D01*
X168492393Y-104232776D01*
X168421627Y-104273633D01*
X168354077Y-104315190D01*
X168342093Y-104319552D01*
X168328406Y-104327454D01*
X168253623Y-104351753D01*
X168182113Y-104377780D01*
X168166358Y-104380107D01*
X168148318Y-104385968D01*
X168073199Y-104393863D01*
X168001074Y-104404514D01*
X167982007Y-104403448D01*
X167960000Y-104405761D01*
X167887976Y-104398191D01*
X167818361Y-104394299D01*
X167796837Y-104388612D01*
X167771682Y-104385968D01*
X167705744Y-104364543D01*
X167641428Y-104347550D01*
X167618662Y-104336249D01*
X167591594Y-104327454D01*
X167534250Y-104294347D01*
X167477507Y-104266179D01*
X167454984Y-104248582D01*
X167427607Y-104232776D01*
X167380738Y-104190575D01*
X167333302Y-104153514D01*
X167312724Y-104129335D01*
X167286888Y-104106072D01*
X167251660Y-104057584D01*
X167214697Y-104014153D01*
X167197878Y-103983560D01*
X167175588Y-103952880D01*
X167152486Y-103900991D01*
X167126534Y-103853786D01*
X167115277Y-103817419D01*
X167098570Y-103779896D01*
X167087414Y-103727409D01*
X167072418Y-103678966D01*
X167068394Y-103637929D01*
X167059201Y-103594678D01*
X167059201Y-103544169D01*
X167054560Y-103496837D01*
X167059201Y-103452682D01*
X167059201Y-103405322D01*
X167069048Y-103358995D01*
X167073689Y-103314840D01*
X167088068Y-103269511D01*
X167098570Y-103220104D01*
X167116556Y-103179708D01*
X167129022Y-103140409D01*
X167153762Y-103096142D01*
X167175588Y-103047120D01*
X167199730Y-103013891D01*
X167218304Y-102980657D01*
X167253505Y-102939876D01*
X167286888Y-102893928D01*
X167315066Y-102868556D01*
X167337880Y-102842126D01*
X167383071Y-102807325D01*
X167427607Y-102767224D01*
X167457715Y-102749841D01*
X167482873Y-102730467D01*
X167536985Y-102704075D01*
X167591594Y-102672546D01*
X167621651Y-102662780D01*
X167647351Y-102650245D01*
X167708736Y-102634485D01*
X167771682Y-102614032D01*
X167799978Y-102611058D01*
X167824601Y-102604736D01*
X167891049Y-102601486D01*
X167960000Y-102594239D01*
X167985158Y-102596883D01*
G37*
G36*
X165445158Y-102596883D02*
G01*
X165467386Y-102595796D01*
X165536258Y-102606458D01*
X165608318Y-102614032D01*
X165629375Y-102620874D01*
X165648238Y-102623794D01*
X165716542Y-102649196D01*
X165788406Y-102672546D01*
X165804838Y-102682033D01*
X165819756Y-102687581D01*
X165884253Y-102727883D01*
X165952393Y-102767224D01*
X165964145Y-102777805D01*
X165974956Y-102784561D01*
X166032379Y-102839244D01*
X166093112Y-102893928D01*
X166100541Y-102904153D01*
X166107478Y-102910759D01*
X166154609Y-102978572D01*
X166204412Y-103047120D01*
X166208263Y-103055771D01*
X166211921Y-103061033D01*
X166245794Y-103140064D01*
X166281430Y-103220104D01*
X166282740Y-103226266D01*
X166284011Y-103229232D01*
X166302074Y-103317229D01*
X166320799Y-103405322D01*
X166320799Y-103594678D01*
X166320130Y-103597825D01*
X166320130Y-103597878D01*
X166282102Y-103776790D01*
X166282079Y-103776843D01*
X166281430Y-103779896D01*
X166244851Y-103862054D01*
X166208837Y-103944485D01*
X166206974Y-103947126D01*
X166204412Y-103952880D01*
X166152904Y-104023776D01*
X166103348Y-104094025D01*
X166098679Y-104098409D01*
X166093112Y-104106072D01*
X166030134Y-104162778D01*
X165969945Y-104219299D01*
X165961786Y-104224318D01*
X165952393Y-104232776D01*
X165881627Y-104273633D01*
X165814077Y-104315190D01*
X165802093Y-104319552D01*
X165788406Y-104327454D01*
X165713623Y-104351753D01*
X165642113Y-104377780D01*
X165626358Y-104380107D01*
X165608318Y-104385968D01*
X165533199Y-104393863D01*
X165461074Y-104404514D01*
X165442007Y-104403448D01*
X165420000Y-104405761D01*
X165347976Y-104398191D01*
X165278361Y-104394299D01*
X165256837Y-104388612D01*
X165231682Y-104385968D01*
X165165744Y-104364543D01*
X165101428Y-104347550D01*
X165078662Y-104336249D01*
X165051594Y-104327454D01*
X164994250Y-104294347D01*
X164937507Y-104266179D01*
X164914984Y-104248582D01*
X164887607Y-104232776D01*
X164840738Y-104190575D01*
X164793302Y-104153514D01*
X164772724Y-104129335D01*
X164746888Y-104106072D01*
X164711660Y-104057584D01*
X164674697Y-104014153D01*
X164657878Y-103983560D01*
X164635588Y-103952880D01*
X164612486Y-103900991D01*
X164586534Y-103853786D01*
X164575277Y-103817419D01*
X164558570Y-103779896D01*
X164547414Y-103727409D01*
X164532418Y-103678966D01*
X164528394Y-103637929D01*
X164519201Y-103594678D01*
X164519201Y-103544169D01*
X164514560Y-103496837D01*
X164519201Y-103452682D01*
X164519201Y-103405322D01*
X164529048Y-103358995D01*
X164533689Y-103314840D01*
X164548068Y-103269511D01*
X164558570Y-103220104D01*
X164576556Y-103179708D01*
X164589022Y-103140409D01*
X164613762Y-103096142D01*
X164635588Y-103047120D01*
X164659730Y-103013891D01*
X164678304Y-102980657D01*
X164713505Y-102939876D01*
X164746888Y-102893928D01*
X164775066Y-102868556D01*
X164797880Y-102842126D01*
X164843071Y-102807325D01*
X164887607Y-102767224D01*
X164917715Y-102749841D01*
X164942873Y-102730467D01*
X164996985Y-102704075D01*
X165051594Y-102672546D01*
X165081651Y-102662780D01*
X165107351Y-102650245D01*
X165168736Y-102634485D01*
X165231682Y-102614032D01*
X165259978Y-102611058D01*
X165284601Y-102604736D01*
X165351049Y-102601486D01*
X165420000Y-102594239D01*
X165445158Y-102596883D01*
G37*
G36*
X162905158Y-102596883D02*
G01*
X162927386Y-102595796D01*
X162996258Y-102606458D01*
X163068318Y-102614032D01*
X163089375Y-102620874D01*
X163108238Y-102623794D01*
X163176542Y-102649196D01*
X163248406Y-102672546D01*
X163264838Y-102682033D01*
X163279756Y-102687581D01*
X163344253Y-102727883D01*
X163412393Y-102767224D01*
X163424145Y-102777805D01*
X163434956Y-102784561D01*
X163492379Y-102839244D01*
X163553112Y-102893928D01*
X163560541Y-102904153D01*
X163567478Y-102910759D01*
X163614609Y-102978572D01*
X163664412Y-103047120D01*
X163668263Y-103055771D01*
X163671921Y-103061033D01*
X163705794Y-103140064D01*
X163741430Y-103220104D01*
X163742740Y-103226266D01*
X163744011Y-103229232D01*
X163762074Y-103317229D01*
X163780799Y-103405322D01*
X163780799Y-103594678D01*
X163780130Y-103597825D01*
X163780130Y-103597878D01*
X163742102Y-103776790D01*
X163742079Y-103776843D01*
X163741430Y-103779896D01*
X163704851Y-103862054D01*
X163668837Y-103944485D01*
X163666974Y-103947126D01*
X163664412Y-103952880D01*
X163612904Y-104023776D01*
X163563348Y-104094025D01*
X163558679Y-104098409D01*
X163553112Y-104106072D01*
X163490134Y-104162778D01*
X163429945Y-104219299D01*
X163421786Y-104224318D01*
X163412393Y-104232776D01*
X163341627Y-104273633D01*
X163274077Y-104315190D01*
X163262093Y-104319552D01*
X163248406Y-104327454D01*
X163173623Y-104351753D01*
X163102113Y-104377780D01*
X163086358Y-104380107D01*
X163068318Y-104385968D01*
X162993199Y-104393863D01*
X162921074Y-104404514D01*
X162902007Y-104403448D01*
X162880000Y-104405761D01*
X162807976Y-104398191D01*
X162738361Y-104394299D01*
X162716837Y-104388612D01*
X162691682Y-104385968D01*
X162625744Y-104364543D01*
X162561428Y-104347550D01*
X162538662Y-104336249D01*
X162511594Y-104327454D01*
X162454250Y-104294347D01*
X162397507Y-104266179D01*
X162374984Y-104248582D01*
X162347607Y-104232776D01*
X162300738Y-104190575D01*
X162253302Y-104153514D01*
X162232724Y-104129335D01*
X162206888Y-104106072D01*
X162171660Y-104057584D01*
X162134697Y-104014153D01*
X162117878Y-103983560D01*
X162095588Y-103952880D01*
X162072486Y-103900991D01*
X162046534Y-103853786D01*
X162035277Y-103817419D01*
X162018570Y-103779896D01*
X162007414Y-103727409D01*
X161992418Y-103678966D01*
X161988394Y-103637929D01*
X161979201Y-103594678D01*
X161979201Y-103544169D01*
X161974560Y-103496837D01*
X161979201Y-103452682D01*
X161979201Y-103405322D01*
X161989048Y-103358995D01*
X161993689Y-103314840D01*
X162008068Y-103269511D01*
X162018570Y-103220104D01*
X162036556Y-103179708D01*
X162049022Y-103140409D01*
X162073762Y-103096142D01*
X162095588Y-103047120D01*
X162119730Y-103013891D01*
X162138304Y-102980657D01*
X162173505Y-102939876D01*
X162206888Y-102893928D01*
X162235066Y-102868556D01*
X162257880Y-102842126D01*
X162303071Y-102807325D01*
X162347607Y-102767224D01*
X162377715Y-102749841D01*
X162402873Y-102730467D01*
X162456985Y-102704075D01*
X162511594Y-102672546D01*
X162541651Y-102662780D01*
X162567351Y-102650245D01*
X162628736Y-102634485D01*
X162691682Y-102614032D01*
X162719978Y-102611058D01*
X162744601Y-102604736D01*
X162811049Y-102601486D01*
X162880000Y-102594239D01*
X162905158Y-102596883D01*
G37*
G36*
X152745158Y-102596883D02*
G01*
X152767386Y-102595796D01*
X152836258Y-102606458D01*
X152908318Y-102614032D01*
X152929375Y-102620874D01*
X152948238Y-102623794D01*
X153016542Y-102649196D01*
X153088406Y-102672546D01*
X153104838Y-102682033D01*
X153119756Y-102687581D01*
X153184253Y-102727883D01*
X153252393Y-102767224D01*
X153264145Y-102777805D01*
X153274956Y-102784561D01*
X153332379Y-102839244D01*
X153393112Y-102893928D01*
X153400541Y-102904153D01*
X153407478Y-102910759D01*
X153454609Y-102978572D01*
X153504412Y-103047120D01*
X153508263Y-103055771D01*
X153511921Y-103061033D01*
X153545794Y-103140064D01*
X153581430Y-103220104D01*
X153582740Y-103226266D01*
X153584011Y-103229232D01*
X153602074Y-103317229D01*
X153620799Y-103405322D01*
X153620799Y-103594678D01*
X153620130Y-103597825D01*
X153620130Y-103597878D01*
X153582102Y-103776790D01*
X153582079Y-103776843D01*
X153581430Y-103779896D01*
X153544851Y-103862054D01*
X153508837Y-103944485D01*
X153506974Y-103947126D01*
X153504412Y-103952880D01*
X153452904Y-104023776D01*
X153403348Y-104094025D01*
X153398679Y-104098409D01*
X153393112Y-104106072D01*
X153330134Y-104162778D01*
X153269945Y-104219299D01*
X153261786Y-104224318D01*
X153252393Y-104232776D01*
X153181627Y-104273633D01*
X153114077Y-104315190D01*
X153102093Y-104319552D01*
X153088406Y-104327454D01*
X153013623Y-104351753D01*
X152942113Y-104377780D01*
X152926358Y-104380107D01*
X152908318Y-104385968D01*
X152833199Y-104393863D01*
X152761074Y-104404514D01*
X152742007Y-104403448D01*
X152720000Y-104405761D01*
X152647976Y-104398191D01*
X152578361Y-104394299D01*
X152556837Y-104388612D01*
X152531682Y-104385968D01*
X152465744Y-104364543D01*
X152401428Y-104347550D01*
X152378662Y-104336249D01*
X152351594Y-104327454D01*
X152294250Y-104294347D01*
X152237507Y-104266179D01*
X152214984Y-104248582D01*
X152187607Y-104232776D01*
X152140738Y-104190575D01*
X152093302Y-104153514D01*
X152072724Y-104129335D01*
X152046888Y-104106072D01*
X152011660Y-104057584D01*
X151974697Y-104014153D01*
X151957878Y-103983560D01*
X151935588Y-103952880D01*
X151912486Y-103900991D01*
X151886534Y-103853786D01*
X151875277Y-103817419D01*
X151858570Y-103779896D01*
X151847414Y-103727409D01*
X151832418Y-103678966D01*
X151828394Y-103637929D01*
X151819201Y-103594678D01*
X151819201Y-103544169D01*
X151814560Y-103496837D01*
X151819201Y-103452682D01*
X151819201Y-103405322D01*
X151829048Y-103358995D01*
X151833689Y-103314840D01*
X151848068Y-103269511D01*
X151858570Y-103220104D01*
X151876556Y-103179708D01*
X151889022Y-103140409D01*
X151913762Y-103096142D01*
X151935588Y-103047120D01*
X151959730Y-103013891D01*
X151978304Y-102980657D01*
X152013505Y-102939876D01*
X152046888Y-102893928D01*
X152075066Y-102868556D01*
X152097880Y-102842126D01*
X152143071Y-102807325D01*
X152187607Y-102767224D01*
X152217715Y-102749841D01*
X152242873Y-102730467D01*
X152296985Y-102704075D01*
X152351594Y-102672546D01*
X152381651Y-102662780D01*
X152407351Y-102650245D01*
X152468736Y-102634485D01*
X152531682Y-102614032D01*
X152559978Y-102611058D01*
X152584601Y-102604736D01*
X152651049Y-102601486D01*
X152720000Y-102594239D01*
X152745158Y-102596883D01*
G37*
G36*
X160365158Y-102596883D02*
G01*
X160387386Y-102595796D01*
X160456258Y-102606458D01*
X160528318Y-102614032D01*
X160549375Y-102620874D01*
X160568238Y-102623794D01*
X160636542Y-102649196D01*
X160708406Y-102672546D01*
X160724838Y-102682033D01*
X160739756Y-102687581D01*
X160804253Y-102727883D01*
X160872393Y-102767224D01*
X160884145Y-102777805D01*
X160894956Y-102784561D01*
X160952379Y-102839244D01*
X161013112Y-102893928D01*
X161020541Y-102904153D01*
X161027478Y-102910759D01*
X161074609Y-102978572D01*
X161124412Y-103047120D01*
X161128263Y-103055771D01*
X161131921Y-103061033D01*
X161165794Y-103140064D01*
X161201430Y-103220104D01*
X161202740Y-103226266D01*
X161204011Y-103229232D01*
X161222074Y-103317229D01*
X161240799Y-103405322D01*
X161240799Y-103594678D01*
X161240130Y-103597825D01*
X161240130Y-103597878D01*
X161202102Y-103776790D01*
X161202079Y-103776843D01*
X161201430Y-103779896D01*
X161164851Y-103862054D01*
X161128837Y-103944485D01*
X161126974Y-103947126D01*
X161124412Y-103952880D01*
X161072904Y-104023776D01*
X161023348Y-104094025D01*
X161018679Y-104098409D01*
X161013112Y-104106072D01*
X160950134Y-104162778D01*
X160889945Y-104219299D01*
X160881786Y-104224318D01*
X160872393Y-104232776D01*
X160801627Y-104273633D01*
X160734077Y-104315190D01*
X160722093Y-104319552D01*
X160708406Y-104327454D01*
X160633623Y-104351753D01*
X160562113Y-104377780D01*
X160546358Y-104380107D01*
X160528318Y-104385968D01*
X160453199Y-104393863D01*
X160381074Y-104404514D01*
X160362007Y-104403448D01*
X160340000Y-104405761D01*
X160267976Y-104398191D01*
X160198361Y-104394299D01*
X160176837Y-104388612D01*
X160151682Y-104385968D01*
X160085744Y-104364543D01*
X160021428Y-104347550D01*
X159998662Y-104336249D01*
X159971594Y-104327454D01*
X159914250Y-104294347D01*
X159857507Y-104266179D01*
X159834984Y-104248582D01*
X159807607Y-104232776D01*
X159760738Y-104190575D01*
X159713302Y-104153514D01*
X159692724Y-104129335D01*
X159666888Y-104106072D01*
X159631660Y-104057584D01*
X159594697Y-104014153D01*
X159577878Y-103983560D01*
X159555588Y-103952880D01*
X159532486Y-103900991D01*
X159506534Y-103853786D01*
X159495277Y-103817419D01*
X159478570Y-103779896D01*
X159467414Y-103727409D01*
X159452418Y-103678966D01*
X159448394Y-103637929D01*
X159439201Y-103594678D01*
X159439201Y-103544169D01*
X159434560Y-103496837D01*
X159439201Y-103452682D01*
X159439201Y-103405322D01*
X159449048Y-103358995D01*
X159453689Y-103314840D01*
X159468068Y-103269511D01*
X159478570Y-103220104D01*
X159496556Y-103179708D01*
X159509022Y-103140409D01*
X159533762Y-103096142D01*
X159555588Y-103047120D01*
X159579730Y-103013891D01*
X159598304Y-102980657D01*
X159633505Y-102939876D01*
X159666888Y-102893928D01*
X159695066Y-102868556D01*
X159717880Y-102842126D01*
X159763071Y-102807325D01*
X159807607Y-102767224D01*
X159837715Y-102749841D01*
X159862873Y-102730467D01*
X159916985Y-102704075D01*
X159971594Y-102672546D01*
X160001651Y-102662780D01*
X160027351Y-102650245D01*
X160088736Y-102634485D01*
X160151682Y-102614032D01*
X160179978Y-102611058D01*
X160204601Y-102604736D01*
X160271049Y-102601486D01*
X160340000Y-102594239D01*
X160365158Y-102596883D01*
G37*
G36*
X157825158Y-102596883D02*
G01*
X157847386Y-102595796D01*
X157916258Y-102606458D01*
X157988318Y-102614032D01*
X158009375Y-102620874D01*
X158028238Y-102623794D01*
X158096542Y-102649196D01*
X158168406Y-102672546D01*
X158184838Y-102682033D01*
X158199756Y-102687581D01*
X158264253Y-102727883D01*
X158332393Y-102767224D01*
X158344145Y-102777805D01*
X158354956Y-102784561D01*
X158412379Y-102839244D01*
X158473112Y-102893928D01*
X158480541Y-102904153D01*
X158487478Y-102910759D01*
X158534609Y-102978572D01*
X158584412Y-103047120D01*
X158588263Y-103055771D01*
X158591921Y-103061033D01*
X158625794Y-103140064D01*
X158661430Y-103220104D01*
X158662740Y-103226266D01*
X158664011Y-103229232D01*
X158682074Y-103317229D01*
X158700799Y-103405322D01*
X158700799Y-103594678D01*
X158700130Y-103597825D01*
X158700130Y-103597878D01*
X158662102Y-103776790D01*
X158662079Y-103776843D01*
X158661430Y-103779896D01*
X158624851Y-103862054D01*
X158588837Y-103944485D01*
X158586974Y-103947126D01*
X158584412Y-103952880D01*
X158532904Y-104023776D01*
X158483348Y-104094025D01*
X158478679Y-104098409D01*
X158473112Y-104106072D01*
X158410134Y-104162778D01*
X158349945Y-104219299D01*
X158341786Y-104224318D01*
X158332393Y-104232776D01*
X158261627Y-104273633D01*
X158194077Y-104315190D01*
X158182093Y-104319552D01*
X158168406Y-104327454D01*
X158093623Y-104351753D01*
X158022113Y-104377780D01*
X158006358Y-104380107D01*
X157988318Y-104385968D01*
X157913199Y-104393863D01*
X157841074Y-104404514D01*
X157822007Y-104403448D01*
X157800000Y-104405761D01*
X157727976Y-104398191D01*
X157658361Y-104394299D01*
X157636837Y-104388612D01*
X157611682Y-104385968D01*
X157545744Y-104364543D01*
X157481428Y-104347550D01*
X157458662Y-104336249D01*
X157431594Y-104327454D01*
X157374250Y-104294347D01*
X157317507Y-104266179D01*
X157294984Y-104248582D01*
X157267607Y-104232776D01*
X157220738Y-104190575D01*
X157173302Y-104153514D01*
X157152724Y-104129335D01*
X157126888Y-104106072D01*
X157091660Y-104057584D01*
X157054697Y-104014153D01*
X157037878Y-103983560D01*
X157015588Y-103952880D01*
X156992486Y-103900991D01*
X156966534Y-103853786D01*
X156955277Y-103817419D01*
X156938570Y-103779896D01*
X156927414Y-103727409D01*
X156912418Y-103678966D01*
X156908394Y-103637929D01*
X156899201Y-103594678D01*
X156899201Y-103544169D01*
X156894560Y-103496837D01*
X156899201Y-103452682D01*
X156899201Y-103405322D01*
X156909048Y-103358995D01*
X156913689Y-103314840D01*
X156928068Y-103269511D01*
X156938570Y-103220104D01*
X156956556Y-103179708D01*
X156969022Y-103140409D01*
X156993762Y-103096142D01*
X157015588Y-103047120D01*
X157039730Y-103013891D01*
X157058304Y-102980657D01*
X157093505Y-102939876D01*
X157126888Y-102893928D01*
X157155066Y-102868556D01*
X157177880Y-102842126D01*
X157223071Y-102807325D01*
X157267607Y-102767224D01*
X157297715Y-102749841D01*
X157322873Y-102730467D01*
X157376985Y-102704075D01*
X157431594Y-102672546D01*
X157461651Y-102662780D01*
X157487351Y-102650245D01*
X157548736Y-102634485D01*
X157611682Y-102614032D01*
X157639978Y-102611058D01*
X157664601Y-102604736D01*
X157731049Y-102601486D01*
X157800000Y-102594239D01*
X157825158Y-102596883D01*
G37*
G36*
X155285158Y-102596883D02*
G01*
X155307386Y-102595796D01*
X155376258Y-102606458D01*
X155448318Y-102614032D01*
X155469375Y-102620874D01*
X155488238Y-102623794D01*
X155556542Y-102649196D01*
X155628406Y-102672546D01*
X155644838Y-102682033D01*
X155659756Y-102687581D01*
X155724253Y-102727883D01*
X155792393Y-102767224D01*
X155804145Y-102777805D01*
X155814956Y-102784561D01*
X155872379Y-102839244D01*
X155933112Y-102893928D01*
X155940541Y-102904153D01*
X155947478Y-102910759D01*
X155994609Y-102978572D01*
X156044412Y-103047120D01*
X156048263Y-103055771D01*
X156051921Y-103061033D01*
X156085794Y-103140064D01*
X156121430Y-103220104D01*
X156122740Y-103226266D01*
X156124011Y-103229232D01*
X156142074Y-103317229D01*
X156160799Y-103405322D01*
X156160799Y-103594678D01*
X156160130Y-103597825D01*
X156160130Y-103597878D01*
X156122102Y-103776790D01*
X156122079Y-103776843D01*
X156121430Y-103779896D01*
X156084851Y-103862054D01*
X156048837Y-103944485D01*
X156046974Y-103947126D01*
X156044412Y-103952880D01*
X155992904Y-104023776D01*
X155943348Y-104094025D01*
X155938679Y-104098409D01*
X155933112Y-104106072D01*
X155870134Y-104162778D01*
X155809945Y-104219299D01*
X155801786Y-104224318D01*
X155792393Y-104232776D01*
X155721627Y-104273633D01*
X155654077Y-104315190D01*
X155642093Y-104319552D01*
X155628406Y-104327454D01*
X155553623Y-104351753D01*
X155482113Y-104377780D01*
X155466358Y-104380107D01*
X155448318Y-104385968D01*
X155373199Y-104393863D01*
X155301074Y-104404514D01*
X155282007Y-104403448D01*
X155260000Y-104405761D01*
X155187976Y-104398191D01*
X155118361Y-104394299D01*
X155096837Y-104388612D01*
X155071682Y-104385968D01*
X155005744Y-104364543D01*
X154941428Y-104347550D01*
X154918662Y-104336249D01*
X154891594Y-104327454D01*
X154834250Y-104294347D01*
X154777507Y-104266179D01*
X154754984Y-104248582D01*
X154727607Y-104232776D01*
X154680738Y-104190575D01*
X154633302Y-104153514D01*
X154612724Y-104129335D01*
X154586888Y-104106072D01*
X154551660Y-104057584D01*
X154514697Y-104014153D01*
X154497878Y-103983560D01*
X154475588Y-103952880D01*
X154452486Y-103900991D01*
X154426534Y-103853786D01*
X154415277Y-103817419D01*
X154398570Y-103779896D01*
X154387414Y-103727409D01*
X154372418Y-103678966D01*
X154368394Y-103637929D01*
X154359201Y-103594678D01*
X154359201Y-103544169D01*
X154354560Y-103496837D01*
X154359201Y-103452682D01*
X154359201Y-103405322D01*
X154369048Y-103358995D01*
X154373689Y-103314840D01*
X154388068Y-103269511D01*
X154398570Y-103220104D01*
X154416556Y-103179708D01*
X154429022Y-103140409D01*
X154453762Y-103096142D01*
X154475588Y-103047120D01*
X154499730Y-103013891D01*
X154518304Y-102980657D01*
X154553505Y-102939876D01*
X154586888Y-102893928D01*
X154615066Y-102868556D01*
X154637880Y-102842126D01*
X154683071Y-102807325D01*
X154727607Y-102767224D01*
X154757715Y-102749841D01*
X154782873Y-102730467D01*
X154836985Y-102704075D01*
X154891594Y-102672546D01*
X154921651Y-102662780D01*
X154947351Y-102650245D01*
X155008736Y-102634485D01*
X155071682Y-102614032D01*
X155099978Y-102611058D01*
X155124601Y-102604736D01*
X155191049Y-102601486D01*
X155260000Y-102594239D01*
X155285158Y-102596883D01*
G37*
G36*
X171369822Y-102602148D02*
G01*
X171386625Y-102613375D01*
X171397852Y-102630178D01*
X171402785Y-102654975D01*
X171402785Y-104345025D01*
X171397852Y-104369822D01*
X171386625Y-104386625D01*
X171369822Y-104397852D01*
X171345025Y-104402785D01*
X169654975Y-104402785D01*
X169630178Y-104397852D01*
X169613375Y-104386625D01*
X169602148Y-104369822D01*
X169597215Y-104345025D01*
X169597215Y-102654975D01*
X169602148Y-102630178D01*
X169613375Y-102613375D01*
X169630178Y-102602148D01*
X169654975Y-102597215D01*
X171345025Y-102597215D01*
X171369822Y-102602148D01*
G37*
G36*
X147893715Y-102635523D02*
G01*
X148067577Y-102684066D01*
X148226959Y-102768810D01*
X148364421Y-102885800D01*
X148473559Y-103029583D01*
X148549274Y-103193446D01*
X148588017Y-103369657D01*
X148588017Y-103369663D01*
X148588035Y-103369745D01*
X148587385Y-103556053D01*
X148587365Y-103556141D01*
X148547393Y-103732077D01*
X148470538Y-103895405D01*
X148470536Y-103895407D01*
X148393895Y-103994928D01*
X148360397Y-104038425D01*
X148222121Y-104154453D01*
X148062151Y-104238083D01*
X147887960Y-104285410D01*
X147707662Y-104294228D01*
X147529680Y-104264124D01*
X147362312Y-104196503D01*
X147213375Y-104094523D01*
X147089808Y-103962938D01*
X146997376Y-103807882D01*
X146940400Y-103636603D01*
X146921531Y-103457083D01*
X146941652Y-103277700D01*
X146999825Y-103106818D01*
X147093333Y-102952416D01*
X147217815Y-102821699D01*
X147217817Y-102821697D01*
X147367467Y-102720757D01*
X147367466Y-102720757D01*
X147367468Y-102720756D01*
X147535303Y-102654306D01*
X147713487Y-102625446D01*
X147893715Y-102635523D01*
G37*
G36*
X122493715Y-102635523D02*
G01*
X122667577Y-102684066D01*
X122826959Y-102768810D01*
X122964421Y-102885800D01*
X123073559Y-103029583D01*
X123149274Y-103193446D01*
X123188017Y-103369657D01*
X123188017Y-103369663D01*
X123188035Y-103369745D01*
X123187385Y-103556053D01*
X123187365Y-103556141D01*
X123147393Y-103732077D01*
X123070538Y-103895405D01*
X123070536Y-103895407D01*
X122993895Y-103994928D01*
X122960397Y-104038425D01*
X122822121Y-104154453D01*
X122662151Y-104238083D01*
X122487960Y-104285410D01*
X122307662Y-104294228D01*
X122129680Y-104264124D01*
X121962312Y-104196503D01*
X121813375Y-104094523D01*
X121689808Y-103962938D01*
X121597376Y-103807882D01*
X121540400Y-103636603D01*
X121521531Y-103457083D01*
X121541652Y-103277700D01*
X121599825Y-103106818D01*
X121693333Y-102952416D01*
X121817815Y-102821699D01*
X121817817Y-102821697D01*
X121967467Y-102720757D01*
X121967466Y-102720757D01*
X121967468Y-102720756D01*
X122135303Y-102654306D01*
X122313487Y-102625446D01*
X122493715Y-102635523D01*
G37*
G36*
X122493715Y-100095523D02*
G01*
X122667577Y-100144066D01*
X122826959Y-100228810D01*
X122964421Y-100345800D01*
X123073559Y-100489583D01*
X123149274Y-100653446D01*
X123188017Y-100829657D01*
X123188017Y-100829663D01*
X123188035Y-100829745D01*
X123187385Y-101016053D01*
X123187365Y-101016141D01*
X123147393Y-101192077D01*
X123070538Y-101355405D01*
X122960397Y-101498425D01*
X122822121Y-101614453D01*
X122662151Y-101698083D01*
X122487960Y-101745410D01*
X122307662Y-101754228D01*
X122129680Y-101724124D01*
X121962312Y-101656503D01*
X121813375Y-101554523D01*
X121689808Y-101422938D01*
X121597376Y-101267882D01*
X121540400Y-101096603D01*
X121521531Y-100917083D01*
X121541652Y-100737700D01*
X121599825Y-100566818D01*
X121693333Y-100412416D01*
X121817815Y-100281699D01*
X121817817Y-100281697D01*
X121967467Y-100180757D01*
X121967466Y-100180757D01*
X121967468Y-100180756D01*
X122135303Y-100114306D01*
X122313487Y-100085446D01*
X122493715Y-100095523D01*
G37*
G36*
X147893715Y-100095523D02*
G01*
X148067577Y-100144066D01*
X148226959Y-100228810D01*
X148364421Y-100345800D01*
X148473559Y-100489583D01*
X148549274Y-100653446D01*
X148588017Y-100829657D01*
X148588017Y-100829663D01*
X148588035Y-100829745D01*
X148587385Y-101016053D01*
X148587365Y-101016141D01*
X148547393Y-101192077D01*
X148470538Y-101355405D01*
X148360397Y-101498425D01*
X148222121Y-101614453D01*
X148062151Y-101698083D01*
X147887960Y-101745410D01*
X147707662Y-101754228D01*
X147529680Y-101724124D01*
X147362312Y-101656503D01*
X147213375Y-101554523D01*
X147089808Y-101422938D01*
X146997376Y-101267882D01*
X146940400Y-101096603D01*
X146921531Y-100917083D01*
X146941652Y-100737700D01*
X146999825Y-100566818D01*
X147093333Y-100412416D01*
X147217815Y-100281699D01*
X147217817Y-100281697D01*
X147367467Y-100180757D01*
X147367466Y-100180757D01*
X147367468Y-100180756D01*
X147535303Y-100114306D01*
X147713487Y-100085446D01*
X147893715Y-100095523D01*
G37*
G36*
X122493715Y-97555523D02*
G01*
X122667577Y-97604066D01*
X122826959Y-97688810D01*
X122964421Y-97805800D01*
X123073559Y-97949583D01*
X123149274Y-98113446D01*
X123188017Y-98289657D01*
X123188017Y-98289663D01*
X123188035Y-98289745D01*
X123187385Y-98476053D01*
X123187365Y-98476141D01*
X123147393Y-98652077D01*
X123070538Y-98815405D01*
X122960397Y-98958425D01*
X122822121Y-99074453D01*
X122662151Y-99158083D01*
X122487960Y-99205410D01*
X122307662Y-99214228D01*
X122129680Y-99184124D01*
X121962312Y-99116503D01*
X121813375Y-99014523D01*
X121689808Y-98882938D01*
X121597376Y-98727882D01*
X121540400Y-98556603D01*
X121521531Y-98377083D01*
X121541652Y-98197700D01*
X121599825Y-98026818D01*
X121693333Y-97872416D01*
X121817815Y-97741699D01*
X121817817Y-97741697D01*
X121967467Y-97640757D01*
X121967466Y-97640757D01*
X121967468Y-97640756D01*
X122135303Y-97574306D01*
X122313487Y-97545446D01*
X122493715Y-97555523D01*
G37*
G36*
X147893715Y-97555523D02*
G01*
X148067577Y-97604066D01*
X148226959Y-97688810D01*
X148364421Y-97805800D01*
X148473559Y-97949583D01*
X148549274Y-98113446D01*
X148588017Y-98289657D01*
X148588017Y-98289663D01*
X148588035Y-98289745D01*
X148587385Y-98476053D01*
X148587365Y-98476141D01*
X148547393Y-98652077D01*
X148470538Y-98815405D01*
X148360397Y-98958425D01*
X148222121Y-99074453D01*
X148062151Y-99158083D01*
X147887960Y-99205410D01*
X147707662Y-99214228D01*
X147529680Y-99184124D01*
X147362312Y-99116503D01*
X147213375Y-99014523D01*
X147089808Y-98882938D01*
X146997376Y-98727882D01*
X146940400Y-98556603D01*
X146921531Y-98377083D01*
X146941652Y-98197700D01*
X146999825Y-98026818D01*
X147093333Y-97872416D01*
X147217815Y-97741699D01*
X147217817Y-97741697D01*
X147367467Y-97640757D01*
X147367466Y-97640757D01*
X147367468Y-97640756D01*
X147535303Y-97574306D01*
X147713487Y-97545446D01*
X147893715Y-97555523D01*
G37*
G36*
X122493715Y-95015523D02*
G01*
X122667577Y-95064066D01*
X122826959Y-95148810D01*
X122964421Y-95265800D01*
X123073559Y-95409583D01*
X123149274Y-95573446D01*
X123188017Y-95749657D01*
X123188017Y-95749663D01*
X123188035Y-95749745D01*
X123187385Y-95936053D01*
X123187365Y-95936141D01*
X123147393Y-96112077D01*
X123070538Y-96275405D01*
X122960397Y-96418425D01*
X122822121Y-96534453D01*
X122662151Y-96618083D01*
X122487960Y-96665410D01*
X122307662Y-96674228D01*
X122129680Y-96644124D01*
X121962312Y-96576503D01*
X121813375Y-96474523D01*
X121689808Y-96342938D01*
X121597376Y-96187882D01*
X121540400Y-96016603D01*
X121521531Y-95837083D01*
X121541652Y-95657700D01*
X121599825Y-95486818D01*
X121693333Y-95332416D01*
X121817815Y-95201699D01*
X121817817Y-95201697D01*
X121967467Y-95100757D01*
X121967466Y-95100757D01*
X121967468Y-95100756D01*
X122135303Y-95034306D01*
X122313487Y-95005446D01*
X122493715Y-95015523D01*
G37*
G36*
X147893715Y-95015523D02*
G01*
X148067577Y-95064066D01*
X148226959Y-95148810D01*
X148364421Y-95265800D01*
X148473559Y-95409583D01*
X148549274Y-95573446D01*
X148588017Y-95749657D01*
X148588017Y-95749663D01*
X148588035Y-95749745D01*
X148587385Y-95936053D01*
X148587365Y-95936141D01*
X148547393Y-96112077D01*
X148470538Y-96275405D01*
X148360397Y-96418425D01*
X148222121Y-96534453D01*
X148062151Y-96618083D01*
X147887960Y-96665410D01*
X147707662Y-96674228D01*
X147529680Y-96644124D01*
X147362312Y-96576503D01*
X147213375Y-96474523D01*
X147089808Y-96342938D01*
X146997376Y-96187882D01*
X146940400Y-96016603D01*
X146921531Y-95837083D01*
X146941652Y-95657700D01*
X146999825Y-95486818D01*
X147093333Y-95332416D01*
X147217815Y-95201699D01*
X147217817Y-95201697D01*
X147367467Y-95100757D01*
X147367466Y-95100757D01*
X147367468Y-95100756D01*
X147535303Y-95034306D01*
X147713487Y-95005446D01*
X147893715Y-95015523D01*
G37*
G36*
X122493715Y-92475523D02*
G01*
X122667577Y-92524066D01*
X122826959Y-92608810D01*
X122964421Y-92725800D01*
X123073559Y-92869583D01*
X123149274Y-93033446D01*
X123188017Y-93209657D01*
X123188017Y-93209663D01*
X123188035Y-93209745D01*
X123187385Y-93396053D01*
X123187365Y-93396141D01*
X123147393Y-93572077D01*
X123070538Y-93735405D01*
X122960397Y-93878425D01*
X122822121Y-93994453D01*
X122662151Y-94078083D01*
X122487960Y-94125410D01*
X122307662Y-94134228D01*
X122129680Y-94104124D01*
X121962312Y-94036503D01*
X121813375Y-93934523D01*
X121689808Y-93802938D01*
X121597376Y-93647882D01*
X121540400Y-93476603D01*
X121521531Y-93297083D01*
X121541652Y-93117700D01*
X121599825Y-92946818D01*
X121693333Y-92792416D01*
X121817815Y-92661699D01*
X121817817Y-92661697D01*
X121967467Y-92560757D01*
X121967466Y-92560757D01*
X121967468Y-92560756D01*
X122135303Y-92494306D01*
X122313487Y-92465446D01*
X122493715Y-92475523D01*
G37*
G36*
X147893715Y-92475523D02*
G01*
X148067577Y-92524066D01*
X148226959Y-92608810D01*
X148364421Y-92725800D01*
X148473559Y-92869583D01*
X148549274Y-93033446D01*
X148588017Y-93209657D01*
X148588017Y-93209663D01*
X148588035Y-93209745D01*
X148587385Y-93396053D01*
X148587365Y-93396141D01*
X148547393Y-93572077D01*
X148470538Y-93735405D01*
X148360397Y-93878425D01*
X148222121Y-93994453D01*
X148062151Y-94078083D01*
X147887960Y-94125410D01*
X147707662Y-94134228D01*
X147529680Y-94104124D01*
X147362312Y-94036503D01*
X147213375Y-93934523D01*
X147089808Y-93802938D01*
X146997376Y-93647882D01*
X146940400Y-93476603D01*
X146921531Y-93297083D01*
X146941652Y-93117700D01*
X146999825Y-92946818D01*
X147093333Y-92792416D01*
X147217815Y-92661699D01*
X147217817Y-92661697D01*
X147367467Y-92560757D01*
X147367466Y-92560757D01*
X147367468Y-92560756D01*
X147535303Y-92494306D01*
X147713487Y-92465446D01*
X147893715Y-92475523D01*
G37*
G36*
X122493715Y-89935523D02*
G01*
X122667577Y-89984066D01*
X122826959Y-90068810D01*
X122964421Y-90185800D01*
X123073559Y-90329583D01*
X123149274Y-90493446D01*
X123188017Y-90669657D01*
X123188017Y-90669663D01*
X123188035Y-90669745D01*
X123187385Y-90856053D01*
X123187365Y-90856141D01*
X123147393Y-91032077D01*
X123070538Y-91195405D01*
X122960397Y-91338425D01*
X122822121Y-91454453D01*
X122662151Y-91538083D01*
X122487960Y-91585410D01*
X122307662Y-91594228D01*
X122129680Y-91564124D01*
X121962312Y-91496503D01*
X121813375Y-91394523D01*
X121689808Y-91262938D01*
X121597376Y-91107882D01*
X121540400Y-90936603D01*
X121521531Y-90757083D01*
X121541652Y-90577700D01*
X121599825Y-90406818D01*
X121693333Y-90252416D01*
X121817815Y-90121699D01*
X121817817Y-90121697D01*
X121967467Y-90020757D01*
X121967466Y-90020757D01*
X121967468Y-90020756D01*
X122135303Y-89954306D01*
X122313487Y-89925446D01*
X122493715Y-89935523D01*
G37*
G36*
X147893715Y-89935523D02*
G01*
X148067577Y-89984066D01*
X148226959Y-90068810D01*
X148364421Y-90185800D01*
X148473559Y-90329583D01*
X148549274Y-90493446D01*
X148588017Y-90669657D01*
X148588017Y-90669663D01*
X148588035Y-90669745D01*
X148587385Y-90856053D01*
X148587365Y-90856141D01*
X148547393Y-91032077D01*
X148470538Y-91195405D01*
X148360397Y-91338425D01*
X148222121Y-91454453D01*
X148062151Y-91538083D01*
X147887960Y-91585410D01*
X147707662Y-91594228D01*
X147529680Y-91564124D01*
X147362312Y-91496503D01*
X147213375Y-91394523D01*
X147089808Y-91262938D01*
X146997376Y-91107882D01*
X146940400Y-90936603D01*
X146921531Y-90757083D01*
X146941652Y-90577700D01*
X146999825Y-90406818D01*
X147093333Y-90252416D01*
X147217815Y-90121699D01*
X147217817Y-90121697D01*
X147367467Y-90020757D01*
X147367466Y-90020757D01*
X147367468Y-90020756D01*
X147535303Y-89954306D01*
X147713487Y-89925446D01*
X147893715Y-89935523D01*
G37*
G36*
X122493715Y-87395523D02*
G01*
X122667577Y-87444066D01*
X122826959Y-87528810D01*
X122964421Y-87645800D01*
X123073559Y-87789583D01*
X123149274Y-87953446D01*
X123188017Y-88129657D01*
X123188017Y-88129663D01*
X123188035Y-88129745D01*
X123187385Y-88316053D01*
X123187365Y-88316141D01*
X123147393Y-88492077D01*
X123070538Y-88655405D01*
X122960397Y-88798425D01*
X122822121Y-88914453D01*
X122662151Y-88998083D01*
X122487960Y-89045410D01*
X122307662Y-89054228D01*
X122129680Y-89024124D01*
X121962312Y-88956503D01*
X121813375Y-88854523D01*
X121689808Y-88722938D01*
X121597376Y-88567882D01*
X121540400Y-88396603D01*
X121521531Y-88217083D01*
X121541652Y-88037700D01*
X121599825Y-87866818D01*
X121693333Y-87712416D01*
X121817815Y-87581699D01*
X121817817Y-87581697D01*
X121967467Y-87480757D01*
X121967466Y-87480757D01*
X121967468Y-87480756D01*
X122135303Y-87414306D01*
X122313487Y-87385446D01*
X122493715Y-87395523D01*
G37*
G36*
X147893715Y-87395523D02*
G01*
X148067577Y-87444066D01*
X148226959Y-87528810D01*
X148364421Y-87645800D01*
X148473559Y-87789583D01*
X148549274Y-87953446D01*
X148588017Y-88129657D01*
X148588017Y-88129663D01*
X148588035Y-88129745D01*
X148587385Y-88316053D01*
X148587365Y-88316141D01*
X148547393Y-88492077D01*
X148470538Y-88655405D01*
X148360397Y-88798425D01*
X148222121Y-88914453D01*
X148062151Y-88998083D01*
X147887960Y-89045410D01*
X147707662Y-89054228D01*
X147529680Y-89024124D01*
X147362312Y-88956503D01*
X147213375Y-88854523D01*
X147089808Y-88722938D01*
X146997376Y-88567882D01*
X146940400Y-88396603D01*
X146921531Y-88217083D01*
X146941652Y-88037700D01*
X146999825Y-87866818D01*
X147093333Y-87712416D01*
X147217815Y-87581699D01*
X147217817Y-87581697D01*
X147367467Y-87480757D01*
X147367466Y-87480757D01*
X147367468Y-87480756D01*
X147535303Y-87414306D01*
X147713487Y-87385446D01*
X147893715Y-87395523D01*
G37*
G36*
X147893715Y-84855523D02*
G01*
X148067577Y-84904066D01*
X148226959Y-84988810D01*
X148364421Y-85105800D01*
X148473559Y-85249583D01*
X148549274Y-85413446D01*
X148588017Y-85589657D01*
X148588017Y-85589663D01*
X148588035Y-85589745D01*
X148587385Y-85776053D01*
X148587365Y-85776141D01*
X148547393Y-85952077D01*
X148470538Y-86115405D01*
X148360397Y-86258425D01*
X148222121Y-86374453D01*
X148062151Y-86458083D01*
X147887960Y-86505410D01*
X147707662Y-86514228D01*
X147529680Y-86484124D01*
X147362312Y-86416503D01*
X147213375Y-86314523D01*
X147089808Y-86182938D01*
X146997376Y-86027882D01*
X146940400Y-85856603D01*
X146921531Y-85677083D01*
X146941652Y-85497700D01*
X146999825Y-85326818D01*
X147093333Y-85172416D01*
X147217815Y-85041699D01*
X147217817Y-85041697D01*
X147367467Y-84940757D01*
X147367466Y-84940757D01*
X147367468Y-84940756D01*
X147535303Y-84874306D01*
X147713487Y-84845446D01*
X147893715Y-84855523D01*
G37*
G36*
X122493715Y-84855523D02*
G01*
X122667577Y-84904066D01*
X122826959Y-84988810D01*
X122964421Y-85105800D01*
X123073559Y-85249583D01*
X123149274Y-85413446D01*
X123188017Y-85589657D01*
X123188017Y-85589663D01*
X123188035Y-85589745D01*
X123187385Y-85776053D01*
X123187365Y-85776141D01*
X123147393Y-85952077D01*
X123070538Y-86115405D01*
X122960397Y-86258425D01*
X122822121Y-86374453D01*
X122662151Y-86458083D01*
X122487960Y-86505410D01*
X122307662Y-86514228D01*
X122129680Y-86484124D01*
X121962312Y-86416503D01*
X121813375Y-86314523D01*
X121689808Y-86182938D01*
X121597376Y-86027882D01*
X121540400Y-85856603D01*
X121521531Y-85677083D01*
X121541652Y-85497700D01*
X121599825Y-85326818D01*
X121693333Y-85172416D01*
X121817815Y-85041699D01*
X121817817Y-85041697D01*
X121967467Y-84940757D01*
X121967466Y-84940757D01*
X121967468Y-84940756D01*
X122135303Y-84874306D01*
X122313487Y-84845446D01*
X122493715Y-84855523D01*
G37*
G36*
X122493715Y-82315523D02*
G01*
X122667577Y-82364066D01*
X122826959Y-82448810D01*
X122964421Y-82565800D01*
X123073559Y-82709583D01*
X123149274Y-82873446D01*
X123188017Y-83049657D01*
X123188017Y-83049663D01*
X123188035Y-83049745D01*
X123187385Y-83236053D01*
X123187365Y-83236141D01*
X123147393Y-83412077D01*
X123070538Y-83575405D01*
X122960397Y-83718425D01*
X122822121Y-83834453D01*
X122662151Y-83918083D01*
X122487960Y-83965410D01*
X122307662Y-83974228D01*
X122129680Y-83944124D01*
X121962312Y-83876503D01*
X121813375Y-83774523D01*
X121689808Y-83642938D01*
X121597376Y-83487882D01*
X121540400Y-83316603D01*
X121521531Y-83137083D01*
X121541652Y-82957700D01*
X121599825Y-82786818D01*
X121693333Y-82632416D01*
X121817815Y-82501699D01*
X121817817Y-82501697D01*
X121967467Y-82400757D01*
X121967466Y-82400757D01*
X121967468Y-82400756D01*
X122135303Y-82334306D01*
X122313487Y-82305446D01*
X122493715Y-82315523D01*
G37*
G36*
X147893715Y-82315523D02*
G01*
X148067577Y-82364066D01*
X148226959Y-82448810D01*
X148364421Y-82565800D01*
X148473559Y-82709583D01*
X148549274Y-82873446D01*
X148588017Y-83049657D01*
X148588017Y-83049663D01*
X148588035Y-83049745D01*
X148587385Y-83236053D01*
X148587365Y-83236141D01*
X148547393Y-83412077D01*
X148470538Y-83575405D01*
X148360397Y-83718425D01*
X148222121Y-83834453D01*
X148062151Y-83918083D01*
X147887960Y-83965410D01*
X147707662Y-83974228D01*
X147529680Y-83944124D01*
X147362312Y-83876503D01*
X147213375Y-83774523D01*
X147089808Y-83642938D01*
X146997376Y-83487882D01*
X146940400Y-83316603D01*
X146921531Y-83137083D01*
X146941652Y-82957700D01*
X146999825Y-82786818D01*
X147093333Y-82632416D01*
X147217815Y-82501699D01*
X147217817Y-82501697D01*
X147367467Y-82400757D01*
X147367466Y-82400757D01*
X147367468Y-82400756D01*
X147535303Y-82334306D01*
X147713487Y-82305446D01*
X147893715Y-82315523D01*
G37*
G36*
X147893715Y-79775523D02*
G01*
X148067577Y-79824066D01*
X148226959Y-79908810D01*
X148364421Y-80025800D01*
X148473559Y-80169583D01*
X148549274Y-80333446D01*
X148588017Y-80509657D01*
X148588017Y-80509663D01*
X148588035Y-80509745D01*
X148587385Y-80696053D01*
X148587365Y-80696141D01*
X148547393Y-80872077D01*
X148470538Y-81035405D01*
X148360397Y-81178425D01*
X148222121Y-81294453D01*
X148062151Y-81378083D01*
X147887960Y-81425410D01*
X147707662Y-81434228D01*
X147529680Y-81404124D01*
X147362312Y-81336503D01*
X147213375Y-81234523D01*
X147089808Y-81102938D01*
X146997376Y-80947882D01*
X146940400Y-80776603D01*
X146921531Y-80597083D01*
X146941652Y-80417700D01*
X146999825Y-80246818D01*
X147093333Y-80092416D01*
X147217815Y-79961699D01*
X147217817Y-79961697D01*
X147367467Y-79860757D01*
X147367466Y-79860757D01*
X147367468Y-79860756D01*
X147535303Y-79794306D01*
X147713487Y-79765446D01*
X147893715Y-79775523D01*
G37*
G36*
X122493715Y-79775523D02*
G01*
X122667577Y-79824066D01*
X122826959Y-79908810D01*
X122964421Y-80025800D01*
X123073559Y-80169583D01*
X123149274Y-80333446D01*
X123188017Y-80509657D01*
X123188017Y-80509663D01*
X123188035Y-80509745D01*
X123187385Y-80696053D01*
X123187365Y-80696141D01*
X123147393Y-80872077D01*
X123070538Y-81035405D01*
X122960397Y-81178425D01*
X122822121Y-81294453D01*
X122662151Y-81378083D01*
X122487960Y-81425410D01*
X122307662Y-81434228D01*
X122129680Y-81404124D01*
X121962312Y-81336503D01*
X121813375Y-81234523D01*
X121689808Y-81102938D01*
X121597376Y-80947882D01*
X121540400Y-80776603D01*
X121521531Y-80597083D01*
X121541652Y-80417700D01*
X121599825Y-80246818D01*
X121693333Y-80092416D01*
X121817815Y-79961699D01*
X121817817Y-79961697D01*
X121967467Y-79860757D01*
X121967466Y-79860757D01*
X121967468Y-79860756D01*
X122135303Y-79794306D01*
X122313487Y-79765446D01*
X122493715Y-79775523D01*
G37*
G36*
X122493715Y-77235523D02*
G01*
X122667577Y-77284066D01*
X122826959Y-77368810D01*
X122964421Y-77485800D01*
X123073559Y-77629583D01*
X123149274Y-77793446D01*
X123188017Y-77969657D01*
X123188017Y-77969663D01*
X123188035Y-77969745D01*
X123187385Y-78156053D01*
X123187365Y-78156141D01*
X123147393Y-78332077D01*
X123070538Y-78495405D01*
X122960397Y-78638425D01*
X122822121Y-78754453D01*
X122662151Y-78838083D01*
X122487960Y-78885410D01*
X122307662Y-78894228D01*
X122129680Y-78864124D01*
X121962312Y-78796503D01*
X121813375Y-78694523D01*
X121689808Y-78562938D01*
X121597376Y-78407882D01*
X121540400Y-78236603D01*
X121521531Y-78057083D01*
X121541652Y-77877700D01*
X121599825Y-77706818D01*
X121693333Y-77552416D01*
X121817815Y-77421699D01*
X121817817Y-77421697D01*
X121967467Y-77320757D01*
X121967466Y-77320757D01*
X121967468Y-77320756D01*
X122135303Y-77254306D01*
X122313487Y-77225446D01*
X122493715Y-77235523D01*
G37*
G36*
X147893715Y-77235523D02*
G01*
X148067577Y-77284066D01*
X148226959Y-77368810D01*
X148364421Y-77485800D01*
X148473559Y-77629583D01*
X148549274Y-77793446D01*
X148588017Y-77969657D01*
X148588017Y-77969663D01*
X148588035Y-77969745D01*
X148587385Y-78156053D01*
X148587365Y-78156141D01*
X148547393Y-78332077D01*
X148470538Y-78495405D01*
X148360397Y-78638425D01*
X148222121Y-78754453D01*
X148062151Y-78838083D01*
X147887960Y-78885410D01*
X147707662Y-78894228D01*
X147529680Y-78864124D01*
X147362312Y-78796503D01*
X147213375Y-78694523D01*
X147089808Y-78562938D01*
X146997376Y-78407882D01*
X146940400Y-78236603D01*
X146921531Y-78057083D01*
X146941652Y-77877700D01*
X146999825Y-77706818D01*
X147093333Y-77552416D01*
X147217815Y-77421699D01*
X147217817Y-77421697D01*
X147367467Y-77320757D01*
X147367466Y-77320757D01*
X147367468Y-77320756D01*
X147535303Y-77254306D01*
X147713487Y-77225446D01*
X147893715Y-77235523D01*
G37*
G36*
X110743758Y-74611083D02*
G01*
X110765986Y-74609996D01*
X110834858Y-74620658D01*
X110906918Y-74628232D01*
X110927975Y-74635074D01*
X110946838Y-74637994D01*
X111015142Y-74663396D01*
X111087006Y-74686746D01*
X111103438Y-74696233D01*
X111118356Y-74701781D01*
X111182853Y-74742083D01*
X111250993Y-74781424D01*
X111262745Y-74792005D01*
X111273556Y-74798761D01*
X111330979Y-74853444D01*
X111391712Y-74908128D01*
X111399141Y-74918353D01*
X111406078Y-74924959D01*
X111453209Y-74992772D01*
X111503012Y-75061320D01*
X111506863Y-75069971D01*
X111510521Y-75075233D01*
X111544394Y-75154264D01*
X111580030Y-75234304D01*
X111581340Y-75240466D01*
X111582611Y-75243432D01*
X111600674Y-75331429D01*
X111619399Y-75419522D01*
X111619399Y-75608878D01*
X111618730Y-75612025D01*
X111618730Y-75612078D01*
X111580702Y-75790990D01*
X111580679Y-75791043D01*
X111580030Y-75794096D01*
X111543451Y-75876254D01*
X111507437Y-75958685D01*
X111505574Y-75961326D01*
X111503012Y-75967080D01*
X111451504Y-76037976D01*
X111401948Y-76108225D01*
X111397279Y-76112609D01*
X111391712Y-76120272D01*
X111328734Y-76176978D01*
X111268545Y-76233499D01*
X111260386Y-76238518D01*
X111250993Y-76246976D01*
X111180227Y-76287833D01*
X111112677Y-76329390D01*
X111100693Y-76333752D01*
X111087006Y-76341654D01*
X111012223Y-76365953D01*
X110940713Y-76391980D01*
X110924958Y-76394307D01*
X110906918Y-76400168D01*
X110831799Y-76408063D01*
X110759674Y-76418714D01*
X110740607Y-76417648D01*
X110718600Y-76419961D01*
X110646576Y-76412391D01*
X110576961Y-76408499D01*
X110555437Y-76402812D01*
X110530282Y-76400168D01*
X110464344Y-76378743D01*
X110400028Y-76361750D01*
X110377262Y-76350449D01*
X110350194Y-76341654D01*
X110292854Y-76308549D01*
X110236108Y-76280380D01*
X110213583Y-76262782D01*
X110186207Y-76246976D01*
X110139339Y-76204776D01*
X110091902Y-76167714D01*
X110071324Y-76143535D01*
X110045488Y-76120272D01*
X110010260Y-76071784D01*
X109973297Y-76028353D01*
X109956478Y-75997760D01*
X109934188Y-75967080D01*
X109911086Y-75915191D01*
X109885134Y-75867986D01*
X109873877Y-75831619D01*
X109857170Y-75794096D01*
X109846014Y-75741609D01*
X109831018Y-75693166D01*
X109826994Y-75652129D01*
X109817801Y-75608878D01*
X109817801Y-75558369D01*
X109813160Y-75511037D01*
X109817801Y-75466882D01*
X109817801Y-75419522D01*
X109827648Y-75373195D01*
X109832289Y-75329040D01*
X109846668Y-75283711D01*
X109857170Y-75234304D01*
X109875156Y-75193908D01*
X109887622Y-75154609D01*
X109912362Y-75110342D01*
X109934188Y-75061320D01*
X109958330Y-75028091D01*
X109976904Y-74994857D01*
X110012105Y-74954076D01*
X110045488Y-74908128D01*
X110073666Y-74882756D01*
X110096480Y-74856326D01*
X110141671Y-74821525D01*
X110186207Y-74781424D01*
X110216315Y-74764041D01*
X110241473Y-74744667D01*
X110295585Y-74718275D01*
X110350194Y-74686746D01*
X110380251Y-74676980D01*
X110405951Y-74664445D01*
X110467336Y-74648685D01*
X110530282Y-74628232D01*
X110558578Y-74625258D01*
X110583201Y-74618936D01*
X110649649Y-74615686D01*
X110718600Y-74608439D01*
X110743758Y-74611083D01*
G37*
G36*
X114128422Y-74616348D02*
G01*
X114145225Y-74627575D01*
X114156452Y-74644378D01*
X114161385Y-74669175D01*
X114161385Y-76359225D01*
X114156452Y-76384022D01*
X114145225Y-76400825D01*
X114128422Y-76412052D01*
X114103625Y-76416985D01*
X112413575Y-76416985D01*
X112388778Y-76412052D01*
X112371975Y-76400825D01*
X112360748Y-76384022D01*
X112355815Y-76359225D01*
X112355815Y-74669175D01*
X112360748Y-74644378D01*
X112371975Y-74627575D01*
X112388778Y-74616348D01*
X112413575Y-74611415D01*
X114103625Y-74611415D01*
X114128422Y-74616348D01*
G37*
G36*
X147893715Y-74695523D02*
G01*
X148067577Y-74744066D01*
X148226959Y-74828810D01*
X148364421Y-74945800D01*
X148473559Y-75089583D01*
X148549274Y-75253446D01*
X148588017Y-75429657D01*
X148588017Y-75429663D01*
X148588035Y-75429745D01*
X148587385Y-75616053D01*
X148587365Y-75616141D01*
X148547393Y-75792077D01*
X148470538Y-75955405D01*
X148360397Y-76098425D01*
X148222121Y-76214453D01*
X148062151Y-76298083D01*
X147887960Y-76345410D01*
X147707662Y-76354228D01*
X147529680Y-76324124D01*
X147362312Y-76256503D01*
X147213375Y-76154523D01*
X147089808Y-76022938D01*
X146997376Y-75867882D01*
X146940400Y-75696603D01*
X146921531Y-75517083D01*
X146941652Y-75337700D01*
X146999825Y-75166818D01*
X147093333Y-75012416D01*
X147217815Y-74881699D01*
X147217817Y-74881697D01*
X147367467Y-74780757D01*
X147367466Y-74780757D01*
X147367468Y-74780756D01*
X147535303Y-74714306D01*
X147713487Y-74685446D01*
X147893715Y-74695523D01*
G37*
G36*
X122493715Y-74695523D02*
G01*
X122667577Y-74744066D01*
X122826959Y-74828810D01*
X122964421Y-74945800D01*
X123073559Y-75089583D01*
X123149274Y-75253446D01*
X123188017Y-75429657D01*
X123188017Y-75429663D01*
X123188035Y-75429745D01*
X123187385Y-75616053D01*
X123187365Y-75616141D01*
X123147393Y-75792077D01*
X123070538Y-75955405D01*
X122960397Y-76098425D01*
X122822121Y-76214453D01*
X122662151Y-76298083D01*
X122487960Y-76345410D01*
X122307662Y-76354228D01*
X122129680Y-76324124D01*
X121962312Y-76256503D01*
X121813375Y-76154523D01*
X121689808Y-76022938D01*
X121597376Y-75867882D01*
X121540400Y-75696603D01*
X121521531Y-75517083D01*
X121541652Y-75337700D01*
X121599825Y-75166818D01*
X121693333Y-75012416D01*
X121817815Y-74881699D01*
X121817817Y-74881697D01*
X121967467Y-74780757D01*
X121967466Y-74780757D01*
X121967468Y-74780756D01*
X122135303Y-74714306D01*
X122313487Y-74685446D01*
X122493715Y-74695523D01*
G37*
G36*
X147893715Y-72155523D02*
G01*
X148067577Y-72204066D01*
X148226959Y-72288810D01*
X148364421Y-72405800D01*
X148473559Y-72549583D01*
X148549274Y-72713446D01*
X148588017Y-72889657D01*
X148588017Y-72889663D01*
X148588035Y-72889745D01*
X148587385Y-73076053D01*
X148587365Y-73076141D01*
X148547393Y-73252077D01*
X148470538Y-73415405D01*
X148360397Y-73558425D01*
X148222121Y-73674453D01*
X148062151Y-73758083D01*
X147887960Y-73805410D01*
X147707662Y-73814228D01*
X147529680Y-73784124D01*
X147362312Y-73716503D01*
X147213375Y-73614523D01*
X147089808Y-73482938D01*
X146997376Y-73327882D01*
X146940400Y-73156603D01*
X146921531Y-72977083D01*
X146941652Y-72797700D01*
X146999825Y-72626818D01*
X147093333Y-72472416D01*
X147217815Y-72341699D01*
X147217817Y-72341697D01*
X147367467Y-72240757D01*
X147367466Y-72240757D01*
X147367468Y-72240756D01*
X147535303Y-72174306D01*
X147713487Y-72145446D01*
X147893715Y-72155523D01*
G37*
G36*
X122493715Y-72155523D02*
G01*
X122667577Y-72204066D01*
X122826959Y-72288810D01*
X122964421Y-72405800D01*
X123073559Y-72549583D01*
X123149274Y-72713446D01*
X123188017Y-72889657D01*
X123188017Y-72889663D01*
X123188035Y-72889745D01*
X123187385Y-73076053D01*
X123187365Y-73076141D01*
X123147393Y-73252077D01*
X123070538Y-73415405D01*
X122960397Y-73558425D01*
X122822121Y-73674453D01*
X122662151Y-73758083D01*
X122487960Y-73805410D01*
X122307662Y-73814228D01*
X122129680Y-73784124D01*
X121962312Y-73716503D01*
X121813375Y-73614523D01*
X121689808Y-73482938D01*
X121597376Y-73327882D01*
X121540400Y-73156603D01*
X121521531Y-72977083D01*
X121541652Y-72797700D01*
X121599825Y-72626818D01*
X121693333Y-72472416D01*
X121817815Y-72341699D01*
X121817817Y-72341697D01*
X121967467Y-72240757D01*
X121967466Y-72240757D01*
X121967468Y-72240756D01*
X122135303Y-72174306D01*
X122313487Y-72145446D01*
X122493715Y-72155523D01*
G37*
G36*
X122493715Y-69615523D02*
G01*
X122667577Y-69664066D01*
X122826959Y-69748810D01*
X122964421Y-69865800D01*
X123073559Y-70009583D01*
X123149274Y-70173446D01*
X123188017Y-70349657D01*
X123188017Y-70349663D01*
X123188035Y-70349745D01*
X123187385Y-70536053D01*
X123187365Y-70536141D01*
X123147393Y-70712077D01*
X123070538Y-70875405D01*
X122960397Y-71018425D01*
X122822121Y-71134453D01*
X122662151Y-71218083D01*
X122487960Y-71265410D01*
X122307662Y-71274228D01*
X122129680Y-71244124D01*
X121962312Y-71176503D01*
X121813375Y-71074523D01*
X121689808Y-70942938D01*
X121597376Y-70787882D01*
X121540400Y-70616603D01*
X121521531Y-70437083D01*
X121541652Y-70257700D01*
X121599825Y-70086818D01*
X121693333Y-69932416D01*
X121817815Y-69801699D01*
X121817817Y-69801697D01*
X121967467Y-69700757D01*
X121967466Y-69700757D01*
X121967468Y-69700756D01*
X122135303Y-69634306D01*
X122313487Y-69605446D01*
X122493715Y-69615523D01*
G37*
G36*
X147893715Y-69615523D02*
G01*
X148067577Y-69664066D01*
X148226959Y-69748810D01*
X148364421Y-69865800D01*
X148473559Y-70009583D01*
X148549274Y-70173446D01*
X148588017Y-70349657D01*
X148588017Y-70349663D01*
X148588035Y-70349745D01*
X148587385Y-70536053D01*
X148587365Y-70536141D01*
X148547393Y-70712077D01*
X148470538Y-70875405D01*
X148360397Y-71018425D01*
X148222121Y-71134453D01*
X148062151Y-71218083D01*
X147887960Y-71265410D01*
X147707662Y-71274228D01*
X147529680Y-71244124D01*
X147362312Y-71176503D01*
X147213375Y-71074523D01*
X147089808Y-70942938D01*
X146997376Y-70787882D01*
X146940400Y-70616603D01*
X146921531Y-70437083D01*
X146941652Y-70257700D01*
X146999825Y-70086818D01*
X147093333Y-69932416D01*
X147217815Y-69801699D01*
X147217817Y-69801697D01*
X147367467Y-69700757D01*
X147367466Y-69700757D01*
X147367468Y-69700756D01*
X147535303Y-69634306D01*
X147713487Y-69605446D01*
X147893715Y-69615523D01*
G37*
G36*
X122493715Y-67075523D02*
G01*
X122667577Y-67124066D01*
X122826959Y-67208810D01*
X122964421Y-67325800D01*
X123073559Y-67469583D01*
X123149274Y-67633446D01*
X123188017Y-67809657D01*
X123188017Y-67809663D01*
X123188035Y-67809745D01*
X123187385Y-67996053D01*
X123187365Y-67996141D01*
X123147393Y-68172077D01*
X123070538Y-68335405D01*
X122960397Y-68478425D01*
X122822121Y-68594453D01*
X122662151Y-68678083D01*
X122487960Y-68725410D01*
X122307662Y-68734228D01*
X122129680Y-68704124D01*
X121962312Y-68636503D01*
X121813375Y-68534523D01*
X121689808Y-68402938D01*
X121597376Y-68247882D01*
X121540400Y-68076603D01*
X121521531Y-67897083D01*
X121541652Y-67717700D01*
X121599825Y-67546818D01*
X121693333Y-67392416D01*
X121817815Y-67261699D01*
X121817817Y-67261697D01*
X121967467Y-67160757D01*
X121967466Y-67160757D01*
X121967468Y-67160756D01*
X122135303Y-67094306D01*
X122313487Y-67065446D01*
X122493715Y-67075523D01*
G37*
G36*
X147893715Y-67075523D02*
G01*
X148067577Y-67124066D01*
X148226959Y-67208810D01*
X148364421Y-67325800D01*
X148473559Y-67469583D01*
X148549274Y-67633446D01*
X148588017Y-67809657D01*
X148588017Y-67809663D01*
X148588035Y-67809745D01*
X148587385Y-67996053D01*
X148587365Y-67996141D01*
X148547393Y-68172077D01*
X148470538Y-68335405D01*
X148360397Y-68478425D01*
X148222121Y-68594453D01*
X148062151Y-68678083D01*
X147887960Y-68725410D01*
X147707662Y-68734228D01*
X147529680Y-68704124D01*
X147362312Y-68636503D01*
X147213375Y-68534523D01*
X147089808Y-68402938D01*
X146997376Y-68247882D01*
X146940400Y-68076603D01*
X146921531Y-67897083D01*
X146941652Y-67717700D01*
X146999825Y-67546818D01*
X147093333Y-67392416D01*
X147217815Y-67261699D01*
X147217817Y-67261697D01*
X147367467Y-67160757D01*
X147367466Y-67160757D01*
X147367468Y-67160756D01*
X147535303Y-67094306D01*
X147713487Y-67065446D01*
X147893715Y-67075523D01*
G37*
G36*
X122493715Y-64535523D02*
G01*
X122667577Y-64584066D01*
X122826959Y-64668810D01*
X122964421Y-64785800D01*
X123073559Y-64929583D01*
X123149274Y-65093446D01*
X123188017Y-65269657D01*
X123188017Y-65269663D01*
X123188035Y-65269745D01*
X123187385Y-65456053D01*
X123187365Y-65456141D01*
X123147393Y-65632077D01*
X123070538Y-65795405D01*
X122960397Y-65938425D01*
X122822121Y-66054453D01*
X122662151Y-66138083D01*
X122487960Y-66185410D01*
X122307662Y-66194228D01*
X122129680Y-66164124D01*
X121962312Y-66096503D01*
X121813375Y-65994523D01*
X121689808Y-65862938D01*
X121597376Y-65707882D01*
X121540400Y-65536603D01*
X121521531Y-65357083D01*
X121541652Y-65177700D01*
X121599825Y-65006818D01*
X121693333Y-64852416D01*
X121817815Y-64721699D01*
X121817817Y-64721697D01*
X121967467Y-64620757D01*
X121967466Y-64620757D01*
X121967468Y-64620756D01*
X122135303Y-64554306D01*
X122313487Y-64525446D01*
X122493715Y-64535523D01*
G37*
G36*
X147893715Y-64535523D02*
G01*
X148067577Y-64584066D01*
X148226959Y-64668810D01*
X148364421Y-64785800D01*
X148473559Y-64929583D01*
X148549274Y-65093446D01*
X148588017Y-65269657D01*
X148588017Y-65269663D01*
X148588035Y-65269745D01*
X148587385Y-65456053D01*
X148587365Y-65456141D01*
X148547393Y-65632077D01*
X148470538Y-65795405D01*
X148360397Y-65938425D01*
X148222121Y-66054453D01*
X148062151Y-66138083D01*
X147887960Y-66185410D01*
X147707662Y-66194228D01*
X147529680Y-66164124D01*
X147362312Y-66096503D01*
X147213375Y-65994523D01*
X147089808Y-65862938D01*
X146997376Y-65707882D01*
X146940400Y-65536603D01*
X146921531Y-65357083D01*
X146941652Y-65177700D01*
X146999825Y-65006818D01*
X147093333Y-64852416D01*
X147217815Y-64721699D01*
X147217817Y-64721697D01*
X147367467Y-64620757D01*
X147367466Y-64620757D01*
X147367468Y-64620756D01*
X147535303Y-64554306D01*
X147713487Y-64525446D01*
X147893715Y-64535523D01*
G37*
G36*
X122493715Y-61995523D02*
G01*
X122667577Y-62044066D01*
X122826959Y-62128810D01*
X122964421Y-62245800D01*
X123073559Y-62389583D01*
X123149274Y-62553446D01*
X123188017Y-62729657D01*
X123188017Y-62729663D01*
X123188035Y-62729745D01*
X123187385Y-62916053D01*
X123187365Y-62916141D01*
X123147393Y-63092077D01*
X123070538Y-63255405D01*
X122960397Y-63398425D01*
X122822121Y-63514453D01*
X122662151Y-63598083D01*
X122487960Y-63645410D01*
X122307662Y-63654228D01*
X122129680Y-63624124D01*
X121962312Y-63556503D01*
X121813375Y-63454523D01*
X121689808Y-63322938D01*
X121597376Y-63167882D01*
X121540400Y-62996603D01*
X121521531Y-62817083D01*
X121541652Y-62637700D01*
X121599825Y-62466818D01*
X121693333Y-62312416D01*
X121817815Y-62181699D01*
X121817817Y-62181697D01*
X121967467Y-62080757D01*
X121967466Y-62080757D01*
X121967468Y-62080756D01*
X122135303Y-62014306D01*
X122313487Y-61985446D01*
X122493715Y-61995523D01*
G37*
G36*
X147893715Y-61995523D02*
G01*
X148067577Y-62044066D01*
X148226959Y-62128810D01*
X148364421Y-62245800D01*
X148473559Y-62389583D01*
X148549274Y-62553446D01*
X148588017Y-62729657D01*
X148588017Y-62729663D01*
X148588035Y-62729745D01*
X148587385Y-62916053D01*
X148587365Y-62916141D01*
X148547393Y-63092077D01*
X148470538Y-63255405D01*
X148360397Y-63398425D01*
X148222121Y-63514453D01*
X148062151Y-63598083D01*
X147887960Y-63645410D01*
X147707662Y-63654228D01*
X147529680Y-63624124D01*
X147362312Y-63556503D01*
X147213375Y-63454523D01*
X147089808Y-63322938D01*
X146997376Y-63167882D01*
X146940400Y-62996603D01*
X146921531Y-62817083D01*
X146941652Y-62637700D01*
X146999825Y-62466818D01*
X147093333Y-62312416D01*
X147217815Y-62181699D01*
X147217817Y-62181697D01*
X147367467Y-62080757D01*
X147367466Y-62080757D01*
X147367468Y-62080756D01*
X147535303Y-62014306D01*
X147713487Y-61985446D01*
X147893715Y-61995523D01*
G37*
G36*
X147893715Y-59455523D02*
G01*
X148067577Y-59504066D01*
X148226959Y-59588810D01*
X148364421Y-59705800D01*
X148473559Y-59849583D01*
X148549274Y-60013446D01*
X148588017Y-60189657D01*
X148588017Y-60189663D01*
X148588035Y-60189745D01*
X148587385Y-60376053D01*
X148587365Y-60376141D01*
X148547393Y-60552077D01*
X148470538Y-60715405D01*
X148360397Y-60858425D01*
X148222121Y-60974453D01*
X148062151Y-61058083D01*
X147887960Y-61105410D01*
X147707662Y-61114228D01*
X147529680Y-61084124D01*
X147362312Y-61016503D01*
X147213375Y-60914523D01*
X147089808Y-60782938D01*
X146997376Y-60627882D01*
X146940400Y-60456603D01*
X146921531Y-60277083D01*
X146941652Y-60097700D01*
X146999825Y-59926818D01*
X147093333Y-59772416D01*
X147217815Y-59641699D01*
X147217817Y-59641697D01*
X147367467Y-59540757D01*
X147367466Y-59540757D01*
X147367468Y-59540756D01*
X147535303Y-59474306D01*
X147713487Y-59445446D01*
X147893715Y-59455523D01*
G37*
G36*
X123157047Y-59452148D02*
G01*
X123173850Y-59463375D01*
X123185077Y-59480178D01*
X123190010Y-59504975D01*
X123190010Y-61055025D01*
X123185077Y-61079822D01*
X123173850Y-61096625D01*
X123157047Y-61107852D01*
X123132250Y-61112785D01*
X121582200Y-61112785D01*
X121557403Y-61107852D01*
X121540600Y-61096625D01*
X121529373Y-61079822D01*
X121524440Y-61055025D01*
X121524440Y-59504975D01*
X121529373Y-59480178D01*
X121540600Y-59463375D01*
X121557403Y-59452148D01*
X121582200Y-59447215D01*
X123132250Y-59447215D01*
X123157047Y-59452148D01*
G37*
G36*
X99395158Y-56136883D02*
G01*
X99417386Y-56135796D01*
X99486258Y-56146458D01*
X99558318Y-56154032D01*
X99579375Y-56160874D01*
X99598238Y-56163794D01*
X99666542Y-56189196D01*
X99738406Y-56212546D01*
X99754838Y-56222033D01*
X99769756Y-56227581D01*
X99834253Y-56267883D01*
X99902393Y-56307224D01*
X99914145Y-56317805D01*
X99924956Y-56324561D01*
X99982379Y-56379244D01*
X100043112Y-56433928D01*
X100050541Y-56444153D01*
X100057478Y-56450759D01*
X100104609Y-56518572D01*
X100154412Y-56587120D01*
X100158263Y-56595771D01*
X100161921Y-56601033D01*
X100195794Y-56680064D01*
X100231430Y-56760104D01*
X100232740Y-56766266D01*
X100234011Y-56769232D01*
X100252074Y-56857229D01*
X100270799Y-56945322D01*
X100270799Y-57134678D01*
X100270130Y-57137825D01*
X100270130Y-57137878D01*
X100232102Y-57316790D01*
X100232079Y-57316843D01*
X100231430Y-57319896D01*
X100194851Y-57402054D01*
X100158837Y-57484485D01*
X100156974Y-57487126D01*
X100154412Y-57492880D01*
X100102904Y-57563776D01*
X100053348Y-57634025D01*
X100048679Y-57638409D01*
X100043112Y-57646072D01*
X99980134Y-57702778D01*
X99919945Y-57759299D01*
X99911786Y-57764318D01*
X99902393Y-57772776D01*
X99831627Y-57813633D01*
X99764077Y-57855190D01*
X99752093Y-57859552D01*
X99738406Y-57867454D01*
X99663623Y-57891753D01*
X99592113Y-57917780D01*
X99576358Y-57920107D01*
X99558318Y-57925968D01*
X99483199Y-57933863D01*
X99411074Y-57944514D01*
X99392007Y-57943448D01*
X99370000Y-57945761D01*
X99297976Y-57938191D01*
X99228361Y-57934299D01*
X99206837Y-57928612D01*
X99181682Y-57925968D01*
X99115744Y-57904543D01*
X99051428Y-57887550D01*
X99028662Y-57876249D01*
X99001594Y-57867454D01*
X98944254Y-57834349D01*
X98887508Y-57806180D01*
X98864983Y-57788582D01*
X98837607Y-57772776D01*
X98790739Y-57730576D01*
X98743302Y-57693514D01*
X98722724Y-57669335D01*
X98696888Y-57646072D01*
X98661660Y-57597584D01*
X98624697Y-57554153D01*
X98607878Y-57523560D01*
X98585588Y-57492880D01*
X98562486Y-57440991D01*
X98536534Y-57393786D01*
X98525277Y-57357419D01*
X98508570Y-57319896D01*
X98497414Y-57267409D01*
X98482418Y-57218966D01*
X98478394Y-57177929D01*
X98469201Y-57134678D01*
X98469201Y-57084169D01*
X98464560Y-57036837D01*
X98469201Y-56992682D01*
X98469201Y-56945322D01*
X98479048Y-56898995D01*
X98483689Y-56854840D01*
X98498068Y-56809511D01*
X98508570Y-56760104D01*
X98526556Y-56719708D01*
X98539022Y-56680409D01*
X98563762Y-56636142D01*
X98585588Y-56587120D01*
X98609730Y-56553891D01*
X98628304Y-56520657D01*
X98663505Y-56479876D01*
X98696888Y-56433928D01*
X98725066Y-56408556D01*
X98747880Y-56382126D01*
X98793071Y-56347325D01*
X98837607Y-56307224D01*
X98867715Y-56289841D01*
X98892873Y-56270467D01*
X98946985Y-56244075D01*
X99001594Y-56212546D01*
X99031651Y-56202780D01*
X99057351Y-56190245D01*
X99118736Y-56174485D01*
X99181682Y-56154032D01*
X99209978Y-56151058D01*
X99234601Y-56144736D01*
X99301049Y-56141486D01*
X99370000Y-56134239D01*
X99395158Y-56136883D01*
G37*
G36*
X117175158Y-56136883D02*
G01*
X117197386Y-56135796D01*
X117266258Y-56146458D01*
X117338318Y-56154032D01*
X117359375Y-56160874D01*
X117378238Y-56163794D01*
X117446542Y-56189196D01*
X117518406Y-56212546D01*
X117534838Y-56222033D01*
X117549756Y-56227581D01*
X117614253Y-56267883D01*
X117682393Y-56307224D01*
X117694145Y-56317805D01*
X117704956Y-56324561D01*
X117762379Y-56379244D01*
X117823112Y-56433928D01*
X117830541Y-56444153D01*
X117837478Y-56450759D01*
X117884609Y-56518572D01*
X117934412Y-56587120D01*
X117938263Y-56595771D01*
X117941921Y-56601033D01*
X117975794Y-56680064D01*
X118011430Y-56760104D01*
X118012740Y-56766266D01*
X118014011Y-56769232D01*
X118032074Y-56857229D01*
X118050799Y-56945322D01*
X118050799Y-57134678D01*
X118050130Y-57137825D01*
X118050130Y-57137878D01*
X118012102Y-57316790D01*
X118012079Y-57316843D01*
X118011430Y-57319896D01*
X117974851Y-57402054D01*
X117938837Y-57484485D01*
X117936974Y-57487126D01*
X117934412Y-57492880D01*
X117882904Y-57563776D01*
X117833348Y-57634025D01*
X117828679Y-57638409D01*
X117823112Y-57646072D01*
X117760134Y-57702778D01*
X117699945Y-57759299D01*
X117691786Y-57764318D01*
X117682393Y-57772776D01*
X117611627Y-57813633D01*
X117544077Y-57855190D01*
X117532093Y-57859552D01*
X117518406Y-57867454D01*
X117443623Y-57891753D01*
X117372113Y-57917780D01*
X117356358Y-57920107D01*
X117338318Y-57925968D01*
X117263199Y-57933863D01*
X117191074Y-57944514D01*
X117172007Y-57943448D01*
X117150000Y-57945761D01*
X117077976Y-57938191D01*
X117008361Y-57934299D01*
X116986837Y-57928612D01*
X116961682Y-57925968D01*
X116895744Y-57904543D01*
X116831428Y-57887550D01*
X116808662Y-57876249D01*
X116781594Y-57867454D01*
X116724254Y-57834349D01*
X116667508Y-57806180D01*
X116644983Y-57788582D01*
X116617607Y-57772776D01*
X116570739Y-57730576D01*
X116523302Y-57693514D01*
X116502724Y-57669335D01*
X116476888Y-57646072D01*
X116441660Y-57597584D01*
X116404697Y-57554153D01*
X116387878Y-57523560D01*
X116365588Y-57492880D01*
X116342486Y-57440991D01*
X116316534Y-57393786D01*
X116305277Y-57357419D01*
X116288570Y-57319896D01*
X116277414Y-57267409D01*
X116262418Y-57218966D01*
X116258394Y-57177929D01*
X116249201Y-57134678D01*
X116249201Y-57084169D01*
X116244560Y-57036837D01*
X116249201Y-56992682D01*
X116249201Y-56945322D01*
X116259048Y-56898995D01*
X116263689Y-56854840D01*
X116278068Y-56809511D01*
X116288570Y-56760104D01*
X116306556Y-56719708D01*
X116319022Y-56680409D01*
X116343762Y-56636142D01*
X116365588Y-56587120D01*
X116389730Y-56553891D01*
X116408304Y-56520657D01*
X116443505Y-56479876D01*
X116476888Y-56433928D01*
X116505066Y-56408556D01*
X116527880Y-56382126D01*
X116573071Y-56347325D01*
X116617607Y-56307224D01*
X116647715Y-56289841D01*
X116672873Y-56270467D01*
X116726985Y-56244075D01*
X116781594Y-56212546D01*
X116811651Y-56202780D01*
X116837351Y-56190245D01*
X116898736Y-56174485D01*
X116961682Y-56154032D01*
X116989978Y-56151058D01*
X117014601Y-56144736D01*
X117081049Y-56141486D01*
X117150000Y-56134239D01*
X117175158Y-56136883D01*
G37*
G36*
X96855158Y-56136883D02*
G01*
X96877386Y-56135796D01*
X96946258Y-56146458D01*
X97018318Y-56154032D01*
X97039375Y-56160874D01*
X97058238Y-56163794D01*
X97126542Y-56189196D01*
X97198406Y-56212546D01*
X97214838Y-56222033D01*
X97229756Y-56227581D01*
X97294253Y-56267883D01*
X97362393Y-56307224D01*
X97374145Y-56317805D01*
X97384956Y-56324561D01*
X97442379Y-56379244D01*
X97503112Y-56433928D01*
X97510541Y-56444153D01*
X97517478Y-56450759D01*
X97564609Y-56518572D01*
X97614412Y-56587120D01*
X97618263Y-56595771D01*
X97621921Y-56601033D01*
X97655794Y-56680064D01*
X97691430Y-56760104D01*
X97692740Y-56766266D01*
X97694011Y-56769232D01*
X97712074Y-56857229D01*
X97730799Y-56945322D01*
X97730799Y-57134678D01*
X97730130Y-57137825D01*
X97730130Y-57137878D01*
X97692102Y-57316790D01*
X97692079Y-57316843D01*
X97691430Y-57319896D01*
X97654851Y-57402054D01*
X97618837Y-57484485D01*
X97616974Y-57487126D01*
X97614412Y-57492880D01*
X97562904Y-57563776D01*
X97513348Y-57634025D01*
X97508679Y-57638409D01*
X97503112Y-57646072D01*
X97440134Y-57702778D01*
X97379945Y-57759299D01*
X97371786Y-57764318D01*
X97362393Y-57772776D01*
X97291627Y-57813633D01*
X97224077Y-57855190D01*
X97212093Y-57859552D01*
X97198406Y-57867454D01*
X97123623Y-57891753D01*
X97052113Y-57917780D01*
X97036358Y-57920107D01*
X97018318Y-57925968D01*
X96943199Y-57933863D01*
X96871074Y-57944514D01*
X96852007Y-57943448D01*
X96830000Y-57945761D01*
X96757976Y-57938191D01*
X96688361Y-57934299D01*
X96666837Y-57928612D01*
X96641682Y-57925968D01*
X96575744Y-57904543D01*
X96511428Y-57887550D01*
X96488662Y-57876249D01*
X96461594Y-57867454D01*
X96404254Y-57834349D01*
X96347508Y-57806180D01*
X96324983Y-57788582D01*
X96297607Y-57772776D01*
X96250739Y-57730576D01*
X96203302Y-57693514D01*
X96182724Y-57669335D01*
X96156888Y-57646072D01*
X96121660Y-57597584D01*
X96084697Y-57554153D01*
X96067878Y-57523560D01*
X96045588Y-57492880D01*
X96022486Y-57440991D01*
X95996534Y-57393786D01*
X95985277Y-57357419D01*
X95968570Y-57319896D01*
X95957414Y-57267409D01*
X95942418Y-57218966D01*
X95938394Y-57177929D01*
X95929201Y-57134678D01*
X95929201Y-57084169D01*
X95924560Y-57036837D01*
X95929201Y-56992682D01*
X95929201Y-56945322D01*
X95939048Y-56898995D01*
X95943689Y-56854840D01*
X95958068Y-56809511D01*
X95968570Y-56760104D01*
X95986556Y-56719708D01*
X95999022Y-56680409D01*
X96023762Y-56636142D01*
X96045588Y-56587120D01*
X96069730Y-56553891D01*
X96088304Y-56520657D01*
X96123505Y-56479876D01*
X96156888Y-56433928D01*
X96185066Y-56408556D01*
X96207880Y-56382126D01*
X96253071Y-56347325D01*
X96297607Y-56307224D01*
X96327715Y-56289841D01*
X96352873Y-56270467D01*
X96406985Y-56244075D01*
X96461594Y-56212546D01*
X96491651Y-56202780D01*
X96517351Y-56190245D01*
X96578736Y-56174485D01*
X96641682Y-56154032D01*
X96669978Y-56151058D01*
X96694601Y-56144736D01*
X96761049Y-56141486D01*
X96830000Y-56134239D01*
X96855158Y-56136883D01*
G37*
G36*
X101935158Y-56136883D02*
G01*
X101957386Y-56135796D01*
X102026258Y-56146458D01*
X102098318Y-56154032D01*
X102119375Y-56160874D01*
X102138238Y-56163794D01*
X102206542Y-56189196D01*
X102278406Y-56212546D01*
X102294838Y-56222033D01*
X102309756Y-56227581D01*
X102374253Y-56267883D01*
X102442393Y-56307224D01*
X102454145Y-56317805D01*
X102464956Y-56324561D01*
X102522379Y-56379244D01*
X102583112Y-56433928D01*
X102590541Y-56444153D01*
X102597478Y-56450759D01*
X102644609Y-56518572D01*
X102694412Y-56587120D01*
X102698263Y-56595771D01*
X102701921Y-56601033D01*
X102735794Y-56680064D01*
X102771430Y-56760104D01*
X102772740Y-56766266D01*
X102774011Y-56769232D01*
X102792074Y-56857229D01*
X102810799Y-56945322D01*
X102810799Y-57134678D01*
X102810130Y-57137825D01*
X102810130Y-57137878D01*
X102772102Y-57316790D01*
X102772079Y-57316843D01*
X102771430Y-57319896D01*
X102734851Y-57402054D01*
X102698837Y-57484485D01*
X102696974Y-57487126D01*
X102694412Y-57492880D01*
X102642904Y-57563776D01*
X102593348Y-57634025D01*
X102588679Y-57638409D01*
X102583112Y-57646072D01*
X102520134Y-57702778D01*
X102459945Y-57759299D01*
X102451786Y-57764318D01*
X102442393Y-57772776D01*
X102371627Y-57813633D01*
X102304077Y-57855190D01*
X102292093Y-57859552D01*
X102278406Y-57867454D01*
X102203623Y-57891753D01*
X102132113Y-57917780D01*
X102116358Y-57920107D01*
X102098318Y-57925968D01*
X102023199Y-57933863D01*
X101951074Y-57944514D01*
X101932007Y-57943448D01*
X101910000Y-57945761D01*
X101837976Y-57938191D01*
X101768361Y-57934299D01*
X101746837Y-57928612D01*
X101721682Y-57925968D01*
X101655744Y-57904543D01*
X101591428Y-57887550D01*
X101568662Y-57876249D01*
X101541594Y-57867454D01*
X101484254Y-57834349D01*
X101427508Y-57806180D01*
X101404983Y-57788582D01*
X101377607Y-57772776D01*
X101330739Y-57730576D01*
X101283302Y-57693514D01*
X101262724Y-57669335D01*
X101236888Y-57646072D01*
X101201660Y-57597584D01*
X101164697Y-57554153D01*
X101147878Y-57523560D01*
X101125588Y-57492880D01*
X101102486Y-57440991D01*
X101076534Y-57393786D01*
X101065277Y-57357419D01*
X101048570Y-57319896D01*
X101037414Y-57267409D01*
X101022418Y-57218966D01*
X101018394Y-57177929D01*
X101009201Y-57134678D01*
X101009201Y-57084169D01*
X101004560Y-57036837D01*
X101009201Y-56992682D01*
X101009201Y-56945322D01*
X101019048Y-56898995D01*
X101023689Y-56854840D01*
X101038068Y-56809511D01*
X101048570Y-56760104D01*
X101066556Y-56719708D01*
X101079022Y-56680409D01*
X101103762Y-56636142D01*
X101125588Y-56587120D01*
X101149730Y-56553891D01*
X101168304Y-56520657D01*
X101203505Y-56479876D01*
X101236888Y-56433928D01*
X101265066Y-56408556D01*
X101287880Y-56382126D01*
X101333071Y-56347325D01*
X101377607Y-56307224D01*
X101407715Y-56289841D01*
X101432873Y-56270467D01*
X101486985Y-56244075D01*
X101541594Y-56212546D01*
X101571651Y-56202780D01*
X101597351Y-56190245D01*
X101658736Y-56174485D01*
X101721682Y-56154032D01*
X101749978Y-56151058D01*
X101774601Y-56144736D01*
X101841049Y-56141486D01*
X101910000Y-56134239D01*
X101935158Y-56136883D01*
G37*
G36*
X104475158Y-56136883D02*
G01*
X104497386Y-56135796D01*
X104566258Y-56146458D01*
X104638318Y-56154032D01*
X104659375Y-56160874D01*
X104678238Y-56163794D01*
X104746542Y-56189196D01*
X104818406Y-56212546D01*
X104834838Y-56222033D01*
X104849756Y-56227581D01*
X104914253Y-56267883D01*
X104982393Y-56307224D01*
X104994145Y-56317805D01*
X105004956Y-56324561D01*
X105062379Y-56379244D01*
X105123112Y-56433928D01*
X105130541Y-56444153D01*
X105137478Y-56450759D01*
X105184609Y-56518572D01*
X105234412Y-56587120D01*
X105238263Y-56595771D01*
X105241921Y-56601033D01*
X105275794Y-56680064D01*
X105311430Y-56760104D01*
X105312740Y-56766266D01*
X105314011Y-56769232D01*
X105332074Y-56857229D01*
X105350799Y-56945322D01*
X105350799Y-57134678D01*
X105350130Y-57137825D01*
X105350130Y-57137878D01*
X105312102Y-57316790D01*
X105312079Y-57316843D01*
X105311430Y-57319896D01*
X105274851Y-57402054D01*
X105238837Y-57484485D01*
X105236974Y-57487126D01*
X105234412Y-57492880D01*
X105182904Y-57563776D01*
X105133348Y-57634025D01*
X105128679Y-57638409D01*
X105123112Y-57646072D01*
X105060134Y-57702778D01*
X104999945Y-57759299D01*
X104991786Y-57764318D01*
X104982393Y-57772776D01*
X104911627Y-57813633D01*
X104844077Y-57855190D01*
X104832093Y-57859552D01*
X104818406Y-57867454D01*
X104743623Y-57891753D01*
X104672113Y-57917780D01*
X104656358Y-57920107D01*
X104638318Y-57925968D01*
X104563199Y-57933863D01*
X104491074Y-57944514D01*
X104472007Y-57943448D01*
X104450000Y-57945761D01*
X104377976Y-57938191D01*
X104308361Y-57934299D01*
X104286837Y-57928612D01*
X104261682Y-57925968D01*
X104195744Y-57904543D01*
X104131428Y-57887550D01*
X104108662Y-57876249D01*
X104081594Y-57867454D01*
X104024254Y-57834349D01*
X103967508Y-57806180D01*
X103944983Y-57788582D01*
X103917607Y-57772776D01*
X103870739Y-57730576D01*
X103823302Y-57693514D01*
X103802724Y-57669335D01*
X103776888Y-57646072D01*
X103741660Y-57597584D01*
X103704697Y-57554153D01*
X103687878Y-57523560D01*
X103665588Y-57492880D01*
X103642486Y-57440991D01*
X103616534Y-57393786D01*
X103605277Y-57357419D01*
X103588570Y-57319896D01*
X103577414Y-57267409D01*
X103562418Y-57218966D01*
X103558394Y-57177929D01*
X103549201Y-57134678D01*
X103549201Y-57084169D01*
X103544560Y-57036837D01*
X103549201Y-56992682D01*
X103549201Y-56945322D01*
X103559048Y-56898995D01*
X103563689Y-56854840D01*
X103578068Y-56809511D01*
X103588570Y-56760104D01*
X103606556Y-56719708D01*
X103619022Y-56680409D01*
X103643762Y-56636142D01*
X103665588Y-56587120D01*
X103689730Y-56553891D01*
X103708304Y-56520657D01*
X103743505Y-56479876D01*
X103776888Y-56433928D01*
X103805066Y-56408556D01*
X103827880Y-56382126D01*
X103873071Y-56347325D01*
X103917607Y-56307224D01*
X103947715Y-56289841D01*
X103972873Y-56270467D01*
X104026985Y-56244075D01*
X104081594Y-56212546D01*
X104111651Y-56202780D01*
X104137351Y-56190245D01*
X104198736Y-56174485D01*
X104261682Y-56154032D01*
X104289978Y-56151058D01*
X104314601Y-56144736D01*
X104381049Y-56141486D01*
X104450000Y-56134239D01*
X104475158Y-56136883D01*
G37*
G36*
X107015158Y-56136883D02*
G01*
X107037386Y-56135796D01*
X107106258Y-56146458D01*
X107178318Y-56154032D01*
X107199375Y-56160874D01*
X107218238Y-56163794D01*
X107286542Y-56189196D01*
X107358406Y-56212546D01*
X107374838Y-56222033D01*
X107389756Y-56227581D01*
X107454253Y-56267883D01*
X107522393Y-56307224D01*
X107534145Y-56317805D01*
X107544956Y-56324561D01*
X107602379Y-56379244D01*
X107663112Y-56433928D01*
X107670541Y-56444153D01*
X107677478Y-56450759D01*
X107724609Y-56518572D01*
X107774412Y-56587120D01*
X107778263Y-56595771D01*
X107781921Y-56601033D01*
X107815794Y-56680064D01*
X107851430Y-56760104D01*
X107852740Y-56766266D01*
X107854011Y-56769232D01*
X107872074Y-56857229D01*
X107890799Y-56945322D01*
X107890799Y-57134678D01*
X107890130Y-57137825D01*
X107890130Y-57137878D01*
X107852102Y-57316790D01*
X107852079Y-57316843D01*
X107851430Y-57319896D01*
X107814851Y-57402054D01*
X107778837Y-57484485D01*
X107776974Y-57487126D01*
X107774412Y-57492880D01*
X107722904Y-57563776D01*
X107673348Y-57634025D01*
X107668679Y-57638409D01*
X107663112Y-57646072D01*
X107600134Y-57702778D01*
X107539945Y-57759299D01*
X107531786Y-57764318D01*
X107522393Y-57772776D01*
X107451627Y-57813633D01*
X107384077Y-57855190D01*
X107372093Y-57859552D01*
X107358406Y-57867454D01*
X107283623Y-57891753D01*
X107212113Y-57917780D01*
X107196358Y-57920107D01*
X107178318Y-57925968D01*
X107103199Y-57933863D01*
X107031074Y-57944514D01*
X107012007Y-57943448D01*
X106990000Y-57945761D01*
X106917976Y-57938191D01*
X106848361Y-57934299D01*
X106826837Y-57928612D01*
X106801682Y-57925968D01*
X106735744Y-57904543D01*
X106671428Y-57887550D01*
X106648662Y-57876249D01*
X106621594Y-57867454D01*
X106564254Y-57834349D01*
X106507508Y-57806180D01*
X106484983Y-57788582D01*
X106457607Y-57772776D01*
X106410739Y-57730576D01*
X106363302Y-57693514D01*
X106342724Y-57669335D01*
X106316888Y-57646072D01*
X106281660Y-57597584D01*
X106244697Y-57554153D01*
X106227878Y-57523560D01*
X106205588Y-57492880D01*
X106182486Y-57440991D01*
X106156534Y-57393786D01*
X106145277Y-57357419D01*
X106128570Y-57319896D01*
X106117414Y-57267409D01*
X106102418Y-57218966D01*
X106098394Y-57177929D01*
X106089201Y-57134678D01*
X106089201Y-57084169D01*
X106084560Y-57036837D01*
X106089201Y-56992682D01*
X106089201Y-56945322D01*
X106099048Y-56898995D01*
X106103689Y-56854840D01*
X106118068Y-56809511D01*
X106128570Y-56760104D01*
X106146556Y-56719708D01*
X106159022Y-56680409D01*
X106183762Y-56636142D01*
X106205588Y-56587120D01*
X106229730Y-56553891D01*
X106248304Y-56520657D01*
X106283505Y-56479876D01*
X106316888Y-56433928D01*
X106345066Y-56408556D01*
X106367880Y-56382126D01*
X106413071Y-56347325D01*
X106457607Y-56307224D01*
X106487715Y-56289841D01*
X106512873Y-56270467D01*
X106566985Y-56244075D01*
X106621594Y-56212546D01*
X106651651Y-56202780D01*
X106677351Y-56190245D01*
X106738736Y-56174485D01*
X106801682Y-56154032D01*
X106829978Y-56151058D01*
X106854601Y-56144736D01*
X106921049Y-56141486D01*
X106990000Y-56134239D01*
X107015158Y-56136883D01*
G37*
G36*
X109555158Y-56136883D02*
G01*
X109577386Y-56135796D01*
X109646258Y-56146458D01*
X109718318Y-56154032D01*
X109739375Y-56160874D01*
X109758238Y-56163794D01*
X109826542Y-56189196D01*
X109898406Y-56212546D01*
X109914838Y-56222033D01*
X109929756Y-56227581D01*
X109994253Y-56267883D01*
X110062393Y-56307224D01*
X110074145Y-56317805D01*
X110084956Y-56324561D01*
X110142379Y-56379244D01*
X110203112Y-56433928D01*
X110210541Y-56444153D01*
X110217478Y-56450759D01*
X110264609Y-56518572D01*
X110314412Y-56587120D01*
X110318263Y-56595771D01*
X110321921Y-56601033D01*
X110355794Y-56680064D01*
X110391430Y-56760104D01*
X110392740Y-56766266D01*
X110394011Y-56769232D01*
X110412074Y-56857229D01*
X110430799Y-56945322D01*
X110430799Y-57134678D01*
X110430130Y-57137825D01*
X110430130Y-57137878D01*
X110392102Y-57316790D01*
X110392079Y-57316843D01*
X110391430Y-57319896D01*
X110354851Y-57402054D01*
X110318837Y-57484485D01*
X110316974Y-57487126D01*
X110314412Y-57492880D01*
X110262904Y-57563776D01*
X110213348Y-57634025D01*
X110208679Y-57638409D01*
X110203112Y-57646072D01*
X110140134Y-57702778D01*
X110079945Y-57759299D01*
X110071786Y-57764318D01*
X110062393Y-57772776D01*
X109991627Y-57813633D01*
X109924077Y-57855190D01*
X109912093Y-57859552D01*
X109898406Y-57867454D01*
X109823623Y-57891753D01*
X109752113Y-57917780D01*
X109736358Y-57920107D01*
X109718318Y-57925968D01*
X109643199Y-57933863D01*
X109571074Y-57944514D01*
X109552007Y-57943448D01*
X109530000Y-57945761D01*
X109457976Y-57938191D01*
X109388361Y-57934299D01*
X109366837Y-57928612D01*
X109341682Y-57925968D01*
X109275744Y-57904543D01*
X109211428Y-57887550D01*
X109188662Y-57876249D01*
X109161594Y-57867454D01*
X109104254Y-57834349D01*
X109047508Y-57806180D01*
X109024983Y-57788582D01*
X108997607Y-57772776D01*
X108950739Y-57730576D01*
X108903302Y-57693514D01*
X108882724Y-57669335D01*
X108856888Y-57646072D01*
X108821660Y-57597584D01*
X108784697Y-57554153D01*
X108767878Y-57523560D01*
X108745588Y-57492880D01*
X108722486Y-57440991D01*
X108696534Y-57393786D01*
X108685277Y-57357419D01*
X108668570Y-57319896D01*
X108657414Y-57267409D01*
X108642418Y-57218966D01*
X108638394Y-57177929D01*
X108629201Y-57134678D01*
X108629201Y-57084169D01*
X108624560Y-57036837D01*
X108629201Y-56992682D01*
X108629201Y-56945322D01*
X108639048Y-56898995D01*
X108643689Y-56854840D01*
X108658068Y-56809511D01*
X108668570Y-56760104D01*
X108686556Y-56719708D01*
X108699022Y-56680409D01*
X108723762Y-56636142D01*
X108745588Y-56587120D01*
X108769730Y-56553891D01*
X108788304Y-56520657D01*
X108823505Y-56479876D01*
X108856888Y-56433928D01*
X108885066Y-56408556D01*
X108907880Y-56382126D01*
X108953071Y-56347325D01*
X108997607Y-56307224D01*
X109027715Y-56289841D01*
X109052873Y-56270467D01*
X109106985Y-56244075D01*
X109161594Y-56212546D01*
X109191651Y-56202780D01*
X109217351Y-56190245D01*
X109278736Y-56174485D01*
X109341682Y-56154032D01*
X109369978Y-56151058D01*
X109394601Y-56144736D01*
X109461049Y-56141486D01*
X109530000Y-56134239D01*
X109555158Y-56136883D01*
G37*
G36*
X112095158Y-56136883D02*
G01*
X112117386Y-56135796D01*
X112186258Y-56146458D01*
X112258318Y-56154032D01*
X112279375Y-56160874D01*
X112298238Y-56163794D01*
X112366542Y-56189196D01*
X112438406Y-56212546D01*
X112454838Y-56222033D01*
X112469756Y-56227581D01*
X112534253Y-56267883D01*
X112602393Y-56307224D01*
X112614145Y-56317805D01*
X112624956Y-56324561D01*
X112682379Y-56379244D01*
X112743112Y-56433928D01*
X112750541Y-56444153D01*
X112757478Y-56450759D01*
X112804609Y-56518572D01*
X112854412Y-56587120D01*
X112858263Y-56595771D01*
X112861921Y-56601033D01*
X112895794Y-56680064D01*
X112931430Y-56760104D01*
X112932740Y-56766266D01*
X112934011Y-56769232D01*
X112952074Y-56857229D01*
X112970799Y-56945322D01*
X112970799Y-57134678D01*
X112970130Y-57137825D01*
X112970130Y-57137878D01*
X112932102Y-57316790D01*
X112932079Y-57316843D01*
X112931430Y-57319896D01*
X112894851Y-57402054D01*
X112858837Y-57484485D01*
X112856974Y-57487126D01*
X112854412Y-57492880D01*
X112802904Y-57563776D01*
X112753348Y-57634025D01*
X112748679Y-57638409D01*
X112743112Y-57646072D01*
X112680134Y-57702778D01*
X112619945Y-57759299D01*
X112611786Y-57764318D01*
X112602393Y-57772776D01*
X112531627Y-57813633D01*
X112464077Y-57855190D01*
X112452093Y-57859552D01*
X112438406Y-57867454D01*
X112363623Y-57891753D01*
X112292113Y-57917780D01*
X112276358Y-57920107D01*
X112258318Y-57925968D01*
X112183199Y-57933863D01*
X112111074Y-57944514D01*
X112092007Y-57943448D01*
X112070000Y-57945761D01*
X111997976Y-57938191D01*
X111928361Y-57934299D01*
X111906837Y-57928612D01*
X111881682Y-57925968D01*
X111815744Y-57904543D01*
X111751428Y-57887550D01*
X111728662Y-57876249D01*
X111701594Y-57867454D01*
X111644254Y-57834349D01*
X111587508Y-57806180D01*
X111564983Y-57788582D01*
X111537607Y-57772776D01*
X111490739Y-57730576D01*
X111443302Y-57693514D01*
X111422724Y-57669335D01*
X111396888Y-57646072D01*
X111361660Y-57597584D01*
X111324697Y-57554153D01*
X111307878Y-57523560D01*
X111285588Y-57492880D01*
X111262486Y-57440991D01*
X111236534Y-57393786D01*
X111225277Y-57357419D01*
X111208570Y-57319896D01*
X111197414Y-57267409D01*
X111182418Y-57218966D01*
X111178394Y-57177929D01*
X111169201Y-57134678D01*
X111169201Y-57084169D01*
X111164560Y-57036837D01*
X111169201Y-56992682D01*
X111169201Y-56945322D01*
X111179048Y-56898995D01*
X111183689Y-56854840D01*
X111198068Y-56809511D01*
X111208570Y-56760104D01*
X111226556Y-56719708D01*
X111239022Y-56680409D01*
X111263762Y-56636142D01*
X111285588Y-56587120D01*
X111309730Y-56553891D01*
X111328304Y-56520657D01*
X111363505Y-56479876D01*
X111396888Y-56433928D01*
X111425066Y-56408556D01*
X111447880Y-56382126D01*
X111493071Y-56347325D01*
X111537607Y-56307224D01*
X111567715Y-56289841D01*
X111592873Y-56270467D01*
X111646985Y-56244075D01*
X111701594Y-56212546D01*
X111731651Y-56202780D01*
X111757351Y-56190245D01*
X111818736Y-56174485D01*
X111881682Y-56154032D01*
X111909978Y-56151058D01*
X111934601Y-56144736D01*
X112001049Y-56141486D01*
X112070000Y-56134239D01*
X112095158Y-56136883D01*
G37*
G36*
X114635158Y-56136883D02*
G01*
X114657386Y-56135796D01*
X114726258Y-56146458D01*
X114798318Y-56154032D01*
X114819375Y-56160874D01*
X114838238Y-56163794D01*
X114906542Y-56189196D01*
X114978406Y-56212546D01*
X114994838Y-56222033D01*
X115009756Y-56227581D01*
X115074253Y-56267883D01*
X115142393Y-56307224D01*
X115154145Y-56317805D01*
X115164956Y-56324561D01*
X115222379Y-56379244D01*
X115283112Y-56433928D01*
X115290541Y-56444153D01*
X115297478Y-56450759D01*
X115344609Y-56518572D01*
X115394412Y-56587120D01*
X115398263Y-56595771D01*
X115401921Y-56601033D01*
X115435794Y-56680064D01*
X115471430Y-56760104D01*
X115472740Y-56766266D01*
X115474011Y-56769232D01*
X115492074Y-56857229D01*
X115510799Y-56945322D01*
X115510799Y-57134678D01*
X115510130Y-57137825D01*
X115510130Y-57137878D01*
X115472102Y-57316790D01*
X115472079Y-57316843D01*
X115471430Y-57319896D01*
X115434851Y-57402054D01*
X115398837Y-57484485D01*
X115396974Y-57487126D01*
X115394412Y-57492880D01*
X115342904Y-57563776D01*
X115293348Y-57634025D01*
X115288679Y-57638409D01*
X115283112Y-57646072D01*
X115220134Y-57702778D01*
X115159945Y-57759299D01*
X115151786Y-57764318D01*
X115142393Y-57772776D01*
X115071627Y-57813633D01*
X115004077Y-57855190D01*
X114992093Y-57859552D01*
X114978406Y-57867454D01*
X114903623Y-57891753D01*
X114832113Y-57917780D01*
X114816358Y-57920107D01*
X114798318Y-57925968D01*
X114723199Y-57933863D01*
X114651074Y-57944514D01*
X114632007Y-57943448D01*
X114610000Y-57945761D01*
X114537976Y-57938191D01*
X114468361Y-57934299D01*
X114446837Y-57928612D01*
X114421682Y-57925968D01*
X114355744Y-57904543D01*
X114291428Y-57887550D01*
X114268662Y-57876249D01*
X114241594Y-57867454D01*
X114184254Y-57834349D01*
X114127508Y-57806180D01*
X114104983Y-57788582D01*
X114077607Y-57772776D01*
X114030739Y-57730576D01*
X113983302Y-57693514D01*
X113962724Y-57669335D01*
X113936888Y-57646072D01*
X113901660Y-57597584D01*
X113864697Y-57554153D01*
X113847878Y-57523560D01*
X113825588Y-57492880D01*
X113802486Y-57440991D01*
X113776534Y-57393786D01*
X113765277Y-57357419D01*
X113748570Y-57319896D01*
X113737414Y-57267409D01*
X113722418Y-57218966D01*
X113718394Y-57177929D01*
X113709201Y-57134678D01*
X113709201Y-57084169D01*
X113704560Y-57036837D01*
X113709201Y-56992682D01*
X113709201Y-56945322D01*
X113719048Y-56898995D01*
X113723689Y-56854840D01*
X113738068Y-56809511D01*
X113748570Y-56760104D01*
X113766556Y-56719708D01*
X113779022Y-56680409D01*
X113803762Y-56636142D01*
X113825588Y-56587120D01*
X113849730Y-56553891D01*
X113868304Y-56520657D01*
X113903505Y-56479876D01*
X113936888Y-56433928D01*
X113965066Y-56408556D01*
X113987880Y-56382126D01*
X114033071Y-56347325D01*
X114077607Y-56307224D01*
X114107715Y-56289841D01*
X114132873Y-56270467D01*
X114186985Y-56244075D01*
X114241594Y-56212546D01*
X114271651Y-56202780D01*
X114297351Y-56190245D01*
X114358736Y-56174485D01*
X114421682Y-56154032D01*
X114449978Y-56151058D01*
X114474601Y-56144736D01*
X114541049Y-56141486D01*
X114610000Y-56134239D01*
X114635158Y-56136883D01*
G37*
G36*
X114635158Y-53596883D02*
G01*
X114657386Y-53595796D01*
X114726258Y-53606458D01*
X114798318Y-53614032D01*
X114819375Y-53620874D01*
X114838238Y-53623794D01*
X114906542Y-53649196D01*
X114978406Y-53672546D01*
X114994838Y-53682033D01*
X115009756Y-53687581D01*
X115074253Y-53727883D01*
X115142393Y-53767224D01*
X115154145Y-53777805D01*
X115164956Y-53784561D01*
X115222379Y-53839244D01*
X115283112Y-53893928D01*
X115290541Y-53904153D01*
X115297478Y-53910759D01*
X115344609Y-53978572D01*
X115394412Y-54047120D01*
X115398263Y-54055771D01*
X115401921Y-54061033D01*
X115435794Y-54140064D01*
X115471430Y-54220104D01*
X115472740Y-54226266D01*
X115474011Y-54229232D01*
X115492074Y-54317229D01*
X115510799Y-54405322D01*
X115510799Y-54594678D01*
X115510130Y-54597825D01*
X115510130Y-54597878D01*
X115472102Y-54776790D01*
X115472079Y-54776843D01*
X115471430Y-54779896D01*
X115434851Y-54862054D01*
X115398837Y-54944485D01*
X115396974Y-54947126D01*
X115394412Y-54952880D01*
X115342904Y-55023776D01*
X115293348Y-55094025D01*
X115288679Y-55098409D01*
X115283112Y-55106072D01*
X115220134Y-55162778D01*
X115159945Y-55219299D01*
X115151786Y-55224318D01*
X115142393Y-55232776D01*
X115071627Y-55273633D01*
X115004077Y-55315190D01*
X114992093Y-55319552D01*
X114978406Y-55327454D01*
X114903623Y-55351753D01*
X114832113Y-55377780D01*
X114816358Y-55380107D01*
X114798318Y-55385968D01*
X114723199Y-55393863D01*
X114651074Y-55404514D01*
X114632007Y-55403448D01*
X114610000Y-55405761D01*
X114537976Y-55398191D01*
X114468361Y-55394299D01*
X114446837Y-55388612D01*
X114421682Y-55385968D01*
X114355744Y-55364543D01*
X114291428Y-55347550D01*
X114268662Y-55336249D01*
X114241594Y-55327454D01*
X114184254Y-55294349D01*
X114127508Y-55266180D01*
X114104983Y-55248582D01*
X114077607Y-55232776D01*
X114030739Y-55190576D01*
X113983302Y-55153514D01*
X113962724Y-55129335D01*
X113936888Y-55106072D01*
X113901660Y-55057584D01*
X113864697Y-55014153D01*
X113847878Y-54983560D01*
X113825588Y-54952880D01*
X113802486Y-54900991D01*
X113776534Y-54853786D01*
X113765277Y-54817419D01*
X113748570Y-54779896D01*
X113737414Y-54727409D01*
X113722418Y-54678966D01*
X113718394Y-54637929D01*
X113709201Y-54594678D01*
X113709201Y-54544169D01*
X113704560Y-54496837D01*
X113709201Y-54452682D01*
X113709201Y-54405322D01*
X113719048Y-54358995D01*
X113723689Y-54314840D01*
X113738068Y-54269511D01*
X113748570Y-54220104D01*
X113766556Y-54179708D01*
X113779022Y-54140409D01*
X113803762Y-54096142D01*
X113825588Y-54047120D01*
X113849730Y-54013891D01*
X113868304Y-53980657D01*
X113903505Y-53939876D01*
X113936888Y-53893928D01*
X113965066Y-53868556D01*
X113987880Y-53842126D01*
X114033071Y-53807325D01*
X114077607Y-53767224D01*
X114107715Y-53749841D01*
X114132873Y-53730467D01*
X114186985Y-53704075D01*
X114241594Y-53672546D01*
X114271651Y-53662780D01*
X114297351Y-53650245D01*
X114358736Y-53634485D01*
X114421682Y-53614032D01*
X114449978Y-53611058D01*
X114474601Y-53604736D01*
X114541049Y-53601486D01*
X114610000Y-53594239D01*
X114635158Y-53596883D01*
G37*
G36*
X112095158Y-53596883D02*
G01*
X112117386Y-53595796D01*
X112186258Y-53606458D01*
X112258318Y-53614032D01*
X112279375Y-53620874D01*
X112298238Y-53623794D01*
X112366542Y-53649196D01*
X112438406Y-53672546D01*
X112454838Y-53682033D01*
X112469756Y-53687581D01*
X112534253Y-53727883D01*
X112602393Y-53767224D01*
X112614145Y-53777805D01*
X112624956Y-53784561D01*
X112682379Y-53839244D01*
X112743112Y-53893928D01*
X112750541Y-53904153D01*
X112757478Y-53910759D01*
X112804609Y-53978572D01*
X112854412Y-54047120D01*
X112858263Y-54055771D01*
X112861921Y-54061033D01*
X112895794Y-54140064D01*
X112931430Y-54220104D01*
X112932740Y-54226266D01*
X112934011Y-54229232D01*
X112952074Y-54317229D01*
X112970799Y-54405322D01*
X112970799Y-54594678D01*
X112970130Y-54597825D01*
X112970130Y-54597878D01*
X112932102Y-54776790D01*
X112932079Y-54776843D01*
X112931430Y-54779896D01*
X112894851Y-54862054D01*
X112858837Y-54944485D01*
X112856974Y-54947126D01*
X112854412Y-54952880D01*
X112802904Y-55023776D01*
X112753348Y-55094025D01*
X112748679Y-55098409D01*
X112743112Y-55106072D01*
X112680134Y-55162778D01*
X112619945Y-55219299D01*
X112611786Y-55224318D01*
X112602393Y-55232776D01*
X112531627Y-55273633D01*
X112464077Y-55315190D01*
X112452093Y-55319552D01*
X112438406Y-55327454D01*
X112363623Y-55351753D01*
X112292113Y-55377780D01*
X112276358Y-55380107D01*
X112258318Y-55385968D01*
X112183199Y-55393863D01*
X112111074Y-55404514D01*
X112092007Y-55403448D01*
X112070000Y-55405761D01*
X111997976Y-55398191D01*
X111928361Y-55394299D01*
X111906837Y-55388612D01*
X111881682Y-55385968D01*
X111815744Y-55364543D01*
X111751428Y-55347550D01*
X111728662Y-55336249D01*
X111701594Y-55327454D01*
X111644254Y-55294349D01*
X111587508Y-55266180D01*
X111564983Y-55248582D01*
X111537607Y-55232776D01*
X111490739Y-55190576D01*
X111443302Y-55153514D01*
X111422724Y-55129335D01*
X111396888Y-55106072D01*
X111361660Y-55057584D01*
X111324697Y-55014153D01*
X111307878Y-54983560D01*
X111285588Y-54952880D01*
X111262486Y-54900991D01*
X111236534Y-54853786D01*
X111225277Y-54817419D01*
X111208570Y-54779896D01*
X111197414Y-54727409D01*
X111182418Y-54678966D01*
X111178394Y-54637929D01*
X111169201Y-54594678D01*
X111169201Y-54544169D01*
X111164560Y-54496837D01*
X111169201Y-54452682D01*
X111169201Y-54405322D01*
X111179048Y-54358995D01*
X111183689Y-54314840D01*
X111198068Y-54269511D01*
X111208570Y-54220104D01*
X111226556Y-54179708D01*
X111239022Y-54140409D01*
X111263762Y-54096142D01*
X111285588Y-54047120D01*
X111309730Y-54013891D01*
X111328304Y-53980657D01*
X111363505Y-53939876D01*
X111396888Y-53893928D01*
X111425066Y-53868556D01*
X111447880Y-53842126D01*
X111493071Y-53807325D01*
X111537607Y-53767224D01*
X111567715Y-53749841D01*
X111592873Y-53730467D01*
X111646985Y-53704075D01*
X111701594Y-53672546D01*
X111731651Y-53662780D01*
X111757351Y-53650245D01*
X111818736Y-53634485D01*
X111881682Y-53614032D01*
X111909978Y-53611058D01*
X111934601Y-53604736D01*
X112001049Y-53601486D01*
X112070000Y-53594239D01*
X112095158Y-53596883D01*
G37*
G36*
X96855158Y-53596883D02*
G01*
X96877386Y-53595796D01*
X96946258Y-53606458D01*
X97018318Y-53614032D01*
X97039375Y-53620874D01*
X97058238Y-53623794D01*
X97126542Y-53649196D01*
X97198406Y-53672546D01*
X97214838Y-53682033D01*
X97229756Y-53687581D01*
X97294253Y-53727883D01*
X97362393Y-53767224D01*
X97374145Y-53777805D01*
X97384956Y-53784561D01*
X97442379Y-53839244D01*
X97503112Y-53893928D01*
X97510541Y-53904153D01*
X97517478Y-53910759D01*
X97564609Y-53978572D01*
X97614412Y-54047120D01*
X97618263Y-54055771D01*
X97621921Y-54061033D01*
X97655794Y-54140064D01*
X97691430Y-54220104D01*
X97692740Y-54226266D01*
X97694011Y-54229232D01*
X97712074Y-54317229D01*
X97730799Y-54405322D01*
X97730799Y-54594678D01*
X97730130Y-54597825D01*
X97730130Y-54597878D01*
X97692102Y-54776790D01*
X97692079Y-54776843D01*
X97691430Y-54779896D01*
X97654851Y-54862054D01*
X97618837Y-54944485D01*
X97616974Y-54947126D01*
X97614412Y-54952880D01*
X97562904Y-55023776D01*
X97513348Y-55094025D01*
X97508679Y-55098409D01*
X97503112Y-55106072D01*
X97440134Y-55162778D01*
X97379945Y-55219299D01*
X97371786Y-55224318D01*
X97362393Y-55232776D01*
X97291627Y-55273633D01*
X97224077Y-55315190D01*
X97212093Y-55319552D01*
X97198406Y-55327454D01*
X97123623Y-55351753D01*
X97052113Y-55377780D01*
X97036358Y-55380107D01*
X97018318Y-55385968D01*
X96943199Y-55393863D01*
X96871074Y-55404514D01*
X96852007Y-55403448D01*
X96830000Y-55405761D01*
X96757976Y-55398191D01*
X96688361Y-55394299D01*
X96666837Y-55388612D01*
X96641682Y-55385968D01*
X96575744Y-55364543D01*
X96511428Y-55347550D01*
X96488662Y-55336249D01*
X96461594Y-55327454D01*
X96404254Y-55294349D01*
X96347508Y-55266180D01*
X96324983Y-55248582D01*
X96297607Y-55232776D01*
X96250739Y-55190576D01*
X96203302Y-55153514D01*
X96182724Y-55129335D01*
X96156888Y-55106072D01*
X96121660Y-55057584D01*
X96084697Y-55014153D01*
X96067878Y-54983560D01*
X96045588Y-54952880D01*
X96022486Y-54900991D01*
X95996534Y-54853786D01*
X95985277Y-54817419D01*
X95968570Y-54779896D01*
X95957414Y-54727409D01*
X95942418Y-54678966D01*
X95938394Y-54637929D01*
X95929201Y-54594678D01*
X95929201Y-54544169D01*
X95924560Y-54496837D01*
X95929201Y-54452682D01*
X95929201Y-54405322D01*
X95939048Y-54358995D01*
X95943689Y-54314840D01*
X95958068Y-54269511D01*
X95968570Y-54220104D01*
X95986556Y-54179708D01*
X95999022Y-54140409D01*
X96023762Y-54096142D01*
X96045588Y-54047120D01*
X96069730Y-54013891D01*
X96088304Y-53980657D01*
X96123505Y-53939876D01*
X96156888Y-53893928D01*
X96185066Y-53868556D01*
X96207880Y-53842126D01*
X96253071Y-53807325D01*
X96297607Y-53767224D01*
X96327715Y-53749841D01*
X96352873Y-53730467D01*
X96406985Y-53704075D01*
X96461594Y-53672546D01*
X96491651Y-53662780D01*
X96517351Y-53650245D01*
X96578736Y-53634485D01*
X96641682Y-53614032D01*
X96669978Y-53611058D01*
X96694601Y-53604736D01*
X96761049Y-53601486D01*
X96830000Y-53594239D01*
X96855158Y-53596883D01*
G37*
G36*
X109555158Y-53596883D02*
G01*
X109577386Y-53595796D01*
X109646258Y-53606458D01*
X109718318Y-53614032D01*
X109739375Y-53620874D01*
X109758238Y-53623794D01*
X109826542Y-53649196D01*
X109898406Y-53672546D01*
X109914838Y-53682033D01*
X109929756Y-53687581D01*
X109994253Y-53727883D01*
X110062393Y-53767224D01*
X110074145Y-53777805D01*
X110084956Y-53784561D01*
X110142379Y-53839244D01*
X110203112Y-53893928D01*
X110210541Y-53904153D01*
X110217478Y-53910759D01*
X110264609Y-53978572D01*
X110314412Y-54047120D01*
X110318263Y-54055771D01*
X110321921Y-54061033D01*
X110355794Y-54140064D01*
X110391430Y-54220104D01*
X110392740Y-54226266D01*
X110394011Y-54229232D01*
X110412074Y-54317229D01*
X110430799Y-54405322D01*
X110430799Y-54594678D01*
X110430130Y-54597825D01*
X110430130Y-54597878D01*
X110392102Y-54776790D01*
X110392079Y-54776843D01*
X110391430Y-54779896D01*
X110354851Y-54862054D01*
X110318837Y-54944485D01*
X110316974Y-54947126D01*
X110314412Y-54952880D01*
X110262904Y-55023776D01*
X110213348Y-55094025D01*
X110208679Y-55098409D01*
X110203112Y-55106072D01*
X110140134Y-55162778D01*
X110079945Y-55219299D01*
X110071786Y-55224318D01*
X110062393Y-55232776D01*
X109991627Y-55273633D01*
X109924077Y-55315190D01*
X109912093Y-55319552D01*
X109898406Y-55327454D01*
X109823623Y-55351753D01*
X109752113Y-55377780D01*
X109736358Y-55380107D01*
X109718318Y-55385968D01*
X109643199Y-55393863D01*
X109571074Y-55404514D01*
X109552007Y-55403448D01*
X109530000Y-55405761D01*
X109457976Y-55398191D01*
X109388361Y-55394299D01*
X109366837Y-55388612D01*
X109341682Y-55385968D01*
X109275744Y-55364543D01*
X109211428Y-55347550D01*
X109188662Y-55336249D01*
X109161594Y-55327454D01*
X109104254Y-55294349D01*
X109047508Y-55266180D01*
X109024983Y-55248582D01*
X108997607Y-55232776D01*
X108950739Y-55190576D01*
X108903302Y-55153514D01*
X108882724Y-55129335D01*
X108856888Y-55106072D01*
X108821660Y-55057584D01*
X108784697Y-55014153D01*
X108767878Y-54983560D01*
X108745588Y-54952880D01*
X108722486Y-54900991D01*
X108696534Y-54853786D01*
X108685277Y-54817419D01*
X108668570Y-54779896D01*
X108657414Y-54727409D01*
X108642418Y-54678966D01*
X108638394Y-54637929D01*
X108629201Y-54594678D01*
X108629201Y-54544169D01*
X108624560Y-54496837D01*
X108629201Y-54452682D01*
X108629201Y-54405322D01*
X108639048Y-54358995D01*
X108643689Y-54314840D01*
X108658068Y-54269511D01*
X108668570Y-54220104D01*
X108686556Y-54179708D01*
X108699022Y-54140409D01*
X108723762Y-54096142D01*
X108745588Y-54047120D01*
X108769730Y-54013891D01*
X108788304Y-53980657D01*
X108823505Y-53939876D01*
X108856888Y-53893928D01*
X108885066Y-53868556D01*
X108907880Y-53842126D01*
X108953071Y-53807325D01*
X108997607Y-53767224D01*
X109027715Y-53749841D01*
X109052873Y-53730467D01*
X109106985Y-53704075D01*
X109161594Y-53672546D01*
X109191651Y-53662780D01*
X109217351Y-53650245D01*
X109278736Y-53634485D01*
X109341682Y-53614032D01*
X109369978Y-53611058D01*
X109394601Y-53604736D01*
X109461049Y-53601486D01*
X109530000Y-53594239D01*
X109555158Y-53596883D01*
G37*
G36*
X107015158Y-53596883D02*
G01*
X107037386Y-53595796D01*
X107106258Y-53606458D01*
X107178318Y-53614032D01*
X107199375Y-53620874D01*
X107218238Y-53623794D01*
X107286542Y-53649196D01*
X107358406Y-53672546D01*
X107374838Y-53682033D01*
X107389756Y-53687581D01*
X107454253Y-53727883D01*
X107522393Y-53767224D01*
X107534145Y-53777805D01*
X107544956Y-53784561D01*
X107602379Y-53839244D01*
X107663112Y-53893928D01*
X107670541Y-53904153D01*
X107677478Y-53910759D01*
X107724609Y-53978572D01*
X107774412Y-54047120D01*
X107778263Y-54055771D01*
X107781921Y-54061033D01*
X107815794Y-54140064D01*
X107851430Y-54220104D01*
X107852740Y-54226266D01*
X107854011Y-54229232D01*
X107872074Y-54317229D01*
X107890799Y-54405322D01*
X107890799Y-54594678D01*
X107890130Y-54597825D01*
X107890130Y-54597878D01*
X107852102Y-54776790D01*
X107852079Y-54776843D01*
X107851430Y-54779896D01*
X107814851Y-54862054D01*
X107778837Y-54944485D01*
X107776974Y-54947126D01*
X107774412Y-54952880D01*
X107722904Y-55023776D01*
X107673348Y-55094025D01*
X107668679Y-55098409D01*
X107663112Y-55106072D01*
X107600134Y-55162778D01*
X107539945Y-55219299D01*
X107531786Y-55224318D01*
X107522393Y-55232776D01*
X107451627Y-55273633D01*
X107384077Y-55315190D01*
X107372093Y-55319552D01*
X107358406Y-55327454D01*
X107283623Y-55351753D01*
X107212113Y-55377780D01*
X107196358Y-55380107D01*
X107178318Y-55385968D01*
X107103199Y-55393863D01*
X107031074Y-55404514D01*
X107012007Y-55403448D01*
X106990000Y-55405761D01*
X106917976Y-55398191D01*
X106848361Y-55394299D01*
X106826837Y-55388612D01*
X106801682Y-55385968D01*
X106735744Y-55364543D01*
X106671428Y-55347550D01*
X106648662Y-55336249D01*
X106621594Y-55327454D01*
X106564254Y-55294349D01*
X106507508Y-55266180D01*
X106484983Y-55248582D01*
X106457607Y-55232776D01*
X106410739Y-55190576D01*
X106363302Y-55153514D01*
X106342724Y-55129335D01*
X106316888Y-55106072D01*
X106281660Y-55057584D01*
X106244697Y-55014153D01*
X106227878Y-54983560D01*
X106205588Y-54952880D01*
X106182486Y-54900991D01*
X106156534Y-54853786D01*
X106145277Y-54817419D01*
X106128570Y-54779896D01*
X106117414Y-54727409D01*
X106102418Y-54678966D01*
X106098394Y-54637929D01*
X106089201Y-54594678D01*
X106089201Y-54544169D01*
X106084560Y-54496837D01*
X106089201Y-54452682D01*
X106089201Y-54405322D01*
X106099048Y-54358995D01*
X106103689Y-54314840D01*
X106118068Y-54269511D01*
X106128570Y-54220104D01*
X106146556Y-54179708D01*
X106159022Y-54140409D01*
X106183762Y-54096142D01*
X106205588Y-54047120D01*
X106229730Y-54013891D01*
X106248304Y-53980657D01*
X106283505Y-53939876D01*
X106316888Y-53893928D01*
X106345066Y-53868556D01*
X106367880Y-53842126D01*
X106413071Y-53807325D01*
X106457607Y-53767224D01*
X106487715Y-53749841D01*
X106512873Y-53730467D01*
X106566985Y-53704075D01*
X106621594Y-53672546D01*
X106651651Y-53662780D01*
X106677351Y-53650245D01*
X106738736Y-53634485D01*
X106801682Y-53614032D01*
X106829978Y-53611058D01*
X106854601Y-53604736D01*
X106921049Y-53601486D01*
X106990000Y-53594239D01*
X107015158Y-53596883D01*
G37*
G36*
X99395158Y-53596883D02*
G01*
X99417386Y-53595796D01*
X99486258Y-53606458D01*
X99558318Y-53614032D01*
X99579375Y-53620874D01*
X99598238Y-53623794D01*
X99666542Y-53649196D01*
X99738406Y-53672546D01*
X99754838Y-53682033D01*
X99769756Y-53687581D01*
X99834253Y-53727883D01*
X99902393Y-53767224D01*
X99914145Y-53777805D01*
X99924956Y-53784561D01*
X99982379Y-53839244D01*
X100043112Y-53893928D01*
X100050541Y-53904153D01*
X100057478Y-53910759D01*
X100104609Y-53978572D01*
X100154412Y-54047120D01*
X100158263Y-54055771D01*
X100161921Y-54061033D01*
X100195794Y-54140064D01*
X100231430Y-54220104D01*
X100232740Y-54226266D01*
X100234011Y-54229232D01*
X100252074Y-54317229D01*
X100270799Y-54405322D01*
X100270799Y-54594678D01*
X100270130Y-54597825D01*
X100270130Y-54597878D01*
X100232102Y-54776790D01*
X100232079Y-54776843D01*
X100231430Y-54779896D01*
X100194851Y-54862054D01*
X100158837Y-54944485D01*
X100156974Y-54947126D01*
X100154412Y-54952880D01*
X100102904Y-55023776D01*
X100053348Y-55094025D01*
X100048679Y-55098409D01*
X100043112Y-55106072D01*
X99980134Y-55162778D01*
X99919945Y-55219299D01*
X99911786Y-55224318D01*
X99902393Y-55232776D01*
X99831627Y-55273633D01*
X99764077Y-55315190D01*
X99752093Y-55319552D01*
X99738406Y-55327454D01*
X99663623Y-55351753D01*
X99592113Y-55377780D01*
X99576358Y-55380107D01*
X99558318Y-55385968D01*
X99483199Y-55393863D01*
X99411074Y-55404514D01*
X99392007Y-55403448D01*
X99370000Y-55405761D01*
X99297976Y-55398191D01*
X99228361Y-55394299D01*
X99206837Y-55388612D01*
X99181682Y-55385968D01*
X99115744Y-55364543D01*
X99051428Y-55347550D01*
X99028662Y-55336249D01*
X99001594Y-55327454D01*
X98944254Y-55294349D01*
X98887508Y-55266180D01*
X98864983Y-55248582D01*
X98837607Y-55232776D01*
X98790739Y-55190576D01*
X98743302Y-55153514D01*
X98722724Y-55129335D01*
X98696888Y-55106072D01*
X98661660Y-55057584D01*
X98624697Y-55014153D01*
X98607878Y-54983560D01*
X98585588Y-54952880D01*
X98562486Y-54900991D01*
X98536534Y-54853786D01*
X98525277Y-54817419D01*
X98508570Y-54779896D01*
X98497414Y-54727409D01*
X98482418Y-54678966D01*
X98478394Y-54637929D01*
X98469201Y-54594678D01*
X98469201Y-54544169D01*
X98464560Y-54496837D01*
X98469201Y-54452682D01*
X98469201Y-54405322D01*
X98479048Y-54358995D01*
X98483689Y-54314840D01*
X98498068Y-54269511D01*
X98508570Y-54220104D01*
X98526556Y-54179708D01*
X98539022Y-54140409D01*
X98563762Y-54096142D01*
X98585588Y-54047120D01*
X98609730Y-54013891D01*
X98628304Y-53980657D01*
X98663505Y-53939876D01*
X98696888Y-53893928D01*
X98725066Y-53868556D01*
X98747880Y-53842126D01*
X98793071Y-53807325D01*
X98837607Y-53767224D01*
X98867715Y-53749841D01*
X98892873Y-53730467D01*
X98946985Y-53704075D01*
X99001594Y-53672546D01*
X99031651Y-53662780D01*
X99057351Y-53650245D01*
X99118736Y-53634485D01*
X99181682Y-53614032D01*
X99209978Y-53611058D01*
X99234601Y-53604736D01*
X99301049Y-53601486D01*
X99370000Y-53594239D01*
X99395158Y-53596883D01*
G37*
G36*
X104475158Y-53596883D02*
G01*
X104497386Y-53595796D01*
X104566258Y-53606458D01*
X104638318Y-53614032D01*
X104659375Y-53620874D01*
X104678238Y-53623794D01*
X104746542Y-53649196D01*
X104818406Y-53672546D01*
X104834838Y-53682033D01*
X104849756Y-53687581D01*
X104914253Y-53727883D01*
X104982393Y-53767224D01*
X104994145Y-53777805D01*
X105004956Y-53784561D01*
X105062379Y-53839244D01*
X105123112Y-53893928D01*
X105130541Y-53904153D01*
X105137478Y-53910759D01*
X105184609Y-53978572D01*
X105234412Y-54047120D01*
X105238263Y-54055771D01*
X105241921Y-54061033D01*
X105275794Y-54140064D01*
X105311430Y-54220104D01*
X105312740Y-54226266D01*
X105314011Y-54229232D01*
X105332074Y-54317229D01*
X105350799Y-54405322D01*
X105350799Y-54594678D01*
X105350130Y-54597825D01*
X105350130Y-54597878D01*
X105312102Y-54776790D01*
X105312079Y-54776843D01*
X105311430Y-54779896D01*
X105274851Y-54862054D01*
X105238837Y-54944485D01*
X105236974Y-54947126D01*
X105234412Y-54952880D01*
X105182904Y-55023776D01*
X105133348Y-55094025D01*
X105128679Y-55098409D01*
X105123112Y-55106072D01*
X105060134Y-55162778D01*
X104999945Y-55219299D01*
X104991786Y-55224318D01*
X104982393Y-55232776D01*
X104911627Y-55273633D01*
X104844077Y-55315190D01*
X104832093Y-55319552D01*
X104818406Y-55327454D01*
X104743623Y-55351753D01*
X104672113Y-55377780D01*
X104656358Y-55380107D01*
X104638318Y-55385968D01*
X104563199Y-55393863D01*
X104491074Y-55404514D01*
X104472007Y-55403448D01*
X104450000Y-55405761D01*
X104377976Y-55398191D01*
X104308361Y-55394299D01*
X104286837Y-55388612D01*
X104261682Y-55385968D01*
X104195744Y-55364543D01*
X104131428Y-55347550D01*
X104108662Y-55336249D01*
X104081594Y-55327454D01*
X104024254Y-55294349D01*
X103967508Y-55266180D01*
X103944983Y-55248582D01*
X103917607Y-55232776D01*
X103870739Y-55190576D01*
X103823302Y-55153514D01*
X103802724Y-55129335D01*
X103776888Y-55106072D01*
X103741660Y-55057584D01*
X103704697Y-55014153D01*
X103687878Y-54983560D01*
X103665588Y-54952880D01*
X103642486Y-54900991D01*
X103616534Y-54853786D01*
X103605277Y-54817419D01*
X103588570Y-54779896D01*
X103577414Y-54727409D01*
X103562418Y-54678966D01*
X103558394Y-54637929D01*
X103549201Y-54594678D01*
X103549201Y-54544169D01*
X103544560Y-54496837D01*
X103549201Y-54452682D01*
X103549201Y-54405322D01*
X103559048Y-54358995D01*
X103563689Y-54314840D01*
X103578068Y-54269511D01*
X103588570Y-54220104D01*
X103606556Y-54179708D01*
X103619022Y-54140409D01*
X103643762Y-54096142D01*
X103665588Y-54047120D01*
X103689730Y-54013891D01*
X103708304Y-53980657D01*
X103743505Y-53939876D01*
X103776888Y-53893928D01*
X103805066Y-53868556D01*
X103827880Y-53842126D01*
X103873071Y-53807325D01*
X103917607Y-53767224D01*
X103947715Y-53749841D01*
X103972873Y-53730467D01*
X104026985Y-53704075D01*
X104081594Y-53672546D01*
X104111651Y-53662780D01*
X104137351Y-53650245D01*
X104198736Y-53634485D01*
X104261682Y-53614032D01*
X104289978Y-53611058D01*
X104314601Y-53604736D01*
X104381049Y-53601486D01*
X104450000Y-53594239D01*
X104475158Y-53596883D01*
G37*
G36*
X101935158Y-53596883D02*
G01*
X101957386Y-53595796D01*
X102026258Y-53606458D01*
X102098318Y-53614032D01*
X102119375Y-53620874D01*
X102138238Y-53623794D01*
X102206542Y-53649196D01*
X102278406Y-53672546D01*
X102294838Y-53682033D01*
X102309756Y-53687581D01*
X102374253Y-53727883D01*
X102442393Y-53767224D01*
X102454145Y-53777805D01*
X102464956Y-53784561D01*
X102522379Y-53839244D01*
X102583112Y-53893928D01*
X102590541Y-53904153D01*
X102597478Y-53910759D01*
X102644609Y-53978572D01*
X102694412Y-54047120D01*
X102698263Y-54055771D01*
X102701921Y-54061033D01*
X102735794Y-54140064D01*
X102771430Y-54220104D01*
X102772740Y-54226266D01*
X102774011Y-54229232D01*
X102792074Y-54317229D01*
X102810799Y-54405322D01*
X102810799Y-54594678D01*
X102810130Y-54597825D01*
X102810130Y-54597878D01*
X102772102Y-54776790D01*
X102772079Y-54776843D01*
X102771430Y-54779896D01*
X102734851Y-54862054D01*
X102698837Y-54944485D01*
X102696974Y-54947126D01*
X102694412Y-54952880D01*
X102642904Y-55023776D01*
X102593348Y-55094025D01*
X102588679Y-55098409D01*
X102583112Y-55106072D01*
X102520134Y-55162778D01*
X102459945Y-55219299D01*
X102451786Y-55224318D01*
X102442393Y-55232776D01*
X102371627Y-55273633D01*
X102304077Y-55315190D01*
X102292093Y-55319552D01*
X102278406Y-55327454D01*
X102203623Y-55351753D01*
X102132113Y-55377780D01*
X102116358Y-55380107D01*
X102098318Y-55385968D01*
X102023199Y-55393863D01*
X101951074Y-55404514D01*
X101932007Y-55403448D01*
X101910000Y-55405761D01*
X101837976Y-55398191D01*
X101768361Y-55394299D01*
X101746837Y-55388612D01*
X101721682Y-55385968D01*
X101655744Y-55364543D01*
X101591428Y-55347550D01*
X101568662Y-55336249D01*
X101541594Y-55327454D01*
X101484254Y-55294349D01*
X101427508Y-55266180D01*
X101404983Y-55248582D01*
X101377607Y-55232776D01*
X101330739Y-55190576D01*
X101283302Y-55153514D01*
X101262724Y-55129335D01*
X101236888Y-55106072D01*
X101201660Y-55057584D01*
X101164697Y-55014153D01*
X101147878Y-54983560D01*
X101125588Y-54952880D01*
X101102486Y-54900991D01*
X101076534Y-54853786D01*
X101065277Y-54817419D01*
X101048570Y-54779896D01*
X101037414Y-54727409D01*
X101022418Y-54678966D01*
X101018394Y-54637929D01*
X101009201Y-54594678D01*
X101009201Y-54544169D01*
X101004560Y-54496837D01*
X101009201Y-54452682D01*
X101009201Y-54405322D01*
X101019048Y-54358995D01*
X101023689Y-54314840D01*
X101038068Y-54269511D01*
X101048570Y-54220104D01*
X101066556Y-54179708D01*
X101079022Y-54140409D01*
X101103762Y-54096142D01*
X101125588Y-54047120D01*
X101149730Y-54013891D01*
X101168304Y-53980657D01*
X101203505Y-53939876D01*
X101236888Y-53893928D01*
X101265066Y-53868556D01*
X101287880Y-53842126D01*
X101333071Y-53807325D01*
X101377607Y-53767224D01*
X101407715Y-53749841D01*
X101432873Y-53730467D01*
X101486985Y-53704075D01*
X101541594Y-53672546D01*
X101571651Y-53662780D01*
X101597351Y-53650245D01*
X101658736Y-53634485D01*
X101721682Y-53614032D01*
X101749978Y-53611058D01*
X101774601Y-53604736D01*
X101841049Y-53601486D01*
X101910000Y-53594239D01*
X101935158Y-53596883D01*
G37*
G36*
X118019822Y-53602148D02*
G01*
X118036625Y-53613375D01*
X118047852Y-53630178D01*
X118052785Y-53654975D01*
X118052785Y-55345025D01*
X118047852Y-55369822D01*
X118036625Y-55386625D01*
X118019822Y-55397852D01*
X117995025Y-55402785D01*
X116304975Y-55402785D01*
X116280178Y-55397852D01*
X116263375Y-55386625D01*
X116252148Y-55369822D01*
X116247215Y-55345025D01*
X116247215Y-53654975D01*
X116252148Y-53630178D01*
X116263375Y-53613375D01*
X116280178Y-53602148D01*
X116304975Y-53597215D01*
X117995025Y-53597215D01*
X118019822Y-53602148D01*
G37*
M02*
