G04 #@! TF.GenerationSoftware,KiCad,Pcbnew,5.99.0-unknown-308ab8caf~106~ubuntu18.04.1*
G04 #@! TF.CreationDate,2020-12-14T20:09:44-08:00*
G04 #@! TF.ProjectId,signal-board,7369676e-616c-42d6-926f-6172642e6b69,rev?*
G04 #@! TF.SameCoordinates,Original*
G04 #@! TF.FileFunction,Soldermask,Top*
G04 #@! TF.FilePolarity,Negative*
%FSLAX46Y46*%
G04 Gerber Fmt 4.6, Leading zero omitted, Abs format (unit mm)*
G04 Created by KiCad (PCBNEW 5.99.0-unknown-308ab8caf~106~ubuntu18.04.1) date 2020-12-14 20:09:44*
%MOMM*%
%LPD*%
G01*
G04 APERTURE LIST*
G04 Aperture macros list*
%AMRoundRect*
0 Rectangle with rounded corners*
0 $1 Rounding radius*
0 $2 $3 $4 $5 $6 $7 $8 $9 X,Y pos of 4 corners*
0 Add a 4 corners polygon primitive as box body*
4,1,4,$2,$3,$4,$5,$6,$7,$8,$9,$2,$3,0*
0 Add four circle primitives for the rounded corners*
1,1,$1+$1,$2,$3,0*
1,1,$1+$1,$4,$5,0*
1,1,$1+$1,$6,$7,0*
1,1,$1+$1,$8,$9,0*
0 Add four rect primitives between the rounded corners*
20,1,$1+$1,$2,$3,$4,$5,0*
20,1,$1+$1,$4,$5,$6,$7,0*
20,1,$1+$1,$6,$7,$8,$9,0*
20,1,$1+$1,$8,$9,$2,$3,0*%
G04 Aperture macros list end*
G04 #@! TA.AperFunction,Profile*
%ADD10C,0.100000*%
G04 #@! TD*
G04 #@! TA.AperFunction,Profile*
%ADD11C,0.120000*%
G04 #@! TD*
%ADD12RoundRect,0.050800X0.850000X-0.850000X0.850000X0.850000X-0.850000X0.850000X-0.850000X-0.850000X0*%
%ADD13O,1.801600X1.801600*%
%ADD14O,2.601600X5.101600*%
%ADD15O,2.351600X4.601600*%
%ADD16O,4.601600X2.351600*%
%ADD17C,1.101600*%
%ADD18RoundRect,0.050800X-2.500000X-0.500000X2.500000X-0.500000X2.500000X0.500000X-2.500000X0.500000X0*%
%ADD19RoundRect,0.050800X0.780000X-0.780000X0.780000X0.780000X-0.780000X0.780000X-0.780000X-0.780000X0*%
%ADD20C,1.661600*%
%ADD21RoundRect,0.050800X-0.900000X-0.900000X0.900000X-0.900000X0.900000X0.900000X-0.900000X0.900000X0*%
%ADD22C,1.901600*%
%ADD23RoundRect,0.050800X0.900000X0.900000X-0.900000X0.900000X-0.900000X-0.900000X0.900000X-0.900000X0*%
%ADD24RoundRect,0.050800X0.850000X0.850000X-0.850000X0.850000X-0.850000X-0.850000X0.850000X-0.850000X0*%
%ADD25C,0.701600*%
G04 APERTURE END LIST*
D10*
X170300000Y-141000000D02*
X170300000Y-98000000D01*
X170300000Y-141000000D02*
X97300000Y-141000000D01*
X97300000Y-135500000D02*
X97300000Y-141000000D01*
X104400000Y-133500000D02*
G75*
G02*
X102400000Y-135500000I-2000000J0D01*
G01*
X104400000Y-133500000D02*
X104400000Y-105500000D01*
X97300000Y-98000000D02*
X97300000Y-103500000D01*
D11*
X101175000Y-138500000D02*
G75*
G03*
X101175000Y-138500000I-1125000J0D01*
G01*
D10*
X102400000Y-103500000D02*
G75*
G02*
X104400000Y-105500000I0J-2000000D01*
G01*
D11*
X101175000Y-100500000D02*
G75*
G03*
X101175000Y-100500000I-1125000J0D01*
G01*
X97300000Y-98000000D02*
X170300000Y-98000000D01*
X168675000Y-138500000D02*
G75*
G03*
X168675000Y-138500000I-1125000J0D01*
G01*
D10*
X102400000Y-135500000D02*
X97300000Y-135500000D01*
D11*
X168675000Y-100500000D02*
G75*
G03*
X168675000Y-100500000I-1125000J0D01*
G01*
D10*
X102400000Y-103500000D02*
X97300000Y-103500000D01*
X170300000Y-141000000D02*
X170300000Y-98000000D01*
X170300000Y-141000000D02*
X97300000Y-141000000D01*
X97300000Y-135500000D02*
X97300000Y-141000000D01*
X104400000Y-133500000D02*
G75*
G02*
X102400000Y-135500000I-2000000J0D01*
G01*
X104400000Y-133500000D02*
X104400000Y-105500000D01*
X97300000Y-98000000D02*
X97300000Y-103500000D01*
D11*
X101175000Y-138500000D02*
G75*
G03*
X101175000Y-138500000I-1125000J0D01*
G01*
D10*
X102400000Y-103500000D02*
G75*
G02*
X104400000Y-105500000I0J-2000000D01*
G01*
D11*
X101175000Y-100500000D02*
G75*
G03*
X101175000Y-100500000I-1125000J0D01*
G01*
X97300000Y-98000000D02*
X170300000Y-98000000D01*
X168675000Y-138500000D02*
G75*
G03*
X168675000Y-138500000I-1125000J0D01*
G01*
D10*
X102400000Y-135500000D02*
X97300000Y-135500000D01*
D11*
X168675000Y-100500000D02*
G75*
G03*
X168675000Y-100500000I-1125000J0D01*
G01*
D10*
X102400000Y-103500000D02*
X97300000Y-103500000D01*
D12*
G04 #@! TO.C,J4*
X109220000Y-137160000D03*
D13*
X111760000Y-137160000D03*
X114300000Y-137160000D03*
X116840000Y-137160000D03*
X119380000Y-137160000D03*
X121920000Y-137160000D03*
X124460000Y-137160000D03*
X127000000Y-137160000D03*
X129540000Y-137160000D03*
X132080000Y-137160000D03*
X134620000Y-137160000D03*
X137160000Y-137160000D03*
X139700000Y-137160000D03*
X142240000Y-137160000D03*
X144780000Y-137160000D03*
X147320000Y-137160000D03*
G04 #@! TD*
D14*
G04 #@! TO.C,J1*
X159675000Y-108475000D03*
D15*
X165675000Y-108475000D03*
D16*
X162675000Y-103775000D03*
G04 #@! TD*
D12*
G04 #@! TO.C,J2*
X114300000Y-101600000D03*
D13*
X116840000Y-101600000D03*
X119380000Y-101600000D03*
X121920000Y-101600000D03*
X124460000Y-101600000D03*
X127000000Y-101600000D03*
X129540000Y-101600000D03*
X132080000Y-101600000D03*
X134620000Y-101600000D03*
X137160000Y-101600000D03*
X139700000Y-101600000D03*
X142240000Y-101600000D03*
G04 #@! TD*
D17*
G04 #@! TO.C,TP_GND1*
X104450000Y-100600000D03*
G04 #@! TD*
G04 #@! TO.C,TP_GND6*
X163728400Y-100304600D03*
G04 #@! TD*
G04 #@! TO.C,TP_GND2*
X104673400Y-138607800D03*
G04 #@! TD*
D18*
G04 #@! TO.C,J3*
X165430200Y-127076200D03*
X165430200Y-129616200D03*
X165430200Y-132156200D03*
X165430200Y-134696200D03*
G04 #@! TD*
D19*
G04 #@! TO.C,U2*
X105890000Y-132100000D03*
D20*
X108430000Y-132100000D03*
X110970000Y-132100000D03*
X113510000Y-132100000D03*
X116050000Y-132100000D03*
X118590000Y-132100000D03*
X121130000Y-132100000D03*
X123670000Y-132100000D03*
X126210000Y-132100000D03*
X128750000Y-132100000D03*
X131290000Y-132100000D03*
X133830000Y-132100000D03*
X136370000Y-132100000D03*
X138910000Y-132100000D03*
X141450000Y-132100000D03*
X143990000Y-132100000D03*
X146530000Y-132100000D03*
X149070000Y-132100000D03*
X151610000Y-132100000D03*
X105890000Y-106700000D03*
X108430000Y-106700000D03*
X110970000Y-106700000D03*
X113510000Y-106700000D03*
X116050000Y-106700000D03*
X118590000Y-106700000D03*
X121130000Y-106700000D03*
X123670000Y-106700000D03*
X126210000Y-106700000D03*
X128750000Y-106700000D03*
X131290000Y-106700000D03*
X133830000Y-106700000D03*
X136370000Y-106700000D03*
X138910000Y-106700000D03*
X141450000Y-106700000D03*
X143990000Y-106700000D03*
X146530000Y-106700000D03*
X149070000Y-106700000D03*
X151610000Y-106700000D03*
G04 #@! TD*
D17*
G04 #@! TO.C,TP_GND8*
X161150000Y-139900000D03*
G04 #@! TD*
D21*
G04 #@! TO.C,D2*
X112268000Y-110998000D03*
D22*
X114808000Y-110998000D03*
G04 #@! TD*
D23*
G04 #@! TO.C,D1*
X108458000Y-110998000D03*
D22*
X105918000Y-110998000D03*
G04 #@! TD*
D24*
G04 #@! TO.C,J5*
X106680000Y-124460000D03*
D13*
X106680000Y-127000000D03*
G04 #@! TD*
D25*
G04 #@! TO.C,U1*
X147917100Y-112320600D03*
X147417100Y-112820600D03*
X148417100Y-112820600D03*
X148417100Y-111820600D03*
X147417100Y-111820600D03*
G04 #@! TD*
D24*
G04 #@! TO.C,J6*
X106680000Y-119380000D03*
D13*
X106680000Y-121920000D03*
G04 #@! TD*
G36*
X147582039Y-112403388D02*
G01*
X147608867Y-112483801D01*
X147678349Y-112574844D01*
X147773575Y-112638472D01*
X147844313Y-112657228D01*
X147845730Y-112658638D01*
X147845218Y-112660572D01*
X147843487Y-112661136D01*
X147807806Y-112655485D01*
X147771414Y-112664221D01*
X147751947Y-112695988D01*
X147751947Y-112711069D01*
X147756877Y-112742192D01*
X147756161Y-112744059D01*
X147754185Y-112744372D01*
X147752929Y-112742833D01*
X147747069Y-112707627D01*
X147692685Y-112606836D01*
X147608582Y-112529093D01*
X147515606Y-112487989D01*
X147514427Y-112486374D01*
X147515235Y-112484545D01*
X147516728Y-112484185D01*
X147526394Y-112485716D01*
X147562786Y-112476979D01*
X147582253Y-112445212D01*
X147582253Y-112430131D01*
X147578167Y-112404334D01*
X147578883Y-112402467D01*
X147580859Y-112402154D01*
X147582039Y-112403388D01*
G37*
G36*
X148258164Y-112384751D02*
G01*
X148258844Y-112386588D01*
X148251985Y-112429894D01*
X148260721Y-112466286D01*
X148292488Y-112485753D01*
X148307569Y-112485753D01*
X148345858Y-112479688D01*
X148347725Y-112480404D01*
X148348038Y-112482380D01*
X148346653Y-112483604D01*
X148278586Y-112500513D01*
X148182372Y-112562636D01*
X148111469Y-112652578D01*
X148082442Y-112735233D01*
X148080925Y-112736536D01*
X148079038Y-112735873D01*
X148078580Y-112734257D01*
X148082215Y-112711306D01*
X148073479Y-112674914D01*
X148041712Y-112655447D01*
X148026631Y-112655447D01*
X148014046Y-112657440D01*
X148012179Y-112656724D01*
X148011866Y-112654748D01*
X148012953Y-112653623D01*
X148103983Y-112615077D01*
X148189293Y-112538667D01*
X148245254Y-112438741D01*
X148254902Y-112385916D01*
X148256196Y-112384391D01*
X148258164Y-112384751D01*
G37*
G36*
X148082039Y-111903388D02*
G01*
X148108867Y-111983801D01*
X148178349Y-112074844D01*
X148273575Y-112138472D01*
X148344313Y-112157228D01*
X148345730Y-112158638D01*
X148345218Y-112160572D01*
X148343487Y-112161136D01*
X148307806Y-112155485D01*
X148271414Y-112164221D01*
X148251947Y-112195988D01*
X148251947Y-112211069D01*
X148256877Y-112242192D01*
X148256161Y-112244059D01*
X148254185Y-112244372D01*
X148252929Y-112242833D01*
X148247069Y-112207627D01*
X148192685Y-112106836D01*
X148108582Y-112029093D01*
X148015606Y-111987989D01*
X148014427Y-111986374D01*
X148015235Y-111984545D01*
X148016728Y-111984185D01*
X148026394Y-111985716D01*
X148062786Y-111976979D01*
X148082253Y-111945212D01*
X148082253Y-111930131D01*
X148078167Y-111904334D01*
X148078883Y-111902467D01*
X148080859Y-111902154D01*
X148082039Y-111903388D01*
G37*
G36*
X147758164Y-111884751D02*
G01*
X147758844Y-111886588D01*
X147751985Y-111929894D01*
X147760721Y-111966286D01*
X147792488Y-111985753D01*
X147807569Y-111985753D01*
X147845858Y-111979688D01*
X147847725Y-111980404D01*
X147848038Y-111982380D01*
X147846653Y-111983604D01*
X147778586Y-112000513D01*
X147682372Y-112062636D01*
X147611469Y-112152578D01*
X147582442Y-112235233D01*
X147580925Y-112236536D01*
X147579038Y-112235873D01*
X147578580Y-112234257D01*
X147582215Y-112211306D01*
X147573479Y-112174914D01*
X147541712Y-112155447D01*
X147526631Y-112155447D01*
X147514046Y-112157440D01*
X147512179Y-112156724D01*
X147511866Y-112154748D01*
X147512953Y-112153623D01*
X147603983Y-112115077D01*
X147689293Y-112038667D01*
X147745254Y-111938741D01*
X147754902Y-111885916D01*
X147756196Y-111884391D01*
X147758164Y-111884751D01*
G37*
M02*
