G04 #@! TF.GenerationSoftware,KiCad,Pcbnew,5.99.0-unknown-89dcc4689~104~ubuntu20.04.1*
G04 #@! TF.CreationDate,2020-10-12T19:49:42-07:00*
G04 #@! TF.ProjectId,signal-board,7369676e-616c-42d6-926f-6172642e6b69,rev?*
G04 #@! TF.SameCoordinates,Original*
G04 #@! TF.FileFunction,Copper,L4,Bot*
G04 #@! TF.FilePolarity,Positive*
%FSLAX46Y46*%
G04 Gerber Fmt 4.6, Leading zero omitted, Abs format (unit mm)*
G04 Created by KiCad (PCBNEW 5.99.0-unknown-89dcc4689~104~ubuntu20.04.1) date 2020-10-12 19:49:42*
%MOMM*%
%LPD*%
G01*
G04 APERTURE LIST*
G04 #@! TA.AperFunction,ComponentPad*
%ADD10R,1.700000X1.700000*%
G04 #@! TD*
G04 #@! TA.AperFunction,ComponentPad*
%ADD11O,1.700000X1.700000*%
G04 #@! TD*
G04 #@! TA.AperFunction,ComponentPad*
%ADD12R,2.000000X4.000000*%
G04 #@! TD*
G04 #@! TA.AperFunction,ComponentPad*
%ADD13O,2.000000X3.300000*%
G04 #@! TD*
G04 #@! TA.AperFunction,ComponentPad*
%ADD14O,3.500000X2.000000*%
G04 #@! TD*
G04 #@! TA.AperFunction,ComponentPad*
%ADD15R,1.560000X1.560000*%
G04 #@! TD*
G04 #@! TA.AperFunction,ComponentPad*
%ADD16C,1.560000*%
G04 #@! TD*
G04 #@! TA.AperFunction,ComponentPad*
%ADD17R,1.800000X1.800000*%
G04 #@! TD*
G04 #@! TA.AperFunction,ComponentPad*
%ADD18C,1.800000*%
G04 #@! TD*
G04 #@! TA.AperFunction,SMDPad,CuDef*
%ADD19C,1.000000*%
G04 #@! TD*
G04 #@! TA.AperFunction,SMDPad,CuDef*
%ADD20R,1.550000X1.000000*%
G04 #@! TD*
G04 #@! TA.AperFunction,SMDPad,CuDef*
%ADD21R,2.200000X3.900000*%
G04 #@! TD*
G04 #@! TA.AperFunction,SMDPad,CuDef*
%ADD22R,0.280000X0.280000*%
G04 #@! TD*
G04 #@! TA.AperFunction,SMDPad,CuDef*
%ADD23O,0.850000X0.280000*%
G04 #@! TD*
G04 #@! TA.AperFunction,SMDPad,CuDef*
%ADD24R,0.250000X0.700000*%
G04 #@! TD*
G04 #@! TA.AperFunction,SMDPad,CuDef*
%ADD25R,0.230000X0.600000*%
G04 #@! TD*
G04 #@! TA.AperFunction,SMDPad,CuDef*
%ADD26R,0.650000X0.900000*%
G04 #@! TD*
G04 #@! TA.AperFunction,ComponentPad*
%ADD27C,0.600000*%
G04 #@! TD*
G04 #@! TA.AperFunction,SMDPad,CuDef*
%ADD28R,1.700000X2.150000*%
G04 #@! TD*
G04 #@! TA.AperFunction,ViaPad*
%ADD29C,0.508000*%
G04 #@! TD*
G04 #@! TA.AperFunction,Conductor*
%ADD30C,0.500000*%
G04 #@! TD*
G04 #@! TA.AperFunction,Conductor*
%ADD31C,0.254000*%
G04 #@! TD*
G04 #@! TA.AperFunction,Conductor*
%ADD32C,1.250000*%
G04 #@! TD*
G04 #@! TA.AperFunction,Conductor*
%ADD33C,1.000000*%
G04 #@! TD*
G04 #@! TA.AperFunction,Conductor*
%ADD34C,1.500000*%
G04 #@! TD*
G04 APERTURE END LIST*
D10*
G04 #@! TO.P,J4,1,Pin_1*
G04 #@! TO.N,+3V3*
X109220000Y-137160000D03*
D11*
G04 #@! TO.P,J4,2,Pin_2*
G04 #@! TO.N,/en*
X111760000Y-137160000D03*
G04 #@! TO.P,J4,3,Pin_3*
G04 #@! TO.N,/sensor_vp*
X114300000Y-137160000D03*
G04 #@! TO.P,J4,4,Pin_4*
G04 #@! TO.N,/sensor_vn*
X116840000Y-137160000D03*
G04 #@! TO.P,J4,5,Pin_5*
G04 #@! TO.N,/io34*
X119380000Y-137160000D03*
G04 #@! TO.P,J4,6,Pin_6*
G04 #@! TO.N,/io35*
X121920000Y-137160000D03*
G04 #@! TO.P,J4,7,Pin_7*
G04 #@! TO.N,/io25*
X124460000Y-137160000D03*
G04 #@! TO.P,J4,8,Pin_8*
G04 #@! TO.N,/uart_tx*
X127000000Y-137160000D03*
G04 #@! TO.P,J4,9,Pin_9*
G04 #@! TO.N,/uart_rx*
X129540000Y-137160000D03*
G04 #@! TO.P,J4,10,Pin_10*
G04 #@! TO.N,/vspi_mosi*
X132080000Y-137160000D03*
G04 #@! TO.P,J4,11,Pin_11*
G04 #@! TO.N,/vspi_miso*
X134620000Y-137160000D03*
G04 #@! TO.P,J4,12,Pin_12*
G04 #@! TO.N,/vspi_clk*
X137160000Y-137160000D03*
G04 #@! TO.P,J4,13,Pin_13*
G04 #@! TO.N,/vspi_cs*
X139700000Y-137160000D03*
G04 #@! TO.P,J4,14,Pin_14*
G04 #@! TO.N,GND*
X142240000Y-137160000D03*
G04 #@! TO.P,J4,15,Pin_15*
G04 #@! TO.N,+5V*
X144780000Y-137160000D03*
G04 #@! TO.P,J4,16,Pin_16*
G04 #@! TO.N,/3-12v*
X147320000Y-137160000D03*
G04 #@! TD*
D10*
G04 #@! TO.P,J2,1,Pin_1*
G04 #@! TO.N,/i2c_scl*
X114300000Y-101600000D03*
D11*
G04 #@! TO.P,J2,2,Pin_2*
G04 #@! TO.N,/i2c_sda*
X116840000Y-101600000D03*
G04 #@! TO.P,J2,3,Pin_3*
G04 #@! TO.N,GND*
X119380000Y-101600000D03*
G04 #@! TO.P,J2,4,Pin_4*
G04 #@! TO.N,/pixels_8*
X121920000Y-101600000D03*
G04 #@! TO.P,J2,5,Pin_5*
G04 #@! TO.N,/pixels_7*
X124460000Y-101600000D03*
G04 #@! TO.P,J2,6,Pin_6*
G04 #@! TO.N,/pixels_6*
X127000000Y-101600000D03*
G04 #@! TO.P,J2,7,Pin_7*
G04 #@! TO.N,/pixels_5*
X129540000Y-101600000D03*
G04 #@! TO.P,J2,8,Pin_8*
G04 #@! TO.N,/pixels_4*
X132080000Y-101600000D03*
G04 #@! TO.P,J2,9,Pin_9*
G04 #@! TO.N,/pixels_3*
X134620000Y-101600000D03*
G04 #@! TO.P,J2,10,Pin_10*
G04 #@! TO.N,/pixels_2*
X137160000Y-101600000D03*
G04 #@! TO.P,J2,11,Pin_11*
G04 #@! TO.N,/pixels_1*
X139700000Y-101600000D03*
G04 #@! TO.P,J2,12,Pin_12*
G04 #@! TO.N,GND*
X142240000Y-101600000D03*
G04 #@! TD*
D12*
G04 #@! TO.P,J1,1*
G04 #@! TO.N,/3-12v*
X159652200Y-108483400D03*
D13*
G04 #@! TO.P,J1,2*
G04 #@! TO.N,GND*
X165652200Y-108483400D03*
D14*
G04 #@! TO.P,J1,MP*
G04 #@! TO.N,N/C*
X166652200Y-103983400D03*
X166652200Y-112983400D03*
G04 #@! TD*
D15*
G04 #@! TO.P,U2,1,3V3*
G04 #@! TO.N,+3V3*
X105890000Y-132100000D03*
D16*
G04 #@! TO.P,U2,2,EN*
G04 #@! TO.N,/en*
X108430000Y-132100000D03*
G04 #@! TO.P,U2,3,SENSOR_VP*
G04 #@! TO.N,/sensor_vp*
X110970000Y-132100000D03*
G04 #@! TO.P,U2,4,SENSOR_VN*
G04 #@! TO.N,/sensor_vn*
X113510000Y-132100000D03*
G04 #@! TO.P,U2,5,IO34*
G04 #@! TO.N,/io34*
X116050000Y-132100000D03*
G04 #@! TO.P,U2,6,IO35*
G04 #@! TO.N,/io35*
X118590000Y-132100000D03*
G04 #@! TO.P,U2,7,IO32*
G04 #@! TO.N,Net-(U2-Pad7)*
X121130000Y-132100000D03*
G04 #@! TO.P,U2,8,IO33*
G04 #@! TO.N,Net-(U2-Pad8)*
X123670000Y-132100000D03*
G04 #@! TO.P,U2,9,IO25*
G04 #@! TO.N,/io25*
X126210000Y-132100000D03*
G04 #@! TO.P,U2,10,IO26*
G04 #@! TO.N,/level_shift_4*
X128750000Y-132100000D03*
G04 #@! TO.P,U2,11,IO27*
G04 #@! TO.N,/level_shift_3*
X131290000Y-132100000D03*
G04 #@! TO.P,U2,12,IO14*
G04 #@! TO.N,/status_led*
X133830000Y-132100000D03*
G04 #@! TO.P,U2,13,IO12*
G04 #@! TO.N,/level_shift_2*
X136370000Y-132100000D03*
G04 #@! TO.P,U2,14,GND1*
G04 #@! TO.N,GND*
X138910000Y-132100000D03*
G04 #@! TO.P,U2,15,IO13*
G04 #@! TO.N,/level_shift_1*
X141450000Y-132100000D03*
G04 #@! TO.P,U2,16,SD2*
G04 #@! TO.N,Net-(U2-Pad16)*
X143990000Y-132100000D03*
G04 #@! TO.P,U2,17,SD3*
G04 #@! TO.N,Net-(U2-Pad17)*
X146530000Y-132100000D03*
G04 #@! TO.P,U2,18,CMD*
G04 #@! TO.N,Net-(U2-Pad18)*
X149070000Y-132100000D03*
G04 #@! TO.P,U2,19,EXT_5V*
G04 #@! TO.N,+5V*
X151610000Y-132100000D03*
G04 #@! TO.P,U2,20,GND3*
G04 #@! TO.N,GND*
X105890000Y-106700000D03*
G04 #@! TO.P,U2,21,IO23*
G04 #@! TO.N,/vspi_mosi*
X108430000Y-106700000D03*
G04 #@! TO.P,U2,22,IO22*
G04 #@! TO.N,/i2c_scl*
X110970000Y-106700000D03*
G04 #@! TO.P,U2,23,TXD0*
G04 #@! TO.N,/uart_tx*
X113510000Y-106700000D03*
G04 #@! TO.P,U2,24,RXD0*
G04 #@! TO.N,/uart_rx*
X116050000Y-106700000D03*
G04 #@! TO.P,U2,25,IO21*
G04 #@! TO.N,/i2c_sda*
X118590000Y-106700000D03*
G04 #@! TO.P,U2,26,GND2*
G04 #@! TO.N,GND*
X121130000Y-106700000D03*
G04 #@! TO.P,U2,27,IO19*
G04 #@! TO.N,/vspi_miso*
X123670000Y-106700000D03*
G04 #@! TO.P,U2,28,IO18*
G04 #@! TO.N,/vspi_clk*
X126210000Y-106700000D03*
G04 #@! TO.P,U2,29,IO5*
G04 #@! TO.N,/vspi_cs*
X128750000Y-106700000D03*
G04 #@! TO.P,U2,30,IO17*
G04 #@! TO.N,/level_shift_8*
X131290000Y-106700000D03*
G04 #@! TO.P,U2,31,IO16*
G04 #@! TO.N,/level_shift_7*
X133830000Y-106700000D03*
G04 #@! TO.P,U2,32,IO4*
G04 #@! TO.N,/level_shift_6*
X136370000Y-106700000D03*
G04 #@! TO.P,U2,33,IO0*
G04 #@! TO.N,/button_2*
X138910000Y-106700000D03*
G04 #@! TO.P,U2,34,IO2*
G04 #@! TO.N,/level_shift_5*
X141450000Y-106700000D03*
G04 #@! TO.P,U2,35,IO15*
G04 #@! TO.N,/button_1*
X143990000Y-106700000D03*
G04 #@! TO.P,U2,36,SD1*
G04 #@! TO.N,Net-(U2-Pad36)*
X146530000Y-106700000D03*
G04 #@! TO.P,U2,37,SD0*
G04 #@! TO.N,Net-(U2-Pad37)*
X149070000Y-106700000D03*
G04 #@! TO.P,U2,38,CLK*
G04 #@! TO.N,Net-(U2-Pad38)*
X151610000Y-106700000D03*
G04 #@! TD*
G04 #@! TO.P,R4,1*
G04 #@! TO.N,Net-(J5-Pad2)*
G04 #@! TA.AperFunction,SMDPad,CuDef*
G36*
G01*
X117683500Y-125195000D02*
X118028500Y-125195000D01*
G75*
G02*
X118176000Y-125342500I0J-147500D01*
G01*
X118176000Y-125637500D01*
G75*
G02*
X118028500Y-125785000I-147500J0D01*
G01*
X117683500Y-125785000D01*
G75*
G02*
X117536000Y-125637500I0J147500D01*
G01*
X117536000Y-125342500D01*
G75*
G02*
X117683500Y-125195000I147500J0D01*
G01*
G37*
G04 #@! TD.AperFunction*
G04 #@! TO.P,R4,2*
G04 #@! TO.N,/button_1*
G04 #@! TA.AperFunction,SMDPad,CuDef*
G36*
G01*
X117683500Y-126165000D02*
X118028500Y-126165000D01*
G75*
G02*
X118176000Y-126312500I0J-147500D01*
G01*
X118176000Y-126607500D01*
G75*
G02*
X118028500Y-126755000I-147500J0D01*
G01*
X117683500Y-126755000D01*
G75*
G02*
X117536000Y-126607500I0J147500D01*
G01*
X117536000Y-126312500D01*
G75*
G02*
X117683500Y-126165000I147500J0D01*
G01*
G37*
G04 #@! TD.AperFunction*
G04 #@! TD*
G04 #@! TO.P,R2,1*
G04 #@! TO.N,Net-(C4-Pad1)*
G04 #@! TA.AperFunction,SMDPad,CuDef*
G36*
G01*
X147274500Y-117253800D02*
X147619500Y-117253800D01*
G75*
G02*
X147767000Y-117401300I0J-147500D01*
G01*
X147767000Y-117696300D01*
G75*
G02*
X147619500Y-117843800I-147500J0D01*
G01*
X147274500Y-117843800D01*
G75*
G02*
X147127000Y-117696300I0J147500D01*
G01*
X147127000Y-117401300D01*
G75*
G02*
X147274500Y-117253800I147500J0D01*
G01*
G37*
G04 #@! TD.AperFunction*
G04 #@! TO.P,R2,2*
G04 #@! TO.N,GND*
G04 #@! TA.AperFunction,SMDPad,CuDef*
G36*
G01*
X147274500Y-118223800D02*
X147619500Y-118223800D01*
G75*
G02*
X147767000Y-118371300I0J-147500D01*
G01*
X147767000Y-118666300D01*
G75*
G02*
X147619500Y-118813800I-147500J0D01*
G01*
X147274500Y-118813800D01*
G75*
G02*
X147127000Y-118666300I0J147500D01*
G01*
X147127000Y-118371300D01*
G75*
G02*
X147274500Y-118223800I147500J0D01*
G01*
G37*
G04 #@! TD.AperFunction*
G04 #@! TD*
D17*
G04 #@! TO.P,D2,1,K*
G04 #@! TO.N,Net-(D2-Pad1)*
X112268000Y-110998000D03*
D18*
G04 #@! TO.P,D2,2,A*
G04 #@! TO.N,/status_led*
X114808000Y-110998000D03*
G04 #@! TD*
D19*
G04 #@! TO.P,TP1,1,1*
G04 #@! TO.N,Net-(R3-Pad2)*
X154228800Y-119634000D03*
G04 #@! TD*
G04 #@! TO.P,R12,1*
G04 #@! TO.N,Net-(IC1-Pad16)*
G04 #@! TA.AperFunction,SMDPad,CuDef*
G36*
G01*
X132530000Y-112362000D02*
X131630000Y-112362000D01*
G75*
G02*
X131380000Y-112112000I0J250000D01*
G01*
X131380000Y-111462000D01*
G75*
G02*
X131630000Y-111212000I250000J0D01*
G01*
X132530000Y-111212000D01*
G75*
G02*
X132780000Y-111462000I0J-250000D01*
G01*
X132780000Y-112112000D01*
G75*
G02*
X132530000Y-112362000I-250000J0D01*
G01*
G37*
G04 #@! TD.AperFunction*
G04 #@! TO.P,R12,2*
G04 #@! TO.N,/pixels_3*
G04 #@! TA.AperFunction,SMDPad,CuDef*
G36*
G01*
X132530000Y-110312000D02*
X131630000Y-110312000D01*
G75*
G02*
X131380000Y-110062000I0J250000D01*
G01*
X131380000Y-109412000D01*
G75*
G02*
X131630000Y-109162000I250000J0D01*
G01*
X132530000Y-109162000D01*
G75*
G02*
X132780000Y-109412000I0J-250000D01*
G01*
X132780000Y-110062000D01*
G75*
G02*
X132530000Y-110312000I-250000J0D01*
G01*
G37*
G04 #@! TD.AperFunction*
G04 #@! TD*
G04 #@! TO.P,C1,1*
G04 #@! TO.N,/3-12v*
G04 #@! TA.AperFunction,SMDPad,CuDef*
G36*
G01*
X156235600Y-114927800D02*
X156235600Y-114027800D01*
G75*
G02*
X156485600Y-113777800I250000J0D01*
G01*
X157135600Y-113777800D01*
G75*
G02*
X157385600Y-114027800I0J-250000D01*
G01*
X157385600Y-114927800D01*
G75*
G02*
X157135600Y-115177800I-250000J0D01*
G01*
X156485600Y-115177800D01*
G75*
G02*
X156235600Y-114927800I0J250000D01*
G01*
G37*
G04 #@! TD.AperFunction*
G04 #@! TO.P,C1,2*
G04 #@! TO.N,GND*
G04 #@! TA.AperFunction,SMDPad,CuDef*
G36*
G01*
X158285600Y-114927800D02*
X158285600Y-114027800D01*
G75*
G02*
X158535600Y-113777800I250000J0D01*
G01*
X159185600Y-113777800D01*
G75*
G02*
X159435600Y-114027800I0J-250000D01*
G01*
X159435600Y-114927800D01*
G75*
G02*
X159185600Y-115177800I-250000J0D01*
G01*
X158535600Y-115177800D01*
G75*
G02*
X158285600Y-114927800I0J250000D01*
G01*
G37*
G04 #@! TD.AperFunction*
G04 #@! TD*
G04 #@! TO.P,C6,1*
G04 #@! TO.N,+5V*
G04 #@! TA.AperFunction,SMDPad,CuDef*
G36*
G01*
X145382400Y-116636600D02*
X144482400Y-116636600D01*
G75*
G02*
X144232400Y-116386600I0J250000D01*
G01*
X144232400Y-115736600D01*
G75*
G02*
X144482400Y-115486600I250000J0D01*
G01*
X145382400Y-115486600D01*
G75*
G02*
X145632400Y-115736600I0J-250000D01*
G01*
X145632400Y-116386600D01*
G75*
G02*
X145382400Y-116636600I-250000J0D01*
G01*
G37*
G04 #@! TD.AperFunction*
G04 #@! TO.P,C6,2*
G04 #@! TO.N,GND*
G04 #@! TA.AperFunction,SMDPad,CuDef*
G36*
G01*
X145382400Y-114586600D02*
X144482400Y-114586600D01*
G75*
G02*
X144232400Y-114336600I0J250000D01*
G01*
X144232400Y-113686600D01*
G75*
G02*
X144482400Y-113436600I250000J0D01*
G01*
X145382400Y-113436600D01*
G75*
G02*
X145632400Y-113686600I0J-250000D01*
G01*
X145632400Y-114336600D01*
G75*
G02*
X145382400Y-114586600I-250000J0D01*
G01*
G37*
G04 #@! TD.AperFunction*
G04 #@! TD*
G04 #@! TO.P,R8,1*
G04 #@! TO.N,Net-(D1-Pad1)*
G04 #@! TA.AperFunction,SMDPad,CuDef*
G36*
G01*
X108234700Y-113316800D02*
X108579700Y-113316800D01*
G75*
G02*
X108727200Y-113464300I0J-147500D01*
G01*
X108727200Y-113759300D01*
G75*
G02*
X108579700Y-113906800I-147500J0D01*
G01*
X108234700Y-113906800D01*
G75*
G02*
X108087200Y-113759300I0J147500D01*
G01*
X108087200Y-113464300D01*
G75*
G02*
X108234700Y-113316800I147500J0D01*
G01*
G37*
G04 #@! TD.AperFunction*
G04 #@! TO.P,R8,2*
G04 #@! TO.N,GND*
G04 #@! TA.AperFunction,SMDPad,CuDef*
G36*
G01*
X108234700Y-114286800D02*
X108579700Y-114286800D01*
G75*
G02*
X108727200Y-114434300I0J-147500D01*
G01*
X108727200Y-114729300D01*
G75*
G02*
X108579700Y-114876800I-147500J0D01*
G01*
X108234700Y-114876800D01*
G75*
G02*
X108087200Y-114729300I0J147500D01*
G01*
X108087200Y-114434300D01*
G75*
G02*
X108234700Y-114286800I147500J0D01*
G01*
G37*
G04 #@! TD.AperFunction*
G04 #@! TD*
G04 #@! TO.P,R10,1*
G04 #@! TO.N,Net-(IC1-Pad18)*
G04 #@! TA.AperFunction,SMDPad,CuDef*
G36*
G01*
X137102000Y-112362000D02*
X136202000Y-112362000D01*
G75*
G02*
X135952000Y-112112000I0J250000D01*
G01*
X135952000Y-111462000D01*
G75*
G02*
X136202000Y-111212000I250000J0D01*
G01*
X137102000Y-111212000D01*
G75*
G02*
X137352000Y-111462000I0J-250000D01*
G01*
X137352000Y-112112000D01*
G75*
G02*
X137102000Y-112362000I-250000J0D01*
G01*
G37*
G04 #@! TD.AperFunction*
G04 #@! TO.P,R10,2*
G04 #@! TO.N,/pixels_1*
G04 #@! TA.AperFunction,SMDPad,CuDef*
G36*
G01*
X137102000Y-110312000D02*
X136202000Y-110312000D01*
G75*
G02*
X135952000Y-110062000I0J250000D01*
G01*
X135952000Y-109412000D01*
G75*
G02*
X136202000Y-109162000I250000J0D01*
G01*
X137102000Y-109162000D01*
G75*
G02*
X137352000Y-109412000I0J-250000D01*
G01*
X137352000Y-110062000D01*
G75*
G02*
X137102000Y-110312000I-250000J0D01*
G01*
G37*
G04 #@! TD.AperFunction*
G04 #@! TD*
G04 #@! TO.P,C2,1*
G04 #@! TO.N,/3-12v*
G04 #@! TA.AperFunction,SMDPad,CuDef*
G36*
G01*
X156264000Y-117061400D02*
X156264000Y-116161400D01*
G75*
G02*
X156514000Y-115911400I250000J0D01*
G01*
X157164000Y-115911400D01*
G75*
G02*
X157414000Y-116161400I0J-250000D01*
G01*
X157414000Y-117061400D01*
G75*
G02*
X157164000Y-117311400I-250000J0D01*
G01*
X156514000Y-117311400D01*
G75*
G02*
X156264000Y-117061400I0J250000D01*
G01*
G37*
G04 #@! TD.AperFunction*
G04 #@! TO.P,C2,2*
G04 #@! TO.N,GND*
G04 #@! TA.AperFunction,SMDPad,CuDef*
G36*
G01*
X158314000Y-117061400D02*
X158314000Y-116161400D01*
G75*
G02*
X158564000Y-115911400I250000J0D01*
G01*
X159214000Y-115911400D01*
G75*
G02*
X159464000Y-116161400I0J-250000D01*
G01*
X159464000Y-117061400D01*
G75*
G02*
X159214000Y-117311400I-250000J0D01*
G01*
X158564000Y-117311400D01*
G75*
G02*
X158314000Y-117061400I0J250000D01*
G01*
G37*
G04 #@! TD.AperFunction*
G04 #@! TD*
G04 #@! TO.P,C13,1*
G04 #@! TO.N,/3-12v*
G04 #@! TA.AperFunction,SMDPad,CuDef*
G36*
G01*
X158547000Y-124275000D02*
X158547000Y-123375000D01*
G75*
G02*
X158797000Y-123125000I250000J0D01*
G01*
X159447000Y-123125000D01*
G75*
G02*
X159697000Y-123375000I0J-250000D01*
G01*
X159697000Y-124275000D01*
G75*
G02*
X159447000Y-124525000I-250000J0D01*
G01*
X158797000Y-124525000D01*
G75*
G02*
X158547000Y-124275000I0J250000D01*
G01*
G37*
G04 #@! TD.AperFunction*
G04 #@! TO.P,C13,2*
G04 #@! TO.N,GND*
G04 #@! TA.AperFunction,SMDPad,CuDef*
G36*
G01*
X160597000Y-124275000D02*
X160597000Y-123375000D01*
G75*
G02*
X160847000Y-123125000I250000J0D01*
G01*
X161497000Y-123125000D01*
G75*
G02*
X161747000Y-123375000I0J-250000D01*
G01*
X161747000Y-124275000D01*
G75*
G02*
X161497000Y-124525000I-250000J0D01*
G01*
X160847000Y-124525000D01*
G75*
G02*
X160597000Y-124275000I0J250000D01*
G01*
G37*
G04 #@! TD.AperFunction*
G04 #@! TD*
G04 #@! TO.P,R7,1*
G04 #@! TO.N,+3V3*
G04 #@! TA.AperFunction,SMDPad,CuDef*
G36*
G01*
X122255500Y-119870000D02*
X122600500Y-119870000D01*
G75*
G02*
X122748000Y-120017500I0J-147500D01*
G01*
X122748000Y-120312500D01*
G75*
G02*
X122600500Y-120460000I-147500J0D01*
G01*
X122255500Y-120460000D01*
G75*
G02*
X122108000Y-120312500I0J147500D01*
G01*
X122108000Y-120017500D01*
G75*
G02*
X122255500Y-119870000I147500J0D01*
G01*
G37*
G04 #@! TD.AperFunction*
G04 #@! TO.P,R7,2*
G04 #@! TO.N,/button_2*
G04 #@! TA.AperFunction,SMDPad,CuDef*
G36*
G01*
X122255500Y-120840000D02*
X122600500Y-120840000D01*
G75*
G02*
X122748000Y-120987500I0J-147500D01*
G01*
X122748000Y-121282500D01*
G75*
G02*
X122600500Y-121430000I-147500J0D01*
G01*
X122255500Y-121430000D01*
G75*
G02*
X122108000Y-121282500I0J147500D01*
G01*
X122108000Y-120987500D01*
G75*
G02*
X122255500Y-120840000I147500J0D01*
G01*
G37*
G04 #@! TD.AperFunction*
G04 #@! TD*
G04 #@! TO.P,R6,1*
G04 #@! TO.N,Net-(J6-Pad2)*
G04 #@! TA.AperFunction,SMDPad,CuDef*
G36*
G01*
X117683500Y-119861000D02*
X118028500Y-119861000D01*
G75*
G02*
X118176000Y-120008500I0J-147500D01*
G01*
X118176000Y-120303500D01*
G75*
G02*
X118028500Y-120451000I-147500J0D01*
G01*
X117683500Y-120451000D01*
G75*
G02*
X117536000Y-120303500I0J147500D01*
G01*
X117536000Y-120008500D01*
G75*
G02*
X117683500Y-119861000I147500J0D01*
G01*
G37*
G04 #@! TD.AperFunction*
G04 #@! TO.P,R6,2*
G04 #@! TO.N,/button_2*
G04 #@! TA.AperFunction,SMDPad,CuDef*
G36*
G01*
X117683500Y-120831000D02*
X118028500Y-120831000D01*
G75*
G02*
X118176000Y-120978500I0J-147500D01*
G01*
X118176000Y-121273500D01*
G75*
G02*
X118028500Y-121421000I-147500J0D01*
G01*
X117683500Y-121421000D01*
G75*
G02*
X117536000Y-121273500I0J147500D01*
G01*
X117536000Y-120978500D01*
G75*
G02*
X117683500Y-120831000I147500J0D01*
G01*
G37*
G04 #@! TD.AperFunction*
G04 #@! TD*
D20*
G04 #@! TO.P,SW1,1,A*
G04 #@! TO.N,GND*
X115147000Y-124308000D03*
G04 #@! TO.P,SW1,2,A*
X109897000Y-124308000D03*
G04 #@! TO.P,SW1,3,B*
G04 #@! TO.N,Net-(J5-Pad2)*
X115147000Y-127508000D03*
G04 #@! TO.P,SW1,4,B*
X109897000Y-127508000D03*
G04 #@! TD*
G04 #@! TO.P,C5,1*
G04 #@! TO.N,+5V*
G04 #@! TA.AperFunction,SMDPad,CuDef*
G36*
G01*
X143325000Y-116636600D02*
X142425000Y-116636600D01*
G75*
G02*
X142175000Y-116386600I0J250000D01*
G01*
X142175000Y-115736600D01*
G75*
G02*
X142425000Y-115486600I250000J0D01*
G01*
X143325000Y-115486600D01*
G75*
G02*
X143575000Y-115736600I0J-250000D01*
G01*
X143575000Y-116386600D01*
G75*
G02*
X143325000Y-116636600I-250000J0D01*
G01*
G37*
G04 #@! TD.AperFunction*
G04 #@! TO.P,C5,2*
G04 #@! TO.N,GND*
G04 #@! TA.AperFunction,SMDPad,CuDef*
G36*
G01*
X143325000Y-114586600D02*
X142425000Y-114586600D01*
G75*
G02*
X142175000Y-114336600I0J250000D01*
G01*
X142175000Y-113686600D01*
G75*
G02*
X142425000Y-113436600I250000J0D01*
G01*
X143325000Y-113436600D01*
G75*
G02*
X143575000Y-113686600I0J-250000D01*
G01*
X143575000Y-114336600D01*
G75*
G02*
X143325000Y-114586600I-250000J0D01*
G01*
G37*
G04 #@! TD.AperFunction*
G04 #@! TD*
G04 #@! TO.P,R16,1*
G04 #@! TO.N,Net-(IC1-Pad12)*
G04 #@! TA.AperFunction,SMDPad,CuDef*
G36*
G01*
X123386000Y-112353000D02*
X122486000Y-112353000D01*
G75*
G02*
X122236000Y-112103000I0J250000D01*
G01*
X122236000Y-111453000D01*
G75*
G02*
X122486000Y-111203000I250000J0D01*
G01*
X123386000Y-111203000D01*
G75*
G02*
X123636000Y-111453000I0J-250000D01*
G01*
X123636000Y-112103000D01*
G75*
G02*
X123386000Y-112353000I-250000J0D01*
G01*
G37*
G04 #@! TD.AperFunction*
G04 #@! TO.P,R16,2*
G04 #@! TO.N,/pixels_7*
G04 #@! TA.AperFunction,SMDPad,CuDef*
G36*
G01*
X123386000Y-110303000D02*
X122486000Y-110303000D01*
G75*
G02*
X122236000Y-110053000I0J250000D01*
G01*
X122236000Y-109403000D01*
G75*
G02*
X122486000Y-109153000I250000J0D01*
G01*
X123386000Y-109153000D01*
G75*
G02*
X123636000Y-109403000I0J-250000D01*
G01*
X123636000Y-110053000D01*
G75*
G02*
X123386000Y-110303000I-250000J0D01*
G01*
G37*
G04 #@! TD.AperFunction*
G04 #@! TD*
D17*
G04 #@! TO.P,D1,1,K*
G04 #@! TO.N,Net-(D1-Pad1)*
X108458000Y-110998000D03*
D18*
G04 #@! TO.P,D1,2,A*
G04 #@! TO.N,+3V3*
X105918000Y-110998000D03*
G04 #@! TD*
G04 #@! TO.P,C9,1*
G04 #@! TO.N,/button_2*
G04 #@! TA.AperFunction,SMDPad,CuDef*
G36*
G01*
X120314500Y-121421000D02*
X119969500Y-121421000D01*
G75*
G02*
X119822000Y-121273500I0J147500D01*
G01*
X119822000Y-120978500D01*
G75*
G02*
X119969500Y-120831000I147500J0D01*
G01*
X120314500Y-120831000D01*
G75*
G02*
X120462000Y-120978500I0J-147500D01*
G01*
X120462000Y-121273500D01*
G75*
G02*
X120314500Y-121421000I-147500J0D01*
G01*
G37*
G04 #@! TD.AperFunction*
G04 #@! TO.P,C9,2*
G04 #@! TO.N,GND*
G04 #@! TA.AperFunction,SMDPad,CuDef*
G36*
G01*
X120314500Y-120451000D02*
X119969500Y-120451000D01*
G75*
G02*
X119822000Y-120303500I0J147500D01*
G01*
X119822000Y-120008500D01*
G75*
G02*
X119969500Y-119861000I147500J0D01*
G01*
X120314500Y-119861000D01*
G75*
G02*
X120462000Y-120008500I0J-147500D01*
G01*
X120462000Y-120303500D01*
G75*
G02*
X120314500Y-120451000I-147500J0D01*
G01*
G37*
G04 #@! TD.AperFunction*
G04 #@! TD*
G04 #@! TO.P,C8,1*
G04 #@! TO.N,/button_1*
G04 #@! TA.AperFunction,SMDPad,CuDef*
G36*
G01*
X120314500Y-126764000D02*
X119969500Y-126764000D01*
G75*
G02*
X119822000Y-126616500I0J147500D01*
G01*
X119822000Y-126321500D01*
G75*
G02*
X119969500Y-126174000I147500J0D01*
G01*
X120314500Y-126174000D01*
G75*
G02*
X120462000Y-126321500I0J-147500D01*
G01*
X120462000Y-126616500D01*
G75*
G02*
X120314500Y-126764000I-147500J0D01*
G01*
G37*
G04 #@! TD.AperFunction*
G04 #@! TO.P,C8,2*
G04 #@! TO.N,GND*
G04 #@! TA.AperFunction,SMDPad,CuDef*
G36*
G01*
X120314500Y-125794000D02*
X119969500Y-125794000D01*
G75*
G02*
X119822000Y-125646500I0J147500D01*
G01*
X119822000Y-125351500D01*
G75*
G02*
X119969500Y-125204000I147500J0D01*
G01*
X120314500Y-125204000D01*
G75*
G02*
X120462000Y-125351500I0J-147500D01*
G01*
X120462000Y-125646500D01*
G75*
G02*
X120314500Y-125794000I-147500J0D01*
G01*
G37*
G04 #@! TD.AperFunction*
G04 #@! TD*
G04 #@! TO.P,C7,1*
G04 #@! TO.N,+5V*
G04 #@! TA.AperFunction,SMDPad,CuDef*
G36*
G01*
X147439800Y-116636600D02*
X146539800Y-116636600D01*
G75*
G02*
X146289800Y-116386600I0J250000D01*
G01*
X146289800Y-115736600D01*
G75*
G02*
X146539800Y-115486600I250000J0D01*
G01*
X147439800Y-115486600D01*
G75*
G02*
X147689800Y-115736600I0J-250000D01*
G01*
X147689800Y-116386600D01*
G75*
G02*
X147439800Y-116636600I-250000J0D01*
G01*
G37*
G04 #@! TD.AperFunction*
G04 #@! TO.P,C7,2*
G04 #@! TO.N,GND*
G04 #@! TA.AperFunction,SMDPad,CuDef*
G36*
G01*
X147439800Y-114586600D02*
X146539800Y-114586600D01*
G75*
G02*
X146289800Y-114336600I0J250000D01*
G01*
X146289800Y-113686600D01*
G75*
G02*
X146539800Y-113436600I250000J0D01*
G01*
X147439800Y-113436600D01*
G75*
G02*
X147689800Y-113686600I0J-250000D01*
G01*
X147689800Y-114336600D01*
G75*
G02*
X147439800Y-114586600I-250000J0D01*
G01*
G37*
G04 #@! TD.AperFunction*
G04 #@! TD*
G04 #@! TO.P,R15,1*
G04 #@! TO.N,Net-(IC1-Pad13)*
G04 #@! TA.AperFunction,SMDPad,CuDef*
G36*
G01*
X125672000Y-112362000D02*
X124772000Y-112362000D01*
G75*
G02*
X124522000Y-112112000I0J250000D01*
G01*
X124522000Y-111462000D01*
G75*
G02*
X124772000Y-111212000I250000J0D01*
G01*
X125672000Y-111212000D01*
G75*
G02*
X125922000Y-111462000I0J-250000D01*
G01*
X125922000Y-112112000D01*
G75*
G02*
X125672000Y-112362000I-250000J0D01*
G01*
G37*
G04 #@! TD.AperFunction*
G04 #@! TO.P,R15,2*
G04 #@! TO.N,/pixels_6*
G04 #@! TA.AperFunction,SMDPad,CuDef*
G36*
G01*
X125672000Y-110312000D02*
X124772000Y-110312000D01*
G75*
G02*
X124522000Y-110062000I0J250000D01*
G01*
X124522000Y-109412000D01*
G75*
G02*
X124772000Y-109162000I250000J0D01*
G01*
X125672000Y-109162000D01*
G75*
G02*
X125922000Y-109412000I0J-250000D01*
G01*
X125922000Y-110062000D01*
G75*
G02*
X125672000Y-110312000I-250000J0D01*
G01*
G37*
G04 #@! TD.AperFunction*
G04 #@! TD*
G04 #@! TO.P,R5,1*
G04 #@! TO.N,+3V3*
G04 #@! TA.AperFunction,SMDPad,CuDef*
G36*
G01*
X122255500Y-125195000D02*
X122600500Y-125195000D01*
G75*
G02*
X122748000Y-125342500I0J-147500D01*
G01*
X122748000Y-125637500D01*
G75*
G02*
X122600500Y-125785000I-147500J0D01*
G01*
X122255500Y-125785000D01*
G75*
G02*
X122108000Y-125637500I0J147500D01*
G01*
X122108000Y-125342500D01*
G75*
G02*
X122255500Y-125195000I147500J0D01*
G01*
G37*
G04 #@! TD.AperFunction*
G04 #@! TO.P,R5,2*
G04 #@! TO.N,/button_1*
G04 #@! TA.AperFunction,SMDPad,CuDef*
G36*
G01*
X122255500Y-126165000D02*
X122600500Y-126165000D01*
G75*
G02*
X122748000Y-126312500I0J-147500D01*
G01*
X122748000Y-126607500D01*
G75*
G02*
X122600500Y-126755000I-147500J0D01*
G01*
X122255500Y-126755000D01*
G75*
G02*
X122108000Y-126607500I0J147500D01*
G01*
X122108000Y-126312500D01*
G75*
G02*
X122255500Y-126165000I147500J0D01*
G01*
G37*
G04 #@! TD.AperFunction*
G04 #@! TD*
D20*
G04 #@! TO.P,SW2,1,A*
G04 #@! TO.N,GND*
X115147000Y-119050000D03*
G04 #@! TO.P,SW2,2,A*
X109897000Y-119050000D03*
G04 #@! TO.P,SW2,3,B*
G04 #@! TO.N,Net-(J6-Pad2)*
X115147000Y-122250000D03*
G04 #@! TO.P,SW2,4,B*
X109897000Y-122250000D03*
G04 #@! TD*
G04 #@! TO.P,C10,1*
G04 #@! TO.N,+5V*
G04 #@! TA.AperFunction,SMDPad,CuDef*
G36*
G01*
X138132400Y-117373600D02*
X139032400Y-117373600D01*
G75*
G02*
X139282400Y-117623600I0J-250000D01*
G01*
X139282400Y-118273600D01*
G75*
G02*
X139032400Y-118523600I-250000J0D01*
G01*
X138132400Y-118523600D01*
G75*
G02*
X137882400Y-118273600I0J250000D01*
G01*
X137882400Y-117623600D01*
G75*
G02*
X138132400Y-117373600I250000J0D01*
G01*
G37*
G04 #@! TD.AperFunction*
G04 #@! TO.P,C10,2*
G04 #@! TO.N,GND*
G04 #@! TA.AperFunction,SMDPad,CuDef*
G36*
G01*
X138132400Y-119423600D02*
X139032400Y-119423600D01*
G75*
G02*
X139282400Y-119673600I0J-250000D01*
G01*
X139282400Y-120323600D01*
G75*
G02*
X139032400Y-120573600I-250000J0D01*
G01*
X138132400Y-120573600D01*
G75*
G02*
X137882400Y-120323600I0J250000D01*
G01*
X137882400Y-119673600D01*
G75*
G02*
X138132400Y-119423600I250000J0D01*
G01*
G37*
G04 #@! TD.AperFunction*
G04 #@! TD*
G04 #@! TO.P,C3,1*
G04 #@! TO.N,Net-(C3-Pad1)*
G04 #@! TA.AperFunction,SMDPad,CuDef*
G36*
G01*
X149801800Y-119766300D02*
X149801800Y-120111300D01*
G75*
G02*
X149654300Y-120258800I-147500J0D01*
G01*
X149359300Y-120258800D01*
G75*
G02*
X149211800Y-120111300I0J147500D01*
G01*
X149211800Y-119766300D01*
G75*
G02*
X149359300Y-119618800I147500J0D01*
G01*
X149654300Y-119618800D01*
G75*
G02*
X149801800Y-119766300I0J-147500D01*
G01*
G37*
G04 #@! TD.AperFunction*
G04 #@! TO.P,C3,2*
G04 #@! TO.N,GND*
G04 #@! TA.AperFunction,SMDPad,CuDef*
G36*
G01*
X148831800Y-119766300D02*
X148831800Y-120111300D01*
G75*
G02*
X148684300Y-120258800I-147500J0D01*
G01*
X148389300Y-120258800D01*
G75*
G02*
X148241800Y-120111300I0J147500D01*
G01*
X148241800Y-119766300D01*
G75*
G02*
X148389300Y-119618800I147500J0D01*
G01*
X148684300Y-119618800D01*
G75*
G02*
X148831800Y-119766300I0J-147500D01*
G01*
G37*
G04 #@! TD.AperFunction*
G04 #@! TD*
G04 #@! TO.P,R13,1*
G04 #@! TO.N,Net-(IC1-Pad15)*
G04 #@! TA.AperFunction,SMDPad,CuDef*
G36*
G01*
X130244000Y-112362000D02*
X129344000Y-112362000D01*
G75*
G02*
X129094000Y-112112000I0J250000D01*
G01*
X129094000Y-111462000D01*
G75*
G02*
X129344000Y-111212000I250000J0D01*
G01*
X130244000Y-111212000D01*
G75*
G02*
X130494000Y-111462000I0J-250000D01*
G01*
X130494000Y-112112000D01*
G75*
G02*
X130244000Y-112362000I-250000J0D01*
G01*
G37*
G04 #@! TD.AperFunction*
G04 #@! TO.P,R13,2*
G04 #@! TO.N,/pixels_4*
G04 #@! TA.AperFunction,SMDPad,CuDef*
G36*
G01*
X130244000Y-110312000D02*
X129344000Y-110312000D01*
G75*
G02*
X129094000Y-110062000I0J250000D01*
G01*
X129094000Y-109412000D01*
G75*
G02*
X129344000Y-109162000I250000J0D01*
G01*
X130244000Y-109162000D01*
G75*
G02*
X130494000Y-109412000I0J-250000D01*
G01*
X130494000Y-110062000D01*
G75*
G02*
X130244000Y-110312000I-250000J0D01*
G01*
G37*
G04 #@! TD.AperFunction*
G04 #@! TD*
D21*
G04 #@! TO.P,L1,1,1*
G04 #@! TO.N,/L1PA*
X153464000Y-112431500D03*
G04 #@! TO.P,L1,2,2*
G04 #@! TO.N,/L1PB*
X149664000Y-112431500D03*
G04 #@! TD*
G04 #@! TO.P,C11,1*
G04 #@! TO.N,/3-12v*
G04 #@! TA.AperFunction,SMDPad,CuDef*
G36*
G01*
X158547000Y-120211000D02*
X158547000Y-119311000D01*
G75*
G02*
X158797000Y-119061000I250000J0D01*
G01*
X159447000Y-119061000D01*
G75*
G02*
X159697000Y-119311000I0J-250000D01*
G01*
X159697000Y-120211000D01*
G75*
G02*
X159447000Y-120461000I-250000J0D01*
G01*
X158797000Y-120461000D01*
G75*
G02*
X158547000Y-120211000I0J250000D01*
G01*
G37*
G04 #@! TD.AperFunction*
G04 #@! TO.P,C11,2*
G04 #@! TO.N,GND*
G04 #@! TA.AperFunction,SMDPad,CuDef*
G36*
G01*
X160597000Y-120211000D02*
X160597000Y-119311000D01*
G75*
G02*
X160847000Y-119061000I250000J0D01*
G01*
X161497000Y-119061000D01*
G75*
G02*
X161747000Y-119311000I0J-250000D01*
G01*
X161747000Y-120211000D01*
G75*
G02*
X161497000Y-120461000I-250000J0D01*
G01*
X160847000Y-120461000D01*
G75*
G02*
X160597000Y-120211000I0J250000D01*
G01*
G37*
G04 #@! TD.AperFunction*
G04 #@! TD*
G04 #@! TO.P,R17,1*
G04 #@! TO.N,Net-(IC1-Pad11)*
G04 #@! TA.AperFunction,SMDPad,CuDef*
G36*
G01*
X121100000Y-112344000D02*
X120200000Y-112344000D01*
G75*
G02*
X119950000Y-112094000I0J250000D01*
G01*
X119950000Y-111444000D01*
G75*
G02*
X120200000Y-111194000I250000J0D01*
G01*
X121100000Y-111194000D01*
G75*
G02*
X121350000Y-111444000I0J-250000D01*
G01*
X121350000Y-112094000D01*
G75*
G02*
X121100000Y-112344000I-250000J0D01*
G01*
G37*
G04 #@! TD.AperFunction*
G04 #@! TO.P,R17,2*
G04 #@! TO.N,/pixels_8*
G04 #@! TA.AperFunction,SMDPad,CuDef*
G36*
G01*
X121100000Y-110294000D02*
X120200000Y-110294000D01*
G75*
G02*
X119950000Y-110044000I0J250000D01*
G01*
X119950000Y-109394000D01*
G75*
G02*
X120200000Y-109144000I250000J0D01*
G01*
X121100000Y-109144000D01*
G75*
G02*
X121350000Y-109394000I0J-250000D01*
G01*
X121350000Y-110044000D01*
G75*
G02*
X121100000Y-110294000I-250000J0D01*
G01*
G37*
G04 #@! TD.AperFunction*
G04 #@! TD*
G04 #@! TO.P,R3,1*
G04 #@! TO.N,+5V*
G04 #@! TA.AperFunction,SMDPad,CuDef*
G36*
G01*
X143464500Y-117228400D02*
X143809500Y-117228400D01*
G75*
G02*
X143957000Y-117375900I0J-147500D01*
G01*
X143957000Y-117670900D01*
G75*
G02*
X143809500Y-117818400I-147500J0D01*
G01*
X143464500Y-117818400D01*
G75*
G02*
X143317000Y-117670900I0J147500D01*
G01*
X143317000Y-117375900D01*
G75*
G02*
X143464500Y-117228400I147500J0D01*
G01*
G37*
G04 #@! TD.AperFunction*
G04 #@! TO.P,R3,2*
G04 #@! TO.N,Net-(R3-Pad2)*
G04 #@! TA.AperFunction,SMDPad,CuDef*
G36*
G01*
X143464500Y-118198400D02*
X143809500Y-118198400D01*
G75*
G02*
X143957000Y-118345900I0J-147500D01*
G01*
X143957000Y-118640900D01*
G75*
G02*
X143809500Y-118788400I-147500J0D01*
G01*
X143464500Y-118788400D01*
G75*
G02*
X143317000Y-118640900I0J147500D01*
G01*
X143317000Y-118345900D01*
G75*
G02*
X143464500Y-118198400I147500J0D01*
G01*
G37*
G04 #@! TD.AperFunction*
G04 #@! TD*
G04 #@! TO.P,R1,1*
G04 #@! TO.N,+5V*
G04 #@! TA.AperFunction,SMDPad,CuDef*
G36*
G01*
X145877500Y-117330000D02*
X146222500Y-117330000D01*
G75*
G02*
X146370000Y-117477500I0J-147500D01*
G01*
X146370000Y-117772500D01*
G75*
G02*
X146222500Y-117920000I-147500J0D01*
G01*
X145877500Y-117920000D01*
G75*
G02*
X145730000Y-117772500I0J147500D01*
G01*
X145730000Y-117477500D01*
G75*
G02*
X145877500Y-117330000I147500J0D01*
G01*
G37*
G04 #@! TD.AperFunction*
G04 #@! TO.P,R1,2*
G04 #@! TO.N,Net-(C4-Pad1)*
G04 #@! TA.AperFunction,SMDPad,CuDef*
G36*
G01*
X145877500Y-118300000D02*
X146222500Y-118300000D01*
G75*
G02*
X146370000Y-118447500I0J-147500D01*
G01*
X146370000Y-118742500D01*
G75*
G02*
X146222500Y-118890000I-147500J0D01*
G01*
X145877500Y-118890000D01*
G75*
G02*
X145730000Y-118742500I0J147500D01*
G01*
X145730000Y-118447500D01*
G75*
G02*
X145877500Y-118300000I147500J0D01*
G01*
G37*
G04 #@! TD.AperFunction*
G04 #@! TD*
G04 #@! TO.P,C12,1*
G04 #@! TO.N,/3-12v*
G04 #@! TA.AperFunction,SMDPad,CuDef*
G36*
G01*
X158547000Y-122243000D02*
X158547000Y-121343000D01*
G75*
G02*
X158797000Y-121093000I250000J0D01*
G01*
X159447000Y-121093000D01*
G75*
G02*
X159697000Y-121343000I0J-250000D01*
G01*
X159697000Y-122243000D01*
G75*
G02*
X159447000Y-122493000I-250000J0D01*
G01*
X158797000Y-122493000D01*
G75*
G02*
X158547000Y-122243000I0J250000D01*
G01*
G37*
G04 #@! TD.AperFunction*
G04 #@! TO.P,C12,2*
G04 #@! TO.N,GND*
G04 #@! TA.AperFunction,SMDPad,CuDef*
G36*
G01*
X160597000Y-122243000D02*
X160597000Y-121343000D01*
G75*
G02*
X160847000Y-121093000I250000J0D01*
G01*
X161497000Y-121093000D01*
G75*
G02*
X161747000Y-121343000I0J-250000D01*
G01*
X161747000Y-122243000D01*
G75*
G02*
X161497000Y-122493000I-250000J0D01*
G01*
X160847000Y-122493000D01*
G75*
G02*
X160597000Y-122243000I0J250000D01*
G01*
G37*
G04 #@! TD.AperFunction*
G04 #@! TD*
D10*
G04 #@! TO.P,J5,1,Pin_1*
G04 #@! TO.N,GND*
X106680000Y-124460000D03*
D11*
G04 #@! TO.P,J5,2,Pin_2*
G04 #@! TO.N,Net-(J5-Pad2)*
X106680000Y-127000000D03*
G04 #@! TD*
D22*
G04 #@! TO.P,U1,1,L1*
G04 #@! TO.N,/L1PA*
X153574000Y-116081500D03*
D23*
X153289000Y-116081500D03*
G04 #@! TO.P,U1,2,VIN*
G04 #@! TO.N,/3-12v*
X153289000Y-116581500D03*
D22*
X153574000Y-116581500D03*
D23*
G04 #@! TO.P,U1,3,EN*
X153289000Y-117081500D03*
D22*
X153574000Y-117081500D03*
G04 #@! TO.P,U1,4,PS/SYNC*
G04 #@! TO.N,GND*
X153574000Y-117581500D03*
D23*
X153289000Y-117581500D03*
G04 #@! TO.P,U1,5,PG*
G04 #@! TO.N,Net-(R3-Pad2)*
X153289000Y-118081500D03*
D22*
X153574000Y-118081500D03*
G04 #@! TO.P,U1,6,VAUX*
G04 #@! TO.N,Net-(C3-Pad1)*
X150054000Y-118081500D03*
D23*
X150339000Y-118081500D03*
G04 #@! TO.P,U1,7,GND*
G04 #@! TO.N,GND*
X150339000Y-117581500D03*
D22*
X150054000Y-117581500D03*
G04 #@! TO.P,U1,8,FB*
G04 #@! TO.N,Net-(C4-Pad1)*
X150054000Y-117081500D03*
D23*
X150339000Y-117081500D03*
D22*
G04 #@! TO.P,U1,9,VOUT*
G04 #@! TO.N,+5V*
X150054000Y-116581500D03*
D23*
X150339000Y-116581500D03*
D22*
G04 #@! TO.P,U1,10,L2*
G04 #@! TO.N,/L1PB*
X150054000Y-116081500D03*
D23*
X150339000Y-116081500D03*
D24*
G04 #@! TO.P,U1,11,PGND*
G04 #@! TO.N,GND*
X151614000Y-118506500D03*
D25*
X152414000Y-118506500D03*
D26*
X151379000Y-117641500D03*
X152249000Y-117641500D03*
X152249000Y-116521500D03*
D27*
X151814000Y-117081500D03*
D25*
X151214000Y-115656500D03*
X152414000Y-115656500D03*
X152014000Y-118506500D03*
D24*
X152014000Y-115656500D03*
X151214000Y-118506500D03*
X151614000Y-115656500D03*
D27*
X151314000Y-116581500D03*
D24*
X151214000Y-115656500D03*
X152014000Y-118506500D03*
D25*
X152014000Y-115656500D03*
D24*
X152414000Y-118506500D03*
D27*
X151314000Y-117581500D03*
D24*
X152414000Y-115656500D03*
D26*
X151379000Y-116521500D03*
D27*
X152314000Y-117581500D03*
D25*
X151614000Y-118506500D03*
D28*
X151814000Y-117081500D03*
D25*
X151214000Y-118506500D03*
X151614000Y-115656500D03*
D27*
X152314000Y-116581500D03*
G04 #@! TD*
G04 #@! TO.P,C4,1*
G04 #@! TO.N,Net-(C4-Pad1)*
G04 #@! TA.AperFunction,SMDPad,CuDef*
G36*
G01*
X146322000Y-119842500D02*
X146322000Y-120187500D01*
G75*
G02*
X146174500Y-120335000I-147500J0D01*
G01*
X145879500Y-120335000D01*
G75*
G02*
X145732000Y-120187500I0J147500D01*
G01*
X145732000Y-119842500D01*
G75*
G02*
X145879500Y-119695000I147500J0D01*
G01*
X146174500Y-119695000D01*
G75*
G02*
X146322000Y-119842500I0J-147500D01*
G01*
G37*
G04 #@! TD.AperFunction*
G04 #@! TO.P,C4,2*
G04 #@! TO.N,GND*
G04 #@! TA.AperFunction,SMDPad,CuDef*
G36*
G01*
X145352000Y-119842500D02*
X145352000Y-120187500D01*
G75*
G02*
X145204500Y-120335000I-147500J0D01*
G01*
X144909500Y-120335000D01*
G75*
G02*
X144762000Y-120187500I0J147500D01*
G01*
X144762000Y-119842500D01*
G75*
G02*
X144909500Y-119695000I147500J0D01*
G01*
X145204500Y-119695000D01*
G75*
G02*
X145352000Y-119842500I0J-147500D01*
G01*
G37*
G04 #@! TD.AperFunction*
G04 #@! TD*
G04 #@! TO.P,IC1,1,DIR*
G04 #@! TO.N,+5V*
G04 #@! TA.AperFunction,SMDPad,CuDef*
G36*
G01*
X136675000Y-126755000D02*
X136375000Y-126755000D01*
G75*
G02*
X136225000Y-126605000I0J150000D01*
G01*
X136225000Y-124855000D01*
G75*
G02*
X136375000Y-124705000I150000J0D01*
G01*
X136675000Y-124705000D01*
G75*
G02*
X136825000Y-124855000I0J-150000D01*
G01*
X136825000Y-126605000D01*
G75*
G02*
X136675000Y-126755000I-150000J0D01*
G01*
G37*
G04 #@! TD.AperFunction*
G04 #@! TO.P,IC1,2,A1*
G04 #@! TO.N,/level_shift_1*
G04 #@! TA.AperFunction,SMDPad,CuDef*
G36*
G01*
X135405000Y-126755000D02*
X135105000Y-126755000D01*
G75*
G02*
X134955000Y-126605000I0J150000D01*
G01*
X134955000Y-124855000D01*
G75*
G02*
X135105000Y-124705000I150000J0D01*
G01*
X135405000Y-124705000D01*
G75*
G02*
X135555000Y-124855000I0J-150000D01*
G01*
X135555000Y-126605000D01*
G75*
G02*
X135405000Y-126755000I-150000J0D01*
G01*
G37*
G04 #@! TD.AperFunction*
G04 #@! TO.P,IC1,3,A2*
G04 #@! TO.N,/level_shift_2*
G04 #@! TA.AperFunction,SMDPad,CuDef*
G36*
G01*
X134135000Y-126755000D02*
X133835000Y-126755000D01*
G75*
G02*
X133685000Y-126605000I0J150000D01*
G01*
X133685000Y-124855000D01*
G75*
G02*
X133835000Y-124705000I150000J0D01*
G01*
X134135000Y-124705000D01*
G75*
G02*
X134285000Y-124855000I0J-150000D01*
G01*
X134285000Y-126605000D01*
G75*
G02*
X134135000Y-126755000I-150000J0D01*
G01*
G37*
G04 #@! TD.AperFunction*
G04 #@! TO.P,IC1,4,A3*
G04 #@! TO.N,/level_shift_3*
G04 #@! TA.AperFunction,SMDPad,CuDef*
G36*
G01*
X132865000Y-126755000D02*
X132565000Y-126755000D01*
G75*
G02*
X132415000Y-126605000I0J150000D01*
G01*
X132415000Y-124855000D01*
G75*
G02*
X132565000Y-124705000I150000J0D01*
G01*
X132865000Y-124705000D01*
G75*
G02*
X133015000Y-124855000I0J-150000D01*
G01*
X133015000Y-126605000D01*
G75*
G02*
X132865000Y-126755000I-150000J0D01*
G01*
G37*
G04 #@! TD.AperFunction*
G04 #@! TO.P,IC1,5,A4*
G04 #@! TO.N,/level_shift_4*
G04 #@! TA.AperFunction,SMDPad,CuDef*
G36*
G01*
X131595000Y-126755000D02*
X131295000Y-126755000D01*
G75*
G02*
X131145000Y-126605000I0J150000D01*
G01*
X131145000Y-124855000D01*
G75*
G02*
X131295000Y-124705000I150000J0D01*
G01*
X131595000Y-124705000D01*
G75*
G02*
X131745000Y-124855000I0J-150000D01*
G01*
X131745000Y-126605000D01*
G75*
G02*
X131595000Y-126755000I-150000J0D01*
G01*
G37*
G04 #@! TD.AperFunction*
G04 #@! TO.P,IC1,6,A5*
G04 #@! TO.N,/level_shift_5*
G04 #@! TA.AperFunction,SMDPad,CuDef*
G36*
G01*
X130325000Y-126755000D02*
X130025000Y-126755000D01*
G75*
G02*
X129875000Y-126605000I0J150000D01*
G01*
X129875000Y-124855000D01*
G75*
G02*
X130025000Y-124705000I150000J0D01*
G01*
X130325000Y-124705000D01*
G75*
G02*
X130475000Y-124855000I0J-150000D01*
G01*
X130475000Y-126605000D01*
G75*
G02*
X130325000Y-126755000I-150000J0D01*
G01*
G37*
G04 #@! TD.AperFunction*
G04 #@! TO.P,IC1,7,A6*
G04 #@! TO.N,/level_shift_6*
G04 #@! TA.AperFunction,SMDPad,CuDef*
G36*
G01*
X129055000Y-126755000D02*
X128755000Y-126755000D01*
G75*
G02*
X128605000Y-126605000I0J150000D01*
G01*
X128605000Y-124855000D01*
G75*
G02*
X128755000Y-124705000I150000J0D01*
G01*
X129055000Y-124705000D01*
G75*
G02*
X129205000Y-124855000I0J-150000D01*
G01*
X129205000Y-126605000D01*
G75*
G02*
X129055000Y-126755000I-150000J0D01*
G01*
G37*
G04 #@! TD.AperFunction*
G04 #@! TO.P,IC1,8,A7*
G04 #@! TO.N,/level_shift_7*
G04 #@! TA.AperFunction,SMDPad,CuDef*
G36*
G01*
X127785000Y-126755000D02*
X127485000Y-126755000D01*
G75*
G02*
X127335000Y-126605000I0J150000D01*
G01*
X127335000Y-124855000D01*
G75*
G02*
X127485000Y-124705000I150000J0D01*
G01*
X127785000Y-124705000D01*
G75*
G02*
X127935000Y-124855000I0J-150000D01*
G01*
X127935000Y-126605000D01*
G75*
G02*
X127785000Y-126755000I-150000J0D01*
G01*
G37*
G04 #@! TD.AperFunction*
G04 #@! TO.P,IC1,9,A8*
G04 #@! TO.N,/level_shift_8*
G04 #@! TA.AperFunction,SMDPad,CuDef*
G36*
G01*
X126515000Y-126755000D02*
X126215000Y-126755000D01*
G75*
G02*
X126065000Y-126605000I0J150000D01*
G01*
X126065000Y-124855000D01*
G75*
G02*
X126215000Y-124705000I150000J0D01*
G01*
X126515000Y-124705000D01*
G75*
G02*
X126665000Y-124855000I0J-150000D01*
G01*
X126665000Y-126605000D01*
G75*
G02*
X126515000Y-126755000I-150000J0D01*
G01*
G37*
G04 #@! TD.AperFunction*
G04 #@! TO.P,IC1,10,GND*
G04 #@! TO.N,GND*
G04 #@! TA.AperFunction,SMDPad,CuDef*
G36*
G01*
X125245000Y-126755000D02*
X124945000Y-126755000D01*
G75*
G02*
X124795000Y-126605000I0J150000D01*
G01*
X124795000Y-124855000D01*
G75*
G02*
X124945000Y-124705000I150000J0D01*
G01*
X125245000Y-124705000D01*
G75*
G02*
X125395000Y-124855000I0J-150000D01*
G01*
X125395000Y-126605000D01*
G75*
G02*
X125245000Y-126755000I-150000J0D01*
G01*
G37*
G04 #@! TD.AperFunction*
G04 #@! TO.P,IC1,11,B8*
G04 #@! TO.N,Net-(IC1-Pad11)*
G04 #@! TA.AperFunction,SMDPad,CuDef*
G36*
G01*
X125245000Y-119135000D02*
X124945000Y-119135000D01*
G75*
G02*
X124795000Y-118985000I0J150000D01*
G01*
X124795000Y-117235000D01*
G75*
G02*
X124945000Y-117085000I150000J0D01*
G01*
X125245000Y-117085000D01*
G75*
G02*
X125395000Y-117235000I0J-150000D01*
G01*
X125395000Y-118985000D01*
G75*
G02*
X125245000Y-119135000I-150000J0D01*
G01*
G37*
G04 #@! TD.AperFunction*
G04 #@! TO.P,IC1,12,B7*
G04 #@! TO.N,Net-(IC1-Pad12)*
G04 #@! TA.AperFunction,SMDPad,CuDef*
G36*
G01*
X126515000Y-119135000D02*
X126215000Y-119135000D01*
G75*
G02*
X126065000Y-118985000I0J150000D01*
G01*
X126065000Y-117235000D01*
G75*
G02*
X126215000Y-117085000I150000J0D01*
G01*
X126515000Y-117085000D01*
G75*
G02*
X126665000Y-117235000I0J-150000D01*
G01*
X126665000Y-118985000D01*
G75*
G02*
X126515000Y-119135000I-150000J0D01*
G01*
G37*
G04 #@! TD.AperFunction*
G04 #@! TO.P,IC1,13,B6*
G04 #@! TO.N,Net-(IC1-Pad13)*
G04 #@! TA.AperFunction,SMDPad,CuDef*
G36*
G01*
X127785000Y-119135000D02*
X127485000Y-119135000D01*
G75*
G02*
X127335000Y-118985000I0J150000D01*
G01*
X127335000Y-117235000D01*
G75*
G02*
X127485000Y-117085000I150000J0D01*
G01*
X127785000Y-117085000D01*
G75*
G02*
X127935000Y-117235000I0J-150000D01*
G01*
X127935000Y-118985000D01*
G75*
G02*
X127785000Y-119135000I-150000J0D01*
G01*
G37*
G04 #@! TD.AperFunction*
G04 #@! TO.P,IC1,14,B5*
G04 #@! TO.N,Net-(IC1-Pad14)*
G04 #@! TA.AperFunction,SMDPad,CuDef*
G36*
G01*
X129055000Y-119135000D02*
X128755000Y-119135000D01*
G75*
G02*
X128605000Y-118985000I0J150000D01*
G01*
X128605000Y-117235000D01*
G75*
G02*
X128755000Y-117085000I150000J0D01*
G01*
X129055000Y-117085000D01*
G75*
G02*
X129205000Y-117235000I0J-150000D01*
G01*
X129205000Y-118985000D01*
G75*
G02*
X129055000Y-119135000I-150000J0D01*
G01*
G37*
G04 #@! TD.AperFunction*
G04 #@! TO.P,IC1,15,B4*
G04 #@! TO.N,Net-(IC1-Pad15)*
G04 #@! TA.AperFunction,SMDPad,CuDef*
G36*
G01*
X130325000Y-119135000D02*
X130025000Y-119135000D01*
G75*
G02*
X129875000Y-118985000I0J150000D01*
G01*
X129875000Y-117235000D01*
G75*
G02*
X130025000Y-117085000I150000J0D01*
G01*
X130325000Y-117085000D01*
G75*
G02*
X130475000Y-117235000I0J-150000D01*
G01*
X130475000Y-118985000D01*
G75*
G02*
X130325000Y-119135000I-150000J0D01*
G01*
G37*
G04 #@! TD.AperFunction*
G04 #@! TO.P,IC1,16,B3*
G04 #@! TO.N,Net-(IC1-Pad16)*
G04 #@! TA.AperFunction,SMDPad,CuDef*
G36*
G01*
X131595000Y-119135000D02*
X131295000Y-119135000D01*
G75*
G02*
X131145000Y-118985000I0J150000D01*
G01*
X131145000Y-117235000D01*
G75*
G02*
X131295000Y-117085000I150000J0D01*
G01*
X131595000Y-117085000D01*
G75*
G02*
X131745000Y-117235000I0J-150000D01*
G01*
X131745000Y-118985000D01*
G75*
G02*
X131595000Y-119135000I-150000J0D01*
G01*
G37*
G04 #@! TD.AperFunction*
G04 #@! TO.P,IC1,17,B2*
G04 #@! TO.N,Net-(IC1-Pad17)*
G04 #@! TA.AperFunction,SMDPad,CuDef*
G36*
G01*
X132865000Y-119135000D02*
X132565000Y-119135000D01*
G75*
G02*
X132415000Y-118985000I0J150000D01*
G01*
X132415000Y-117235000D01*
G75*
G02*
X132565000Y-117085000I150000J0D01*
G01*
X132865000Y-117085000D01*
G75*
G02*
X133015000Y-117235000I0J-150000D01*
G01*
X133015000Y-118985000D01*
G75*
G02*
X132865000Y-119135000I-150000J0D01*
G01*
G37*
G04 #@! TD.AperFunction*
G04 #@! TO.P,IC1,18,B1*
G04 #@! TO.N,Net-(IC1-Pad18)*
G04 #@! TA.AperFunction,SMDPad,CuDef*
G36*
G01*
X134135000Y-119135000D02*
X133835000Y-119135000D01*
G75*
G02*
X133685000Y-118985000I0J150000D01*
G01*
X133685000Y-117235000D01*
G75*
G02*
X133835000Y-117085000I150000J0D01*
G01*
X134135000Y-117085000D01*
G75*
G02*
X134285000Y-117235000I0J-150000D01*
G01*
X134285000Y-118985000D01*
G75*
G02*
X134135000Y-119135000I-150000J0D01*
G01*
G37*
G04 #@! TD.AperFunction*
G04 #@! TO.P,IC1,19,~OE~*
G04 #@! TO.N,GND*
G04 #@! TA.AperFunction,SMDPad,CuDef*
G36*
G01*
X135405000Y-119135000D02*
X135105000Y-119135000D01*
G75*
G02*
X134955000Y-118985000I0J150000D01*
G01*
X134955000Y-117235000D01*
G75*
G02*
X135105000Y-117085000I150000J0D01*
G01*
X135405000Y-117085000D01*
G75*
G02*
X135555000Y-117235000I0J-150000D01*
G01*
X135555000Y-118985000D01*
G75*
G02*
X135405000Y-119135000I-150000J0D01*
G01*
G37*
G04 #@! TD.AperFunction*
G04 #@! TO.P,IC1,20,VCC*
G04 #@! TO.N,+5V*
G04 #@! TA.AperFunction,SMDPad,CuDef*
G36*
G01*
X136675000Y-119135000D02*
X136375000Y-119135000D01*
G75*
G02*
X136225000Y-118985000I0J150000D01*
G01*
X136225000Y-117235000D01*
G75*
G02*
X136375000Y-117085000I150000J0D01*
G01*
X136675000Y-117085000D01*
G75*
G02*
X136825000Y-117235000I0J-150000D01*
G01*
X136825000Y-118985000D01*
G75*
G02*
X136675000Y-119135000I-150000J0D01*
G01*
G37*
G04 #@! TD.AperFunction*
G04 #@! TD*
G04 #@! TO.P,R11,1*
G04 #@! TO.N,Net-(IC1-Pad17)*
G04 #@! TA.AperFunction,SMDPad,CuDef*
G36*
G01*
X134816000Y-112344000D02*
X133916000Y-112344000D01*
G75*
G02*
X133666000Y-112094000I0J250000D01*
G01*
X133666000Y-111444000D01*
G75*
G02*
X133916000Y-111194000I250000J0D01*
G01*
X134816000Y-111194000D01*
G75*
G02*
X135066000Y-111444000I0J-250000D01*
G01*
X135066000Y-112094000D01*
G75*
G02*
X134816000Y-112344000I-250000J0D01*
G01*
G37*
G04 #@! TD.AperFunction*
G04 #@! TO.P,R11,2*
G04 #@! TO.N,/pixels_2*
G04 #@! TA.AperFunction,SMDPad,CuDef*
G36*
G01*
X134816000Y-110294000D02*
X133916000Y-110294000D01*
G75*
G02*
X133666000Y-110044000I0J250000D01*
G01*
X133666000Y-109394000D01*
G75*
G02*
X133916000Y-109144000I250000J0D01*
G01*
X134816000Y-109144000D01*
G75*
G02*
X135066000Y-109394000I0J-250000D01*
G01*
X135066000Y-110044000D01*
G75*
G02*
X134816000Y-110294000I-250000J0D01*
G01*
G37*
G04 #@! TD.AperFunction*
G04 #@! TD*
D10*
G04 #@! TO.P,J6,1,Pin_1*
G04 #@! TO.N,GND*
X106680000Y-119380000D03*
D11*
G04 #@! TO.P,J6,2,Pin_2*
G04 #@! TO.N,Net-(J6-Pad2)*
X106680000Y-121920000D03*
G04 #@! TD*
G04 #@! TO.P,R9,1*
G04 #@! TO.N,Net-(D2-Pad1)*
G04 #@! TA.AperFunction,SMDPad,CuDef*
G36*
G01*
X112095500Y-113342200D02*
X112440500Y-113342200D01*
G75*
G02*
X112588000Y-113489700I0J-147500D01*
G01*
X112588000Y-113784700D01*
G75*
G02*
X112440500Y-113932200I-147500J0D01*
G01*
X112095500Y-113932200D01*
G75*
G02*
X111948000Y-113784700I0J147500D01*
G01*
X111948000Y-113489700D01*
G75*
G02*
X112095500Y-113342200I147500J0D01*
G01*
G37*
G04 #@! TD.AperFunction*
G04 #@! TO.P,R9,2*
G04 #@! TO.N,GND*
G04 #@! TA.AperFunction,SMDPad,CuDef*
G36*
G01*
X112095500Y-114312200D02*
X112440500Y-114312200D01*
G75*
G02*
X112588000Y-114459700I0J-147500D01*
G01*
X112588000Y-114754700D01*
G75*
G02*
X112440500Y-114902200I-147500J0D01*
G01*
X112095500Y-114902200D01*
G75*
G02*
X111948000Y-114754700I0J147500D01*
G01*
X111948000Y-114459700D01*
G75*
G02*
X112095500Y-114312200I147500J0D01*
G01*
G37*
G04 #@! TD.AperFunction*
G04 #@! TD*
G04 #@! TO.P,R14,1*
G04 #@! TO.N,Net-(IC1-Pad14)*
G04 #@! TA.AperFunction,SMDPad,CuDef*
G36*
G01*
X127958000Y-112362000D02*
X127058000Y-112362000D01*
G75*
G02*
X126808000Y-112112000I0J250000D01*
G01*
X126808000Y-111462000D01*
G75*
G02*
X127058000Y-111212000I250000J0D01*
G01*
X127958000Y-111212000D01*
G75*
G02*
X128208000Y-111462000I0J-250000D01*
G01*
X128208000Y-112112000D01*
G75*
G02*
X127958000Y-112362000I-250000J0D01*
G01*
G37*
G04 #@! TD.AperFunction*
G04 #@! TO.P,R14,2*
G04 #@! TO.N,/pixels_5*
G04 #@! TA.AperFunction,SMDPad,CuDef*
G36*
G01*
X127958000Y-110312000D02*
X127058000Y-110312000D01*
G75*
G02*
X126808000Y-110062000I0J250000D01*
G01*
X126808000Y-109412000D01*
G75*
G02*
X127058000Y-109162000I250000J0D01*
G01*
X127958000Y-109162000D01*
G75*
G02*
X128208000Y-109412000I0J-250000D01*
G01*
X128208000Y-110062000D01*
G75*
G02*
X127958000Y-110312000I-250000J0D01*
G01*
G37*
G04 #@! TD.AperFunction*
G04 #@! TD*
D29*
G04 #@! TO.N,GND*
X168148000Y-117312000D03*
X153822400Y-124993400D03*
X154051000Y-108940600D03*
X161544000Y-136192000D03*
X163315400Y-99568000D03*
X109829600Y-120675400D03*
X164592000Y-106172000D03*
X162315400Y-101568000D03*
X163315400Y-101568000D03*
X163648000Y-115062000D03*
X163315400Y-100568000D03*
X165315400Y-101568000D03*
X162315400Y-99568000D03*
X163544000Y-137192000D03*
X162315400Y-100568000D03*
X162544000Y-139192000D03*
X147980400Y-123164600D03*
X117348000Y-124155200D03*
X146558000Y-110744000D03*
X164315400Y-99568000D03*
X165898000Y-116562000D03*
X164544000Y-139192000D03*
X165862000Y-106172000D03*
X150571200Y-123266200D03*
X113588800Y-114147600D03*
X164544000Y-136192000D03*
X164398000Y-115812000D03*
X161544000Y-139192000D03*
X119380000Y-119253000D03*
X163322000Y-106172000D03*
X164398000Y-115062000D03*
X106654600Y-128727200D03*
X163544000Y-136192000D03*
X165544000Y-139192000D03*
X164544000Y-137192000D03*
X113969800Y-125958600D03*
X109829600Y-125857000D03*
X164398000Y-116562000D03*
X138836400Y-116484400D03*
X168148000Y-116562000D03*
X164315400Y-100568000D03*
X164544000Y-138192000D03*
X146888200Y-126619000D03*
X163544000Y-139192000D03*
X162544000Y-138192000D03*
X153746200Y-127558800D03*
X165898000Y-115812000D03*
X161544000Y-134874000D03*
X142494000Y-110744000D03*
X122656600Y-123367800D03*
X166648000Y-116562000D03*
X138785600Y-128524000D03*
X138176000Y-121285000D03*
X165315400Y-99568000D03*
X150622000Y-120116600D03*
X147574000Y-110744000D03*
X163648000Y-116562000D03*
X120523000Y-129641600D03*
X153111200Y-120650000D03*
X152450800Y-120116600D03*
X161544000Y-137192000D03*
X151511000Y-120116600D03*
X166648000Y-115812000D03*
X143383000Y-110744000D03*
X167132000Y-106172000D03*
X162544000Y-136192000D03*
X161315400Y-100568000D03*
X144399000Y-110744000D03*
X166648000Y-117312000D03*
X161315400Y-101568000D03*
X167544000Y-136192000D03*
X167398000Y-116562000D03*
X142621000Y-122936000D03*
X166544000Y-136192000D03*
X165544000Y-138192000D03*
X167398000Y-115812000D03*
X139014200Y-122428000D03*
X165148000Y-116562000D03*
X138176000Y-122428000D03*
X116052600Y-114249200D03*
X115189000Y-117602000D03*
X167398000Y-117312000D03*
X165898000Y-115062000D03*
X165148000Y-115062000D03*
X150114000Y-127076200D03*
X167398000Y-115062000D03*
X107162600Y-114071400D03*
X106730800Y-117576600D03*
X165315400Y-100568000D03*
X144983200Y-124764800D03*
X166648000Y-115062000D03*
X139014200Y-121285000D03*
X168148000Y-115062000D03*
X113919000Y-120599200D03*
X135280400Y-119938800D03*
X153873200Y-122377200D03*
X145415000Y-110744000D03*
X164315400Y-101568000D03*
X162544000Y-137192000D03*
X119253000Y-118059200D03*
X163648000Y-115812000D03*
X161315400Y-99568000D03*
X161544000Y-138192000D03*
X125349000Y-127381000D03*
X168148000Y-115812000D03*
X165544000Y-136192000D03*
X163544000Y-138192000D03*
X165544000Y-137192000D03*
X144221200Y-129844800D03*
X150342600Y-109016800D03*
X165148000Y-115812000D03*
X138607800Y-114223800D03*
X119253000Y-125476000D03*
G04 #@! TO.N,+3V3*
X121398000Y-125531000D03*
X121384200Y-120165000D03*
G04 #@! TO.N,/3-12v*
X157988000Y-119888000D03*
X161258000Y-106744000D03*
X158083000Y-110718600D03*
X161258000Y-110744000D03*
X157988000Y-123698000D03*
X161258000Y-107744000D03*
X157988000Y-124333000D03*
X157988000Y-119253000D03*
X158083000Y-109718600D03*
X161258000Y-109744000D03*
X157988000Y-120523000D03*
X159149800Y-105714800D03*
X157988000Y-121793000D03*
X157988000Y-121158000D03*
X160191200Y-105714800D03*
X161258000Y-108744000D03*
X157988000Y-122428000D03*
X161258000Y-105744000D03*
X158083000Y-107718600D03*
X158083000Y-106718600D03*
X158083000Y-105718600D03*
X158083000Y-108718600D03*
X157988000Y-123063000D03*
G04 #@! TO.N,/button_2*
X126365000Y-120142000D03*
G04 #@! TO.N,/button_1*
X127635000Y-120650000D03*
G04 #@! TO.N,/pixels_2*
X135051800Y-108280200D03*
X159664400Y-132130800D03*
G04 #@! TO.N,/pixels_1*
X137668000Y-108712000D03*
X159562800Y-129489200D03*
G04 #@! TO.N,/level_shift_5*
X130175000Y-123698000D03*
G04 #@! TO.N,/level_shift_6*
X128905000Y-122809000D03*
G04 #@! TO.N,/level_shift_7*
X127635000Y-122047000D03*
G04 #@! TO.N,/level_shift_8*
X126365000Y-123063000D03*
G04 #@! TO.N,Net-(R3-Pad2)*
X144399000Y-118897400D03*
X153492200Y-119227600D03*
G04 #@! TD*
D30*
G04 #@! TO.N,GND*
X106832000Y-124308000D02*
X106680000Y-124460000D01*
X120142000Y-120156000D02*
X120142000Y-120015000D01*
X120142000Y-120015000D02*
X119380000Y-119253000D01*
D31*
X151814000Y-117081500D02*
X151814000Y-117206500D01*
X151814000Y-117206500D02*
X152249000Y-117641500D01*
D30*
X135255000Y-119913400D02*
X135280400Y-119938800D01*
X135255000Y-118110000D02*
X135255000Y-119913400D01*
D32*
X158860600Y-114477800D02*
X161112200Y-114477800D01*
D31*
X153289000Y-117581500D02*
X152314000Y-117581500D01*
D30*
X119276000Y-125499000D02*
X119253000Y-125476000D01*
X112268000Y-114607200D02*
X113129200Y-114607200D01*
X120142000Y-125499000D02*
X119276000Y-125499000D01*
X107673000Y-114581800D02*
X107162600Y-114071400D01*
X108407200Y-114581800D02*
X107673000Y-114581800D01*
D31*
X151319000Y-117581500D02*
X151379000Y-117641500D01*
D30*
X125095000Y-125730000D02*
X125095000Y-127127000D01*
D32*
X158889000Y-116611400D02*
X161264600Y-116611400D01*
D30*
X125095000Y-127127000D02*
X125349000Y-127381000D01*
X113129200Y-114607200D02*
X113588800Y-114147600D01*
D31*
X150339000Y-117581500D02*
X151319000Y-117581500D01*
D30*
G04 #@! TO.N,+5V*
X146050000Y-117625000D02*
X146050000Y-116713000D01*
D32*
X149809200Y-128320800D02*
X151610000Y-130121600D01*
X140944600Y-117119400D02*
X142002400Y-116061600D01*
X144780000Y-135661400D02*
X144780000Y-137160000D01*
X143967200Y-128320800D02*
X149809200Y-128320800D01*
D30*
X143637000Y-117523400D02*
X143637000Y-116611400D01*
D32*
X142002400Y-116061600D02*
X142875000Y-116061600D01*
X151610000Y-132100000D02*
X151610000Y-133555800D01*
D31*
X150054000Y-116581500D02*
X149576100Y-116581500D01*
D32*
X150647400Y-134518400D02*
X145923000Y-134518400D01*
X151610000Y-130121600D02*
X151610000Y-132100000D01*
X140944600Y-117957600D02*
X140944600Y-125298200D01*
D31*
X150334500Y-116586000D02*
X150339000Y-116581500D01*
D32*
X140944600Y-117957600D02*
X138591400Y-117957600D01*
X140944600Y-117957600D02*
X140944600Y-117119400D01*
D30*
X136779000Y-125476000D02*
X136525000Y-125730000D01*
D32*
X140944600Y-125298200D02*
X143967200Y-128320800D01*
D33*
X138582400Y-117948600D02*
X136915000Y-117948600D01*
D32*
X145923000Y-134518400D02*
X144780000Y-135661400D01*
D30*
X136525000Y-118110000D02*
X136525000Y-125730000D01*
D32*
X138591400Y-117957600D02*
X138582400Y-117948600D01*
X151610000Y-133555800D02*
X150647400Y-134518400D01*
D30*
G04 #@! TO.N,Net-(D1-Pad1)*
X108407200Y-111048800D02*
X108458000Y-110998000D01*
X108407200Y-113611800D02*
X108407200Y-111048800D01*
G04 #@! TO.N,Net-(D2-Pad1)*
X112268000Y-113637200D02*
X112268000Y-110998000D01*
D31*
G04 #@! TO.N,Net-(IC1-Pad18)*
X136652000Y-113792000D02*
X136652000Y-111787000D01*
X133985000Y-116459000D02*
X136652000Y-113792000D01*
X133985000Y-118110000D02*
X133985000Y-116459000D01*
G04 #@! TO.N,Net-(IC1-Pad17)*
X132715000Y-118110000D02*
X132715000Y-115189000D01*
X132715000Y-115189000D02*
X134366000Y-113538000D01*
X134366000Y-113538000D02*
X134366000Y-111769000D01*
G04 #@! TO.N,Net-(IC1-Pad16)*
X131445000Y-118110000D02*
X131445000Y-113919000D01*
X131445000Y-113919000D02*
X132080000Y-113284000D01*
X132080000Y-113284000D02*
X132080000Y-111787000D01*
G04 #@! TO.N,Net-(IC1-Pad15)*
X130175000Y-118110000D02*
X130175000Y-114427000D01*
X130175000Y-114427000D02*
X129794000Y-114046000D01*
X129794000Y-114046000D02*
X129794000Y-111787000D01*
G04 #@! TO.N,Net-(IC1-Pad14)*
X127508000Y-113792000D02*
X127508000Y-111787000D01*
X128905000Y-118110000D02*
X128905000Y-115189000D01*
X128905000Y-115189000D02*
X127508000Y-113792000D01*
G04 #@! TO.N,Net-(IC1-Pad13)*
X125222000Y-113792000D02*
X125222000Y-111787000D01*
X127635000Y-118110000D02*
X127635000Y-116205000D01*
X127635000Y-116205000D02*
X125222000Y-113792000D01*
G04 #@! TO.N,Net-(IC1-Pad12)*
X126365000Y-118110000D02*
X126365000Y-117221000D01*
X122936000Y-113792000D02*
X122936000Y-111778000D01*
X126365000Y-117221000D02*
X122936000Y-113792000D01*
G04 #@! TO.N,Net-(IC1-Pad11)*
X125095000Y-118110000D02*
X124714000Y-118110000D01*
X120650000Y-114046000D02*
X120650000Y-111769000D01*
X124714000Y-118110000D02*
X120650000Y-114046000D01*
G04 #@! TO.N,Net-(C4-Pad1)*
X147127000Y-117548800D02*
X147447000Y-117548800D01*
X146735800Y-117940000D02*
X147127000Y-117548800D01*
X146050000Y-119992000D02*
X146027000Y-120015000D01*
X149669300Y-117081500D02*
X149377400Y-117373400D01*
X147622400Y-117373400D02*
X147447000Y-117548800D01*
X150054000Y-117081500D02*
X149669300Y-117081500D01*
X146735800Y-118338600D02*
X146735800Y-117940000D01*
X146050000Y-118595000D02*
X146050000Y-119992000D01*
X146479400Y-118595000D02*
X146735800Y-118338600D01*
X149377400Y-117373400D02*
X147622400Y-117373400D01*
X146050000Y-118595000D02*
X146479400Y-118595000D01*
X146069368Y-118595000D02*
X146050000Y-118595000D01*
D33*
G04 #@! TO.N,/L1PB*
X150209999Y-112977499D02*
X149664000Y-112431500D01*
D32*
G04 #@! TO.N,+3V3*
X109220000Y-137160000D02*
X106680000Y-134620000D01*
D31*
X122428000Y-125490000D02*
X121398000Y-125490000D01*
D30*
X122428000Y-120165000D02*
X122425600Y-120165000D01*
D31*
X122428000Y-120165000D02*
X121384200Y-120165000D01*
D30*
X106050000Y-131940000D02*
X105890000Y-132100000D01*
D32*
X105890000Y-133830000D02*
X105890000Y-132100000D01*
D31*
X121398000Y-125490000D02*
X121398000Y-125531000D01*
D32*
X106680000Y-134620000D02*
X105890000Y-133830000D01*
D30*
G04 #@! TO.N,/3-12v*
X154614000Y-116831500D02*
X154454010Y-116991490D01*
D34*
X156814000Y-115206500D02*
X156839000Y-115231500D01*
D31*
X154814000Y-116831500D02*
X154585010Y-116602510D01*
D30*
X154454010Y-116671510D02*
X153289000Y-116671510D01*
D32*
X156894100Y-116865400D02*
X154889200Y-116865400D01*
D34*
X156819600Y-114488400D02*
X156819600Y-116738400D01*
D30*
X154454010Y-116991490D02*
X153289000Y-116991490D01*
X154614000Y-116831500D02*
X154454010Y-116671510D01*
D34*
X156810600Y-110991000D02*
X158083000Y-109718600D01*
X156810600Y-114477800D02*
X156810600Y-110991000D01*
D31*
G04 #@! TO.N,/button_2*
X120151000Y-121135000D02*
X120142000Y-121126000D01*
X122455800Y-121107200D02*
X122428000Y-121135000D01*
X125399800Y-121107200D02*
X122455800Y-121107200D01*
X120142000Y-121126000D02*
X117856000Y-121126000D01*
X122428000Y-121135000D02*
X120151000Y-121135000D01*
X126365000Y-120142000D02*
X125399800Y-121107200D01*
G04 #@! TO.N,/button_1*
X120142000Y-126469000D02*
X117865000Y-126469000D01*
X123418600Y-124358400D02*
X123418600Y-125789400D01*
X122748000Y-126460000D02*
X122428000Y-126460000D01*
X122428000Y-126460000D02*
X120151000Y-126460000D01*
X123545600Y-124231400D02*
X123418600Y-124358400D01*
X123418600Y-125789400D02*
X122748000Y-126460000D01*
X127127000Y-120650000D02*
X123545600Y-124231400D01*
X117865000Y-126469000D02*
X117856000Y-126460000D01*
X120151000Y-126460000D02*
X120142000Y-126469000D01*
X127635000Y-120650000D02*
X127127000Y-120650000D01*
G04 #@! TO.N,/pixels_2*
X135128000Y-104394000D02*
X137160000Y-102362000D01*
X135128000Y-108204000D02*
X135128000Y-104394000D01*
X137160000Y-102362000D02*
X137160000Y-101600000D01*
X134366000Y-108966000D02*
X135051800Y-108280200D01*
X134366000Y-109719000D02*
X134366000Y-108966000D01*
G04 #@! TO.N,/pixels_1*
X137668000Y-108712000D02*
X137668000Y-104140000D01*
X136652000Y-109737000D02*
X136652000Y-109728000D01*
X139700000Y-102108000D02*
X139700000Y-101600000D01*
X137668000Y-104140000D02*
X139700000Y-102108000D01*
X136652000Y-109728000D02*
X137668000Y-108712000D01*
G04 #@! TO.N,/pixels_3*
X132588000Y-104140000D02*
X134620000Y-102108000D01*
X132080000Y-109737000D02*
X132080000Y-108966000D01*
X134620000Y-102108000D02*
X134620000Y-101600000D01*
X132080000Y-108966000D02*
X132080000Y-108458000D01*
X132588000Y-107950000D02*
X132588000Y-104140000D01*
X132080000Y-108458000D02*
X132588000Y-107950000D01*
G04 #@! TO.N,/pixels_4*
X130048000Y-103632000D02*
X132080000Y-101600000D01*
X129794000Y-109737000D02*
X129794000Y-109728000D01*
X130048000Y-109474000D02*
X130048000Y-103632000D01*
X129794000Y-109728000D02*
X130048000Y-109474000D01*
G04 #@! TO.N,/pixels_5*
X127508000Y-103632000D02*
X129540000Y-101600000D01*
X127508000Y-109737000D02*
X127508000Y-105664000D01*
X127508000Y-105664000D02*
X127508000Y-103632000D01*
G04 #@! TO.N,/pixels_6*
X127000000Y-101854000D02*
X127000000Y-101600000D01*
X125222000Y-109728000D02*
X124968000Y-109474000D01*
X124968000Y-103886000D02*
X127000000Y-101854000D01*
X125222000Y-109737000D02*
X125222000Y-109728000D01*
X124968000Y-109474000D02*
X124968000Y-103886000D01*
G04 #@! TO.N,/pixels_7*
X122428000Y-103886000D02*
X124460000Y-101854000D01*
X124460000Y-101854000D02*
X124460000Y-101600000D01*
X122682000Y-109474000D02*
X122428000Y-109220000D01*
X122936000Y-109728000D02*
X122682000Y-109474000D01*
X122428000Y-109220000D02*
X122428000Y-103886000D01*
G04 #@! TO.N,/pixels_8*
X119888000Y-104140000D02*
X121920000Y-102108000D01*
X120641000Y-109719000D02*
X119888000Y-108966000D01*
X119888000Y-108966000D02*
X119888000Y-106172000D01*
X121920000Y-102108000D02*
X121920000Y-101600000D01*
X119888000Y-106172000D02*
X119888000Y-104140000D01*
X120650000Y-109719000D02*
X120641000Y-109719000D01*
G04 #@! TO.N,/level_shift_5*
X130175000Y-125730000D02*
X130175000Y-123698000D01*
G04 #@! TO.N,/level_shift_6*
X128905000Y-125730000D02*
X128905000Y-122809000D01*
G04 #@! TO.N,/level_shift_7*
X127635000Y-125730000D02*
X127635000Y-122047000D01*
G04 #@! TO.N,/level_shift_8*
X126365000Y-125730000D02*
X126365000Y-123063000D01*
G04 #@! TO.N,/i2c_sda*
X118590000Y-105001000D02*
X116840000Y-103251000D01*
X116840000Y-103251000D02*
X116840000Y-101600000D01*
X118590000Y-106700000D02*
X118590000Y-105001000D01*
G04 #@! TO.N,/i2c_scl*
X110970000Y-106700000D02*
X110970000Y-106073000D01*
X114300000Y-102743000D02*
X114300000Y-101600000D01*
X110970000Y-106073000D02*
X114300000Y-102743000D01*
G04 #@! TO.N,/level_shift_4*
X131445000Y-125730000D02*
X131445000Y-126873000D01*
X131445000Y-126873000D02*
X128750000Y-129568000D01*
X128750000Y-129568000D02*
X128750000Y-132100000D01*
G04 #@! TO.N,/level_shift_3*
X132715000Y-127635000D02*
X131290000Y-129060000D01*
X132715000Y-125730000D02*
X132715000Y-127635000D01*
X131290000Y-129060000D02*
X131290000Y-132100000D01*
G04 #@! TO.N,/level_shift_2*
X133985000Y-129159000D02*
X136370000Y-131544000D01*
X133985000Y-125730000D02*
X133985000Y-129159000D01*
X136370000Y-131544000D02*
X136370000Y-132100000D01*
G04 #@! TO.N,/level_shift_1*
X138890000Y-129540000D02*
X141450000Y-132100000D01*
X137414000Y-129540000D02*
X138890000Y-129540000D01*
X135255000Y-127381000D02*
X137414000Y-129540000D01*
X135255000Y-125730000D02*
X135255000Y-127381000D01*
G04 #@! TO.N,/io25*
X126210000Y-132100000D02*
X126210000Y-134140000D01*
X126210000Y-134140000D02*
X124460000Y-135890000D01*
X124460000Y-135890000D02*
X124460000Y-137160000D01*
G04 #@! TO.N,/io35*
X118590000Y-132100000D02*
X118590000Y-132560000D01*
X118590000Y-132560000D02*
X121920000Y-135890000D01*
X121920000Y-135890000D02*
X121920000Y-137160000D01*
G04 #@! TO.N,/io34*
X116050000Y-133322000D02*
X116050000Y-132100000D01*
X119380000Y-136652000D02*
X116050000Y-133322000D01*
X119380000Y-137160000D02*
X119380000Y-136652000D01*
G04 #@! TO.N,/sensor_vn*
X116840000Y-136398000D02*
X116840000Y-137160000D01*
X113510000Y-133068000D02*
X115062000Y-134620000D01*
X113510000Y-132100000D02*
X113510000Y-133068000D01*
X115062000Y-134620000D02*
X116840000Y-136398000D01*
G04 #@! TO.N,/sensor_vp*
X114300000Y-136652000D02*
X112014000Y-134366000D01*
X110970000Y-133322000D02*
X110970000Y-132100000D01*
X114300000Y-137160000D02*
X114300000Y-136652000D01*
X112014000Y-134366000D02*
X110970000Y-133322000D01*
G04 #@! TO.N,/en*
X108430000Y-133068000D02*
X108430000Y-132100000D01*
X111760000Y-136398000D02*
X108430000Y-133068000D01*
X111760000Y-137160000D02*
X111760000Y-136398000D01*
G04 #@! TO.N,Net-(J5-Pad2)*
X107188000Y-127508000D02*
X106680000Y-127000000D01*
X115147000Y-127508000D02*
X109897000Y-127508000D01*
X117165000Y-125490000D02*
X115147000Y-127508000D01*
X117856000Y-125490000D02*
X117165000Y-125490000D01*
X109897000Y-127508000D02*
X107188000Y-127508000D01*
G04 #@! TO.N,Net-(J6-Pad2)*
X117856000Y-120156000D02*
X117241000Y-120156000D01*
X117241000Y-120156000D02*
X115147000Y-122250000D01*
X115147000Y-122250000D02*
X109897000Y-122250000D01*
X109897000Y-122250000D02*
X107010000Y-122250000D01*
X107010000Y-122250000D02*
X106680000Y-121920000D01*
G04 #@! TO.N,Net-(C3-Pad1)*
X149913900Y-118081500D02*
X150339000Y-118081500D01*
X149506800Y-119938800D02*
X149506800Y-118488600D01*
X149506800Y-118488600D02*
X149913900Y-118081500D01*
G04 #@! TO.N,Net-(R3-Pad2)*
X153492200Y-119227600D02*
X153822400Y-119227600D01*
X144399000Y-118897400D02*
X144041000Y-118897400D01*
X153822400Y-119227600D02*
X154228800Y-119634000D01*
X153574000Y-118081500D02*
X153574000Y-119145800D01*
X153574000Y-119145800D02*
X153492200Y-119227600D01*
X144041000Y-118897400D02*
X143637000Y-118493400D01*
G04 #@! TD*
G04 #@! TA.AperFunction,Conductor*
G04 #@! TO.N,+5V*
G36*
X149630243Y-116311600D02*
G01*
X149682200Y-116382800D01*
X149936199Y-116459000D01*
X149954460Y-116641600D01*
X149961600Y-116713000D01*
X149682200Y-116738400D01*
X149645969Y-116748752D01*
X149640322Y-116750265D01*
X149640320Y-116750265D01*
X149598363Y-116761508D01*
X149584977Y-116763868D01*
X149555578Y-116769052D01*
X149555576Y-116769053D01*
X149542908Y-116776366D01*
X149528779Y-116780153D01*
X149523757Y-116783669D01*
X148971000Y-116941600D01*
X142011400Y-116992400D01*
X142022652Y-116311599D01*
X142170000Y-116311599D01*
X142170000Y-116411735D01*
X142184792Y-116486099D01*
X142241152Y-116570448D01*
X142325501Y-116626808D01*
X142399865Y-116641600D01*
X142625000Y-116641600D01*
X142625000Y-116311600D01*
X143124999Y-116311600D01*
X143124999Y-116641600D01*
X143350135Y-116641600D01*
X143424499Y-116626808D01*
X143508848Y-116570448D01*
X143565208Y-116486099D01*
X143580000Y-116411735D01*
X143580000Y-116311600D01*
X143124999Y-116311600D01*
X142625000Y-116311600D01*
X142625000Y-116311599D01*
X144227400Y-116311599D01*
X144227400Y-116411735D01*
X144242192Y-116486099D01*
X144298552Y-116570448D01*
X144382901Y-116626808D01*
X144457265Y-116641600D01*
X144682400Y-116641600D01*
X144682400Y-116311600D01*
X145182399Y-116311600D01*
X145182399Y-116641600D01*
X145407535Y-116641600D01*
X145481899Y-116626808D01*
X145566248Y-116570448D01*
X145622608Y-116486099D01*
X145637400Y-116411735D01*
X145637400Y-116311600D01*
X145182399Y-116311600D01*
X144682400Y-116311600D01*
X144682400Y-116311599D01*
X146284800Y-116311599D01*
X146284800Y-116411735D01*
X146299592Y-116486099D01*
X146355952Y-116570448D01*
X146440301Y-116626808D01*
X146514665Y-116641600D01*
X146739800Y-116641600D01*
X146739800Y-116311600D01*
X147239799Y-116311600D01*
X147239799Y-116641600D01*
X147464935Y-116641600D01*
X147539299Y-116626808D01*
X147623648Y-116570448D01*
X147680008Y-116486099D01*
X147694800Y-116411735D01*
X147694800Y-116311600D01*
X147239799Y-116311600D01*
X146739800Y-116311600D01*
X146739800Y-116311599D01*
X146284800Y-116311599D01*
X144682400Y-116311599D01*
X144227400Y-116311599D01*
X142625000Y-116311599D01*
X142170000Y-116311599D01*
X142022652Y-116311599D01*
X142036800Y-115455700D01*
X142225295Y-115455356D01*
X142259969Y-115469645D01*
X142274384Y-115504267D01*
X142252607Y-115545098D01*
X142241152Y-115552752D01*
X142184792Y-115637101D01*
X142170000Y-115711465D01*
X142170000Y-115811600D01*
X142625001Y-115811600D01*
X143580000Y-115811601D01*
X143580000Y-115711465D01*
X143565208Y-115637101D01*
X143508847Y-115552751D01*
X143493855Y-115542734D01*
X143473019Y-115511552D01*
X143480335Y-115474770D01*
X143520988Y-115452992D01*
X143905601Y-115452290D01*
X144288330Y-115451591D01*
X144323003Y-115465880D01*
X144337418Y-115500502D01*
X144315642Y-115541333D01*
X144298551Y-115552753D01*
X144242192Y-115637101D01*
X144227400Y-115711465D01*
X144227400Y-115811600D01*
X144682401Y-115811600D01*
X145637400Y-115811601D01*
X145637400Y-115711465D01*
X145622608Y-115637101D01*
X145566249Y-115552753D01*
X145545650Y-115538989D01*
X145524815Y-115507806D01*
X145532132Y-115471023D01*
X145572784Y-115449247D01*
X146055205Y-115448367D01*
X146351363Y-115447827D01*
X146386037Y-115462116D01*
X146400452Y-115496738D01*
X146378675Y-115537569D01*
X146355952Y-115552752D01*
X146299592Y-115637101D01*
X146284800Y-115711465D01*
X146284800Y-115811600D01*
X146739801Y-115811600D01*
X147694800Y-115811601D01*
X147694800Y-115711465D01*
X147680008Y-115637101D01*
X147623648Y-115552752D01*
X147597447Y-115535245D01*
X147576611Y-115504062D01*
X147583928Y-115467280D01*
X147624580Y-115445503D01*
X147957085Y-115444897D01*
X148996399Y-115443001D01*
X149630243Y-116311600D01*
G37*
G04 #@! TD.AperFunction*
G04 #@! TD*
G04 #@! TA.AperFunction,Conductor*
G04 #@! TO.N,GND*
G36*
X169184061Y-107630756D02*
G01*
X169002515Y-107541432D01*
X168805949Y-107490229D01*
X168603106Y-107479600D01*
X168402267Y-107509974D01*
X168211638Y-107580111D01*
X168039004Y-107687149D01*
X167891420Y-107826712D01*
X167774913Y-107993101D01*
X167694243Y-108179519D01*
X167652704Y-108378350D01*
X167651996Y-108581471D01*
X167692145Y-108780587D01*
X167771513Y-108967565D01*
X167886854Y-109134761D01*
X168033460Y-109275351D01*
X168205345Y-109383591D01*
X168395476Y-109455058D01*
X168596101Y-109486833D01*
X168799012Y-109477620D01*
X168995930Y-109427792D01*
X169178806Y-109339386D01*
X169178820Y-109339375D01*
X169183001Y-109337354D01*
X169164000Y-139928600D01*
X168190959Y-139928600D01*
X168122838Y-139908598D01*
X168076345Y-139854942D01*
X168066241Y-139784668D01*
X168095735Y-139720088D01*
X168137709Y-139688405D01*
X168215250Y-139652247D01*
X168405233Y-139519219D01*
X168569219Y-139355233D01*
X168702247Y-139165250D01*
X168800261Y-138955058D01*
X168860287Y-138731039D01*
X168880500Y-138500000D01*
X168860287Y-138268961D01*
X168800261Y-138044942D01*
X168702247Y-137834750D01*
X168569219Y-137644767D01*
X168405233Y-137480781D01*
X168215250Y-137347753D01*
X168005058Y-137249739D01*
X167781040Y-137189713D01*
X167550000Y-137169500D01*
X167318960Y-137189713D01*
X167094942Y-137249739D01*
X166884749Y-137347754D01*
X166694767Y-137480781D01*
X166530778Y-137644771D01*
X166397753Y-137834750D01*
X166299739Y-138044942D01*
X166239713Y-138268961D01*
X166219500Y-138500000D01*
X166239713Y-138731039D01*
X166299739Y-138955058D01*
X166397753Y-139165250D01*
X166530781Y-139355233D01*
X166694771Y-139519222D01*
X166884750Y-139652247D01*
X166962291Y-139688405D01*
X167015576Y-139735322D01*
X167035037Y-139803600D01*
X167014495Y-139871560D01*
X166960472Y-139917625D01*
X166909041Y-139928600D01*
X160528000Y-139928600D01*
X160528000Y-125005714D01*
X160804223Y-125038000D01*
X160918000Y-125038000D01*
X160918000Y-124079000D01*
X161426000Y-124079000D01*
X161426000Y-125038000D01*
X161554144Y-125038000D01*
X161630363Y-125031332D01*
X161801191Y-124980189D01*
X161955619Y-124891031D01*
X162085320Y-124768664D01*
X162183311Y-124619676D01*
X162244298Y-124452114D01*
X162260000Y-124317777D01*
X162260000Y-124079000D01*
X161426000Y-124079000D01*
X160918000Y-124079000D01*
X160918000Y-122047000D01*
X161426000Y-122047000D01*
X161426000Y-123571000D01*
X162260000Y-123571000D01*
X162260000Y-123317856D01*
X162253332Y-123241637D01*
X162202189Y-123070809D01*
X162113033Y-122916384D01*
X162027054Y-122825252D01*
X162183311Y-122587676D01*
X162244298Y-122420114D01*
X162260000Y-122285777D01*
X162260000Y-122047000D01*
X161426000Y-122047000D01*
X160918000Y-122047000D01*
X160918000Y-120015000D01*
X161426000Y-120015000D01*
X161426000Y-121539000D01*
X162260000Y-121539000D01*
X162260000Y-121285856D01*
X162253332Y-121209637D01*
X162202189Y-121038809D01*
X162113033Y-120884384D01*
X162027054Y-120793252D01*
X162183311Y-120555676D01*
X162244298Y-120388114D01*
X162260000Y-120253777D01*
X162260000Y-120015000D01*
X161426000Y-120015000D01*
X160918000Y-120015000D01*
X160918000Y-118548000D01*
X161426000Y-118548000D01*
X161426000Y-119507000D01*
X162260000Y-119507000D01*
X162260000Y-119253856D01*
X162253332Y-119177637D01*
X162202189Y-119006809D01*
X162113031Y-118852381D01*
X161990664Y-118722680D01*
X161841676Y-118624689D01*
X161674114Y-118563702D01*
X161539777Y-118548000D01*
X161426000Y-118548000D01*
X160918000Y-118548000D01*
X160789856Y-118548000D01*
X160713635Y-118554668D01*
X160528000Y-118610246D01*
X160528000Y-113077942D01*
X164700915Y-113077943D01*
X164738259Y-113295277D01*
X164814585Y-113502167D01*
X164927335Y-113691681D01*
X165072734Y-113857477D01*
X165245909Y-113993998D01*
X165441070Y-114096677D01*
X165651666Y-114162068D01*
X165831901Y-114183400D01*
X167456619Y-114183400D01*
X167621793Y-114168223D01*
X167834031Y-114108365D01*
X168031811Y-114010831D01*
X168208502Y-113878890D01*
X168358190Y-113716960D01*
X168475863Y-113530459D01*
X168557578Y-113325638D01*
X168600600Y-113109355D01*
X168603485Y-112888858D01*
X168598088Y-112857445D01*
X168566141Y-112671523D01*
X168489815Y-112464633D01*
X168377065Y-112275119D01*
X168231667Y-112109324D01*
X168058491Y-111972802D01*
X167863330Y-111870123D01*
X167652734Y-111804732D01*
X167472499Y-111783400D01*
X165847781Y-111783400D01*
X165682607Y-111798577D01*
X165470367Y-111858436D01*
X165272589Y-111955969D01*
X165095896Y-112087912D01*
X164946210Y-112249840D01*
X164828537Y-112436341D01*
X164746822Y-112641162D01*
X164703800Y-112857445D01*
X164700915Y-113077942D01*
X160528000Y-113077942D01*
X160528000Y-111810801D01*
X160807400Y-111785400D01*
X160807400Y-111810800D01*
X162560000Y-111810800D01*
X162560000Y-104648000D01*
X160807400Y-104648000D01*
X160807400Y-104077942D01*
X164700915Y-104077943D01*
X164738259Y-104295277D01*
X164814585Y-104502167D01*
X164927335Y-104691681D01*
X165072734Y-104857477D01*
X165245909Y-104993998D01*
X165441070Y-105096677D01*
X165651666Y-105162068D01*
X165831901Y-105183400D01*
X167456619Y-105183400D01*
X167621793Y-105168223D01*
X167834031Y-105108365D01*
X168031811Y-105010831D01*
X168208502Y-104878890D01*
X168358190Y-104716960D01*
X168475863Y-104530459D01*
X168557578Y-104325638D01*
X168600600Y-104109355D01*
X168603485Y-103888858D01*
X168598088Y-103857445D01*
X168566141Y-103671523D01*
X168489815Y-103464633D01*
X168377065Y-103275119D01*
X168231667Y-103109324D01*
X168058491Y-102972802D01*
X167863330Y-102870123D01*
X167652734Y-102804732D01*
X167472499Y-102783400D01*
X165847781Y-102783400D01*
X165682607Y-102798577D01*
X165470367Y-102858436D01*
X165272589Y-102955969D01*
X165095896Y-103087912D01*
X164946210Y-103249840D01*
X164828537Y-103436341D01*
X164746822Y-103641162D01*
X164703800Y-103857445D01*
X164700915Y-104077942D01*
X160807400Y-104077942D01*
X160807400Y-99034600D01*
X169189400Y-99034600D01*
X169184061Y-107630756D01*
G37*
G04 #@! TD.AperFunction*
G04 #@! TA.AperFunction,Conductor*
G36*
X154844495Y-108153232D02*
G01*
X154834477Y-110130076D01*
X154814453Y-110197015D01*
X154761418Y-110242502D01*
X154692210Y-110252095D01*
X154685980Y-110249690D01*
X154685775Y-110250723D01*
X154564001Y-110226500D01*
X152363999Y-110226500D01*
X152266416Y-110245911D01*
X152183688Y-110301188D01*
X152128411Y-110383916D01*
X152109000Y-110481499D01*
X152109000Y-114310649D01*
X152105510Y-114325683D01*
X152105017Y-114327884D01*
X152104710Y-114329300D01*
X152104711Y-114329300D01*
X152104685Y-114329420D01*
X152104426Y-114330649D01*
X152104284Y-114331334D01*
X152103927Y-114333113D01*
X152103628Y-114334655D01*
X152103373Y-114336014D01*
X152103263Y-114336609D01*
X152103004Y-114338054D01*
X152102789Y-114339292D01*
X152102631Y-114340221D01*
X152102421Y-114341499D01*
X152102229Y-114342702D01*
X152102132Y-114343323D01*
X152102030Y-114343988D01*
X152101851Y-114345186D01*
X152101628Y-114346741D01*
X152101457Y-114347986D01*
X152101288Y-114349252D01*
X152101093Y-114350790D01*
X152100960Y-114351886D01*
X152100822Y-114353065D01*
X152100797Y-114353286D01*
X152100658Y-114354535D01*
X152100438Y-114356652D01*
X152100339Y-114357660D01*
X152100161Y-114359602D01*
X152100112Y-114360163D01*
X152099983Y-114361729D01*
X152099958Y-114362042D01*
X152099853Y-114363442D01*
X152099757Y-114364818D01*
X152099713Y-114365489D01*
X152099674Y-114366116D01*
X152099618Y-114367057D01*
X152099568Y-114367940D01*
X152099540Y-114368460D01*
X152099487Y-114369532D01*
X152099459Y-114370115D01*
X152099402Y-114371450D01*
X152099357Y-114372628D01*
X152099323Y-114373647D01*
X152099279Y-114375199D01*
X152099257Y-114376160D01*
X152099228Y-114377730D01*
X152099216Y-114378673D01*
X152099203Y-114380243D01*
X152099200Y-114381186D01*
X152099201Y-114453240D01*
X152099212Y-114454811D01*
X152099222Y-114455753D01*
X152099246Y-114457257D01*
X152099284Y-114458894D01*
X152099338Y-114460722D01*
X152099398Y-114462348D01*
X152099451Y-114463603D01*
X152099495Y-114464545D01*
X152099576Y-114466114D01*
X152099667Y-114467682D01*
X152099759Y-114469126D01*
X152099879Y-114470816D01*
X152100025Y-114472695D01*
X152100124Y-114473881D01*
X152100209Y-114474850D01*
X152100360Y-114476450D01*
X152100421Y-114477076D01*
X152100516Y-114478013D01*
X152100581Y-114478638D01*
X152100681Y-114479575D01*
X152100821Y-114480824D01*
X152100967Y-114482072D01*
X152101158Y-114483632D01*
X152101376Y-114485313D01*
X152101527Y-114486427D01*
X152101611Y-114487037D01*
X152101785Y-114488258D01*
X152101928Y-114489234D01*
X152101962Y-114489457D01*
X152102069Y-114490166D01*
X152102320Y-114491774D01*
X152102563Y-114493268D01*
X152102772Y-114494507D01*
X152102932Y-114495436D01*
X152103041Y-114496055D01*
X152103232Y-114497117D01*
X152103320Y-114497601D01*
X152103558Y-114498878D01*
X152103727Y-114499762D01*
X152103968Y-114500995D01*
X152104128Y-114501794D01*
X152104469Y-114503458D01*
X152104861Y-114505302D01*
X152105192Y-114506812D01*
X152105345Y-114507487D01*
X152105489Y-114508128D01*
X152105974Y-114510202D01*
X152106184Y-114511081D01*
X152106288Y-114511511D01*
X152106645Y-114512957D01*
X152107070Y-114514637D01*
X152107071Y-114514637D01*
X152107264Y-114515386D01*
X152107665Y-114516904D01*
X152107828Y-114517511D01*
X152108100Y-114518515D01*
X152108495Y-114519935D01*
X152108837Y-114521144D01*
X152109186Y-114522351D01*
X152109540Y-114523556D01*
X152109810Y-114524459D01*
X152110084Y-114525361D01*
X152110410Y-114526423D01*
X152110457Y-114526574D01*
X152110829Y-114527762D01*
X152111115Y-114528660D01*
X152111307Y-114529258D01*
X152322585Y-115183208D01*
X152322980Y-115184410D01*
X152323435Y-115185771D01*
X152323882Y-115187080D01*
X152324398Y-115188564D01*
X152324578Y-115189077D01*
X152324923Y-115190045D01*
X152325243Y-115190931D01*
X152325350Y-115191227D01*
X152325783Y-115192406D01*
X152326111Y-115193290D01*
X152326221Y-115193584D01*
X152326666Y-115194759D01*
X152326890Y-115195346D01*
X152327116Y-115195932D01*
X152327642Y-115197279D01*
X152328126Y-115198501D01*
X152328268Y-115198855D01*
X152328385Y-115199147D01*
X152328979Y-115200607D01*
X152329287Y-115201356D01*
X152329891Y-115202801D01*
X152330310Y-115203790D01*
X152330806Y-115204945D01*
X152331308Y-115206097D01*
X152331732Y-115207060D01*
X152331815Y-115207246D01*
X152332392Y-115208535D01*
X152332847Y-115209538D01*
X152333270Y-115210461D01*
X152333772Y-115211542D01*
X152334178Y-115212406D01*
X152334573Y-115213239D01*
X152335252Y-115214653D01*
X152335452Y-115215066D01*
X152335925Y-115216032D01*
X152336238Y-115216669D01*
X152336882Y-115217958D01*
X152337631Y-115219437D01*
X152337918Y-115219997D01*
X152338495Y-115221113D01*
X152338786Y-115221670D01*
X152339478Y-115222984D01*
X152340030Y-115224017D01*
X152340559Y-115224997D01*
X152340955Y-115225724D01*
X152341636Y-115226960D01*
X152342046Y-115227697D01*
X152342229Y-115228022D01*
X152342411Y-115228348D01*
X152343001Y-115229390D01*
X152343626Y-115230480D01*
X152344184Y-115231447D01*
X152345129Y-115233058D01*
X152346177Y-115234811D01*
X152347084Y-115236303D01*
X152347816Y-115237491D01*
X152348517Y-115238615D01*
X152349152Y-115239620D01*
X152349489Y-115240150D01*
X152350064Y-115241049D01*
X152351309Y-115242963D01*
X152352046Y-115244080D01*
X152352933Y-115245405D01*
X152353461Y-115246186D01*
X152354526Y-115247741D01*
X152355063Y-115248516D01*
X152355783Y-115249546D01*
X152356691Y-115250828D01*
X152357239Y-115251594D01*
X152357975Y-115252613D01*
X152358716Y-115253628D01*
X152359205Y-115254292D01*
X152359742Y-115255016D01*
X152360479Y-115256001D01*
X152360780Y-115256400D01*
X152361539Y-115257401D01*
X152361597Y-115257476D01*
X152362156Y-115258206D01*
X152362881Y-115259143D01*
X152363267Y-115259639D01*
X152364406Y-115261086D01*
X152364825Y-115261611D01*
X152365217Y-115262102D01*
X152366005Y-115263081D01*
X152366600Y-115263812D01*
X152367397Y-115264783D01*
X152367797Y-115265268D01*
X152368804Y-115266474D01*
X152369614Y-115267434D01*
X152369817Y-115267674D01*
X152370495Y-115268468D01*
X152371217Y-115269306D01*
X152372010Y-115270218D01*
X152372756Y-115271068D01*
X152373928Y-115272388D01*
X152374249Y-115272746D01*
X152375150Y-115273744D01*
X152375844Y-115274505D01*
X152376031Y-115274710D01*
X152376908Y-115275661D01*
X152377979Y-115276810D01*
X152379138Y-115278037D01*
X152379926Y-115278860D01*
X152380264Y-115279212D01*
X152381104Y-115280080D01*
X152382048Y-115281045D01*
X152382802Y-115281808D01*
X152383558Y-115282567D01*
X152384697Y-115283699D01*
X152385133Y-115284126D01*
X152385712Y-115284694D01*
X152386353Y-115285317D01*
X152387258Y-115286188D01*
X152387712Y-115286623D01*
X152389215Y-115288045D01*
X152389769Y-115288563D01*
X152390690Y-115289418D01*
X152391384Y-115290056D01*
X152392080Y-115290691D01*
X152392922Y-115291453D01*
X152393665Y-115292119D01*
X152394161Y-115292562D01*
X152395124Y-115293414D01*
X152396069Y-115294242D01*
X152396786Y-115294864D01*
X152396737Y-115294921D01*
X152396810Y-115294954D01*
X152396844Y-115294915D01*
X152397734Y-115295679D01*
X152398451Y-115296290D01*
X152399411Y-115297101D01*
X152400458Y-115297977D01*
X152401343Y-115298709D01*
X152402700Y-115299819D01*
X152404184Y-115301014D01*
X152405108Y-115301749D01*
X152406243Y-115302642D01*
X152406986Y-115303221D01*
X152407732Y-115303798D01*
X152408729Y-115304562D01*
X152409484Y-115305135D01*
X152410507Y-115305904D01*
X152411492Y-115306638D01*
X152413265Y-115307939D01*
X152414432Y-115308782D01*
X152415305Y-115309406D01*
X152416074Y-115309951D01*
X152416859Y-115310504D01*
X152417876Y-115311212D01*
X152418393Y-115311569D01*
X152419430Y-115312280D01*
X152419689Y-115312457D01*
X152420730Y-115313161D01*
X152421774Y-115313859D01*
X152422822Y-115314553D01*
X152423611Y-115315070D01*
X152424665Y-115315754D01*
X152425542Y-115316318D01*
X152426517Y-115316939D01*
X152427581Y-115317609D01*
X152428647Y-115318273D01*
X152429449Y-115318768D01*
X152430620Y-115319482D01*
X152431328Y-115319910D01*
X152432407Y-115320556D01*
X152433403Y-115321146D01*
X152494000Y-115357034D01*
X152494001Y-115675240D01*
X152494009Y-115676497D01*
X152494022Y-115677753D01*
X152494048Y-115679324D01*
X152494084Y-115680894D01*
X152494140Y-115682778D01*
X152494162Y-115683406D01*
X152494198Y-115684348D01*
X152494251Y-115685603D01*
X152494295Y-115686545D01*
X152494376Y-115688114D01*
X152494467Y-115689682D01*
X152494568Y-115691249D01*
X152494679Y-115692816D01*
X152494713Y-115693267D01*
X152494762Y-115693907D01*
X152494845Y-115694936D01*
X152494924Y-115695881D01*
X152495009Y-115696850D01*
X152495160Y-115698450D01*
X152495221Y-115699076D01*
X152495316Y-115700013D01*
X152495381Y-115700638D01*
X152495481Y-115701575D01*
X152495621Y-115702824D01*
X152495767Y-115704072D01*
X152495958Y-115705632D01*
X152496176Y-115707313D01*
X152496327Y-115708427D01*
X152496411Y-115709037D01*
X152496567Y-115710132D01*
X152496707Y-115711098D01*
X152496762Y-115711457D01*
X152496869Y-115712166D01*
X152497111Y-115713718D01*
X152497363Y-115715268D01*
X152497572Y-115716507D01*
X152497732Y-115717436D01*
X152497841Y-115718055D01*
X152498032Y-115719117D01*
X152498120Y-115719601D01*
X152498350Y-115720836D01*
X152498527Y-115721762D01*
X152498768Y-115722995D01*
X152498928Y-115723794D01*
X152499269Y-115725458D01*
X152499661Y-115727302D01*
X152499992Y-115728812D01*
X152500145Y-115729487D01*
X152500289Y-115730128D01*
X152500530Y-115731166D01*
X152500898Y-115732724D01*
X152501088Y-115733511D01*
X152501445Y-115734957D01*
X152501870Y-115736637D01*
X152501871Y-115736637D01*
X152502064Y-115737386D01*
X152502465Y-115738904D01*
X152502628Y-115739511D01*
X152502900Y-115740515D01*
X152503295Y-115741935D01*
X152503637Y-115743144D01*
X152503986Y-115744351D01*
X152504340Y-115745556D01*
X152504610Y-115746459D01*
X152504884Y-115747361D01*
X152505253Y-115748562D01*
X152505629Y-115749762D01*
X152505915Y-115750660D01*
X152506107Y-115751258D01*
X152562659Y-115926292D01*
X152562855Y-115926889D01*
X152563352Y-115928379D01*
X152563880Y-115929926D01*
X152564029Y-115930359D01*
X152564271Y-115931053D01*
X152564688Y-115932238D01*
X152565196Y-115933653D01*
X152565491Y-115934461D01*
X152565759Y-115935191D01*
X152566072Y-115936032D01*
X152566419Y-115936957D01*
X152566754Y-115937838D01*
X152567434Y-115939596D01*
X152567505Y-115939777D01*
X152567832Y-115940606D01*
X152568187Y-115941495D01*
X152568479Y-115942223D01*
X152568953Y-115943387D01*
X152569433Y-115944548D01*
X152569797Y-115945418D01*
X152570348Y-115946719D01*
X152570763Y-115947684D01*
X152571358Y-115949051D01*
X152571537Y-115949457D01*
X152572047Y-115950605D01*
X152572564Y-115951751D01*
X152572824Y-115952323D01*
X152573085Y-115952894D01*
X152573471Y-115953731D01*
X152574015Y-115954898D01*
X152574415Y-115955741D01*
X152575093Y-115957158D01*
X152575717Y-115958442D01*
X152576336Y-115959697D01*
X152576757Y-115960540D01*
X152577290Y-115961598D01*
X152577566Y-115962140D01*
X152578111Y-115963203D01*
X152578762Y-115964455D01*
X152579348Y-115965567D01*
X152579643Y-115966122D01*
X152580088Y-115966952D01*
X152580536Y-115967782D01*
X152580987Y-115968609D01*
X152581593Y-115969710D01*
X152582513Y-115971355D01*
X152583289Y-115972721D01*
X152584232Y-115974353D01*
X152584390Y-115974624D01*
X152585027Y-115975708D01*
X152585669Y-115976788D01*
X152585992Y-115977327D01*
X152586479Y-115978134D01*
X152587133Y-115979207D01*
X152587211Y-115979333D01*
X152587484Y-115979779D01*
X152588381Y-115981221D01*
X152588960Y-115982140D01*
X152589465Y-115982935D01*
X152590314Y-115984257D01*
X152590866Y-115985107D01*
X152591250Y-115985694D01*
X152617786Y-116026028D01*
X152609000Y-116081500D01*
X152628332Y-116203561D01*
X152693520Y-116331500D01*
X152628332Y-116459439D01*
X152608999Y-116581500D01*
X152628332Y-116703561D01*
X152693520Y-116831500D01*
X152628332Y-116959439D01*
X152608999Y-117081500D01*
X152628333Y-117203562D01*
X152684438Y-117313676D01*
X152771824Y-117401062D01*
X152881938Y-117457167D01*
X152893679Y-117459027D01*
X152956814Y-117488956D01*
X152993745Y-117548268D01*
X152992747Y-117618130D01*
X152954137Y-117676363D01*
X152893679Y-117703973D01*
X152881938Y-117705833D01*
X152771824Y-117761938D01*
X152684438Y-117849324D01*
X152628333Y-117959438D01*
X152608999Y-118081500D01*
X152628333Y-118203562D01*
X152684438Y-118313676D01*
X152771824Y-118401062D01*
X152881938Y-118457167D01*
X152972430Y-118471500D01*
X153196499Y-118471500D01*
X153196501Y-118800512D01*
X153066356Y-118947873D01*
X153004963Y-119078637D01*
X152982738Y-119221377D01*
X153001468Y-119364614D01*
X153059649Y-119496839D01*
X153152605Y-119607422D01*
X153272855Y-119687467D01*
X153487080Y-119754396D01*
X153517106Y-119886024D01*
X153594173Y-120042991D01*
X153705282Y-120178017D01*
X153844471Y-120283859D01*
X154004282Y-120354844D01*
X154176136Y-120387161D01*
X154350811Y-120379076D01*
X154518943Y-120331024D01*
X154783531Y-120182845D01*
X154730705Y-130606769D01*
X152485500Y-130596813D01*
X152485500Y-130156496D01*
X152490237Y-130100088D01*
X152479077Y-130016446D01*
X152469960Y-129932526D01*
X152466513Y-129922283D01*
X152465084Y-129911574D01*
X152436222Y-129832275D01*
X152409298Y-129752272D01*
X152403731Y-129743005D01*
X152400036Y-129732854D01*
X152354822Y-129661609D01*
X152311345Y-129589250D01*
X152303917Y-129581396D01*
X152298128Y-129572273D01*
X152292313Y-129565769D01*
X152233922Y-129507378D01*
X152180670Y-129451066D01*
X152171119Y-129444575D01*
X150452961Y-127726418D01*
X150416412Y-127683168D01*
X150349352Y-127631897D01*
X150283587Y-127579020D01*
X150273910Y-127574217D01*
X150265325Y-127567653D01*
X150188812Y-127531973D01*
X150113234Y-127494457D01*
X150102753Y-127491844D01*
X150092956Y-127487275D01*
X150010563Y-127468858D01*
X149928699Y-127448446D01*
X149925996Y-127448371D01*
X149917894Y-127448144D01*
X149907348Y-127445787D01*
X149898637Y-127445300D01*
X149816052Y-127445300D01*
X149738585Y-127443137D01*
X149727245Y-127445300D01*
X144329844Y-127445300D01*
X141820100Y-124935557D01*
X141820100Y-120309999D01*
X144271401Y-120309999D01*
X144284179Y-120390675D01*
X144354355Y-120539809D01*
X144459410Y-120666798D01*
X144592747Y-120763673D01*
X144745985Y-120824343D01*
X144762000Y-120826366D01*
X144762000Y-120309999D01*
X144271401Y-120309999D01*
X141820100Y-120309999D01*
X141820100Y-118028660D01*
X141823727Y-118006751D01*
X141820100Y-117937547D01*
X141820100Y-117482043D01*
X142060093Y-117242051D01*
X142071788Y-117241966D01*
X143062000Y-117234738D01*
X143062000Y-117702471D01*
X143076944Y-117796824D01*
X143134826Y-117910422D01*
X143232804Y-118008400D01*
X143134826Y-118106378D01*
X143076944Y-118219976D01*
X143062000Y-118314329D01*
X143062000Y-118672471D01*
X143076944Y-118766824D01*
X143134826Y-118880422D01*
X143224978Y-118970574D01*
X143338576Y-119028456D01*
X143432929Y-119043400D01*
X143653134Y-119043400D01*
X143746300Y-119136566D01*
X143758092Y-119154828D01*
X143788661Y-119178927D01*
X143795308Y-119185574D01*
X143814399Y-119199216D01*
X143856730Y-119232588D01*
X143865315Y-119235602D01*
X143872720Y-119240895D01*
X143924369Y-119256340D01*
X143975237Y-119274204D01*
X143987716Y-119275285D01*
X143993061Y-119276883D01*
X144043532Y-119274900D01*
X144055916Y-119274900D01*
X144179655Y-119357267D01*
X144375774Y-119418540D01*
X144272657Y-119678986D01*
X144267476Y-119720000D01*
X144762001Y-119720000D01*
X144762001Y-119247926D01*
X144821394Y-119182311D01*
X144823034Y-119178927D01*
X144884382Y-119052302D01*
X144908348Y-118909852D01*
X144908500Y-118897402D01*
X144907786Y-118892413D01*
X144888021Y-118754400D01*
X144828229Y-118622896D01*
X144733933Y-118513459D01*
X144612711Y-118434887D01*
X144474309Y-118393496D01*
X144224296Y-118391970D01*
X144197056Y-118219976D01*
X144139174Y-118106378D01*
X144041196Y-118008400D01*
X144139174Y-117910422D01*
X144197056Y-117796824D01*
X144212000Y-117702471D01*
X144212000Y-117226344D01*
X145511280Y-117216861D01*
X145475000Y-117445929D01*
X145475000Y-117804071D01*
X145489944Y-117898424D01*
X145547826Y-118012022D01*
X145645804Y-118110000D01*
X145547826Y-118207978D01*
X145489944Y-118321576D01*
X145475000Y-118415929D01*
X145475000Y-118774071D01*
X145489944Y-118868424D01*
X145547826Y-118982022D01*
X145612496Y-119046692D01*
X145645981Y-119108015D01*
X145640997Y-119177707D01*
X145599125Y-119233640D01*
X145533661Y-119258057D01*
X145479168Y-119249665D01*
X145368015Y-119205657D01*
X145352000Y-119203634D01*
X145351999Y-120821640D01*
X145407680Y-120812821D01*
X145556806Y-120742647D01*
X145683798Y-120637590D01*
X145731744Y-120571597D01*
X145824214Y-120586244D01*
X145847929Y-120590000D01*
X146206071Y-120590000D01*
X146300424Y-120575056D01*
X146414022Y-120517174D01*
X146504174Y-120427022D01*
X146562056Y-120313424D01*
X146574667Y-120233799D01*
X147751201Y-120233799D01*
X147763979Y-120314475D01*
X147834155Y-120463609D01*
X147939210Y-120590598D01*
X148072547Y-120687473D01*
X148225785Y-120748143D01*
X148241800Y-120750166D01*
X148241800Y-120233799D01*
X147751201Y-120233799D01*
X146574667Y-120233799D01*
X146577000Y-120219071D01*
X146577000Y-119810929D01*
X146562056Y-119716576D01*
X146504174Y-119602978D01*
X146427500Y-119526304D01*
X146427500Y-119106696D01*
X146569973Y-118964222D01*
X146586113Y-118962312D01*
X146594316Y-118958373D01*
X146603298Y-118956878D01*
X146648231Y-118932634D01*
X146824410Y-119145598D01*
X146957747Y-119242473D01*
X147110986Y-119303143D01*
X147152000Y-119308324D01*
X147152000Y-118813800D01*
X147741999Y-118813800D01*
X147741999Y-119332553D01*
X147787228Y-119370628D01*
X147807867Y-119437379D01*
X147799172Y-119484796D01*
X147752457Y-119602786D01*
X147747276Y-119643800D01*
X148241801Y-119643800D01*
X148241801Y-119079000D01*
X148221574Y-119061973D01*
X148200934Y-118995221D01*
X148209628Y-118947803D01*
X148256344Y-118829811D01*
X148258366Y-118813800D01*
X147741999Y-118813800D01*
X147152000Y-118813800D01*
X147152001Y-118786556D01*
X147152001Y-118223800D01*
X148253640Y-118223801D01*
X148244821Y-118168120D01*
X148174647Y-118018994D01*
X148120830Y-117953940D01*
X148093265Y-117889738D01*
X148104786Y-117820824D01*
X148151736Y-117769080D01*
X148216374Y-117750900D01*
X149338132Y-117750900D01*
X149359382Y-117755475D01*
X149398036Y-117750900D01*
X149411273Y-117750900D01*
X149478312Y-117770585D01*
X149524067Y-117823389D01*
X149534011Y-117892547D01*
X149498954Y-117962581D01*
X149267635Y-118193900D01*
X149249374Y-118205691D01*
X149225277Y-118236258D01*
X149218626Y-118242909D01*
X149204982Y-118262003D01*
X149171614Y-118304329D01*
X149168599Y-118312915D01*
X149163305Y-118320323D01*
X149147861Y-118371965D01*
X149129996Y-118422838D01*
X149128916Y-118435314D01*
X149127317Y-118440661D01*
X149129301Y-118491146D01*
X149129300Y-119240903D01*
X148847811Y-119129456D01*
X148831800Y-119127434D01*
X148831799Y-120745440D01*
X148887480Y-120736621D01*
X149036606Y-120666447D01*
X149163598Y-120561390D01*
X149211544Y-120495397D01*
X149304014Y-120510044D01*
X149327729Y-120513800D01*
X149685871Y-120513800D01*
X149780224Y-120498856D01*
X149893822Y-120440974D01*
X149983974Y-120350822D01*
X150041856Y-120237224D01*
X150056800Y-120142871D01*
X150056800Y-119734729D01*
X150041856Y-119640376D01*
X149983974Y-119526778D01*
X149884300Y-119427104D01*
X149884300Y-118644965D01*
X150052765Y-118476500D01*
X150194000Y-118476500D01*
X150219136Y-118471500D01*
X150655570Y-118471500D01*
X150746062Y-118457167D01*
X150856176Y-118401062D01*
X150943562Y-118313676D01*
X150999667Y-118203562D01*
X151019001Y-118081500D01*
X150999667Y-117959438D01*
X150943562Y-117849324D01*
X150856176Y-117761938D01*
X150746062Y-117705833D01*
X150734321Y-117703973D01*
X150671186Y-117674044D01*
X150634255Y-117614732D01*
X150635253Y-117544870D01*
X150673863Y-117486637D01*
X150734321Y-117459027D01*
X150746062Y-117457167D01*
X150856176Y-117401062D01*
X150943562Y-117313676D01*
X150999667Y-117203562D01*
X151019001Y-117081500D01*
X150999668Y-116959439D01*
X150934480Y-116831500D01*
X150999668Y-116703561D01*
X151019001Y-116581500D01*
X150999668Y-116459439D01*
X150934480Y-116331500D01*
X150999668Y-116203561D01*
X151019001Y-116081500D01*
X151002943Y-115980121D01*
X151049696Y-114472345D01*
X151049741Y-114470558D01*
X151049772Y-114468885D01*
X151049784Y-114467942D01*
X151049797Y-114466372D01*
X151049800Y-114465429D01*
X151049800Y-114381186D01*
X151049793Y-114379615D01*
X151049780Y-114378358D01*
X151049767Y-114377416D01*
X151049734Y-114375723D01*
X151049707Y-114374671D01*
X151049643Y-114372628D01*
X151049575Y-114370890D01*
X151049541Y-114370115D01*
X151049460Y-114368460D01*
X151049400Y-114367370D01*
X151049326Y-114366116D01*
X151049287Y-114365489D01*
X151049183Y-114363948D01*
X151049088Y-114362638D01*
X151048992Y-114361415D01*
X151048861Y-114359850D01*
X151048725Y-114358336D01*
X151048690Y-114357973D01*
X151048615Y-114357180D01*
X151048603Y-114357065D01*
X151048503Y-114356067D01*
X151048450Y-114355557D01*
X151048302Y-114354174D01*
X151048203Y-114353286D01*
X151048178Y-114353065D01*
X151048039Y-114351878D01*
X151048021Y-114351726D01*
X151047868Y-114350478D01*
X151047749Y-114349543D01*
X151047627Y-114348609D01*
X151047415Y-114347052D01*
X151047284Y-114346119D01*
X151047103Y-114344876D01*
X151046963Y-114343940D01*
X151046962Y-114343940D01*
X151046868Y-114343323D01*
X151046771Y-114342702D01*
X151046673Y-114342081D01*
X151046573Y-114341461D01*
X151046316Y-114339911D01*
X151046211Y-114339292D01*
X151046104Y-114338672D01*
X151045886Y-114337435D01*
X151045547Y-114335581D01*
X151045313Y-114334345D01*
X151044966Y-114332574D01*
X151044716Y-114331334D01*
X151044510Y-114330342D01*
X151044251Y-114329121D01*
X151043983Y-114327884D01*
X151043641Y-114326351D01*
X151043415Y-114325356D01*
X151043159Y-114324260D01*
X151042856Y-114322986D01*
X151042545Y-114321706D01*
X151042077Y-114319840D01*
X151041710Y-114318415D01*
X151041309Y-114316896D01*
X151040807Y-114315048D01*
X151040392Y-114313564D01*
X151040135Y-114312658D01*
X151039786Y-114311451D01*
X151039341Y-114309944D01*
X151039160Y-114309342D01*
X151038886Y-114308440D01*
X151038702Y-114307840D01*
X151038299Y-114306545D01*
X151037854Y-114305143D01*
X151037758Y-114304844D01*
X151037369Y-114303648D01*
X151036975Y-114302455D01*
X151036933Y-114302331D01*
X151036826Y-114302008D01*
X151036372Y-114300669D01*
X151035860Y-114299184D01*
X151035338Y-114297703D01*
X151034807Y-114296225D01*
X151034592Y-114295634D01*
X151033915Y-114293807D01*
X151033836Y-114293594D01*
X151033382Y-114292397D01*
X151033045Y-114291517D01*
X151032360Y-114289761D01*
X151031779Y-114288302D01*
X151031426Y-114287428D01*
X151030829Y-114285970D01*
X151030225Y-114284525D01*
X151029981Y-114283946D01*
X151029657Y-114283185D01*
X151029114Y-114281925D01*
X151028863Y-114281349D01*
X151019000Y-114258612D01*
X151019000Y-110481499D01*
X150999589Y-110383916D01*
X150944312Y-110301188D01*
X150861584Y-110245911D01*
X150764001Y-110226500D01*
X148563999Y-110226500D01*
X148466416Y-110245911D01*
X148383688Y-110301188D01*
X148328411Y-110383916D01*
X148309000Y-110481499D01*
X148309000Y-113219600D01*
X148289315Y-113286639D01*
X148236511Y-113332394D01*
X148167353Y-113342338D01*
X148103797Y-113313313D01*
X148077613Y-113281600D01*
X148049415Y-113232758D01*
X147928318Y-113104405D01*
X147780889Y-113007439D01*
X147615070Y-112947087D01*
X147489800Y-112932444D01*
X147489799Y-114511600D01*
X144115000Y-114511599D01*
X144115000Y-114511600D01*
X141689427Y-114511599D01*
X141727156Y-114637621D01*
X141815387Y-114790443D01*
X141936482Y-114918795D01*
X141998275Y-114959437D01*
X142043469Y-115012722D01*
X142052680Y-115081982D01*
X142022985Y-115145227D01*
X141946536Y-115185947D01*
X141897268Y-115192521D01*
X141813324Y-115201640D01*
X141803081Y-115205087D01*
X141792373Y-115206516D01*
X141713069Y-115235380D01*
X141633069Y-115262303D01*
X141623808Y-115267867D01*
X141613653Y-115271564D01*
X141542391Y-115316787D01*
X141470050Y-115360255D01*
X141462196Y-115367683D01*
X141453073Y-115373472D01*
X141446569Y-115379287D01*
X141388178Y-115437678D01*
X141331866Y-115490930D01*
X141325375Y-115500481D01*
X140350206Y-116475651D01*
X140306968Y-116512190D01*
X140255720Y-116579219D01*
X140202821Y-116645012D01*
X140198014Y-116654695D01*
X140191451Y-116663279D01*
X140155792Y-116739752D01*
X140118257Y-116815366D01*
X140115642Y-116825852D01*
X140111075Y-116835647D01*
X140092673Y-116917974D01*
X140051753Y-117082100D01*
X138725376Y-117082100D01*
X138701899Y-117076246D01*
X138511786Y-117070937D01*
X138324968Y-117106574D01*
X138296909Y-117118600D01*
X138109414Y-117118600D01*
X137920539Y-117159687D01*
X137860768Y-117198100D01*
X137564024Y-117198100D01*
X137564056Y-117159687D01*
X137566400Y-114274600D01*
X138329400Y-113511600D01*
X141685455Y-113511600D01*
X142375001Y-113511600D01*
X142375001Y-112932444D01*
X143375000Y-112932444D01*
X143375000Y-113511601D01*
X144432401Y-113511600D01*
X144432401Y-112932444D01*
X145432400Y-112932444D01*
X145432400Y-113511601D01*
X146489801Y-113511600D01*
X146489801Y-112931600D01*
X146482647Y-112931600D01*
X146407829Y-112938146D01*
X146238777Y-112988757D01*
X146085959Y-113076986D01*
X145958502Y-113197237D01*
X145870919Y-113104406D01*
X145723489Y-113007439D01*
X145557670Y-112947087D01*
X145432400Y-112932444D01*
X144432401Y-112932444D01*
X144432401Y-112931600D01*
X144425247Y-112931600D01*
X144350429Y-112938146D01*
X144181377Y-112988757D01*
X144028559Y-113076986D01*
X143901102Y-113197237D01*
X143813519Y-113104406D01*
X143666089Y-113007439D01*
X143500270Y-112947087D01*
X143375000Y-112932444D01*
X142375001Y-112932444D01*
X142375001Y-112931600D01*
X142367847Y-112931600D01*
X142293029Y-112938146D01*
X142123978Y-112988757D01*
X141971157Y-113076987D01*
X141842805Y-113198082D01*
X141745839Y-113345511D01*
X141685486Y-113511331D01*
X141685455Y-113511600D01*
X138329400Y-113511600D01*
X139065000Y-112776000D01*
X139065000Y-108077001D01*
X154844495Y-108153232D01*
G37*
G04 #@! TD.AperFunction*
G04 #@! TA.AperFunction,Conductor*
G36*
X140069101Y-125263301D02*
G01*
X140064364Y-125319710D01*
X140075526Y-125403367D01*
X140084641Y-125487276D01*
X140088088Y-125497519D01*
X140089517Y-125508228D01*
X140118391Y-125587562D01*
X140145303Y-125667528D01*
X140150867Y-125676788D01*
X140154564Y-125686946D01*
X140199791Y-125758213D01*
X140243256Y-125830550D01*
X140250682Y-125838403D01*
X140256472Y-125847526D01*
X140262290Y-125854033D01*
X140320673Y-125912416D01*
X140373931Y-125968734D01*
X140383482Y-125975225D01*
X143323450Y-128915194D01*
X143359989Y-128958432D01*
X143427031Y-129009690D01*
X143492812Y-129062579D01*
X143502492Y-129067384D01*
X143511081Y-129073950D01*
X143587580Y-129109622D01*
X143663165Y-129147144D01*
X143673651Y-129149758D01*
X143683445Y-129154325D01*
X143765806Y-129172735D01*
X143847702Y-129193154D01*
X143858506Y-129193456D01*
X143869052Y-129195813D01*
X143877763Y-129196300D01*
X143960347Y-129196300D01*
X144037815Y-129198463D01*
X144049155Y-129196300D01*
X149446557Y-129196300D01*
X150626757Y-130376501D01*
X150660242Y-130437824D01*
X150655258Y-130507516D01*
X150613386Y-130563449D01*
X150538527Y-130588181D01*
X140427209Y-130543343D01*
X139184702Y-129300837D01*
X139172910Y-129282573D01*
X139142335Y-129258470D01*
X139135691Y-129251826D01*
X139116611Y-129238191D01*
X139074269Y-129204812D01*
X139065682Y-129201797D01*
X139058277Y-129196505D01*
X139006637Y-129181062D01*
X138955763Y-129163196D01*
X138943288Y-129162117D01*
X138937934Y-129160517D01*
X138887467Y-129162500D01*
X137570365Y-129162500D01*
X137554316Y-129146451D01*
X137560869Y-121081067D01*
X137580608Y-121014044D01*
X137633449Y-120968332D01*
X137702616Y-120958445D01*
X137753008Y-120977568D01*
X137791311Y-121002761D01*
X137957130Y-121063113D01*
X138082400Y-121077756D01*
X138082400Y-120498600D01*
X139082399Y-120498600D01*
X139082399Y-121078600D01*
X139089553Y-121078600D01*
X139164371Y-121072054D01*
X139333422Y-121021443D01*
X139486243Y-120933213D01*
X139614595Y-120812118D01*
X139711561Y-120664689D01*
X139771914Y-120498869D01*
X139771945Y-120498600D01*
X139082399Y-120498600D01*
X138082400Y-120498600D01*
X138082401Y-120283860D01*
X138082401Y-119498600D01*
X139767973Y-119498601D01*
X139730244Y-119372579D01*
X139642013Y-119219757D01*
X139520921Y-119091408D01*
X139474233Y-119060701D01*
X139429039Y-119007416D01*
X139419828Y-118938156D01*
X139449523Y-118874911D01*
X139542372Y-118833100D01*
X140069100Y-118833100D01*
X140069101Y-125263301D01*
G37*
G04 #@! TD.AperFunction*
G04 #@! TA.AperFunction,Conductor*
G36*
X118973600Y-113588800D02*
G01*
X123444000Y-118033800D01*
X123444000Y-119723233D01*
X123424315Y-119790272D01*
X123371511Y-119836027D01*
X123302353Y-119845971D01*
X123238797Y-119816946D01*
X123207801Y-119776029D01*
X123155646Y-119665193D01*
X123050590Y-119538202D01*
X122917253Y-119441327D01*
X122764015Y-119380657D01*
X122640081Y-119365000D01*
X122223928Y-119365000D01*
X122052321Y-119392180D01*
X121903191Y-119462355D01*
X121812355Y-119537500D01*
X121805853Y-119537500D01*
X121687051Y-119468493D01*
X121518696Y-119417503D01*
X121343127Y-119406611D01*
X121169761Y-119436401D01*
X121007899Y-119505274D01*
X120844356Y-119625628D01*
X120764588Y-119529201D01*
X120631253Y-119432327D01*
X120478015Y-119371657D01*
X120392000Y-119360791D01*
X120391998Y-120326000D01*
X119937928Y-120326000D01*
X119766321Y-120353180D01*
X119654074Y-120405999D01*
X119328234Y-120405999D01*
X119342885Y-120498500D01*
X118661365Y-120498500D01*
X118681000Y-120343078D01*
X118681000Y-119976931D01*
X118669767Y-119906000D01*
X119892000Y-119906001D01*
X119892001Y-119363274D01*
X119766325Y-119383179D01*
X119617191Y-119453355D01*
X119490202Y-119558410D01*
X119393327Y-119691747D01*
X119332657Y-119844984D01*
X119324949Y-119906000D01*
X118669767Y-119906000D01*
X118653820Y-119805321D01*
X118583645Y-119656191D01*
X118478590Y-119529202D01*
X118345253Y-119432327D01*
X118192015Y-119371657D01*
X118068081Y-119356000D01*
X117651928Y-119356000D01*
X117480322Y-119383179D01*
X117331195Y-119453353D01*
X117320314Y-119462355D01*
X117240737Y-119528186D01*
X117230754Y-119528500D01*
X117201420Y-119528500D01*
X117191705Y-119529727D01*
X117142054Y-119531288D01*
X117113359Y-119539625D01*
X117083704Y-119543371D01*
X117037508Y-119561661D01*
X116989801Y-119575521D01*
X116964075Y-119590734D01*
X116936291Y-119601736D01*
X116896097Y-119630938D01*
X116853380Y-119656201D01*
X116832269Y-119677312D01*
X116808024Y-119694927D01*
X116776270Y-119733311D01*
X116547261Y-119962320D01*
X116485938Y-119995805D01*
X116416246Y-119990821D01*
X116360313Y-119948949D01*
X116335896Y-119883485D01*
X116346786Y-119823127D01*
X116406544Y-119692276D01*
X116427000Y-119550000D01*
X116427000Y-119300000D01*
X115397000Y-119299999D01*
X115396999Y-120055000D01*
X115922001Y-120055000D01*
X116131786Y-120009364D01*
X116192553Y-119970312D01*
X116259592Y-119950627D01*
X116326632Y-119970312D01*
X116372386Y-120023116D01*
X116382330Y-120092274D01*
X116347273Y-120162308D01*
X115264582Y-121245000D01*
X114371999Y-121245000D01*
X114162216Y-121290635D01*
X114041293Y-121368347D01*
X113947167Y-121476976D01*
X113880709Y-121622500D01*
X111149267Y-121622500D01*
X111131365Y-121540216D01*
X111053653Y-121419293D01*
X110945024Y-121325167D01*
X110814276Y-121265456D01*
X110672000Y-121245000D01*
X109121999Y-121245000D01*
X108912216Y-121290635D01*
X108791293Y-121368347D01*
X108697167Y-121476976D01*
X108630709Y-121622500D01*
X107997748Y-121622500D01*
X107953284Y-121456562D01*
X107853464Y-121242500D01*
X107717990Y-121049023D01*
X107587061Y-120918094D01*
X107553576Y-120856771D01*
X107558560Y-120787079D01*
X107600432Y-120731146D01*
X107648385Y-120709247D01*
X107739784Y-120689365D01*
X107860707Y-120611653D01*
X107954832Y-120503025D01*
X108014544Y-120372276D01*
X108035000Y-120230000D01*
X108035000Y-119630000D01*
X105325000Y-119629999D01*
X105325000Y-120230001D01*
X105370635Y-120439784D01*
X105448347Y-120560707D01*
X105556975Y-120654832D01*
X105687724Y-120714544D01*
X105694991Y-120715589D01*
X105758547Y-120744614D01*
X105796321Y-120803392D01*
X105796321Y-120873262D01*
X105765025Y-120926008D01*
X105642010Y-121049023D01*
X105506536Y-121242500D01*
X105406716Y-121456563D01*
X105345584Y-121684709D01*
X105324999Y-121920000D01*
X105345585Y-122155293D01*
X105406716Y-122383437D01*
X105506536Y-122597500D01*
X105642010Y-122790977D01*
X105772939Y-122921906D01*
X105806424Y-122983229D01*
X105801440Y-123052921D01*
X105759568Y-123108854D01*
X105711615Y-123130753D01*
X105620216Y-123150635D01*
X105499293Y-123228347D01*
X105405168Y-123336975D01*
X105345456Y-123467724D01*
X105325000Y-123610000D01*
X105325000Y-124210000D01*
X108035000Y-124210001D01*
X108035000Y-123609999D01*
X107989365Y-123400216D01*
X107911653Y-123279293D01*
X107803025Y-123185168D01*
X107672276Y-123125456D01*
X107665009Y-123124411D01*
X107601453Y-123095386D01*
X107563679Y-123036608D01*
X107563679Y-122966738D01*
X107594975Y-122913992D01*
X107631467Y-122877500D01*
X108644733Y-122877500D01*
X108662635Y-122959784D01*
X108740347Y-123080707D01*
X108862449Y-123186508D01*
X108860116Y-123189200D01*
X108890274Y-123215330D01*
X108909962Y-123282368D01*
X108890281Y-123349409D01*
X108853001Y-123386690D01*
X108791293Y-123426347D01*
X108697168Y-123534975D01*
X108637456Y-123665724D01*
X108617000Y-123808000D01*
X108617000Y-124058000D01*
X111177000Y-124058001D01*
X111177000Y-123807999D01*
X111131365Y-123598216D01*
X111053653Y-123477293D01*
X110931551Y-123371492D01*
X110933884Y-123368800D01*
X110903726Y-123342670D01*
X110884038Y-123275632D01*
X110903719Y-123208591D01*
X110940999Y-123171310D01*
X111002707Y-123131653D01*
X111096833Y-123023024D01*
X111163291Y-122877500D01*
X113894733Y-122877500D01*
X113912635Y-122959784D01*
X113990347Y-123080707D01*
X114112449Y-123186508D01*
X114110116Y-123189200D01*
X114140274Y-123215330D01*
X114159962Y-123282368D01*
X114140281Y-123349409D01*
X114103001Y-123386690D01*
X114041293Y-123426347D01*
X113947168Y-123534975D01*
X113887456Y-123665724D01*
X113867000Y-123808000D01*
X113867000Y-124058000D01*
X116427000Y-124058001D01*
X116427000Y-123807999D01*
X116381365Y-123598216D01*
X116303653Y-123477293D01*
X116181551Y-123371492D01*
X116183884Y-123368800D01*
X116153726Y-123342670D01*
X116134038Y-123275632D01*
X116153719Y-123208591D01*
X116190999Y-123171310D01*
X116252707Y-123131653D01*
X116346833Y-123023024D01*
X116406544Y-122892275D01*
X116427000Y-122750000D01*
X116427000Y-121857418D01*
X116978042Y-121306377D01*
X117128355Y-121625809D01*
X117233410Y-121752798D01*
X117366747Y-121849673D01*
X117519985Y-121910343D01*
X117643919Y-121926000D01*
X118060072Y-121926000D01*
X118231679Y-121898820D01*
X118380809Y-121828644D01*
X118471644Y-121753500D01*
X119520377Y-121753500D01*
X119652747Y-121849673D01*
X119805985Y-121910343D01*
X119929919Y-121926000D01*
X120346072Y-121926000D01*
X120517679Y-121898820D01*
X120666806Y-121828646D01*
X120746763Y-121762500D01*
X121806377Y-121762500D01*
X121938747Y-121858673D01*
X122091985Y-121919343D01*
X122215919Y-121935000D01*
X122632072Y-121935000D01*
X122803679Y-121907820D01*
X122952808Y-121837645D01*
X123077247Y-121734700D01*
X123444000Y-121734700D01*
X123444000Y-123445582D01*
X123023923Y-123865659D01*
X123015429Y-123871050D01*
X122967617Y-123921965D01*
X122946904Y-123942678D01*
X122940906Y-123950410D01*
X122906896Y-123986628D01*
X122892501Y-124012811D01*
X122874181Y-124036431D01*
X122854451Y-124082026D01*
X122830515Y-124125565D01*
X122823081Y-124154515D01*
X122811214Y-124181940D01*
X122803443Y-124231003D01*
X122791100Y-124279077D01*
X122791100Y-124308935D01*
X122786412Y-124338533D01*
X122791100Y-124388122D01*
X122791100Y-124709078D01*
X122640081Y-124690000D01*
X122223928Y-124690000D01*
X122052321Y-124717180D01*
X121903191Y-124787356D01*
X121812358Y-124862500D01*
X121749067Y-124862500D01*
X121700850Y-124834493D01*
X121532496Y-124783503D01*
X121356927Y-124772611D01*
X121183561Y-124802401D01*
X121021699Y-124871274D01*
X120861409Y-124989236D01*
X120764590Y-124872202D01*
X120631253Y-124775327D01*
X120478015Y-124714657D01*
X120392000Y-124703791D01*
X120391998Y-125669000D01*
X119937928Y-125669000D01*
X119766321Y-125696180D01*
X119654074Y-125748999D01*
X119328234Y-125748999D01*
X119342885Y-125841500D01*
X118660228Y-125841500D01*
X118666830Y-125789247D01*
X118681000Y-125677078D01*
X118681000Y-125310931D01*
X118671192Y-125249000D01*
X119892000Y-125249001D01*
X119892001Y-124706274D01*
X119766325Y-124726179D01*
X119617191Y-124796355D01*
X119490202Y-124901410D01*
X119393327Y-125034747D01*
X119332657Y-125187984D01*
X119324949Y-125249000D01*
X118671192Y-125249000D01*
X118653820Y-125139321D01*
X118583645Y-124990191D01*
X118478590Y-124863202D01*
X118345253Y-124766327D01*
X118192015Y-124705657D01*
X118068081Y-124690000D01*
X117651928Y-124690000D01*
X117480321Y-124717180D01*
X117331191Y-124787355D01*
X117243738Y-124859703D01*
X117154747Y-124862500D01*
X117125420Y-124862500D01*
X117115705Y-124863727D01*
X117066054Y-124865288D01*
X117037359Y-124873625D01*
X117007704Y-124877371D01*
X116961508Y-124895661D01*
X116913801Y-124909521D01*
X116888075Y-124924734D01*
X116860291Y-124935736D01*
X116820103Y-124964934D01*
X116777381Y-124990200D01*
X116756269Y-125011312D01*
X116732023Y-125028928D01*
X116700270Y-125067311D01*
X116547261Y-125220320D01*
X116485938Y-125253805D01*
X116416246Y-125248821D01*
X116360313Y-125206949D01*
X116335896Y-125141485D01*
X116346786Y-125081127D01*
X116406544Y-124950276D01*
X116427000Y-124808000D01*
X116427000Y-124558000D01*
X115397000Y-124557999D01*
X115396999Y-125313000D01*
X115922001Y-125313000D01*
X116131786Y-125267364D01*
X116192553Y-125228312D01*
X116259592Y-125208627D01*
X116326632Y-125228312D01*
X116372386Y-125281116D01*
X116382330Y-125350274D01*
X116347273Y-125420308D01*
X115264582Y-126503000D01*
X114371999Y-126503000D01*
X114162216Y-126548635D01*
X114041293Y-126626347D01*
X113947167Y-126734976D01*
X113880709Y-126880500D01*
X111149267Y-126880500D01*
X111131365Y-126798216D01*
X111053653Y-126677293D01*
X110945024Y-126583167D01*
X110814276Y-126523456D01*
X110672000Y-126503000D01*
X109121999Y-126503000D01*
X108912216Y-126548635D01*
X108791293Y-126626347D01*
X108697167Y-126734976D01*
X108630709Y-126880500D01*
X108024546Y-126880500D01*
X108014416Y-126764710D01*
X107953284Y-126536563D01*
X107853464Y-126322500D01*
X107717990Y-126129023D01*
X107587061Y-125998094D01*
X107553576Y-125936771D01*
X107558560Y-125867079D01*
X107600432Y-125811146D01*
X107648385Y-125789247D01*
X107739784Y-125769365D01*
X107860707Y-125691653D01*
X107954832Y-125583025D01*
X108014544Y-125452276D01*
X108035000Y-125310000D01*
X108035000Y-124808001D01*
X108617000Y-124808001D01*
X108662635Y-125017784D01*
X108740347Y-125138707D01*
X108848975Y-125232832D01*
X108979724Y-125292544D01*
X109122000Y-125313000D01*
X109647000Y-125313000D01*
X110146999Y-125313000D01*
X110672001Y-125313000D01*
X110881784Y-125267365D01*
X111002707Y-125189653D01*
X111096832Y-125081025D01*
X111156544Y-124950276D01*
X111176999Y-124808001D01*
X113867000Y-124808001D01*
X113912635Y-125017784D01*
X113990347Y-125138707D01*
X114098975Y-125232832D01*
X114229724Y-125292544D01*
X114372000Y-125313000D01*
X114897000Y-125313000D01*
X114897001Y-124558000D01*
X113867000Y-124557999D01*
X113867000Y-124808001D01*
X111177000Y-124808000D01*
X111177000Y-124558000D01*
X110147000Y-124557999D01*
X110146999Y-125313000D01*
X109647000Y-125313000D01*
X109647001Y-124558000D01*
X108617000Y-124557999D01*
X108617000Y-124808001D01*
X108035000Y-124808001D01*
X108035000Y-124710000D01*
X105325000Y-124709999D01*
X105325000Y-125310001D01*
X105370635Y-125519784D01*
X105448347Y-125640707D01*
X105556975Y-125734832D01*
X105687724Y-125794544D01*
X105694991Y-125795589D01*
X105758547Y-125824614D01*
X105796321Y-125883392D01*
X105796321Y-125953262D01*
X105765025Y-126006008D01*
X105642010Y-126129023D01*
X105506536Y-126322500D01*
X105406716Y-126536563D01*
X105345584Y-126764709D01*
X105324999Y-127000000D01*
X105345584Y-127235291D01*
X105406716Y-127463437D01*
X105506536Y-127677500D01*
X105642010Y-127870977D01*
X105809023Y-128037990D01*
X106002500Y-128173464D01*
X106216563Y-128273284D01*
X106444709Y-128334416D01*
X106680000Y-128355001D01*
X106915291Y-128334416D01*
X107143437Y-128273284D01*
X107357500Y-128173464D01*
X107411718Y-128135500D01*
X108644733Y-128135500D01*
X108662635Y-128217784D01*
X108740347Y-128338707D01*
X108848976Y-128432833D01*
X108979724Y-128492544D01*
X109122000Y-128513000D01*
X110672001Y-128513000D01*
X110881784Y-128467365D01*
X111002707Y-128389653D01*
X111096833Y-128281024D01*
X111163291Y-128135500D01*
X113894733Y-128135500D01*
X113912635Y-128217784D01*
X113990347Y-128338707D01*
X114098976Y-128432833D01*
X114229724Y-128492544D01*
X114372000Y-128513000D01*
X115922001Y-128513000D01*
X116131784Y-128467365D01*
X116252707Y-128389653D01*
X116346833Y-128281024D01*
X116406544Y-128150276D01*
X116427000Y-128008000D01*
X116427000Y-127115418D01*
X116841461Y-126700957D01*
X116902785Y-126667472D01*
X116972477Y-126672456D01*
X117028410Y-126714328D01*
X117051616Y-126769240D01*
X117058180Y-126810679D01*
X117128355Y-126959809D01*
X117233410Y-127086798D01*
X117366747Y-127183673D01*
X117519985Y-127244343D01*
X117643919Y-127260000D01*
X118060072Y-127260000D01*
X118231679Y-127232820D01*
X118380806Y-127162646D01*
X118460763Y-127096500D01*
X119520377Y-127096500D01*
X119652747Y-127192673D01*
X119805985Y-127253343D01*
X119929919Y-127269000D01*
X120346072Y-127269000D01*
X120517679Y-127241820D01*
X120666809Y-127171645D01*
X120768522Y-127087500D01*
X121806377Y-127087500D01*
X121938747Y-127183673D01*
X122091985Y-127244343D01*
X122215919Y-127260000D01*
X122632072Y-127260000D01*
X122803679Y-127232820D01*
X122952809Y-127162645D01*
X123079798Y-127057590D01*
X123176745Y-126924153D01*
X123180967Y-126921084D01*
X123212732Y-126882686D01*
X123232319Y-126863099D01*
X123293642Y-126829614D01*
X123363334Y-126834598D01*
X123419267Y-126876470D01*
X123444000Y-126950780D01*
X123444000Y-130505200D01*
X104900500Y-130505200D01*
X104900500Y-119550001D01*
X108617000Y-119550001D01*
X108662635Y-119759784D01*
X108740347Y-119880707D01*
X108848975Y-119974832D01*
X108979724Y-120034544D01*
X109122000Y-120055000D01*
X109647000Y-120055000D01*
X110146999Y-120055000D01*
X110672001Y-120055000D01*
X110881784Y-120009365D01*
X111002707Y-119931653D01*
X111096832Y-119823025D01*
X111156544Y-119692276D01*
X111176999Y-119550001D01*
X113867000Y-119550001D01*
X113912635Y-119759784D01*
X113990347Y-119880707D01*
X114098975Y-119974832D01*
X114229724Y-120034544D01*
X114372000Y-120055000D01*
X114897000Y-120055000D01*
X114897001Y-119300000D01*
X113867000Y-119299999D01*
X113867000Y-119550001D01*
X111177000Y-119550000D01*
X111177000Y-119300000D01*
X110147000Y-119299999D01*
X110146999Y-120055000D01*
X109647000Y-120055000D01*
X109647001Y-119300000D01*
X108617000Y-119299999D01*
X108617000Y-119550001D01*
X104900500Y-119550001D01*
X104900500Y-118530000D01*
X105325000Y-118530000D01*
X105325000Y-119130000D01*
X108035000Y-119130001D01*
X108035000Y-118550000D01*
X108617000Y-118550000D01*
X108617000Y-118800000D01*
X111177000Y-118800001D01*
X111177000Y-118550000D01*
X113867000Y-118550000D01*
X113867000Y-118800000D01*
X116427000Y-118800001D01*
X116427000Y-118549999D01*
X116381365Y-118340216D01*
X116303653Y-118219293D01*
X116195025Y-118125168D01*
X116064276Y-118065456D01*
X115922000Y-118045000D01*
X115397000Y-118045000D01*
X115396999Y-118800000D01*
X114897000Y-118800000D01*
X114897001Y-118045000D01*
X114371999Y-118045000D01*
X114162216Y-118090635D01*
X114041293Y-118168347D01*
X113947168Y-118276975D01*
X113887456Y-118407724D01*
X113867000Y-118550000D01*
X111177000Y-118549999D01*
X111131365Y-118340216D01*
X111053653Y-118219293D01*
X110945025Y-118125168D01*
X110814276Y-118065456D01*
X110672000Y-118045000D01*
X110147000Y-118045000D01*
X110146999Y-118800000D01*
X109647000Y-118800000D01*
X109647001Y-118045000D01*
X109121999Y-118045000D01*
X108912216Y-118090635D01*
X108791293Y-118168347D01*
X108697168Y-118276975D01*
X108637456Y-118407724D01*
X108617000Y-118550000D01*
X108035000Y-118550000D01*
X108035000Y-118529999D01*
X107989365Y-118320216D01*
X107911653Y-118199293D01*
X107803025Y-118105168D01*
X107672276Y-118045456D01*
X107530000Y-118025000D01*
X106930000Y-118025000D01*
X106929999Y-119130000D01*
X106430000Y-119130000D01*
X106430001Y-118025000D01*
X105829999Y-118025000D01*
X105620216Y-118070635D01*
X105499293Y-118148347D01*
X105405168Y-118256975D01*
X105345456Y-118387724D01*
X105325000Y-118530000D01*
X104900500Y-118530000D01*
X104900500Y-114831799D01*
X107593434Y-114831799D01*
X107609379Y-114932476D01*
X107679555Y-115081609D01*
X107784610Y-115208598D01*
X107917947Y-115305473D01*
X108071185Y-115366143D01*
X108157200Y-115377009D01*
X108157200Y-115374526D01*
X108657199Y-115374526D01*
X108782875Y-115354621D01*
X108932009Y-115284445D01*
X109058998Y-115179390D01*
X109155873Y-115046053D01*
X109216543Y-114892816D01*
X109221042Y-114857199D01*
X111454234Y-114857199D01*
X111470179Y-114957876D01*
X111540355Y-115107009D01*
X111645410Y-115233998D01*
X111778747Y-115330873D01*
X111931985Y-115391543D01*
X112018000Y-115402409D01*
X112018000Y-115399926D01*
X112517999Y-115399926D01*
X112643675Y-115380021D01*
X112792809Y-115309845D01*
X112919798Y-115204790D01*
X113016673Y-115071453D01*
X113077343Y-114918216D01*
X113085051Y-114857200D01*
X112518000Y-114857199D01*
X112517999Y-115399926D01*
X112018000Y-115399926D01*
X112018001Y-114857200D01*
X111454234Y-114857199D01*
X109221042Y-114857199D01*
X109224251Y-114831800D01*
X108657200Y-114831799D01*
X108657199Y-115374526D01*
X108157200Y-115374526D01*
X108157201Y-114831800D01*
X107593434Y-114831799D01*
X104900500Y-114831799D01*
X104900500Y-112236013D01*
X104920185Y-112168974D01*
X104972989Y-112123219D01*
X105042147Y-112113275D01*
X105090851Y-112131258D01*
X105269242Y-112244250D01*
X105488498Y-112335742D01*
X105720034Y-112388983D01*
X105957234Y-112402452D01*
X106193306Y-112375764D01*
X106421506Y-112309681D01*
X106635314Y-112206092D01*
X106828609Y-112067961D01*
X106882234Y-112013867D01*
X106943410Y-111980115D01*
X107013123Y-111984796D01*
X107069239Y-112026423D01*
X107091462Y-112074808D01*
X107098635Y-112107784D01*
X107176347Y-112228707D01*
X107284976Y-112322833D01*
X107415724Y-112382544D01*
X107656700Y-112417191D01*
X107656700Y-113152164D01*
X107597857Y-113300786D01*
X107582200Y-113424719D01*
X107582200Y-113790872D01*
X107609379Y-113962478D01*
X107669413Y-114090055D01*
X107597857Y-114270785D01*
X107590149Y-114331800D01*
X107908672Y-114331800D01*
X108071185Y-114396143D01*
X108195119Y-114411800D01*
X108611272Y-114411800D01*
X108782879Y-114384620D01*
X108895126Y-114331801D01*
X109220966Y-114331801D01*
X109205021Y-114231121D01*
X109144987Y-114103545D01*
X109173153Y-114032407D01*
X109216543Y-113922815D01*
X109232200Y-113798881D01*
X109232200Y-113432728D01*
X109205021Y-113261124D01*
X109157700Y-113160560D01*
X109157700Y-112403000D01*
X109358001Y-112403000D01*
X109567784Y-112357365D01*
X109688707Y-112279653D01*
X109782833Y-112171024D01*
X109842544Y-112040276D01*
X109863000Y-111898000D01*
X109863000Y-110098000D01*
X110863000Y-110098000D01*
X110863000Y-111898001D01*
X110908635Y-112107784D01*
X110986347Y-112228707D01*
X111094976Y-112322833D01*
X111225724Y-112382544D01*
X111368000Y-112403000D01*
X111517500Y-112403000D01*
X111517500Y-113177564D01*
X111458657Y-113326186D01*
X111443000Y-113450119D01*
X111443000Y-113816272D01*
X111470179Y-113987878D01*
X111530213Y-114115455D01*
X111458657Y-114296185D01*
X111450949Y-114357200D01*
X111769472Y-114357200D01*
X111931985Y-114421543D01*
X112055919Y-114437200D01*
X112472072Y-114437200D01*
X112643679Y-114410020D01*
X112755926Y-114357201D01*
X113081766Y-114357201D01*
X113065821Y-114256521D01*
X113005787Y-114128945D01*
X113077343Y-113948215D01*
X113093000Y-113824281D01*
X113093000Y-113458128D01*
X113065821Y-113286524D01*
X113053868Y-113261121D01*
X113018500Y-113185961D01*
X113018500Y-112403000D01*
X113168001Y-112403000D01*
X113377784Y-112357365D01*
X113498707Y-112279653D01*
X113592833Y-112171025D01*
X113716959Y-111899224D01*
X113958536Y-112117124D01*
X114159242Y-112244250D01*
X114378498Y-112335742D01*
X114610034Y-112388983D01*
X114847234Y-112402452D01*
X115083306Y-112375764D01*
X115311506Y-112309681D01*
X115525314Y-112206092D01*
X115718608Y-112067961D01*
X115885867Y-111899237D01*
X116022306Y-111704743D01*
X116124025Y-111490041D01*
X116188114Y-111261272D01*
X116212741Y-111024969D01*
X116213000Y-110998000D01*
X116192913Y-110761272D01*
X116133228Y-110531312D01*
X116035651Y-110314701D01*
X115902970Y-110117622D01*
X115738981Y-109945717D01*
X115548373Y-109803901D01*
X115336592Y-109696226D01*
X115109704Y-109625775D01*
X114874185Y-109594560D01*
X114636769Y-109603473D01*
X114404260Y-109652258D01*
X114183285Y-109739526D01*
X113980179Y-109862774D01*
X113678732Y-110124358D01*
X113627365Y-109888216D01*
X113549653Y-109767293D01*
X113441024Y-109673167D01*
X113310276Y-109613456D01*
X113168000Y-109593000D01*
X111367999Y-109593000D01*
X111158216Y-109638635D01*
X111037293Y-109716347D01*
X110943167Y-109824976D01*
X110883456Y-109955724D01*
X110863000Y-110098000D01*
X109863000Y-110097999D01*
X109817365Y-109888216D01*
X109739653Y-109767293D01*
X109631024Y-109673167D01*
X109500276Y-109613456D01*
X109358000Y-109593000D01*
X107557999Y-109593000D01*
X107348216Y-109638635D01*
X107227293Y-109716347D01*
X107133167Y-109824976D01*
X107115531Y-109863594D01*
X107003874Y-110108087D01*
X106848981Y-109945717D01*
X106658373Y-109803901D01*
X106446592Y-109696226D01*
X106219704Y-109625775D01*
X105984185Y-109594560D01*
X105746769Y-109603473D01*
X105514260Y-109652258D01*
X105293288Y-109739525D01*
X105088828Y-109863594D01*
X105021303Y-109881544D01*
X104954793Y-109860137D01*
X104910415Y-109806171D01*
X104900500Y-109757585D01*
X104900500Y-108406976D01*
X118973600Y-108381800D01*
X118973600Y-113588800D01*
G37*
G04 #@! TD.AperFunction*
G04 #@! TD*
G04 #@! TA.AperFunction,Conductor*
G04 #@! TO.N,/L1PA*
G36*
X153713999Y-114381500D02*
G01*
X154584400Y-114381500D01*
X154584400Y-114426999D01*
X153695399Y-116179600D01*
X152882600Y-116103400D01*
X152869000Y-116061304D01*
X152869000Y-116006498D01*
X152853396Y-115928051D01*
X152800253Y-115848516D01*
X152744000Y-115674400D01*
X152744000Y-115306498D01*
X152728396Y-115228051D01*
X152683957Y-115161543D01*
X152617451Y-115117106D01*
X152617452Y-115117106D01*
X152617450Y-115117105D01*
X152560277Y-115105732D01*
X152349200Y-114452400D01*
X152349200Y-114381500D01*
X153214000Y-114381500D01*
X153214000Y-114096800D01*
X153713999Y-114096800D01*
X153713999Y-114381500D01*
G37*
G04 #@! TD.AperFunction*
G04 #@! TD*
G04 #@! TA.AperFunction,Conductor*
G04 #@! TO.N,/L1PB*
G36*
X149913999Y-114171099D02*
G01*
X149913999Y-114381500D01*
X150799800Y-114381500D01*
X150799800Y-114465115D01*
X150749000Y-116103400D01*
X149936200Y-116205000D01*
X148536229Y-114461176D01*
X148525729Y-114425172D01*
X148543763Y-114392290D01*
X148574439Y-114381500D01*
X149414000Y-114381500D01*
X149414000Y-114162857D01*
X149913999Y-114171099D01*
G37*
G04 #@! TD.AperFunction*
G04 #@! TD*
G04 #@! TA.AperFunction,Conductor*
G04 #@! TO.N,/3-12v*
G36*
X159766000Y-119167890D02*
G01*
X159751648Y-119202538D01*
X159717000Y-119216890D01*
X159676258Y-119195113D01*
X159630848Y-119127152D01*
X159546499Y-119070792D01*
X159472135Y-119056000D01*
X159376000Y-119056000D01*
X159376000Y-120466000D01*
X159472135Y-120466000D01*
X159546499Y-120451208D01*
X159630848Y-120394848D01*
X159676258Y-120326887D01*
X159707441Y-120306052D01*
X159744223Y-120313368D01*
X159766000Y-120354110D01*
X159766000Y-121199890D01*
X159751648Y-121234538D01*
X159717000Y-121248890D01*
X159676258Y-121227113D01*
X159630848Y-121159152D01*
X159546499Y-121102792D01*
X159472135Y-121088000D01*
X159376000Y-121088000D01*
X159376000Y-122498000D01*
X159472135Y-122498000D01*
X159546499Y-122483208D01*
X159630848Y-122426848D01*
X159676258Y-122358887D01*
X159707441Y-122338052D01*
X159744223Y-122345368D01*
X159766000Y-122386110D01*
X159766000Y-123231890D01*
X159751648Y-123266538D01*
X159717000Y-123280890D01*
X159676258Y-123259113D01*
X159630848Y-123191152D01*
X159546499Y-123134792D01*
X159472135Y-123120000D01*
X159376000Y-123120000D01*
X159376000Y-124530000D01*
X159472135Y-124530000D01*
X159546499Y-124515208D01*
X159630848Y-124458848D01*
X159676258Y-124390887D01*
X159707441Y-124370052D01*
X159744223Y-124377368D01*
X159766000Y-124418110D01*
X159766000Y-124968000D01*
X157607000Y-124968000D01*
X157607000Y-124079000D01*
X158542000Y-124079000D01*
X158542000Y-124300135D01*
X158556792Y-124374499D01*
X158613152Y-124458848D01*
X158697501Y-124515208D01*
X158771865Y-124530000D01*
X158868000Y-124530000D01*
X158868000Y-124079000D01*
X158542000Y-124079000D01*
X157607000Y-124079000D01*
X157607000Y-123349865D01*
X158542000Y-123349865D01*
X158542000Y-123571000D01*
X158868000Y-123571000D01*
X158868000Y-123120000D01*
X158771865Y-123120000D01*
X158697501Y-123134792D01*
X158613152Y-123191152D01*
X158556792Y-123275501D01*
X158542000Y-123349865D01*
X157607000Y-123349865D01*
X157607000Y-122047000D01*
X158542000Y-122047000D01*
X158542000Y-122268135D01*
X158556792Y-122342499D01*
X158613152Y-122426848D01*
X158697501Y-122483208D01*
X158771865Y-122498000D01*
X158868000Y-122498000D01*
X158868000Y-122047000D01*
X158542000Y-122047000D01*
X157607000Y-122047000D01*
X157607000Y-121317865D01*
X158542000Y-121317865D01*
X158542000Y-121539000D01*
X158868000Y-121539000D01*
X158868000Y-121088000D01*
X158771865Y-121088000D01*
X158697501Y-121102792D01*
X158613152Y-121159152D01*
X158556792Y-121243501D01*
X158542000Y-121317865D01*
X157607000Y-121317865D01*
X157607000Y-120015000D01*
X158542000Y-120015000D01*
X158542000Y-120236135D01*
X158556792Y-120310499D01*
X158613152Y-120394848D01*
X158697501Y-120451208D01*
X158771865Y-120466000D01*
X158868000Y-120466000D01*
X158868000Y-120015000D01*
X158542000Y-120015000D01*
X157607000Y-120015000D01*
X157607000Y-119285865D01*
X158542000Y-119285865D01*
X158542000Y-119507000D01*
X158868000Y-119507000D01*
X158868000Y-119056000D01*
X158771865Y-119056000D01*
X158697501Y-119070792D01*
X158613152Y-119127152D01*
X158556792Y-119211501D01*
X158542000Y-119285865D01*
X157607000Y-119285865D01*
X157607000Y-118872000D01*
X159766000Y-118872000D01*
X159766000Y-119167890D01*
G37*
G04 #@! TD.AperFunction*
G04 #@! TA.AperFunction,Conductor*
G36*
X162020000Y-111379000D02*
G01*
X157473400Y-111379000D01*
X157473400Y-105257600D01*
X162020000Y-105257600D01*
X162020000Y-111379000D01*
G37*
G04 #@! TD.AperFunction*
G04 #@! TD*
M02*
