G04 #@! TF.GenerationSoftware,KiCad,Pcbnew,5.99.0-unknown-89dcc4689~104~ubuntu20.04.1*
G04 #@! TF.CreationDate,2020-10-12T19:49:42-07:00*
G04 #@! TF.ProjectId,signal-board,7369676e-616c-42d6-926f-6172642e6b69,rev?*
G04 #@! TF.SameCoordinates,Original*
G04 #@! TF.FileFunction,Paste,Bot*
G04 #@! TF.FilePolarity,Positive*
%FSLAX46Y46*%
G04 Gerber Fmt 4.6, Leading zero omitted, Abs format (unit mm)*
G04 Created by KiCad (PCBNEW 5.99.0-unknown-89dcc4689~104~ubuntu20.04.1) date 2020-10-12 19:49:42*
%MOMM*%
%LPD*%
G01*
G04 APERTURE LIST*
%ADD10R,1.550000X1.000000*%
%ADD11R,2.200000X3.900000*%
%ADD12R,0.230000X0.230000*%
%ADD13O,0.800000X0.230000*%
%ADD14R,0.150000X0.600000*%
%ADD15R,0.230000X0.600000*%
%ADD16R,0.650000X0.900000*%
G04 APERTURE END LIST*
G04 #@! TO.C,R4*
G36*
G01*
X117683500Y-125195000D02*
X118028500Y-125195000D01*
G75*
G02*
X118176000Y-125342500I0J-147500D01*
G01*
X118176000Y-125637500D01*
G75*
G02*
X118028500Y-125785000I-147500J0D01*
G01*
X117683500Y-125785000D01*
G75*
G02*
X117536000Y-125637500I0J147500D01*
G01*
X117536000Y-125342500D01*
G75*
G02*
X117683500Y-125195000I147500J0D01*
G01*
G37*
G36*
G01*
X117683500Y-126165000D02*
X118028500Y-126165000D01*
G75*
G02*
X118176000Y-126312500I0J-147500D01*
G01*
X118176000Y-126607500D01*
G75*
G02*
X118028500Y-126755000I-147500J0D01*
G01*
X117683500Y-126755000D01*
G75*
G02*
X117536000Y-126607500I0J147500D01*
G01*
X117536000Y-126312500D01*
G75*
G02*
X117683500Y-126165000I147500J0D01*
G01*
G37*
G04 #@! TD*
G04 #@! TO.C,R2*
G36*
G01*
X147274500Y-117253800D02*
X147619500Y-117253800D01*
G75*
G02*
X147767000Y-117401300I0J-147500D01*
G01*
X147767000Y-117696300D01*
G75*
G02*
X147619500Y-117843800I-147500J0D01*
G01*
X147274500Y-117843800D01*
G75*
G02*
X147127000Y-117696300I0J147500D01*
G01*
X147127000Y-117401300D01*
G75*
G02*
X147274500Y-117253800I147500J0D01*
G01*
G37*
G36*
G01*
X147274500Y-118223800D02*
X147619500Y-118223800D01*
G75*
G02*
X147767000Y-118371300I0J-147500D01*
G01*
X147767000Y-118666300D01*
G75*
G02*
X147619500Y-118813800I-147500J0D01*
G01*
X147274500Y-118813800D01*
G75*
G02*
X147127000Y-118666300I0J147500D01*
G01*
X147127000Y-118371300D01*
G75*
G02*
X147274500Y-118223800I147500J0D01*
G01*
G37*
G04 #@! TD*
G04 #@! TO.C,R12*
G36*
G01*
X132530000Y-112362000D02*
X131630000Y-112362000D01*
G75*
G02*
X131380000Y-112112000I0J250000D01*
G01*
X131380000Y-111462000D01*
G75*
G02*
X131630000Y-111212000I250000J0D01*
G01*
X132530000Y-111212000D01*
G75*
G02*
X132780000Y-111462000I0J-250000D01*
G01*
X132780000Y-112112000D01*
G75*
G02*
X132530000Y-112362000I-250000J0D01*
G01*
G37*
G36*
G01*
X132530000Y-110312000D02*
X131630000Y-110312000D01*
G75*
G02*
X131380000Y-110062000I0J250000D01*
G01*
X131380000Y-109412000D01*
G75*
G02*
X131630000Y-109162000I250000J0D01*
G01*
X132530000Y-109162000D01*
G75*
G02*
X132780000Y-109412000I0J-250000D01*
G01*
X132780000Y-110062000D01*
G75*
G02*
X132530000Y-110312000I-250000J0D01*
G01*
G37*
G04 #@! TD*
G04 #@! TO.C,C1*
G36*
G01*
X156235600Y-114927800D02*
X156235600Y-114027800D01*
G75*
G02*
X156485600Y-113777800I250000J0D01*
G01*
X157135600Y-113777800D01*
G75*
G02*
X157385600Y-114027800I0J-250000D01*
G01*
X157385600Y-114927800D01*
G75*
G02*
X157135600Y-115177800I-250000J0D01*
G01*
X156485600Y-115177800D01*
G75*
G02*
X156235600Y-114927800I0J250000D01*
G01*
G37*
G36*
G01*
X158285600Y-114927800D02*
X158285600Y-114027800D01*
G75*
G02*
X158535600Y-113777800I250000J0D01*
G01*
X159185600Y-113777800D01*
G75*
G02*
X159435600Y-114027800I0J-250000D01*
G01*
X159435600Y-114927800D01*
G75*
G02*
X159185600Y-115177800I-250000J0D01*
G01*
X158535600Y-115177800D01*
G75*
G02*
X158285600Y-114927800I0J250000D01*
G01*
G37*
G04 #@! TD*
G04 #@! TO.C,C6*
G36*
G01*
X145382400Y-116636600D02*
X144482400Y-116636600D01*
G75*
G02*
X144232400Y-116386600I0J250000D01*
G01*
X144232400Y-115736600D01*
G75*
G02*
X144482400Y-115486600I250000J0D01*
G01*
X145382400Y-115486600D01*
G75*
G02*
X145632400Y-115736600I0J-250000D01*
G01*
X145632400Y-116386600D01*
G75*
G02*
X145382400Y-116636600I-250000J0D01*
G01*
G37*
G36*
G01*
X145382400Y-114586600D02*
X144482400Y-114586600D01*
G75*
G02*
X144232400Y-114336600I0J250000D01*
G01*
X144232400Y-113686600D01*
G75*
G02*
X144482400Y-113436600I250000J0D01*
G01*
X145382400Y-113436600D01*
G75*
G02*
X145632400Y-113686600I0J-250000D01*
G01*
X145632400Y-114336600D01*
G75*
G02*
X145382400Y-114586600I-250000J0D01*
G01*
G37*
G04 #@! TD*
G04 #@! TO.C,R8*
G36*
G01*
X108234700Y-113316800D02*
X108579700Y-113316800D01*
G75*
G02*
X108727200Y-113464300I0J-147500D01*
G01*
X108727200Y-113759300D01*
G75*
G02*
X108579700Y-113906800I-147500J0D01*
G01*
X108234700Y-113906800D01*
G75*
G02*
X108087200Y-113759300I0J147500D01*
G01*
X108087200Y-113464300D01*
G75*
G02*
X108234700Y-113316800I147500J0D01*
G01*
G37*
G36*
G01*
X108234700Y-114286800D02*
X108579700Y-114286800D01*
G75*
G02*
X108727200Y-114434300I0J-147500D01*
G01*
X108727200Y-114729300D01*
G75*
G02*
X108579700Y-114876800I-147500J0D01*
G01*
X108234700Y-114876800D01*
G75*
G02*
X108087200Y-114729300I0J147500D01*
G01*
X108087200Y-114434300D01*
G75*
G02*
X108234700Y-114286800I147500J0D01*
G01*
G37*
G04 #@! TD*
G04 #@! TO.C,R10*
G36*
G01*
X137102000Y-112362000D02*
X136202000Y-112362000D01*
G75*
G02*
X135952000Y-112112000I0J250000D01*
G01*
X135952000Y-111462000D01*
G75*
G02*
X136202000Y-111212000I250000J0D01*
G01*
X137102000Y-111212000D01*
G75*
G02*
X137352000Y-111462000I0J-250000D01*
G01*
X137352000Y-112112000D01*
G75*
G02*
X137102000Y-112362000I-250000J0D01*
G01*
G37*
G36*
G01*
X137102000Y-110312000D02*
X136202000Y-110312000D01*
G75*
G02*
X135952000Y-110062000I0J250000D01*
G01*
X135952000Y-109412000D01*
G75*
G02*
X136202000Y-109162000I250000J0D01*
G01*
X137102000Y-109162000D01*
G75*
G02*
X137352000Y-109412000I0J-250000D01*
G01*
X137352000Y-110062000D01*
G75*
G02*
X137102000Y-110312000I-250000J0D01*
G01*
G37*
G04 #@! TD*
G04 #@! TO.C,C2*
G36*
G01*
X156264000Y-117061400D02*
X156264000Y-116161400D01*
G75*
G02*
X156514000Y-115911400I250000J0D01*
G01*
X157164000Y-115911400D01*
G75*
G02*
X157414000Y-116161400I0J-250000D01*
G01*
X157414000Y-117061400D01*
G75*
G02*
X157164000Y-117311400I-250000J0D01*
G01*
X156514000Y-117311400D01*
G75*
G02*
X156264000Y-117061400I0J250000D01*
G01*
G37*
G36*
G01*
X158314000Y-117061400D02*
X158314000Y-116161400D01*
G75*
G02*
X158564000Y-115911400I250000J0D01*
G01*
X159214000Y-115911400D01*
G75*
G02*
X159464000Y-116161400I0J-250000D01*
G01*
X159464000Y-117061400D01*
G75*
G02*
X159214000Y-117311400I-250000J0D01*
G01*
X158564000Y-117311400D01*
G75*
G02*
X158314000Y-117061400I0J250000D01*
G01*
G37*
G04 #@! TD*
G04 #@! TO.C,C13*
G36*
G01*
X158547000Y-124275000D02*
X158547000Y-123375000D01*
G75*
G02*
X158797000Y-123125000I250000J0D01*
G01*
X159447000Y-123125000D01*
G75*
G02*
X159697000Y-123375000I0J-250000D01*
G01*
X159697000Y-124275000D01*
G75*
G02*
X159447000Y-124525000I-250000J0D01*
G01*
X158797000Y-124525000D01*
G75*
G02*
X158547000Y-124275000I0J250000D01*
G01*
G37*
G36*
G01*
X160597000Y-124275000D02*
X160597000Y-123375000D01*
G75*
G02*
X160847000Y-123125000I250000J0D01*
G01*
X161497000Y-123125000D01*
G75*
G02*
X161747000Y-123375000I0J-250000D01*
G01*
X161747000Y-124275000D01*
G75*
G02*
X161497000Y-124525000I-250000J0D01*
G01*
X160847000Y-124525000D01*
G75*
G02*
X160597000Y-124275000I0J250000D01*
G01*
G37*
G04 #@! TD*
G04 #@! TO.C,R7*
G36*
G01*
X122255500Y-119870000D02*
X122600500Y-119870000D01*
G75*
G02*
X122748000Y-120017500I0J-147500D01*
G01*
X122748000Y-120312500D01*
G75*
G02*
X122600500Y-120460000I-147500J0D01*
G01*
X122255500Y-120460000D01*
G75*
G02*
X122108000Y-120312500I0J147500D01*
G01*
X122108000Y-120017500D01*
G75*
G02*
X122255500Y-119870000I147500J0D01*
G01*
G37*
G36*
G01*
X122255500Y-120840000D02*
X122600500Y-120840000D01*
G75*
G02*
X122748000Y-120987500I0J-147500D01*
G01*
X122748000Y-121282500D01*
G75*
G02*
X122600500Y-121430000I-147500J0D01*
G01*
X122255500Y-121430000D01*
G75*
G02*
X122108000Y-121282500I0J147500D01*
G01*
X122108000Y-120987500D01*
G75*
G02*
X122255500Y-120840000I147500J0D01*
G01*
G37*
G04 #@! TD*
G04 #@! TO.C,R6*
G36*
G01*
X117683500Y-119861000D02*
X118028500Y-119861000D01*
G75*
G02*
X118176000Y-120008500I0J-147500D01*
G01*
X118176000Y-120303500D01*
G75*
G02*
X118028500Y-120451000I-147500J0D01*
G01*
X117683500Y-120451000D01*
G75*
G02*
X117536000Y-120303500I0J147500D01*
G01*
X117536000Y-120008500D01*
G75*
G02*
X117683500Y-119861000I147500J0D01*
G01*
G37*
G36*
G01*
X117683500Y-120831000D02*
X118028500Y-120831000D01*
G75*
G02*
X118176000Y-120978500I0J-147500D01*
G01*
X118176000Y-121273500D01*
G75*
G02*
X118028500Y-121421000I-147500J0D01*
G01*
X117683500Y-121421000D01*
G75*
G02*
X117536000Y-121273500I0J147500D01*
G01*
X117536000Y-120978500D01*
G75*
G02*
X117683500Y-120831000I147500J0D01*
G01*
G37*
G04 #@! TD*
D10*
G04 #@! TO.C,SW1*
X115147000Y-124308000D03*
X109897000Y-124308000D03*
X115147000Y-127508000D03*
X109897000Y-127508000D03*
G04 #@! TD*
G04 #@! TO.C,C5*
G36*
G01*
X143325000Y-116636600D02*
X142425000Y-116636600D01*
G75*
G02*
X142175000Y-116386600I0J250000D01*
G01*
X142175000Y-115736600D01*
G75*
G02*
X142425000Y-115486600I250000J0D01*
G01*
X143325000Y-115486600D01*
G75*
G02*
X143575000Y-115736600I0J-250000D01*
G01*
X143575000Y-116386600D01*
G75*
G02*
X143325000Y-116636600I-250000J0D01*
G01*
G37*
G36*
G01*
X143325000Y-114586600D02*
X142425000Y-114586600D01*
G75*
G02*
X142175000Y-114336600I0J250000D01*
G01*
X142175000Y-113686600D01*
G75*
G02*
X142425000Y-113436600I250000J0D01*
G01*
X143325000Y-113436600D01*
G75*
G02*
X143575000Y-113686600I0J-250000D01*
G01*
X143575000Y-114336600D01*
G75*
G02*
X143325000Y-114586600I-250000J0D01*
G01*
G37*
G04 #@! TD*
G04 #@! TO.C,R16*
G36*
G01*
X123386000Y-112353000D02*
X122486000Y-112353000D01*
G75*
G02*
X122236000Y-112103000I0J250000D01*
G01*
X122236000Y-111453000D01*
G75*
G02*
X122486000Y-111203000I250000J0D01*
G01*
X123386000Y-111203000D01*
G75*
G02*
X123636000Y-111453000I0J-250000D01*
G01*
X123636000Y-112103000D01*
G75*
G02*
X123386000Y-112353000I-250000J0D01*
G01*
G37*
G36*
G01*
X123386000Y-110303000D02*
X122486000Y-110303000D01*
G75*
G02*
X122236000Y-110053000I0J250000D01*
G01*
X122236000Y-109403000D01*
G75*
G02*
X122486000Y-109153000I250000J0D01*
G01*
X123386000Y-109153000D01*
G75*
G02*
X123636000Y-109403000I0J-250000D01*
G01*
X123636000Y-110053000D01*
G75*
G02*
X123386000Y-110303000I-250000J0D01*
G01*
G37*
G04 #@! TD*
G04 #@! TO.C,C9*
G36*
G01*
X120314500Y-121421000D02*
X119969500Y-121421000D01*
G75*
G02*
X119822000Y-121273500I0J147500D01*
G01*
X119822000Y-120978500D01*
G75*
G02*
X119969500Y-120831000I147500J0D01*
G01*
X120314500Y-120831000D01*
G75*
G02*
X120462000Y-120978500I0J-147500D01*
G01*
X120462000Y-121273500D01*
G75*
G02*
X120314500Y-121421000I-147500J0D01*
G01*
G37*
G36*
G01*
X120314500Y-120451000D02*
X119969500Y-120451000D01*
G75*
G02*
X119822000Y-120303500I0J147500D01*
G01*
X119822000Y-120008500D01*
G75*
G02*
X119969500Y-119861000I147500J0D01*
G01*
X120314500Y-119861000D01*
G75*
G02*
X120462000Y-120008500I0J-147500D01*
G01*
X120462000Y-120303500D01*
G75*
G02*
X120314500Y-120451000I-147500J0D01*
G01*
G37*
G04 #@! TD*
G04 #@! TO.C,C8*
G36*
G01*
X120314500Y-126764000D02*
X119969500Y-126764000D01*
G75*
G02*
X119822000Y-126616500I0J147500D01*
G01*
X119822000Y-126321500D01*
G75*
G02*
X119969500Y-126174000I147500J0D01*
G01*
X120314500Y-126174000D01*
G75*
G02*
X120462000Y-126321500I0J-147500D01*
G01*
X120462000Y-126616500D01*
G75*
G02*
X120314500Y-126764000I-147500J0D01*
G01*
G37*
G36*
G01*
X120314500Y-125794000D02*
X119969500Y-125794000D01*
G75*
G02*
X119822000Y-125646500I0J147500D01*
G01*
X119822000Y-125351500D01*
G75*
G02*
X119969500Y-125204000I147500J0D01*
G01*
X120314500Y-125204000D01*
G75*
G02*
X120462000Y-125351500I0J-147500D01*
G01*
X120462000Y-125646500D01*
G75*
G02*
X120314500Y-125794000I-147500J0D01*
G01*
G37*
G04 #@! TD*
G04 #@! TO.C,C7*
G36*
G01*
X147439800Y-116636600D02*
X146539800Y-116636600D01*
G75*
G02*
X146289800Y-116386600I0J250000D01*
G01*
X146289800Y-115736600D01*
G75*
G02*
X146539800Y-115486600I250000J0D01*
G01*
X147439800Y-115486600D01*
G75*
G02*
X147689800Y-115736600I0J-250000D01*
G01*
X147689800Y-116386600D01*
G75*
G02*
X147439800Y-116636600I-250000J0D01*
G01*
G37*
G36*
G01*
X147439800Y-114586600D02*
X146539800Y-114586600D01*
G75*
G02*
X146289800Y-114336600I0J250000D01*
G01*
X146289800Y-113686600D01*
G75*
G02*
X146539800Y-113436600I250000J0D01*
G01*
X147439800Y-113436600D01*
G75*
G02*
X147689800Y-113686600I0J-250000D01*
G01*
X147689800Y-114336600D01*
G75*
G02*
X147439800Y-114586600I-250000J0D01*
G01*
G37*
G04 #@! TD*
G04 #@! TO.C,R15*
G36*
G01*
X125672000Y-112362000D02*
X124772000Y-112362000D01*
G75*
G02*
X124522000Y-112112000I0J250000D01*
G01*
X124522000Y-111462000D01*
G75*
G02*
X124772000Y-111212000I250000J0D01*
G01*
X125672000Y-111212000D01*
G75*
G02*
X125922000Y-111462000I0J-250000D01*
G01*
X125922000Y-112112000D01*
G75*
G02*
X125672000Y-112362000I-250000J0D01*
G01*
G37*
G36*
G01*
X125672000Y-110312000D02*
X124772000Y-110312000D01*
G75*
G02*
X124522000Y-110062000I0J250000D01*
G01*
X124522000Y-109412000D01*
G75*
G02*
X124772000Y-109162000I250000J0D01*
G01*
X125672000Y-109162000D01*
G75*
G02*
X125922000Y-109412000I0J-250000D01*
G01*
X125922000Y-110062000D01*
G75*
G02*
X125672000Y-110312000I-250000J0D01*
G01*
G37*
G04 #@! TD*
G04 #@! TO.C,R5*
G36*
G01*
X122255500Y-125195000D02*
X122600500Y-125195000D01*
G75*
G02*
X122748000Y-125342500I0J-147500D01*
G01*
X122748000Y-125637500D01*
G75*
G02*
X122600500Y-125785000I-147500J0D01*
G01*
X122255500Y-125785000D01*
G75*
G02*
X122108000Y-125637500I0J147500D01*
G01*
X122108000Y-125342500D01*
G75*
G02*
X122255500Y-125195000I147500J0D01*
G01*
G37*
G36*
G01*
X122255500Y-126165000D02*
X122600500Y-126165000D01*
G75*
G02*
X122748000Y-126312500I0J-147500D01*
G01*
X122748000Y-126607500D01*
G75*
G02*
X122600500Y-126755000I-147500J0D01*
G01*
X122255500Y-126755000D01*
G75*
G02*
X122108000Y-126607500I0J147500D01*
G01*
X122108000Y-126312500D01*
G75*
G02*
X122255500Y-126165000I147500J0D01*
G01*
G37*
G04 #@! TD*
G04 #@! TO.C,SW2*
X115147000Y-119050000D03*
X109897000Y-119050000D03*
X115147000Y-122250000D03*
X109897000Y-122250000D03*
G04 #@! TD*
G04 #@! TO.C,C10*
G36*
G01*
X138132400Y-117373600D02*
X139032400Y-117373600D01*
G75*
G02*
X139282400Y-117623600I0J-250000D01*
G01*
X139282400Y-118273600D01*
G75*
G02*
X139032400Y-118523600I-250000J0D01*
G01*
X138132400Y-118523600D01*
G75*
G02*
X137882400Y-118273600I0J250000D01*
G01*
X137882400Y-117623600D01*
G75*
G02*
X138132400Y-117373600I250000J0D01*
G01*
G37*
G36*
G01*
X138132400Y-119423600D02*
X139032400Y-119423600D01*
G75*
G02*
X139282400Y-119673600I0J-250000D01*
G01*
X139282400Y-120323600D01*
G75*
G02*
X139032400Y-120573600I-250000J0D01*
G01*
X138132400Y-120573600D01*
G75*
G02*
X137882400Y-120323600I0J250000D01*
G01*
X137882400Y-119673600D01*
G75*
G02*
X138132400Y-119423600I250000J0D01*
G01*
G37*
G04 #@! TD*
G04 #@! TO.C,C3*
G36*
G01*
X149801800Y-119766300D02*
X149801800Y-120111300D01*
G75*
G02*
X149654300Y-120258800I-147500J0D01*
G01*
X149359300Y-120258800D01*
G75*
G02*
X149211800Y-120111300I0J147500D01*
G01*
X149211800Y-119766300D01*
G75*
G02*
X149359300Y-119618800I147500J0D01*
G01*
X149654300Y-119618800D01*
G75*
G02*
X149801800Y-119766300I0J-147500D01*
G01*
G37*
G36*
G01*
X148831800Y-119766300D02*
X148831800Y-120111300D01*
G75*
G02*
X148684300Y-120258800I-147500J0D01*
G01*
X148389300Y-120258800D01*
G75*
G02*
X148241800Y-120111300I0J147500D01*
G01*
X148241800Y-119766300D01*
G75*
G02*
X148389300Y-119618800I147500J0D01*
G01*
X148684300Y-119618800D01*
G75*
G02*
X148831800Y-119766300I0J-147500D01*
G01*
G37*
G04 #@! TD*
G04 #@! TO.C,R13*
G36*
G01*
X130244000Y-112362000D02*
X129344000Y-112362000D01*
G75*
G02*
X129094000Y-112112000I0J250000D01*
G01*
X129094000Y-111462000D01*
G75*
G02*
X129344000Y-111212000I250000J0D01*
G01*
X130244000Y-111212000D01*
G75*
G02*
X130494000Y-111462000I0J-250000D01*
G01*
X130494000Y-112112000D01*
G75*
G02*
X130244000Y-112362000I-250000J0D01*
G01*
G37*
G36*
G01*
X130244000Y-110312000D02*
X129344000Y-110312000D01*
G75*
G02*
X129094000Y-110062000I0J250000D01*
G01*
X129094000Y-109412000D01*
G75*
G02*
X129344000Y-109162000I250000J0D01*
G01*
X130244000Y-109162000D01*
G75*
G02*
X130494000Y-109412000I0J-250000D01*
G01*
X130494000Y-110062000D01*
G75*
G02*
X130244000Y-110312000I-250000J0D01*
G01*
G37*
G04 #@! TD*
D11*
G04 #@! TO.C,L1*
X153464000Y-112431500D03*
X149664000Y-112431500D03*
G04 #@! TD*
G04 #@! TO.C,C11*
G36*
G01*
X158547000Y-120211000D02*
X158547000Y-119311000D01*
G75*
G02*
X158797000Y-119061000I250000J0D01*
G01*
X159447000Y-119061000D01*
G75*
G02*
X159697000Y-119311000I0J-250000D01*
G01*
X159697000Y-120211000D01*
G75*
G02*
X159447000Y-120461000I-250000J0D01*
G01*
X158797000Y-120461000D01*
G75*
G02*
X158547000Y-120211000I0J250000D01*
G01*
G37*
G36*
G01*
X160597000Y-120211000D02*
X160597000Y-119311000D01*
G75*
G02*
X160847000Y-119061000I250000J0D01*
G01*
X161497000Y-119061000D01*
G75*
G02*
X161747000Y-119311000I0J-250000D01*
G01*
X161747000Y-120211000D01*
G75*
G02*
X161497000Y-120461000I-250000J0D01*
G01*
X160847000Y-120461000D01*
G75*
G02*
X160597000Y-120211000I0J250000D01*
G01*
G37*
G04 #@! TD*
G04 #@! TO.C,R17*
G36*
G01*
X121100000Y-112344000D02*
X120200000Y-112344000D01*
G75*
G02*
X119950000Y-112094000I0J250000D01*
G01*
X119950000Y-111444000D01*
G75*
G02*
X120200000Y-111194000I250000J0D01*
G01*
X121100000Y-111194000D01*
G75*
G02*
X121350000Y-111444000I0J-250000D01*
G01*
X121350000Y-112094000D01*
G75*
G02*
X121100000Y-112344000I-250000J0D01*
G01*
G37*
G36*
G01*
X121100000Y-110294000D02*
X120200000Y-110294000D01*
G75*
G02*
X119950000Y-110044000I0J250000D01*
G01*
X119950000Y-109394000D01*
G75*
G02*
X120200000Y-109144000I250000J0D01*
G01*
X121100000Y-109144000D01*
G75*
G02*
X121350000Y-109394000I0J-250000D01*
G01*
X121350000Y-110044000D01*
G75*
G02*
X121100000Y-110294000I-250000J0D01*
G01*
G37*
G04 #@! TD*
G04 #@! TO.C,R3*
G36*
G01*
X143464500Y-117228400D02*
X143809500Y-117228400D01*
G75*
G02*
X143957000Y-117375900I0J-147500D01*
G01*
X143957000Y-117670900D01*
G75*
G02*
X143809500Y-117818400I-147500J0D01*
G01*
X143464500Y-117818400D01*
G75*
G02*
X143317000Y-117670900I0J147500D01*
G01*
X143317000Y-117375900D01*
G75*
G02*
X143464500Y-117228400I147500J0D01*
G01*
G37*
G36*
G01*
X143464500Y-118198400D02*
X143809500Y-118198400D01*
G75*
G02*
X143957000Y-118345900I0J-147500D01*
G01*
X143957000Y-118640900D01*
G75*
G02*
X143809500Y-118788400I-147500J0D01*
G01*
X143464500Y-118788400D01*
G75*
G02*
X143317000Y-118640900I0J147500D01*
G01*
X143317000Y-118345900D01*
G75*
G02*
X143464500Y-118198400I147500J0D01*
G01*
G37*
G04 #@! TD*
G04 #@! TO.C,R1*
G36*
G01*
X145877500Y-117330000D02*
X146222500Y-117330000D01*
G75*
G02*
X146370000Y-117477500I0J-147500D01*
G01*
X146370000Y-117772500D01*
G75*
G02*
X146222500Y-117920000I-147500J0D01*
G01*
X145877500Y-117920000D01*
G75*
G02*
X145730000Y-117772500I0J147500D01*
G01*
X145730000Y-117477500D01*
G75*
G02*
X145877500Y-117330000I147500J0D01*
G01*
G37*
G36*
G01*
X145877500Y-118300000D02*
X146222500Y-118300000D01*
G75*
G02*
X146370000Y-118447500I0J-147500D01*
G01*
X146370000Y-118742500D01*
G75*
G02*
X146222500Y-118890000I-147500J0D01*
G01*
X145877500Y-118890000D01*
G75*
G02*
X145730000Y-118742500I0J147500D01*
G01*
X145730000Y-118447500D01*
G75*
G02*
X145877500Y-118300000I147500J0D01*
G01*
G37*
G04 #@! TD*
G04 #@! TO.C,C12*
G36*
G01*
X158547000Y-122243000D02*
X158547000Y-121343000D01*
G75*
G02*
X158797000Y-121093000I250000J0D01*
G01*
X159447000Y-121093000D01*
G75*
G02*
X159697000Y-121343000I0J-250000D01*
G01*
X159697000Y-122243000D01*
G75*
G02*
X159447000Y-122493000I-250000J0D01*
G01*
X158797000Y-122493000D01*
G75*
G02*
X158547000Y-122243000I0J250000D01*
G01*
G37*
G36*
G01*
X160597000Y-122243000D02*
X160597000Y-121343000D01*
G75*
G02*
X160847000Y-121093000I250000J0D01*
G01*
X161497000Y-121093000D01*
G75*
G02*
X161747000Y-121343000I0J-250000D01*
G01*
X161747000Y-122243000D01*
G75*
G02*
X161497000Y-122493000I-250000J0D01*
G01*
X160847000Y-122493000D01*
G75*
G02*
X160597000Y-122243000I0J250000D01*
G01*
G37*
G04 #@! TD*
D12*
G04 #@! TO.C,U1*
X153574000Y-116081500D03*
D13*
X153289000Y-116081500D03*
X153289000Y-116581500D03*
D12*
X153574000Y-116581500D03*
D13*
X153289000Y-117081500D03*
D12*
X153574000Y-117081500D03*
X153574000Y-117581500D03*
D13*
X153289000Y-117581500D03*
X153289000Y-118081500D03*
D12*
X153574000Y-118081500D03*
X150054000Y-118081500D03*
D13*
X150339000Y-118081500D03*
X150339000Y-117581500D03*
D12*
X150054000Y-117581500D03*
X150054000Y-117081500D03*
D13*
X150339000Y-117081500D03*
D12*
X150054000Y-116581500D03*
D13*
X150339000Y-116581500D03*
D12*
X150054000Y-116081500D03*
D13*
X150339000Y-116081500D03*
D14*
X151614000Y-118506500D03*
D15*
X152414000Y-118506500D03*
D16*
X151379000Y-117641500D03*
X152249000Y-117641500D03*
X152249000Y-116521500D03*
D15*
X151214000Y-115656500D03*
X152414000Y-115656500D03*
X152014000Y-118506500D03*
D14*
X152014000Y-115656500D03*
X151214000Y-118506500D03*
X151614000Y-115656500D03*
X151214000Y-115656500D03*
X152014000Y-118506500D03*
D15*
X152014000Y-115656500D03*
D14*
X152414000Y-118506500D03*
X152414000Y-115656500D03*
D16*
X151379000Y-116521500D03*
D15*
X151614000Y-118506500D03*
X151214000Y-118506500D03*
X151614000Y-115656500D03*
G04 #@! TD*
G04 #@! TO.C,C4*
G36*
G01*
X146322000Y-119842500D02*
X146322000Y-120187500D01*
G75*
G02*
X146174500Y-120335000I-147500J0D01*
G01*
X145879500Y-120335000D01*
G75*
G02*
X145732000Y-120187500I0J147500D01*
G01*
X145732000Y-119842500D01*
G75*
G02*
X145879500Y-119695000I147500J0D01*
G01*
X146174500Y-119695000D01*
G75*
G02*
X146322000Y-119842500I0J-147500D01*
G01*
G37*
G36*
G01*
X145352000Y-119842500D02*
X145352000Y-120187500D01*
G75*
G02*
X145204500Y-120335000I-147500J0D01*
G01*
X144909500Y-120335000D01*
G75*
G02*
X144762000Y-120187500I0J147500D01*
G01*
X144762000Y-119842500D01*
G75*
G02*
X144909500Y-119695000I147500J0D01*
G01*
X145204500Y-119695000D01*
G75*
G02*
X145352000Y-119842500I0J-147500D01*
G01*
G37*
G04 #@! TD*
G04 #@! TO.C,IC1*
G36*
G01*
X136675000Y-126755000D02*
X136375000Y-126755000D01*
G75*
G02*
X136225000Y-126605000I0J150000D01*
G01*
X136225000Y-124855000D01*
G75*
G02*
X136375000Y-124705000I150000J0D01*
G01*
X136675000Y-124705000D01*
G75*
G02*
X136825000Y-124855000I0J-150000D01*
G01*
X136825000Y-126605000D01*
G75*
G02*
X136675000Y-126755000I-150000J0D01*
G01*
G37*
G36*
G01*
X135405000Y-126755000D02*
X135105000Y-126755000D01*
G75*
G02*
X134955000Y-126605000I0J150000D01*
G01*
X134955000Y-124855000D01*
G75*
G02*
X135105000Y-124705000I150000J0D01*
G01*
X135405000Y-124705000D01*
G75*
G02*
X135555000Y-124855000I0J-150000D01*
G01*
X135555000Y-126605000D01*
G75*
G02*
X135405000Y-126755000I-150000J0D01*
G01*
G37*
G36*
G01*
X134135000Y-126755000D02*
X133835000Y-126755000D01*
G75*
G02*
X133685000Y-126605000I0J150000D01*
G01*
X133685000Y-124855000D01*
G75*
G02*
X133835000Y-124705000I150000J0D01*
G01*
X134135000Y-124705000D01*
G75*
G02*
X134285000Y-124855000I0J-150000D01*
G01*
X134285000Y-126605000D01*
G75*
G02*
X134135000Y-126755000I-150000J0D01*
G01*
G37*
G36*
G01*
X132865000Y-126755000D02*
X132565000Y-126755000D01*
G75*
G02*
X132415000Y-126605000I0J150000D01*
G01*
X132415000Y-124855000D01*
G75*
G02*
X132565000Y-124705000I150000J0D01*
G01*
X132865000Y-124705000D01*
G75*
G02*
X133015000Y-124855000I0J-150000D01*
G01*
X133015000Y-126605000D01*
G75*
G02*
X132865000Y-126755000I-150000J0D01*
G01*
G37*
G36*
G01*
X131595000Y-126755000D02*
X131295000Y-126755000D01*
G75*
G02*
X131145000Y-126605000I0J150000D01*
G01*
X131145000Y-124855000D01*
G75*
G02*
X131295000Y-124705000I150000J0D01*
G01*
X131595000Y-124705000D01*
G75*
G02*
X131745000Y-124855000I0J-150000D01*
G01*
X131745000Y-126605000D01*
G75*
G02*
X131595000Y-126755000I-150000J0D01*
G01*
G37*
G36*
G01*
X130325000Y-126755000D02*
X130025000Y-126755000D01*
G75*
G02*
X129875000Y-126605000I0J150000D01*
G01*
X129875000Y-124855000D01*
G75*
G02*
X130025000Y-124705000I150000J0D01*
G01*
X130325000Y-124705000D01*
G75*
G02*
X130475000Y-124855000I0J-150000D01*
G01*
X130475000Y-126605000D01*
G75*
G02*
X130325000Y-126755000I-150000J0D01*
G01*
G37*
G36*
G01*
X129055000Y-126755000D02*
X128755000Y-126755000D01*
G75*
G02*
X128605000Y-126605000I0J150000D01*
G01*
X128605000Y-124855000D01*
G75*
G02*
X128755000Y-124705000I150000J0D01*
G01*
X129055000Y-124705000D01*
G75*
G02*
X129205000Y-124855000I0J-150000D01*
G01*
X129205000Y-126605000D01*
G75*
G02*
X129055000Y-126755000I-150000J0D01*
G01*
G37*
G36*
G01*
X127785000Y-126755000D02*
X127485000Y-126755000D01*
G75*
G02*
X127335000Y-126605000I0J150000D01*
G01*
X127335000Y-124855000D01*
G75*
G02*
X127485000Y-124705000I150000J0D01*
G01*
X127785000Y-124705000D01*
G75*
G02*
X127935000Y-124855000I0J-150000D01*
G01*
X127935000Y-126605000D01*
G75*
G02*
X127785000Y-126755000I-150000J0D01*
G01*
G37*
G36*
G01*
X126515000Y-126755000D02*
X126215000Y-126755000D01*
G75*
G02*
X126065000Y-126605000I0J150000D01*
G01*
X126065000Y-124855000D01*
G75*
G02*
X126215000Y-124705000I150000J0D01*
G01*
X126515000Y-124705000D01*
G75*
G02*
X126665000Y-124855000I0J-150000D01*
G01*
X126665000Y-126605000D01*
G75*
G02*
X126515000Y-126755000I-150000J0D01*
G01*
G37*
G36*
G01*
X125245000Y-126755000D02*
X124945000Y-126755000D01*
G75*
G02*
X124795000Y-126605000I0J150000D01*
G01*
X124795000Y-124855000D01*
G75*
G02*
X124945000Y-124705000I150000J0D01*
G01*
X125245000Y-124705000D01*
G75*
G02*
X125395000Y-124855000I0J-150000D01*
G01*
X125395000Y-126605000D01*
G75*
G02*
X125245000Y-126755000I-150000J0D01*
G01*
G37*
G36*
G01*
X125245000Y-119135000D02*
X124945000Y-119135000D01*
G75*
G02*
X124795000Y-118985000I0J150000D01*
G01*
X124795000Y-117235000D01*
G75*
G02*
X124945000Y-117085000I150000J0D01*
G01*
X125245000Y-117085000D01*
G75*
G02*
X125395000Y-117235000I0J-150000D01*
G01*
X125395000Y-118985000D01*
G75*
G02*
X125245000Y-119135000I-150000J0D01*
G01*
G37*
G36*
G01*
X126515000Y-119135000D02*
X126215000Y-119135000D01*
G75*
G02*
X126065000Y-118985000I0J150000D01*
G01*
X126065000Y-117235000D01*
G75*
G02*
X126215000Y-117085000I150000J0D01*
G01*
X126515000Y-117085000D01*
G75*
G02*
X126665000Y-117235000I0J-150000D01*
G01*
X126665000Y-118985000D01*
G75*
G02*
X126515000Y-119135000I-150000J0D01*
G01*
G37*
G36*
G01*
X127785000Y-119135000D02*
X127485000Y-119135000D01*
G75*
G02*
X127335000Y-118985000I0J150000D01*
G01*
X127335000Y-117235000D01*
G75*
G02*
X127485000Y-117085000I150000J0D01*
G01*
X127785000Y-117085000D01*
G75*
G02*
X127935000Y-117235000I0J-150000D01*
G01*
X127935000Y-118985000D01*
G75*
G02*
X127785000Y-119135000I-150000J0D01*
G01*
G37*
G36*
G01*
X129055000Y-119135000D02*
X128755000Y-119135000D01*
G75*
G02*
X128605000Y-118985000I0J150000D01*
G01*
X128605000Y-117235000D01*
G75*
G02*
X128755000Y-117085000I150000J0D01*
G01*
X129055000Y-117085000D01*
G75*
G02*
X129205000Y-117235000I0J-150000D01*
G01*
X129205000Y-118985000D01*
G75*
G02*
X129055000Y-119135000I-150000J0D01*
G01*
G37*
G36*
G01*
X130325000Y-119135000D02*
X130025000Y-119135000D01*
G75*
G02*
X129875000Y-118985000I0J150000D01*
G01*
X129875000Y-117235000D01*
G75*
G02*
X130025000Y-117085000I150000J0D01*
G01*
X130325000Y-117085000D01*
G75*
G02*
X130475000Y-117235000I0J-150000D01*
G01*
X130475000Y-118985000D01*
G75*
G02*
X130325000Y-119135000I-150000J0D01*
G01*
G37*
G36*
G01*
X131595000Y-119135000D02*
X131295000Y-119135000D01*
G75*
G02*
X131145000Y-118985000I0J150000D01*
G01*
X131145000Y-117235000D01*
G75*
G02*
X131295000Y-117085000I150000J0D01*
G01*
X131595000Y-117085000D01*
G75*
G02*
X131745000Y-117235000I0J-150000D01*
G01*
X131745000Y-118985000D01*
G75*
G02*
X131595000Y-119135000I-150000J0D01*
G01*
G37*
G36*
G01*
X132865000Y-119135000D02*
X132565000Y-119135000D01*
G75*
G02*
X132415000Y-118985000I0J150000D01*
G01*
X132415000Y-117235000D01*
G75*
G02*
X132565000Y-117085000I150000J0D01*
G01*
X132865000Y-117085000D01*
G75*
G02*
X133015000Y-117235000I0J-150000D01*
G01*
X133015000Y-118985000D01*
G75*
G02*
X132865000Y-119135000I-150000J0D01*
G01*
G37*
G36*
G01*
X134135000Y-119135000D02*
X133835000Y-119135000D01*
G75*
G02*
X133685000Y-118985000I0J150000D01*
G01*
X133685000Y-117235000D01*
G75*
G02*
X133835000Y-117085000I150000J0D01*
G01*
X134135000Y-117085000D01*
G75*
G02*
X134285000Y-117235000I0J-150000D01*
G01*
X134285000Y-118985000D01*
G75*
G02*
X134135000Y-119135000I-150000J0D01*
G01*
G37*
G36*
G01*
X135405000Y-119135000D02*
X135105000Y-119135000D01*
G75*
G02*
X134955000Y-118985000I0J150000D01*
G01*
X134955000Y-117235000D01*
G75*
G02*
X135105000Y-117085000I150000J0D01*
G01*
X135405000Y-117085000D01*
G75*
G02*
X135555000Y-117235000I0J-150000D01*
G01*
X135555000Y-118985000D01*
G75*
G02*
X135405000Y-119135000I-150000J0D01*
G01*
G37*
G36*
G01*
X136675000Y-119135000D02*
X136375000Y-119135000D01*
G75*
G02*
X136225000Y-118985000I0J150000D01*
G01*
X136225000Y-117235000D01*
G75*
G02*
X136375000Y-117085000I150000J0D01*
G01*
X136675000Y-117085000D01*
G75*
G02*
X136825000Y-117235000I0J-150000D01*
G01*
X136825000Y-118985000D01*
G75*
G02*
X136675000Y-119135000I-150000J0D01*
G01*
G37*
G04 #@! TD*
G04 #@! TO.C,R11*
G36*
G01*
X134816000Y-112344000D02*
X133916000Y-112344000D01*
G75*
G02*
X133666000Y-112094000I0J250000D01*
G01*
X133666000Y-111444000D01*
G75*
G02*
X133916000Y-111194000I250000J0D01*
G01*
X134816000Y-111194000D01*
G75*
G02*
X135066000Y-111444000I0J-250000D01*
G01*
X135066000Y-112094000D01*
G75*
G02*
X134816000Y-112344000I-250000J0D01*
G01*
G37*
G36*
G01*
X134816000Y-110294000D02*
X133916000Y-110294000D01*
G75*
G02*
X133666000Y-110044000I0J250000D01*
G01*
X133666000Y-109394000D01*
G75*
G02*
X133916000Y-109144000I250000J0D01*
G01*
X134816000Y-109144000D01*
G75*
G02*
X135066000Y-109394000I0J-250000D01*
G01*
X135066000Y-110044000D01*
G75*
G02*
X134816000Y-110294000I-250000J0D01*
G01*
G37*
G04 #@! TD*
G04 #@! TO.C,R9*
G36*
G01*
X112095500Y-113342200D02*
X112440500Y-113342200D01*
G75*
G02*
X112588000Y-113489700I0J-147500D01*
G01*
X112588000Y-113784700D01*
G75*
G02*
X112440500Y-113932200I-147500J0D01*
G01*
X112095500Y-113932200D01*
G75*
G02*
X111948000Y-113784700I0J147500D01*
G01*
X111948000Y-113489700D01*
G75*
G02*
X112095500Y-113342200I147500J0D01*
G01*
G37*
G36*
G01*
X112095500Y-114312200D02*
X112440500Y-114312200D01*
G75*
G02*
X112588000Y-114459700I0J-147500D01*
G01*
X112588000Y-114754700D01*
G75*
G02*
X112440500Y-114902200I-147500J0D01*
G01*
X112095500Y-114902200D01*
G75*
G02*
X111948000Y-114754700I0J147500D01*
G01*
X111948000Y-114459700D01*
G75*
G02*
X112095500Y-114312200I147500J0D01*
G01*
G37*
G04 #@! TD*
G04 #@! TO.C,R14*
G36*
G01*
X127958000Y-112362000D02*
X127058000Y-112362000D01*
G75*
G02*
X126808000Y-112112000I0J250000D01*
G01*
X126808000Y-111462000D01*
G75*
G02*
X127058000Y-111212000I250000J0D01*
G01*
X127958000Y-111212000D01*
G75*
G02*
X128208000Y-111462000I0J-250000D01*
G01*
X128208000Y-112112000D01*
G75*
G02*
X127958000Y-112362000I-250000J0D01*
G01*
G37*
G36*
G01*
X127958000Y-110312000D02*
X127058000Y-110312000D01*
G75*
G02*
X126808000Y-110062000I0J250000D01*
G01*
X126808000Y-109412000D01*
G75*
G02*
X127058000Y-109162000I250000J0D01*
G01*
X127958000Y-109162000D01*
G75*
G02*
X128208000Y-109412000I0J-250000D01*
G01*
X128208000Y-110062000D01*
G75*
G02*
X127958000Y-110312000I-250000J0D01*
G01*
G37*
G04 #@! TD*
M02*
