G04 #@! TF.GenerationSoftware,KiCad,Pcbnew,5.99.0-unknown-308ab8caf~106~ubuntu18.04.1*
G04 #@! TF.CreationDate,2020-12-14T20:09:41-08:00*
G04 #@! TF.ProjectId,signal-board,7369676e-616c-42d6-926f-6172642e6b69,rev?*
G04 #@! TF.SameCoordinates,Original*
G04 #@! TF.FileFunction,Copper,L3,Inr*
G04 #@! TF.FilePolarity,Positive*
%FSLAX46Y46*%
G04 Gerber Fmt 4.6, Leading zero omitted, Abs format (unit mm)*
G04 Created by KiCad (PCBNEW 5.99.0-unknown-308ab8caf~106~ubuntu18.04.1) date 2020-12-14 20:09:41*
%MOMM*%
%LPD*%
G01*
G04 APERTURE LIST*
G04 #@! TA.AperFunction,Profile*
%ADD10C,0.100000*%
G04 #@! TD*
G04 #@! TA.AperFunction,Profile*
%ADD11C,0.120000*%
G04 #@! TD*
G04 #@! TA.AperFunction,ComponentPad*
%ADD12R,1.700000X1.700000*%
G04 #@! TD*
G04 #@! TA.AperFunction,ComponentPad*
%ADD13O,1.700000X1.700000*%
G04 #@! TD*
G04 #@! TA.AperFunction,ComponentPad*
%ADD14O,2.500000X5.000000*%
G04 #@! TD*
G04 #@! TA.AperFunction,ComponentPad*
%ADD15O,2.250000X4.500000*%
G04 #@! TD*
G04 #@! TA.AperFunction,ComponentPad*
%ADD16O,4.500000X2.250000*%
G04 #@! TD*
G04 #@! TA.AperFunction,ComponentPad*
%ADD17R,1.560000X1.560000*%
G04 #@! TD*
G04 #@! TA.AperFunction,ComponentPad*
%ADD18C,1.560000*%
G04 #@! TD*
G04 #@! TA.AperFunction,ComponentPad*
%ADD19R,1.800000X1.800000*%
G04 #@! TD*
G04 #@! TA.AperFunction,ComponentPad*
%ADD20C,1.800000*%
G04 #@! TD*
G04 #@! TA.AperFunction,ComponentPad*
%ADD21C,0.600000*%
G04 #@! TD*
G04 #@! TA.AperFunction,ViaPad*
%ADD22C,0.508000*%
G04 #@! TD*
G04 #@! TA.AperFunction,ViaPad*
%ADD23C,0.750000*%
G04 #@! TD*
G04 #@! TA.AperFunction,Conductor*
%ADD24C,0.254000*%
G04 #@! TD*
G04 APERTURE END LIST*
D10*
X170300000Y-141000000D02*
X170300000Y-98000000D01*
X170300000Y-141000000D02*
X97300000Y-141000000D01*
X97300000Y-135500000D02*
X97300000Y-141000000D01*
X104400000Y-133500000D02*
G75*
G02*
X102400000Y-135500000I-2000000J0D01*
G01*
X104400000Y-133500000D02*
X104400000Y-105500000D01*
X97300000Y-98000000D02*
X97300000Y-103500000D01*
D11*
X101175000Y-138500000D02*
G75*
G03*
X101175000Y-138500000I-1125000J0D01*
G01*
D10*
X102400000Y-103500000D02*
G75*
G02*
X104400000Y-105500000I0J-2000000D01*
G01*
D11*
X101175000Y-100500000D02*
G75*
G03*
X101175000Y-100500000I-1125000J0D01*
G01*
X97300000Y-98000000D02*
X170300000Y-98000000D01*
X168675000Y-138500000D02*
G75*
G03*
X168675000Y-138500000I-1125000J0D01*
G01*
D10*
X102400000Y-135500000D02*
X97300000Y-135500000D01*
D11*
X168675000Y-100500000D02*
G75*
G03*
X168675000Y-100500000I-1125000J0D01*
G01*
D10*
X102400000Y-103500000D02*
X97300000Y-103500000D01*
D12*
G04 #@! TO.N,+3V3*
G04 #@! TO.C,J4*
X109220000Y-137160000D03*
D13*
G04 #@! TO.N,/en*
X111760000Y-137160000D03*
G04 #@! TO.N,/sensor_vp*
X114300000Y-137160000D03*
G04 #@! TO.N,/sensor_vn*
X116840000Y-137160000D03*
G04 #@! TO.N,/io34*
X119380000Y-137160000D03*
G04 #@! TO.N,/io35*
X121920000Y-137160000D03*
G04 #@! TO.N,/io25*
X124460000Y-137160000D03*
G04 #@! TO.N,/uart_tx*
X127000000Y-137160000D03*
G04 #@! TO.N,/uart_rx*
X129540000Y-137160000D03*
G04 #@! TO.N,/vspi_mosi*
X132080000Y-137160000D03*
G04 #@! TO.N,/vspi_miso*
X134620000Y-137160000D03*
G04 #@! TO.N,/vspi_clk*
X137160000Y-137160000D03*
G04 #@! TO.N,/vspi_cs*
X139700000Y-137160000D03*
G04 #@! TO.N,GND*
X142240000Y-137160000D03*
G04 #@! TO.N,+5V*
X144780000Y-137160000D03*
G04 #@! TO.N,/3-12V_UNFUSED*
X147320000Y-137160000D03*
G04 #@! TD*
D14*
G04 #@! TO.N,/3-12V_UNFUSED*
G04 #@! TO.C,J1*
X159675000Y-108475000D03*
D15*
G04 #@! TO.N,GND*
X165675000Y-108475000D03*
D16*
X162675000Y-103775000D03*
G04 #@! TD*
D12*
G04 #@! TO.N,/i2c_scl*
G04 #@! TO.C,J2*
X114300000Y-101600000D03*
D13*
G04 #@! TO.N,/i2c_sda*
X116840000Y-101600000D03*
G04 #@! TO.N,GND*
X119380000Y-101600000D03*
G04 #@! TO.N,/pixels_8*
X121920000Y-101600000D03*
G04 #@! TO.N,/pixels_7*
X124460000Y-101600000D03*
G04 #@! TO.N,/pixels_6*
X127000000Y-101600000D03*
G04 #@! TO.N,/pixels_5*
X129540000Y-101600000D03*
G04 #@! TO.N,/pixels_4*
X132080000Y-101600000D03*
G04 #@! TO.N,/pixels_3*
X134620000Y-101600000D03*
G04 #@! TO.N,/pixels_2*
X137160000Y-101600000D03*
G04 #@! TO.N,/pixels_1*
X139700000Y-101600000D03*
G04 #@! TO.N,GND*
X142240000Y-101600000D03*
G04 #@! TD*
D17*
G04 #@! TO.N,+3V3*
G04 #@! TO.C,U2*
X105890000Y-132100000D03*
D18*
G04 #@! TO.N,/en*
X108430000Y-132100000D03*
G04 #@! TO.N,/sensor_vp*
X110970000Y-132100000D03*
G04 #@! TO.N,/sensor_vn*
X113510000Y-132100000D03*
G04 #@! TO.N,/io34*
X116050000Y-132100000D03*
G04 #@! TO.N,/io35*
X118590000Y-132100000D03*
G04 #@! TO.N,N/C*
X121130000Y-132100000D03*
X123670000Y-132100000D03*
G04 #@! TO.N,/io25*
X126210000Y-132100000D03*
G04 #@! TO.N,/level_shift_4*
X128750000Y-132100000D03*
G04 #@! TO.N,/level_shift_3*
X131290000Y-132100000D03*
G04 #@! TO.N,/status_led*
X133830000Y-132100000D03*
G04 #@! TO.N,/level_shift_2*
X136370000Y-132100000D03*
G04 #@! TO.N,GND*
X138910000Y-132100000D03*
G04 #@! TO.N,/level_shift_1*
X141450000Y-132100000D03*
G04 #@! TO.N,N/C*
X143990000Y-132100000D03*
X146530000Y-132100000D03*
X149070000Y-132100000D03*
G04 #@! TO.N,+5V*
X151610000Y-132100000D03*
G04 #@! TO.N,GND*
X105890000Y-106700000D03*
G04 #@! TO.N,/vspi_mosi*
X108430000Y-106700000D03*
G04 #@! TO.N,/i2c_scl*
X110970000Y-106700000D03*
G04 #@! TO.N,/uart_tx*
X113510000Y-106700000D03*
G04 #@! TO.N,/uart_rx*
X116050000Y-106700000D03*
G04 #@! TO.N,/i2c_sda*
X118590000Y-106700000D03*
G04 #@! TO.N,GND*
X121130000Y-106700000D03*
G04 #@! TO.N,/vspi_miso*
X123670000Y-106700000D03*
G04 #@! TO.N,/vspi_clk*
X126210000Y-106700000D03*
G04 #@! TO.N,/vspi_cs*
X128750000Y-106700000D03*
G04 #@! TO.N,/level_shift_8*
X131290000Y-106700000D03*
G04 #@! TO.N,/level_shift_7*
X133830000Y-106700000D03*
G04 #@! TO.N,/level_shift_6*
X136370000Y-106700000D03*
G04 #@! TO.N,/button_2*
X138910000Y-106700000D03*
G04 #@! TO.N,/level_shift_5*
X141450000Y-106700000D03*
G04 #@! TO.N,/button_1*
X143990000Y-106700000D03*
G04 #@! TO.N,N/C*
X146530000Y-106700000D03*
X149070000Y-106700000D03*
X151610000Y-106700000D03*
G04 #@! TD*
D19*
G04 #@! TO.N,Net-(D2-Pad1)*
G04 #@! TO.C,D2*
X112268000Y-110998000D03*
D20*
G04 #@! TO.N,/status_led*
X114808000Y-110998000D03*
G04 #@! TD*
D19*
G04 #@! TO.N,Net-(D1-Pad1)*
G04 #@! TO.C,D1*
X108458000Y-110998000D03*
D20*
G04 #@! TO.N,+3V3*
X105918000Y-110998000D03*
G04 #@! TD*
D12*
G04 #@! TO.N,GND*
G04 #@! TO.C,J5*
X106680000Y-124460000D03*
D13*
G04 #@! TO.N,Net-(J5-Pad2)*
X106680000Y-127000000D03*
G04 #@! TD*
D21*
G04 #@! TO.N,GND*
G04 #@! TO.C,U1*
X147917100Y-112320600D03*
X147417100Y-112820600D03*
X148417100Y-112820600D03*
X148417100Y-111820600D03*
X147417100Y-111820600D03*
G04 #@! TD*
D12*
G04 #@! TO.N,GND*
G04 #@! TO.C,J6*
X106680000Y-119380000D03*
D13*
G04 #@! TO.N,Net-(J6-Pad2)*
X106680000Y-121920000D03*
G04 #@! TD*
D22*
G04 #@! TO.N,GND*
X155273000Y-126644400D03*
X140579600Y-116586000D03*
X161544000Y-136192000D03*
X109829600Y-120675400D03*
X166973000Y-114792000D03*
X166973000Y-115792000D03*
X142579600Y-116586000D03*
X144602200Y-100415600D03*
X166973000Y-116792000D03*
X142579600Y-118586000D03*
X144602200Y-104415600D03*
X141579600Y-117586000D03*
X152400000Y-120802400D03*
X163544000Y-137192000D03*
X156921200Y-119075200D03*
X167973000Y-116792000D03*
X141579600Y-119586000D03*
X141579600Y-116586000D03*
X162544000Y-139192000D03*
X152273000Y-126644400D03*
X145602200Y-104415600D03*
X117348000Y-124155200D03*
X145602200Y-103415600D03*
X156244800Y-110845600D03*
X165973000Y-118792000D03*
X164973000Y-119792000D03*
X144602200Y-102415600D03*
X141579600Y-120586000D03*
X145602200Y-101415600D03*
X164544000Y-139192000D03*
X165973000Y-114792000D03*
X140579600Y-119586000D03*
X155244800Y-112845600D03*
X113588800Y-114147600D03*
X164544000Y-136192000D03*
X164973000Y-117792000D03*
X119380000Y-119253000D03*
X166973000Y-117792000D03*
X106654600Y-128727200D03*
X163544000Y-136192000D03*
X167973000Y-113792000D03*
X139801600Y-108483400D03*
X145602200Y-99415600D03*
X165544000Y-139192000D03*
X156895800Y-118033800D03*
X144627600Y-108483400D03*
X166973000Y-113792000D03*
X164973000Y-118792000D03*
X142579600Y-121586000D03*
X164544000Y-137192000D03*
X113969800Y-125958600D03*
X155273000Y-127644400D03*
X109829600Y-125857000D03*
X167973000Y-114792000D03*
X164544000Y-138192000D03*
X156244800Y-112845600D03*
X163544000Y-139192000D03*
X162544000Y-138192000D03*
X166973000Y-119792000D03*
X161544000Y-134874000D03*
X144602200Y-99415600D03*
X122656600Y-123367800D03*
X141579600Y-121586000D03*
X165973000Y-113792000D03*
X145719800Y-130378200D03*
X145602200Y-100415600D03*
X140579600Y-118586000D03*
X141579600Y-122586000D03*
X164973000Y-115792000D03*
X152273000Y-127644400D03*
X144602200Y-103415600D03*
X154273000Y-126644400D03*
X165973000Y-119792000D03*
X144602200Y-101415600D03*
X165973000Y-116792000D03*
X165973000Y-117792000D03*
X167973000Y-117792000D03*
X120523000Y-129641600D03*
X142579600Y-117586000D03*
X161544000Y-137192000D03*
X162544000Y-136192000D03*
X167544000Y-136192000D03*
X167973000Y-118792000D03*
X164973000Y-116792000D03*
X150774400Y-119481600D03*
X166544000Y-136192000D03*
X142579600Y-119586000D03*
X155244800Y-110845600D03*
X165544000Y-138192000D03*
X142579600Y-120586000D03*
X140579600Y-117586000D03*
X116052600Y-114249200D03*
X115189000Y-117602000D03*
X164973000Y-113792000D03*
X166973000Y-118792000D03*
X140579600Y-121586000D03*
X107162600Y-114071400D03*
X106730800Y-117576600D03*
X154273000Y-127644400D03*
X153273000Y-126644400D03*
X153273000Y-127644400D03*
X142579600Y-122586000D03*
X153339800Y-130276600D03*
X113919000Y-120599200D03*
X135280400Y-119938800D03*
X165973000Y-115792000D03*
X155244800Y-111845600D03*
X162544000Y-137192000D03*
X154244800Y-112845600D03*
X119253000Y-118059200D03*
X140579600Y-120586000D03*
X145602200Y-102415600D03*
X156244800Y-111845600D03*
X138150600Y-123164600D03*
X161544000Y-138192000D03*
X167973000Y-115792000D03*
X125349000Y-127381000D03*
X165544000Y-136192000D03*
X163544000Y-138192000D03*
X164973000Y-114792000D03*
X167973000Y-119792000D03*
X165544000Y-137192000D03*
X151333200Y-122605800D03*
X141579600Y-118586000D03*
D23*
X105850000Y-137100000D03*
D22*
X119253000Y-125476000D03*
G04 #@! TO.N,+3V3*
X121398000Y-125531000D03*
X121384200Y-120165000D03*
G04 #@! TO.N,/button_2*
X126365000Y-120142000D03*
G04 #@! TO.N,/button_1*
X127635000Y-120650000D03*
G04 #@! TO.N,/pixels_2*
X158825000Y-132125000D03*
X135051800Y-108280200D03*
G04 #@! TO.N,/pixels_1*
X158725000Y-129625000D03*
X137668000Y-108712000D03*
G04 #@! TO.N,/level_shift_5*
X130175000Y-123698000D03*
G04 #@! TO.N,/level_shift_6*
X128905000Y-122809000D03*
G04 #@! TO.N,/level_shift_7*
X127635000Y-122047000D03*
G04 #@! TO.N,/level_shift_8*
X126365000Y-123063000D03*
G04 #@! TO.N,Net-(C3-Pad1)*
X151460200Y-117297200D03*
X150672800Y-114096800D03*
G04 #@! TO.N,Net-(C16-Pad1)*
X157149800Y-101473000D03*
X152781000Y-102489000D03*
G04 #@! TO.N,/TPS_FEEDBACK*
X148365666Y-115311734D03*
X150317200Y-123723400D03*
G04 #@! TO.N,/5V_Out_PG*
X150063200Y-121488200D03*
X155800200Y-113662600D03*
X152857200Y-118008400D03*
X150063200Y-110642400D03*
G04 #@! TO.N,/3-12V_UNFUSED*
X158417000Y-111664000D03*
X157962600Y-107714800D03*
X157962600Y-109714800D03*
X161417000Y-105714800D03*
X161417000Y-106664000D03*
X160197800Y-116130200D03*
X157962600Y-106714800D03*
X159417000Y-111664000D03*
X160197800Y-119880200D03*
X160197800Y-116880200D03*
X160197800Y-118380200D03*
X161417000Y-107664000D03*
X157962600Y-105714800D03*
X160417000Y-111664000D03*
X161417000Y-110664000D03*
X161417000Y-108664000D03*
X160197800Y-119130200D03*
X160197800Y-115380200D03*
X161417000Y-111664000D03*
X160197800Y-117630200D03*
X161417000Y-109664000D03*
X157962600Y-108714800D03*
X160197800Y-114630200D03*
X157962600Y-110714800D03*
G04 #@! TO.N,Net-(C15-Pad1)*
X156514800Y-107772200D03*
X152781000Y-103479600D03*
G04 #@! TO.N,VCC*
X149428200Y-114884200D03*
X146558000Y-115112800D03*
G04 #@! TD*
D24*
G04 #@! TO.N,/pixels_2*
X156575000Y-132125000D02*
X158825000Y-132125000D01*
X153797000Y-129565400D02*
X154015400Y-129565400D01*
X137922000Y-111150400D02*
X135051800Y-108280200D01*
X139801600Y-123825000D02*
X137922000Y-121945400D01*
X145542000Y-129565400D02*
X153797000Y-129565400D01*
X139801600Y-123825000D02*
X145542000Y-129565400D01*
X137922000Y-121945400D02*
X137922000Y-111150400D01*
X154015400Y-129565400D02*
X156575000Y-132125000D01*
G04 #@! TO.N,/pixels_1*
X141579600Y-123647200D02*
X146329400Y-128397000D01*
X138760200Y-109804200D02*
X137668000Y-108712000D01*
X138760200Y-120827800D02*
X138760200Y-109804200D01*
X146329400Y-128397000D02*
X157497000Y-128397000D01*
X157497000Y-128397000D02*
X158725000Y-129625000D01*
X141579600Y-123647200D02*
X138760200Y-120827800D01*
G04 #@! TO.N,/vspi_cs*
X128750000Y-106700000D02*
X127000000Y-108450000D01*
X126492000Y-113792000D02*
X140208000Y-127508000D01*
X127000000Y-108450000D02*
X127000000Y-108458000D01*
X140208000Y-132207000D02*
X140208000Y-136652000D01*
X127000000Y-108458000D02*
X126492000Y-108966000D01*
X126492000Y-108966000D02*
X126492000Y-113792000D01*
X140208000Y-127508000D02*
X140208000Y-132207000D01*
X140208000Y-136652000D02*
X139700000Y-137160000D01*
G04 #@! TO.N,/vspi_clk*
X137531001Y-127117001D02*
X137531001Y-136788999D01*
X126210000Y-106700000D02*
X124079000Y-108831000D01*
X124079000Y-113538000D02*
X124079000Y-113665000D01*
X124079000Y-108831000D02*
X124079000Y-113538000D01*
X137531001Y-136788999D02*
X137160000Y-137160000D01*
X124079000Y-113665000D02*
X137531001Y-127117001D01*
G04 #@! TO.N,/vspi_miso*
X133350000Y-125222000D02*
X133350000Y-129540000D01*
X133350000Y-129540000D02*
X132668999Y-130221001D01*
X132668999Y-130221001D02*
X132668999Y-135208999D01*
X132668999Y-135208999D02*
X134620000Y-137160000D01*
X123670000Y-106700000D02*
X121912000Y-108458000D01*
X130810001Y-122682001D02*
X133350000Y-125222000D01*
X121912000Y-108458000D02*
X121912000Y-113784000D01*
X121912000Y-113784000D02*
X130810001Y-122682001D01*
G04 #@! TO.N,/uart_rx*
X127508000Y-134239000D02*
X129540000Y-136271000D01*
X123825000Y-120777000D02*
X123825000Y-127127000D01*
X129540000Y-136271000D02*
X129540000Y-137160000D01*
X117094000Y-109220000D02*
X117094000Y-114046000D01*
X116050000Y-108176000D02*
X117094000Y-109220000D01*
X123825000Y-127127000D02*
X127508000Y-130810000D01*
X127508000Y-130810000D02*
X127508000Y-134239000D01*
X116050000Y-106700000D02*
X116050000Y-108176000D01*
X117094000Y-114046000D02*
X123825000Y-120777000D01*
G04 #@! TO.N,/uart_tx*
X127000000Y-136271000D02*
X127000000Y-137160000D01*
X124206000Y-130302000D02*
X124968000Y-131064000D01*
X110490000Y-115189000D02*
X120269000Y-124968000D01*
X111498000Y-108712000D02*
X111125000Y-108712000D01*
X111125000Y-108712000D02*
X110490000Y-109347000D01*
X113510000Y-106700000D02*
X111498000Y-108712000D01*
X120269000Y-124968000D02*
X120269000Y-127381000D01*
X124968000Y-134239000D02*
X127000000Y-136271000D01*
X124968000Y-131064000D02*
X124968000Y-134239000D01*
X110490000Y-109347000D02*
X110490000Y-115189000D01*
X120269000Y-127381000D02*
X123190000Y-130302000D01*
X123190000Y-130302000D02*
X124206000Y-130302000D01*
G04 #@! TO.N,/vspi_mosi*
X125349000Y-120523000D02*
X118237000Y-113411000D01*
X110863000Y-104267000D02*
X108430000Y-106700000D01*
X132080000Y-137160000D02*
X132080000Y-136525000D01*
X132080000Y-136525000D02*
X130048000Y-134493000D01*
X117211001Y-105273001D02*
X116205000Y-104267000D01*
X116205000Y-104267000D02*
X110863000Y-104267000D01*
X130048000Y-128778000D02*
X125349000Y-124079000D01*
X118237000Y-108458000D02*
X117211001Y-107432001D01*
X125349000Y-124079000D02*
X125349000Y-120523000D01*
X130048000Y-134493000D02*
X130048000Y-128778000D01*
X118237000Y-113411000D02*
X118237000Y-108458000D01*
X117211001Y-107432001D02*
X117211001Y-105273001D01*
G04 #@! TD*
M02*
