G04 #@! TF.GenerationSoftware,KiCad,Pcbnew,5.99.0-unknown-308ab8caf~106~ubuntu18.04.1*
G04 #@! TF.CreationDate,2020-12-14T20:09:44-08:00*
G04 #@! TF.ProjectId,signal-board,7369676e-616c-42d6-926f-6172642e6b69,rev?*
G04 #@! TF.SameCoordinates,Original*
G04 #@! TF.FileFunction,Soldermask,Bot*
G04 #@! TF.FilePolarity,Negative*
%FSLAX46Y46*%
G04 Gerber Fmt 4.6, Leading zero omitted, Abs format (unit mm)*
G04 Created by KiCad (PCBNEW 5.99.0-unknown-308ab8caf~106~ubuntu18.04.1) date 2020-12-14 20:09:44*
%MOMM*%
%LPD*%
G01*
G04 APERTURE LIST*
G04 Aperture macros list*
%AMRoundRect*
0 Rectangle with rounded corners*
0 $1 Rounding radius*
0 $2 $3 $4 $5 $6 $7 $8 $9 X,Y pos of 4 corners*
0 Add a 4 corners polygon primitive as box body*
4,1,4,$2,$3,$4,$5,$6,$7,$8,$9,$2,$3,0*
0 Add four circle primitives for the rounded corners*
1,1,$1+$1,$2,$3,0*
1,1,$1+$1,$4,$5,0*
1,1,$1+$1,$6,$7,0*
1,1,$1+$1,$8,$9,0*
0 Add four rect primitives between the rounded corners*
20,1,$1+$1,$2,$3,$4,$5,0*
20,1,$1+$1,$4,$5,$6,$7,0*
20,1,$1+$1,$6,$7,$8,$9,0*
20,1,$1+$1,$8,$9,$2,$3,0*%
G04 Aperture macros list end*
G04 #@! TA.AperFunction,Profile*
%ADD10C,0.100000*%
G04 #@! TD*
G04 #@! TA.AperFunction,Profile*
%ADD11C,0.120000*%
G04 #@! TD*
%ADD12RoundRect,0.050800X0.850000X-0.850000X0.850000X0.850000X-0.850000X0.850000X-0.850000X-0.850000X0*%
%ADD13O,1.801600X1.801600*%
%ADD14O,2.601600X5.101600*%
%ADD15O,2.351600X4.601600*%
%ADD16O,4.601600X2.351600*%
%ADD17RoundRect,0.050800X0.780000X-0.780000X0.780000X0.780000X-0.780000X0.780000X-0.780000X-0.780000X0*%
%ADD18C,1.661600*%
%ADD19RoundRect,0.172900X-0.197900X0.172900X-0.197900X-0.172900X0.197900X-0.172900X0.197900X0.172900X0*%
%ADD20RoundRect,0.172900X-0.172900X-0.197900X0.172900X-0.197900X0.172900X0.197900X-0.172900X0.197900X0*%
%ADD21C,1.101600*%
%ADD22RoundRect,0.050800X-0.900000X-0.900000X0.900000X-0.900000X0.900000X0.900000X-0.900000X0.900000X0*%
%ADD23C,1.901600*%
%ADD24RoundRect,0.272087X0.478713X-0.353713X0.478713X0.353713X-0.478713X0.353713X-0.478713X-0.353713X0*%
%ADD25RoundRect,0.272087X-0.478713X0.353713X-0.478713X-0.353713X0.478713X-0.353713X0.478713X0.353713X0*%
%ADD26RoundRect,0.272087X0.353713X0.478713X-0.353713X0.478713X-0.353713X-0.478713X0.353713X-0.478713X0*%
%ADD27RoundRect,0.272087X-0.353713X-0.478713X0.353713X-0.478713X0.353713X0.478713X-0.353713X0.478713X0*%
%ADD28RoundRect,0.050800X0.775000X0.500000X-0.775000X0.500000X-0.775000X-0.500000X0.775000X-0.500000X0*%
%ADD29RoundRect,0.172900X0.197900X-0.172900X0.197900X0.172900X-0.197900X0.172900X-0.197900X-0.172900X0*%
%ADD30RoundRect,0.050800X0.900000X0.900000X-0.900000X0.900000X-0.900000X-0.900000X0.900000X-0.900000X0*%
%ADD31RoundRect,0.270320X0.655480X-0.405480X0.655480X0.405480X-0.655480X0.405480X-0.655480X-0.405480X0*%
%ADD32RoundRect,0.172900X0.172900X0.197900X-0.172900X0.197900X-0.172900X-0.197900X0.172900X-0.197900X0*%
%ADD33RoundRect,0.050800X-0.325000X0.780000X-0.325000X-0.780000X0.325000X-0.780000X0.325000X0.780000X0*%
%ADD34RoundRect,0.244150X-0.244150X-0.281650X0.244150X-0.281650X0.244150X0.281650X-0.244150X0.281650X0*%
%ADD35RoundRect,0.050800X-1.950000X1.100000X-1.950000X-1.100000X1.950000X-1.100000X1.950000X1.100000X0*%
%ADD36RoundRect,0.050800X0.750000X0.200000X-0.750000X0.200000X-0.750000X-0.200000X0.750000X-0.200000X0*%
%ADD37RoundRect,0.050800X0.850000X0.850000X-0.850000X0.850000X-0.850000X-0.850000X0.850000X-0.850000X0*%
%ADD38RoundRect,0.070000X-0.140000X0.140000X-0.140000X-0.140000X0.140000X-0.140000X0.140000X0.140000X0*%
%ADD39O,0.420000X0.990000*%
%ADD40RoundRect,0.050800X-0.350000X0.125000X-0.350000X-0.125000X0.350000X-0.125000X0.350000X0.125000X0*%
%ADD41RoundRect,0.050800X-0.300000X0.115000X-0.300000X-0.115000X0.300000X-0.115000X0.300000X0.115000X0*%
%ADD42RoundRect,0.050800X-0.450000X0.325000X-0.450000X-0.325000X0.450000X-0.325000X0.450000X0.325000X0*%
%ADD43C,0.701600*%
%ADD44RoundRect,0.050800X-1.075000X0.850000X-1.075000X-0.850000X1.075000X-0.850000X1.075000X0.850000X0*%
%ADD45RoundRect,0.175400X0.175400X-0.900400X0.175400X0.900400X-0.175400X0.900400X-0.175400X-0.900400X0*%
G04 APERTURE END LIST*
D10*
X170300000Y-141000000D02*
X170300000Y-98000000D01*
X170300000Y-141000000D02*
X97300000Y-141000000D01*
X97300000Y-135500000D02*
X97300000Y-141000000D01*
X104400000Y-133500000D02*
G75*
G02*
X102400000Y-135500000I-2000000J0D01*
G01*
X104400000Y-133500000D02*
X104400000Y-105500000D01*
X97300000Y-98000000D02*
X97300000Y-103500000D01*
D11*
X101175000Y-138500000D02*
G75*
G03*
X101175000Y-138500000I-1125000J0D01*
G01*
D10*
X102400000Y-103500000D02*
G75*
G02*
X104400000Y-105500000I0J-2000000D01*
G01*
D11*
X101175000Y-100500000D02*
G75*
G03*
X101175000Y-100500000I-1125000J0D01*
G01*
X97300000Y-98000000D02*
X170300000Y-98000000D01*
X168675000Y-138500000D02*
G75*
G03*
X168675000Y-138500000I-1125000J0D01*
G01*
D10*
X102400000Y-135500000D02*
X97300000Y-135500000D01*
D11*
X168675000Y-100500000D02*
G75*
G03*
X168675000Y-100500000I-1125000J0D01*
G01*
D10*
X102400000Y-103500000D02*
X97300000Y-103500000D01*
X170300000Y-141000000D02*
X170300000Y-98000000D01*
X170300000Y-141000000D02*
X97300000Y-141000000D01*
X97300000Y-135500000D02*
X97300000Y-141000000D01*
X104400000Y-133500000D02*
G75*
G02*
X102400000Y-135500000I-2000000J0D01*
G01*
X104400000Y-133500000D02*
X104400000Y-105500000D01*
X97300000Y-98000000D02*
X97300000Y-103500000D01*
D11*
X101175000Y-138500000D02*
G75*
G03*
X101175000Y-138500000I-1125000J0D01*
G01*
D10*
X102400000Y-103500000D02*
G75*
G02*
X104400000Y-105500000I0J-2000000D01*
G01*
D11*
X101175000Y-100500000D02*
G75*
G03*
X101175000Y-100500000I-1125000J0D01*
G01*
X97300000Y-98000000D02*
X170300000Y-98000000D01*
X168675000Y-138500000D02*
G75*
G03*
X168675000Y-138500000I-1125000J0D01*
G01*
D10*
X102400000Y-135500000D02*
X97300000Y-135500000D01*
D11*
X168675000Y-100500000D02*
G75*
G03*
X168675000Y-100500000I-1125000J0D01*
G01*
D10*
X102400000Y-103500000D02*
X97300000Y-103500000D01*
D12*
G04 #@! TO.C,J4*
X109220000Y-137160000D03*
D13*
X111760000Y-137160000D03*
X114300000Y-137160000D03*
X116840000Y-137160000D03*
X119380000Y-137160000D03*
X121920000Y-137160000D03*
X124460000Y-137160000D03*
X127000000Y-137160000D03*
X129540000Y-137160000D03*
X132080000Y-137160000D03*
X134620000Y-137160000D03*
X137160000Y-137160000D03*
X139700000Y-137160000D03*
X142240000Y-137160000D03*
X144780000Y-137160000D03*
X147320000Y-137160000D03*
G04 #@! TD*
D14*
G04 #@! TO.C,J1*
X159675000Y-108475000D03*
D15*
X165675000Y-108475000D03*
D16*
X162675000Y-103775000D03*
G04 #@! TD*
D12*
G04 #@! TO.C,J2*
X114300000Y-101600000D03*
D13*
X116840000Y-101600000D03*
X119380000Y-101600000D03*
X121920000Y-101600000D03*
X124460000Y-101600000D03*
X127000000Y-101600000D03*
X129540000Y-101600000D03*
X132080000Y-101600000D03*
X134620000Y-101600000D03*
X137160000Y-101600000D03*
X139700000Y-101600000D03*
X142240000Y-101600000D03*
G04 #@! TD*
D17*
G04 #@! TO.C,U2*
X105890000Y-132100000D03*
D18*
X108430000Y-132100000D03*
X110970000Y-132100000D03*
X113510000Y-132100000D03*
X116050000Y-132100000D03*
X118590000Y-132100000D03*
X121130000Y-132100000D03*
X123670000Y-132100000D03*
X126210000Y-132100000D03*
X128750000Y-132100000D03*
X131290000Y-132100000D03*
X133830000Y-132100000D03*
X136370000Y-132100000D03*
X138910000Y-132100000D03*
X141450000Y-132100000D03*
X143990000Y-132100000D03*
X146530000Y-132100000D03*
X149070000Y-132100000D03*
X151610000Y-132100000D03*
X105890000Y-106700000D03*
X108430000Y-106700000D03*
X110970000Y-106700000D03*
X113510000Y-106700000D03*
X116050000Y-106700000D03*
X118590000Y-106700000D03*
X121130000Y-106700000D03*
X123670000Y-106700000D03*
X126210000Y-106700000D03*
X128750000Y-106700000D03*
X131290000Y-106700000D03*
X133830000Y-106700000D03*
X136370000Y-106700000D03*
X138910000Y-106700000D03*
X141450000Y-106700000D03*
X143990000Y-106700000D03*
X146530000Y-106700000D03*
X149070000Y-106700000D03*
X151610000Y-106700000D03*
G04 #@! TD*
D19*
G04 #@! TO.C,R4*
X117856000Y-125490000D03*
X117856000Y-126460000D03*
G04 #@! TD*
D20*
G04 #@! TO.C,R2*
X148365666Y-117248220D03*
X149335666Y-117248220D03*
G04 #@! TD*
D21*
G04 #@! TO.C,TP_GND7*
X161150000Y-139900000D03*
G04 #@! TD*
G04 #@! TO.C,TP_GND4*
X104444800Y-100584000D03*
G04 #@! TD*
D22*
G04 #@! TO.C,D2*
X112268000Y-110998000D03*
D23*
X114808000Y-110998000D03*
G04 #@! TD*
D21*
G04 #@! TO.C,TP5*
X154330400Y-120319800D03*
G04 #@! TD*
D24*
G04 #@! TO.C,R12*
X132080000Y-111787000D03*
X132080000Y-109737000D03*
G04 #@! TD*
D25*
G04 #@! TO.C,C1*
X153644600Y-109109400D03*
X153644600Y-111159400D03*
G04 #@! TD*
D26*
G04 #@! TO.C,C6*
X146897200Y-119202200D03*
X144847200Y-119202200D03*
G04 #@! TD*
D19*
G04 #@! TO.C,R8*
X108407200Y-113611800D03*
X108407200Y-114581800D03*
G04 #@! TD*
D24*
G04 #@! TO.C,R10*
X136652000Y-111787000D03*
X136652000Y-109737000D03*
G04 #@! TD*
D21*
G04 #@! TO.C,TP_GND3*
X163728400Y-100304600D03*
G04 #@! TD*
G04 #@! TO.C,TP1*
X139827000Y-110540800D03*
G04 #@! TD*
D25*
G04 #@! TO.C,C2*
X151511000Y-109137800D03*
X151511000Y-111187800D03*
G04 #@! TD*
D21*
G04 #@! TO.C,TP2*
X153200000Y-124536200D03*
G04 #@! TD*
D19*
G04 #@! TO.C,R19*
X156387800Y-100530800D03*
X156387800Y-101500800D03*
G04 #@! TD*
D27*
G04 #@! TO.C,C13*
X161357200Y-119176800D03*
X163407200Y-119176800D03*
G04 #@! TD*
D24*
G04 #@! TO.C,C17*
X151873800Y-101278800D03*
X151873800Y-99228800D03*
G04 #@! TD*
D19*
G04 #@! TO.C,R7*
X122428000Y-120165000D03*
X122428000Y-121135000D03*
G04 #@! TD*
G04 #@! TO.C,R6*
X117856000Y-120156000D03*
X117856000Y-121126000D03*
G04 #@! TD*
D28*
G04 #@! TO.C,SW1*
X115147000Y-124308000D03*
X109897000Y-124308000D03*
X115147000Y-127508000D03*
X109897000Y-127508000D03*
G04 #@! TD*
D29*
G04 #@! TO.C,R24*
X156921200Y-116766200D03*
X156921200Y-115796200D03*
G04 #@! TD*
D26*
G04 #@! TO.C,C5*
X146897200Y-121259600D03*
X144847200Y-121259600D03*
G04 #@! TD*
D24*
G04 #@! TO.C,R16*
X122936000Y-111778000D03*
X122936000Y-109728000D03*
G04 #@! TD*
D30*
G04 #@! TO.C,D1*
X108458000Y-110998000D03*
D23*
X105918000Y-110998000D03*
G04 #@! TD*
D21*
G04 #@! TO.C,TP8*
X150317200Y-124612400D03*
G04 #@! TD*
D26*
G04 #@! TO.C,C15*
X151393000Y-103479600D03*
X149343000Y-103479600D03*
G04 #@! TD*
D31*
G04 #@! TO.C,F1*
X158750000Y-102085600D03*
X158750000Y-99285600D03*
G04 #@! TD*
D29*
G04 #@! TO.C,C9*
X120142000Y-121126000D03*
X120142000Y-120156000D03*
G04 #@! TD*
D32*
G04 #@! TO.C,R20*
X149335666Y-119639460D03*
X148365666Y-119639460D03*
G04 #@! TD*
D33*
G04 #@! TO.C,U3*
X146065200Y-124405400D03*
X147015200Y-124405400D03*
X147965200Y-124405400D03*
X147965200Y-127105400D03*
X147015200Y-127105400D03*
X146065200Y-127105400D03*
G04 #@! TD*
D29*
G04 #@! TO.C,C8*
X120142000Y-126469000D03*
X120142000Y-125499000D03*
G04 #@! TD*
D26*
G04 #@! TO.C,C7*
X146897200Y-117144800D03*
X144847200Y-117144800D03*
G04 #@! TD*
D24*
G04 #@! TO.C,C14*
X154279600Y-101278800D03*
X154279600Y-99228800D03*
G04 #@! TD*
D21*
G04 #@! TO.C,TP2-3*
X147345400Y-108737400D03*
G04 #@! TD*
D24*
G04 #@! TO.C,R15*
X125222000Y-111787000D03*
X125222000Y-109737000D03*
G04 #@! TD*
D34*
G04 #@! TO.C,D4*
X159862500Y-129625000D03*
X161437500Y-129625000D03*
G04 #@! TD*
D19*
G04 #@! TO.C,R5*
X122428000Y-125490000D03*
X122428000Y-126460000D03*
G04 #@! TD*
D28*
G04 #@! TO.C,SW2*
X115147000Y-119050000D03*
X109897000Y-119050000D03*
X115147000Y-122250000D03*
X109897000Y-122250000D03*
G04 #@! TD*
D21*
G04 #@! TO.C,TP10*
X139954000Y-114427000D03*
G04 #@! TD*
G04 #@! TO.C,TP11*
X150368000Y-127101600D03*
G04 #@! TD*
D24*
G04 #@! TO.C,C10*
X139065000Y-127771000D03*
X139065000Y-125721000D03*
G04 #@! TD*
D21*
G04 #@! TO.C,5V_SW1*
X145872200Y-129336800D03*
G04 #@! TD*
D19*
G04 #@! TO.C,R22*
X143840200Y-126362600D03*
X143840200Y-127332600D03*
G04 #@! TD*
D20*
G04 #@! TO.C,C3*
X150975200Y-112826800D03*
X151945200Y-112826800D03*
G04 #@! TD*
D24*
G04 #@! TO.C,R13*
X129794000Y-111787000D03*
X129794000Y-109737000D03*
G04 #@! TD*
D35*
G04 #@! TO.C,L1*
X143267100Y-110670600D03*
X143267100Y-114470600D03*
G04 #@! TD*
D27*
G04 #@! TO.C,C11*
X161357200Y-115112800D03*
X163407200Y-115112800D03*
G04 #@! TD*
D21*
G04 #@! TO.C,TP_GND5*
X104673400Y-138607800D03*
G04 #@! TD*
D24*
G04 #@! TO.C,R17*
X120650000Y-111769000D03*
X120650000Y-109719000D03*
G04 #@! TD*
D21*
G04 #@! TO.C,TP4*
X154330400Y-117932200D03*
G04 #@! TD*
D36*
G04 #@! TO.C,U5*
X154898400Y-114564400D03*
X154898400Y-115214400D03*
X154898400Y-115864400D03*
X152238400Y-115864400D03*
X152238400Y-114564400D03*
G04 #@! TD*
D29*
G04 #@! TO.C,R18*
X155346400Y-109730400D03*
X155346400Y-108760400D03*
G04 #@! TD*
D20*
G04 #@! TO.C,R3*
X148365666Y-122030700D03*
X149335666Y-122030700D03*
G04 #@! TD*
D21*
G04 #@! TO.C,TP9*
X143662400Y-124358400D03*
G04 #@! TD*
D20*
G04 #@! TO.C,R1*
X148365666Y-118443840D03*
X149335666Y-118443840D03*
G04 #@! TD*
D27*
G04 #@! TO.C,C12*
X161357200Y-117144800D03*
X163407200Y-117144800D03*
G04 #@! TD*
D20*
G04 #@! TO.C,R21*
X148365666Y-120835080D03*
X149335666Y-120835080D03*
G04 #@! TD*
D21*
G04 #@! TO.C,TP3*
X146964400Y-101219000D03*
G04 #@! TD*
D33*
G04 #@! TO.C,U4*
X154599600Y-103552000D03*
X155549600Y-103552000D03*
X156499600Y-103552000D03*
X156499600Y-106252000D03*
X155549600Y-106252000D03*
X154599600Y-106252000D03*
G04 #@! TD*
D21*
G04 #@! TO.C,TP6*
X154305000Y-122783600D03*
G04 #@! TD*
D34*
G04 #@! TO.C,D3*
X159862500Y-132100212D03*
X161437500Y-132100212D03*
G04 #@! TD*
D37*
G04 #@! TO.C,J5*
X106680000Y-124460000D03*
D13*
X106680000Y-127000000D03*
G04 #@! TD*
D38*
G04 #@! TO.C,U1*
X146917100Y-110560600D03*
D39*
X146917100Y-110845600D03*
X147417100Y-110845600D03*
D38*
X147417100Y-110560600D03*
D39*
X147917100Y-110845600D03*
D38*
X147917100Y-110560600D03*
X148417100Y-110560600D03*
D39*
X148417100Y-110845600D03*
X148917100Y-110845600D03*
D38*
X148917100Y-110560600D03*
X148917100Y-114080600D03*
D39*
X148917100Y-113795600D03*
X148417100Y-113795600D03*
D38*
X148417100Y-114080600D03*
X147917100Y-114080600D03*
D39*
X147917100Y-113795600D03*
D38*
X147417100Y-114080600D03*
D39*
X147417100Y-113795600D03*
D38*
X146917100Y-114080600D03*
D39*
X146917100Y-113795600D03*
D40*
X149342100Y-112520600D03*
D41*
X149342100Y-111720600D03*
D42*
X148477100Y-112755600D03*
X148477100Y-111885600D03*
X147357100Y-111885600D03*
D43*
X147917100Y-112320600D03*
D41*
X146492100Y-112920600D03*
X146492100Y-111720600D03*
X149342100Y-112120600D03*
D40*
X146492100Y-112120600D03*
X149342100Y-112920600D03*
X146492100Y-112520600D03*
D43*
X147417100Y-112820600D03*
D40*
X146492100Y-112920600D03*
X149342100Y-112120600D03*
D41*
X146492100Y-112120600D03*
D40*
X149342100Y-111720600D03*
D43*
X148417100Y-112820600D03*
D40*
X146492100Y-111720600D03*
D42*
X147357100Y-112755600D03*
D43*
X148417100Y-111820600D03*
D41*
X149342100Y-112520600D03*
D44*
X147917100Y-112320600D03*
D41*
X149342100Y-112920600D03*
X146492100Y-112520600D03*
D43*
X147417100Y-111820600D03*
G04 #@! TD*
D20*
G04 #@! TO.C,C4*
X148365666Y-116052600D03*
X149335666Y-116052600D03*
G04 #@! TD*
D19*
G04 #@! TO.C,R23*
X156921200Y-113662600D03*
X156921200Y-114632600D03*
G04 #@! TD*
D24*
G04 #@! TO.C,C16*
X149468000Y-101278800D03*
X149468000Y-99228800D03*
G04 #@! TD*
D45*
G04 #@! TO.C,IC1*
X136525000Y-125730000D03*
X135255000Y-125730000D03*
X133985000Y-125730000D03*
X132715000Y-125730000D03*
X131445000Y-125730000D03*
X130175000Y-125730000D03*
X128905000Y-125730000D03*
X127635000Y-125730000D03*
X126365000Y-125730000D03*
X125095000Y-125730000D03*
X125095000Y-118110000D03*
X126365000Y-118110000D03*
X127635000Y-118110000D03*
X128905000Y-118110000D03*
X130175000Y-118110000D03*
X131445000Y-118110000D03*
X132715000Y-118110000D03*
X133985000Y-118110000D03*
X135255000Y-118110000D03*
X136525000Y-118110000D03*
G04 #@! TD*
D24*
G04 #@! TO.C,R11*
X134366000Y-111769000D03*
X134366000Y-109719000D03*
G04 #@! TD*
D37*
G04 #@! TO.C,J6*
X106680000Y-119380000D03*
D13*
X106680000Y-121920000D03*
G04 #@! TD*
D19*
G04 #@! TO.C,R9*
X112268000Y-113637200D03*
X112268000Y-114607200D03*
G04 #@! TD*
D24*
G04 #@! TO.C,R14*
X127508000Y-111787000D03*
X127508000Y-109737000D03*
G04 #@! TD*
G36*
X147227942Y-113426513D02*
G01*
X147228097Y-113427846D01*
X147209100Y-113510460D01*
X147209101Y-113940596D01*
X147209100Y-113940604D01*
X147209100Y-114220401D01*
X147213895Y-114244511D01*
X147213252Y-114246405D01*
X147211290Y-114246795D01*
X147210270Y-114246012D01*
X147207646Y-114242085D01*
X147176530Y-114221293D01*
X147140028Y-114228555D01*
X147126666Y-114241917D01*
X147123930Y-114246012D01*
X147122136Y-114246897D01*
X147120473Y-114245786D01*
X147120305Y-114244511D01*
X147125100Y-114220401D01*
X147125100Y-113510826D01*
X147106206Y-113427999D01*
X147106796Y-113426088D01*
X147108746Y-113425643D01*
X147109819Y-113426443D01*
X147111863Y-113429502D01*
X147112162Y-113430223D01*
X147119456Y-113466890D01*
X147140246Y-113498005D01*
X147176530Y-113505223D01*
X147207472Y-113484547D01*
X147214705Y-113467087D01*
X147222037Y-113430225D01*
X147222336Y-113429504D01*
X147224485Y-113426287D01*
X147226279Y-113425402D01*
X147227942Y-113426513D01*
G37*
G36*
X148727942Y-113426513D02*
G01*
X148728097Y-113427846D01*
X148709100Y-113510460D01*
X148709101Y-113940596D01*
X148709100Y-113940604D01*
X148709100Y-114220401D01*
X148713895Y-114244511D01*
X148713252Y-114246405D01*
X148711290Y-114246795D01*
X148710270Y-114246012D01*
X148707646Y-114242085D01*
X148676530Y-114221293D01*
X148640028Y-114228555D01*
X148626666Y-114241917D01*
X148623930Y-114246012D01*
X148622136Y-114246897D01*
X148620473Y-114245786D01*
X148620305Y-114244511D01*
X148625100Y-114220401D01*
X148625100Y-113510826D01*
X148606206Y-113427999D01*
X148606796Y-113426088D01*
X148608746Y-113425643D01*
X148609819Y-113426443D01*
X148611863Y-113429502D01*
X148612162Y-113430223D01*
X148619456Y-113466890D01*
X148640246Y-113498005D01*
X148676530Y-113505223D01*
X148707472Y-113484547D01*
X148714705Y-113467087D01*
X148722037Y-113430225D01*
X148722336Y-113429504D01*
X148724485Y-113426287D01*
X148726279Y-113425402D01*
X148727942Y-113426513D01*
G37*
G36*
X148227942Y-113426513D02*
G01*
X148228097Y-113427846D01*
X148209100Y-113510460D01*
X148209101Y-113940596D01*
X148209100Y-113940604D01*
X148209100Y-114220401D01*
X148213895Y-114244511D01*
X148213252Y-114246405D01*
X148211290Y-114246795D01*
X148210270Y-114246012D01*
X148207646Y-114242085D01*
X148176530Y-114221293D01*
X148140028Y-114228555D01*
X148126666Y-114241917D01*
X148123930Y-114246012D01*
X148122136Y-114246897D01*
X148120473Y-114245786D01*
X148120305Y-114244511D01*
X148125100Y-114220401D01*
X148125100Y-113510826D01*
X148106206Y-113427999D01*
X148106796Y-113426088D01*
X148108746Y-113425643D01*
X148109819Y-113426443D01*
X148111863Y-113429502D01*
X148112162Y-113430223D01*
X148119456Y-113466890D01*
X148140246Y-113498005D01*
X148176530Y-113505223D01*
X148207472Y-113484547D01*
X148214705Y-113467087D01*
X148222037Y-113430225D01*
X148222336Y-113429504D01*
X148224485Y-113426287D01*
X148226279Y-113425402D01*
X148227942Y-113426513D01*
G37*
G36*
X147727942Y-113426513D02*
G01*
X147728097Y-113427846D01*
X147709100Y-113510460D01*
X147709101Y-113940596D01*
X147709100Y-113940604D01*
X147709100Y-114220401D01*
X147713895Y-114244511D01*
X147713252Y-114246405D01*
X147711290Y-114246795D01*
X147710270Y-114246012D01*
X147707646Y-114242085D01*
X147676530Y-114221293D01*
X147640028Y-114228555D01*
X147626666Y-114241917D01*
X147623930Y-114246012D01*
X147622136Y-114246897D01*
X147620473Y-114245786D01*
X147620305Y-114244511D01*
X147625100Y-114220401D01*
X147625100Y-113510826D01*
X147606206Y-113427999D01*
X147606796Y-113426088D01*
X147608746Y-113425643D01*
X147609819Y-113426443D01*
X147611863Y-113429502D01*
X147612162Y-113430223D01*
X147619456Y-113466890D01*
X147640246Y-113498005D01*
X147676530Y-113505223D01*
X147707472Y-113484547D01*
X147714705Y-113467087D01*
X147722037Y-113430225D01*
X147722336Y-113429504D01*
X147724485Y-113426287D01*
X147726279Y-113425402D01*
X147727942Y-113426513D01*
G37*
G36*
X148998936Y-113219020D02*
G01*
X148999326Y-113220982D01*
X148998543Y-113222002D01*
X148969205Y-113241605D01*
X148961987Y-113277889D01*
X148982663Y-113308831D01*
X148995767Y-113314260D01*
X148996113Y-113314445D01*
X149021701Y-113331542D01*
X149022586Y-113333336D01*
X149021475Y-113334999D01*
X149019721Y-113335006D01*
X148963525Y-113307900D01*
X148871030Y-113307819D01*
X148814642Y-113334896D01*
X148812647Y-113334744D01*
X148811782Y-113332941D01*
X148812665Y-113331430D01*
X148841078Y-113312445D01*
X148861870Y-113281329D01*
X148854652Y-113245045D01*
X148823621Y-113224311D01*
X148814268Y-113223390D01*
X148812642Y-113222225D01*
X148812838Y-113220235D01*
X148814464Y-113219400D01*
X148991901Y-113219400D01*
X148997042Y-113218377D01*
X148998936Y-113219020D01*
G37*
G36*
X146842299Y-113219400D02*
G01*
X147019735Y-113219400D01*
X147021467Y-113220400D01*
X147021467Y-113222400D01*
X147020500Y-113223248D01*
X146985558Y-113237722D01*
X146971401Y-113271899D01*
X146985683Y-113306379D01*
X146992873Y-113312281D01*
X147021697Y-113331540D01*
X147022582Y-113333334D01*
X147021471Y-113334997D01*
X147019717Y-113335004D01*
X146963525Y-113307900D01*
X146871030Y-113307819D01*
X146814642Y-113334896D01*
X146812647Y-113334744D01*
X146811782Y-113332941D01*
X146812665Y-113331430D01*
X146843194Y-113311032D01*
X146843142Y-113310236D01*
X146843824Y-113309458D01*
X146864995Y-113295313D01*
X146872212Y-113259029D01*
X146851536Y-113228086D01*
X146838490Y-113222682D01*
X146837272Y-113221095D01*
X146838037Y-113219247D01*
X146839645Y-113218872D01*
X146842299Y-113219400D01*
G37*
G36*
X148521467Y-113220400D02*
G01*
X148521467Y-113222400D01*
X148520500Y-113223248D01*
X148485558Y-113237722D01*
X148471401Y-113271899D01*
X148485683Y-113306379D01*
X148492873Y-113312281D01*
X148521697Y-113331540D01*
X148522582Y-113333334D01*
X148521471Y-113334997D01*
X148519717Y-113335004D01*
X148463525Y-113307900D01*
X148371030Y-113307819D01*
X148314642Y-113334896D01*
X148312647Y-113334744D01*
X148311782Y-113332941D01*
X148312665Y-113331430D01*
X148341078Y-113312445D01*
X148361870Y-113281329D01*
X148354652Y-113245045D01*
X148323621Y-113224311D01*
X148314268Y-113223390D01*
X148312642Y-113222225D01*
X148312838Y-113220235D01*
X148314464Y-113219400D01*
X148519735Y-113219400D01*
X148521467Y-113220400D01*
G37*
G36*
X148021467Y-113220400D02*
G01*
X148021467Y-113222400D01*
X148020500Y-113223248D01*
X147985558Y-113237722D01*
X147971401Y-113271899D01*
X147985683Y-113306379D01*
X147992873Y-113312281D01*
X148021697Y-113331540D01*
X148022582Y-113333334D01*
X148021471Y-113334997D01*
X148019717Y-113335004D01*
X147963525Y-113307900D01*
X147871030Y-113307819D01*
X147814642Y-113334896D01*
X147812647Y-113334744D01*
X147811782Y-113332941D01*
X147812665Y-113331430D01*
X147841078Y-113312445D01*
X147861870Y-113281329D01*
X147854652Y-113245045D01*
X147823621Y-113224311D01*
X147814268Y-113223390D01*
X147812642Y-113222225D01*
X147812838Y-113220235D01*
X147814464Y-113219400D01*
X148019735Y-113219400D01*
X148021467Y-113220400D01*
G37*
G36*
X147521467Y-113220400D02*
G01*
X147521467Y-113222400D01*
X147520500Y-113223248D01*
X147485558Y-113237722D01*
X147471401Y-113271899D01*
X147485683Y-113306379D01*
X147492873Y-113312281D01*
X147521697Y-113331540D01*
X147522582Y-113333334D01*
X147521471Y-113334997D01*
X147519717Y-113335004D01*
X147463525Y-113307900D01*
X147371030Y-113307819D01*
X147314642Y-113334896D01*
X147312647Y-113334744D01*
X147311782Y-113332941D01*
X147312665Y-113331430D01*
X147341078Y-113312445D01*
X147361870Y-113281329D01*
X147354652Y-113245045D01*
X147323621Y-113224311D01*
X147314268Y-113223390D01*
X147312642Y-113222225D01*
X147312838Y-113220235D01*
X147314464Y-113219400D01*
X147519735Y-113219400D01*
X147521467Y-113220400D01*
G37*
G36*
X149727908Y-112682799D02*
G01*
X149727575Y-112684041D01*
X149724362Y-112688851D01*
X149725002Y-112690149D01*
X149724669Y-112691129D01*
X149711278Y-112711170D01*
X149718540Y-112747672D01*
X149726526Y-112755658D01*
X149726775Y-112755960D01*
X149727576Y-112757158D01*
X149727707Y-112759154D01*
X149726044Y-112760266D01*
X149724802Y-112759933D01*
X149710761Y-112750552D01*
X149691901Y-112746800D01*
X149042900Y-112746800D01*
X149041168Y-112745800D01*
X149040900Y-112744800D01*
X149040900Y-112696400D01*
X149041900Y-112694668D01*
X149042900Y-112694400D01*
X149691901Y-112694400D01*
X149710761Y-112690648D01*
X149724801Y-112681267D01*
X149726797Y-112681136D01*
X149727908Y-112682799D01*
G37*
G36*
X146109398Y-112681267D02*
G01*
X146123439Y-112690648D01*
X146142299Y-112694400D01*
X146791300Y-112694400D01*
X146793032Y-112695400D01*
X146793300Y-112696400D01*
X146793300Y-112744800D01*
X146792300Y-112746532D01*
X146791300Y-112746800D01*
X146142299Y-112746800D01*
X146123439Y-112750552D01*
X146109399Y-112759933D01*
X146107403Y-112760064D01*
X146106292Y-112758401D01*
X146106625Y-112757159D01*
X146109838Y-112752349D01*
X146109198Y-112751051D01*
X146109531Y-112750071D01*
X146122922Y-112730030D01*
X146115660Y-112693528D01*
X146107674Y-112685542D01*
X146107425Y-112685240D01*
X146106624Y-112684042D01*
X146106493Y-112682046D01*
X146108156Y-112680934D01*
X146109398Y-112681267D01*
G37*
G36*
X149727908Y-112282799D02*
G01*
X149727575Y-112284041D01*
X149724362Y-112288851D01*
X149725002Y-112290149D01*
X149724669Y-112291129D01*
X149711278Y-112311170D01*
X149718540Y-112347672D01*
X149726526Y-112355658D01*
X149726775Y-112355960D01*
X149727576Y-112357158D01*
X149727707Y-112359154D01*
X149726044Y-112360266D01*
X149724802Y-112359933D01*
X149710761Y-112350552D01*
X149691901Y-112346800D01*
X149042900Y-112346800D01*
X149041168Y-112345800D01*
X149040900Y-112344800D01*
X149040900Y-112296400D01*
X149041900Y-112294668D01*
X149042900Y-112294400D01*
X149691901Y-112294400D01*
X149710761Y-112290648D01*
X149724801Y-112281267D01*
X149726797Y-112281136D01*
X149727908Y-112282799D01*
G37*
G36*
X146109398Y-112281267D02*
G01*
X146123439Y-112290648D01*
X146142299Y-112294400D01*
X146791300Y-112294400D01*
X146793032Y-112295400D01*
X146793300Y-112296400D01*
X146793300Y-112344800D01*
X146792300Y-112346532D01*
X146791300Y-112346800D01*
X146142299Y-112346800D01*
X146123439Y-112350552D01*
X146109399Y-112359933D01*
X146107403Y-112360064D01*
X146106292Y-112358401D01*
X146106625Y-112357159D01*
X146109838Y-112352349D01*
X146109198Y-112351051D01*
X146109531Y-112350071D01*
X146122922Y-112330030D01*
X146115660Y-112293528D01*
X146107674Y-112285542D01*
X146107425Y-112285240D01*
X146106624Y-112284042D01*
X146106493Y-112282046D01*
X146108156Y-112280934D01*
X146109398Y-112281267D01*
G37*
G36*
X149727908Y-111882799D02*
G01*
X149727575Y-111884041D01*
X149724362Y-111888851D01*
X149725002Y-111890149D01*
X149724669Y-111891129D01*
X149711278Y-111911170D01*
X149718540Y-111947672D01*
X149726526Y-111955658D01*
X149726775Y-111955960D01*
X149727576Y-111957158D01*
X149727707Y-111959154D01*
X149726044Y-111960266D01*
X149724802Y-111959933D01*
X149710761Y-111950552D01*
X149691901Y-111946800D01*
X149042900Y-111946800D01*
X149041168Y-111945800D01*
X149040900Y-111944800D01*
X149040900Y-111896400D01*
X149041900Y-111894668D01*
X149042900Y-111894400D01*
X149691901Y-111894400D01*
X149710761Y-111890648D01*
X149724801Y-111881267D01*
X149726797Y-111881136D01*
X149727908Y-111882799D01*
G37*
G36*
X146109398Y-111881267D02*
G01*
X146123439Y-111890648D01*
X146142299Y-111894400D01*
X146791300Y-111894400D01*
X146793032Y-111895400D01*
X146793300Y-111896400D01*
X146793300Y-111944800D01*
X146792300Y-111946532D01*
X146791300Y-111946800D01*
X146142299Y-111946800D01*
X146123439Y-111950552D01*
X146109399Y-111959933D01*
X146107403Y-111960064D01*
X146106292Y-111958401D01*
X146106625Y-111957159D01*
X146109838Y-111952349D01*
X146109198Y-111951051D01*
X146109531Y-111950071D01*
X146122922Y-111930030D01*
X146115660Y-111893528D01*
X146107674Y-111885542D01*
X146107425Y-111885240D01*
X146106624Y-111884042D01*
X146106493Y-111882046D01*
X146108156Y-111880934D01*
X146109398Y-111881267D01*
G37*
G36*
X146870675Y-111333300D02*
G01*
X146963170Y-111333381D01*
X147019556Y-111306305D01*
X147021551Y-111306457D01*
X147022416Y-111308260D01*
X147021533Y-111309771D01*
X146993122Y-111328755D01*
X146972330Y-111359871D01*
X146979548Y-111396155D01*
X147010579Y-111416889D01*
X147019830Y-111417800D01*
X147314067Y-111417800D01*
X147348642Y-111403478D01*
X147362799Y-111369301D01*
X147348517Y-111334821D01*
X147341327Y-111328920D01*
X147312500Y-111309659D01*
X147311615Y-111307865D01*
X147312726Y-111306202D01*
X147314480Y-111306195D01*
X147370675Y-111333300D01*
X147463170Y-111333381D01*
X147519556Y-111306305D01*
X147521551Y-111306457D01*
X147522416Y-111308260D01*
X147521533Y-111309771D01*
X147493122Y-111328755D01*
X147472330Y-111359871D01*
X147479548Y-111396155D01*
X147510579Y-111416889D01*
X147519932Y-111417810D01*
X147521558Y-111418975D01*
X147521362Y-111420965D01*
X147519736Y-111421800D01*
X146842299Y-111421800D01*
X146837158Y-111422823D01*
X146835264Y-111422180D01*
X146834874Y-111420218D01*
X146835657Y-111419198D01*
X146864995Y-111399595D01*
X146872213Y-111363311D01*
X146851537Y-111332369D01*
X146838432Y-111326940D01*
X146838086Y-111326755D01*
X146812500Y-111309658D01*
X146811615Y-111307864D01*
X146812726Y-111306201D01*
X146814480Y-111306194D01*
X146870675Y-111333300D01*
G37*
G36*
X148870675Y-111333300D02*
G01*
X148963170Y-111333381D01*
X149019556Y-111306305D01*
X149021551Y-111306457D01*
X149022416Y-111308260D01*
X149021533Y-111309771D01*
X148991006Y-111330168D01*
X148991058Y-111330964D01*
X148990376Y-111331742D01*
X148969205Y-111345887D01*
X148961988Y-111382171D01*
X148982664Y-111413114D01*
X148995710Y-111418518D01*
X148996928Y-111420105D01*
X148996163Y-111421953D01*
X148994555Y-111422328D01*
X148991901Y-111421800D01*
X148814465Y-111421800D01*
X148812733Y-111420800D01*
X148812733Y-111418800D01*
X148813700Y-111417952D01*
X148848642Y-111403478D01*
X148862799Y-111369301D01*
X148848517Y-111334821D01*
X148841327Y-111328920D01*
X148812500Y-111309659D01*
X148811615Y-111307865D01*
X148812726Y-111306202D01*
X148814480Y-111306195D01*
X148870675Y-111333300D01*
G37*
G36*
X148370675Y-111333300D02*
G01*
X148463170Y-111333381D01*
X148519556Y-111306305D01*
X148521551Y-111306457D01*
X148522416Y-111308260D01*
X148521533Y-111309771D01*
X148493122Y-111328755D01*
X148472330Y-111359871D01*
X148479548Y-111396155D01*
X148510579Y-111416889D01*
X148519932Y-111417810D01*
X148521558Y-111418975D01*
X148521362Y-111420965D01*
X148519736Y-111421800D01*
X147814465Y-111421800D01*
X147812733Y-111420800D01*
X147812733Y-111418800D01*
X147813700Y-111417952D01*
X147848642Y-111403478D01*
X147862799Y-111369301D01*
X147848517Y-111334821D01*
X147841327Y-111328920D01*
X147812500Y-111309659D01*
X147811615Y-111307865D01*
X147812726Y-111306202D01*
X147814480Y-111306195D01*
X147870675Y-111333300D01*
X147963170Y-111333381D01*
X148019556Y-111306305D01*
X148021551Y-111306457D01*
X148022416Y-111308260D01*
X148021533Y-111309771D01*
X147993122Y-111328755D01*
X147972330Y-111359871D01*
X147979548Y-111396155D01*
X148010579Y-111416889D01*
X148019830Y-111417800D01*
X148314067Y-111417800D01*
X148348642Y-111403478D01*
X148362799Y-111369301D01*
X148348517Y-111334821D01*
X148341327Y-111328920D01*
X148312500Y-111309659D01*
X148311615Y-111307865D01*
X148312726Y-111306202D01*
X148314480Y-111306195D01*
X148370675Y-111333300D01*
G37*
G36*
X148713727Y-110395414D02*
G01*
X148713895Y-110396689D01*
X148709100Y-110420799D01*
X148709100Y-110560234D01*
X148709101Y-111130374D01*
X148727995Y-111213200D01*
X148727405Y-111215111D01*
X148725455Y-111215556D01*
X148724382Y-111214756D01*
X148722338Y-111211697D01*
X148722039Y-111210976D01*
X148714745Y-111174309D01*
X148693955Y-111143193D01*
X148657672Y-111135975D01*
X148626729Y-111156651D01*
X148619496Y-111174111D01*
X148612163Y-111210976D01*
X148611864Y-111211697D01*
X148609715Y-111214913D01*
X148607921Y-111215798D01*
X148606258Y-111214687D01*
X148606103Y-111213354D01*
X148625100Y-111130741D01*
X148625100Y-110420799D01*
X148620305Y-110396689D01*
X148620948Y-110394795D01*
X148622910Y-110394405D01*
X148623930Y-110395188D01*
X148626554Y-110399115D01*
X148657670Y-110419907D01*
X148694172Y-110412645D01*
X148707534Y-110399283D01*
X148710270Y-110395188D01*
X148712064Y-110394303D01*
X148713727Y-110395414D01*
G37*
G36*
X147713727Y-110395414D02*
G01*
X147713895Y-110396689D01*
X147709100Y-110420799D01*
X147709100Y-110560234D01*
X147709101Y-111130374D01*
X147727995Y-111213200D01*
X147727405Y-111215111D01*
X147725455Y-111215556D01*
X147724382Y-111214756D01*
X147722338Y-111211697D01*
X147722039Y-111210976D01*
X147714745Y-111174309D01*
X147693955Y-111143193D01*
X147657672Y-111135975D01*
X147626729Y-111156651D01*
X147619496Y-111174111D01*
X147612163Y-111210976D01*
X147611864Y-111211697D01*
X147609715Y-111214913D01*
X147607921Y-111215798D01*
X147606258Y-111214687D01*
X147606103Y-111213354D01*
X147625100Y-111130741D01*
X147625100Y-110420799D01*
X147620305Y-110396689D01*
X147620948Y-110394795D01*
X147622910Y-110394405D01*
X147623930Y-110395188D01*
X147626554Y-110399115D01*
X147657670Y-110419907D01*
X147694172Y-110412645D01*
X147707534Y-110399283D01*
X147710270Y-110395188D01*
X147712064Y-110394303D01*
X147713727Y-110395414D01*
G37*
G36*
X147213727Y-110395414D02*
G01*
X147213895Y-110396689D01*
X147209100Y-110420799D01*
X147209100Y-110560234D01*
X147209101Y-111130374D01*
X147227995Y-111213200D01*
X147227405Y-111215111D01*
X147225455Y-111215556D01*
X147224382Y-111214756D01*
X147222338Y-111211697D01*
X147222039Y-111210976D01*
X147214745Y-111174309D01*
X147193955Y-111143193D01*
X147157672Y-111135975D01*
X147126729Y-111156651D01*
X147119496Y-111174111D01*
X147112163Y-111210976D01*
X147111864Y-111211697D01*
X147109715Y-111214913D01*
X147107921Y-111215798D01*
X147106258Y-111214687D01*
X147106103Y-111213354D01*
X147125100Y-111130741D01*
X147125100Y-110420799D01*
X147120305Y-110396689D01*
X147120948Y-110394795D01*
X147122910Y-110394405D01*
X147123930Y-110395188D01*
X147126554Y-110399115D01*
X147157670Y-110419907D01*
X147194172Y-110412645D01*
X147207534Y-110399283D01*
X147210270Y-110395188D01*
X147212064Y-110394303D01*
X147213727Y-110395414D01*
G37*
G36*
X148213727Y-110395414D02*
G01*
X148213895Y-110396689D01*
X148209100Y-110420799D01*
X148209100Y-110560234D01*
X148209101Y-111130374D01*
X148227995Y-111213200D01*
X148227405Y-111215111D01*
X148225455Y-111215556D01*
X148224382Y-111214756D01*
X148222338Y-111211697D01*
X148222039Y-111210976D01*
X148214745Y-111174309D01*
X148193955Y-111143193D01*
X148157672Y-111135975D01*
X148126729Y-111156651D01*
X148119496Y-111174111D01*
X148112163Y-111210976D01*
X148111864Y-111211697D01*
X148109715Y-111214913D01*
X148107921Y-111215798D01*
X148106258Y-111214687D01*
X148106103Y-111213354D01*
X148125100Y-111130741D01*
X148125100Y-110420799D01*
X148120305Y-110396689D01*
X148120948Y-110394795D01*
X148122910Y-110394405D01*
X148123930Y-110395188D01*
X148126554Y-110399115D01*
X148157670Y-110419907D01*
X148194172Y-110412645D01*
X148207534Y-110399283D01*
X148210270Y-110395188D01*
X148212064Y-110394303D01*
X148213727Y-110395414D01*
G37*
M02*
