G04 #@! TF.GenerationSoftware,KiCad,Pcbnew,5.99.0-unknown-89dcc4689~104~ubuntu20.04.1*
G04 #@! TF.CreationDate,2020-10-12T19:49:43-07:00*
G04 #@! TF.ProjectId,signal-board,7369676e-616c-42d6-926f-6172642e6b69,rev?*
G04 #@! TF.SameCoordinates,Original*
G04 #@! TF.FileFunction,Legend,Bot*
G04 #@! TF.FilePolarity,Positive*
%FSLAX46Y46*%
G04 Gerber Fmt 4.6, Leading zero omitted, Abs format (unit mm)*
G04 Created by KiCad (PCBNEW 5.99.0-unknown-89dcc4689~104~ubuntu20.04.1) date 2020-10-12 19:49:43*
%MOMM*%
%LPD*%
G01*
G04 APERTURE LIST*
%ADD10C,0.120000*%
%ADD11C,0.150000*%
%ADD12C,0.100000*%
%ADD13C,0.015000*%
G04 APERTURE END LIST*
D10*
X115533000Y-110998000D02*
G75*
G03*
X115533000Y-110998000I-2000000J0D01*
G01*
D11*
G04 #@! TO.C,R4*
X118333780Y-127696933D02*
X117857590Y-127363600D01*
X118333780Y-127125504D02*
X117333780Y-127125504D01*
X117333780Y-127506457D01*
X117381400Y-127601695D01*
X117429019Y-127649314D01*
X117524257Y-127696933D01*
X117667114Y-127696933D01*
X117762352Y-127649314D01*
X117809971Y-127601695D01*
X117857590Y-127506457D01*
X117857590Y-127125504D01*
X117667114Y-128554076D02*
X118333780Y-128554076D01*
X117286161Y-128315980D02*
X118000447Y-128077885D01*
X118000447Y-128696933D01*
D12*
G04 #@! TO.C,R2*
X147786285Y-119559800D02*
X147429142Y-119309800D01*
X147786285Y-119131228D02*
X147036285Y-119131228D01*
X147036285Y-119416942D01*
X147072000Y-119488371D01*
X147107714Y-119524085D01*
X147179142Y-119559800D01*
X147286285Y-119559800D01*
X147357714Y-119524085D01*
X147393428Y-119488371D01*
X147429142Y-119416942D01*
X147429142Y-119131228D01*
X147107714Y-119845514D02*
X147072000Y-119881228D01*
X147036285Y-119952657D01*
X147036285Y-120131228D01*
X147072000Y-120202657D01*
X147107714Y-120238371D01*
X147179142Y-120274085D01*
X147250571Y-120274085D01*
X147357714Y-120238371D01*
X147786285Y-119809800D01*
X147786285Y-120274085D01*
D11*
G04 #@! TO.C,D2*
X114271095Y-108910380D02*
X114271095Y-107910380D01*
X114033000Y-107910380D01*
X113890142Y-107958000D01*
X113794904Y-108053238D01*
X113747285Y-108148476D01*
X113699666Y-108338952D01*
X113699666Y-108481809D01*
X113747285Y-108672285D01*
X113794904Y-108767523D01*
X113890142Y-108862761D01*
X114033000Y-108910380D01*
X114271095Y-108910380D01*
X113318714Y-108005619D02*
X113271095Y-107958000D01*
X113175857Y-107910380D01*
X112937761Y-107910380D01*
X112842523Y-107958000D01*
X112794904Y-108005619D01*
X112747285Y-108100857D01*
X112747285Y-108196095D01*
X112794904Y-108338952D01*
X113366333Y-108910380D01*
X112747285Y-108910380D01*
G04 #@! TO.C,TP1*
X155465304Y-120788180D02*
X154893876Y-120788180D01*
X155179590Y-121788180D02*
X155179590Y-120788180D01*
X154560542Y-121788180D02*
X154560542Y-120788180D01*
X154179590Y-120788180D01*
X154084352Y-120835800D01*
X154036733Y-120883419D01*
X153989114Y-120978657D01*
X153989114Y-121121514D01*
X154036733Y-121216752D01*
X154084352Y-121264371D01*
X154179590Y-121311990D01*
X154560542Y-121311990D01*
X153036733Y-121788180D02*
X153608161Y-121788180D01*
X153322447Y-121788180D02*
X153322447Y-120788180D01*
X153417685Y-120931038D01*
X153512923Y-121026276D01*
X153608161Y-121073895D01*
G04 #@! TO.C,R12*
X132532380Y-113403142D02*
X132056190Y-113069809D01*
X132532380Y-112831714D02*
X131532380Y-112831714D01*
X131532380Y-113212666D01*
X131580000Y-113307904D01*
X131627619Y-113355523D01*
X131722857Y-113403142D01*
X131865714Y-113403142D01*
X131960952Y-113355523D01*
X132008571Y-113307904D01*
X132056190Y-113212666D01*
X132056190Y-112831714D01*
X132532380Y-114355523D02*
X132532380Y-113784095D01*
X132532380Y-114069809D02*
X131532380Y-114069809D01*
X131675238Y-113974571D01*
X131770476Y-113879333D01*
X131818095Y-113784095D01*
X131627619Y-114736476D02*
X131580000Y-114784095D01*
X131532380Y-114879333D01*
X131532380Y-115117428D01*
X131580000Y-115212666D01*
X131627619Y-115260285D01*
X131722857Y-115307904D01*
X131818095Y-115307904D01*
X131960952Y-115260285D01*
X132532380Y-114688857D01*
X132532380Y-115307904D01*
G04 #@! TO.C,C1*
X160852266Y-114884942D02*
X160899885Y-114932561D01*
X161042742Y-114980180D01*
X161137980Y-114980180D01*
X161280838Y-114932561D01*
X161376076Y-114837323D01*
X161423695Y-114742085D01*
X161471314Y-114551609D01*
X161471314Y-114408752D01*
X161423695Y-114218276D01*
X161376076Y-114123038D01*
X161280838Y-114027800D01*
X161137980Y-113980180D01*
X161042742Y-113980180D01*
X160899885Y-114027800D01*
X160852266Y-114075419D01*
X159899885Y-114980180D02*
X160471314Y-114980180D01*
X160185600Y-114980180D02*
X160185600Y-113980180D01*
X160280838Y-114123038D01*
X160376076Y-114218276D01*
X160471314Y-114265895D01*
G04 #@! TO.C,C6*
X145289542Y-111844933D02*
X145337161Y-111797314D01*
X145384780Y-111654457D01*
X145384780Y-111559219D01*
X145337161Y-111416361D01*
X145241923Y-111321123D01*
X145146685Y-111273504D01*
X144956209Y-111225885D01*
X144813352Y-111225885D01*
X144622876Y-111273504D01*
X144527638Y-111321123D01*
X144432400Y-111416361D01*
X144384780Y-111559219D01*
X144384780Y-111654457D01*
X144432400Y-111797314D01*
X144480019Y-111844933D01*
X144384780Y-112702076D02*
X144384780Y-112511600D01*
X144432400Y-112416361D01*
X144480019Y-112368742D01*
X144622876Y-112273504D01*
X144813352Y-112225885D01*
X145194304Y-112225885D01*
X145289542Y-112273504D01*
X145337161Y-112321123D01*
X145384780Y-112416361D01*
X145384780Y-112606838D01*
X145337161Y-112702076D01*
X145289542Y-112749695D01*
X145194304Y-112797314D01*
X144956209Y-112797314D01*
X144860971Y-112749695D01*
X144813352Y-112702076D01*
X144765733Y-112606838D01*
X144765733Y-112416361D01*
X144813352Y-112321123D01*
X144860971Y-112273504D01*
X144956209Y-112225885D01*
G04 #@! TO.C,R8*
X107665780Y-113930133D02*
X107189590Y-113596800D01*
X107665780Y-113358704D02*
X106665780Y-113358704D01*
X106665780Y-113739657D01*
X106713400Y-113834895D01*
X106761019Y-113882514D01*
X106856257Y-113930133D01*
X106999114Y-113930133D01*
X107094352Y-113882514D01*
X107141971Y-113834895D01*
X107189590Y-113739657D01*
X107189590Y-113358704D01*
X107094352Y-114501561D02*
X107046733Y-114406323D01*
X106999114Y-114358704D01*
X106903876Y-114311085D01*
X106856257Y-114311085D01*
X106761019Y-114358704D01*
X106713400Y-114406323D01*
X106665780Y-114501561D01*
X106665780Y-114692038D01*
X106713400Y-114787276D01*
X106761019Y-114834895D01*
X106856257Y-114882514D01*
X106903876Y-114882514D01*
X106999114Y-114834895D01*
X107046733Y-114787276D01*
X107094352Y-114692038D01*
X107094352Y-114501561D01*
X107141971Y-114406323D01*
X107189590Y-114358704D01*
X107284828Y-114311085D01*
X107475304Y-114311085D01*
X107570542Y-114358704D01*
X107618161Y-114406323D01*
X107665780Y-114501561D01*
X107665780Y-114692038D01*
X107618161Y-114787276D01*
X107570542Y-114834895D01*
X107475304Y-114882514D01*
X107284828Y-114882514D01*
X107189590Y-114834895D01*
X107141971Y-114787276D01*
X107094352Y-114692038D01*
G04 #@! TO.C,R10*
X137078980Y-113377742D02*
X136602790Y-113044409D01*
X137078980Y-112806314D02*
X136078980Y-112806314D01*
X136078980Y-113187266D01*
X136126600Y-113282504D01*
X136174219Y-113330123D01*
X136269457Y-113377742D01*
X136412314Y-113377742D01*
X136507552Y-113330123D01*
X136555171Y-113282504D01*
X136602790Y-113187266D01*
X136602790Y-112806314D01*
X137078980Y-114330123D02*
X137078980Y-113758695D01*
X137078980Y-114044409D02*
X136078980Y-114044409D01*
X136221838Y-113949171D01*
X136317076Y-113853933D01*
X136364695Y-113758695D01*
X136078980Y-114949171D02*
X136078980Y-115044409D01*
X136126600Y-115139647D01*
X136174219Y-115187266D01*
X136269457Y-115234885D01*
X136459933Y-115282504D01*
X136698028Y-115282504D01*
X136888504Y-115234885D01*
X136983742Y-115187266D01*
X137031361Y-115139647D01*
X137078980Y-115044409D01*
X137078980Y-114949171D01*
X137031361Y-114853933D01*
X136983742Y-114806314D01*
X136888504Y-114758695D01*
X136698028Y-114711076D01*
X136459933Y-114711076D01*
X136269457Y-114758695D01*
X136174219Y-114806314D01*
X136126600Y-114853933D01*
X136078980Y-114949171D01*
G04 #@! TO.C,C2*
X160930666Y-116768542D02*
X160978285Y-116816161D01*
X161121142Y-116863780D01*
X161216380Y-116863780D01*
X161359238Y-116816161D01*
X161454476Y-116720923D01*
X161502095Y-116625685D01*
X161549714Y-116435209D01*
X161549714Y-116292352D01*
X161502095Y-116101876D01*
X161454476Y-116006638D01*
X161359238Y-115911400D01*
X161216380Y-115863780D01*
X161121142Y-115863780D01*
X160978285Y-115911400D01*
X160930666Y-115959019D01*
X160549714Y-115959019D02*
X160502095Y-115911400D01*
X160406857Y-115863780D01*
X160168761Y-115863780D01*
X160073523Y-115911400D01*
X160025904Y-115959019D01*
X159978285Y-116054257D01*
X159978285Y-116149495D01*
X160025904Y-116292352D01*
X160597333Y-116863780D01*
X159978285Y-116863780D01*
G04 #@! TO.C,C13*
X164091857Y-124182142D02*
X164139476Y-124229761D01*
X164282333Y-124277380D01*
X164377571Y-124277380D01*
X164520428Y-124229761D01*
X164615666Y-124134523D01*
X164663285Y-124039285D01*
X164710904Y-123848809D01*
X164710904Y-123705952D01*
X164663285Y-123515476D01*
X164615666Y-123420238D01*
X164520428Y-123325000D01*
X164377571Y-123277380D01*
X164282333Y-123277380D01*
X164139476Y-123325000D01*
X164091857Y-123372619D01*
X163139476Y-124277380D02*
X163710904Y-124277380D01*
X163425190Y-124277380D02*
X163425190Y-123277380D01*
X163520428Y-123420238D01*
X163615666Y-123515476D01*
X163710904Y-123563095D01*
X162806142Y-123277380D02*
X162187095Y-123277380D01*
X162520428Y-123658333D01*
X162377571Y-123658333D01*
X162282333Y-123705952D01*
X162234714Y-123753571D01*
X162187095Y-123848809D01*
X162187095Y-124086904D01*
X162234714Y-124182142D01*
X162282333Y-124229761D01*
X162377571Y-124277380D01*
X162663285Y-124277380D01*
X162758523Y-124229761D01*
X162806142Y-124182142D01*
G04 #@! TO.C,R7*
X122931180Y-122286733D02*
X122454990Y-121953400D01*
X122931180Y-121715304D02*
X121931180Y-121715304D01*
X121931180Y-122096257D01*
X121978800Y-122191495D01*
X122026419Y-122239114D01*
X122121657Y-122286733D01*
X122264514Y-122286733D01*
X122359752Y-122239114D01*
X122407371Y-122191495D01*
X122454990Y-122096257D01*
X122454990Y-121715304D01*
X121931180Y-122620066D02*
X121931180Y-123286733D01*
X122931180Y-122858161D01*
G04 #@! TO.C,R6*
X118384580Y-122362933D02*
X117908390Y-122029600D01*
X118384580Y-121791504D02*
X117384580Y-121791504D01*
X117384580Y-122172457D01*
X117432200Y-122267695D01*
X117479819Y-122315314D01*
X117575057Y-122362933D01*
X117717914Y-122362933D01*
X117813152Y-122315314D01*
X117860771Y-122267695D01*
X117908390Y-122172457D01*
X117908390Y-121791504D01*
X117384580Y-123220076D02*
X117384580Y-123029600D01*
X117432200Y-122934361D01*
X117479819Y-122886742D01*
X117622676Y-122791504D01*
X117813152Y-122743885D01*
X118194104Y-122743885D01*
X118289342Y-122791504D01*
X118336961Y-122839123D01*
X118384580Y-122934361D01*
X118384580Y-123124838D01*
X118336961Y-123220076D01*
X118289342Y-123267695D01*
X118194104Y-123315314D01*
X117956009Y-123315314D01*
X117860771Y-123267695D01*
X117813152Y-123220076D01*
X117765533Y-123124838D01*
X117765533Y-122934361D01*
X117813152Y-122839123D01*
X117860771Y-122791504D01*
X117956009Y-122743885D01*
D13*
G04 #@! TO.C,SW1*
X114180333Y-126312761D02*
X114037476Y-126360380D01*
X113799380Y-126360380D01*
X113704142Y-126312761D01*
X113656523Y-126265142D01*
X113608904Y-126169904D01*
X113608904Y-126074666D01*
X113656523Y-125979428D01*
X113704142Y-125931809D01*
X113799380Y-125884190D01*
X113989857Y-125836571D01*
X114085095Y-125788952D01*
X114132714Y-125741333D01*
X114180333Y-125646095D01*
X114180333Y-125550857D01*
X114132714Y-125455619D01*
X114085095Y-125408000D01*
X113989857Y-125360380D01*
X113751761Y-125360380D01*
X113608904Y-125408000D01*
X113275571Y-125360380D02*
X113037476Y-126360380D01*
X112847000Y-125646095D01*
X112656523Y-126360380D01*
X112418428Y-125360380D01*
X111513666Y-126360380D02*
X112085095Y-126360380D01*
X111799380Y-126360380D02*
X111799380Y-125360380D01*
X111894619Y-125503238D01*
X111989857Y-125598476D01*
X112085095Y-125646095D01*
D11*
G04 #@! TO.C,C5*
X143232142Y-111794933D02*
X143279761Y-111747314D01*
X143327380Y-111604457D01*
X143327380Y-111509219D01*
X143279761Y-111366361D01*
X143184523Y-111271123D01*
X143089285Y-111223504D01*
X142898809Y-111175885D01*
X142755952Y-111175885D01*
X142565476Y-111223504D01*
X142470238Y-111271123D01*
X142375000Y-111366361D01*
X142327380Y-111509219D01*
X142327380Y-111604457D01*
X142375000Y-111747314D01*
X142422619Y-111794933D01*
X142327380Y-112699695D02*
X142327380Y-112223504D01*
X142803571Y-112175885D01*
X142755952Y-112223504D01*
X142708333Y-112318742D01*
X142708333Y-112556838D01*
X142755952Y-112652076D01*
X142803571Y-112699695D01*
X142898809Y-112747314D01*
X143136904Y-112747314D01*
X143232142Y-112699695D01*
X143279761Y-112652076D01*
X143327380Y-112556838D01*
X143327380Y-112318742D01*
X143279761Y-112223504D01*
X143232142Y-112175885D01*
G04 #@! TO.C,R16*
X123388380Y-113344142D02*
X122912190Y-113010809D01*
X123388380Y-112772714D02*
X122388380Y-112772714D01*
X122388380Y-113153666D01*
X122436000Y-113248904D01*
X122483619Y-113296523D01*
X122578857Y-113344142D01*
X122721714Y-113344142D01*
X122816952Y-113296523D01*
X122864571Y-113248904D01*
X122912190Y-113153666D01*
X122912190Y-112772714D01*
X123388380Y-114296523D02*
X123388380Y-113725095D01*
X123388380Y-114010809D02*
X122388380Y-114010809D01*
X122531238Y-113915571D01*
X122626476Y-113820333D01*
X122674095Y-113725095D01*
X122388380Y-115153666D02*
X122388380Y-114963190D01*
X122436000Y-114867952D01*
X122483619Y-114820333D01*
X122626476Y-114725095D01*
X122816952Y-114677476D01*
X123197904Y-114677476D01*
X123293142Y-114725095D01*
X123340761Y-114772714D01*
X123388380Y-114867952D01*
X123388380Y-115058428D01*
X123340761Y-115153666D01*
X123293142Y-115201285D01*
X123197904Y-115248904D01*
X122959809Y-115248904D01*
X122864571Y-115201285D01*
X122816952Y-115153666D01*
X122769333Y-115058428D01*
X122769333Y-114867952D01*
X122816952Y-114772714D01*
X122864571Y-114725095D01*
X122959809Y-114677476D01*
G04 #@! TO.C,D1*
X107926095Y-108910380D02*
X107926095Y-107910380D01*
X107688000Y-107910380D01*
X107545142Y-107958000D01*
X107449904Y-108053238D01*
X107402285Y-108148476D01*
X107354666Y-108338952D01*
X107354666Y-108481809D01*
X107402285Y-108672285D01*
X107449904Y-108767523D01*
X107545142Y-108862761D01*
X107688000Y-108910380D01*
X107926095Y-108910380D01*
X106402285Y-108910380D02*
X106973714Y-108910380D01*
X106688000Y-108910380D02*
X106688000Y-107910380D01*
X106783238Y-108053238D01*
X106878476Y-108148476D01*
X106973714Y-108196095D01*
G04 #@! TO.C,C9*
X120524542Y-122388333D02*
X120572161Y-122340714D01*
X120619780Y-122197857D01*
X120619780Y-122102619D01*
X120572161Y-121959761D01*
X120476923Y-121864523D01*
X120381685Y-121816904D01*
X120191209Y-121769285D01*
X120048352Y-121769285D01*
X119857876Y-121816904D01*
X119762638Y-121864523D01*
X119667400Y-121959761D01*
X119619780Y-122102619D01*
X119619780Y-122197857D01*
X119667400Y-122340714D01*
X119715019Y-122388333D01*
X120619780Y-122864523D02*
X120619780Y-123055000D01*
X120572161Y-123150238D01*
X120524542Y-123197857D01*
X120381685Y-123293095D01*
X120191209Y-123340714D01*
X119810257Y-123340714D01*
X119715019Y-123293095D01*
X119667400Y-123245476D01*
X119619780Y-123150238D01*
X119619780Y-122959761D01*
X119667400Y-122864523D01*
X119715019Y-122816904D01*
X119810257Y-122769285D01*
X120048352Y-122769285D01*
X120143590Y-122816904D01*
X120191209Y-122864523D01*
X120238828Y-122959761D01*
X120238828Y-123150238D01*
X120191209Y-123245476D01*
X120143590Y-123293095D01*
X120048352Y-123340714D01*
G04 #@! TO.C,C8*
X122835942Y-127671533D02*
X122883561Y-127623914D01*
X122931180Y-127481057D01*
X122931180Y-127385819D01*
X122883561Y-127242961D01*
X122788323Y-127147723D01*
X122693085Y-127100104D01*
X122502609Y-127052485D01*
X122359752Y-127052485D01*
X122169276Y-127100104D01*
X122074038Y-127147723D01*
X121978800Y-127242961D01*
X121931180Y-127385819D01*
X121931180Y-127481057D01*
X121978800Y-127623914D01*
X122026419Y-127671533D01*
X122359752Y-128242961D02*
X122312133Y-128147723D01*
X122264514Y-128100104D01*
X122169276Y-128052485D01*
X122121657Y-128052485D01*
X122026419Y-128100104D01*
X121978800Y-128147723D01*
X121931180Y-128242961D01*
X121931180Y-128433438D01*
X121978800Y-128528676D01*
X122026419Y-128576295D01*
X122121657Y-128623914D01*
X122169276Y-128623914D01*
X122264514Y-128576295D01*
X122312133Y-128528676D01*
X122359752Y-128433438D01*
X122359752Y-128242961D01*
X122407371Y-128147723D01*
X122454990Y-128100104D01*
X122550228Y-128052485D01*
X122740704Y-128052485D01*
X122835942Y-128100104D01*
X122883561Y-128147723D01*
X122931180Y-128242961D01*
X122931180Y-128433438D01*
X122883561Y-128528676D01*
X122835942Y-128576295D01*
X122740704Y-128623914D01*
X122550228Y-128623914D01*
X122454990Y-128576295D01*
X122407371Y-128528676D01*
X122359752Y-128433438D01*
G04 #@! TO.C,C7*
X147346942Y-111844933D02*
X147394561Y-111797314D01*
X147442180Y-111654457D01*
X147442180Y-111559219D01*
X147394561Y-111416361D01*
X147299323Y-111321123D01*
X147204085Y-111273504D01*
X147013609Y-111225885D01*
X146870752Y-111225885D01*
X146680276Y-111273504D01*
X146585038Y-111321123D01*
X146489800Y-111416361D01*
X146442180Y-111559219D01*
X146442180Y-111654457D01*
X146489800Y-111797314D01*
X146537419Y-111844933D01*
X146442180Y-112178266D02*
X146442180Y-112844933D01*
X147442180Y-112416361D01*
G04 #@! TO.C,R15*
X125674380Y-113353142D02*
X125198190Y-113019809D01*
X125674380Y-112781714D02*
X124674380Y-112781714D01*
X124674380Y-113162666D01*
X124722000Y-113257904D01*
X124769619Y-113305523D01*
X124864857Y-113353142D01*
X125007714Y-113353142D01*
X125102952Y-113305523D01*
X125150571Y-113257904D01*
X125198190Y-113162666D01*
X125198190Y-112781714D01*
X125674380Y-114305523D02*
X125674380Y-113734095D01*
X125674380Y-114019809D02*
X124674380Y-114019809D01*
X124817238Y-113924571D01*
X124912476Y-113829333D01*
X124960095Y-113734095D01*
X124674380Y-115210285D02*
X124674380Y-114734095D01*
X125150571Y-114686476D01*
X125102952Y-114734095D01*
X125055333Y-114829333D01*
X125055333Y-115067428D01*
X125102952Y-115162666D01*
X125150571Y-115210285D01*
X125245809Y-115257904D01*
X125483904Y-115257904D01*
X125579142Y-115210285D01*
X125626761Y-115162666D01*
X125674380Y-115067428D01*
X125674380Y-114829333D01*
X125626761Y-114734095D01*
X125579142Y-114686476D01*
G04 #@! TO.C,R5*
X120670580Y-127696933D02*
X120194390Y-127363600D01*
X120670580Y-127125504D02*
X119670580Y-127125504D01*
X119670580Y-127506457D01*
X119718200Y-127601695D01*
X119765819Y-127649314D01*
X119861057Y-127696933D01*
X120003914Y-127696933D01*
X120099152Y-127649314D01*
X120146771Y-127601695D01*
X120194390Y-127506457D01*
X120194390Y-127125504D01*
X119670580Y-128601695D02*
X119670580Y-128125504D01*
X120146771Y-128077885D01*
X120099152Y-128125504D01*
X120051533Y-128220742D01*
X120051533Y-128458838D01*
X120099152Y-128554076D01*
X120146771Y-128601695D01*
X120242009Y-128649314D01*
X120480104Y-128649314D01*
X120575342Y-128601695D01*
X120622961Y-128554076D01*
X120670580Y-128458838D01*
X120670580Y-128220742D01*
X120622961Y-128125504D01*
X120575342Y-128077885D01*
D13*
G04 #@! TO.C,SW2*
X114180333Y-121054761D02*
X114037476Y-121102380D01*
X113799380Y-121102380D01*
X113704142Y-121054761D01*
X113656523Y-121007142D01*
X113608904Y-120911904D01*
X113608904Y-120816666D01*
X113656523Y-120721428D01*
X113704142Y-120673809D01*
X113799380Y-120626190D01*
X113989857Y-120578571D01*
X114085095Y-120530952D01*
X114132714Y-120483333D01*
X114180333Y-120388095D01*
X114180333Y-120292857D01*
X114132714Y-120197619D01*
X114085095Y-120150000D01*
X113989857Y-120102380D01*
X113751761Y-120102380D01*
X113608904Y-120150000D01*
X113275571Y-120102380D02*
X113037476Y-121102380D01*
X112847000Y-120388095D01*
X112656523Y-121102380D01*
X112418428Y-120102380D01*
X112085095Y-120197619D02*
X112037476Y-120150000D01*
X111942238Y-120102380D01*
X111704142Y-120102380D01*
X111608904Y-120150000D01*
X111561285Y-120197619D01*
X111513666Y-120292857D01*
X111513666Y-120388095D01*
X111561285Y-120530952D01*
X112132714Y-121102380D01*
X111513666Y-121102380D01*
D11*
G04 #@! TO.C,C10*
X140717542Y-118321742D02*
X140765161Y-118274123D01*
X140812780Y-118131266D01*
X140812780Y-118036028D01*
X140765161Y-117893171D01*
X140669923Y-117797933D01*
X140574685Y-117750314D01*
X140384209Y-117702695D01*
X140241352Y-117702695D01*
X140050876Y-117750314D01*
X139955638Y-117797933D01*
X139860400Y-117893171D01*
X139812780Y-118036028D01*
X139812780Y-118131266D01*
X139860400Y-118274123D01*
X139908019Y-118321742D01*
X140812780Y-119274123D02*
X140812780Y-118702695D01*
X140812780Y-118988409D02*
X139812780Y-118988409D01*
X139955638Y-118893171D01*
X140050876Y-118797933D01*
X140098495Y-118702695D01*
X139812780Y-119893171D02*
X139812780Y-119988409D01*
X139860400Y-120083647D01*
X139908019Y-120131266D01*
X140003257Y-120178885D01*
X140193733Y-120226504D01*
X140431828Y-120226504D01*
X140622304Y-120178885D01*
X140717542Y-120131266D01*
X140765161Y-120083647D01*
X140812780Y-119988409D01*
X140812780Y-119893171D01*
X140765161Y-119797933D01*
X140717542Y-119750314D01*
X140622304Y-119702695D01*
X140431828Y-119655076D01*
X140193733Y-119655076D01*
X140003257Y-119702695D01*
X139908019Y-119750314D01*
X139860400Y-119797933D01*
X139812780Y-119893171D01*
G04 #@! TO.C,C3*
X149188466Y-121388142D02*
X149236085Y-121435761D01*
X149378942Y-121483380D01*
X149474180Y-121483380D01*
X149617038Y-121435761D01*
X149712276Y-121340523D01*
X149759895Y-121245285D01*
X149807514Y-121054809D01*
X149807514Y-120911952D01*
X149759895Y-120721476D01*
X149712276Y-120626238D01*
X149617038Y-120531000D01*
X149474180Y-120483380D01*
X149378942Y-120483380D01*
X149236085Y-120531000D01*
X149188466Y-120578619D01*
X148855133Y-120483380D02*
X148236085Y-120483380D01*
X148569419Y-120864333D01*
X148426561Y-120864333D01*
X148331323Y-120911952D01*
X148283704Y-120959571D01*
X148236085Y-121054809D01*
X148236085Y-121292904D01*
X148283704Y-121388142D01*
X148331323Y-121435761D01*
X148426561Y-121483380D01*
X148712276Y-121483380D01*
X148807514Y-121435761D01*
X148855133Y-121388142D01*
G04 #@! TO.C,R13*
X130246380Y-113353142D02*
X129770190Y-113019809D01*
X130246380Y-112781714D02*
X129246380Y-112781714D01*
X129246380Y-113162666D01*
X129294000Y-113257904D01*
X129341619Y-113305523D01*
X129436857Y-113353142D01*
X129579714Y-113353142D01*
X129674952Y-113305523D01*
X129722571Y-113257904D01*
X129770190Y-113162666D01*
X129770190Y-112781714D01*
X130246380Y-114305523D02*
X130246380Y-113734095D01*
X130246380Y-114019809D02*
X129246380Y-114019809D01*
X129389238Y-113924571D01*
X129484476Y-113829333D01*
X129532095Y-113734095D01*
X129246380Y-114638857D02*
X129246380Y-115257904D01*
X129627333Y-114924571D01*
X129627333Y-115067428D01*
X129674952Y-115162666D01*
X129722571Y-115210285D01*
X129817809Y-115257904D01*
X130055904Y-115257904D01*
X130151142Y-115210285D01*
X130198761Y-115162666D01*
X130246380Y-115067428D01*
X130246380Y-114781714D01*
X130198761Y-114686476D01*
X130151142Y-114638857D01*
G04 #@! TO.C,L1*
X151730666Y-109883880D02*
X152206857Y-109883880D01*
X152206857Y-108883880D01*
X150873523Y-109883880D02*
X151444952Y-109883880D01*
X151159238Y-109883880D02*
X151159238Y-108883880D01*
X151254476Y-109026738D01*
X151349714Y-109121976D01*
X151444952Y-109169595D01*
G04 #@! TO.C,C11*
X164091857Y-120118142D02*
X164139476Y-120165761D01*
X164282333Y-120213380D01*
X164377571Y-120213380D01*
X164520428Y-120165761D01*
X164615666Y-120070523D01*
X164663285Y-119975285D01*
X164710904Y-119784809D01*
X164710904Y-119641952D01*
X164663285Y-119451476D01*
X164615666Y-119356238D01*
X164520428Y-119261000D01*
X164377571Y-119213380D01*
X164282333Y-119213380D01*
X164139476Y-119261000D01*
X164091857Y-119308619D01*
X163139476Y-120213380D02*
X163710904Y-120213380D01*
X163425190Y-120213380D02*
X163425190Y-119213380D01*
X163520428Y-119356238D01*
X163615666Y-119451476D01*
X163710904Y-119499095D01*
X162187095Y-120213380D02*
X162758523Y-120213380D01*
X162472809Y-120213380D02*
X162472809Y-119213380D01*
X162568047Y-119356238D01*
X162663285Y-119451476D01*
X162758523Y-119499095D01*
G04 #@! TO.C,R17*
X121152380Y-113335142D02*
X120676190Y-113001809D01*
X121152380Y-112763714D02*
X120152380Y-112763714D01*
X120152380Y-113144666D01*
X120200000Y-113239904D01*
X120247619Y-113287523D01*
X120342857Y-113335142D01*
X120485714Y-113335142D01*
X120580952Y-113287523D01*
X120628571Y-113239904D01*
X120676190Y-113144666D01*
X120676190Y-112763714D01*
X121152380Y-114287523D02*
X121152380Y-113716095D01*
X121152380Y-114001809D02*
X120152380Y-114001809D01*
X120295238Y-113906571D01*
X120390476Y-113811333D01*
X120438095Y-113716095D01*
X120152380Y-114620857D02*
X120152380Y-115287523D01*
X121152380Y-114858952D01*
G04 #@! TO.C,R3*
X142919380Y-117841733D02*
X142443190Y-117508400D01*
X142919380Y-117270304D02*
X141919380Y-117270304D01*
X141919380Y-117651257D01*
X141967000Y-117746495D01*
X142014619Y-117794114D01*
X142109857Y-117841733D01*
X142252714Y-117841733D01*
X142347952Y-117794114D01*
X142395571Y-117746495D01*
X142443190Y-117651257D01*
X142443190Y-117270304D01*
X141919380Y-118175066D02*
X141919380Y-118794114D01*
X142300333Y-118460780D01*
X142300333Y-118603638D01*
X142347952Y-118698876D01*
X142395571Y-118746495D01*
X142490809Y-118794114D01*
X142728904Y-118794114D01*
X142824142Y-118746495D01*
X142871761Y-118698876D01*
X142919380Y-118603638D01*
X142919380Y-118317923D01*
X142871761Y-118222685D01*
X142824142Y-118175066D01*
G04 #@! TO.C,R1*
X145332380Y-117943333D02*
X144856190Y-117610000D01*
X145332380Y-117371904D02*
X144332380Y-117371904D01*
X144332380Y-117752857D01*
X144380000Y-117848095D01*
X144427619Y-117895714D01*
X144522857Y-117943333D01*
X144665714Y-117943333D01*
X144760952Y-117895714D01*
X144808571Y-117848095D01*
X144856190Y-117752857D01*
X144856190Y-117371904D01*
X145332380Y-118895714D02*
X145332380Y-118324285D01*
X145332380Y-118610000D02*
X144332380Y-118610000D01*
X144475238Y-118514761D01*
X144570476Y-118419523D01*
X144618095Y-118324285D01*
G04 #@! TO.C,C12*
X164091857Y-122150142D02*
X164139476Y-122197761D01*
X164282333Y-122245380D01*
X164377571Y-122245380D01*
X164520428Y-122197761D01*
X164615666Y-122102523D01*
X164663285Y-122007285D01*
X164710904Y-121816809D01*
X164710904Y-121673952D01*
X164663285Y-121483476D01*
X164615666Y-121388238D01*
X164520428Y-121293000D01*
X164377571Y-121245380D01*
X164282333Y-121245380D01*
X164139476Y-121293000D01*
X164091857Y-121340619D01*
X163139476Y-122245380D02*
X163710904Y-122245380D01*
X163425190Y-122245380D02*
X163425190Y-121245380D01*
X163520428Y-121388238D01*
X163615666Y-121483476D01*
X163710904Y-121531095D01*
X162758523Y-121340619D02*
X162710904Y-121293000D01*
X162615666Y-121245380D01*
X162377571Y-121245380D01*
X162282333Y-121293000D01*
X162234714Y-121340619D01*
X162187095Y-121435857D01*
X162187095Y-121531095D01*
X162234714Y-121673952D01*
X162806142Y-122245380D01*
X162187095Y-122245380D01*
G04 #@! TO.C,J5*
X107013333Y-128992380D02*
X107013333Y-129706666D01*
X107060952Y-129849523D01*
X107156190Y-129944761D01*
X107299047Y-129992380D01*
X107394285Y-129992380D01*
X106060952Y-128992380D02*
X106537142Y-128992380D01*
X106584761Y-129468571D01*
X106537142Y-129420952D01*
X106441904Y-129373333D01*
X106203809Y-129373333D01*
X106108571Y-129420952D01*
X106060952Y-129468571D01*
X106013333Y-129563809D01*
X106013333Y-129801904D01*
X106060952Y-129897142D01*
X106108571Y-129944761D01*
X106203809Y-129992380D01*
X106441904Y-129992380D01*
X106537142Y-129944761D01*
X106584761Y-129897142D01*
G04 #@! TO.C,U1*
X148423380Y-116269595D02*
X149232904Y-116269595D01*
X149328142Y-116317214D01*
X149375761Y-116364833D01*
X149423380Y-116460071D01*
X149423380Y-116650547D01*
X149375761Y-116745785D01*
X149328142Y-116793404D01*
X149232904Y-116841023D01*
X148423380Y-116841023D01*
X149423380Y-117841023D02*
X149423380Y-117269595D01*
X149423380Y-117555309D02*
X148423380Y-117555309D01*
X148566238Y-117460071D01*
X148661476Y-117364833D01*
X148709095Y-117269595D01*
G04 #@! TO.C,C4*
X145708666Y-121489742D02*
X145756285Y-121537361D01*
X145899142Y-121584980D01*
X145994380Y-121584980D01*
X146137238Y-121537361D01*
X146232476Y-121442123D01*
X146280095Y-121346885D01*
X146327714Y-121156409D01*
X146327714Y-121013552D01*
X146280095Y-120823076D01*
X146232476Y-120727838D01*
X146137238Y-120632600D01*
X145994380Y-120584980D01*
X145899142Y-120584980D01*
X145756285Y-120632600D01*
X145708666Y-120680219D01*
X144851523Y-120918314D02*
X144851523Y-121584980D01*
X145089619Y-120537361D02*
X145327714Y-121251647D01*
X144708666Y-121251647D01*
G04 #@! TO.C,IC1*
X138526780Y-123382209D02*
X137526780Y-123382209D01*
X138431542Y-124429828D02*
X138479161Y-124382209D01*
X138526780Y-124239352D01*
X138526780Y-124144114D01*
X138479161Y-124001257D01*
X138383923Y-123906019D01*
X138288685Y-123858400D01*
X138098209Y-123810780D01*
X137955352Y-123810780D01*
X137764876Y-123858400D01*
X137669638Y-123906019D01*
X137574400Y-124001257D01*
X137526780Y-124144114D01*
X137526780Y-124239352D01*
X137574400Y-124382209D01*
X137622019Y-124429828D01*
X138526780Y-125382209D02*
X138526780Y-124810780D01*
X138526780Y-125096495D02*
X137526780Y-125096495D01*
X137669638Y-125001257D01*
X137764876Y-124906019D01*
X137812495Y-124810780D01*
G04 #@! TO.C,R11*
X134818380Y-113385142D02*
X134342190Y-113051809D01*
X134818380Y-112813714D02*
X133818380Y-112813714D01*
X133818380Y-113194666D01*
X133866000Y-113289904D01*
X133913619Y-113337523D01*
X134008857Y-113385142D01*
X134151714Y-113385142D01*
X134246952Y-113337523D01*
X134294571Y-113289904D01*
X134342190Y-113194666D01*
X134342190Y-112813714D01*
X134818380Y-114337523D02*
X134818380Y-113766095D01*
X134818380Y-114051809D02*
X133818380Y-114051809D01*
X133961238Y-113956571D01*
X134056476Y-113861333D01*
X134104095Y-113766095D01*
X134818380Y-115289904D02*
X134818380Y-114718476D01*
X134818380Y-115004190D02*
X133818380Y-115004190D01*
X133961238Y-114908952D01*
X134056476Y-114813714D01*
X134104095Y-114718476D01*
G04 #@! TO.C,J6*
X106759333Y-116292380D02*
X106759333Y-117006666D01*
X106806952Y-117149523D01*
X106902190Y-117244761D01*
X107045047Y-117292380D01*
X107140285Y-117292380D01*
X105854571Y-116292380D02*
X106045047Y-116292380D01*
X106140285Y-116340000D01*
X106187904Y-116387619D01*
X106283142Y-116530476D01*
X106330761Y-116720952D01*
X106330761Y-117101904D01*
X106283142Y-117197142D01*
X106235523Y-117244761D01*
X106140285Y-117292380D01*
X105949809Y-117292380D01*
X105854571Y-117244761D01*
X105806952Y-117197142D01*
X105759333Y-117101904D01*
X105759333Y-116863809D01*
X105806952Y-116768571D01*
X105854571Y-116720952D01*
X105949809Y-116673333D01*
X106140285Y-116673333D01*
X106235523Y-116720952D01*
X106283142Y-116768571D01*
X106330761Y-116863809D01*
G04 #@! TO.C,R9*
X111729780Y-113955533D02*
X111253590Y-113622200D01*
X111729780Y-113384104D02*
X110729780Y-113384104D01*
X110729780Y-113765057D01*
X110777400Y-113860295D01*
X110825019Y-113907914D01*
X110920257Y-113955533D01*
X111063114Y-113955533D01*
X111158352Y-113907914D01*
X111205971Y-113860295D01*
X111253590Y-113765057D01*
X111253590Y-113384104D01*
X111729780Y-114431723D02*
X111729780Y-114622200D01*
X111682161Y-114717438D01*
X111634542Y-114765057D01*
X111491685Y-114860295D01*
X111301209Y-114907914D01*
X110920257Y-114907914D01*
X110825019Y-114860295D01*
X110777400Y-114812676D01*
X110729780Y-114717438D01*
X110729780Y-114526961D01*
X110777400Y-114431723D01*
X110825019Y-114384104D01*
X110920257Y-114336485D01*
X111158352Y-114336485D01*
X111253590Y-114384104D01*
X111301209Y-114431723D01*
X111348828Y-114526961D01*
X111348828Y-114717438D01*
X111301209Y-114812676D01*
X111253590Y-114860295D01*
X111158352Y-114907914D01*
G04 #@! TO.C,R14*
X127960380Y-113378142D02*
X127484190Y-113044809D01*
X127960380Y-112806714D02*
X126960380Y-112806714D01*
X126960380Y-113187666D01*
X127008000Y-113282904D01*
X127055619Y-113330523D01*
X127150857Y-113378142D01*
X127293714Y-113378142D01*
X127388952Y-113330523D01*
X127436571Y-113282904D01*
X127484190Y-113187666D01*
X127484190Y-112806714D01*
X127960380Y-114330523D02*
X127960380Y-113759095D01*
X127960380Y-114044809D02*
X126960380Y-114044809D01*
X127103238Y-113949571D01*
X127198476Y-113854333D01*
X127246095Y-113759095D01*
X127293714Y-115187666D02*
X127960380Y-115187666D01*
X126912761Y-114949571D02*
X127627047Y-114711476D01*
X127627047Y-115330523D01*
G04 #@! TO.C,G\u002A\u002A\u002A*
G36*
X158914757Y-133131057D02*
G01*
X158952856Y-133133890D01*
X159030057Y-133146010D01*
X159087729Y-133164602D01*
X159106496Y-133174930D01*
X159162408Y-133216568D01*
X159230244Y-133278988D01*
X159307484Y-133359277D01*
X159391611Y-133454522D01*
X159480105Y-133561808D01*
X159570449Y-133678224D01*
X159660123Y-133800855D01*
X159746610Y-133926788D01*
X159795779Y-134002190D01*
X159986887Y-134325654D01*
X160150285Y-134656393D01*
X160286624Y-134996176D01*
X160396553Y-135346773D01*
X160480722Y-135709953D01*
X160539780Y-136087486D01*
X160541387Y-136101126D01*
X160553654Y-136239070D01*
X160561759Y-136396969D01*
X160565704Y-136566676D01*
X160565486Y-136740046D01*
X160561105Y-136908931D01*
X160552562Y-137065186D01*
X160539855Y-137200663D01*
X160489670Y-137530154D01*
X160406284Y-137903531D01*
X160296219Y-138264867D01*
X160159548Y-138613998D01*
X159996344Y-138950760D01*
X159806680Y-139274989D01*
X159590629Y-139586521D01*
X159348262Y-139885193D01*
X159308304Y-139930155D01*
X159228903Y-140013299D01*
X159159079Y-140075356D01*
X159094662Y-140118871D01*
X159031478Y-140146392D01*
X158965357Y-140160466D01*
X158892126Y-140163639D01*
X158852723Y-140161314D01*
X158745160Y-140136907D01*
X158651303Y-140088096D01*
X158573964Y-140017236D01*
X158515954Y-139926679D01*
X158480085Y-139818779D01*
X158472181Y-139763318D01*
X158476605Y-139670496D01*
X158505038Y-139578653D01*
X158558734Y-139484354D01*
X158638949Y-139384166D01*
X158715772Y-139297020D01*
X158885121Y-139088657D01*
X159034199Y-138878833D01*
X159168284Y-138659795D01*
X159292654Y-138423789D01*
X159332780Y-138339948D01*
X159447451Y-138069932D01*
X159540010Y-137797549D01*
X159612817Y-137515207D01*
X159668232Y-137215312D01*
X159678163Y-137141735D01*
X159693468Y-136973867D01*
X159701964Y-136790388D01*
X159703656Y-136599958D01*
X159698543Y-136411236D01*
X159686631Y-136232883D01*
X159667919Y-136073558D01*
X159606208Y-135747689D01*
X159514794Y-135413392D01*
X159396868Y-135091412D01*
X159252607Y-134782121D01*
X159082185Y-134485893D01*
X158885777Y-134203099D01*
X158663558Y-133934112D01*
X158651246Y-133920293D01*
X158579995Y-133834447D01*
X158529276Y-133759618D01*
X158496389Y-133690302D01*
X158478636Y-133620998D01*
X158473318Y-133546202D01*
X158474561Y-133511844D01*
X158496138Y-133404971D01*
X158543455Y-133310917D01*
X158615105Y-133231921D01*
X158709682Y-133170219D01*
X158721897Y-133164216D01*
X158768733Y-133143431D01*
X158808423Y-133132517D01*
X158853065Y-133129162D01*
X158914757Y-133131057D01*
G37*
G36*
X155540622Y-137144321D02*
G01*
X155437078Y-137106094D01*
X155343079Y-137046113D01*
X155262698Y-136965095D01*
X155200010Y-136863755D01*
X155194557Y-136851973D01*
X155177766Y-136809429D01*
X155167878Y-136767147D01*
X155163192Y-136715293D01*
X155162008Y-136644031D01*
X155162064Y-136624745D01*
X155163941Y-136558905D01*
X155169740Y-136510116D01*
X155181158Y-136468532D01*
X155199894Y-136424308D01*
X155201993Y-136419930D01*
X155245510Y-136349273D01*
X155303351Y-136280779D01*
X155367422Y-136222912D01*
X155429627Y-136184134D01*
X155484269Y-136159495D01*
X155484238Y-136138668D01*
X155535537Y-136138668D01*
X155542862Y-136145992D01*
X155550186Y-136138668D01*
X155542862Y-136131344D01*
X155535537Y-136138668D01*
X155484238Y-136138668D01*
X155484214Y-136122494D01*
X155612746Y-136122494D01*
X155612973Y-136127494D01*
X155631972Y-136130187D01*
X155646370Y-136127842D01*
X155641809Y-136122494D01*
X155685987Y-136122494D01*
X155686214Y-136127494D01*
X155705213Y-136130187D01*
X155719611Y-136127842D01*
X155714063Y-136121338D01*
X155705592Y-136118997D01*
X155685987Y-136122494D01*
X155641809Y-136122494D01*
X155640822Y-136121338D01*
X155632351Y-136118997D01*
X155612746Y-136122494D01*
X155484214Y-136122494D01*
X155480522Y-133684520D01*
X155476776Y-131209545D01*
X154600153Y-131209545D01*
X154531974Y-131209523D01*
X154333847Y-131209166D01*
X154163723Y-131208356D01*
X154020619Y-131207074D01*
X154008754Y-131206894D01*
X153903553Y-131205304D01*
X153811542Y-131203027D01*
X153743605Y-131200226D01*
X153698759Y-131196884D01*
X153676021Y-131192983D01*
X153674234Y-131192335D01*
X153633357Y-131167094D01*
X153600649Y-131130728D01*
X153579933Y-131086822D01*
X153575409Y-131031554D01*
X153596519Y-130970784D01*
X153598873Y-130966493D01*
X153615007Y-130938670D01*
X153644863Y-130888005D01*
X153645290Y-130887284D01*
X154008754Y-130887284D01*
X157262676Y-130887284D01*
X156654624Y-129872895D01*
X156587606Y-129761094D01*
X156450165Y-129531839D01*
X156326681Y-129325916D01*
X156216402Y-129142084D01*
X156118576Y-128979105D01*
X156032450Y-128835735D01*
X155957272Y-128710736D01*
X155892290Y-128602866D01*
X155836750Y-128510885D01*
X155789900Y-128433552D01*
X155750989Y-128369627D01*
X155719263Y-128317868D01*
X155693970Y-128277036D01*
X155674358Y-128245889D01*
X155659674Y-128223187D01*
X155649166Y-128207689D01*
X155642081Y-128198155D01*
X155637667Y-128193345D01*
X155635172Y-128192016D01*
X155628245Y-128201536D01*
X155607121Y-128234579D01*
X155572860Y-128289685D01*
X155526461Y-128365208D01*
X155468922Y-128459499D01*
X155401243Y-128570911D01*
X155324421Y-128697798D01*
X155239456Y-128838512D01*
X155147346Y-128991405D01*
X155049090Y-129154830D01*
X154945687Y-129327141D01*
X154838135Y-129506690D01*
X154746274Y-129660163D01*
X154641664Y-129834890D01*
X154541894Y-130001487D01*
X154447983Y-130158253D01*
X154360952Y-130303486D01*
X154281820Y-130435487D01*
X154211607Y-130552553D01*
X154151334Y-130652983D01*
X154102021Y-130735076D01*
X154064687Y-130797132D01*
X154040354Y-130837449D01*
X154030040Y-130854325D01*
X154008754Y-130887284D01*
X153645290Y-130887284D01*
X153687462Y-130816141D01*
X153741824Y-130724715D01*
X153806972Y-130615370D01*
X153881925Y-130489745D01*
X153965704Y-130349481D01*
X154057331Y-130196218D01*
X154155827Y-130031596D01*
X154260212Y-129857256D01*
X154369508Y-129674837D01*
X154482735Y-129485981D01*
X154531072Y-129405372D01*
X154642051Y-129220190D01*
X154748334Y-129042704D01*
X154848975Y-128874496D01*
X154943031Y-128717150D01*
X155029558Y-128572250D01*
X155107611Y-128441380D01*
X155176246Y-128326123D01*
X155234520Y-128228064D01*
X155281487Y-128148785D01*
X155316204Y-128089871D01*
X155337727Y-128052905D01*
X155345111Y-128039470D01*
X155338885Y-128038409D01*
X155306823Y-128036872D01*
X155249828Y-128035450D01*
X155170534Y-128034170D01*
X155071570Y-128033061D01*
X154955570Y-128032149D01*
X154825165Y-128031464D01*
X154682986Y-128031033D01*
X154531664Y-128030883D01*
X154432143Y-128030878D01*
X154262886Y-128030762D01*
X154119460Y-128030329D01*
X153999588Y-128029371D01*
X153900994Y-128027679D01*
X153821402Y-128025042D01*
X153758537Y-128021253D01*
X153710122Y-128016101D01*
X153673880Y-128009378D01*
X153647537Y-128000875D01*
X153628816Y-127990382D01*
X153615440Y-127977690D01*
X153605135Y-127962591D01*
X153595622Y-127944875D01*
X153580046Y-127907995D01*
X153574963Y-127853508D01*
X153594897Y-127796032D01*
X153597658Y-127790654D01*
X153606515Y-127773923D01*
X153616135Y-127759636D01*
X153628712Y-127747600D01*
X153646442Y-127737622D01*
X153671519Y-127729509D01*
X153706138Y-127723069D01*
X153752494Y-127718108D01*
X153812783Y-127714435D01*
X153889198Y-127711855D01*
X153983935Y-127710177D01*
X154099189Y-127709207D01*
X154237155Y-127708754D01*
X154400027Y-127708623D01*
X154590000Y-127708622D01*
X155476945Y-127708622D01*
X155476945Y-124999656D01*
X155476976Y-124782299D01*
X155477146Y-124463317D01*
X155477458Y-124162075D01*
X155477908Y-123879463D01*
X155478492Y-123616370D01*
X155479205Y-123373684D01*
X155480042Y-123152296D01*
X155481000Y-122953092D01*
X155482073Y-122776963D01*
X155483258Y-122624797D01*
X155484549Y-122497483D01*
X155485944Y-122395909D01*
X155487435Y-122320966D01*
X155489021Y-122273541D01*
X155490695Y-122254523D01*
X155520027Y-122205373D01*
X155568198Y-122169179D01*
X155625923Y-122155230D01*
X155686705Y-122164932D01*
X155744043Y-122199692D01*
X155791881Y-122242434D01*
X155799509Y-127708622D01*
X156689236Y-127708677D01*
X156866898Y-127708716D01*
X157024660Y-127708860D01*
X157157615Y-127709177D01*
X157268049Y-127709738D01*
X157358249Y-127710613D01*
X157430502Y-127711871D01*
X157487092Y-127713582D01*
X157530308Y-127715816D01*
X157562434Y-127718643D01*
X157585757Y-127722132D01*
X157602564Y-127726353D01*
X157615140Y-127731377D01*
X157625772Y-127737273D01*
X157651921Y-127757424D01*
X157686552Y-127808841D01*
X157697324Y-127869698D01*
X157682056Y-127932430D01*
X157673819Y-127949789D01*
X157664201Y-127967472D01*
X157652524Y-127982379D01*
X157636518Y-127994746D01*
X157613914Y-128004811D01*
X157582441Y-128012811D01*
X157539831Y-128018981D01*
X157483812Y-128023561D01*
X157412116Y-128026785D01*
X157322473Y-128028892D01*
X157212612Y-128030118D01*
X157080265Y-128030701D01*
X156923160Y-128030877D01*
X156739029Y-128030883D01*
X155918171Y-128030883D01*
X156798615Y-129499189D01*
X156858890Y-129599762D01*
X156971149Y-129787352D01*
X157078822Y-129967643D01*
X157180955Y-130139016D01*
X157276591Y-130299853D01*
X157364773Y-130448535D01*
X157444546Y-130583443D01*
X157514953Y-130702959D01*
X157575037Y-130805465D01*
X157623843Y-130889342D01*
X157660415Y-130952971D01*
X157683795Y-130994735D01*
X157693028Y-131013014D01*
X157694224Y-131017060D01*
X157698628Y-131061278D01*
X157683267Y-131108539D01*
X157678063Y-131119834D01*
X157670029Y-131137007D01*
X157661219Y-131151619D01*
X157649438Y-131163887D01*
X157632494Y-131174028D01*
X157608191Y-131182261D01*
X157574338Y-131188802D01*
X157528739Y-131193869D01*
X157469202Y-131197679D01*
X157393531Y-131200449D01*
X157299535Y-131202397D01*
X157185018Y-131203741D01*
X157047787Y-131204696D01*
X156885648Y-131205482D01*
X156696408Y-131206314D01*
X155799205Y-131210408D01*
X155799205Y-136142816D01*
X155837702Y-136152478D01*
X155862369Y-136161733D01*
X155906442Y-136183837D01*
X155954471Y-136212210D01*
X155962955Y-136217756D01*
X156052050Y-136293535D01*
X156119086Y-136384487D01*
X156163636Y-136486353D01*
X156185275Y-136594871D01*
X156183577Y-136705780D01*
X156158116Y-136814817D01*
X156108467Y-136917724D01*
X156034203Y-137010237D01*
X155968745Y-137065390D01*
X155867772Y-137121330D01*
X155760044Y-137152655D01*
X155705213Y-137156343D01*
X155649636Y-137160080D01*
X155631972Y-137157526D01*
X155542862Y-137144644D01*
X155540622Y-137144321D01*
G37*
G36*
X158816568Y-128669767D02*
G01*
X158869831Y-128681953D01*
X158938427Y-128700968D01*
X159016995Y-128725011D01*
X159100174Y-128752282D01*
X159182601Y-128780981D01*
X159258916Y-128809307D01*
X159323757Y-128835462D01*
X159371762Y-128857643D01*
X159397570Y-128874052D01*
X159410805Y-128888016D01*
X159428248Y-128912086D01*
X159438119Y-128939224D01*
X159440026Y-128973515D01*
X159433578Y-129019040D01*
X159418382Y-129079882D01*
X159394047Y-129160124D01*
X159360181Y-129263848D01*
X159349730Y-129295159D01*
X159313921Y-129398104D01*
X159283235Y-129476683D01*
X159255687Y-129534006D01*
X159229290Y-129573180D01*
X159202059Y-129597313D01*
X159172006Y-129609513D01*
X159137146Y-129612889D01*
X159126607Y-129612470D01*
X159072810Y-129599744D01*
X159024252Y-129573729D01*
X158992950Y-129540460D01*
X158990929Y-129536383D01*
X158979538Y-129487515D01*
X158980662Y-129426267D01*
X158994209Y-129365308D01*
X158995669Y-129361003D01*
X159003864Y-129328435D01*
X159003247Y-129311126D01*
X159003093Y-129311056D01*
X158987310Y-129316763D01*
X158948085Y-129334322D01*
X158887977Y-129362501D01*
X158809544Y-129400065D01*
X158715347Y-129445779D01*
X158607945Y-129498410D01*
X158489896Y-129556724D01*
X158363761Y-129619486D01*
X158359040Y-129621843D01*
X158232229Y-129684844D01*
X158112836Y-129743589D01*
X158003538Y-129796800D01*
X157907010Y-129843200D01*
X157825930Y-129881512D01*
X157762976Y-129910460D01*
X157720823Y-129928765D01*
X157702149Y-129935150D01*
X157700088Y-129935124D01*
X157649502Y-129922258D01*
X157600164Y-129891416D01*
X157565273Y-129850739D01*
X157550790Y-129817025D01*
X157545683Y-129755088D01*
X157569717Y-129693455D01*
X157573691Y-129688005D01*
X157588190Y-129674115D01*
X157612405Y-129656527D01*
X157648418Y-129634109D01*
X157698310Y-129605728D01*
X157764164Y-129570250D01*
X157848062Y-129526542D01*
X157952084Y-129473472D01*
X158078314Y-129409905D01*
X158228832Y-129334710D01*
X158236705Y-129330787D01*
X158362262Y-129268034D01*
X158479296Y-129209198D01*
X158585276Y-129155577D01*
X158677667Y-129108469D01*
X158753936Y-129069170D01*
X158811550Y-129038978D01*
X158847977Y-129019191D01*
X158860682Y-129011106D01*
X158858922Y-129008436D01*
X158838419Y-128997532D01*
X158802293Y-128984808D01*
X158795226Y-128982537D01*
X158745339Y-128960172D01*
X158703418Y-128932489D01*
X158698502Y-128928173D01*
X158675870Y-128902215D01*
X158665448Y-128870707D01*
X158662931Y-128821886D01*
X158662986Y-128811799D01*
X158666526Y-128766855D01*
X158678712Y-128737149D01*
X158703909Y-128710861D01*
X158706573Y-128708612D01*
X158744817Y-128682446D01*
X158780177Y-128666756D01*
X158784001Y-128666209D01*
X158816568Y-128669767D01*
G37*
G36*
X157892022Y-134092085D02*
G01*
X157960152Y-134105928D01*
X158022771Y-134132818D01*
X158085151Y-134175697D01*
X158152559Y-134237509D01*
X158230265Y-134321196D01*
X158261363Y-134356569D01*
X158359022Y-134471815D01*
X158442970Y-134578843D01*
X158519729Y-134686245D01*
X158595826Y-134802611D01*
X158692735Y-134967025D01*
X158827647Y-135239306D01*
X158940131Y-135524720D01*
X159028073Y-135817653D01*
X159089357Y-136112489D01*
X159097273Y-136171085D01*
X159107086Y-136276874D01*
X159114559Y-136399317D01*
X159119513Y-136530934D01*
X159121770Y-136664239D01*
X159121151Y-136791751D01*
X159117476Y-136905987D01*
X159110567Y-136999464D01*
X159090103Y-137155991D01*
X159030561Y-137453094D01*
X158945372Y-137745034D01*
X158835961Y-138028706D01*
X158703751Y-138301009D01*
X158550164Y-138558838D01*
X158376625Y-138799090D01*
X158184556Y-139018663D01*
X158128607Y-139073934D01*
X158058971Y-139131717D01*
X157993181Y-139170336D01*
X157924813Y-139193327D01*
X157847446Y-139204225D01*
X157801390Y-139205686D01*
X157699496Y-139192259D01*
X157608808Y-139153286D01*
X157524444Y-139086997D01*
X157517872Y-139080525D01*
X157456559Y-139007129D01*
X157418024Y-138928482D01*
X157396904Y-138833939D01*
X157395782Y-138824338D01*
X157396695Y-138738167D01*
X157413498Y-138648298D01*
X157443450Y-138570271D01*
X157454979Y-138552206D01*
X157485113Y-138512245D01*
X157526131Y-138462298D01*
X157572605Y-138409141D01*
X157680517Y-138283709D01*
X157821770Y-138095104D01*
X157940987Y-137900872D01*
X158042198Y-137694206D01*
X158129429Y-137468301D01*
X158161494Y-137370951D01*
X158193665Y-137259132D01*
X158217668Y-137152819D01*
X158234539Y-137045083D01*
X158245314Y-136928993D01*
X158251030Y-136797619D01*
X158252724Y-136644031D01*
X158252567Y-136561056D01*
X158251558Y-136464004D01*
X158249266Y-136386187D01*
X158245293Y-136321703D01*
X158239239Y-136264649D01*
X158230707Y-136209121D01*
X158219297Y-136149218D01*
X158209829Y-136104457D01*
X158135995Y-135836705D01*
X158035089Y-135579765D01*
X157907614Y-135334625D01*
X157754071Y-135102269D01*
X157574962Y-134883686D01*
X157542869Y-134847461D01*
X157480523Y-134768892D01*
X157437529Y-134698753D01*
X157410607Y-134631097D01*
X157396480Y-134559978D01*
X157393769Y-134475661D01*
X157413577Y-134368384D01*
X157459292Y-134272796D01*
X157529530Y-134191541D01*
X157622908Y-134127262D01*
X157654414Y-134111949D01*
X157697289Y-134097470D01*
X157746448Y-134090382D01*
X157813334Y-134088345D01*
X157892022Y-134092085D01*
G37*
G36*
X156838332Y-135054464D02*
G01*
X156858275Y-135060039D01*
X156910510Y-135078997D01*
X156958980Y-135105237D01*
X157009187Y-135142669D01*
X157066631Y-135195206D01*
X157136811Y-135266759D01*
X157252627Y-135399274D01*
X157386983Y-135589618D01*
X157497056Y-135794802D01*
X157583642Y-136016366D01*
X157647538Y-136255854D01*
X157660569Y-136329820D01*
X157674859Y-136467096D01*
X157680546Y-136616500D01*
X157677647Y-136768196D01*
X157666178Y-136912350D01*
X157646158Y-137039125D01*
X157632141Y-137102934D01*
X157604677Y-137211265D01*
X157573636Y-137308437D01*
X157534993Y-137406365D01*
X157484724Y-137516964D01*
X157439030Y-137608009D01*
X157352156Y-137754584D01*
X157251682Y-137891080D01*
X157130641Y-138027544D01*
X157089134Y-138069938D01*
X157013238Y-138139886D01*
X156945395Y-138189411D01*
X156880414Y-138221379D01*
X156813104Y-138238654D01*
X156738274Y-138244101D01*
X156668719Y-138239316D01*
X156565682Y-138210930D01*
X156476478Y-138159722D01*
X156403966Y-138088773D01*
X156351008Y-138001164D01*
X156320464Y-137899977D01*
X156315194Y-137788295D01*
X156322941Y-137726537D01*
X156342017Y-137659906D01*
X156374929Y-137595213D01*
X156425013Y-137526137D01*
X156495603Y-137446358D01*
X156601438Y-137317887D01*
X156696132Y-137162814D01*
X156764657Y-136999250D01*
X156806802Y-136829793D01*
X156822357Y-136657040D01*
X156811110Y-136483589D01*
X156772849Y-136312037D01*
X156707364Y-136144982D01*
X156614444Y-135985020D01*
X156602780Y-135968858D01*
X156565525Y-135921749D01*
X156518665Y-135866411D01*
X156469605Y-135811706D01*
X156439623Y-135778609D01*
X156386132Y-135712388D01*
X156350022Y-135652882D01*
X156327150Y-135592448D01*
X156313374Y-135523443D01*
X156312952Y-135520295D01*
X156312236Y-135432889D01*
X156328723Y-135340449D01*
X156359668Y-135258674D01*
X156388714Y-135216924D01*
X156436940Y-135166041D01*
X156492990Y-135118584D01*
X156547349Y-135083436D01*
X156588025Y-135066653D01*
X156670615Y-135048261D01*
X156758558Y-135043749D01*
X156838332Y-135054464D01*
G37*
G36*
X158604007Y-127634349D02*
G01*
X158649365Y-127649354D01*
X158751047Y-127684570D01*
X158828665Y-127714831D01*
X158885289Y-127742057D01*
X158923987Y-127768166D01*
X158947829Y-127795077D01*
X158959883Y-127824712D01*
X158963219Y-127858987D01*
X158963219Y-127859048D01*
X158958632Y-127887723D01*
X158945940Y-127938783D01*
X158926635Y-128006956D01*
X158902211Y-128086969D01*
X158874160Y-128173549D01*
X158854801Y-128231106D01*
X158822690Y-128322181D01*
X158795465Y-128390175D01*
X158770899Y-128438393D01*
X158746770Y-128470141D01*
X158720853Y-128488725D01*
X158690923Y-128497451D01*
X158654755Y-128499625D01*
X158651444Y-128499597D01*
X158587911Y-128486017D01*
X158539821Y-128450686D01*
X158509757Y-128398027D01*
X158500296Y-128332461D01*
X158514019Y-128258409D01*
X158521316Y-128235916D01*
X158529829Y-128204389D01*
X158530466Y-128192013D01*
X158530360Y-128192032D01*
X158515092Y-128199042D01*
X158476322Y-128217828D01*
X158416611Y-128247125D01*
X158338520Y-128285666D01*
X158244609Y-128332185D01*
X158137438Y-128385416D01*
X158019569Y-128444093D01*
X157893561Y-128506949D01*
X157891168Y-128508144D01*
X157764105Y-128571201D01*
X157644145Y-128630012D01*
X157534007Y-128683295D01*
X157436411Y-128729767D01*
X157354077Y-128768145D01*
X157289725Y-128797146D01*
X157246075Y-128815487D01*
X157225847Y-128821886D01*
X157212569Y-128821251D01*
X157151264Y-128801699D01*
X157099560Y-128757917D01*
X157098906Y-128757094D01*
X157080960Y-128717070D01*
X157073925Y-128663291D01*
X157074822Y-128637610D01*
X157085959Y-128595691D01*
X157114682Y-128558827D01*
X157130112Y-128547646D01*
X157170801Y-128523273D01*
X157232811Y-128488608D01*
X157313392Y-128445112D01*
X157409799Y-128394249D01*
X157519285Y-128337478D01*
X157639102Y-128276260D01*
X157766504Y-128212059D01*
X157881748Y-128154242D01*
X157997772Y-128095741D01*
X158103006Y-128042378D01*
X158194875Y-127995474D01*
X158270809Y-127956347D01*
X158328234Y-127926317D01*
X158364578Y-127906703D01*
X158377267Y-127898825D01*
X158372003Y-127894116D01*
X158346061Y-127881509D01*
X158305731Y-127865861D01*
X158300799Y-127864066D01*
X158235984Y-127828402D01*
X158196763Y-127778957D01*
X158182482Y-127714931D01*
X158188294Y-127662952D01*
X158218182Y-127607649D01*
X158272881Y-127567859D01*
X158325360Y-127542955D01*
X158604007Y-127634349D01*
G37*
D10*
G04 #@! TO.C,D2*
X112068000Y-109918000D02*
X112068000Y-109738000D01*
X111828000Y-109738000D02*
X115248000Y-109738000D01*
X115248000Y-112258000D02*
X115248000Y-112093000D01*
X111948000Y-112258000D02*
X111948000Y-112078000D01*
X111948000Y-109918000D02*
X111948000Y-109738000D01*
X111828000Y-109918000D02*
X111828000Y-109738000D01*
X112068000Y-112258000D02*
X112068000Y-112078000D01*
X115248000Y-109903000D02*
X115248000Y-109738000D01*
X111828000Y-112258000D02*
X111828000Y-112078000D01*
X111828000Y-112258000D02*
X115248000Y-112258000D01*
G04 #@! TO.C,TP1*
X154928800Y-119634000D02*
G75*
G03*
X154928800Y-119634000I-700000J0D01*
G01*
G04 #@! TO.C,R12*
X132790000Y-111023252D02*
X132790000Y-110500748D01*
X131370000Y-111023252D02*
X131370000Y-110500748D01*
G04 #@! TO.C,C1*
X157574348Y-115187800D02*
X158096852Y-115187800D01*
X157574348Y-113767800D02*
X158096852Y-113767800D01*
G04 #@! TO.C,C6*
X144222400Y-115297852D02*
X144222400Y-114775348D01*
X145642400Y-115297852D02*
X145642400Y-114775348D01*
G04 #@! TO.C,R10*
X135942000Y-111023252D02*
X135942000Y-110500748D01*
X137362000Y-111023252D02*
X137362000Y-110500748D01*
G04 #@! TO.C,C2*
X157602748Y-115901400D02*
X158125252Y-115901400D01*
X157602748Y-117321400D02*
X158125252Y-117321400D01*
G04 #@! TO.C,C13*
X159885748Y-124535000D02*
X160408252Y-124535000D01*
X159885748Y-123115000D02*
X160408252Y-123115000D01*
D12*
G04 #@! TO.C,SW1*
X114772000Y-125008000D02*
X114772000Y-126808000D01*
X114322000Y-128158000D02*
X110722000Y-128158000D01*
X110272000Y-125008000D02*
X110272000Y-126808000D01*
X114322000Y-123658000D02*
X110722000Y-123658000D01*
D10*
G04 #@! TO.C,C5*
X143585000Y-115297852D02*
X143585000Y-114775348D01*
X142165000Y-115297852D02*
X142165000Y-114775348D01*
G04 #@! TO.C,R16*
X122226000Y-111014252D02*
X122226000Y-110491748D01*
X123646000Y-111014252D02*
X123646000Y-110491748D01*
G04 #@! TO.C,D1*
X108898000Y-112258000D02*
X105478000Y-112258000D01*
X105478000Y-112093000D02*
X105478000Y-112258000D01*
X108778000Y-112078000D02*
X108778000Y-112258000D01*
X108658000Y-112078000D02*
X108658000Y-112258000D01*
X108778000Y-109738000D02*
X108778000Y-109918000D01*
X105478000Y-109738000D02*
X105478000Y-109903000D01*
X108898000Y-109738000D02*
X105478000Y-109738000D01*
X108898000Y-112078000D02*
X108898000Y-112258000D01*
X108898000Y-109738000D02*
X108898000Y-109918000D01*
X108658000Y-109738000D02*
X108658000Y-109918000D01*
G04 #@! TO.C,C7*
X146279800Y-115297852D02*
X146279800Y-114775348D01*
X147699800Y-115297852D02*
X147699800Y-114775348D01*
G04 #@! TO.C,R15*
X125932000Y-111023252D02*
X125932000Y-110500748D01*
X124512000Y-111023252D02*
X124512000Y-110500748D01*
D12*
G04 #@! TO.C,SW2*
X110272000Y-119750000D02*
X110272000Y-121550000D01*
X114322000Y-118400000D02*
X110722000Y-118400000D01*
X114772000Y-119750000D02*
X114772000Y-121550000D01*
X114322000Y-122900000D02*
X110722000Y-122900000D01*
D10*
G04 #@! TO.C,C10*
X139292400Y-118712348D02*
X139292400Y-119234852D01*
X137872400Y-118712348D02*
X137872400Y-119234852D01*
G04 #@! TO.C,R13*
X129084000Y-111023252D02*
X129084000Y-110500748D01*
X130504000Y-111023252D02*
X130504000Y-110500748D01*
G04 #@! TO.C,L1*
X154564000Y-114531500D02*
X148564000Y-114531500D01*
X154564000Y-110331500D02*
X148564000Y-110331500D01*
G04 #@! TO.C,C11*
X159885748Y-119051000D02*
X160408252Y-119051000D01*
X159885748Y-120471000D02*
X160408252Y-120471000D01*
G04 #@! TO.C,R17*
X119940000Y-111005252D02*
X119940000Y-110482748D01*
X121360000Y-111005252D02*
X121360000Y-110482748D01*
G04 #@! TO.C,C12*
X159885748Y-121083000D02*
X160408252Y-121083000D01*
X159885748Y-122503000D02*
X160408252Y-122503000D01*
G04 #@! TO.C,J5*
X108010000Y-128330000D02*
X105350000Y-128330000D01*
X108010000Y-124460000D02*
X108010000Y-123130000D01*
X108010000Y-123130000D02*
X106680000Y-123130000D01*
X105350000Y-125730000D02*
X105350000Y-128330000D01*
X108010000Y-125730000D02*
X105350000Y-125730000D01*
X108010000Y-125730000D02*
X108010000Y-128330000D01*
G04 #@! TO.C,U1*
X150829000Y-115431500D02*
X150164000Y-115431500D01*
X153464000Y-115431500D02*
X152799000Y-115431500D01*
X153464000Y-118731500D02*
X152799000Y-118731500D01*
X153464000Y-118731500D02*
X153464000Y-118481500D01*
X150164000Y-115681500D02*
X150164000Y-115431500D01*
X150164000Y-118481500D02*
X150164000Y-118731500D01*
X150829000Y-118731500D02*
X150164000Y-118731500D01*
G04 #@! TO.C,IC1*
X137320000Y-121920000D02*
X137320000Y-125780000D01*
X124300000Y-121920000D02*
X124300000Y-125780000D01*
X137320000Y-125780000D02*
X137085000Y-125780000D01*
X124300000Y-121920000D02*
X124300000Y-118872000D01*
X137320000Y-121920000D02*
X137320000Y-118900000D01*
X137320000Y-118900000D02*
X137085000Y-118900000D01*
X137085000Y-124968000D02*
X137085000Y-126873000D01*
X124288500Y-118872000D02*
X124523500Y-118872000D01*
X124300000Y-125780000D02*
X124535000Y-125780000D01*
G04 #@! TO.C,R11*
X135076000Y-111005252D02*
X135076000Y-110482748D01*
X133656000Y-111005252D02*
X133656000Y-110482748D01*
G04 #@! TO.C,J6*
X108010000Y-118050000D02*
X106680000Y-118050000D01*
X108010000Y-120650000D02*
X105350000Y-120650000D01*
X108010000Y-123250000D02*
X105350000Y-123250000D01*
X105350000Y-120650000D02*
X105350000Y-123250000D01*
X108010000Y-120650000D02*
X108010000Y-123250000D01*
X108010000Y-119380000D02*
X108010000Y-118050000D01*
G04 #@! TO.C,R14*
X126798000Y-111023252D02*
X126798000Y-110500748D01*
X128218000Y-111023252D02*
X128218000Y-110500748D01*
G04 #@! TD*
M02*
