G04 #@! TF.GenerationSoftware,KiCad,Pcbnew,5.99.0-unknown-89dcc4689~104~ubuntu20.04.1*
G04 #@! TF.CreationDate,2020-10-12T19:49:43-07:00*
G04 #@! TF.ProjectId,signal-board,7369676e-616c-42d6-926f-6172642e6b69,rev?*
G04 #@! TF.SameCoordinates,Original*
G04 #@! TF.FileFunction,Soldermask,Top*
G04 #@! TF.FilePolarity,Negative*
%FSLAX46Y46*%
G04 Gerber Fmt 4.6, Leading zero omitted, Abs format (unit mm)*
G04 Created by KiCad (PCBNEW 5.99.0-unknown-89dcc4689~104~ubuntu20.04.1) date 2020-10-12 19:49:43*
%MOMM*%
%LPD*%
G01*
G04 APERTURE LIST*
%ADD10O,1.801600X1.801600*%
%ADD11C,1.701600*%
%ADD12O,2.101600X3.401600*%
%ADD13O,3.601600X2.101600*%
%ADD14C,1.661600*%
%ADD15C,1.901600*%
%ADD16C,0.701600*%
G04 APERTURE END LIST*
G04 #@! TO.C,J4*
G36*
G01*
X110070000Y-138060800D02*
X108370000Y-138060800D01*
G75*
G02*
X108319200Y-138010000I0J50800D01*
G01*
X108319200Y-136310000D01*
G75*
G02*
X108370000Y-136259200I50800J0D01*
G01*
X110070000Y-136259200D01*
G75*
G02*
X110120800Y-136310000I0J-50800D01*
G01*
X110120800Y-138010000D01*
G75*
G02*
X110070000Y-138060800I-50800J0D01*
G01*
G37*
D10*
X111760000Y-137160000D03*
X114300000Y-137160000D03*
X116840000Y-137160000D03*
X119380000Y-137160000D03*
X121920000Y-137160000D03*
X124460000Y-137160000D03*
X127000000Y-137160000D03*
X129540000Y-137160000D03*
X132080000Y-137160000D03*
X134620000Y-137160000D03*
X137160000Y-137160000D03*
X139700000Y-137160000D03*
X142240000Y-137160000D03*
X144780000Y-137160000D03*
X147320000Y-137160000D03*
G04 #@! TD*
G04 #@! TO.C,J2*
G36*
G01*
X115150000Y-102500800D02*
X113450000Y-102500800D01*
G75*
G02*
X113399200Y-102450000I0J50800D01*
G01*
X113399200Y-100750000D01*
G75*
G02*
X113450000Y-100699200I50800J0D01*
G01*
X115150000Y-100699200D01*
G75*
G02*
X115200800Y-100750000I0J-50800D01*
G01*
X115200800Y-102450000D01*
G75*
G02*
X115150000Y-102500800I-50800J0D01*
G01*
G37*
X116840000Y-101600000D03*
X119380000Y-101600000D03*
X121920000Y-101600000D03*
X124460000Y-101600000D03*
X127000000Y-101600000D03*
X129540000Y-101600000D03*
X132080000Y-101600000D03*
X134620000Y-101600000D03*
X137160000Y-101600000D03*
X139700000Y-101600000D03*
X142240000Y-101600000D03*
G04 #@! TD*
D11*
G04 #@! TO.C,J1*
X168652200Y-108483400D03*
G36*
G01*
X160652200Y-110534200D02*
X158652200Y-110534200D01*
G75*
G02*
X158601400Y-110483400I0J50800D01*
G01*
X158601400Y-106483400D01*
G75*
G02*
X158652200Y-106432600I50800J0D01*
G01*
X160652200Y-106432600D01*
G75*
G02*
X160703000Y-106483400I0J-50800D01*
G01*
X160703000Y-110483400D01*
G75*
G02*
X160652200Y-110534200I-50800J0D01*
G01*
G37*
D12*
X165652200Y-108483400D03*
D13*
X166652200Y-103983400D03*
X166652200Y-112983400D03*
G04 #@! TD*
G04 #@! TO.C,J3*
G36*
G01*
X162879400Y-127576200D02*
X162879400Y-126576200D01*
G75*
G02*
X162930200Y-126525400I50800J0D01*
G01*
X167930200Y-126525400D01*
G75*
G02*
X167981000Y-126576200I0J-50800D01*
G01*
X167981000Y-127576200D01*
G75*
G02*
X167930200Y-127627000I-50800J0D01*
G01*
X162930200Y-127627000D01*
G75*
G02*
X162879400Y-127576200I0J50800D01*
G01*
G37*
G36*
G01*
X162879400Y-130116200D02*
X162879400Y-129116200D01*
G75*
G02*
X162930200Y-129065400I50800J0D01*
G01*
X167930200Y-129065400D01*
G75*
G02*
X167981000Y-129116200I0J-50800D01*
G01*
X167981000Y-130116200D01*
G75*
G02*
X167930200Y-130167000I-50800J0D01*
G01*
X162930200Y-130167000D01*
G75*
G02*
X162879400Y-130116200I0J50800D01*
G01*
G37*
G36*
G01*
X162879400Y-132656200D02*
X162879400Y-131656200D01*
G75*
G02*
X162930200Y-131605400I50800J0D01*
G01*
X167930200Y-131605400D01*
G75*
G02*
X167981000Y-131656200I0J-50800D01*
G01*
X167981000Y-132656200D01*
G75*
G02*
X167930200Y-132707000I-50800J0D01*
G01*
X162930200Y-132707000D01*
G75*
G02*
X162879400Y-132656200I0J50800D01*
G01*
G37*
G36*
G01*
X162879400Y-135196200D02*
X162879400Y-134196200D01*
G75*
G02*
X162930200Y-134145400I50800J0D01*
G01*
X167930200Y-134145400D01*
G75*
G02*
X167981000Y-134196200I0J-50800D01*
G01*
X167981000Y-135196200D01*
G75*
G02*
X167930200Y-135247000I-50800J0D01*
G01*
X162930200Y-135247000D01*
G75*
G02*
X162879400Y-135196200I0J50800D01*
G01*
G37*
G04 #@! TD*
G04 #@! TO.C,U2*
G36*
G01*
X106670000Y-132930800D02*
X105110000Y-132930800D01*
G75*
G02*
X105059200Y-132880000I0J50800D01*
G01*
X105059200Y-131320000D01*
G75*
G02*
X105110000Y-131269200I50800J0D01*
G01*
X106670000Y-131269200D01*
G75*
G02*
X106720800Y-131320000I0J-50800D01*
G01*
X106720800Y-132880000D01*
G75*
G02*
X106670000Y-132930800I-50800J0D01*
G01*
G37*
D14*
X108430000Y-132100000D03*
X110970000Y-132100000D03*
X113510000Y-132100000D03*
X116050000Y-132100000D03*
X118590000Y-132100000D03*
X121130000Y-132100000D03*
X123670000Y-132100000D03*
X126210000Y-132100000D03*
X128750000Y-132100000D03*
X131290000Y-132100000D03*
X133830000Y-132100000D03*
X136370000Y-132100000D03*
X138910000Y-132100000D03*
X141450000Y-132100000D03*
X143990000Y-132100000D03*
X146530000Y-132100000D03*
X149070000Y-132100000D03*
X151610000Y-132100000D03*
X105890000Y-106700000D03*
X108430000Y-106700000D03*
X110970000Y-106700000D03*
X113510000Y-106700000D03*
X116050000Y-106700000D03*
X118590000Y-106700000D03*
X121130000Y-106700000D03*
X123670000Y-106700000D03*
X126210000Y-106700000D03*
X128750000Y-106700000D03*
X131290000Y-106700000D03*
X133830000Y-106700000D03*
X136370000Y-106700000D03*
X138910000Y-106700000D03*
X141450000Y-106700000D03*
X143990000Y-106700000D03*
X146530000Y-106700000D03*
X149070000Y-106700000D03*
X151610000Y-106700000D03*
G04 #@! TD*
G04 #@! TO.C,D2*
G36*
G01*
X111317200Y-111898000D02*
X111317200Y-110098000D01*
G75*
G02*
X111368000Y-110047200I50800J0D01*
G01*
X113168000Y-110047200D01*
G75*
G02*
X113218800Y-110098000I0J-50800D01*
G01*
X113218800Y-111898000D01*
G75*
G02*
X113168000Y-111948800I-50800J0D01*
G01*
X111368000Y-111948800D01*
G75*
G02*
X111317200Y-111898000I0J50800D01*
G01*
G37*
D15*
X114808000Y-110998000D03*
G04 #@! TD*
G04 #@! TO.C,D1*
G36*
G01*
X109408800Y-110098000D02*
X109408800Y-111898000D01*
G75*
G02*
X109358000Y-111948800I-50800J0D01*
G01*
X107558000Y-111948800D01*
G75*
G02*
X107507200Y-111898000I0J50800D01*
G01*
X107507200Y-110098000D01*
G75*
G02*
X107558000Y-110047200I50800J0D01*
G01*
X109358000Y-110047200D01*
G75*
G02*
X109408800Y-110098000I0J-50800D01*
G01*
G37*
X105918000Y-110998000D03*
G04 #@! TD*
G04 #@! TO.C,J5*
G36*
G01*
X107580800Y-123610000D02*
X107580800Y-125310000D01*
G75*
G02*
X107530000Y-125360800I-50800J0D01*
G01*
X105830000Y-125360800D01*
G75*
G02*
X105779200Y-125310000I0J50800D01*
G01*
X105779200Y-123610000D01*
G75*
G02*
X105830000Y-123559200I50800J0D01*
G01*
X107530000Y-123559200D01*
G75*
G02*
X107580800Y-123610000I0J-50800D01*
G01*
G37*
D10*
X106680000Y-127000000D03*
G04 #@! TD*
D16*
G04 #@! TO.C,U1*
X151814000Y-117081500D03*
X151314000Y-116581500D03*
X151314000Y-117581500D03*
X152314000Y-117581500D03*
X152314000Y-116581500D03*
G04 #@! TD*
G04 #@! TO.C,J6*
G36*
G01*
X107580800Y-118530000D02*
X107580800Y-120230000D01*
G75*
G02*
X107530000Y-120280800I-50800J0D01*
G01*
X105830000Y-120280800D01*
G75*
G02*
X105779200Y-120230000I0J50800D01*
G01*
X105779200Y-118530000D01*
G75*
G02*
X105830000Y-118479200I50800J0D01*
G01*
X107530000Y-118479200D01*
G75*
G02*
X107580800Y-118530000I0J-50800D01*
G01*
G37*
D10*
X106680000Y-121920000D03*
G04 #@! TD*
G36*
X151478939Y-117164288D02*
G01*
X151505767Y-117244701D01*
X151575249Y-117335744D01*
X151670475Y-117399372D01*
X151741213Y-117418128D01*
X151742630Y-117419538D01*
X151742118Y-117421472D01*
X151740387Y-117422036D01*
X151704706Y-117416385D01*
X151668500Y-117425076D01*
X151648910Y-117472369D01*
X151653777Y-117503092D01*
X151653061Y-117504959D01*
X151651085Y-117505272D01*
X151649829Y-117503733D01*
X151643969Y-117468527D01*
X151589585Y-117367736D01*
X151505482Y-117289993D01*
X151412506Y-117248889D01*
X151411327Y-117247274D01*
X151412135Y-117245445D01*
X151413628Y-117245085D01*
X151423294Y-117246616D01*
X151459500Y-117237924D01*
X151479090Y-117190631D01*
X151475067Y-117165234D01*
X151475783Y-117163367D01*
X151477759Y-117163054D01*
X151478939Y-117164288D01*
G37*
G36*
X152155064Y-117145651D02*
G01*
X152155744Y-117147488D01*
X152148885Y-117190794D01*
X152157576Y-117227000D01*
X152204869Y-117246590D01*
X152242758Y-117240588D01*
X152244625Y-117241304D01*
X152244938Y-117243280D01*
X152243553Y-117244504D01*
X152175486Y-117261413D01*
X152079272Y-117323536D01*
X152008369Y-117413478D01*
X151979342Y-117496133D01*
X151977825Y-117497436D01*
X151975938Y-117496773D01*
X151975480Y-117495157D01*
X151979115Y-117472206D01*
X151970424Y-117436000D01*
X151923131Y-117416410D01*
X151910946Y-117418340D01*
X151909079Y-117417624D01*
X151908766Y-117415648D01*
X151909853Y-117414523D01*
X152000883Y-117375977D01*
X152086193Y-117299567D01*
X152142154Y-117199641D01*
X152151802Y-117146816D01*
X152153096Y-117145291D01*
X152155064Y-117145651D01*
G37*
G36*
X151978939Y-116664288D02*
G01*
X152005767Y-116744701D01*
X152075249Y-116835744D01*
X152170475Y-116899372D01*
X152241213Y-116918128D01*
X152242630Y-116919538D01*
X152242118Y-116921472D01*
X152240387Y-116922036D01*
X152204706Y-116916385D01*
X152168500Y-116925076D01*
X152148910Y-116972369D01*
X152153777Y-117003092D01*
X152153061Y-117004959D01*
X152151085Y-117005272D01*
X152149829Y-117003733D01*
X152143969Y-116968527D01*
X152089585Y-116867736D01*
X152005482Y-116789993D01*
X151912506Y-116748889D01*
X151911327Y-116747274D01*
X151912135Y-116745445D01*
X151913628Y-116745085D01*
X151923294Y-116746616D01*
X151959500Y-116737924D01*
X151979090Y-116690631D01*
X151975067Y-116665234D01*
X151975783Y-116663367D01*
X151977759Y-116663054D01*
X151978939Y-116664288D01*
G37*
G36*
X151655064Y-116645651D02*
G01*
X151655744Y-116647488D01*
X151648885Y-116690794D01*
X151657576Y-116727000D01*
X151704869Y-116746590D01*
X151742758Y-116740588D01*
X151744625Y-116741304D01*
X151744938Y-116743280D01*
X151743553Y-116744504D01*
X151675486Y-116761413D01*
X151579272Y-116823536D01*
X151508369Y-116913478D01*
X151479342Y-116996133D01*
X151477825Y-116997436D01*
X151475938Y-116996773D01*
X151475480Y-116995157D01*
X151479115Y-116972206D01*
X151470424Y-116936000D01*
X151423131Y-116916410D01*
X151410946Y-116918340D01*
X151409079Y-116917624D01*
X151408766Y-116915648D01*
X151409853Y-116914523D01*
X151500883Y-116875977D01*
X151586193Y-116799567D01*
X151642154Y-116699641D01*
X151651802Y-116646816D01*
X151653096Y-116645291D01*
X151655064Y-116645651D01*
G37*
M02*
